<?xml version="1.0" standalone="no"?>
<!DOCTYPE svg PUBLIC "-//W3C//DTD SVG 1.1//EN" "http://www.w3.org/Graphics/SVG/1.1/DTD/svg11.dtd" >
<svg>
<metadata>
Created by FontForge 20090914 at Sun Oct 11 22:03:28 2020
 By www-data
(c) Andriy Konstantynov 2013-2019 Desktop use is strictly prohibited.
</metadata>
<defs>
<font id="CynthoNext-SemiBold" horiz-adv-x="1228" >
  <font-face 
    font-family="Cyntho Next SemiBold"
    font-weight="600"
    font-stretch="normal"
    units-per-em="2048"
    panose-1="0 0 0 0 0 0 0 0 0 0"
    ascent="1741"
    descent="-307"
    x-height="1024"
    cap-height="1434"
    bbox="-334 -479 2372 1935"
    underline-thickness="0"
    underline-position="0"
    unicode-range="U+000D-U+FB04"
  />
<missing-glyph horiz-adv-x="681" 
 />
    <glyph glyph-name="uniFB00" unicode="ff" horiz-adv-x="1544" 
d="M217 0l0.000976562 842h-188v182h188v109c0 108.667 34 197.667 102 267c66.667 68.667 153.667 103 261 103c112 0 204 -39.667 276 -119l-121 -141c-38 38 -83 57 -135 57c-42 0 -77 -14.667 -105 -44s-42 -66.333 -42 -111v-121h471v109
c0 108.667 33.667 197.667 101 267c66.667 68.667 153.667 103 261 103c111.333 0 203.666 -39.667 276.999 -119l-121 -141c-38 38 -83 57 -135 57c-42 0 -76.667 -14.667 -104 -44c-28 -29.333 -42 -66.333 -42 -111v-121h355v-182h-355v-842h-237v842h-471v-842h-236z
" />
    <glyph glyph-name="uniFB01" unicode="fi" horiz-adv-x="1286" 
d="M215 842h-188.001v182h188v109c0 108.667 34 197.667 102 267c66.667 68.667 153.667 103 261 103c112 0 204 -39.667 276 -119l-121 -141c-38 38 -82.333 57 -133 57c-43.333 0 -78.666 -14.667 -105.999 -44s-41 -66.333 -41 -111v-121h354v-182h-354v-842h-238v842z
M1161 0h-235v1024h235v-1024zM1161 1219h-235v215h235v-215z" />
    <glyph glyph-name="uniFB02" unicode="fl" horiz-adv-x="1423" 
d="M215 842h-188.001v182h188v109c0 108.667 34 197.667 102 267c66.667 68.667 153.667 103 261 103c112 0 204 -39.667 276 -119l-121 -141c-38 38 -82.333 57 -133 57c-43.333 0 -78.666 -14.667 -105.999 -44s-41 -66.333 -41 -111v-121h354v-182h-354v-842h-238v842z
M943.999 264v1221h236v-1204c0 -28.667 8.66699 -52 26 -70s40 -27 68 -27c26 0 49 10.333 69 31l109 -141c-59.333 -61.333 -133 -92 -221 -92c-85.333 0 -154.333 26.333 -207 79c-53.333 52 -80 119.667 -80 203z" />
    <glyph glyph-name="uniFB03" unicode="ffi" horiz-adv-x="1994" 
d="M453 1145l0.000976562 -121h473v109c0 108.667 33.667 197.667 101 267c66.667 68.667 153.667 103 261 103c111.333 0 203.666 -39.667 276.999 -119l-121 -141c-38 38 -83 57 -135 57c-42 0 -77 -14.667 -105 -44c-28.667 -28.667 -43 -65.667 -43 -111v-121h357v-182
h-357v-842h-235v842h-473v-842h-236v842h-188v182h188v109c0 108.667 34 197.667 102 267c66.667 68.667 153.667 103 261 103c112 0 204 -39.667 276 -119l-121 -141c-38 38 -83 57 -135 57c-42 0 -77 -14.667 -105 -44s-42 -66.333 -42 -111zM1870 0h-236v1024h236v-1024z
M1870 1219h-236v215h236v-215z" />
    <glyph glyph-name="uniFB04" unicode="ffl" horiz-adv-x="2131" 
d="M453 1145v-121h471v109c0 108.667 33.667 197.667 101 267c66.667 68.667 153.667 103 261 103c111.333 0 203.666 -39.667 276.999 -119l-121 -141c-38 38 -82.333 57 -133 57c-43.333 0 -78.833 -14.667 -106.5 -44s-41.5 -66.333 -41.5 -111v-121h355v-182h-355v-842
h-237v842h-471v-842h-238v842h-188v182h188v109c0 108.667 34 197.667 102 267c66.667 68.667 153.667 103 261 103c112 0 204 -39.667 276 -119l-121 -141c-38 38 -82.333 57 -133 57c-43.333 0 -78.666 -14.667 -105.999 -44s-41 -66.333 -41 -111zM1653 264
l0.000976562 1221h235v-1204c0 -28.667 8.66699 -52 26 -70s40 -27 68 -27c26 0 49.333 10.333 70 31l109 -141c-59.333 -61.333 -133.333 -92 -222 -92c-84.667 0 -153.334 26.333 -206.001 79c-53.333 52 -80 119.667 -80 203z" />
    <glyph glyph-name=".notdef" horiz-adv-x="681" 
 />
    <glyph glyph-name="glyph1" horiz-adv-x="0" 
 />
    <glyph glyph-name="glyph1" horiz-adv-x="0" 
 />
    <glyph glyph-name="uni000D" unicode="&#xd;" horiz-adv-x="512" 
 />
    <glyph glyph-name="space" unicode=" " horiz-adv-x="595" 
 />
    <glyph glyph-name="exclam" unicode="!" horiz-adv-x="512" 
d="M383 0h-254v270h254v-270zM356 455h-200l-27 979h254z" />
    <glyph glyph-name="quotedbl" unicode="&#x22;" horiz-adv-x="722" 
d="M596 971h-164l-37 463h238zM293 971h-166l-35 463h236z" />
    <glyph glyph-name="numbersign" unicode="#" horiz-adv-x="1409" 
d="M1235 485l-27 -147h-252l-59 -338h-147l59 338h-344l-59 -338h-148l59 338h-249l24 147h252l80 463h-250l27 148h250l59 338h147l-59 -338h344l59 338h148l-59 -338h251l-24 -148h-254l-80 -463h252zM571 948l-79 -463h344l79 463h-344z" />
    <glyph glyph-name="dollar" unicode="$" horiz-adv-x="1230" 
d="M82 174l127 164c82 -76 190.667 -121.667 326 -137c4.66699 0 14.667 -0.333008 30 -1s25 -1 29 -1c34 0 63.333 2.66699 88 8c64.667 10.667 116.334 32 155.001 64s58 70 58 114c0 39.333 -16.333 72.833 -49 100.5s-87.334 55.5 -164.001 83.5
c-36 16 -85 33.333 -147 52c-148 54.667 -256.667 114.667 -326 180c-68.667 64.667 -103 145.667 -103 243c0 109.333 39.333 201.333 118 276s182.334 118 311.001 130v188h147v-190c169.333 -18.667 308 -78 416 -178l-125 -166c-38 41.333 -89.333 73.666 -154 96.999
c-63.333 22.667 -127.333 34 -192 34c-20.667 0 -51.334 -2.66699 -92.001 -8c-54.667 -10.667 -97.834 -31.5 -129.501 -62.5s-47.5 -67.5 -47.5 -109.5c0 -29.333 11.167 -57.5 33.5 -84.5s52.833 -49.833 91.5 -68.5c66 -32.667 132.333 -57.667 199 -75
c162.667 -56 281 -117 355 -183c73.333 -66 110 -147.667 110 -245c0 -110 -42.667 -203.667 -128 -281s-197.666 -122 -336.999 -134v-189h-147v191c-184.667 16.667 -335.667 79.334 -453 188.001z" />
    <glyph glyph-name="percent" unicode="%" horiz-adv-x="1683" 
d="M424 0h-172l1003 1434h177zM179 761c-58 74 -87.001 170.667 -87.001 290c0 118 29 214.667 87 290c58 74 132.667 111 224 111c92.667 0 168.334 -37 227.001 -111c58 -75.333 87 -172 87 -290c0 -119.333 -29 -216 -87 -290c-58 -74.667 -133.667 -112 -227 -112
c-91.333 0 -166 37.333 -224 112zM295.999 1244c-28 -50 -41.999 -114.333 -41.999 -193c0 -79.333 14 -144 42 -194s63.667 -75 107 -75c45.333 0 82 25 110 75s42 114.667 42 194c0 78.667 -14 143 -42 193s-64.667 75 -110 75c-44.667 0 -80.334 -25 -107.001 -75z
M1054 94c-58 74 -86.999 170.332 -86.999 288.999s29 215.334 87 290.001c58 74 132.667 111 224 111c92 0 167.667 -37 227 -111c58.667 -74.667 88 -171.334 88 -290.001c0 -119.333 -29.333 -215.666 -88 -288.999c-58.667 -74.667 -134.334 -112 -227.001 -112
c-91.333 0 -166 37.333 -224 112zM1170 576.999c-28 -50 -42 -114.667 -42 -194s14 -143.666 42 -192.999c28 -50 64 -75 108 -75c46.667 0 84 25 112 75c28 49.333 42 113.666 42 192.999s-14 144 -42 194c-28 49.333 -65.333 74 -112 74c-44 0 -80 -24.667 -108 -74z" />
    <glyph glyph-name="ampersand" unicode="&#x26;" horiz-adv-x="1425" 
d="M594 -18c-154 0 -278 41 -372 123c-94.667 80.667 -142 188.334 -142 323.001c0 100 27 181 81 243s127.333 116.333 220 163c-56 98 -84 189.333 -84 274c0 100 35 182.333 105 247c68.667 64.667 159.334 97 272.001 97c106 0 192.667 -29.667 260 -89
c66.667 -58.667 100 -135.334 100 -230.001c0 -98.667 -37 -177 -111 -235c-39.333 -30.667 -75.333 -54.667 -108 -72c-34.667 -19.333 -79 -41.333 -133 -66l42 -42c16 -16 28.667 -29.333 38 -40c83.333 -82 158.333 -152.333 225 -211c30 78 45 161.333 45 250h201
c0 -152 -27.333 -284.667 -82 -398l227 -194l-147 -148c-46.667 36 -114.334 92.667 -203.001 170c-113.333 -110 -258 -165 -434 -165zM498 672c-120.667 -68.667 -181.666 -153.999 -182.999 -255.999c0 -72.667 25.333 -131.334 76 -176.001
c51.333 -45.333 117.666 -68 198.999 -68c108.667 0 202.667 39.667 282 119c-159.333 147.333 -284 274.333 -374 381zM565.001 913.001c88.667 34.667 152.833 67.833 192.5 99.5s59.5 70.167 59.5 115.5c0 38 -13.667 69.833 -41 95.5s-62 38.5 -104 38.5
c-48 0 -87 -16.667 -117 -50c-30 -34 -45 -76.333 -45 -127c0 -52 18.333 -109.333 55 -172z" />
    <glyph glyph-name="quotesingle" unicode="'" horiz-adv-x="419" 
d="M293 971h-166l-35 463h236z" />
    <glyph glyph-name="parenleft" unicode="(" horiz-adv-x="679" 
d="M210 256c-26.667 110.667 -40.002 230.332 -40.002 358.999c0 125.333 12.667 244.333 38 357c24.667 110.667 55.334 200.334 92.001 269.001c34.667 65.333 70.167 123.5 106.5 174.5s67.5 87.167 93.5 108.5l39 30l102 -102
c-7.33301 -6.66699 -16.333 -16.667 -27 -30c-13.333 -15.333 -34 -47.333 -62 -96c-30 -52 -55.667 -106.333 -77 -163c-22 -59.333 -42 -138 -60 -236c-18.667 -97.333 -28 -201.333 -28 -312c0 -109.333 9 -213 27 -311c16.667 -96 38 -176 64 -240
c52 -127.333 98 -213 138 -257l27 -30l-104 -103c-21.333 16 -34.666 26.667 -39.999 32c-18.667 16.667 -48.334 51 -89.001 103c-42 54 -79.333 114 -112 180c-31.333 64.667 -60.666 153.667 -87.999 267z" />
    <glyph glyph-name="parenright" unicode=")" horiz-adv-x="679" 
d="M470 974c26.667 -111.333 40.002 -231.001 40.002 -359.001c0 -126 -12.667 -245.333 -38 -358c-24.667 -110 -55.334 -200 -92.001 -270c-34.667 -65.333 -70.167 -123.333 -106.5 -174s-67.5 -86.667 -93.5 -108l-39 -31l-104 103c2.66699 2.66699 12 12.667 28 30
c12.667 16.667 33 48.334 61 95.001c28.667 49.333 54.667 104 78 164c22 55.333 42.667 134.333 62 237c18 99.333 27 203.333 27 312c0 106.667 -8.66699 210.334 -26 311.001c-18.667 100 -40 179.667 -64 239c-51.333 128 -97 213.333 -137 256l-27 31l102 102
c2 -1.33301 5.33301 -3.83301 10 -7.5l14.5 -11.5l15.5 -12c18.667 -16.667 48.667 -51.334 90 -104.001c42.667 -56 79.667 -115.667 111 -179c31.333 -64 60.666 -152.667 87.999 -266z" />
    <glyph glyph-name="asterisk" unicode="*" horiz-adv-x="806" 
d="M115 1280l231 -96l-24 250h163l-22 -248l229 98l51 -158l-243 -53l164 -188l-132 -99l-126 215l-130 -215l-133 97l166 188l-246 55z" />
    <glyph glyph-name="plus" unicode="+" 
d="M541 643h-336v148h336v335h147v-335h336v-148h-336v-336h-147v336z" />
    <glyph glyph-name="comma" unicode="," horiz-adv-x="438" 
d="M211 -240h-184l75 476h256z" />
    <glyph glyph-name="hyphen" unicode="-" horiz-adv-x="768" 
d="M643 479h-518v148h518v-148z" />
    <glyph glyph-name="period" unicode="." horiz-adv-x="438" 
d="M346 0h-254v270h254v-270z" />
    <glyph glyph-name="slash" unicode="/" horiz-adv-x="960" 
d="M961 1475l-828 -1782l-133 61l827 1782z" />
    <glyph glyph-name="zero" unicode="0" horiz-adv-x="1304" 
d="M82 717c0 216.667 52.999 393.669 158.999 531.002c104.667 136 241.334 204 410.001 204c169.333 0 307.333 -68.333 414 -205s160 -313.334 160 -530.001c0 -216 -53.333 -392.333 -160 -529c-107.333 -137.333 -245.333 -206 -414 -206
c-168 0 -304.667 68.667 -410 206c-106 137.333 -159 313.666 -159 528.999zM423.999 1103c-58.667 -98.667 -87.999 -227.331 -87.999 -385.998s29.333 -287.334 88 -386.001c59.333 -99.333 135 -149 227 -149c94 0 171 50 231 150c59.333 99.333 89 227.666 89 384.999
c0 156 -29.667 284.333 -89 385c-59.333 99.333 -136.333 149 -231 149c-92.667 0 -168.334 -49.333 -227.001 -148z" />
    <glyph glyph-name="one" unicode="1" horiz-adv-x="925" 
d="M197 999l-105 183l451 252h182v-1434h-236v1163z" />
    <glyph glyph-name="two" unicode="2" horiz-adv-x="1159" 
d="M1051 0l-945.001 -0.00195312v174c21.333 14 45.333 31.333 72 52c34.667 26.667 87.667 72.334 159 137.001c78.667 70.667 145.334 137 200.001 199c58 66 110.667 142 158 228c47.333 87.333 71 166 71 236c0 70.667 -21.833 125.834 -65.5 165.501
s-109.167 59.5 -196.5 59.5c-113.333 0 -211 -43 -293 -129l-129 129c137.333 134 287.333 201 450 201c144 0 261.667 -38.667 353 -116c90 -78 135 -178.667 135 -302c0 -74 -18.667 -154 -56 -240c-38.667 -86.667 -84.667 -163 -138 -229
c-52.667 -66 -106.667 -128.333 -162 -187c-57.333 -59.333 -104 -103.333 -140 -132l-55 -45h582v-201z" />
    <glyph glyph-name="three" unicode="3" horiz-adv-x="1193" 
d="M571 -18c-198 0 -362.335 67.333 -493.002 202l135 135c36.667 -42 84.167 -75.333 142.5 -100s119.5 -37 183.5 -37c89.333 0 160.666 22.333 213.999 67c54 44 81 101 81 171c0 69.333 -25.333 126.333 -76 171c-50.667 44 -115.667 66 -195 66h-117v183h119
c66.667 0 121.334 19 164.001 57s64 87 64 147c0 60.667 -22.667 110.667 -68 150c-45.333 38 -106 57 -182 57c-60.667 0 -119 -12.333 -175 -37s-101 -58 -135 -100l-135 135c120 135.333 277 203 471 203c140 0 252.667 -34.333 338 -103c86 -68.667 129 -160 129 -274
c0 -74 -18.333 -139.5 -55 -196.5s-88 -99.833 -154 -128.5c78.667 -30 140.334 -76.833 185.001 -140.5s67 -137.167 67 -220.5c0 -120.667 -47 -218.667 -141 -294c-95.333 -75.333 -217.666 -113 -366.999 -113z" />
    <glyph glyph-name="four" unicode="4" horiz-adv-x="1325" 
d="M68 285v118l718 1031h271v-967h182v-182h-182v-285h-244v285h-745zM813 1118l-457 -651h457v651z" />
    <glyph glyph-name="five" unicode="5" horiz-adv-x="1157" 
d="M526 -18c-179.333 0 -337.668 64.668 -475.001 194.001l135 135c86.667 -86 195.334 -129 326.001 -129c98.667 0 173.834 22.667 225.501 68s77.5 108.666 77.5 189.999c0 86.667 -29.667 156.667 -89 210c-58.667 52.667 -142.334 79 -251.001 79
c-76 0 -163.333 -11.667 -262 -35l-53 51l53 689h723v-201h-537l-24 -330c41.333 10 95.333 15.667 162 17c160 0 288.667 -45.667 386 -137c97.333 -92 146 -206.333 146 -343c0 -138.667 -50.667 -249.667 -152 -333c-102.667 -83.333 -233 -125 -391 -125z" />
    <glyph glyph-name="six" unicode="6" horiz-adv-x="1226" 
d="M692 1251c-214.667 0 -333.33 -144 -355.997 -432c75.333 61.333 173.666 92 294.999 92c152 0 276.333 -43.667 373 -131c95.333 -87.333 143 -200 143 -338c0 -136 -46.667 -246.667 -140 -332c-94.667 -85.333 -215.334 -128 -362.001 -128
c-176.667 0 -314.334 64 -413.001 192c-100 126.667 -150 305.667 -150 537c0 236 52.667 418.667 158 548c104.667 128.667 252 193 442 193c178.667 0 316 -47 412 -141l-144 -142c-55.333 54.667 -141.333 82 -258 82zM641.004 182
c74.667 0 135.332 24.332 181.999 72.999s70 110.334 70 185.001c0 79.333 -27 144 -81 194s-125.333 75 -214 75c-115.333 0 -202.666 -37 -261.999 -111c8 -135.333 38.833 -238.5 92.5 -309.5s124.5 -106.5 212.5 -106.5z" />
    <glyph glyph-name="seven" unicode="7" horiz-adv-x="1187" 
d="M825 1233h-749v201h1034v-119l-582 -1315h-245z" />
    <glyph glyph-name="eight" unicode="8" horiz-adv-x="1253" 
d="M147 1087c0 108 44.667 196.002 134 264.002c89.333 67.333 204.666 101 345.999 101c143.333 0 259.333 -33.333 348 -100s133 -155 133 -265c0 -74.667 -18.333 -140.334 -55 -197.001s-88 -99.334 -154 -128.001c80 -31.333 142.333 -79.833 187 -145.5
s67 -141.5 67 -227.5c0 -121.333 -48.333 -219.333 -145 -294c-97.333 -75.333 -224.333 -113 -381 -113s-283.667 37.667 -381 113s-146 173.333 -146 294c0 85.333 22.5 160.833 67.5 226.5s107.167 114.5 186.5 146.5c-65.333 28.667 -116.166 71.5 -152.499 128.5
s-54.5 122.5 -54.5 196.5zM430 592.002c-50.667 -44.667 -75.999 -101.999 -75.999 -171.999s25.333 -127 76 -171c50.667 -44.667 115.667 -67 195 -67c81.333 0 147.333 22.333 198 67c50.667 44 76 101 76 171c0 69.333 -25.667 126.666 -77 171.999
c-50.667 44.667 -116.334 67 -197.001 67c-79.333 0 -144.333 -22.333 -195 -67zM401.001 1055c0 -57.333 21.333 -104 64 -140c41.333 -36.667 95.333 -55 162 -55c68.667 0 123.667 18.333 165 55c41.333 36 62 82.667 62 140c0 58.667 -20.667 106 -62 142
c-42 36 -97 54 -165 54c-64.667 0 -118.667 -18 -162 -54c-42.667 -36 -64 -83.333 -64 -142z" />
    <glyph glyph-name="nine" unicode="9" horiz-adv-x="1216" 
d="M512 182c110 0 197.168 37.5 261.501 112.5s100.166 181.5 107.499 319.5c-76.667 -60 -173 -90 -289 -90c-152 0 -274.667 43.333 -368 130c-94.667 86.667 -142 199 -142 337c0 136.667 46 247.667 138 333c92.667 85.333 212 128 358 128
c174.667 0 311.334 -63.333 410.001 -190c98 -126.667 147 -303.667 147 -531c0 -240 -54.667 -424.667 -164 -554c-108.667 -130 -258.334 -195 -449.001 -195c-182.667 0 -329.334 53 -440.001 159l143 144c70.667 -68.667 166.334 -103 287.001 -103zM584.001 1251
c-72.667 0 -132 -24 -178 -72c-46.667 -48.667 -70 -110.667 -70 -186c0 -79.333 26.333 -143.333 79 -192c53.333 -49.333 122.666 -74 207.999 -74c115.333 0 201.333 37 258 111c-8 135.333 -38.167 238 -90.5 308s-121.166 105 -206.499 105z" />
    <glyph glyph-name="colon" unicode=":" horiz-adv-x="438" 
d="M346 0h-254v270h254v-270zM92 754v270h254v-270h-254z" />
    <glyph glyph-name="semicolon" unicode=";" horiz-adv-x="438" 
d="M211 -240h-184l75 476h256zM346 754h-254v270h254v-270z" />
    <glyph glyph-name="less" unicode="&#x3c;" 
d="M164 639v158l860 333v-155l-651 -256l651 -258v-156z" />
    <glyph glyph-name="equal" unicode="=" 
d="M1024 840h-819v147h819v-147zM1024 594v-148h-819v148h819z" />
    <glyph glyph-name="greater" unicode="&#x3e;" 
d="M205 305v156l651 258l-651 256v155l860 -333v-158z" />
    <glyph glyph-name="question" unicode="?" horiz-adv-x="1095" 
d="M1006 1044c0 -59.333 -12.334 -114.003 -37.001 -164.003c-26 -53.333 -55.667 -94.666 -89 -123.999c-68.667 -62 -134 -105 -196 -129l-37 -15l-12 -157h-201l-14 297c2.66699 0.666992 8 2.16699 16 4.5s14.667 4.5 20 6.5c18 6.66699 44.333 18.334 79 35.001
c37.333 18 71 37.667 101 59c28.667 20.667 55.334 49 80.001 85c24 34.667 36 72.334 36 113.001c0 56 -22.333 103 -67 141c-45.333 38 -112.666 57 -201.999 57c-121.333 0 -223 -47 -305 -141l-131 131c134 140.667 288.333 211 463 211
c145.333 0 264.666 -38.667 357.999 -116c92 -77.333 138 -175.333 138 -294zM661.999 -0.00292969h-254v270h254v-270z" />
    <glyph glyph-name="at" unicode="@" horiz-adv-x="2201" 
d="M1591 -102l98.9971 -119c-220 -172 -470 -258 -750 -258c-261.333 0 -469.666 74 -624.999 222s-233 349 -233 603c0 208 52.333 400.667 157 578c104 176.667 247.667 317.667 431 423c183.333 104 384.666 156 603.999 156c252 0 456.333 -68.667 613 -206
c155.333 -138 233 -320.333 233 -547c0 -122 -21.667 -240 -65 -354c-44 -114 -113 -210 -207 -288c-94.667 -78.667 -204 -118 -328 -118c-135.333 0 -223.666 51.667 -264.999 155c-42 -49.333 -94.5 -88.833 -157.5 -118.5s-127.167 -44.5 -192.5 -44.5
c-102.667 0 -184 36 -244 108c-60 70.667 -90 167.667 -90 291c0 186 67 342.667 201 470c134.667 127.333 301.334 191 500.001 191c126 0 238.667 -26.333 338 -79l-117 -658c-6.66699 -38.667 0 -70.167 20 -94.5s48 -36.5 84 -36.5c59.333 0 111.333 35 156 105
c46 70.667 78.333 147.667 97 231s28 162.666 28 237.999c0 165.333 -57 299.333 -171 402c-114 102 -266 153 -456 153c-171.333 0 -328.666 -43.333 -471.999 -130c-144 -87.333 -256 -202.333 -336 -345c-80.667 -142.667 -121 -295.667 -121 -459
c0 -196.667 60 -354 180 -472c120.667 -117.333 285 -176 493 -176c110.667 0 219 15.333 325 46s196.333 74.334 271 131.001zM1284 465l61.999 348c-48 19.333 -100.667 29 -158 29c-111.333 0 -201.666 -42.667 -270.999 -128s-104 -184 -104 -296c0 -76 17 -136 51 -180
s80.667 -66 140 -66c68 0 128 27.333 180 82c52 56 85.333 126.333 100 211z" />
    <glyph glyph-name="A" unicode="A" horiz-adv-x="1603" 
d="M305 0h-268l635 1434h260l635 -1434h-269l-137 315h-719zM1071 526l-268 617l-268 -617h536z" />
    <glyph glyph-name="B" unicode="B" horiz-adv-x="1413" 
d="M926 0h-790.999v1434h762c111.333 0 201.666 -33.333 270.999 -100c69.333 -67.333 104 -154.333 104 -261c0 -72 -16.667 -136 -50 -192s-79 -98.333 -137 -127c76 -23.333 136.333 -67.333 181 -132s67 -141.667 67 -231c0 -116 -37.333 -210 -112 -282
c-74.667 -72.667 -173 -109 -295 -109zM834.001 635l-445 0.000976562v-434h445c67.333 0 122.666 20.667 165.999 62c42 41.333 63 93.666 63 156.999c0 64 -21 116 -63 156c-43.333 39.333 -98.666 59 -165.999 59zM389.001 1233l0.000976562 -388.998h426
c58 0 105.667 17.667 143 53c36 35.333 54 81.666 54 138.999s-18 104.666 -54 141.999c-36.667 36.667 -84.334 55 -143.001 55h-426z" />
    <glyph glyph-name="C" unicode="C" horiz-adv-x="1411" 
d="M1202 348l150.002 -155c-136.667 -140.667 -315 -211 -535 -211c-219.333 0 -396.333 68 -531 204c-136 134.667 -204 311 -204 529s68 395.667 204 533c135.333 136 311.666 204 528.999 204c215.333 0 394.333 -70.333 537 -211l-150 -154
c-37.333 44 -89.333 80 -156 108c-68 28 -138.667 42 -212 42c-142.667 0 -258.334 -48.333 -347.001 -145c-90 -97.333 -135 -222.333 -135 -375c0 -151.333 45 -275.333 135 -372c89.333 -97.333 205 -146 347 -146c73.333 0 144 13.667 212 41
c66.667 26.667 118.667 62.667 156 108z" />
    <glyph glyph-name="D" unicode="D" horiz-adv-x="1542" 
d="M723 0h-588v1434h588c218.667 0 397 -67 535 -201c137.333 -134 206 -306 206 -516c0 -210.667 -68.667 -382.667 -206 -516c-138 -134 -316.333 -201 -535 -201zM1069 349c88.667 92.667 133 215.333 133 368c0 152 -44.333 274.667 -133 368
c-89.333 93.333 -204.666 140 -345.999 140h-334v-1016h334c141.333 0 256.666 46.667 345.999 140z" />
    <glyph glyph-name="E" unicode="E" horiz-adv-x="1294" 
d="M135 0v1434h1047v-209h-793v-391h729v-209h-729v-416h811v-209h-1065z" />
    <glyph glyph-name="F" unicode="F" horiz-adv-x="1273" 
d="M135 0v1434h1047v-209h-793v-394h729v-208h-729v-623h-254z" />
    <glyph glyph-name="G" unicode="G" horiz-adv-x="1488" 
d="M1130 602l-345.999 0.000976562v209h600v-623c-139.333 -139.333 -321.333 -209 -546 -209c-226.667 1.33301 -409 70 -547 206c-139.333 136 -209 312.667 -209 530c0 218 70 395.667 210 533c140 136 320.667 204 542 204c223.333 0 406.666 -70.333 549.999 -211
l-147 -156c-42 46 -98 82.333 -168 109c-72.667 27.333 -147 41 -223 41c-144.667 0 -263 -48.333 -355 -145c-92.667 -96.667 -139 -221.667 -139 -375c0 -150.667 46.667 -274.334 140 -371.001c92.667 -96.667 212.667 -145 360 -145c106 0 198.667 26.667 278 80v323z
" />
    <glyph glyph-name="H" unicode="H" horiz-adv-x="1570" 
d="M389 0h-254v1434h254v-603h793v603h254v-1434h-254v623h-793v-623z" />
    <glyph glyph-name="I" unicode="I" horiz-adv-x="524" 
d="M389 1434v-1434h-254v1434h254z" />
    <glyph glyph-name="J" unicode="J" horiz-adv-x="1105" 
d="M727 494l0.000976562 940.001h254v-940c0 -154.667 -49.333 -278.334 -148 -371.001c-99.333 -94 -228.333 -141 -387 -141c-162.667 0 -296.334 50.333 -401.001 151l143 164c56 -65.333 138 -98 246 -98c86 0 156.333 27.333 211 82s82 125.667 82 213z" />
    <glyph glyph-name="K" unicode="K" horiz-adv-x="1419" 
d="M389 473v-473h-254v1434h254v-629l610 629h326l-569 -584l614 -850h-285l-495 680z" />
    <glyph glyph-name="L" unicode="L" horiz-adv-x="1210" 
d="M1161 0h-1026v1434h254v-1225h772v-209z" />
    <glyph glyph-name="M" unicode="M" horiz-adv-x="1857" 
d="M135 0v1434h332l463 -959l461 959h331v-1434h-245v1073l-455 -944h-184l-457 944v-1073h-246z" />
    <glyph glyph-name="N" unicode="N" horiz-adv-x="1556" 
d="M381 0h-246v1434h244l797 -1028v1028h245v-1434h-243l-797 1038v-1038z" />
    <glyph glyph-name="O" unicode="O" horiz-adv-x="1654" 
d="M289 187c-138 136 -206.999 312.667 -206.999 530c0 216.667 69 393.334 207 530.001c137.333 136.667 316 205 536 205c221.333 0 401.333 -68.333 540 -205s208 -313.334 208 -530.001c0 -217.333 -69.333 -394 -208 -530c-138.667 -136.667 -318.667 -205 -540 -205
c-220.667 0 -399.334 68.333 -536.001 205zM486.001 1089c-89.333 -98.667 -134.001 -222.665 -134.001 -371.998c0 -150 45 -273.667 135 -371c88.667 -98 201.334 -147 338.001 -147c140.667 0 255 48.333 343 145c88 97.333 132 221.666 132 372.999
s-44 275.666 -132 372.999c-88 96.667 -202.333 145 -343 145c-136.667 0 -249.667 -48.667 -339 -146z" />
    <glyph glyph-name="P" unicode="P" horiz-adv-x="1337" 
d="M389 549v-548.999h-254v1434h686c132.667 0 241 -41 325 -123s126 -187.667 126 -317c0 -130.667 -42 -237.334 -126 -320.001c-84.667 -83.333 -193 -125 -325 -125h-432zM389 1225l0.000976562 -465.001h406c65.333 0 119 22 161 66c41.333 43.333 62 100 62 170
c0 68.667 -20.667 124.334 -62 167.001c-42.667 41.333 -96.334 62 -161.001 62h-406z" />
    <glyph glyph-name="Q" unicode="Q" horiz-adv-x="1654" 
d="M825 1452c220.667 0 400.667 -67.999 540 -203.999c138.667 -136 208 -313 208 -531c0 -176.667 -48.667 -330.334 -146 -461.001l129 -129l-163 -164l-138 139c-122.667 -80.667 -266 -120.667 -430 -120c-220.667 0 -399.334 68 -536.001 204
c-138 134.667 -207 311.667 -207 531c0 218 69 395 207 531c136.667 136 315.334 204 536.001 204zM1030 653.001l213.003 -211.001c41.333 76.667 62.666 167 63.999 271c0 154 -44.333 280.333 -133 379c-89.333 98 -204.333 147 -345 147s-256 -48.667 -346 -146
c-90 -98 -135 -223.333 -135 -376c0 -153.333 45.667 -278.666 137 -375.999s207.666 -146 348.999 -146c97.333 0 182.666 23.667 255.999 71l-224 223z" />
    <glyph glyph-name="R" unicode="R" horiz-adv-x="1400" 
d="M389 0l-254 0.000976562v1434h690c132.667 0 241 -41 325 -123s126 -188 126 -318c0 -96.667 -24.333 -181.334 -73 -254.001c-50 -74 -115.667 -126.333 -197 -157l344 -582h-275l-325 549h-361v-549zM799 1225l-409.999 -0.000976562v-465h410c65.333 0 119 22 161 66
c41.333 43.333 62 100 62 170c0 68.667 -20.667 124.334 -62 167.001c-42.667 41.333 -96.334 62 -161.001 62z" />
    <glyph glyph-name="S" unicode="S" horiz-adv-x="1230" 
d="M1147 399c0 -120 -49.3359 -219.331 -148.003 -297.998c-99.333 -79.333 -227 -119 -383 -119c-102 0 -200.667 17.333 -296 52c-96.667 35.333 -176 82 -238 140l127 164c44.667 -40.667 101.667 -74 171 -100c68.667 -26 140 -39 214 -39
c86.667 0 158.667 17.667 216 53c56.667 34.667 85 79 85 133c0 46 -22.333 84.333 -67 115c-45.333 31.333 -120.666 64 -225.999 98c-172.667 56 -298.667 118.667 -378 188c-78.667 68.667 -118 154.667 -118 258c0 118.667 46 216.334 138 293.001
c90.667 76.667 208.667 115 354 115c93.333 0 186 -16.667 278 -50c90.667 -33.333 164.667 -77.333 222 -132l-125 -166c-36.667 37.333 -86.667 68.666 -150 93.999c-63.333 24.667 -128.666 37 -195.999 37c-80 0 -144.667 -16.333 -194 -49
c-50 -33.333 -75 -77 -75 -131c0 -46.667 23 -86 69 -118c46.667 -32.667 123.334 -66.334 230.001 -101.001c170 -56.667 294.333 -119.334 373 -188.001c78 -68 117 -151 117 -249z" />
    <glyph glyph-name="T" unicode="T" horiz-adv-x="1359" 
d="M39 1225v209h1282v-209h-514v-1225h-254v1225h-514z" />
    <glyph glyph-name="U" unicode="U" horiz-adv-x="1525" 
d="M125 606v828h254v-828c0 -124.667 35.667 -223.667 107 -297s164 -110 278 -110s206.667 36.667 278 110c70 72.667 105 171.667 105 297v828h254v-828c0 -189.333 -58.667 -340.666 -176 -453.999s-271 -170 -461 -170c-189.333 0 -343.333 56.667 -462 170
c-118 113.333 -177 264.666 -177 453.999z" />
    <glyph glyph-name="V" unicode="V" horiz-adv-x="1583" 
d="M922 0h-260l-625 1434h268l488 -1143l485 1143h268z" />
    <glyph glyph-name="W" unicode="W" horiz-adv-x="2256" 
d="M772 0h-264l-471 1434h258l342 -1098l364 1098h254l361 -1098l344 1098h258l-471 -1434h-264l-355 1094z" />
    <glyph glyph-name="X" unicode="X" horiz-adv-x="1497" 
d="M745 559l-397 -559h-301l543 733l-514 701h301l368 -529l373 529h303l-516 -701l543 -733h-303z" />
    <glyph glyph-name="Y" unicode="Y" horiz-adv-x="1435" 
d="M590 539l-553 895h278l402 -660l403 660h277l-553 -895v-539h-254v539z" />
    <glyph glyph-name="Z" unicode="Z" horiz-adv-x="1349" 
d="M903 1225h-811v209h1168v-127l-826 -1098h840v-209h-1196v129z" />
    <glyph glyph-name="bracketleft" unicode="[" horiz-adv-x="679" 
d="M170 -307v1843h463v-147h-246v-1549h246v-147h-463z" />
    <glyph glyph-name="backslash" unicode="\" horiz-adv-x="960" 
d="M0 1475l133 61l828 -1782l-134 -61z" />
    <glyph glyph-name="bracketright" unicode="]" horiz-adv-x="679" 
d="M47 1389v147h463v-1843h-463v147h246v1549h-246z" />
    <glyph glyph-name="asciicircum" unicode="^" 
d="M614 1243l-368 -369l-105 105l473 473l476 -473l-107 -105z" />
    <glyph glyph-name="underscore" unicode="_" horiz-adv-x="1024" 
d="M1024 -250h-1024v148h1024v-148z" />
    <glyph glyph-name="grave" unicode="`" horiz-adv-x="647" 
d="M455 1157l-353 246l144 141l299 -299z" />
    <glyph glyph-name="a" unicode="a" horiz-adv-x="1136" 
d="M94 279c0 104 47.6699 188.667 143.003 254s217.666 98 366.999 98c65.333 0 124.666 -6.33301 177.999 -19v68c0 48 -21.667 87 -65 117c-44 30 -100.667 45 -170 45c-114 0 -215.667 -33 -305 -99l-113 140c48 48.667 111.667 87.334 191 116.001s163 43 251 43
c131.333 0 238.666 -32.667 321.999 -98s125 -150 125 -254v-690h-236v131c-82 -100 -194 -149.667 -336 -149c-104 0 -188.667 27.667 -254 83s-98 126.666 -98 213.999zM623.003 471c-81.333 0 -148.667 -15.667 -202 -47c-52.667 -30.667 -79 -71 -79 -121
c0 -38 17 -69.333 51 -94c33.333 -24.667 77 -37 131 -37c76.667 0 139 26 187 78c47.333 52.667 71 119 71 199c-44.667 14.667 -97.667 22 -159 22z" />
    <glyph glyph-name="b" unicode="b" horiz-adv-x="1200" 
d="M125 59l-0.00195312 1426h235v-570c74.667 84.667 179.334 127 314.001 127c136.667 0 247 -45.667 331 -137c83.333 -91.333 125 -209.333 125 -354c0 -169.333 -58.333 -306.333 -175 -411c-117.333 -105.333 -267.666 -158 -450.999 -158
c-144 0 -270.333 25.667 -379 77zM359.998 559l0.00195312 -348c52.667 -19.333 111 -29 175 -29c101.333 0 183.666 32.667 246.999 98s95 149.333 95 252c0 92 -24.667 168.667 -74 230c-48.667 60 -111.667 90 -189 90c-74.667 0 -135.334 -27.333 -182.001 -82
c-48 -54.667 -72 -125 -72 -211z" />
    <glyph glyph-name="c" unicode="c" horiz-adv-x="1069" 
d="M879 264l136.999 -137c-94.667 -96.667 -223.667 -145 -387 -145c-164.667 0 -298.667 49 -402 147s-155 225.667 -155 383s51.333 285 154 383c102 98 235.667 147 401 147c160.667 0 290.334 -48.333 389.001 -145l-137 -137c-58.667 54.667 -136.667 82 -234 82
c-94 0 -170.667 -30.667 -230 -92c-59.333 -62.667 -89 -142 -89 -238c0 -96.667 29.667 -175.667 89 -237c59.333 -62 136 -93 230 -93c97.333 0 175.333 27.333 234 82z" />
    <glyph glyph-name="d" unicode="d" horiz-adv-x="1220" 
d="M508 -18c-130 0 -235 46.333 -315 139c-80.667 92.667 -121 213.334 -121 362.001c0 166.667 50.667 301.667 152 405c100.667 102.667 232 154 394 154c96 0 176 -15.667 240 -47v490h238v-1485h-238v143c-31.333 -48.667 -79.333 -87.334 -144 -116.001
c-65.333 -30 -134 -45 -206 -45zM653 844c-98 0 -177 -32 -237 -96c-60 -65.333 -90 -148.666 -90 -249.999c0 -94.667 25.333 -171.334 76 -230.001c50 -60 114.667 -90 194 -90c76.667 0 139.667 27.667 189 83c48.667 54.667 73 126 73 214v322
c-66.667 31.333 -135 47 -205 47z" />
    <glyph glyph-name="e" unicode="e" horiz-adv-x="1173" 
d="M1098 430h-776.001c8 -72.667 44.333 -132 109 -178c64.667 -46.667 144.334 -70 239.001 -70c112 0 196.667 26.667 254 80l129 -129c-102 -102 -239.333 -152.333 -412 -151c-169.333 0 -306.333 50.333 -411 151c-105.333 100 -158 230.333 -158 391
c0 152 47.667 276.667 143 374c95.333 96 219 144 371 144c152.667 0 277 -49.333 373 -148c95.333 -99.333 143 -228 143 -386c0 -18 -1.33301 -44 -4 -78zM325.999 606h532.001c-0.666992 70 -24.667 127.667 -72 173c-46.667 44.667 -107.334 67 -182.001 67
c-75.333 0 -138.333 -22.333 -189 -67c-51.333 -45.333 -81 -103 -89 -173z" />
    <glyph glyph-name="f" unicode="f" horiz-adv-x="835" 
d="M217 842h-188v182h188v109c0 108.667 34 197.667 102 267c66.667 68.667 153.667 103 261 103c112 0 204 -39.667 276 -119l-121 -141c-38 38 -83 57 -135 57c-42 0 -77 -14.667 -105 -44s-42 -66.333 -42 -111v-121h356v-182h-356v-842h-236v842z" />
    <glyph glyph-name="g" unicode="g" horiz-adv-x="1200" 
d="M524 -18c-134.667 0 -243.669 45.667 -327.002 137s-125 209.333 -125 354c0 170 58 307.667 174 413c116 104 268 156 456 156c140 0 264.333 -25.667 373 -77v-955c0 -144 -50.667 -261.667 -152 -353c-101.333 -90.667 -233.666 -136 -396.999 -136
c-169.333 0 -303.666 49.667 -402.999 149l133 133c58.667 -54.667 140.667 -82 246 -82c100 0 181.333 27 244 81s94 123.333 94 208v99c-76.667 -84.667 -182 -127 -316 -127zM665.998 842c-102.667 0 -185 -32.001 -247 -96.001c-62 -65.333 -93 -150 -93 -254
c0 -93.333 24.333 -169.666 73 -228.999c48 -60.667 110.333 -91 187 -91c74 0 135 27.667 183 83c47.333 55.333 71 125.333 71 210v350c-52 18 -110 27 -174 27z" />
    <glyph glyph-name="h" unicode="h" horiz-adv-x="1218" 
d="M360 0l-234.999 0.00195312v1485h235v-604c85.333 108 198.666 161.667 339.999 161c120 0 217.333 -37 292 -111c74.667 -74.667 112 -171.334 112 -290.001v-641h-238v594c0 75.333 -21.667 136.666 -65 183.999c-44 46.667 -101.333 70 -172 70
c-78 0 -142.333 -29.333 -193 -88s-76 -133 -76 -223v-537z" />
    <glyph glyph-name="i" unicode="i" horiz-adv-x="485" 
d="M360 0h-235v1024h235v-1024zM360 1219h-235v215h235v-215z" />
    <glyph glyph-name="j" unicode="j" horiz-adv-x="514" 
d="M-244 -371l121.001 140.001c32.667 -30 75 -45 127 -45c44 0 80 16.333 108 49s42 75.667 42 129v1122h235v-1130c0 -110.667 -33.333 -200.334 -100 -269.001c-67.333 -68 -155.333 -102 -264 -102s-198.334 35.333 -269.001 106zM389.001 1434v-215h-235v215h235z" />
    <glyph glyph-name="k" unicode="k" horiz-adv-x="1134" 
d="M125 0v1485h235v-887l394 426h282l-372 -401l432 -623h-256l-324 467l-156 -166v-301h-235z" />
    <glyph glyph-name="l" unicode="l" horiz-adv-x="606" 
d="M524 215l109 -141c-59.333 -61.333 -133 -92 -221 -92c-85.333 0 -154.333 26.333 -207 79c-53.333 52 -80 119.667 -80 203v1221h235v-1204c0 -28.667 8.66699 -52 26 -70s40.333 -27 69 -27c25.333 0 48.333 10.333 69 31z" />
    <glyph glyph-name="m" unicode="m" horiz-adv-x="1828" 
d="M360 569l-0.000976562 -569h-235v1024h235v-111c78 86 179.333 129 304 129c150 0 257 -56 321 -168c80.667 112 197.334 168 350.001 168c115.333 0 207.333 -36 276 -108c68.667 -72.667 103 -167.667 103 -285v-649h-235v647c0 60.667 -18.333 109.667 -55 147
c-37.333 37.333 -85.333 56 -144 56c-69.333 0 -127 -25.667 -173 -77s-69 -118 -69 -200v-573h-237v647c0 60 -18 109 -54 147c-37.333 37.333 -85 56 -143 56c-69.333 0 -127.333 -26.333 -174 -79s-70 -120 -70 -202z" />
    <glyph glyph-name="n" unicode="n" horiz-adv-x="1218" 
d="M360 0l-234.999 0.00195312v1024h235v-143c85.333 108 198.666 161.667 339.999 161c120 0 217.333 -37 292 -111c74.667 -74.667 112 -171.334 112 -290.001v-641h-238v594c0 75.333 -21.667 136.666 -65 183.999c-44 46.667 -101.333 70 -172 70
c-78 0 -142.333 -29.333 -193 -88s-76 -133 -76 -223v-537z" />
    <glyph glyph-name="o" unicode="o" horiz-adv-x="1245" 
d="M226 129c-102.667 98 -154 225.667 -154 383s51.333 285 154 383c102 98 234.333 147 397 147c162 0 294.667 -49 398 -147s155 -225.667 155 -383s-51.667 -285 -155 -383s-236 -147 -398 -147c-162.667 0 -295 49 -397 147zM326 512
c0 -96.667 27.668 -175.667 83.001 -237c55.333 -62 126.666 -93 213.999 -93c88.667 0 160.667 31 216 93c55.333 61.333 83 140.333 83 237c0 98 -27.667 177.667 -83 239c-54.667 60.667 -126.667 91 -216 91c-88 0 -159.333 -30.333 -214 -91
c-55.333 -61.333 -83 -141 -83 -239z" />
    <glyph glyph-name="p" unicode="p" horiz-adv-x="1220" 
d="M360 -461h-235.001v1485h235v-145c33.333 50 82 89.667 146 119c64.667 29.333 133 44 205 44c130.667 0 236.334 -46.333 317.001 -139s121 -213.334 121 -362.001c0 -165.333 -50.667 -299.666 -152 -402.999c-102 -104 -234.333 -156 -397 -156
c-93.333 0 -173.333 15.667 -240 47v-490zM359.999 551v-322c62.667 -32.667 131.667 -49 207 -49c96.667 0 175.667 32.667 237 98c60.667 64.667 91 148 91 250c0 95.333 -25 173 -75 233c-50 59.333 -115 89 -195 89c-76.667 0 -140 -28 -190 -84s-75 -127.667 -75 -215z
" />
    <glyph glyph-name="q" unicode="q" horiz-adv-x="1200" 
d="M526 -18c-136 0 -245.667 45.667 -329 137s-125 209.333 -125 354c0 170 57.333 307.333 172 412s264 157 448 157c150.667 0 278.334 -25.667 383.001 -77v-1426h-235v570c-76.667 -84.667 -181.334 -127 -314.001 -127zM666 842c-101.333 0 -183.333 -32.333 -246 -97
s-94 -149 -94 -253c0 -93.333 24.333 -169.666 73 -228.999c48 -60.667 110.333 -91 187 -91c74 0 135 27.333 183 82c47.333 55.333 71 125.666 71 210.999v350c-52 18 -110 27 -174 27z" />
    <glyph glyph-name="r" unicode="r" horiz-adv-x="759" 
d="M360 0h-235v1024h235v-219c38 76 89.333 134.833 154 176.5s137 62.5 217 62.5v-227c-108.667 0 -197.667 -29.667 -267 -89s-104 -135.333 -104 -228v-500z" />
    <glyph glyph-name="s" unicode="s" horiz-adv-x="960" 
d="M889 299c0 -96.667 -38.998 -173.669 -116.998 -231.002c-78.667 -57.333 -182.334 -86 -311.001 -86c-154.667 0 -287.334 48.333 -398.001 145l121 137c71.333 -57.333 162.333 -86 273 -86c62 0 111.667 9.66699 149 29s56 45.333 56 78c0 17.333 -4.5 32 -13.5 44
s-25.5 23.333 -49.5 34c-17.333 8 -35.666 15.333 -54.999 22c-3.33301 1.33301 -8.5 3 -15.5 5l-30 9l-35.5 11c-14 4.66699 -23 7.33398 -27 8.00098c-43.333 12 -76 22.333 -98 31c-25.333 8.66699 -55 22.334 -89 41.001c-33.333 17.333 -60 36.333 -80 57
c-48.667 50 -73 112 -73 186c0 96 36 171.333 108 226c71.333 55.333 168 83 290 83c148.667 0 270 -45 364 -135l-121 -139c-60 52 -137.667 78 -233 78c-56 0 -100.333 -8.83301 -133 -26.5s-49 -41.5 -49 -71.5c0 -21.333 11.667 -41.666 35 -60.999
s45.666 -32.333 66.999 -39l36 -12c24.667 -8 46 -14.667 64 -20c32.667 -8.66699 69 -19.334 109 -32.001c28.667 -10 60.667 -24 96 -42c35.333 -18.667 63.333 -37.667 84 -57c50.667 -49.333 76 -111.333 76 -186z" />
    <glyph glyph-name="t" unicode="t" horiz-adv-x="874" 
d="M453 1300l0.000976562 -276h321v-182h-321v-518c0 -40.667 12.5 -74.167 37.5 -100.5s57.5 -39.5 97.5 -39.5c50.667 0 91 16.333 121 49l116 -116c-60.667 -90 -153.334 -135 -278.001 -135c-95.333 0 -174 29 -236 87c-62.667 58 -94 132.667 -94 224v549h-188v182h188
v184z" />
    <glyph glyph-name="u" unicode="u" horiz-adv-x="1222" 
d="M125 383v641h235v-594c0 -74.667 22 -135.667 66 -183s101.333 -71 172 -71c76.667 0 140 29.333 190 88c49.333 59.333 74 133.666 74 222.999v537h236v-1024h-236v145c-83.333 -109.333 -196 -163.666 -338 -162.999c-119.333 0 -215.333 37.333 -288 112
c-74 74 -111 170.333 -111 289z" />
    <glyph glyph-name="v" unicode="v" horiz-adv-x="1155" 
d="M457 0l-430 1024h245l306 -760l305 760h245l-432 -1024h-239z" />
    <glyph glyph-name="w" unicode="w" horiz-adv-x="1658" 
d="M596 0h-221l-348 1024h231l236 -725l229 725h213l227 -725l238 725h231l-352 -1024h-219l-232 700z" />
    <glyph glyph-name="x" unicode="x" horiz-adv-x="1159" 
d="M578 369l-256 -369h-281l391 524l-369 500h279l236 -346l239 346h281l-373 -500l393 -524h-280z" />
    <glyph glyph-name="y" unicode="y" horiz-adv-x="1157" 
d="M27 -387l117.999 143c27.333 -23.333 60.333 -35 99 -35c72.667 0 134 56 184 168l51 111l-452 1024h243l318 -758l301 758h241l-505 -1212c-83.333 -194 -203.666 -291 -360.999 -291c-90.667 0 -169.667 30.667 -237 92z" />
    <glyph glyph-name="z" unicode="z" horiz-adv-x="1032" 
d="M629 842h-541v182h875v-113l-553 -729h563v-182h-895v113z" />
    <glyph glyph-name="braceleft" unicode="{" horiz-adv-x="679" 
d="M276 -4l0.000976562 338c0 60 -18 109.667 -54 149c-36 38.667 -82 58 -138 58v147c57.333 0 103.666 20 138.999 60c35.333 39.333 53 89.666 53 150.999v328c0 96 33.667 174.667 101 236c66.667 60.667 153.334 91 260.001 91v-147c-42 0 -76 -13.333 -102 -40
s-39 -61 -39 -103v-338c0 -68.667 -15.333 -131.667 -46 -189c-30.667 -58.667 -70 -99.667 -118 -123c47.333 -22.667 86.666 -62 117.999 -118c30.667 -55.333 46 -115.666 46 -180.999v-356c0 -40.667 13 -73.667 39 -99s60 -38 102 -38v-148
c-106 0 -192.667 29.667 -260 89c-67.333 60 -101 137.667 -101 233z" />
    <glyph glyph-name="bar" unicode="|" horiz-adv-x="567" 
d="M358 1536v-1843h-147v1843h147z" />
    <glyph glyph-name="braceright" unicode="}" horiz-adv-x="679" 
d="M43 -326l-0.00195312 148.002c42 0 76 12.667 102 38s39 58.333 39 99v356c0 64 15.333 124.333 46 181c30.667 56 70 95.333 118 118c-47.333 22.667 -86.666 63.334 -117.999 122.001c-30.667 57.333 -46 120.666 -46 189.999v338c0 42 -13 76.333 -39 103
s-60 40 -102 40v147c106.667 0 193.334 -30.333 260.001 -91s100 -139.334 100 -236.001v-328c0 -62 18.333 -112.333 55 -151c36 -40 82 -60 138 -60v-147c-56 0 -102 -19.333 -138 -58c-36.667 -38.667 -55 -88.334 -55 -149.001v-338c0 -95.333 -33.333 -173 -100 -233
c-67.333 -59.333 -154 -89 -260 -89z" />
    <glyph glyph-name="asciitilde" unicode="~" 
d="M440 696c-38 0 -69.334 -12.167 -94.001 -36.5s-37 -55.833 -37 -94.5h-182c0 93.333 28.333 169.333 85 228s130 88 220 88c52.667 0 101.334 -11.667 146.001 -35c44 -23.333 83.333 -47 118 -71s67.667 -36 99 -36c36 0 65.5 12 88.5 36s34.5 55 34.5 93h182
c0 -92.667 -28 -168 -84 -226s-127.667 -87 -215 -87c-54 0 -101.333 12 -142 36c-35.333 20 -73.666 43.667 -114.999 71c-34.667 22.667 -69.334 34 -104.001 34z" />
    <glyph glyph-name="exclamdown" unicode="&#xa1;" horiz-adv-x="512" 
d="M129 1024h254v-270h-254v270zM156 569h200l27 -979h-254z" />
    <glyph glyph-name="cent" unicode="&#xa2;" horiz-adv-x="1069" 
d="M72 512c0 138.667 41.667 256.333 125 353c82.667 94.667 193 151.667 331 171v193h148v-189c137.333 -8 250.666 -55.667 339.999 -143l-137 -137c-51.333 46 -119 72.667 -203 80c-9.33301 1.33301 -19.666 2 -30.999 2c-94 0 -170.667 -30.667 -230 -92
c-59.333 -62.667 -89 -142 -89 -238c0 -96.667 29.667 -175.667 89 -237c59.333 -62 136 -93 230 -93c11.333 0 21.666 0.666992 30.999 2c84 7.33301 151.667 34 203 80l137 -137c-85.333 -87.333 -198.666 -135 -339.999 -143v-189h-148v193
c-138 20.667 -248.333 78 -331 172c-83.333 94.667 -125 212 -125 352z" />
    <glyph glyph-name="sterling" unicode="&#xa3;" horiz-adv-x="1204" 
d="M227 584h-159v155h159v228c0 143.333 47.667 260 143 350c94.667 90 217.667 135 369 135c158 0 291.333 -50.667 400 -152l-146 -163c-26 30 -61 53.833 -105 71.5s-90 26.5 -138 26.5c-79.333 0 -144 -25 -194 -75s-75 -114.333 -75 -193v-228h348v-155h-348v-391h613
v-193h-1026v193h159v391z" />
    <glyph glyph-name="currency" unicode="&#xa4;" 
d="M260 258l-103.999 104.001l157 158c-34 56 -51 121 -51 195c0 75.333 17.667 140.666 53 195.999l-159 160l104 105l160 -160c56 34 120 51 192 51c74 0 139 -17 195 -51l162 160l104 -105l-160 -160c35.333 -56 53.333 -121.333 54 -196
c0 -73.333 -17.333 -138.333 -52 -195l158 -158l-104 -104l-160 160c-55.333 -35.333 -121 -53 -197 -53c-74.667 0 -139.334 17 -194.001 51zM460.001 562.001c40 -40 91.668 -59.999 155.001 -59.999c62.667 0 113 20.333 151 61c38 40 57 91.333 57 154
c0 61.333 -19 112 -57 152c-38 39.333 -88.667 59 -152 59c-64.667 0 -116.334 -19.333 -155.001 -58c-40 -38.667 -60 -89.667 -60 -153c0 -64.667 20.333 -116.334 61 -155.001z" />
    <glyph glyph-name="yen" unicode="&#xa5;" horiz-adv-x="1435" 
d="M313 666h199l-475 768h278l402 -660l403 660h277l-475 -768h188v-148h-266v-158h266v-147h-266v-213h-254v213h-277v147h277v158h-277v148z" />
    <glyph glyph-name="brokenbar" unicode="&#xa6;" horiz-adv-x="567" 
d="M358 1536v-717h-147v717h147zM211 -307v717h147v-717h-147z" />
    <glyph glyph-name="section" unicode="&#xa7;" horiz-adv-x="980" 
d="M66 127l120 137c73.333 -57.333 165 -86 275 -86c62 0 111.333 9.16699 148 27.5s55 44.166 55 77.499c0 20.667 -9 38 -27 52c-16 12.667 -38.667 24.667 -68 36c-12.667 4.66699 -28 10 -46 16c-24 7.33301 -43.333 13 -58 17c-28 7.33301 -48.667 13.333 -62 18
c-44.667 13.333 -80 25.833 -106 37.5s-56.333 29.5 -91 53.5c-72 50 -108 125.333 -108 226s37 179.334 111 236.001c-74 55.333 -111 128.333 -111 219c0 92 35.667 165.667 107 221c70.667 54.667 167.667 82 291 82c144 0 264.667 -45 362 -135l-121 -139
c-59.333 52 -136.333 77.667 -231 77c-56 0 -100.333 -8.83301 -133 -26.5s-49 -41.5 -49 -71.5c0 -23.333 11.667 -44.666 35 -63.999c23.333 -20 48.333 -35 75 -45c21.333 -8.66699 60.333 -21.334 117 -38.001c46.667 -12.667 87 -26 121 -40
c30 -12.667 64.333 -31 103 -55c76 -48.667 114 -121.667 114 -219c0 -98.667 -38.333 -176.334 -115 -233.001c76.667 -52 115 -123.667 115 -215c0 -93.333 -38.667 -168.666 -116 -225.999c-76.667 -56.667 -180 -85 -310 -85c-154 0 -286.333 48.333 -397 145zM426 879
c-75.333 -18 -112.999 -56.998 -112.999 -116.998c0 -38 18.333 -69 55 -93c37.333 -24.667 99.666 -50.334 186.999 -77.001c78 21.333 117 61.666 117 120.999c0 70 -82 125.333 -246 166z" />
    <glyph glyph-name="dieresis" unicode="&#xa8;" horiz-adv-x="874" 
d="M772 1219h-227v215h227v-215zM330 1434v-215h-228v215h228z" />
    <glyph glyph-name="copyright" unicode="&#xa9;" horiz-adv-x="1636" 
d="M298 197c-144 143.333 -216 316.665 -216 519.998c0 204 72 377.333 216 520c144.667 143.333 318.334 215 521.001 215c203.333 0 376.666 -71.667 519.999 -215s215 -316.666 215 -519.999s-71.667 -376.666 -215 -519.999s-316.666 -215 -519.999 -215
c-202.667 0 -376.334 71.667 -521.001 215zM402 1133c-115.333 -115.333 -173 -254.002 -173 -416.002s57.667 -300.667 173 -416c114.667 -114.667 253.667 -172 417 -172c162.667 0 301.334 57.333 416.001 172s172 253.334 172 416.001s-57.333 301.334 -172 416.001
s-253.334 172 -416.001 172c-163.333 0 -302.333 -57.333 -417 -172zM1040 527.997l95.002 -100.002c-75.333 -78 -174.333 -117 -297 -117c-120 0 -217.667 37.667 -293 113s-113 173 -113 293c0 119.333 37.667 217.333 113 294c75.333 75.333 173 113 293 113
c119.333 0 218.333 -38.667 297 -116l-95 -99c-40.667 50.667 -104 76 -190 76c-72.667 0 -131.334 -24.333 -176.001 -73c-45.333 -49.333 -68 -113.666 -68 -192.999s22.667 -143.666 68 -192.999c45.333 -50 104 -75 176 -75c85.333 -0.666992 148.666 25 189.999 77z
" />
    <glyph glyph-name="ordfeminine" unicode="&#xaa;" horiz-adv-x="813" 
d="M70 913c0 72.667 33.334 132.001 100.001 178.001c67.333 45.333 154 68 260 68c50.667 0 90.334 -3.33301 119.001 -10v43c0 31.333 -15 56.5 -45 75.5s-68.333 28.5 -115 28.5c-79.333 0 -148.333 -22.333 -207 -67l-86 106c33.333 32.667 78.333 59.667 135 81
c58 21.333 117.667 32 179 32c93.333 0 169.333 -23 228 -69c59.333 -47.333 89 -107 89 -179v-483h-178v80c-58.667 -62.667 -135.334 -94.334 -230.001 -95.001c-72.667 0 -132.334 20 -179.001 60c-46.667 38.667 -70 89 -70 151zM444.001 1040
c-54.667 0 -99.333 -10.167 -134 -30.5s-52 -46.166 -52 -77.499c0 -24 11.667 -44 35 -60s52 -24 86 -24c50.667 0 91.667 16.667 123 50s47 76.666 47 129.999c-36.667 8 -71.667 12 -105 12z" />
    <glyph glyph-name="guillemotleft" unicode="&#xab;" horiz-adv-x="1142" 
d="M594 274l-105 -106l-385 385l385 383l105 -105l-281 -278zM1016 274l-105 -106l-385 385l385 383l105 -105l-281 -278z" />
    <glyph glyph-name="logicalnot" unicode="&#xac;" 
d="M877 643h-672v148h819v-422h-147v274z" />
    <glyph glyph-name="uni00AD" unicode="&#xad;" horiz-adv-x="768" 
d="M643 479h-518v148h518v-148z" />
    <glyph glyph-name="registered" unicode="&#xae;" horiz-adv-x="1636" 
d="M1339 197c-143.333 -143.333 -316.666 -215.001 -519.999 -215.001c-202.667 0 -376.334 71.667 -521.001 215c-144 143.333 -216 316.666 -216 519.999c0 204 72 377.333 216 520c144.667 143.333 318.334 215 521.001 215c203.333 0 376.666 -71.667 519.999 -215
s215 -316.666 215 -519.999s-71.667 -376.666 -215 -519.999zM1235 1133c-114.667 114.667 -253.334 171.998 -416.001 171.998c-163.333 0 -302.333 -57.333 -417 -172c-115.333 -115.333 -173 -254 -173 -416s57.667 -300.667 173 -416
c114.667 -114.667 253.667 -172 417 -172c162.667 0 301.334 57.333 416.001 172s172 253.334 172 416.001s-57.333 301.334 -172 416.001zM674 617.997v-293.999h-162v788h383c75.333 0 136.333 -22.333 183 -67c46 -44.667 69 -104.334 69 -179.001
c0 -110.667 -47 -185.667 -141 -225l184 -317h-174l-172 294h-170zM877 978.998h-202.998v-229h203c31.333 0 57.166 10.833 77.499 32.5s30.5 49.5 30.5 83.5c0 35.333 -9.83301 63 -29.5 83s-45.834 30 -78.501 30z" />
    <glyph glyph-name="overscore" unicode="&#xaf;" horiz-adv-x="768" 
d="M666 1374v-147h-564v147h564z" />
    <glyph glyph-name="degree" unicode="&#xb0;" horiz-adv-x="698" 
d="M84 1190c0 77.333 24.999 140.333 74.999 189c48.667 48.667 111.667 73 189 73c80 0 144.333 -24.333 193 -73s73 -111.667 73 -189c0 -78 -24.333 -141.333 -73 -190c-49.333 -49.333 -113.666 -74 -192.999 -74c-78 0 -141.333 24.333 -190 73
c-49.333 48 -74 111.667 -74 191zM257.999 1280c-23.333 -23.333 -35.001 -53.333 -35.001 -90c0 -36 11.667 -66.333 35 -91c22.667 -24 53.334 -36 92.001 -36c35.333 0 64.666 12 87.999 36s35 54.333 35 91s-11.667 66.667 -35 90s-52.666 35 -87.999 35
c-38 0 -68.667 -11.667 -92 -35z" />
    <glyph glyph-name="plusminus" unicode="&#xb1;" 
d="M541 797h-336v147h336v336h147v-336h336v-147h-336v-336h-147v336zM1024 182h-819v148h819v-148z" />
    <glyph glyph-name="uni00B2" unicode="&#xb2;" horiz-adv-x="655" 
d="M590 748h-524v108c3.33301 2.66699 9.16602 7 17.499 13l20.5 15c16.667 12 44.334 36 83.001 72c42 38.667 76.667 74 104 106c31.333 36.667 59 77 83 121c25.333 45.333 38 87.333 38 126c0 74.667 -43.667 111.334 -131 110.001c-59.333 0 -109.333 -21 -150 -63
l-82 82c77.333 74 160.666 110.667 249.999 110c82 0 148.333 -21.333 199 -64c50 -42.667 75 -99.667 75 -171c0 -64.667 -23 -133.334 -69 -206.001c-47.333 -74 -93.666 -131 -138.999 -171l-68 -62h293v-126z" />
    <glyph glyph-name="uni00B3" unicode="&#xb3;" horiz-adv-x="679" 
d="M324 737c-110.667 0 -202.331 36.334 -274.998 109.001l84 86c41.333 -45.333 98 -68 170 -68c45.333 0 81.666 11 108.999 33s41 50.667 41 86c0 34 -12.333 62 -37 84s-56 33 -94 33h-70v117h72c31.333 0 56.833 9.16699 76.5 27.5s29.5 42.5 29.5 72.5
c0 31.333 -11.333 56.166 -34 74.499s-53 27.5 -91 27.5c-68 0 -121.333 -22.333 -160 -67l-84 86c67.333 74 155 110.667 263 110c77.333 0 140.666 -19 189.999 -57c48 -38 72 -88.667 72 -152c0 -82.667 -35.667 -142.667 -107 -180c86 -36.667 129 -102 129 -196
c0 -68 -26 -122.667 -78 -164c-53.333 -41.333 -122 -62 -206 -62z" />
    <glyph glyph-name="acute" unicode="&#xb4;" horiz-adv-x="645" 
d="M102 1245l297 299l144 -141l-350 -246z" />
    <glyph glyph-name="mu" unicode="&#xb5;" horiz-adv-x="1224" 
d="M362 -410l-234.999 0.000976562v1434h235v-594c0 -74.667 22 -135.667 66 -183s100 -71 168 -71c78 0 142 29.333 192 88c49.333 59.333 74 133.666 74 222.999v537h238v-1024h-238v145c-39.333 -50.667 -85.333 -90.167 -138 -118.5s-106.334 -42.5 -161.001 -42.5
c-83.333 0 -150.333 25 -201 75v-469z" />
    <glyph glyph-name="paragraph" unicode="&#xb6;" horiz-adv-x="1245" 
d="M194 674c-84 82.667 -126 189.333 -126 320c0 129.333 42 235 126 317c82.667 82 190.667 123 324 123h227v-1895h-147v1010h-80c-132.667 0 -240.667 41.667 -324 125zM1108 -461.001h-147v1895h147v-1895z" />
    <glyph glyph-name="middot" unicode="&#xb7;" horiz-adv-x="419" 
d="M330 590h-238v254h238v-254z" />
    <glyph glyph-name="cedilla" unicode="&#xb8;" horiz-adv-x="608" 
d="M102 -344l78.002 84.001c31.333 -31.333 67.666 -47 108.999 -47c20.667 0 38 4.66699 52 14s21 21.666 21 36.999c0 18 -11.833 32.667 -35.5 44s-55.5 17 -95.5 17l21 195h127l-12 -106c41.333 -6.66699 75.166 -25.667 101.499 -57s39.5 -68.333 39.5 -111
c0 -46.667 -18 -84.667 -54 -114c-37.333 -29.333 -84.333 -44 -141 -44c-92 0 -162.333 29.333 -211 88z" />
    <glyph glyph-name="uni00B9" unicode="&#xb9;" horiz-adv-x="520" 
d="M121 1282l-68 115l250 139h117v-788h-152v616z" />
    <glyph glyph-name="ordmasculine" unicode="&#xba;" horiz-adv-x="892" 
d="M164 807c-72.667 68.667 -109.001 158.001 -109.001 268.001c0 109.333 36.333 199 109 269c72.667 69.333 166 104 280 104c116 0 210.333 -34.333 283 -103s109 -158.667 109 -270c0 -110.667 -36.333 -200.334 -109 -269.001
c-73.333 -69.333 -167.666 -104 -282.999 -104c-114.667 0 -208 35 -280 105zM302.999 1235c-36.667 -40.667 -55 -93.667 -55 -159c0 -66 18.333 -119.333 55 -160c37.333 -41.333 84.333 -62 141 -62c58.667 0 106.667 20.667 144 62c36.667 40.667 55 94 55 160
c0 65.333 -18.333 118.333 -55 159s-84.667 61 -144 61c-57.333 0 -104.333 -20.333 -141 -61z" />
    <glyph glyph-name="guillemotright" unicode="&#xbb;" horiz-adv-x="1142" 
d="M551 831l102 105l385 -383l-385 -385l-102 106l278 279zM129 831l102 105l385 -383l-385 -385l-102 106l279 279z" />
    <glyph glyph-name="onequarter" unicode="&#xbc;" horiz-adv-x="1640" 
d="M1333 152h-403v73l387 563h174v-522h94v-114h-94v-152h-158v152zM387 2l-174 -2l1004 1434h176zM121 1180l-68 114l250 140h117v-789h-152v617zM1333 588l-219 -322h219v322z" />
    <glyph glyph-name="onehalf" unicode="&#xbd;" horiz-adv-x="1720" 
d="M408 2l-175 -2l1004 1434h176zM1198 608l-83.998 82.001c77.333 74 160.666 111 249.999 111c82 0 148.667 -21.667 200 -65c50.667 -44 76 -101 76 -171c0 -39.333 -9.16699 -81.333 -27.5 -126s-41.833 -85.334 -70.5 -122.001
c-56 -71.333 -106.333 -126.333 -151 -165l-29 -25h295v-127h-524v109c2 1.33301 7.16699 5.16602 15.5 11.499l21.5 16.5c11.333 8 38.666 31.667 81.999 71c37.333 34.667 72.333 70.334 105 107.001c30 33.333 57.667 73.666 83 120.999
c24.667 44.667 37 86.334 37 125.001c0 74 -43.667 111 -131 111c-58 0 -107.333 -21.333 -148 -64zM268.002 1262l-147 -82l-68 114l250 140h117v-789h-152v617z" />
    <glyph glyph-name="threequarters" unicode="&#xbe;" horiz-adv-x="1757" 
d="M1452 152h-403v73l387 563h172v-522h94v-114h-94v-152h-156v152zM1511 1434l-1005 -1432l-174 -2l1003 1434h176zM49 743l84.002 86c41.333 -45.333 98 -67.666 170 -66.999c45.333 0 81.666 10.833 108.999 32.5s41 50.5 41 86.5c0 34 -12.333 61.833 -37 83.5
s-56 32.5 -94 32.5h-70v117h72c31.333 0 56.833 9.16699 76.5 27.5s29.5 42.5 29.5 72.5c0 31.333 -11.333 56.333 -34 75s-53 28 -91 28c-67.333 0 -120.666 -22.667 -159.999 -68l-84 86c67.333 74 155 111 263 111c77.333 0 140.666 -19 189.999 -57
c48 -38.667 72 -89.334 72 -152.001c0 -82.667 -35.667 -142.667 -107 -180c86 -37.333 129 -103 129 -197c0 -68 -26 -122.333 -78 -163c-53.333 -41.333 -122 -62 -206 -62c-110.667 -0.666992 -202.334 35.333 -275.001 108zM1452 588l-221 -322h221v322z" />
    <glyph glyph-name="questiondown" unicode="&#xbf;" horiz-adv-x="1095" 
d="M90 -20c0 60 12.335 114.998 37.002 164.998c25.333 52 55 93 89 123c67.333 61.333 132.666 104.333 195.999 129l37 15l12 157h201l14 -297c-2.66699 -0.666992 -8 -2.16699 -16 -4.5s-14.667 -4.5 -20 -6.5c-16 -5.33301 -42.333 -16.666 -79 -33.999
c-39.333 -19.333 -73 -39.333 -101 -60c-28.667 -20.667 -55.334 -49 -80.001 -85c-24 -35.333 -36 -73 -36 -113c0 -56 22.333 -103 67 -141c44 -38 111 -57 201 -57c121.333 0 223.333 47 306 141l129 -131c-133.333 -139.333 -287 -209 -461 -209
c-146.667 0 -265.667 38.333 -357 115c-92.667 76.667 -139 174.334 -139 293.001zM434.002 1024h254v-270h-254v270z" />
    <glyph glyph-name="Agrave" unicode="&#xc0;" horiz-adv-x="1603" 
d="M305 0h-268l635 1434h260l635 -1434h-269l-137 315h-719zM1071 526l-268 617l-268 -617h536zM971 1589l-90 -90l-353 246l144 143z" />
    <glyph glyph-name="Aacute" unicode="&#xc1;" horiz-adv-x="1603" 
d="M305 0h-268l635 1434h260l635 -1434h-269l-137 315h-719zM1071 526l-268 617l-268 -617h536zM1073 1745l-350 -246l-88 90l297 299z" />
    <glyph glyph-name="Acircumflex" unicode="&#xc2;" horiz-adv-x="1603" 
d="M305 0h-268l635 1434h260l635 -1434h-269l-137 315h-719zM1071 526l-268 617l-268 -617h536zM578 1511l-117 115l342 240l340 -240l-115 -115l-225 164z" />
    <glyph glyph-name="Atilde" unicode="&#xc3;" horiz-adv-x="1603" 
d="M305 0h-268l635 1434h260l635 -1434h-269l-137 315h-719zM1071 526l-268 617l-268 -617h536zM618 1552l-167.001 -0.00195312c0 74.667 23 134.334 69 179.001c44.667 44.667 103.334 67 176.001 67c26.667 0.666992 52.5 -3.66602 77.5 -12.999s45 -19.833 60 -31.5
s30.5 -22 46.5 -31s29.333 -13.167 40 -12.5c19.333 0 35 7.5 47 22.5s18 34.167 18 57.5h168c0 -72 -22.667 -131.333 -68 -178c-46 -46.667 -104.667 -70 -176 -70c-48.667 0 -93.667 15 -135 45c-40.667 30 -70 45 -88 45c-20.667 0 -37.167 -7.16699 -49.5 -21.5
s-18.5 -33.833 -18.5 -58.5z" />
    <glyph glyph-name="Adieresis" unicode="&#xc4;" horiz-adv-x="1603" 
d="M305 0h-268l635 1434h260l635 -1434h-269l-137 315h-719zM1071 526l-268 617l-268 -617h536zM909 1563v213h228v-213h-228zM694 1776v-213h-227v213h227z" />
    <glyph glyph-name="Aring" unicode="&#xc5;" horiz-adv-x="1603" 
d="M442 315l-137 -315h-268l635 1434h260l635 -1434h-269l-137 315h-719zM1071 526l-268 617l-268 -617h536zM937 1563c-34.667 -34.667 -79.333 -52 -134 -52s-99 17.333 -133 52c-34.667 34 -52 78.333 -52 133s17.333 99 52 133c34 34 78.333 51 133 51
c54 0 98.667 -17 134 -51c34.667 -34 52 -78.333 52 -133s-17.333 -99 -52 -133zM751.001 1748c-12.667 -12.667 -18.999 -29.833 -18.999 -51.5s6.33301 -39.167 19 -52.5c13.333 -13.333 30.666 -20 51.999 -20c20 0 36.167 6.5 48.5 19.5s18.5 30.5 18.5 52.5
c0 21.333 -6.33301 38.5 -19 51.5s-28.667 19.5 -48 19.5c-22 0 -39.333 -6.33301 -52 -19z" />
    <glyph glyph-name="AE" unicode="&#xc6;" horiz-adv-x="2064" 
d="M485 315l-174 -315h-274l790 1434h1125v-209h-727v-391h665v-209h-665v-416h747v-209h-1001v315h-486zM971 526v672l-371 -672h371z" />
    <glyph glyph-name="Ccedilla" unicode="&#xc7;" horiz-adv-x="1411" 
d="M723 -195l18.0039 179.001c-198 16.667 -357.333 92 -478 226c-120.667 132.667 -181 301 -181 505c0 218 68 395.667 204 533c135.333 136 311.666 204 528.999 204c215.333 0 394.333 -70.333 537 -211l-150 -154c-37.333 44 -89.333 80 -156 108
c-68 28 -138.667 42 -212 42c-142.667 0 -258.334 -48.333 -347.001 -145c-90 -97.333 -135 -222.333 -135 -375c0 -151.333 45 -275.333 135 -372c89.333 -97.333 205 -146 347 -146c73.333 0 144 13.667 212 41c66.667 26.667 118.667 62.667 156 108l150 -155
c-123.333 -128 -285.333 -197.667 -486 -209l-10 -90c41.333 -6.66699 75.166 -25.667 101.499 -57s39.5 -68.333 39.5 -111c0 -46.667 -18 -84.667 -54 -114c-36.667 -29.333 -82.667 -44 -138 -44c-42 0 -82.5 8.16699 -121.5 24.5s-68.833 37.5 -89.5 63.5l78 84
c31.333 -31.333 66.666 -47 105.999 -47c21.333 0 39.333 4.66699 54 14s22 21.666 22 36.999c0 18 -12 32.667 -36 44s-55.667 17 -95 17z" />
    <glyph glyph-name="Egrave" unicode="&#xc8;" horiz-adv-x="1294" 
d="M1200 0h-1065v1434h1047v-209h-793v-391h729v-209h-729v-416h811v-209zM831 1589l-88 -90l-352 246l141 143z" />
    <glyph glyph-name="Eacute" unicode="&#xc9;" horiz-adv-x="1294" 
d="M1200 0h-1065v1434h1047v-209h-793v-391h729v-209h-729v-416h811v-209zM936 1745l-352 -246l-88 90l297 299z" />
    <glyph glyph-name="Ecircumflex" unicode="&#xca;" horiz-adv-x="1294" 
d="M135 0v1434h1047v-209h-793v-391h729v-209h-729v-416h811v-209h-1065zM664 1675l-226 -164l-116 115l342 240l342 -240l-117 -115z" />
    <glyph glyph-name="Edieresis" unicode="&#xcb;" horiz-adv-x="1294" 
d="M1200 0h-1065v1434h1047v-209h-793v-391h729v-209h-729v-416h811v-209zM997 1776v-213h-227v213h227zM330 1563v213h227v-213h-227z" />
    <glyph glyph-name="Igrave" unicode="&#xcc;" horiz-adv-x="524" 
d="M389 1434v-1434h-254v1434h254zM342 1499l-354 246l143 143l299 -299z" />
    <glyph glyph-name="Iacute" unicode="&#xcd;" horiz-adv-x="524" 
d="M389 1434v-1434h-254v1434h254zM94 1589l297 299l144 -143l-353 -246z" />
    <glyph glyph-name="Icircumflex" unicode="&#xce;" horiz-adv-x="524" 
d="M389 1434v-1434h-254v1434h254zM37 1511l-117 115l342 240l342 -240l-117 -115l-225 164z" />
    <glyph glyph-name="Idieresis" unicode="&#xcf;" horiz-adv-x="524" 
d="M135 0v1434h254v-1434h-254zM596 1563h-227v213h227v-213zM-72 1563v213h228v-213h-228z" />
    <glyph glyph-name="Eth" unicode="&#xd0;" horiz-adv-x="1554" 
d="M147 0v643h-143v148h143v643h588c218.667 0 397 -67 535 -201s207 -306 207 -516c0 -211.333 -69 -383.333 -207 -516c-138 -134 -316.333 -201 -535 -201h-588zM717 791v-148.001h-316v-434h334c141.333 0 256.666 46.667 345.999 140
c88.667 92.667 133 215.334 133 368.001c0 152 -44.333 274.667 -133 368c-89.333 93.333 -204.666 140 -345.999 140h-334v-434h316z" />
    <glyph glyph-name="Ntilde" unicode="&#xd1;" horiz-adv-x="1556" 
d="M381 1038v-1038h-246v1434h244l797 -1028v1028h245v-1434h-243zM594 1552l-166.002 -0.000976562c0 74 22.667 133.667 68 179c44.667 44.667 103.334 67 176.001 67c51.333 0 97.333 -14.667 138 -44s69 -44 85 -44c20.667 0 37.167 7.5 49.5 22.5
s18.5 34.167 18.5 57.5h165c0 -73.333 -22.333 -132.666 -67 -177.999c-44.667 -46.667 -102.667 -70 -174 -70c-48.667 0 -93.667 15 -135 45s-70.666 45 -87.999 45c-20.667 0 -37.5 -7.33301 -50.5 -22s-19.5 -34 -19.5 -58z" />
    <glyph glyph-name="Ograve" unicode="&#xd2;" horiz-adv-x="1654" 
d="M289 187c-138 136 -206.999 312.667 -206.999 530c0 216.667 69 393.334 207 530.001c137.333 136.667 316 205 536 205c221.333 0 401.333 -68.333 540 -205s208 -313.334 208 -530.001c0 -217.333 -69.333 -394 -208 -530c-138.667 -136.667 -318.667 -205 -540 -205
c-220.667 0 -399.334 68.333 -536.001 205zM486.001 1089c-89.333 -98.667 -134.001 -222.665 -134.001 -371.998c0 -150 45 -273.667 135 -371c88.667 -98 201.334 -147 338.001 -147c140.667 0 255 48.333 343 145c88 97.333 132 221.666 132 372.999
s-44 275.666 -132 372.999c-88 96.667 -202.333 145 -343 145c-136.667 0 -249.667 -48.667 -339 -146zM905 1499l-352 246l141 143l299 -299z" />
    <glyph glyph-name="Oacute" unicode="&#xd3;" horiz-adv-x="1654" 
d="M289 187c-138 136 -206.999 312.667 -206.999 530c0 216.667 69 393.334 207 530.001c137.333 136.667 316 205 536 205c221.333 0 401.333 -68.333 540 -205s208 -313.334 208 -530.001c0 -217.333 -69.333 -394 -208 -530c-138.667 -136.667 -318.667 -205 -540 -205
c-220.667 0 -399.334 68.333 -536.001 205zM486.001 1089c-89.333 -98.667 -134.001 -222.665 -134.001 -371.998c0 -150 45 -273.667 135 -371c88.667 -98 201.334 -147 338.001 -147c140.667 0 255 48.333 343 145c88 97.333 132 221.666 132 372.999
s-44 275.666 -132 372.999c-88 96.667 -202.333 145 -343 145c-136.667 0 -249.667 -48.667 -339 -146zM657 1589l297 299l144 -143l-350 -246z" />
    <glyph glyph-name="Ocircumflex" unicode="&#xd4;" horiz-adv-x="1654" 
d="M289 187c-138 136 -206.999 312.667 -206.999 530c0 216.667 69 393.334 207 530.001c137.333 136.667 316 205 536 205c221.333 0 401.333 -68.333 540 -205s208 -313.334 208 -530.001c0 -217.333 -69.333 -394 -208 -530c-138.667 -136.667 -318.667 -205 -540 -205
c-220.667 0 -399.334 68.333 -536.001 205zM486.001 1089c-89.333 -98.667 -134.001 -222.665 -134.001 -371.998c0 -150 45 -273.667 135 -371c88.667 -98 201.334 -147 338.001 -147c140.667 0 255 48.333 343 145c88 97.333 132 221.666 132 372.999
s-44 275.666 -132 372.999c-88 96.667 -202.333 145 -343 145c-136.667 0 -249.667 -48.667 -339 -146zM600 1511l-115 115l340 240l342 -240l-114 -115l-228 164z" />
    <glyph glyph-name="Otilde" unicode="&#xd5;" horiz-adv-x="1654" 
d="M289 187c-138 136 -206.999 312.667 -206.999 530c0 216.667 69 393.334 207 530.001c137.333 136.667 316 205 536 205c221.333 0 401.333 -68.333 540 -205s208 -313.334 208 -530.001c0 -217.333 -69.333 -394 -208 -530c-138.667 -136.667 -318.667 -205 -540 -205
c-220.667 0 -399.334 68.333 -536.001 205zM486.001 1089c-89.333 -98.667 -134.001 -222.665 -134.001 -371.998c0 -150 45 -273.667 135 -371c88.667 -98 201.334 -147 338.001 -147c140.667 0 255 48.333 343 145c88 97.333 132 221.666 132 372.999
s-44 275.666 -132 372.999c-88 96.667 -202.333 145 -343 145c-136.667 0 -249.667 -48.667 -339 -146zM711 1632c-20.667 0 -37.501 -7.33301 -50.501 -22s-19.5 -34 -19.5 -58h-166c0 74 22.667 133.667 68 179c44.667 44.667 103.334 67 176.001 67
c51.333 0 97.666 -14.667 138.999 -44c40.667 -29.333 68.667 -44 84 -44c20.667 0 37.167 7.5 49.5 22.5s18.5 34.167 18.5 57.5h166c0 -72 -22.667 -131.333 -68 -178c-44.667 -46.667 -102.667 -70 -174 -70c-49.333 0 -94.333 15 -135 45
c-41.333 30 -70.666 45 -87.999 45z" />
    <glyph glyph-name="Odieresis" unicode="&#xd6;" horiz-adv-x="1654" 
d="M825 -18c-220.667 0 -399.333 68.333 -536 205c-138 136 -207 312.667 -207 530c0 216.667 69 393.334 207 530.001c137.333 136.667 316 205 536 205c221.333 0 401.333 -68.333 540 -205s208 -313.334 208 -530.001c0 -217.333 -69.333 -394 -208 -530
c-138.667 -136.667 -318.667 -205 -540 -205zM486.001 1089c-89.333 -98.667 -134.001 -222.665 -134.001 -371.998c0 -150 45 -273.667 135 -371c88.667 -98 201.334 -147 338.001 -147c140.667 0 255 48.333 343 145c88 97.333 132 221.666 132 372.999
s-44 275.666 -132 372.999c-88 96.667 -202.333 145 -343 145c-136.667 0 -249.667 -48.667 -339 -146zM1161 1776v-213h-227v213h227zM719 1563h-227v213h227v-213z" />
    <glyph glyph-name="multiply" unicode="&#xd7;" 
d="M510 717l-291 291l107 104l288 -289l291 289l105 -104l-289 -291l289 -289l-105 -106l-291 290l-288 -290l-107 106z" />
    <glyph glyph-name="Oslash" unicode="&#xd8;" horiz-adv-x="1654" 
d="M158 33l129 153c-136.667 138.667 -205 315.667 -205 531c0 216.667 69 393.667 207 531c138 136 316.667 204 536 204c164.667 0 307.334 -39 428.001 -117l136 162l110 -94l-133 -158c138 -135.333 207 -311.333 207 -528c0 -217.333 -69.333 -394 -208 -530
c-138.667 -136.667 -318.667 -205 -540 -205c-160.667 0 -301.334 38 -422.001 114l-133 -157zM455 385l643.001 766.001c-78.667 56 -169.667 84 -273 84c-136.667 0 -249.667 -48.667 -339 -146c-89.333 -98.667 -134 -222.667 -134 -372
c1.33301 -130.667 35.666 -241.334 102.999 -332.001zM1202 1049l-643 -765.999c78 -56 166.667 -84 266 -84c140.667 0 255 48.333 343 145c88 97.333 132 221.666 132 372.999c0 130 -32.667 240.667 -98 332z" />
    <glyph glyph-name="Ugrave" unicode="&#xd9;" horiz-adv-x="1525" 
d="M125 606v828h254v-828c0 -124.667 35.667 -223.667 107 -297s164 -110 278 -110s206.667 36.667 278 110c70 72.667 105 171.667 105 297v828h254v-828c0 -189.333 -58.667 -340.666 -176 -453.999s-271 -170 -461 -170c-189.333 0 -343.333 56.667 -462 170
c-118 113.333 -177 264.666 -177 453.999zM932 1589l-90 -90l-353 246l144 143z" />
    <glyph glyph-name="Uacute" unicode="&#xda;" horiz-adv-x="1525" 
d="M1225 152c-117.333 -113.333 -271 -170 -461 -170c-189.333 0 -343.333 56.667 -462 170c-118 113.333 -177 264.666 -177 453.999v828h254v-828c0 -124.667 35.667 -223.667 107 -297s164 -110 278 -110s206.667 36.667 278 110c70 72.667 105 171.667 105 297v828h254
v-828c0 -189.333 -58.667 -340.666 -176 -453.999zM1034 1745l-350 -246l-88 90l297 299z" />
    <glyph glyph-name="Ucircumflex" unicode="&#xdb;" horiz-adv-x="1525" 
d="M125 606v828h254v-828c0 -124.667 35.667 -223.667 107 -297s164 -110 278 -110s206.667 36.667 278 110c70 72.667 105 171.667 105 297v828h254v-828c0 -189.333 -58.667 -340.666 -176 -453.999s-271 -170 -461 -170c-189.333 0 -343.333 56.667 -462 170
c-118 113.333 -177 264.666 -177 453.999zM764 1675l-225 -164l-117 115l342 240l340 -240l-115 -115z" />
    <glyph glyph-name="Udieresis" unicode="&#xdc;" horiz-adv-x="1525" 
d="M1225 152c-117.333 -113.333 -271 -170 -461 -170c-189.333 0 -343.333 56.667 -462 170c-118 113.333 -177 264.666 -177 453.999v828h254v-828c0 -124.667 35.667 -223.667 107 -297s164 -110 278 -110s206.667 36.667 278 110c70 72.667 105 171.667 105 297v828h254
v-828c0 -189.333 -58.667 -340.666 -176 -453.999zM870 1563v213h228v-213h-228zM655 1776v-213h-227v213h227z" />
    <glyph glyph-name="Yacute" unicode="&#xdd;" horiz-adv-x="1435" 
d="M590 0v539l-553 895h278l402 -660l403 660h277l-553 -895v-539h-254zM639 1499l-88 90l297 299l141 -143z" />
    <glyph glyph-name="Thorn" unicode="&#xde;" horiz-adv-x="1282" 
d="M389 276v-276h-254v1434h254v-273h377c132.667 0 241 -41 325 -123s126 -187.667 126 -317c0 -130 -42 -236.667 -126 -320c-84.667 -83.333 -193 -125 -325 -125h-377zM739 952h-350v-465h350c65.333 0 119 22 161 66c42 43.333 63 100 63 170
c0 67.333 -21 122.333 -63 165s-95.667 64 -161 64z" />
    <glyph glyph-name="germandbls" unicode="&#xdf;" horiz-adv-x="1320" 
d="M1245 330c0 -101.333 -38.001 -184.666 -114.001 -249.999c-77.333 -65.333 -174.333 -98 -291 -98c-141.333 0 -262.333 50.333 -363 151l121 135c57.333 -60 135 -90 233 -90c54.667 0 99.5 10.667 134.5 32s52.5 49 52.5 83c0 44.667 -63 91.667 -189 141
c-12.667 4.66699 -20.667 8 -24 10c-33.333 13.333 -64.333 27.666 -93 42.999c-27.333 14.667 -55 33.334 -83 56.001c-64.667 50 -97 125 -97 225c0 52.667 10.667 100.334 32 143.001c21.333 40.667 44.333 72.667 69 96c66.667 60 100 111.333 100 154
c0 37.333 -17.667 70.666 -53 99.999c-34.667 28 -77 42 -127 42c-56 0 -102 -18 -138 -54c-36.667 -36.667 -55 -83.667 -55 -141v-1108h-235v1096c0 121.333 38.667 219.666 116 294.999c76.667 74.667 178 112 304 112c119.333 0 219.333 -32.667 300 -98
c80 -64.667 120 -144 120 -238c0 -44 -10.667 -84.667 -32 -122c-20.667 -36 -44 -65 -70 -87c-67.333 -55.333 -101 -107.666 -101 -156.999c0 -24 9.16699 -46.833 27.5 -68.5s39.833 -38.5 64.5 -50.5c17.333 -8.66699 49.333 -23 96 -43
c50.667 -19.333 86.334 -34.333 107.001 -45c25.333 -12.667 54.333 -30.334 87 -53.001c67.333 -46 101 -116.333 101 -211z" />
    <glyph glyph-name="agrave" unicode="&#xe0;" horiz-adv-x="1136" 
d="M446 -18c-104 0 -188.664 27.667 -253.997 83s-98 126.666 -98 213.999c0 104 47.667 188.667 143 254s217.666 98 366.999 98c65.333 0 124.666 -6.33301 177.999 -19v68c0 48 -21.667 87 -65 117c-44 30 -100.667 45 -170 45c-114 0 -215.667 -33 -305 -99l-113 140
c48 48.667 111.667 87.334 191 116.001s163 43 251 43c131.333 0 238.666 -32.667 321.999 -98s125 -150 125 -254v-690h-236v131c-82 -99.333 -194 -149 -336 -149zM342.003 303c0 -38 16.999 -69.332 50.999 -93.999c33.333 -24.667 77 -37 131 -37
c76.667 0 139 26 187 78c47.333 52.667 71 119 71 199c-48.667 15.333 -101.667 22.666 -159 21.999c-81.333 0 -148.666 -15.667 -201.999 -47c-52.667 -30.667 -79 -71 -79 -121zM637.002 1157l-352 246l141 141l301 -299z" />
    <glyph glyph-name="aacute" unicode="&#xe1;" horiz-adv-x="1136" 
d="M446 -18c-104 0 -188.664 27.667 -253.997 83s-98 126.666 -98 213.999c0 104 47.667 188.667 143 254s217.666 98 366.999 98c65.333 0 124.666 -6.33301 177.999 -19v68c0 48 -21.667 87 -65 117c-44 30 -100.667 45 -170 45c-114 0 -215.667 -33 -305 -99l-113 140
c48 48.667 111.667 87.334 191 116.001s163 43 251 43c131.333 0 238.666 -32.667 321.999 -98s125 -150 125 -254v-690h-236v131c-82 -99.333 -194 -149 -336 -149zM342.003 303c0 -38 16.999 -69.332 50.999 -93.999c33.333 -24.667 77 -37 131 -37
c76.667 0 139 26 187 78c47.333 52.667 71 119 71 199c-48.667 15.333 -101.667 22.666 -159 21.999c-81.333 0 -148.666 -15.667 -201.999 -47c-52.667 -30.667 -79 -71 -79 -121zM829.002 1403l-350 -246l-90 88l299 299z" />
    <glyph glyph-name="acircumflex" unicode="&#xe2;" horiz-adv-x="1136" 
d="M94 279c0 104 47.6699 188.667 143.003 254s217.666 98 366.999 98c65.333 0 124.666 -6.33301 177.999 -19v68c0 48 -21.667 87 -65 117c-44 30 -100.667 45 -170 45c-114 0 -215.667 -33 -305 -99l-113 140c48 48.667 111.667 87.334 191 116.001s163 43 251 43
c131.333 0 238.666 -32.667 321.999 -98s125 -150 125 -254v-690h-236v131c-82 -100 -194 -149.667 -336 -149c-104 0 -188.667 27.667 -254 83s-98 126.666 -98 213.999zM623.003 471c-81.333 0 -148.667 -15.667 -202 -47c-52.667 -30.667 -79 -71 -79 -121
c0 -38 17 -69.333 51 -94c33.333 -24.667 77 -37 131 -37c76.667 0 139 26 187 78c47.333 52.667 71 119 71 199c-44.667 14.667 -97.667 22 -159 22zM332.002 1169l-115 115l340 240l342 -240l-115 -115l-227 162z" />
    <glyph glyph-name="atilde" unicode="&#xe3;" horiz-adv-x="1136" 
d="M94 279c0 104 47.6699 188.667 143.003 254s217.666 98 366.999 98c65.333 0 124.666 -6.33301 177.999 -19v68c0 48 -21.667 87 -65 117c-44 30 -100.667 45 -170 45c-114 0 -215.667 -33 -305 -99l-113 140c48 48.667 111.667 87.334 191 116.001s163 43 251 43
c131.333 0 238.666 -32.667 321.999 -98s125 -150 125 -254v-690h-236v131c-82 -100 -194 -149.667 -336 -149c-104 0 -188.667 27.667 -254 83s-98 126.666 -98 213.999zM373.003 1210l-165.999 -0.000976562c0 74.667 23 134.334 69 179.001
c44.667 44.667 103.667 67 177 67c50 0 95.333 -14.667 136 -44s69 -44 85 -44c20.667 0 37 7.16699 49 21.5s18 33.166 18 56.499h166c0 -73.333 -22.333 -132.333 -67 -177c-45.333 -46 -103.333 -69 -174 -69c-48.667 0 -93.667 14.667 -135 44s-71 44 -89 44
c-20.667 0 -37.334 -7.16699 -50.001 -21.5s-19 -33.166 -19 -56.499zM342.004 302.999c0 -38 16.999 -69.332 50.999 -93.999c33.333 -24.667 77 -37 131 -37c76.667 0 139 26 187 78c47.333 52.667 71 119 71 199c-48.667 15.333 -101.667 22.666 -159 21.999
c-81.333 0 -148.666 -15.667 -201.999 -47c-52.667 -30.667 -79 -71 -79 -121z" />
    <glyph glyph-name="adieresis" unicode="&#xe4;" horiz-adv-x="1136" 
d="M446 -18c-104 0 -188.664 27.667 -253.997 83s-98 126.666 -98 213.999c0 104 47.667 188.667 143 254s217.666 98 366.999 98c65.333 0 124.666 -6.33301 177.999 -19v68c0 48 -21.667 87 -65 117c-44 30 -100.667 45 -170 45c-114 0 -215.667 -33 -305 -99l-113 140
c48 48.667 111.667 87.334 191 116.001s163 43 251 43c131.333 0 238.666 -32.667 321.999 -98s125 -150 125 -254v-690h-236v131c-82 -99.333 -194 -149 -336 -149zM342.003 303c0 -38 16.999 -69.332 50.999 -93.999c33.333 -24.667 77 -37 131 -37
c76.667 0 139 26 187 78c47.333 52.667 71 119 71 199c-48.667 15.333 -101.667 22.666 -159 21.999c-81.333 0 -148.666 -15.667 -201.999 -47c-52.667 -30.667 -79 -71 -79 -121zM666.002 1219v215h227v-215h-227zM451.002 1434v-215h-228v215h228z" />
    <glyph glyph-name="aring" unicode="&#xe5;" horiz-adv-x="1136" 
d="M94 279c0 104 47.6699 188.667 143.003 254s217.666 98 366.999 98c65.333 0 124.666 -6.33301 177.999 -19v68c0 48 -21.667 87 -65 117c-44 30 -100.667 45 -170 45c-114 0 -215.667 -33 -305 -99l-113 140c48 48.667 111.667 87.334 191 116.001s163 43 251 43
c131.333 0 238.666 -32.667 321.999 -98s125 -150 125 -254v-690h-236v131c-82 -100 -194 -149.667 -336 -149c-104 0 -188.667 27.667 -254 83s-98 126.666 -98 213.999zM424.003 1221c-34 34 -51 78.333 -51 133s17 99 51 133s78.333 51 133 51c54 0 98.667 -17 134 -51
c34.667 -34 52 -78.333 52 -133s-17 -99 -51 -133c-34 -34.667 -79 -52 -135 -52c-54.667 0 -99 17.333 -133 52zM342.003 303c0 -38 16.999 -69.332 50.999 -93.999c33.333 -24.667 77 -37 131 -37c76.667 0 139 26 187 78c47.333 52.667 71 119 71 199
c-48.667 15.333 -101.667 22.666 -159 21.999c-81.333 0 -148.666 -15.667 -201.999 -47c-52.667 -30.667 -79 -71 -79 -121zM608.002 1404c-15.333 12 -32.333 18.3311 -51 18.998s-35.5 -5.66602 -50.5 -18.999s-21.5 -30 -19.5 -50c0 -22 6.5 -39.5 19.5 -52.5
s29.833 -19.5 50.5 -19.5s37.5 6.5 50.5 19.5s19.5 30.5 19.5 52.5c0 20.667 -6.33301 37.334 -19 50.001z" />
    <glyph glyph-name="ae" unicode="&#xe6;" horiz-adv-x="1867" 
d="M92 279c0 104 47.667 188.666 143 253.999s217.666 98 366.999 98c67.333 0 126.666 -6.33301 177.999 -19v68c0 48 -21.667 87 -65 117c-44 30 -100 45 -168 45c-115.333 0 -217.666 -33 -306.999 -99l-113 140c48.667 48.667 113 87.334 193 116.001
c79.333 28.667 163 43 251 43c158 0 276.333 -46.333 355 -139c88.667 92.667 206.667 139 354 139c152.667 0 277 -49.333 373 -148c95.333 -99.333 143 -228 143 -386c0 -17.333 -1.33301 -43.333 -4 -78h-776c8 -72.667 44.667 -132 110 -178
c64.667 -46.667 144 -70 238 -70c112 0 196.667 26.667 254 80l129 -129c-104.667 -101.333 -242 -151.666 -412 -150.999c-195.333 0 -342.666 66 -441.999 198c-103.333 -133.333 -252.333 -199.333 -447 -198c-103.333 0 -188.333 27.667 -255 83
c-66 55.333 -99 126.666 -99 213.999zM623 470.999c-82.667 0 -150.333 -15.667 -203 -47c-52 -30.667 -78 -71 -78 -121c0 -38 17 -69.333 51 -94c33.333 -24.667 77 -37 131 -37c75.333 0 137 26 185 78c47.333 52.667 71 119 71 199c-44.667 14.667 -97 22 -157 22z
M1020 605.999h532.001c-0.666992 70 -24.667 127.667 -72 173c-46.667 44.667 -107.334 67 -182.001 67c-75.333 0 -138.333 -22.333 -189 -67c-51.333 -45.333 -81 -103 -89 -173z" />
    <glyph glyph-name="ccedilla" unicode="&#xe7;" horiz-adv-x="1069" 
d="M535 -195l18 181.001c-144 14.667 -260.333 70 -349 166c-88 94.667 -132 214.667 -132 360c0 157.333 51.333 285 154 383c102 98 235.667 147 401 147c160.667 0 290.334 -48.333 389.001 -145l-137 -137c-58.667 54.667 -136.667 82 -234 82
c-94 0 -170.667 -30.667 -230 -92c-59.333 -62.667 -89 -142 -89 -238c0 -96.667 29.667 -175.667 89 -237c59.333 -62 136 -93 230 -93c97.333 0 175.333 27.333 234 82l137 -137c-85.333 -87.333 -198 -135 -338 -143l-10 -90c41.333 -6.66699 75.166 -25.667 101.499 -57
s39.5 -68.333 39.5 -111c0 -46.667 -18 -84.667 -54 -114c-37.333 -29.333 -83.666 -44 -138.999 -44c-91.333 0 -161.333 29.333 -210 88l77 84c31.333 -31.333 67.666 -47 108.999 -47c20.667 0 38.167 4.66699 52.5 14s21.5 21.666 21.5 36.999c0 18 -12 32.667 -36 44
s-55.667 17 -95 17z" />
    <glyph glyph-name="egrave" unicode="&#xe8;" horiz-adv-x="1173" 
d="M1098 430h-776.001c8 -72.667 44.333 -132 109 -178c64.667 -46.667 144.334 -70 239.001 -70c112 0 196.667 26.667 254 80l129 -129c-102 -102 -239.333 -152.333 -412 -151c-169.333 0 -306.333 50.333 -411 151c-105.333 100 -158 230.333 -158 391
c0 152 47.667 276.667 143 374c95.333 96 219 144 371 144c152.667 0 277 -49.333 373 -148c95.333 -99.333 143 -228 143 -386c0 -18 -1.33301 -44 -4 -78zM325.999 606h532.001c-0.666992 70 -24.667 127.667 -72 173c-46.667 44.667 -107.334 67 -182.001 67
c-75.333 0 -138.333 -22.333 -189 -67c-51.333 -45.333 -81 -103 -89 -173zM666 1157l-353 246l142 141l299 -299z" />
    <glyph glyph-name="eacute" unicode="&#xe9;" horiz-adv-x="1173" 
d="M1098 430h-776.001c8 -72.667 44.333 -132 109 -178c64.667 -46.667 144.334 -70 239.001 -70c112 0 196.667 26.667 254 80l129 -129c-102 -102 -239.333 -152.333 -412 -151c-169.333 0 -306.333 50.333 -411 151c-105.333 100 -158 230.333 -158 391
c0 152 47.667 276.667 143 374c95.333 96 219 144 371 144c152.667 0 277 -49.333 373 -148c95.333 -99.333 143 -228 143 -386c0 -18 -1.33301 -44 -4 -78zM325.999 606h532.001c-0.666992 70 -24.667 127.667 -72 173c-46.667 44.667 -107.334 67 -182.001 67
c-75.333 0 -138.333 -22.333 -189 -67c-51.333 -45.333 -81 -103 -89 -173zM418 1245l297 299l143 -141l-352 -246z" />
    <glyph glyph-name="ecircumflex" unicode="&#xea;" horiz-adv-x="1173" 
d="M1098 430h-776.001c8 -72.667 44.333 -132 109 -178c64.667 -46.667 144.334 -70 239.001 -70c112 0 196.667 26.667 254 80l129 -129c-102 -102 -239.333 -152.333 -412 -151c-169.333 0 -306.333 50.333 -411 151c-105.333 100 -158 230.333 -158 391
c0 152 47.667 276.667 143 374c95.333 96 219 144 371 144c152.667 0 277 -49.333 373 -148c95.333 -99.333 143 -228 143 -386c0 -18 -1.33301 -44 -4 -78zM325.999 606h532.001c-0.666992 70 -24.667 127.667 -72 173c-46.667 44.667 -107.334 67 -182.001 67
c-75.333 0 -138.333 -22.333 -189 -67c-51.333 -45.333 -81 -103 -89 -173zM360 1169l-116 115l342 240l342 -240l-117 -115l-225 162z" />
    <glyph glyph-name="edieresis" unicode="&#xeb;" horiz-adv-x="1173" 
d="M641 -18c-169.333 0 -306.334 50.333 -411.001 151c-105.333 100 -158 230.333 -158 391c0 152 47.667 276.667 143 374c95.333 96 219 144 371 144c152.667 0 277 -49.333 373 -148c95.333 -99.333 143 -228 143 -386c0 -17.333 -1.33301 -43.333 -4 -78h-776
c8 -72.667 44.333 -132 109 -178c64.667 -46.667 144.334 -70 239.001 -70c112 0 196.667 26.667 254 80l129 -129c-100.667 -100.667 -238 -151 -412 -151zM325.999 606h532.001c-0.666992 70 -24.667 127.667 -72 173c-46.667 44.667 -107.334 67 -182.001 67
c-75.333 0 -138.333 -22.333 -189 -67c-51.333 -45.333 -81 -103 -89 -173zM920 1219h-228v215h228v-215zM252 1219v215h227v-215h-227z" />
    <glyph glyph-name="igrave" unicode="&#xec;" horiz-adv-x="485" 
d="M360 1024v-1024h-235v1024h235zM322 1157l-353 246l144 141l299 -299z" />
    <glyph glyph-name="iacute" unicode="&#xed;" horiz-adv-x="485" 
d="M360 1024v-1024h-235v1024h235zM76 1245l297 299l141 -141l-350 -246z" />
    <glyph glyph-name="icircumflex" unicode="&#xee;" horiz-adv-x="485" 
d="M360 1024v-1024h-235v1024h235zM18 1169l-116 115l342 240l340 -240l-115 -115l-225 162z" />
    <glyph glyph-name="idieresis" unicode="&#xef;" horiz-adv-x="489" 
d="M127 0v1024h235v-1024h-235zM559 1219h-227v215h227v-215zM-70 1219v215h228v-215h-228z" />
    <glyph glyph-name="eth" unicode="&#xf0;" horiz-adv-x="1243" 
d="M72 522c0 153.333 45.333 278.333 136 375s208.334 145 353.001 145c88 0 168.667 -19.667 242 -59c71.333 -38.667 122.333 -92 153 -160c4 202 -79.667 338.667 -251 410l-101 -148l-123 84l74 107c-90 18 -198.667 27 -326 27l19 200c178 0 322 -15.667 432 -47
l94 137l123 -82l-74 -108c225.333 -113.333 338 -344.666 338 -693.999c0 -247.333 -49.333 -430.333 -148 -549s-232.334 -178 -401.001 -178c-159.333 0 -289.333 49.667 -390 149c-100 99.333 -150 229.666 -150 390.999zM606 842c-83.333 0 -150.667 -30.667 -202 -92
c-52 -62 -78 -141.333 -78 -238c0 -97.333 26 -176.333 78 -237c50.667 -62 118 -93 202 -93c82 0 149 31 201 93c52 60.667 78 139.667 78 237c0 96.667 -26 176 -78 238c-52 61.333 -119 92 -201 92z" />
    <glyph glyph-name="ntilde" unicode="&#xf1;" horiz-adv-x="1218" 
d="M360 537l0.000976562 -536.998h-235v1024h235v-143c85.333 108 198.666 161.667 339.999 161c120 0 217.333 -37 292 -111c74.667 -74.667 112 -171.334 112 -290.001v-641h-238v594c0 75.333 -21.667 136.666 -65 183.999c-44 46.667 -101.333 70 -172 70
c-78 0 -142.333 -29.333 -193 -88s-76 -133 -76 -223zM451.001 1212l-168.002 -0.000976562c0 74.667 23 134.334 69 179.001c44.667 44.667 103.334 67 176.001 67c26.667 0.666992 52.5 -3.66602 77.5 -12.999s45 -19.833 60 -31.5s30.5 -22 46.5 -31
s29.333 -13.167 40 -12.5c20.667 0 36.667 7.16699 48 21.5s17 33.833 17 58.5h168c0 -73.333 -22.333 -132.333 -67 -177c-45.333 -46 -103.666 -69 -174.999 -69c-26.667 -0.666992 -52.167 3.66602 -76.5 12.999s-44 19.833 -59 31.5s-30.5 22 -46.5 31
s-29.667 13.167 -41 12.5c-47.333 0 -70.333 -26.667 -69 -80z" />
    <glyph glyph-name="ograve" unicode="&#xf2;" horiz-adv-x="1245" 
d="M226 129c-102.667 98 -154 225.667 -154 383s51.333 285 154 383c102 98 234.333 147 397 147c162 0 294.667 -49 398 -147s155 -225.667 155 -383s-51.667 -285 -155 -383s-236 -147 -398 -147c-162.667 0 -295 49 -397 147zM326 512
c0 -96.667 27.668 -175.667 83.001 -237c55.333 -62 126.666 -93 213.999 -93c88.667 0 160.667 31 216 93c55.333 61.333 83 140.333 83 237c0 98 -27.667 177.667 -83 239c-54.667 60.667 -126.667 91 -216 91c-88 0 -159.333 -30.333 -214 -91
c-55.333 -61.333 -83 -141 -83 -239zM702.001 1157l-352 246l142 141l299 -299z" />
    <glyph glyph-name="oacute" unicode="&#xf3;" horiz-adv-x="1245" 
d="M226 129c-102.667 98 -154 225.667 -154 383s51.333 285 154 383c102 98 234.333 147 397 147c162 0 294.667 -49 398 -147s155 -225.667 155 -383s-51.667 -285 -155 -383s-236 -147 -398 -147c-162.667 0 -295 49 -397 147zM326 512
c0 -96.667 27.668 -175.667 83.001 -237c55.333 -62 126.666 -93 213.999 -93c88.667 0 160.667 31 216 93c55.333 61.333 83 140.333 83 237c0 98 -27.667 177.667 -83 239c-54.667 60.667 -126.667 91 -216 91c-88 0 -159.333 -30.333 -214 -91
c-55.333 -61.333 -83 -141 -83 -239zM455.001 1245l297 299l143 -141l-350 -246z" />
    <glyph glyph-name="ocircumflex" unicode="&#xf4;" horiz-adv-x="1245" 
d="M226 129c-102.667 98 -154 225.667 -154 383s51.333 285 154 383c102 98 234.333 147 397 147c162 0 294.667 -49 398 -147s155 -225.667 155 -383s-51.667 -285 -155 -383s-236 -147 -398 -147c-162.667 0 -295 49 -397 147zM326 512
c0 -96.667 27.668 -175.667 83.001 -237c55.333 -62 126.666 -93 213.999 -93c88.667 0 160.667 31 216 93c55.333 61.333 83 140.333 83 237c0 98 -27.667 177.667 -83 239c-54.667 60.667 -126.667 91 -216 91c-88 0 -159.333 -30.333 -214 -91
c-55.333 -61.333 -83 -141 -83 -239zM397.001 1169l-114 115l340 240l342 -240l-117 -115l-225 162z" />
    <glyph glyph-name="otilde" unicode="&#xf5;" horiz-adv-x="1245" 
d="M226 129c-102.667 98 -154 225.667 -154 383s51.333 285 154 383c102 98 234.333 147 397 147c162 0 294.667 -49 398 -147s155 -225.667 155 -383s-51.667 -285 -155 -383s-236 -147 -398 -147c-162.667 0 -295 49 -397 147zM326 512
c0 -96.667 27.668 -175.667 83.001 -237c55.333 -62 126.666 -93 213.999 -93c88.667 0 160.667 31 216 93c55.333 61.333 83 140.333 83 237c0 98 -27.667 177.667 -83 239c-54.667 60.667 -126.667 91 -216 91c-88 0 -159.333 -30.333 -214 -91
c-55.333 -61.333 -83 -141 -83 -239zM508.001 1292c-20.667 0 -37.5029 -7.33301 -50.5029 -22s-19.5 -34 -19.5 -58h-166c0 74 22.667 133.667 68 179c44.667 44.667 103.334 67 176.001 67c51.333 0 97.666 -14.667 138.999 -44c40.667 -29.333 68.667 -44 84 -44
c20.667 0 36.834 7.16699 48.501 21.5s17.5 33.833 17.5 58.5h168c0 -73.333 -22.333 -132.333 -67 -177c-45.333 -46 -103.666 -69 -174.999 -69c-48.667 0 -93.667 14.667 -135 44s-70.666 44 -87.999 44z" />
    <glyph glyph-name="odieresis" unicode="&#xf6;" horiz-adv-x="1245" 
d="M1021 129c-103.333 -98 -236 -147 -398 -147c-162.667 0 -295 49 -397 147c-102.667 98 -154 225.667 -154 383s51.333 285 154 383c102 98 234.333 147 397 147c162 0 294.667 -49 398 -147s155 -225.667 155 -383s-51.667 -285 -155 -383zM326 512
c0 -96.667 27.668 -175.667 83.001 -237c55.333 -62 126.666 -93 213.999 -93c88.667 0 160.667 31 216 93c55.333 61.333 83 140.333 83 237c0 98 -27.667 177.667 -83 239c-54.667 60.667 -126.667 91 -216 91c-88 0 -159.333 -30.333 -214 -91
c-55.333 -61.333 -83 -141 -83 -239zM958.001 1434v-215h-227v215h227zM516.001 1434v-215h-227v215h227z" />
    <glyph glyph-name="divide" unicode="&#xf7;" 
d="M1051 643h-873v148h873v-148zM727 477v-223h-225v223h225zM727 1180v-224h-225v224h225z" />
    <glyph glyph-name="oslash" unicode="&#xf8;" horiz-adv-x="1245" 
d="M137 47l78 92c-95.333 98.667 -143 223 -143 373c0 157.333 51.333 285 154 383c102 98 234.333 147 397 147c109.333 0 206 -23 290 -69l84 100l113 -94l-80 -94c96 -96 144.667 -220.333 146 -373c0 -157.333 -51.667 -285 -155 -383s-236 -147 -398 -147
c-108.667 0 -205.667 23 -291 69l-82 -98zM365 317l413 494c-47.333 27.333 -99 41 -155 41c-90 0 -163.667 -31.667 -221 -95c-58 -63.333 -87 -145 -87 -245c1.33301 -72 18 -137 50 -195zM881 707l-414 -494c47.333 -27.333 99.333 -41 156 -41
c90 0 163.667 31.667 221 95s86 145 86 245c0 73.333 -16.333 138.333 -49 195z" />
    <glyph glyph-name="ugrave" unicode="&#xf9;" horiz-adv-x="1222" 
d="M125 383v641h235v-594c0 -74.667 22 -135.667 66 -183s101.333 -71 172 -71c76.667 0 140 29.333 190 88c49.333 59.333 74 133.666 74 222.999v537h236v-1024h-236v145c-83.333 -109.333 -196 -163.666 -338 -162.999c-119.333 0 -215.333 37.333 -288 112
c-74 74 -111 170.333 -111 289zM780 1245l-90 -88l-352 246l143 141z" />
    <glyph glyph-name="uacute" unicode="&#xfa;" horiz-adv-x="1222" 
d="M125 383v641h235v-594c0 -74.667 22 -135.667 66 -183s101.333 -71 172 -71c76.667 0 140 29.333 190 88c49.333 59.333 74 133.666 74 222.999v537h236v-1024h-236v145c-83.333 -109.333 -196 -163.666 -338 -162.999c-119.333 0 -215.333 37.333 -288 112
c-74 74 -111 170.333 -111 289zM883 1403l-351 -246l-90 88l299 299z" />
    <glyph glyph-name="ucircumflex" unicode="&#xfb;" horiz-adv-x="1222" 
d="M125 383v641h235v-594c0 -74.667 22 -135.667 66 -183s101.333 -71 172 -71c76.667 0 140 29.333 190 88c49.333 59.333 74 133.666 74 222.999v537h236v-1024h-236v145c-83.333 -109.333 -196 -163.666 -338 -162.999c-119.333 0 -215.333 37.333 -288 112
c-74 74 -111 170.333 -111 289zM612 1331l-227 -162l-115 115l342 240l340 -240l-114 -115z" />
    <glyph glyph-name="udieresis" unicode="&#xfc;" horiz-adv-x="1222" 
d="M125 383v641h235v-594c0 -74.667 22 -135.667 66 -183s101.333 -71 172 -71c76.667 0 140 29.333 190 88c49.333 59.333 74 133.666 74 222.999v537h236v-1024h-236v145c-83.333 -109.333 -196 -163.666 -338 -162.999c-119.333 0 -215.333 37.333 -288 112
c-74 74 -111 170.333 -111 289zM946 1434v-215h-227v215h227zM504 1434v-215h-228v215h228z" />
    <glyph glyph-name="yacute" unicode="&#xfd;" horiz-adv-x="1157" 
d="M428 -111l50.999 111l-452 1024h243l318 -758l301 758h241l-505 -1212c-83.333 -194 -203.666 -291 -360.999 -291c-90.667 0 -169.667 30.667 -237 92l118 143c27.333 -23.333 60.333 -35 99 -35c72.667 0 134 56 184 168zM849.999 1403l-350 -246l-90 88l299 299z" />
    <glyph glyph-name="thorn" unicode="&#xfe;" horiz-adv-x="1220" 
d="M360 -461h-235.001v1946h235v-606c33.333 50 82 89.667 146 119c64.667 29.333 133 44 205 44c130.667 0 236.334 -46.333 317.001 -139s121 -213.334 121 -362.001c0 -165.333 -50.667 -299.666 -152 -402.999c-102 -104 -234.333 -156 -397 -156
c-93.333 0 -173.333 15.667 -240 47v-490zM359.999 551v-322c62.667 -32.667 131.667 -49 207 -49c96.667 0 175.667 32.667 237 98c60.667 64.667 91 148 91 250c0 95.333 -25 173 -75 233c-50 59.333 -115 89 -195 89c-76.667 0 -140 -28 -190 -84s-75 -127.667 -75 -215z
" />
    <glyph glyph-name="ydieresis" unicode="&#xff;" horiz-adv-x="1157" 
d="M479 0l-452.001 1024h243l318 -758l301 758h241l-505 -1212c-83.333 -194 -203.666 -291 -360.999 -291c-90.667 0 -169.667 30.667 -237 92l118 143c27.333 -23.333 60.333 -35 99 -35c72.667 0 134 56 184 168zM912.999 1219h-227v215h227v-215zM470.999 1434v-215
h-227v215h227z" />
    <glyph glyph-name="Amacron" unicode="&#x100;" horiz-adv-x="1603" 
d="M305 0h-268l635 1434h260l635 -1434h-269l-137 315h-719zM1071 526l-268 617l-268 -617h536zM1083 1571h-563v147h563v-147z" />
    <glyph glyph-name="amacron" unicode="&#x101;" horiz-adv-x="1136" 
d="M446 -18c-104 0 -188.664 27.667 -253.997 83s-98 126.666 -98 213.999c0 104 47.667 188.667 143 254s217.666 98 366.999 98c65.333 0 124.666 -6.33301 177.999 -19v68c0 48 -21.667 87 -65 117c-44 30 -100.667 45 -170 45c-114 0 -215.667 -33 -305 -99l-113 140
c48 48.667 111.667 87.334 191 116.001s163 43 251 43c131.333 0 238.666 -32.667 321.999 -98s125 -150 125 -254v-690h-236v131c-82 -99.333 -194 -149 -336 -149zM342.003 303c0 -38 16.999 -69.332 50.999 -93.999c33.333 -24.667 77 -37 131 -37
c76.667 0 139 26 187 78c47.333 52.667 71 119 71 199c-48.667 15.333 -101.667 22.666 -159 21.999c-81.333 0 -148.666 -15.667 -201.999 -47c-52.667 -30.667 -79 -71 -79 -121zM276.002 1227v147h564v-147h-564z" />
    <glyph glyph-name="Abreve" unicode="&#x102;" horiz-adv-x="1603" 
d="M305 0h-268l635 1434h260l635 -1434h-269l-137 315h-719zM1071 526l-268 617l-268 -617h536zM459 1716l149.001 96c38.667 -73.333 103.667 -109.333 195 -108c88.667 0 152.667 36 192 108l150 -96c-76.667 -120 -190.667 -180 -342 -180
c-152.667 0 -267.334 60 -344.001 180z" />
    <glyph glyph-name="abreve" unicode="&#x103;" horiz-adv-x="1136" 
d="M94 279c0 104 47.6699 188.667 143.003 254s217.666 98 366.999 98c65.333 0 124.666 -6.33301 177.999 -19v68c0 48 -21.667 87 -65 117c-44 30 -100.667 45 -170 45c-114 0 -215.667 -33 -305 -99l-113 140c48 48.667 111.667 87.334 191 116.001s163 43 251 43
c131.333 0 238.666 -32.667 321.999 -98s125 -150 125 -254v-690h-236v131c-82 -100 -194 -149.667 -336 -149c-104 0 -188.667 27.667 -254 83s-98 126.666 -98 213.999zM342.003 303c0 -38 16.999 -69.332 50.999 -93.999c33.333 -24.667 77 -37 131 -37
c76.667 0 139 26 187 78c47.333 52.667 71 119 71 199c-48.667 15.333 -101.667 22.666 -159 21.999c-81.333 0 -148.666 -15.667 -201.999 -47c-52.667 -30.667 -79 -71 -79 -121zM557.002 1194c-151.333 0 -265.332 60 -341.999 180l150 96
c39.333 -74 103.333 -110.667 192 -110c90 0 155 36.667 195 110l149 -96c-76.667 -120 -191.334 -180 -344.001 -180z" />
    <glyph glyph-name="Aogonek" unicode="&#x104;" horiz-adv-x="1603" 
d="M442 315l-136.999 -315h-268l635 1434h260l635 -1434h-56c-14 -14 -25.333 -26 -34 -36c-14.667 -14.667 -32.667 -41 -54 -79c-22.667 -37.333 -34 -70 -34 -98c0 -46.667 22.333 -70 67 -70c28.667 0 54.667 9.66699 78 29l82 -86
c-20.667 -26 -49.334 -47.167 -86.001 -63.5s-73.667 -24.5 -111 -24.5c-54 0 -98.167 17 -132.5 51s-51.5 79 -51.5 135c0 46 11.333 88.667 34 128c23.333 41.333 45.333 70.333 66 87l33 27h-70l-137 315h-719zM1071 526l-268 617l-268 -617h536z" />
    <glyph glyph-name="aogonek" unicode="&#x105;" horiz-adv-x="1136" 
d="M94 279c0 104 47.6719 188.668 143.005 254.001s217.666 98 366.999 98c65.333 0 124.666 -6.33301 177.999 -19v68c0 48 -21.667 87 -65 117c-44 30 -100.667 45 -170 45c-114 0 -215.667 -33 -305 -99l-113 140c48 48.667 111.667 87.334 191 116.001s163 43 251 43
c131.333 0 238.666 -32.667 321.999 -98s125 -150 125 -254v-690h-39c-14 -14 -25.333 -26 -34 -36c-13.333 -14 -31.666 -40.333 -54.999 -79c-22.667 -37.333 -34 -70 -34 -98c0 -46.667 22.667 -70 68 -70c28 0 53.667 9.66699 77 29l82 -86
c-20.667 -26 -49.334 -47.167 -86.001 -63.5s-73.334 -24.5 -110.001 -24.5c-52.667 0 -96.667 16.667 -132 50s-53 78.666 -53 135.999c0 46 11.333 88.667 34 128c23.333 41.333 45.666 70.333 66.999 87l33 27h-54v131c-82 -100 -194 -149.667 -336 -149
c-104 0 -188.667 27.667 -254 83s-98 126.666 -98 213.999zM623.005 471.001c-81.333 0 -148.667 -15.667 -202 -47c-52.667 -30.667 -79 -71 -79 -121c0 -38 17 -69.333 51 -94c33.333 -24.667 77 -37 131 -37c76.667 0 139 26 187 78c47.333 52.667 71 119 71 199
c-44.667 14.667 -97.667 22 -159 22z" />
    <glyph glyph-name="Cacute" unicode="&#x106;" horiz-adv-x="1411" 
d="M1202 348l150.002 -155c-136.667 -140.667 -315 -211 -535 -211c-219.333 0 -396.333 68 -531 204c-136 134.667 -204 311 -204 529s68 395.667 204 533c135.333 136 311.666 204 528.999 204c215.333 0 394.333 -70.333 537 -211l-150 -154
c-37.333 44 -89.333 80 -156 108c-68 28 -138.667 42 -212 42c-142.667 0 -258.334 -48.333 -347.001 -145c-90 -97.333 -135 -222.333 -135 -375c0 -151.333 45 -275.333 135 -372c89.333 -97.333 205 -146 347 -146c73.333 0 144 13.667 212 41
c66.667 26.667 118.667 62.667 156 108zM616.002 1589l297 299l144 -143l-350 -246z" />
    <glyph glyph-name="cacute" unicode="&#x107;" horiz-adv-x="1069" 
d="M879 264l136.999 -137c-94.667 -96.667 -223.667 -145 -387 -145c-164.667 0 -298.667 49 -402 147s-155 225.667 -155 383s51.333 285 154 383c102 98 235.667 147 401 147c160.667 0 290.334 -48.333 389.001 -145l-137 -137c-58.667 54.667 -136.667 82 -234 82
c-94 0 -170.667 -30.667 -230 -92c-59.333 -62.667 -89 -142 -89 -238c0 -96.667 29.667 -175.667 89 -237c59.333 -62 136 -93 230 -93c97.333 0 175.333 27.333 234 82zM427.999 1253l297 299l143 -141l-352 -246z" />
    <glyph glyph-name="Ccircumflex" unicode="&#x108;" horiz-adv-x="1411" 
d="M1202 348l150.002 -155c-136.667 -140.667 -315 -211 -535 -211c-219.333 0 -396.333 68 -531 204c-136 134.667 -204 311 -204 529s68 395.667 204 533c135.333 136 311.666 204 528.999 204c215.333 0 394.333 -70.333 537 -211l-150 -154
c-37.333 44 -89.333 80 -156 108c-68 28 -138.667 42 -212 42c-142.667 0 -258.334 -48.333 -347.001 -145c-90 -97.333 -135 -222.333 -135 -375c0 -151.333 45 -275.333 135 -372c89.333 -97.333 205 -146 347 -146c73.333 0 144 13.667 212 41
c66.667 26.667 118.667 62.667 156 108zM559.002 1511l-115 115l340 240l342 -240l-114 -115l-228 164z" />
    <glyph glyph-name="ccircumflex" unicode="&#x109;" horiz-adv-x="1069" 
d="M879 264l136.999 -137c-94.667 -96.667 -223.667 -145 -387 -145c-164.667 0 -298.667 49 -402 147s-155 225.667 -155 383s51.333 285 154 383c102 98 235.667 147 401 147c160.667 0 290.334 -48.333 389.001 -145l-137 -137c-58.667 54.667 -136.667 82 -234 82
c-94 0 -170.667 -30.667 -230 -92c-59.333 -62.667 -89 -142 -89 -238c0 -96.667 29.667 -175.667 89 -237c59.333 -62 136 -93 230 -93c97.333 0 175.333 27.333 234 82zM370.999 1176l-115 116l340 240l342 -240l-117 -116l-225 163z" />
    <glyph glyph-name="Cdotaccent" unicode="&#x10a;" horiz-adv-x="1411" 
d="M1202 348l150.002 -155c-136.667 -140.667 -315 -211 -535 -211c-219.333 0 -396.333 68 -531 204c-136 134.667 -204 311 -204 529s68 395.667 204 533c135.333 136 311.666 204 528.999 204c215.333 0 394.333 -70.333 537 -211l-150 -154
c-37.333 44 -89.333 80 -156 108c-68 28 -138.667 42 -212 42c-142.667 0 -258.334 -48.333 -347.001 -145c-90 -97.333 -135 -222.333 -135 -375c0 -151.333 45 -275.333 135 -372c89.333 -97.333 205 -146 347 -146c73.333 0 144 13.667 212 41
c66.667 26.667 118.667 62.667 156 108zM903.002 1561h-235v215h235v-215z" />
    <glyph glyph-name="cdotaccent" unicode="&#x10b;" horiz-adv-x="1069" 
d="M879 264l136.999 -137c-94.667 -96.667 -223.667 -145 -387 -145c-164.667 0 -298.667 49 -402 147s-155 225.667 -155 383s51.333 285 154 383c102 98 235.667 147 401 147c160.667 0 290.334 -48.333 389.001 -145l-137 -137c-58.667 54.667 -136.667 82 -234 82
c-94 0 -170.667 -30.667 -230 -92c-59.333 -62.667 -89 -142 -89 -238c0 -96.667 29.667 -175.667 89 -237c59.333 -62 136 -93 230 -93c97.333 0 175.333 27.333 234 82zM714.999 1227h-238v215h238v-215z" />
    <glyph glyph-name="Ccaron" unicode="&#x10c;" horiz-adv-x="1411" 
d="M1202 348l150.002 -155c-136.667 -140.667 -315 -211 -535 -211c-219.333 0 -396.333 68 -531 204c-136 134.667 -204 311 -204 529s68 395.667 204 533c135.333 136 311.666 204 528.999 204c215.333 0 394.333 -70.333 537 -211l-150 -154
c-37.333 44 -89.333 80 -156 108c-68 28 -138.667 42 -212 42c-142.667 0 -258.334 -48.333 -347.001 -145c-90 -97.333 -135 -222.333 -135 -375c0 -151.333 45 -275.333 135 -372c89.333 -97.333 205 -146 347 -146c73.333 0 144 13.667 212 41
c66.667 26.667 118.667 62.667 156 108zM1012 1866l112 -115l-340 -242l-340 242l115 115l225 -164z" />
    <glyph glyph-name="ccaron" unicode="&#x10d;" horiz-adv-x="1069" 
d="M879 264l136.999 -137c-94.667 -96.667 -223.667 -145 -387 -145c-164.667 0 -298.667 49 -402 147s-155 225.667 -155 383s51.333 285 154 383c102 98 235.667 147 401 147c160.667 0 290.334 -48.333 389.001 -145l-137 -137c-58.667 54.667 -136.667 82 -234 82
c-94 0 -170.667 -30.667 -230 -92c-59.333 -62.667 -89 -142 -89 -238c0 -96.667 29.667 -175.667 89 -237c59.333 -62 136 -93 230 -93c97.333 0 175.333 27.333 234 82zM820.999 1532l115 -115l-340 -243l-340 241l115 117l225 -164z" />
    <glyph glyph-name="Dcaron" unicode="&#x10e;" horiz-adv-x="1542" 
d="M723 0h-588v1434h588c218.667 0 397 -67 535 -201c137.333 -134 206 -306 206 -516c0 -210.667 -68.667 -382.667 -206 -516c-138 -134 -316.333 -201 -535 -201zM1069 349c88.667 92.667 133 215.333 133 368c0 152 -44.333 274.667 -133 368
c-89.333 93.333 -204.666 140 -345.999 140h-334v-1016h334c141.333 0 256.666 46.667 345.999 140zM952 1866l115 -115l-340 -242l-340 242l115 115l225 -164z" />
    <glyph glyph-name="dcaron" unicode="&#x10f;" horiz-adv-x="1523" 
d="M508 -18c-130 0 -235 46.333 -315 139c-80.667 92.667 -121 213.334 -121 362.001c0 166.667 50.667 301.667 152 405c100.667 102.667 232 154 394 154c96 0 176 -15.667 240 -47v490h238v-1485h-238v143c-31.333 -48.667 -79.333 -87.334 -144 -116.001
c-65.333 -30 -134 -45 -206 -45zM653 844c-98 0 -177 -32 -237 -96c-60 -65.333 -90 -148.666 -90 -249.999c0 -94.667 25.333 -171.334 76 -230.001c50 -60 114.667 -90 194 -90c76.667 0 139.667 27.667 189 83c48.667 54.667 73 126 73 214v322
c-66.667 31.333 -135 47 -205 47zM1520 1485l-148 -455h-166l76 455h238z" />
    <glyph glyph-name="Dcroat" unicode="&#x110;" horiz-adv-x="1554" 
d="M147 0v643h-143v148h143v643h588c218.667 0 397 -67 535 -201s207 -306 207 -516c0 -211.333 -69 -383.333 -207 -516c-138 -134 -316.333 -201 -535 -201h-588zM717 791v-148.001h-316v-434h334c141.333 0 256.666 46.667 345.999 140
c88.667 92.667 133 215.334 133 368.001c0 152 -44.333 274.667 -133 368c-89.333 93.333 -204.666 140 -345.999 140h-334v-434h316z" />
    <glyph glyph-name="dslash" unicode="&#x111;" horiz-adv-x="1220" 
d="M508 -18c-130 0 -235 46.333 -315 139c-80.667 92.667 -121 213.334 -121 362.001c0 166.667 50.667 301.667 152 405c100.667 102.667 232 154 394 154c96 0 176 -15.667 240 -47v174h-299v148h299v168h238v-168h141v-148h-141v-1169h-238v143
c-31.333 -48.667 -79.333 -87.334 -144 -116.001c-65.333 -30 -134 -45 -206 -45zM653 844c-98 0 -177 -32 -237 -96c-60 -65.333 -90 -148.666 -90 -249.999c0 -94.667 25.333 -171.334 76 -230.001c50 -60 114.667 -90 194 -90c76.667 0 139.667 27.667 189 83
c48.667 54.667 73 126 73 214v322c-66.667 31.333 -135 47 -205 47z" />
    <glyph glyph-name="Emacron" unicode="&#x112;" horiz-adv-x="1294" 
d="M1200 0h-1065v1434h1047v-209h-793v-391h729v-209h-729v-416h811v-209zM383 1571v147h561v-147h-561z" />
    <glyph glyph-name="emacron" unicode="&#x113;" horiz-adv-x="1173" 
d="M1098 430h-776.001c8 -72.667 44.333 -132 109 -178c64.667 -46.667 144.334 -70 239.001 -70c112 0 196.667 26.667 254 80l129 -129c-102 -102 -239.333 -152.333 -412 -151c-169.333 0 -306.333 50.333 -411 151c-105.333 100 -158 230.333 -158 391
c0 152 47.667 276.667 143 374c95.333 96 219 144 371 144c152.667 0 277 -49.333 373 -148c95.333 -99.333 143 -228 143 -386c0 -18 -1.33301 -44 -4 -78zM325.999 606h532.001c-0.666992 70 -24.667 127.667 -72 173c-46.667 44.667 -107.334 67 -182.001 67
c-75.333 0 -138.333 -22.333 -189 -67c-51.333 -45.333 -81 -103 -89 -173zM866 1374v-147h-561v147h561z" />
    <glyph glyph-name="Ebreve" unicode="&#x114;" horiz-adv-x="1294" 
d="M1200 0h-1065v1434h1047v-209h-793v-391h729v-209h-729v-416h811v-209zM319 1716l152 96c39.333 -73.333 103.666 -109.333 192.999 -108c90.667 0 155.334 36 194.001 108l150 -96c-77.333 -120 -192 -180 -344 -180c-153.333 0 -268.333 60 -345 180z" />
    <glyph glyph-name="ebreve" unicode="&#x115;" horiz-adv-x="1173" 
d="M1098 430h-776.001c8 -72.667 44.333 -132 109 -178c64.667 -46.667 144.334 -70 239.001 -70c112 0 196.667 26.667 254 80l129 -129c-102 -102 -239.333 -152.333 -412 -151c-169.333 0 -306.333 50.333 -411 151c-105.333 100 -158 230.333 -158 391
c0 152 47.667 276.667 143 374c95.333 96 219 144 371 144c152.667 0 277 -49.333 373 -148c95.333 -99.333 143 -228 143 -386c0 -18 -1.33301 -44 -4 -78zM325.999 606h532.001c-0.666992 70 -24.667 127.667 -72 173c-46.667 44.667 -107.334 67 -182.001 67
c-75.333 0 -138.333 -22.333 -189 -67c-51.333 -45.333 -81 -103 -89 -173zM242 1374l151.003 96.001c39.333 -74.667 103.666 -111.334 192.999 -110.001c90 0 154.667 36.667 194 110l150 -96c-76.667 -120 -191.334 -180 -344.001 -180s-267.334 60 -344.001 180z" />
    <glyph glyph-name="Edotaccent" unicode="&#x116;" horiz-adv-x="1294" 
d="M1200 0h-1065v1434h1047v-209h-793v-391h729v-209h-729v-416h811v-209zM545 1561v215h237v-215h-237z" />
    <glyph glyph-name="edotaccent" unicode="&#x117;" horiz-adv-x="1173" 
d="M1098 430h-776.001c8 -72.667 44.333 -132 109 -178c64.667 -46.667 144.334 -70 239.001 -70c112 0 196.667 26.667 254 80l129 -129c-102 -102 -239.333 -152.333 -412 -151c-169.333 0 -306.333 50.333 -411 151c-105.333 100 -158 230.333 -158 391
c0 152 47.667 276.667 143 374c95.333 96 219 144 371 144c152.667 0 277 -49.333 373 -148c95.333 -99.333 143 -228 143 -386c0 -18 -1.33301 -44 -4 -78zM325.999 606h532.001c-0.666992 70 -24.667 127.667 -72 173c-46.667 44.667 -107.334 67 -182.001 67
c-75.333 0 -138.333 -22.333 -189 -67c-51.333 -45.333 -81 -103 -89 -173zM705 1219h-238v215h238v-215z" />
    <glyph glyph-name="Eogonek" unicode="&#x118;" horiz-adv-x="1294" 
d="M981 0h-846.001v1434h1047v-209h-793v-391h729v-209h-729v-416h811v-209h-76c-14 -14 -25.333 -26 -34 -36c-13.333 -14 -31.666 -40.333 -54.999 -79c-22.667 -37.333 -34 -70 -34 -98c0 -46.667 22.667 -70 68 -70c28.667 0 54.667 9.66699 78 29l82 -86
c-20.667 -26 -49.5 -47.167 -86.5 -63.5s-73.833 -24.5 -110.5 -24.5c-55.333 0 -99.833 16.833 -133.5 50.5s-50.5 78.834 -50.5 135.501c0 52.667 12.833 99.167 38.5 139.5s52.5 71.166 80.5 92.499z" />
    <glyph glyph-name="eogonek" unicode="&#x119;" horiz-adv-x="1173" 
d="M641 -18c-169.333 0 -306.332 50.334 -410.999 151.001c-105.333 100 -158 230.333 -158 391c0 152 47.667 276.667 143 374c95.333 96 219 144 371 144c152.667 0 277 -49.333 373 -148c95.333 -99.333 143 -228 143 -386c0 -17.333 -1.33301 -43.333 -4 -78h-776
c8 -72.667 44.333 -132 109 -178c64.667 -46.667 144.334 -70 239.001 -70c112 0 196.667 26.667 254 80l129 -129c-28.667 -28.667 -62.334 -54 -101.001 -76c-80.667 -80.667 -121 -150.334 -121 -209.001c0 -46.667 23.333 -69.667 70 -69c26.667 0 52.667 9.33301 78 28
l80 -86c-19.333 -26 -47.333 -47.167 -84 -63.5s-73.667 -24.5 -111 -24.5c-54.667 0 -99 17.167 -133 51.5s-51 79.5 -51 135.5c0 58.667 19.667 114.667 59 168c-32.667 -4 -65.334 -6 -98.001 -6zM326.001 606.001h532.001c-0.666992 70 -24.667 127.667 -72 173
c-46.667 44.667 -107.334 67 -182.001 67c-75.333 0 -138.333 -22.333 -189 -67c-51.333 -45.333 -81 -103 -89 -173z" />
    <glyph glyph-name="Ecaron" unicode="&#x11a;" horiz-adv-x="1294" 
d="M135 0v1434h1047v-209h-793v-391h729v-209h-729v-416h811v-209h-1065zM1004 1751l-340 -242l-342 242l116 115l226 -164l225 164z" />
    <glyph glyph-name="ecaron" unicode="&#x11b;" horiz-adv-x="1173" 
d="M1098 430h-776.001c8 -72.667 44.333 -132 109 -178c64.667 -46.667 144.334 -70 239.001 -70c112 0 196.667 26.667 254 80l129 -129c-102 -102 -239.333 -152.333 -412 -151c-169.333 0 -306.333 50.333 -411 151c-105.333 100 -158 230.333 -158 391
c0 152 47.667 276.667 143 374c95.333 96 219 144 371 144c152.667 0 277 -49.333 373 -148c95.333 -99.333 143 -228 143 -386c0 -18 -1.33301 -44 -4 -78zM325.999 606h532.001c-0.666992 70 -24.667 127.667 -72 173c-46.667 44.667 -107.334 67 -182.001 67
c-75.333 0 -138.333 -22.333 -189 -67c-51.333 -45.333 -81 -103 -89 -173zM811 1524l115 -115l-340 -242l-342 240l116 117l226 -164z" />
    <glyph glyph-name="Gcircumflex" unicode="&#x11c;" horiz-adv-x="1488" 
d="M1130 602l-345.999 0.000976562v209h600v-623c-139.333 -139.333 -321.333 -209 -546 -209c-226.667 1.33301 -409 70 -547 206c-139.333 136 -209 312.667 -209 530c0 218 70 395.667 210 533c140 136 320.667 204 542 204c223.333 0 406.666 -70.333 549.999 -211
l-147 -156c-42 46 -98 82.333 -168 109c-72.667 27.333 -147 41 -223 41c-144.667 0 -263 -48.333 -355 -145c-92.667 -96.667 -139 -221.667 -139 -375c0 -150.667 46.667 -274.334 140 -371.001c92.667 -96.667 212.667 -145 360 -145c106 0 198.667 26.667 278 80v323z
M578.001 1511l-117 115l342 240l342 -240l-117 -115l-225 164z" />
    <glyph glyph-name="gcircumflex" unicode="&#x11d;" horiz-adv-x="1200" 
d="M524 -18c-134.667 0 -243.669 45.667 -327.002 137s-125 209.333 -125 354c0 170 58 307.667 174 413c116 104 268 156 456 156c140 0 264.333 -25.667 373 -77v-955c0 -144 -50.667 -261.667 -152 -353c-101.333 -90.667 -233.666 -136 -396.999 -136
c-169.333 0 -303.666 49.667 -402.999 149l133 133c58.667 -54.667 140.667 -82 246 -82c100 0 181.333 27 244 81s94 123.333 94 208v99c-76.667 -84.667 -182 -127 -316 -127zM665.998 842c-102.667 0 -185 -32.001 -247 -96.001c-62 -65.333 -93 -150 -93 -254
c0 -93.333 24.333 -169.666 73 -228.999c48 -60.667 110.333 -91 187 -91c74 0 135 27.667 183 83c47.333 55.333 71 125.333 71 210v350c-52 18 -110 27 -174 27zM425.998 1169l-115 115l342 240l340 -240l-114 -115l-226 162z" />
    <glyph glyph-name="Gbreve" unicode="&#x11e;" horiz-adv-x="1488" 
d="M1130 602l-345.999 0.000976562v209h600v-623c-139.333 -139.333 -321.333 -209 -546 -209c-226.667 1.33301 -409 70 -547 206c-139.333 136 -209 312.667 -209 530c0 218 70 395.667 210 533c140 136 320.667 204 542 204c223.333 0 406.666 -70.333 549.999 -211
l-147 -156c-42 46 -98 82.333 -168 109c-72.667 27.333 -147 41 -223 41c-144.667 0 -263 -48.333 -355 -145c-92.667 -96.667 -139 -221.667 -139 -375c0 -150.667 46.667 -274.334 140 -371.001c92.667 -96.667 212.667 -145 360 -145c106 0 198.667 26.667 278 80v323z
M459.001 1716l151.003 96c39.333 -73.333 103.666 -109.333 192.999 -108c90 0 154.667 36 194 108l150 -96c-76.667 -120 -191.334 -180 -344.001 -180s-267.334 60 -344.001 180z" />
    <glyph glyph-name="gbreve" unicode="&#x11f;" horiz-adv-x="1200" 
d="M72 473c0 170 57.998 307.667 173.998 413c116 104 268 156 456 156c140 0 264.333 -25.667 373 -77v-955c0 -144 -50.667 -261.667 -152 -353c-101.333 -90.667 -233.666 -136 -396.999 -136c-169.333 0 -303.666 49.667 -402.999 149l133 133
c58.667 -54.667 140.667 -82 246 -82c100 0 181.333 27 244 81s94 123.333 94 208v99c-76.667 -84.667 -182 -127 -316 -127c-134.667 0 -243.667 45.667 -327 137s-125 209.333 -125 354zM665.998 842c-102.667 0 -185 -32.001 -247 -96.001c-62 -65.333 -93 -150 -93 -254
c0 -93.333 24.333 -169.666 73 -228.999c48 -60.667 110.333 -91 187 -91c74 0 135 27.667 183 83c47.333 55.333 71 125.333 71 210v350c-52 18 -110 27 -174 27zM652.998 1194c-152.667 0 -267.333 60.001 -344 180.001l150 96c39.333 -74.667 104 -111.334 194 -110.001
c88.667 0 153 36.667 193 110l149 -96c-76.667 -120 -190.667 -180 -342 -180z" />
    <glyph glyph-name="Gdotaccent" unicode="&#x120;" horiz-adv-x="1488" 
d="M1130 602l-345.999 0.000976562v209h600v-623c-139.333 -139.333 -321.333 -209 -546 -209c-226.667 1.33301 -409 70 -547 206c-139.333 136 -209 312.667 -209 530c0 218 70 395.667 210 533c140 136 320.667 204 542 204c223.333 0 406.666 -70.333 549.999 -211
l-147 -156c-42 46 -98 82.333 -168 109c-72.667 27.333 -147 41 -223 41c-144.667 0 -263 -48.333 -355 -145c-92.667 -96.667 -139 -221.667 -139 -375c0 -150.667 46.667 -274.334 140 -371.001c92.667 -96.667 212.667 -145 360 -145c106 0 198.667 26.667 278 80v323z
M922.001 1561h-238v215h238v-215z" />
    <glyph glyph-name="gdotaccent" unicode="&#x121;" horiz-adv-x="1200" 
d="M524 -18c-134.667 0 -243.669 45.667 -327.002 137s-125 209.333 -125 354c0 170 58 307.667 174 413c116 104 268 156 456 156c140 0 264.333 -25.667 373 -77v-955c0 -144 -50.667 -261.667 -152 -353c-101.333 -90.667 -233.666 -136 -396.999 -136
c-169.333 0 -303.666 49.667 -402.999 149l133 133c58.667 -54.667 140.667 -82 246 -82c100 0 181.333 27 244 81s94 123.333 94 208v99c-76.667 -84.667 -182 -127 -316 -127zM665.998 842c-102.667 0 -185 -32.001 -247 -96.001c-62 -65.333 -93 -150 -93 -254
c0 -93.333 24.333 -169.666 73 -228.999c48 -60.667 110.333 -91 187 -91c74 0 135 27.667 183 83c47.333 55.333 71 125.333 71 210v350c-52 18 -110 27 -174 27zM769.998 1434v-215h-235v215h235z" />
    <glyph glyph-name="uni0122" unicode="&#x122;" horiz-adv-x="1488" 
d="M1130 602l-345.999 0.000976562v209h600v-623c-139.333 -139.333 -321.333 -209 -546 -209c-226.667 1.33301 -409 70 -547 206c-139.333 136 -209 312.667 -209 530c0 218 70 395.667 210 533c140 136 320.667 204 542 204c223.333 0 406.666 -70.333 549.999 -211
l-147 -156c-42 46 -98 82.333 -168 109c-72.667 27.333 -147 41 -223 41c-144.667 0 -263 -48.333 -355 -145c-92.667 -96.667 -139 -221.667 -139 -375c0 -150.667 46.667 -274.334 140 -371.001c92.667 -96.667 212.667 -145 360 -145c106 0 198.667 26.667 278 80v323z
M805.001 -407.999h-131l55 332h201z" />
    <glyph glyph-name="uni0123" unicode="&#x123;" horiz-adv-x="1200" 
d="M524 -18c-134.667 0 -243.669 45.667 -327.002 137s-125 209.333 -125 354c0 170 58 307.667 174 413c116 104 268 156 456 156c140 0 264.333 -25.667 373 -77v-955c0 -144 -50.667 -261.667 -152 -353c-101.333 -90.667 -233.666 -136 -396.999 -136
c-169.333 0 -303.666 49.667 -402.999 149l133 133c58.667 -54.667 140.667 -82 246 -82c100 0 181.333 27 244 81s94 123.333 94 208v99c-76.667 -84.667 -182 -127 -316 -127zM665.998 842c-102.667 0 -185 -32.001 -247 -96.001c-62 -65.333 -93 -150 -93 -254
c0 -93.333 24.333 -169.666 73 -228.999c48 -60.667 110.333 -91 187 -91c74 0 135 27.667 183 83c47.333 55.333 71 125.333 71 210v350c-52 18 -110 27 -174 27zM708.998 1165h-203l127 334h131z" />
    <glyph glyph-name="Hcircumflex" unicode="&#x124;" horiz-adv-x="1570" 
d="M389 0h-254v1434h254v-603h793v603h254v-1434h-254v623h-793v-623zM561 1511l-117 115l342 240l342 -240l-116 -115l-226 164z" />
    <glyph glyph-name="hcircumflex" unicode="&#x125;" horiz-adv-x="1218" 
d="M125 0l0.000976562 1485h235v-604c85.333 108 198.666 161.667 339.999 161c120 0 217.333 -37 292 -111c74.667 -74.667 112 -171.334 112 -290.001v-641h-238v594c0 75.333 -21.667 136.666 -65 183.999c-44 46.667 -101.333 70 -172 70
c-78 0 -142.333 -29.333 -193 -88s-76 -133 -76 -223v-537h-235zM244.001 1690l-226 -162l-116 114l342 240l340 -240l-115 -114z" />
    <glyph glyph-name="Hbar" unicode="&#x126;" horiz-adv-x="1570" 
d="M135 0v1030h-131v148h131v256h254v-256h793v256h254v-256h131v-148h-131v-1030h-254v623h-793v-623h-254zM1182 831v199h-793v-199h793z" />
    <glyph glyph-name="hbar" unicode="&#x127;" horiz-adv-x="1218" 
d="M360 1485l0.000976562 -167.998h302v-148h-302v-288c85.333 108 198.666 161.667 339.999 161c120 0 217.333 -37 292 -111c74.667 -74.667 112 -171.334 112 -290.001v-641h-238v594c0 75.333 -21.667 136.666 -65 183.999c-44 46.667 -101.333 70 -172 70
c-78 0 -142.333 -29.333 -193 -88s-76 -133 -76 -223v-537h-235v1169h-141v148h141v168h235z" />
    <glyph glyph-name="Itilde" unicode="&#x128;" horiz-adv-x="524" 
d="M389 1434v-1434h-254v1434h254zM147 1632c-47.333 0 -70.3311 -26.667 -68.998 -80h-168c0 74 22.667 133.667 68 179c45.333 44.667 104.666 67 177.999 67c34 0.666992 66 -6.66602 96 -21.999s55.333 -30.5 76 -45.5s37.667 -21.833 51 -20.5
c20.667 0 36.667 7.16699 48 21.5s17 33.833 17 58.5h168c0 -73.333 -22.333 -132.666 -67 -177.999c-44.667 -46.667 -102.667 -70 -174 -70c-26.667 -0.666992 -52.334 3.66602 -77.001 12.999s-44.5 20 -59.5 32s-30.5 22.667 -46.5 32s-29.667 13.666 -41 12.999z" />
    <glyph glyph-name="itilde" unicode="&#x129;" horiz-adv-x="485" 
d="M360 1024v-1024h-235v1024h235zM127 1292c-20.667 0 -37.168 -7.16895 -49.501 -21.502s-18.5 -33.833 -18.5 -58.5h-168c0 74.667 23 134.334 69 179.001c45.333 44.667 104.333 67 177 67c26.667 0.666992 52.5 -3.66602 77.5 -12.999s45 -19.833 60 -31.5
s30.333 -22 46 -31s28.834 -13.167 39.501 -12.5c19.333 0 35.166 7.5 47.499 22.5s18.5 34.167 18.5 57.5h166c0 -73.333 -22.333 -132.333 -67 -177c-44.667 -46 -103 -69 -175 -69c-48.667 0 -93.667 14.667 -135 44s-70.666 44 -87.999 44z" />
    <glyph glyph-name="Imacron" unicode="&#x12a;" horiz-adv-x="524" 
d="M389 1434v-1434h-254v1434h254zM543 1718v-147h-561v147h561z" />
    <glyph glyph-name="imacron" unicode="&#x12b;" horiz-adv-x="485" 
d="M360 1024v-1024h-235v1024h235zM524 1374v-147h-563v147h563z" />
    <glyph glyph-name="Ibreve" unicode="&#x12c;" horiz-adv-x="524" 
d="M389 1434v-1434h-254v1434h254zM-82 1716l152.001 96c38.667 -73.333 102.667 -109.333 192 -108c90 0 155 36 195 108l149 -96c-77.333 -120 -192 -180 -344 -180c-152.667 0 -267.334 60 -344.001 180z" />
    <glyph glyph-name="ibreve" unicode="&#x12d;" horiz-adv-x="485" 
d="M360 1024v-1024h-235v1024h235zM-100 1374l149.001 96c39.333 -74 104.333 -110.667 195 -110c88.667 0 152.667 36.667 192 110l150 -96c-77.333 -120 -191.333 -180 -342 -180c-152.667 0 -267.334 60 -344.001 180z" />
    <glyph glyph-name="Iogonek" unicode="&#x12e;" horiz-adv-x="524" 
d="M66 -242c0 52 12.834 98.166 38.501 138.499s52.167 71.5 79.5 93.5l15 10h-64v1434h254v-1434h-47c-14 -14 -25.333 -26 -34 -36c-13.333 -14 -31.666 -40.333 -54.999 -79c-22.667 -37.333 -34 -70 -34 -98c0 -46.667 22.667 -70 68 -70c28.667 0 54.667 9.66699 78 29
l81 -86c-20.667 -26 -49.334 -47.167 -86.001 -63.5s-73.334 -24.5 -110.001 -24.5c-55.333 0 -99.833 16.833 -133.5 50.5s-50.5 78.834 -50.5 135.501z" />
    <glyph glyph-name="iogonek" unicode="&#x12f;" horiz-adv-x="485" 
d="M45 -242c0 28 4.50098 55.332 13.501 81.999s20.667 50 35 70s27 36 38 48s21.833 22.667 32.5 32l14 10h-53v1024h235v-1024h-38l-35 -36c-14.667 -14.667 -32.667 -41 -54 -79c-22.667 -37.333 -34 -70 -34 -98c0 -46.667 22.333 -70 67 -70
c28.667 0 54.667 9.66699 78 29l82 -86c-20.667 -26 -49.334 -47.167 -86.001 -63.5s-73.667 -24.5 -111 -24.5c-55.333 0 -99.833 16.833 -133.5 50.5s-50.5 78.834 -50.5 135.501zM360.001 1434v-215h-235v215h235z" />
    <glyph glyph-name="Idot" unicode="&#x130;" horiz-adv-x="524" 
d="M389 1434v-1434h-254v1434h254zM381 1561h-238v215h238v-215z" />
    <glyph glyph-name="dotlessi" unicode="&#x131;" horiz-adv-x="485" 
d="M360 1024v-1024h-235v1024h235z" />
    <glyph glyph-name="IJ" unicode="&#x132;" horiz-adv-x="1630" 
d="M971 -18c-163.333 0 -297.333 50.334 -402 151.001l144 164c56 -65.333 137.667 -98 245 -98c86 0 156.333 27.333 211 82c54.667 54 82 125 82 213v940h254v-940c0 -154.667 -49.333 -278.334 -148 -371.001c-99.333 -94 -228 -141 -386 -141zM387 0.000976562h-254
v1434h254v-1434z" />
    <glyph glyph-name="ij" unicode="&#x133;" horiz-adv-x="999" 
d="M244 -371l121.001 140.001c30 -30 72.333 -45 127 -45c44 0 79.5 16.333 106.5 49s40.5 75.667 40.5 129v1122h235v-1130c0 -110.667 -33.333 -200.334 -100 -269.001c-66.667 -68 -154.667 -102 -264 -102c-106.667 0 -195.334 35.333 -266.001 106z
M125.001 0.000976562v1024h235v-1024h-235zM874.001 1219h-235v215h235v-215zM360.001 1219h-235v215h235v-215z" />
    <glyph glyph-name="Jcircumflex" unicode="&#x134;" horiz-adv-x="1105" 
d="M727 494l0.000976562 940.001h254v-940c0 -154.667 -49.333 -278.334 -148 -371.001c-99.333 -94 -228.333 -141 -387 -141c-162.667 0 -296.334 50.333 -401.001 151l143 164c56 -65.333 138 -98 246 -98c86 0 156.333 27.333 211 82s82 125.667 82 213zM629.001 1511
l-115 115l340 240l342 -240l-115 -115l-227 164z" />
    <glyph glyph-name="jcircumflex" unicode="&#x135;" horiz-adv-x="514" 
d="M-244 -371l121.001 140.001c32.667 -30 75 -45 127 -45c44 0 80 16.333 108 49s42 75.667 42 129v1122h235v-1130c0 -110.667 -33.333 -200.334 -100 -269.001c-67.333 -68 -155.333 -102 -264 -102s-198.334 35.333 -269.001 106zM45.001 1169l-115 115l340 240
l342 -240l-114 -115l-228 162z" />
    <glyph glyph-name="uni0136" unicode="&#x136;" horiz-adv-x="1419" 
d="M135 0v1434h254v-629l610 629h326l-569 -584l614 -850h-285l-495 680l-201 -207v-473h-254zM838 -76l-127 -332h-129l53 332h203z" />
    <glyph glyph-name="uni0137" unicode="&#x137;" horiz-adv-x="1134" 
d="M125 0v1485h235v-887l394 426h282l-372 -401l432 -623h-256l-324 467l-156 -166v-301h-235zM698 -76l-127 -332h-129l54 332h202z" />
    <glyph glyph-name="Lacute" unicode="&#x139;" horiz-adv-x="1210" 
d="M1161 0h-1026v1434h254v-1225h772v-209zM94 1589l297 299l144 -143l-353 -246z" />
    <glyph glyph-name="lacute" unicode="&#x13a;" horiz-adv-x="606" 
d="M524 215l109 -141c-59.333 -61.333 -133 -92 -221 -92c-85.333 0 -154.333 26.333 -207 79c-53.333 52 -80 119.667 -80 203v1221h235v-1204c0 -28.667 8.66699 -52 26 -70s40.333 -27 69 -27c25.333 0 48.333 10.333 69 31zM76 1604l297 299l143 -142l-350 -245z" />
    <glyph glyph-name="uni013B" unicode="&#x13b;" horiz-adv-x="1210" 
d="M1161 0h-1026v1434h254v-1225h772v-209zM633 -408h-129l53 332h203z" />
    <glyph glyph-name="uni013C" unicode="&#x13c;" horiz-adv-x="606" 
d="M524 215l109 -141c-59.333 -61.333 -133 -92 -221 -92c-85.333 0 -154.333 26.333 -207 79c-53.333 52 -80 119.667 -80 203v1221h235v-1204c0 -28.667 8.66699 -52 26 -70s40.333 -27 69 -27c25.333 0 48.333 10.333 69 31zM352 -408h-129l53 332h203z" />
    <glyph glyph-name="Lcaron" unicode="&#x13d;" horiz-adv-x="1212" 
d="M1161 0h-1026v1434h254v-1225h772v-209zM885 1030h-164l74 455h237z" />
    <glyph glyph-name="lcaron" unicode="&#x13e;" horiz-adv-x="821" 
d="M125 264v1221h235v-1204c0 -28.667 8.66699 -52 26 -70s40.333 -27 69 -27c26 0 49 10.333 69 31l109 -141c-59.333 -61.333 -133 -92 -221 -92c-85.333 0 -154.333 26.333 -207 79c-53.333 52 -80 119.667 -80 203zM815 1485l-147 -455h-164l76 455h235z" />
    <glyph glyph-name="Ldot" unicode="&#x13f;" horiz-adv-x="1212" 
d="M1161 0h-1026v1434h254v-1225h772v-209zM981 590h-238v254h238v-254z" />
    <glyph glyph-name="ldot" unicode="&#x140;" horiz-adv-x="901" 
d="M524 215l109 -141c-59.333 -61.333 -133 -92 -221 -92c-85.333 0 -154.333 26.333 -207 79c-53.333 52 -80 119.667 -80 203v1221h235v-1204c0 -28.667 8.66699 -52 26 -70s40.333 -27 69 -27c25.333 0 48.333 10.333 69 31zM809 590h-238v254h238v-254z" />
    <glyph glyph-name="Lslash" unicode="&#x141;" horiz-adv-x="1239" 
d="M164 578l-119 -70l-74 127l193 110v689h254v-541l170 98l74 -127l-244 -141v-514h772v-209h-1026v578z" />
    <glyph glyph-name="lslash" unicode="&#x142;" horiz-adv-x="643" 
d="M164 618l-119 -69l-74 127l193 112v697h235v-561l148 86l74 -127l-222 -129v-473c-2 -28 6.66699 -51.5 26 -70.5s41.5 -28 66.5 -27s48.833 11.5 71.5 31.5l109 -141c-59.333 -61.333 -133.666 -92 -222.999 -92c-84.667 0 -153.334 26.333 -206.001 79
c-52.667 52 -79 119.667 -79 203v354z" />
    <glyph glyph-name="Nacute" unicode="&#x143;" horiz-adv-x="1556" 
d="M381 1038v-1038h-246v1434h244l797 -1028v1028h245v-1434h-243zM700 1499l-90 90l297 299l144 -143z" />
    <glyph glyph-name="nacute" unicode="&#x144;" horiz-adv-x="1218" 
d="M125 0l0.000976562 1024h235v-143c85.333 108 198.666 161.667 339.999 161c120 0 217.333 -37 292 -111c74.667 -74.667 112 -171.334 112 -290.001v-641h-238v594c0 75.333 -21.667 136.666 -65 183.999c-44 46.667 -101.333 70 -172 70
c-78 0 -142.333 -29.333 -193 -88s-76 -133 -76 -223v-537h-235zM555.001 1157l-88 88l297 299l143 -141z" />
    <glyph glyph-name="uni0145" unicode="&#x145;" horiz-adv-x="1556" 
d="M381 1038v-1038h-246v1434h244l797 -1028v1028h245v-1434h-243zM758 -408h-129l53 332h203z" />
    <glyph glyph-name="uni0146" unicode="&#x146;" horiz-adv-x="1218" 
d="M125 0l0.000976562 1024h235v-143c85.333 108 198.666 161.667 339.999 161c120 0 217.333 -37 292 -111c74.667 -74.667 112 -171.334 112 -290.001v-641h-238v594c0 75.333 -21.667 136.666 -65 183.999c-44 46.667 -101.333 70 -172 70
c-78 0 -142.333 -29.333 -193 -88s-76 -133 -76 -223v-537h-235zM600.001 -407.998h-131l55 332h201z" />
    <glyph glyph-name="Ncaron" unicode="&#x147;" horiz-adv-x="1556" 
d="M135 0v1434h244l797 -1028v1028h245v-1434h-243l-797 1038v-1038h-246zM778 1509l-340 242l115 115l225 -164l226 164l114 -115z" />
    <glyph glyph-name="ncaron" unicode="&#x148;" horiz-adv-x="1218" 
d="M360 0l-234.999 0.00195312v1024h235v-143c85.333 108 198.666 161.667 339.999 161c120 0 217.333 -37 292 -111c74.667 -74.667 112 -171.334 112 -290.001v-641h-238v594c0 75.333 -21.667 136.666 -65 183.999c-44 46.667 -101.333 70 -172 70
c-78 0 -142.333 -29.333 -193 -88s-76 -133 -76 -223v-537zM635.001 1167l-342 240l117 117l225 -164l225 164l115 -115z" />
    <glyph glyph-name="Eng" unicode="&#x14a;" horiz-adv-x="1556" 
d="M381 1038l0.00195312 -1038h-246v1434h244l797 -1028v1028h245v-1485c0 -131.333 -40 -235.666 -120 -312.999c-80.667 -76.667 -187.334 -115 -320.001 -115c-137.333 0 -249.333 42.333 -336 127l148 159c39.333 -47.333 96.666 -70.333 171.999 -69
c63.333 0 114.333 19.333 153 58s58 89.667 58 153v53z" />
    <glyph glyph-name="eng" unicode="&#x14b;" horiz-adv-x="1218" 
d="M360 0l-234.998 0.00195312v1024h235v-143c85.333 108 198.666 161.667 339.999 161c120 0 217.333 -37 292 -111c74.667 -74.667 112 -171.334 112 -290.001v-747c0 -110 -33.667 -199.667 -101 -269c-68 -68 -155.667 -102 -263 -102
c-108.667 0 -198.334 35.333 -269.001 106l121 140c30 -30 72.333 -45 127 -45c44 0 79.5 16.333 106.5 49s40.5 75.667 40.5 129v692c0 75.333 -21.667 136.666 -65 183.999c-44 46.667 -101.333 70 -172 70c-78 0 -142.333 -29.333 -193 -88s-76 -133 -76 -223v-537z" />
    <glyph glyph-name="Omacron" unicode="&#x14c;" horiz-adv-x="1654" 
d="M289 187c-138 136 -206.999 312.667 -206.999 530c0 216.667 69 393.334 207 530.001c137.333 136.667 316 205 536 205c221.333 0 401.333 -68.333 540 -205s208 -313.334 208 -530.001c0 -217.333 -69.333 -394 -208 -530c-138.667 -136.667 -318.667 -205 -540 -205
c-220.667 0 -399.334 68.333 -536.001 205zM486.001 1089c-89.333 -98.667 -134.001 -222.665 -134.001 -371.998c0 -150 45 -273.667 135 -371c88.667 -98 201.334 -147 338.001 -147c140.667 0 255 48.333 343 145c88 97.333 132 221.666 132 372.999
s-44 275.666 -132 372.999c-88 96.667 -202.333 145 -343 145c-136.667 0 -249.667 -48.667 -339 -146zM1108 1718v-147h-563v147h563z" />
    <glyph glyph-name="omacron" unicode="&#x14d;" horiz-adv-x="1245" 
d="M226 129c-102.667 98 -154 225.667 -154 383s51.333 285 154 383c102 98 234.333 147 397 147c162 0 294.667 -49 398 -147s155 -225.667 155 -383s-51.667 -285 -155 -383s-236 -147 -398 -147c-162.667 0 -295 49 -397 147zM326 512
c0 -96.667 27.668 -175.667 83.001 -237c55.333 -62 126.666 -93 213.999 -93c88.667 0 160.667 31 216 93c55.333 61.333 83 140.333 83 237c0 98 -27.667 177.667 -83 239c-54.667 60.667 -126.667 91 -216 91c-88 0 -159.333 -30.333 -214 -91
c-55.333 -61.333 -83 -141 -83 -239zM905.001 1374v-147h-563v147h563z" />
    <glyph glyph-name="Obreve" unicode="&#x14e;" horiz-adv-x="1654" 
d="M289 187c-138 136 -206.999 312.667 -206.999 530c0 216.667 69 393.334 207 530.001c137.333 136.667 316 205 536 205c221.333 0 401.333 -68.333 540 -205s208 -313.334 208 -530.001c0 -217.333 -69.333 -394 -208 -530c-138.667 -136.667 -318.667 -205 -540 -205
c-220.667 0 -399.334 68.333 -536.001 205zM486.001 1089c-89.333 -98.667 -134.001 -222.665 -134.001 -371.998c0 -150 45 -273.667 135 -371c88.667 -98 201.334 -147 338.001 -147c140.667 0 255 48.333 343 145c88 97.333 132 221.666 132 372.999
s-44 275.666 -132 372.999c-88 96.667 -202.333 145 -343 145c-136.667 0 -249.667 -48.667 -339 -146zM483 1716l150.001 96c39.333 -73.333 103.333 -109.333 192 -108c90 0 155 36 195 108l149 -96c-76.667 -120 -191.334 -180 -344.001 -180
c-151.333 0 -265.333 60 -342 180z" />
    <glyph glyph-name="obreve" unicode="&#x14f;" horiz-adv-x="1245" 
d="M226 129c-102.667 98 -154 225.667 -154 383s51.333 285 154 383c102 98 234.333 147 397 147c162 0 294.667 -49 398 -147s155 -225.667 155 -383s-51.667 -285 -155 -383s-236 -147 -398 -147c-162.667 0 -295 49 -397 147zM326 512
c0 -96.667 27.668 -175.667 83.001 -237c55.333 -62 126.666 -93 213.999 -93c88.667 0 160.667 31 216 93c55.333 61.333 83 140.333 83 237c0 98 -27.667 177.667 -83 239c-54.667 60.667 -126.667 91 -216 91c-88 0 -159.333 -30.333 -214 -91
c-55.333 -61.333 -83 -141 -83 -239zM281.001 1374l149.002 96.001c39.333 -74.667 103.666 -111.334 192.999 -110.001c90 0 154.667 36.667 194 110l150 -96c-76.667 -120 -191.334 -180 -344.001 -180c-151.333 0 -265.333 60 -342 180z" />
    <glyph glyph-name="Ohungarumlaut" unicode="&#x150;" horiz-adv-x="1654" 
d="M289 187c-138 136 -206.999 312.667 -206.999 530c0 216.667 69 393.334 207 530.001c137.333 136.667 316 205 536 205c221.333 0 401.333 -68.333 540 -205s208 -313.334 208 -530.001c0 -217.333 -69.333 -394 -208 -530c-138.667 -136.667 -318.667 -205 -540 -205
c-220.667 0 -399.334 68.333 -536.001 205zM486.001 1089c-89.333 -98.667 -134.001 -222.665 -134.001 -371.998c0 -150 45 -273.667 135 -371c88.667 -98 201.334 -147 338.001 -147c140.667 0 255 48.333 343 145c88 97.333 132 221.666 132 372.999
s-44 275.666 -132 372.999c-88 96.667 -202.333 145 -343 145c-136.667 0 -249.667 -48.667 -339 -146zM463 1589l297 299l143 -143l-352 -246zM852 1589l297 299l141 -143l-350 -246z" />
    <glyph glyph-name="ohungarumlaut" unicode="&#x151;" horiz-adv-x="1245" 
d="M226 129c-102.667 98 -154 225.667 -154 383s51.333 285 154 383c102 98 234.333 147 397 147c162 0 294.667 -49 398 -147s155 -225.667 155 -383s-51.667 -285 -155 -383s-236 -147 -398 -147c-162.667 0 -295 49 -397 147zM326 512
c0 -96.667 27.668 -175.667 83.001 -237c55.333 -62 126.666 -93 213.999 -93c88.667 0 160.667 31 216 93c55.333 61.333 83 140.333 83 237c0 98 -27.667 177.667 -83 239c-54.667 60.667 -126.667 91 -216 91c-88 0 -159.333 -30.333 -214 -91
c-55.333 -61.333 -83 -141 -83 -239zM260.001 1245l297 299l143 -141l-352 -246zM647.001 1245l299 299l141 -141l-350 -246z" />
    <glyph glyph-name="OE" unicode="&#x152;" horiz-adv-x="2463" 
d="M825 -18c-220.667 0 -399.333 68.332 -536 204.999c-138 136 -207 312.667 -207 530c0 216.667 69 393.334 207 530.001c137.333 136.667 316 205 536 205c190.667 0 350.667 -57.333 480 -172v154h1046v-209h-792v-391h729v-209h-729v-416h813v-209h-1067v154
c-129.333 -114.667 -289.333 -172 -480 -172zM486.001 1089c-89.333 -98.667 -134.001 -222.665 -134.001 -371.998c0 -150 45 -273.667 135 -371c88.667 -98 201.334 -147 338.001 -147c140.667 0 255 48.333 343 145c88 97.333 132 221.666 132 372.999
s-44 275.666 -132 372.999c-88 96.667 -202.333 145 -343 145c-136.667 0 -249.667 -48.667 -339 -146z" />
    <glyph glyph-name="oe" unicode="&#x153;" horiz-adv-x="2023" 
d="M623 -18c-162.667 0 -295 49 -397 147c-102.667 98 -154 225.667 -154 383s51.333 285 154 383c102 98 234.333 147 397 147c181.333 0 321 -60.667 419 -182c91.333 121.333 222.666 182 393.999 182c152.667 0 277 -49.333 373 -148c95.333 -99.333 143 -228 143 -386
c0 -17.333 -1.33301 -43.333 -4 -78h-777c8 -72.667 44.667 -132 110 -178c64.667 -46.667 144.334 -70 239.001 -70c110 0 195.333 26.667 256 80l127 -129c-102 -102 -239.333 -152.333 -412 -151c-191.333 0 -338 64 -440 192c-98 -128 -240.667 -192 -428 -192zM326 512
c0 -96.667 27.668 -175.667 83.001 -237c55.333 -62 126.666 -93 213.999 -93c88.667 0 160.667 31 216 93c55.333 61.333 83 140.333 83 237c0 98 -27.667 177.667 -83 239c-54.667 60.667 -126.667 91 -216 91c-88 0 -159.333 -30.333 -214 -91
c-55.333 -61.333 -83 -141 -83 -239zM1454 846c-74.667 0 -137.666 -22 -188.999 -66c-51.333 -45.333 -81 -103.333 -89 -174h532c-0.666992 70 -24.667 127.667 -72 173c-46.667 44.667 -107.334 67 -182.001 67z" />
    <glyph glyph-name="Racute" unicode="&#x154;" horiz-adv-x="1400" 
d="M389 549v-548.999h-254v1434h690c132.667 0 241 -41 325 -123s126 -188 126 -318c0 -96.667 -24.333 -181.334 -73 -254.001c-50 -74 -115.667 -126.333 -197 -157l344 -582h-275l-325 549h-361zM799 1225l-409.999 -0.000976562v-465h410c65.333 0 119 22 161 66
c41.333 43.333 62 100 62 170c0 68.667 -20.667 124.334 -62 167.001c-42.667 41.333 -96.334 62 -161.001 62zM569.001 1499l-88 90l297 299l144 -143z" />
    <glyph glyph-name="racute" unicode="&#x155;" horiz-adv-x="759" 
d="M360 500v-500h-235v1024h235v-219c38 76 89.333 134.833 154 176.5s137 62.5 217 62.5v-227c-108.667 0 -197.667 -29.667 -267 -89s-104 -135.333 -104 -228zM702 1403l-350 -246l-90 88l297 299z" />
    <glyph glyph-name="uni0156" unicode="&#x156;" horiz-adv-x="1400" 
d="M389 549v-548.999h-254v1434h690c132.667 0 241 -41 325 -123s126 -188 126 -318c0 -96.667 -24.333 -181.334 -73 -254.001c-50 -74 -115.667 -126.333 -197 -157l344 -582h-275l-325 549h-361zM799 1225l-409.999 -0.000976562v-465h410c65.333 0 119 22 161 66
c41.333 43.333 62 100 62 170c0 68.667 -20.667 124.334 -62 167.001c-42.667 41.333 -96.334 62 -161.001 62zM829.001 -76l-127 -332h-129l54 332h202z" />
    <glyph glyph-name="uni0157" unicode="&#x157;" horiz-adv-x="759" 
d="M360 500v-500h-235v1024h235v-219c38 76 89.333 134.833 154 176.5s137 62.5 217 62.5v-227c-108.667 0 -197.667 -29.667 -267 -89s-104 -135.333 -104 -228zM223 -408h-129l53 332h203z" />
    <glyph glyph-name="Rcaron" unicode="&#x158;" horiz-adv-x="1400" 
d="M135 0v1434h690c132.667 0 241 -41 325 -123s126 -188 126 -318c0 -96.667 -24.333 -181.334 -73 -254.001c-50 -74 -115.667 -126.333 -197 -157l344 -582h-275l-325 549h-361v-549h-254zM799 1225l-409.999 -0.000976562v-465h410c65.333 0 119 22 161 66
c41.333 43.333 62 100 62 170c0 68.667 -20.667 124.334 -62 167.001c-42.667 41.333 -96.334 62 -161.001 62zM989.001 1751l-340 -242l-342 242l117 115l225 -164l225 164z" />
    <glyph glyph-name="rcaron" unicode="&#x159;" horiz-adv-x="759" 
d="M360 500v-500h-235v1024h235v-219c38 76 89.333 134.833 154 176.5s137 62.5 217 62.5v-227c-108.667 0 -197.667 -29.667 -267 -89s-104 -135.333 -104 -228zM430 1167l-340 240l115 117l225 -164l225 164l115 -115z" />
    <glyph glyph-name="Sacute" unicode="&#x15a;" horiz-adv-x="1230" 
d="M1147 399c0 -120 -49.3359 -219.331 -148.003 -297.998c-99.333 -79.333 -227 -119 -383 -119c-102 0 -200.667 17.333 -296 52c-96.667 35.333 -176 82 -238 140l127 164c44.667 -40.667 101.667 -74 171 -100c68.667 -26 140 -39 214 -39
c86.667 0 158.667 17.667 216 53c56.667 34.667 85 79 85 133c0 46 -22.333 84.333 -67 115c-45.333 31.333 -120.666 64 -225.999 98c-172.667 56 -298.667 118.667 -378 188c-78.667 68.667 -118 154.667 -118 258c0 118.667 46 216.334 138 293.001
c90.667 76.667 208.667 115 354 115c93.333 0 186 -16.667 278 -50c90.667 -33.333 164.667 -77.333 222 -132l-125 -166c-36.667 37.333 -86.667 68.666 -150 93.999c-63.333 24.667 -128.666 37 -195.999 37c-80 0 -144.667 -16.333 -194 -49
c-50 -33.333 -75 -77 -75 -131c0 -46.667 23 -86 69 -118c46.667 -32.667 123.334 -66.334 230.001 -101.001c170 -56.667 294.333 -119.334 373 -188.001c78 -68 117 -151 117 -249zM437.997 1589l297 299l144 -143l-351 -246z" />
    <glyph glyph-name="sacute" unicode="&#x15b;" horiz-adv-x="960" 
d="M889 299c0 -96.667 -38.998 -173.669 -116.998 -231.002c-78.667 -57.333 -182.334 -86 -311.001 -86c-154.667 0 -287.334 48.333 -398.001 145l121 137c71.333 -57.333 162.333 -86 273 -86c62 0 111.667 9.66699 149 29s56 45.333 56 78c0 17.333 -4.5 32 -13.5 44
s-25.5 23.333 -49.5 34c-17.333 8 -35.666 15.333 -54.999 22c-3.33301 1.33301 -8.5 3 -15.5 5l-30 9l-35.5 11c-14 4.66699 -23 7.33398 -27 8.00098c-43.333 12 -76 22.333 -98 31c-25.333 8.66699 -55 22.334 -89 41.001c-33.333 17.333 -60 36.333 -80 57
c-48.667 50 -73 112 -73 186c0 96 36 171.333 108 226c71.333 55.333 168 83 290 83c148.667 0 270 -45 364 -135l-121 -139c-60 52 -137.667 78 -233 78c-56 0 -100.333 -8.83301 -133 -26.5s-49 -41.5 -49 -71.5c0 -21.333 11.667 -41.666 35 -60.999
s45.666 -32.333 66.999 -39l36 -12c24.667 -8 46 -14.667 64 -20c32.667 -8.66699 69 -19.334 109 -32.001c28.667 -10 60.667 -24 96 -42c35.333 -18.667 63.333 -37.667 84 -57c50.667 -49.333 76 -111.333 76 -186zM317.002 1245l297 299l142 -141l-350 -246z" />
    <glyph glyph-name="Scircumflex" unicode="&#x15c;" horiz-adv-x="1230" 
d="M1147 399c0 -120 -49.3359 -219.331 -148.003 -297.998c-99.333 -79.333 -227 -119 -383 -119c-102 0 -200.667 17.333 -296 52c-96.667 35.333 -176 82 -238 140l127 164c44.667 -40.667 101.667 -74 171 -100c68.667 -26 140 -39 214 -39
c86.667 0 158.667 17.667 216 53c56.667 34.667 85 79 85 133c0 46 -22.333 84.333 -67 115c-45.333 31.333 -120.666 64 -225.999 98c-172.667 56 -298.667 118.667 -378 188c-78.667 68.667 -118 154.667 -118 258c0 118.667 46 216.334 138 293.001
c90.667 76.667 208.667 115 354 115c93.333 0 186 -16.667 278 -50c90.667 -33.333 164.667 -77.333 222 -132l-125 -166c-36.667 37.333 -86.667 68.666 -150 93.999c-63.333 24.667 -128.666 37 -195.999 37c-80 0 -144.667 -16.333 -194 -49
c-50 -33.333 -75 -77 -75 -131c0 -46.667 23 -86 69 -118c46.667 -32.667 123.334 -66.334 230.001 -101.001c170 -56.667 294.333 -119.334 373 -188.001c78 -68 117 -151 117 -249zM380.997 1511l-115 115l340 240l342 -240l-114 -115l-228 164z" />
    <glyph glyph-name="scircumflex" unicode="&#x15d;" horiz-adv-x="960" 
d="M889 299c0 -96.667 -38.998 -173.669 -116.998 -231.002c-78.667 -57.333 -182.334 -86 -311.001 -86c-154.667 0 -287.334 48.333 -398.001 145l121 137c71.333 -57.333 162.333 -86 273 -86c62 0 111.667 9.66699 149 29s56 45.333 56 78c0 17.333 -4.5 32 -13.5 44
s-25.5 23.333 -49.5 34c-17.333 8 -35.666 15.333 -54.999 22c-3.33301 1.33301 -8.5 3 -15.5 5l-30 9l-35.5 11c-14 4.66699 -23 7.33398 -27 8.00098c-43.333 12 -76 22.333 -98 31c-25.333 8.66699 -55 22.334 -89 41.001c-33.333 17.333 -60 36.333 -80 57
c-48.667 50 -73 112 -73 186c0 96 36 171.333 108 226c71.333 55.333 168 83 290 83c148.667 0 270 -45 364 -135l-121 -139c-60 52 -137.667 78 -233 78c-56 0 -100.333 -8.83301 -133 -26.5s-49 -41.5 -49 -71.5c0 -21.333 11.667 -41.666 35 -60.999
s45.666 -32.333 66.999 -39l36 -12c24.667 -8 46 -14.667 64 -20c32.667 -8.66699 69 -19.334 109 -32.001c28.667 -10 60.667 -24 96 -42c35.333 -18.667 63.333 -37.667 84 -57c50.667 -49.333 76 -111.333 76 -186zM260.002 1169l-117 115l342 240l340 -240l-114 -115
l-226 162z" />
    <glyph glyph-name="Scedilla" unicode="&#x15e;" horiz-adv-x="1230" 
d="M535 -195l17.998 179.002c-91.333 7.33301 -178 27.666 -260 60.999c-84 34.667 -154.333 77.667 -211 129l127 164c44.667 -40.667 101.667 -74 171 -100c68.667 -26 140 -39 214 -39c86.667 0 158.667 17.667 216 53c56.667 34.667 85 79 85 133
c0 46 -22.333 84.333 -67 115c-45.333 31.333 -120.666 64 -225.999 98c-172.667 56 -298.667 118.667 -378 188c-78.667 68.667 -118 154.667 -118 258c0 118.667 46 216.334 138 293.001c90.667 76.667 208.667 115 354 115c93.333 0 186 -16.667 278 -50
c90.667 -33.333 164.667 -77.333 222 -132l-125 -166c-36.667 37.333 -86.667 68.666 -150 93.999c-63.333 24.667 -128.666 37 -195.999 37c-80 0 -144.667 -16.333 -194 -49c-50 -33.333 -75 -77 -75 -131c0 -46.667 23 -86 69 -118
c46.667 -32.667 123.334 -66.334 230.001 -101.001c169.333 -56.667 293.666 -119 372.999 -187c78 -68 117 -151.333 117 -250c0 -111.333 -43.333 -205.333 -130 -282c-86.667 -77.333 -199.667 -121.666 -339 -132.999l-10 -90
c41.333 -6.66699 75.166 -25.667 101.499 -57s39.5 -68.333 39.5 -111c0 -46.667 -18 -84.667 -54 -114c-37.333 -29.333 -83.666 -44 -138.999 -44c-42 0 -82.5 8.16699 -121.5 24.5s-68.5 37.5 -88.5 63.5l77 84c31.333 -31.333 67 -47 107 -47
c21.333 0 39.333 4.66699 54 14s22 21.666 22 36.999c0 18 -12 32.667 -36 44s-55.667 17 -95 17z" />
    <glyph glyph-name="scedilla" unicode="&#x15f;" horiz-adv-x="960" 
d="M63 127l120.999 137c71.333 -57.333 162.333 -86 273 -86c62 0 111.667 9.66699 149 29s56 45.333 56 78c0 17.333 -4.5 32 -13.5 44s-25.5 23.333 -49.5 34c-17.333 8 -35.666 15.333 -54.999 22c-3.33301 1.33301 -8.5 3 -15.5 5l-30 9l-35.5 11
c-14 4.66699 -23 7.33398 -27 8.00098c-43.333 12 -76 22.333 -98 31c-25.333 8.66699 -55 22.334 -89 41.001c-33.333 17.333 -60 36.333 -80 57c-48.667 50 -73 112 -73 186c0 96 36 171.333 108 226c71.333 55.333 168 83 290 83c148.667 0 270 -45 364 -135l-121 -139
c-60 52 -137.667 78 -233 78c-56 0 -100.333 -8.83301 -133 -26.5s-49 -41.5 -49 -71.5c0 -21.333 11.667 -41.666 35 -60.999s45.666 -32.333 66.999 -39l36 -12c24.667 -8 46 -14.667 64 -20c32.667 -8.66699 69 -19.334 109 -32.001c28.667 -10 60.667 -24 96 -42
c35.333 -18.667 63.333 -37.667 84 -57c50.667 -49.333 76 -111.333 76 -186c0 -86 -31 -156.667 -93 -212c-63.333 -55.333 -147.666 -89 -252.999 -101l-11 -92c42 -6.66699 76.167 -25.834 102.5 -57.501s39.5 -68.5 39.5 -110.5c0 -46.667 -18 -84.667 -54 -114
c-37.333 -29.333 -83.666 -44 -138.999 -44c-93.333 0 -164.333 29.333 -213 88l80 84c31.333 -31.333 67 -47 107 -47c21.333 0 39.166 4.66699 53.499 14s21.5 21.666 21.5 36.999c0 18 -12.167 32.667 -36.5 44s-56.5 17 -96.5 17l19 179
c-135.333 7.33301 -253 55 -353 143z" />
    <glyph glyph-name="Scaron" unicode="&#x160;" horiz-adv-x="1230" 
d="M1147 399c0 -120 -49.3359 -219.331 -148.003 -297.998c-99.333 -79.333 -227 -119 -383 -119c-102 0 -200.667 17.333 -296 52c-96.667 35.333 -176 82 -238 140l127 164c44.667 -40.667 101.667 -74 171 -100c68.667 -26 140 -39 214 -39
c86.667 0 158.667 17.667 216 53c56.667 34.667 85 79 85 133c0 46 -22.333 84.333 -67 115c-45.333 31.333 -120.666 64 -225.999 98c-172.667 56 -298.667 118.667 -378 188c-78.667 68.667 -118 154.667 -118 258c0 118.667 46 216.334 138 293.001
c90.667 76.667 208.667 115 354 115c93.333 0 186 -16.667 278 -50c90.667 -33.333 164.667 -77.333 222 -132l-125 -166c-36.667 37.333 -86.667 68.666 -150 93.999c-63.333 24.667 -128.666 37 -195.999 37c-80 0 -144.667 -16.333 -194 -49
c-50 -33.333 -75 -77 -75 -131c0 -46.667 23 -86 69 -118c46.667 -32.667 123.334 -66.334 230.001 -101.001c170 -56.667 294.333 -119.334 373 -188.001c78 -68 117 -151 117 -249zM833.997 1866l112 -115l-340 -242l-340 242l115 115l225 -164z" />
    <glyph glyph-name="scaron" unicode="&#x161;" horiz-adv-x="960" 
d="M889 299c0 -96.667 -38.998 -173.669 -116.998 -231.002c-78.667 -57.333 -182.334 -86 -311.001 -86c-154.667 0 -287.334 48.333 -398.001 145l121 137c71.333 -57.333 162.333 -86 273 -86c62 0 111.667 9.66699 149 29s56 45.333 56 78c0 17.333 -4.5 32 -13.5 44
s-25.5 23.333 -49.5 34c-17.333 8 -35.666 15.333 -54.999 22c-3.33301 1.33301 -8.5 3 -15.5 5l-30 9l-35.5 11c-14 4.66699 -23 7.33398 -27 8.00098c-43.333 12 -76 22.333 -98 31c-25.333 8.66699 -55 22.334 -89 41.001c-33.333 17.333 -60 36.333 -80 57
c-48.667 50 -73 112 -73 186c0 96 36 171.333 108 226c71.333 55.333 168 83 290 83c148.667 0 270 -45 364 -135l-121 -139c-60 52 -137.667 78 -233 78c-56 0 -100.333 -8.83301 -133 -26.5s-49 -41.5 -49 -71.5c0 -21.333 11.667 -41.666 35 -60.999
s45.666 -32.333 66.999 -39l36 -12c24.667 -8 46 -14.667 64 -20c32.667 -8.66699 69 -19.334 109 -32.001c28.667 -10 60.667 -24 96 -42c35.333 -18.667 63.333 -37.667 84 -57c50.667 -49.333 76 -111.333 76 -186zM711.002 1524l112 -115l-338 -242l-342 240l117 117
l225 -164z" />
    <glyph glyph-name="uni0162" unicode="&#x162;" horiz-adv-x="1359" 
d="M39 1225v209h1282v-209h-514v-1225h-254v1225h-514zM786 -76l-127 -332h-129l54 332h202z" />
    <glyph glyph-name="uni0163" unicode="&#x163;" horiz-adv-x="874" 
d="M217 842h-187.999v182h188v184l236 92v-276h321v-182h-321v-518c0 -40.667 12.5 -74.167 37.5 -100.5s57.5 -39.5 97.5 -39.5c50.667 0 91 16.333 121 49l116 -116c-60.667 -90 -153.334 -135 -278.001 -135c-95.333 0 -174 29 -236 87c-62.667 58 -94 132.667 -94 224
v549zM604.001 -76l-127 -332h-129l53 332h203z" />
    <glyph glyph-name="Tcaron" unicode="&#x164;" horiz-adv-x="1359" 
d="M553 1225h-514v209h1282v-209h-514v-1225h-254v1225zM680 1509l-342 242l117 115l225 -164l225 164l115 -115z" />
    <glyph glyph-name="tcaron" unicode="&#x165;" horiz-adv-x="874" 
d="M217 842h-187.999v182h188v184l236 92v-276h321v-182h-321v-518c0 -40.667 12.5 -74.167 37.5 -100.5s57.5 -39.5 97.5 -39.5c50.667 0 91 16.333 121 49l116 -116c-60.667 -90 -153.334 -135 -278.001 -135c-95.333 0 -174 29 -236 87c-62.667 58 -94 132.667 -94 224
v549zM879.001 1485l-129 -361h-166l57 361h238z" />
    <glyph glyph-name="Tbar" unicode="&#x166;" horiz-adv-x="1359" 
d="M39 1225v209h1282v-209h-514v-447h254v-147h-254v-631h-254v631h-254v147h254v447h-514z" />
    <glyph glyph-name="tbar" unicode="&#x167;" horiz-adv-x="874" 
d="M453 1300l0.000976562 -276h321v-182h-321v-191h274v-147h-274v-180c0 -40.667 12.5 -74.167 37.5 -100.5s57.5 -39.5 97.5 -39.5c50.667 0 91 16.333 121 49l116 -116c-60.667 -90 -153.334 -135 -278.001 -135c-95.333 0 -174 29 -236 87
c-62.667 58 -94 132.667 -94 224v211h-168v147h168v191h-188v182h188v184z" />
    <glyph glyph-name="Utilde" unicode="&#x168;" horiz-adv-x="1525" 
d="M1225 152c-117.333 -113.333 -271 -170 -461 -170c-189.333 0 -343.333 56.667 -462 170c-118 113.333 -177 264.666 -177 453.999v828h254v-828c0 -124.667 35.667 -223.667 107 -297s164 -110 278 -110s206.667 36.667 278 110c70 72.667 105 171.667 105 297v828h254
v-828c0 -189.333 -58.667 -340.666 -176 -453.999zM580 1552l-168.001 -0.00292969c0 74.667 23 134.334 69 179.001c44.667 44.667 103.334 67 176.001 67c26.667 0.666992 52.5 -3.66602 77.5 -12.999s45 -19.833 60 -31.5s30.5 -22 46.5 -31s29.333 -13.167 40 -12.5
c19.333 0 35 7.5 47 22.5s18 34.167 18 57.5h166c0 -73.333 -22.333 -132.666 -67 -177.999c-44.667 -46.667 -103 -70 -175 -70c-49.333 0 -94.333 15 -135 45s-70 45 -88 45c-20.667 0 -37 -7.16699 -49 -21.5s-18 -33.833 -18 -58.5z" />
    <glyph glyph-name="utilde" unicode="&#x169;" horiz-adv-x="1222" 
d="M125 383v641h235v-594c0 -74.667 22 -135.667 66 -183s101.333 -71 172 -71c76.667 0 140 29.333 190 88c49.333 59.333 74 133.666 74 222.999v537h236v-1024h-236v145c-83.333 -109.333 -196 -163.666 -338 -162.999c-119.333 0 -215.333 37.333 -288 112
c-74 74 -111 170.333 -111 289zM428 1212l-168.001 -0.000976562c0 74.667 23 134.334 69 179.001c44.667 44.667 103.667 67 177 67c50 0 95.333 -14.667 136 -44s69 -44 85 -44c20.667 0 37.167 7.5 49.5 22.5s18.5 34.167 18.5 57.5h166
c0 -72.667 -22.667 -131.667 -68 -177c-44.667 -46 -102.667 -69 -174 -69c-48.667 0 -93.667 14.667 -135 44s-70.666 44 -87.999 44c-20.667 0 -37.167 -7.16699 -49.5 -21.5s-18.5 -33.833 -18.5 -58.5z" />
    <glyph glyph-name="Umacron" unicode="&#x16a;" horiz-adv-x="1525" 
d="M1225 152c-117.333 -113.333 -271 -170 -461 -170c-189.333 0 -343.333 56.667 -462 170c-118 113.333 -177 264.666 -177 453.999v828h254v-828c0 -124.667 35.667 -223.667 107 -297s164 -110 278 -110s206.667 36.667 278 110c70 72.667 105 171.667 105 297v828h254
v-828c0 -189.333 -58.667 -340.666 -176 -453.999zM1044 1571h-563v147h563v-147z" />
    <glyph glyph-name="umacron" unicode="&#x16b;" horiz-adv-x="1222" 
d="M125 383v641h235v-594c0 -74.667 22 -135.667 66 -183s101.333 -71 172 -71c76.667 0 140 29.333 190 88c49.333 59.333 74 133.666 74 222.999v537h236v-1024h-236v145c-83.333 -109.333 -196 -163.666 -338 -162.999c-119.333 0 -215.333 37.333 -288 112
c-74 74 -111 170.333 -111 289zM330 1227v147h563v-147h-563z" />
    <glyph glyph-name="Ubreve" unicode="&#x16c;" horiz-adv-x="1525" 
d="M125 606v828h254v-828c0 -124.667 35.667 -223.667 107 -297s164 -110 278 -110s206.667 36.667 278 110c70 72.667 105 171.667 105 297v828h254v-828c0 -189.333 -58.667 -340.666 -176 -453.999s-271 -170 -461 -170c-189.333 0 -343.333 56.667 -462 170
c-118 113.333 -177 264.666 -177 453.999zM420 1716l149 96c39.333 -73.333 104.333 -109.333 195 -108c89.333 0 153.333 36 192 108l150 -96c-77.333 -120 -191.333 -180 -342 -180c-152 0 -266.667 60 -344 180z" />
    <glyph glyph-name="ubreve" unicode="&#x16d;" horiz-adv-x="1222" 
d="M125 383v641h235v-594c0 -74.667 22 -135.667 66 -183s101.333 -71 172 -71c76.667 0 140 29.333 190 88c49.333 59.333 74 133.666 74 222.999v537h236v-1024h-236v145c-83.333 -109.333 -196 -163.666 -338 -162.999c-119.333 0 -215.333 37.333 -288 112
c-74 74 -111 170.333 -111 289zM612 1194c-152 0 -266.667 60.001 -344 180.001l150 96c39.333 -74.667 104 -111.334 194 -110.001c88.667 0 153 36.667 193 110l149 -96c-77.333 -120 -191.333 -180 -342 -180z" />
    <glyph glyph-name="Uring" unicode="&#x16e;" horiz-adv-x="1525" 
d="M125 606v828h254v-828c0 -124.667 35.667 -223.667 107 -297s164 -110 278 -110s206.667 36.667 278 110c70 72.667 105 171.667 105 297v828h254v-828c0 -189.333 -58.667 -340.666 -176 -453.999s-271 -170 -461 -170c-189.333 0 -343.333 56.667 -462 170
c-118 113.333 -177 264.666 -177 453.999zM631 1563c-34 34 -51 78.333 -51 133s17 99 51 133s78.333 51 133 51s99.334 -17 134.001 -51s52 -78.333 52 -133s-17.333 -99 -52 -133c-34.667 -34.667 -79.334 -52 -134.001 -52s-99 17.333 -133 52zM764 1767
c-22 0 -39.5 -6.33301 -52.5 -19s-19.5 -30 -19.5 -52s6.5 -39.5 19.5 -52.5s30.5 -19.5 52.5 -19.5c20 0 36.167 6.5 48.5 19.5s18.5 30.5 18.5 52.5s-6.16699 39.333 -18.5 52s-28.5 19 -48.5 19z" />
    <glyph glyph-name="uring" unicode="&#x16f;" horiz-adv-x="1222" 
d="M125 383v641h235v-594c0 -74.667 22 -135.667 66 -183s101.333 -71 172 -71c76.667 0 140 29.333 190 88c49.333 59.333 74 133.666 74 222.999v537h236v-1024h-236v145c-83.333 -109.333 -196 -163.666 -338 -162.999c-119.333 0 -215.333 37.333 -288 112
c-74 74 -111 170.333 -111 289zM610 1169c-54 0 -97.833 17.167 -131.5 51.5s-50.5 78.833 -50.5 133.5s16.667 99 50 133s77.333 51 132 51s99.667 -17 135 -51c34.667 -34 52 -78.333 52 -133s-17 -99 -51 -133c-34.667 -34.667 -80 -52 -136 -52zM541 1354
c0 -22 6.5 -39.499 19.5 -52.499s30.167 -19.5 51.5 -19.5c20 0 36.333 6.5 49 19.5s19 30.5 19 52.5c0 20 -6.33301 36.5 -19 49.5s-29 19.5 -49 19.5c-22 0 -39.333 -6.33301 -52 -19s-19 -29.334 -19 -50.001z" />
    <glyph glyph-name="Uhungarumlaut" unicode="&#x170;" horiz-adv-x="1525" 
d="M1225 152c-117.333 -113.333 -271 -170 -461 -170c-189.333 0 -343.333 56.667 -462 170c-118 113.333 -177 264.666 -177 453.999v828h254v-828c0 -124.667 35.667 -223.667 107 -297s164 -110 278 -110s206.667 36.667 278 110c70 72.667 105 171.667 105 297v828h254
v-828c0 -189.333 -58.667 -340.666 -176 -453.999zM1229 1745l-352 -246l-89 90l297 299zM840 1745l-351 -246l-90 90l299 299z" />
    <glyph glyph-name="uhungarumlaut" unicode="&#x171;" horiz-adv-x="1222" 
d="M125 383v641h235v-594c0 -74.667 22 -135.667 66 -183s101.333 -71 172 -71c76.667 0 140 29.333 190 88c49.333 59.333 74 133.666 74 222.999v537h236v-1024h-236v145c-83.333 -109.333 -196 -163.666 -338 -162.999c-119.333 0 -215.333 37.333 -288 112
c-74 74 -111 170.333 -111 289zM338 1157l-90 88l297 299l143 -141zM725 1157l-88 88l297 299l141 -141z" />
    <glyph glyph-name="Uogonek" unicode="&#x172;" horiz-adv-x="1525" 
d="M125 606v827.997h254v-828c0 -124.667 35.667 -223.667 107 -297s164 -110 278 -110s206.667 36.667 278 110c70 72.667 105 171.667 105 297v828h254v-828c0 -160.667 -42.667 -294.667 -128 -402s-201 -176 -347 -206c-82 -82 -123 -152.333 -123 -211
c0 -46.667 23 -70 69 -70c25.333 0 51.333 9.66699 78 29l80 -86c-20.667 -26 -49 -47.167 -85 -63.5s-73 -24.5 -111 -24.5c-54 0 -98 16.833 -132 50.5s-51 78.834 -51 135.501c0 84.667 36.333 159.334 109 224.001c-188.667 0.666992 -342 58 -460 172
c-116.667 112.667 -175 263.334 -175 452.001z" />
    <glyph glyph-name="uogonek" unicode="&#x173;" horiz-adv-x="1222" 
d="M125 383l0.00195312 641h235v-594c0 -74.667 22 -135.667 66 -183s101.333 -71 172 -71c76.667 0 140 29.333 190 88c49.333 59.333 74 133.666 74 222.999v537h236v-1024h-39c-14 -14 -25.333 -26 -34 -36c-13.333 -14 -31.666 -40.333 -54.999 -79
c-22.667 -37.333 -34 -70 -34 -98c0 -46.667 22.667 -70 68 -70c26 0 51.667 9.66699 77 29l82 -86c-20.667 -26 -49.334 -47.167 -86.001 -63.5s-73.334 -24.5 -110.001 -24.5c-55.333 0 -100 16.833 -134 50.5s-51 78.834 -51 135.501c0 36.667 8.16699 72.5 24.5 107.5
s32.166 61.167 47.499 78.5s31 32.666 47 45.999l14 10h-53v145c-83.333 -109.333 -196 -163.666 -338 -162.999c-119.333 0 -215.333 37.333 -288 112c-74 74 -111 170.333 -111 289z" />
    <glyph glyph-name="Wcircumflex" unicode="&#x174;" horiz-adv-x="2256" 
d="M772 0h-264l-471 1434h258l342 -1098l364 1098h254l361 -1098l344 1098h258l-471 -1434h-264l-355 1094zM1128 1675l-225 -164l-117 115l342 240l342 -240l-116 -115z" />
    <glyph glyph-name="wcircumflex" unicode="&#x175;" horiz-adv-x="1658" 
d="M375 0l-348 1024h231l236 -725l229 725h213l227 -725l238 725h231l-352 -1024h-219l-232 700l-233 -700h-221zM829 1331l-225 -162l-117 115l342 240l342 -240l-116 -115z" />
    <glyph glyph-name="Ycircumflex" unicode="&#x176;" horiz-adv-x="1435" 
d="M590 0v539l-553 895h278l402 -660l403 660h277l-553 -895v-539h-254zM719 1675l-225 -164l-117 115l342 240l340 -240l-115 -115z" />
    <glyph glyph-name="ycircumflex" unicode="&#x177;" horiz-adv-x="1157" 
d="M27 -387l117.999 143c27.333 -23.333 60.333 -35 99 -35c72.667 0 134 56 184 168l51 111l-452 1024h243l318 -758l301 758h241l-505 -1212c-83.333 -194 -203.666 -291 -360.999 -291c-90.667 0 -169.667 30.667 -237 92zM579.999 1331l-226 -162l-116 115l342 240
l340 -240l-115 -115z" />
    <glyph glyph-name="Ydieresis" unicode="&#x178;" horiz-adv-x="1435" 
d="M590 0v539l-553 895h278l402 -660l403 660h277l-553 -895v-539h-254zM825 1563v213h228v-213h-228zM612 1563h-227v213h227v-213z" />
    <glyph glyph-name="Zacute" unicode="&#x179;" horiz-adv-x="1349" 
d="M903 1225h-811v209h1168v-127l-826 -1098h840v-209h-1196v129zM504 1589l297 299l143 -143l-350 -246z" />
    <glyph glyph-name="zacute" unicode="&#x17a;" horiz-adv-x="1032" 
d="M629 842h-541v182h875v-113l-553 -729h563v-182h-895v113zM356 1245l299 299l142 -141l-351 -246z" />
    <glyph glyph-name="Zdotaccent" unicode="&#x17b;" horiz-adv-x="1349" 
d="M903 1225h-811v209h1168v-127l-826 -1098h840v-209h-1196v129zM791 1561h-236v215h236v-215z" />
    <glyph glyph-name="zdotaccent" unicode="&#x17c;" horiz-adv-x="1032" 
d="M629 842h-541v182h875v-113l-553 -729h563v-182h-895v113zM643 1219h-235v215h235v-215z" />
    <glyph glyph-name="Zcaron" unicode="&#x17d;" horiz-adv-x="1349" 
d="M903 1225h-811v209h1168v-127l-826 -1098h840v-209h-1196v129zM899 1866l113 -115l-340 -242l-340 242l114 115l226 -164z" />
    <glyph glyph-name="zcaron" unicode="&#x17e;" horiz-adv-x="1032" 
d="M629 842h-541v182h875v-113l-553 -729h563v-182h-895v113zM752 1524l112 -115l-338 -242l-342 240l115 117l227 -164z" />
    <glyph glyph-name="uni018F" unicode="&#x18f;" horiz-adv-x="1617" 
d="M1330 187c-136.667 -136.667 -312.331 -205.001 -526.998 -205.001s-388.334 68.333 -521.001 205c-133.333 136.667 -200 313.334 -200 530.001c0 32.667 2 64.667 6 96h1167c-19.333 125.333 -74.333 227 -165 305s-202 117 -334 117
c-78.667 0 -153.334 -13.667 -224.001 -41c-69.333 -26 -123 -62.333 -161 -109l-148 156c136.667 140.667 319.667 211 549 211c226 0 409.667 -68.333 551 -205c142 -136.667 213 -314 213 -532c0 -216 -68.667 -392 -206 -528zM799.003 198.999
c116.667 0 216.333 37.333 299 112c83.333 74 135 171.667 155 293h-888c10.667 -120 56 -217.333 136 -292c80.667 -75.333 180 -113 298 -113z" />
    <glyph glyph-name="florin" unicode="&#x192;" horiz-adv-x="839" 
d="M-334 -371l145.999 140c26 -30 65.333 -45 118 -45c44 0 82.667 16.333 116 49s55 75.667 65 129l147 837h-188l32 183h189l37 211c18.667 108.667 68.334 197.667 149.001 267c78.667 68.667 171.667 103 279 103c110 0 194.667 -39.667 254 -119l-146 -141
c-30.667 38 -71.667 57 -123 57c-42 0 -79.667 -14.667 -113 -44s-54.333 -66.333 -63 -111l-39 -223h314l-33 -183h-313l-148 -845c-18.667 -110 -67.667 -199.667 -147 -269c-78.667 -68 -173 -102 -283 -102s-193.333 35.333 -250 106z" />
    <glyph glyph-name="uni01DD" unicode="&#x1dd;" horiz-adv-x="1173" 
d="M76 594h776.001c-8 72.667 -44.333 132.334 -109 179.001c-65.333 46 -145 69 -239 69c-112 0 -196.667 -26.667 -254 -80l-129 129c101.333 101.333 238.333 151.666 411 150.999c169.333 0 306.666 -50 411.999 -150c105.333 -101.333 158 -232 158 -392
c0 -150.667 -47.667 -274.667 -143 -372c-96 -97.333 -219.667 -146 -371 -146c-152.667 0 -276.667 49.667 -372 149c-96 98.667 -144 227 -144 385c0 18 1.33301 44 4 78zM848.001 418h-533c0.666992 -70 25 -127.667 73 -173c46.667 -44.667 107 -67 181 -67
c76 0 139.333 22.333 190 67c51.333 45.333 81 103 89 173z" />
    <glyph glyph-name="Aringacute" unicode="&#x1fa;" horiz-adv-x="1605" 
d="M442 315l-137.001 -315h-268l620 1401c-26 34 -39 74.333 -39 121c0 54.667 17.333 99 52 133c34 34 78.333 51 133 51c32.667 0 61.334 -6 86.001 -18l246 247l143 -143l-299 -209c6.66699 -20 10 -40.333 10 -61c0 -49.333 -14.333 -90.333 -43 -123l621 -1399h-269
l-137 315h-719zM1071 526l-268 617l-268 -617h536zM730.999 1522c0 -22 6.5 -39.499 19.5 -52.499s30.5 -19.5 52.5 -19.5c20 0 36.167 6.5 48.5 19.5s18.5 30.5 18.5 52.5c0 20 -6.5 36.5 -19.5 49.5s-28.833 19.5 -47.5 19.5c-22 0 -39.5 -6.33301 -52.5 -19
s-19.5 -29.334 -19.5 -50.001z" />
    <glyph glyph-name="aringacute" unicode="&#x1fb;" horiz-adv-x="1136" 
d="M446 -18c-104 0 -188.664 27.667 -253.997 83s-98 126.666 -98 213.999c0 104 47.667 188.667 143 254s217.666 98 366.999 98c65.333 0 124.666 -6.33301 177.999 -19v68c0 48 -21.667 87 -65 117c-44 30 -100.667 45 -170 45c-114 0 -215.667 -33 -305 -99l-113 140
c48 48.667 111.667 87.334 191 116.001s163 43 251 43c131.333 0 238.666 -32.667 321.999 -98s125 -150 125 -254v-690h-236v131c-82 -99.333 -194 -149 -336 -149zM557.003 1169c-54.667 0 -99 17.333 -133 52c-34 34 -51 78.333 -51 133s17 99 51 133s78.333 51 133 51
c24.667 0 48.667 -4 72 -12l241 243l144 -141l-285 -198c9.33301 -22 14 -47.333 14 -76c0 -54.667 -17 -99.167 -51 -133.5s-79 -51.5 -135 -51.5zM623.003 471c-81.333 0 -148.667 -15.667 -202 -47c-52.667 -30.667 -79 -71 -79 -121c0 -38 17 -69.333 51 -94
c33.333 -24.667 77 -37 131 -37c76.667 0 139 26 187 78c47.333 52.667 71 119 71 199c-44.667 14.667 -97.667 22 -159 22zM608.002 1404c-15.333 12 -32.333 18.3311 -51 18.998s-35.5 -5.66602 -50.5 -18.999s-21.5 -30 -19.5 -50c0 -22 6.5 -39.5 19.5 -52.5
s29.833 -19.5 50.5 -19.5s37.5 6.5 50.5 19.5s19.5 30.5 19.5 52.5c0 20.667 -6.33301 37.334 -19 50.001z" />
    <glyph glyph-name="AEacute" unicode="&#x1fc;" horiz-adv-x="2064" 
d="M485 315l-174 -315h-274l790 1434h1125v-209h-727v-391h665v-209h-665v-416h747v-209h-1001v315h-486zM971 526v672l-371 -672h371zM1133 1499l-89 90l297 299l142 -143z" />
    <glyph glyph-name="aeacute" unicode="&#x1fd;" horiz-adv-x="1867" 
d="M92 279c0 104 47.667 188.666 143 253.999s217.666 98 366.999 98c67.333 0 126.666 -6.33301 177.999 -19v68c0 48 -21.667 87 -65 117c-44 30 -100 45 -168 45c-115.333 0 -217.666 -33 -306.999 -99l-113 140c48.667 48.667 113 87.334 193 116.001
c79.333 28.667 163 43 251 43c158 0 276.333 -46.333 355 -139c88.667 92.667 206.667 139 354 139c152.667 0 277 -49.333 373 -148c95.333 -99.333 143 -228 143 -386c0 -17.333 -1.33301 -43.333 -4 -78h-776c8 -72.667 44.667 -132 110 -178
c64.667 -46.667 144 -70 238 -70c112 0 196.667 26.667 254 80l129 -129c-104.667 -101.333 -242 -151.666 -412 -150.999c-195.333 0 -342.666 66 -441.999 198c-103.333 -133.333 -252.333 -199.333 -447 -198c-103.333 0 -188.333 27.667 -255 83
c-66 55.333 -99 126.666 -99 213.999zM623 470.999c-82.667 0 -150.333 -15.667 -203 -47c-52 -30.667 -78 -71 -78 -121c0 -38 17 -69.333 51 -94c33.333 -24.667 77 -37 131 -37c75.333 0 137 26 185 78c47.333 52.667 71 119 71 199c-44.667 14.667 -97 22 -157 22z
M1020 605.999h532.001c-0.666992 70 -24.667 127.667 -72 173c-46.667 44.667 -107.334 67 -182.001 67c-75.333 0 -138.333 -22.333 -189 -67c-51.333 -45.333 -81 -103 -89 -173zM848.002 1157l-88 88l297 299l141 -141z" />
    <glyph glyph-name="Oslashacute" unicode="&#x1fe;" horiz-adv-x="1654" 
d="M82 717c0 216.667 69 393.667 207 531c138 136 316.667 204 536 204c164.667 0 307.334 -39 428.001 -117l136 162l110 -94l-133 -158c138 -135.333 207 -311.333 207 -528c0 -217.333 -69.333 -394 -208 -530c-138.667 -136.667 -318.667 -205 -540 -205
c-160.667 0 -301.334 38 -422.001 114l-133 -157l-112 94l129 153c-136.667 138.667 -205 315.667 -205 531zM455 385l643.001 766.001c-78.667 56 -169.667 84 -273 84c-136.667 0 -249.667 -48.667 -339 -146c-89.333 -98.667 -134 -222.667 -134 -372
c1.33301 -130.667 35.666 -241.334 102.999 -332.001zM1202 1049l-643 -765.999c78 -56 166.667 -84 266 -84c140.667 0 255 48.333 343 145c88 97.333 132 221.666 132 372.999c0 130 -32.667 240.667 -98 332zM748.001 1499l-89 90l297 299l144 -143z" />
    <glyph glyph-name="oslashacute" unicode="&#x1ff;" horiz-adv-x="1245" 
d="M72 512c0 157.333 51.333 285.001 154 383.001c102 98 234.333 147 397 147c109.333 0 206 -23 290 -69l84 100l113 -94l-80 -94c96 -96 144.667 -220.333 146 -373c0 -157.333 -51.667 -285 -155 -383s-236 -147 -398 -147c-108.667 0 -205.667 23 -291 69l-82 -98
l-113 94l78 92c-95.333 99.333 -143 223.666 -143 372.999zM365 317.001l413 494c-47.333 27.333 -99 41 -155 41c-90 0 -163.667 -31.667 -221 -95c-58 -63.333 -87 -145 -87 -245c1.33301 -72 18 -137 50 -195zM881 707.001l-414 -494c47.333 -27.333 99.333 -41 156 -41
c90 0 163.667 31.667 221 95s86 145 86 245c0 73.333 -16.333 138.333 -49 195zM545 1157l-90 88l297 299l143 -141z" />
    <glyph glyph-name="uni0218" unicode="&#x218;" horiz-adv-x="1230" 
d="M1147 399c0 -120 -49.3359 -219.331 -148.003 -297.998c-99.333 -79.333 -227 -119 -383 -119c-102 0 -200.667 17.333 -296 52c-96.667 35.333 -176 82 -238 140l127 164c44.667 -40.667 101.667 -74 171 -100c68.667 -26 140 -39 214 -39
c86.667 0 158.667 17.667 216 53c56.667 34.667 85 79 85 133c0 46 -22.333 84.333 -67 115c-45.333 31.333 -120.666 64 -225.999 98c-172.667 56 -298.667 118.667 -378 188c-78.667 68.667 -118 154.667 -118 258c0 118.667 46 216.334 138 293.001
c90.667 76.667 208.667 115 354 115c93.333 0 186 -16.667 278 -50c90.667 -33.333 164.667 -77.333 222 -132l-125 -166c-36.667 37.333 -86.667 68.666 -150 93.999c-63.333 24.667 -128.666 37 -195.999 37c-80 0 -144.667 -16.333 -194 -49
c-50 -33.333 -75 -77 -75 -131c0 -46.667 23 -86 69 -118c46.667 -32.667 123.334 -66.334 230.001 -101.001c170 -56.667 294.333 -119.334 373 -188.001c78 -68 117 -151 117 -249zM595.997 -407.998h-129l53 332h203z" />
    <glyph glyph-name="uni0219" unicode="&#x219;" horiz-adv-x="960" 
d="M889 299c0 -96.667 -38.998 -173.669 -116.998 -231.002c-78.667 -57.333 -182.334 -86 -311.001 -86c-154.667 0 -287.334 48.333 -398.001 145l121 137c71.333 -57.333 162.333 -86 273 -86c62 0 111.667 9.66699 149 29s56 45.333 56 78c0 17.333 -4.5 32 -13.5 44
s-25.5 23.333 -49.5 34c-17.333 8 -35.666 15.333 -54.999 22c-3.33301 1.33301 -8.5 3 -15.5 5l-30 9l-35.5 11c-14 4.66699 -23 7.33398 -27 8.00098c-43.333 12 -76 22.333 -98 31c-25.333 8.66699 -55 22.334 -89 41.001c-33.333 17.333 -60 36.333 -80 57
c-48.667 50 -73 112 -73 186c0 96 36 171.333 108 226c71.333 55.333 168 83 290 83c148.667 0 270 -45 364 -135l-121 -139c-60 52 -137.667 78 -233 78c-56 0 -100.333 -8.83301 -133 -26.5s-49 -41.5 -49 -71.5c0 -21.333 11.667 -41.666 35 -60.999
s45.666 -32.333 66.999 -39l36 -12c24.667 -8 46 -14.667 64 -20c32.667 -8.66699 69 -19.334 109 -32.001c28.667 -10 60.667 -24 96 -42c35.333 -18.667 63.333 -37.667 84 -57c50.667 -49.333 76 -111.333 76 -186zM461.002 -408.002h-129l53 332h203z" />
    <glyph glyph-name="uni021A" unicode="&#x21a;" horiz-adv-x="1359" 
d="M39 1225v209h1282v-209h-514v-1225h-254v1225h-514zM786 -76l-127 -332h-129l54 332h202z" />
    <glyph glyph-name="uni021B" unicode="&#x21b;" horiz-adv-x="874" 
d="M217 842h-187.999v182h188v184l236 92v-276h321v-182h-321v-518c0 -40.667 12.5 -74.167 37.5 -100.5s57.5 -39.5 97.5 -39.5c50.667 0 91 16.333 121 49l116 -116c-60.667 -90 -153.334 -135 -278.001 -135c-95.333 0 -174 29 -236 87c-62.667 58 -94 132.667 -94 224
v549zM604.001 -76l-127 -332h-129l53 332h203z" />
    <glyph glyph-name="uni0237" unicode="&#x237;" horiz-adv-x="514" 
d="M-244 -371l121.001 140.001c32.667 -30 75 -45 127 -45c44 0 80 16.333 108 49s42 75.667 42 129v1122h235v-1130c0 -110.667 -33.333 -200.334 -100 -269.001c-67.333 -68 -155.333 -102 -264 -102s-198.334 35.333 -269.001 106z" />
    <glyph glyph-name="uni0259" unicode="&#x259;" horiz-adv-x="1173" 
d="M76 594h776.001c-8 72.667 -44.333 132.334 -109 179.001c-65.333 46 -145 69 -239 69c-112 0 -196.667 -26.667 -254 -80l-129 129c101.333 101.333 238.333 151.666 411 150.999c169.333 0 306.666 -50 411.999 -150c105.333 -101.333 158 -232 158 -392
c0 -150.667 -47.667 -274.667 -143 -372c-96 -97.333 -219.667 -146 -371 -146c-152.667 0 -276.667 49.667 -372 149c-96 98.667 -144 227 -144 385c0 18 1.33301 44 4 78zM848.001 418h-533c0.666992 -70 25 -127.667 73 -173c46.667 -44.667 107 -67 181 -67
c76 0 139.333 22.333 190 67c51.333 45.333 81 103 89 173z" />
    <glyph glyph-name="circumflex" unicode="&#x2c6;" horiz-adv-x="886" 
d="M219 1169l-117 115l342 240l340 -240l-114 -115l-226 162z" />
    <glyph glyph-name="caron" unicode="&#x2c7;" horiz-adv-x="884" 
d="M670 1524l112 -115l-338 -242l-342 240l117 117l225 -164z" />
    <glyph glyph-name="breve" unicode="&#x2d8;" horiz-adv-x="890" 
d="M102 1374l150 96.001c39.333 -74.667 104 -111.334 194 -110.001c88.667 0 153 36.667 193 110l149 -96c-77.333 -120 -191.333 -180 -342 -180c-152 0 -266.667 60 -344 180z" />
    <glyph glyph-name="dotaccent" unicode="&#x2d9;" horiz-adv-x="440" 
d="M338 1219h-236v215h236v-215z" />
    <glyph glyph-name="ring" unicode="&#x2da;" horiz-adv-x="575" 
d="M154 1221c-34.667 34 -51.999 78.333 -51.999 133s17.333 99 52 133c34 34 78.333 51 133 51c54 0 98.667 -17 134 -51c34.667 -34 52 -78.333 52 -133s-17.333 -99 -52 -133c-34.667 -34.667 -79.334 -52 -134.001 -52s-99 17.333 -133 52zM217.001 1354
c0 -22 6.5 -39.5 19.5 -52.5s29.833 -19.5 50.5 -19.5c20 0 36.5 6.5 49.5 19.5s19.5 30.5 19.5 52.5c0 20.667 -6.5 37.334 -19.5 50.001s-29.5 19 -49.5 19c-20.667 0 -37.5 -6.33301 -50.5 -19s-19.5 -29.334 -19.5 -50.001z" />
    <glyph glyph-name="ogonek" unicode="&#x2db;" horiz-adv-x="585" 
d="M221 -10l15.002 10h143c-14 -14 -25.333 -26 -34 -36c-13.333 -14 -31.666 -40.333 -54.999 -79c-22.667 -37.333 -34 -70 -34 -98c0 -46.667 22.667 -70 68 -70c26 0 51.667 9.66699 77 29l82 -86c-20.667 -26 -49.334 -47.167 -86.001 -63.5
s-73.334 -24.5 -110.001 -24.5c-55.333 0 -100 16.833 -134 50.5s-51 78.834 -51 135.501c0 36.667 8.16699 72.5 24.5 107.5s32.166 61.167 47.499 78.5s31 32.666 47 45.999z" />
    <glyph glyph-name="tilde" unicode="&#x2dc;" horiz-adv-x="905" 
d="M338 1288c-20.667 0 -37.1689 -7.16895 -49.502 -21.502s-18.5 -33.166 -18.5 -56.499h-168c0 74.667 23 134.334 69 179.001c45.333 44.667 104.333 67 177 67c26.667 0.666992 52.5 -3.5 77.5 -12.5s45 -19.333 60 -31s30.333 -22.167 46 -31.5
s28.834 -13.666 39.501 -12.999c19.333 0 35.166 7.16699 47.499 21.5s18.5 33.166 18.5 56.499h166c0 -73.333 -22.333 -132.333 -67 -177c-45.333 -46 -103.666 -69 -174.999 -69c-48.667 0 -93.667 14.667 -135 44s-70.666 44 -87.999 44z" />
    <glyph glyph-name="hungarumlaut" unicode="&#x2dd;" horiz-adv-x="1021" 
d="M96 1245l299 299l142 -141l-351 -246zM485 1245l297 299l144 -141l-353 -246z" />
    <glyph glyph-name="uni0400" unicode="&#x400;" horiz-adv-x="1296" 
d="M1202 0h-1065v1434h1047v-209h-793v-391h729v-209h-729v-416h811v-209zM834 1589l-91 -90l-352 246l144 143z" />
    <glyph glyph-name="uni0401" unicode="&#x401;" horiz-adv-x="1296" 
d="M1202 0h-1065v1434h1047v-209h-793v-391h729v-209h-729v-416h811v-209zM999 1776v-213h-227v213h227zM330 1563v213h227v-213h-227z" />
    <glyph glyph-name="uni0402" unicode="&#x402;" horiz-adv-x="1732" 
d="M41 1225l0.00195312 209h1282v-209h-514v-420c97.333 53.333 212.666 80 345.999 80c152.667 0 275.667 -42 369 -126c92.667 -84 139 -198.333 139 -343c0 -128.667 -37 -233 -111 -313c-74.667 -80.667 -171.334 -121 -290.001 -121
c-116.667 0 -210.334 35.333 -281.001 106l121 137c32.667 -28.667 75 -43 127 -43c56 0 100 18.5 132 55.5s48 87.5 48 151.5c0 87.333 -30 156.333 -90 207c-59.333 50.667 -138 76 -236 76c-99.333 0 -190.666 -26 -273.999 -78v-594h-254v1225h-514z" />
    <glyph glyph-name="uni0403" unicode="&#x403;" horiz-adv-x="1163" 
d="M137 0v1434h985v-209h-731v-1225h-254zM465 1589l297 299l143 -143l-352 -246z" />
    <glyph glyph-name="uni0404" unicode="&#x404;" horiz-adv-x="1413" 
d="M817 -18c-217.333 0 -394.002 67.999 -530.002 203.999c-136.667 134.667 -205 311 -205 529c0 218.667 68.333 396.334 205 533.001c136.667 136 313.334 204 530.001 204c216 0 394.333 -70.333 535 -211l-148 -154c-38 46 -90.333 82.333 -157 109
c-70 27.333 -141 41 -213 41c-121.333 0 -224.666 -37 -309.999 -111c-86 -74.667 -139 -173.667 -159 -297h753v-208h-758c18.667 -126 71 -228 157 -306c85.333 -77.333 191 -116 317 -116c74.667 0 146 13.667 214 41c66.667 26.667 118.667 62.667 156 108l148 -155
c-136.667 -140.667 -315 -211 -535 -211z" />
    <glyph glyph-name="uni0405" unicode="&#x405;" horiz-adv-x="1232" 
d="M1149 399c0 -120 -49.332 -219.331 -147.999 -297.998c-99.333 -79.333 -227 -119 -383 -119c-104 0 -203 17.333 -297 52c-96.667 35.333 -176.334 82 -239.001 140l129 164c44.667 -40.667 101.667 -74 171 -100s140.666 -39 213.999 -39
c86.667 0 158.667 17.667 216 53c56.667 34.667 85 79 85 133c0 46 -22.333 84.333 -67 115c-46 31.333 -122 64 -228 98c-171.333 56 -296.333 118.667 -375 188c-78.667 68.667 -118 154.667 -118 258c0 118.667 45.333 216.334 136 293.001s208.334 115 353.001 115
c94.667 0 188 -16.667 280 -50c90.667 -32.667 164 -76.667 220 -132l-123 -166c-38 37.333 -88.333 68.666 -151 93.999c-62 24.667 -127 37 -195 37c-80 0 -144.667 -16.333 -194 -49c-50 -33.333 -75 -77 -75 -131c0 -46.667 23 -86 69 -118
c46.667 -32.667 122.667 -66.334 228 -101.001c169.333 -56.667 294 -119.334 374 -188.001c78.667 -68 118 -151 118 -249z" />
    <glyph glyph-name="uni0406" unicode="&#x406;" horiz-adv-x="526" 
d="M391 1434v-1434h-254v1434h254z" />
    <glyph glyph-name="uni0407" unicode="&#x407;" horiz-adv-x="526" 
d="M137 0v1434h254v-1434h-254zM598 1563h-227v213h227v-213zM-72 1563v213h228v-213h-228z" />
    <glyph glyph-name="uni0408" unicode="&#x408;" horiz-adv-x="1110" 
d="M729 494v940.001h254v-940c0 -154.667 -49.333 -278.334 -148 -371.001c-99.333 -94 -228 -141 -386 -141c-162 0 -296.667 50.333 -404 151l145 164c56 -65.333 138 -98 246 -98c86 0 156.333 27.333 211 82s82 125.667 82 213z" />
    <glyph glyph-name="uni0409" unicode="&#x409;" horiz-adv-x="2340" 
d="M197 -18c-65.333 0 -117.999 9.99902 -157.999 29.999l39 187c14.667 -8.66699 38.667 -13.667 72 -15c26.667 0 48.667 7.33301 66 22c17.333 14 35 45.667 53 95c16.667 48.667 30.667 117.667 42 207c23.333 206.667 35 515.334 35 926.001h1047v-551h430
c133.333 0 241.333 -41.333 324 -124s124 -188.667 124 -318c0 -130 -41.667 -236 -125 -318c-82.667 -82 -190.334 -123 -323.001 -123h-684v1225h-549c0 -263.333 -7 -477.333 -21 -642c-15.333 -166.667 -40 -293 -74 -379c-35.333 -88 -75.333 -147 -120 -177
s-104 -45 -178 -45zM1796 671.999h-403v-463h403c66 0 119.333 21.333 160 64c40.667 41.333 61 97.333 61 168c0 69.333 -20.333 125.333 -61 168c-40.667 42 -94 63 -160 63z" />
    <glyph glyph-name="uni040A" unicode="&#x40a;" horiz-adv-x="2347" 
d="M391 643v-643h-254v1434h254v-582h748v582h254v-582h434c132.667 0 241 -40 325 -120c83.333 -80 125 -182.667 125 -308s-42 -227.333 -126 -306c-83.333 -78.667 -191.333 -118 -324 -118h-688v643h-748zM1800 643h-407.001v-434h407
c64.667 0 118.334 19.667 161.001 59c41.333 39.333 62 91.333 62 156s-20.667 117.667 -62 159c-42 40 -95.667 60 -161 60z" />
    <glyph glyph-name="uni040B" unicode="&#x40b;" horiz-adv-x="1779" 
d="M555 1225l-513.999 0.000976562v209h1282v-209h-514v-420c97.333 53.333 213.333 80 348 80c152 0 274.333 -41.333 367 -124s139 -196.334 139 -341.001v-420h-254v354c0 102 -29.667 180.667 -89 236c-58.667 54.667 -138.334 82 -239.001 82
c-101.333 0 -192 -26 -272 -78v-594h-254v1225z" />
    <glyph glyph-name="uni040C" unicode="&#x40c;" horiz-adv-x="1402" 
d="M137 0v1434h254v-594h182l455 594h299l-536 -697l563 -737h-293l-492 631h-178v-631h-254zM618 1499l-90 90l297 299l144 -143z" />
    <glyph glyph-name="uni040D" unicode="&#x40d;" horiz-adv-x="1576" 
d="M389 0h-252v1434h254v-1055l797 1055h252v-1434h-254v1049zM956 1589l-88 -90l-352 246l141 143z" />
    <glyph glyph-name="uni040E" unicode="&#x40e;" horiz-adv-x="1445" 
d="M621 444l-582 990h276l433 -740l389 740h270l-616 -1170c-98 -188.667 -233.333 -282.667 -406 -282c-130 0 -231 41.333 -303 124l139 154c43.333 -40.667 95.333 -61 156 -61c75.333 0 140 51.667 194 155zM723 1536c-94.667 0 -171.334 27.333 -230.001 82
c-60 54.667 -90 125 -90 211h183c0 -38 12.667 -68.333 38 -91s59 -34 101 -34c40 0 72.5 11.5 97.5 34.5s37.5 53.167 37.5 90.5h184c0 -87.333 -29.667 -158 -89 -212s-136.666 -81 -231.999 -81z" />
    <glyph glyph-name="uni040F" unicode="&#x40f;" horiz-adv-x="1564" 
d="M664 0h-527v1434h254v-1225h783v1225h253v-1434h-526v-330h-237v330z" />
    <glyph glyph-name="uni0410" unicode="&#x410;" horiz-adv-x="1605" 
d="M307 0h-268l635 1434h258l635 -1434h-267l-137 315h-719zM1071 526l-268 617l-268 -617h536z" />
    <glyph glyph-name="uni0411" unicode="&#x411;" horiz-adv-x="1361" 
d="M844 0h-706.999v1434h1020v-209h-766v-342h453c133.333 0 241.666 -41.333 324.999 -124c83.333 -83.333 125 -189.333 125 -318c0 -130 -41.667 -236 -125 -318c-84 -82 -192.333 -123 -325 -123zM817.001 672h-426v-463h426c67.333 0 121.333 21.333 162 64
c40.667 41.333 61 97.333 61 168c0 69.333 -20.333 125.333 -61 168c-40.667 42 -94.667 63 -162 63z" />
    <glyph glyph-name="uni0412" unicode="&#x412;" horiz-adv-x="1415" 
d="M926 0l-789.002 0.00195312v1434h760c111.333 0 202.333 -33.667 273 -101c69.333 -68 104 -154.667 104 -260c0 -70.667 -16.667 -134.334 -50 -191.001s-79 -99.334 -137 -128.001c74.667 -23.333 134.334 -67.333 179.001 -132s67 -141.667 67 -231
c0 -118 -37.333 -212.333 -112 -283c-75.333 -72 -173.666 -108 -294.999 -108zM835.998 635.002l-445 0.000976562v-434h445c67.333 0 122.666 20.667 165.999 62c42 41.333 63 93.666 63 156.999c0 64 -21 116 -63 156c-43.333 39.333 -98.666 59 -165.999 59z
M390.998 1233v-389h424c59.333 0 107.333 18 144 54s55 82 55 138c0 58 -18.333 105.333 -55 142s-84.667 55 -144 55h-424z" />
    <glyph glyph-name="uni0413" unicode="&#x413;" horiz-adv-x="1163" 
d="M137 0v1434h985v-209h-731v-1225h-254z" />
    <glyph glyph-name="uni0414" unicode="&#x414;" horiz-adv-x="1687" 
d="M303 -330h-254v539h184c40.667 50.667 71 167.667 91 351c20 182.667 30 474 30 874h1080v-1225h204v-539h-235v330h-1100v-330zM506 209h674v1016h-582c0 -495.333 -30.667 -834 -92 -1016z" />
    <glyph glyph-name="uni0415" unicode="&#x415;" horiz-adv-x="1296" 
d="M137 0v1434h1047v-209h-793v-391h729v-209h-729v-416h811v-209h-1065z" />
    <glyph glyph-name="uni0416" unicode="&#x416;" horiz-adv-x="2111" 
d="M795 631l-451 -631h-295l531 737l-498 697h293l413 -594h140v594h254v-594h139l416 594h293l-500 -697l532 -737h-295l-450 631h-135v-631h-254v631h-133z" />
    <glyph glyph-name="uni0417" unicode="&#x417;" horiz-adv-x="1286" 
d="M594 199c100 0 181.667 21.6689 245 65.002s95 100 95 170c0 58.667 -21.667 107 -65 145c-44.667 37.333 -103 56 -175 56h-274v209h256c63.333 0 115.666 17.333 156.999 52c41.333 35.333 62 78.666 62 129.999c0 62.667 -28.667 113.667 -86 153
c-56.667 38.667 -128.334 58 -215.001 58c-76 0 -148.333 -14.667 -217 -44c-67.333 -28.667 -120 -67.334 -158 -116.001l-147 156c142 146 323.333 219 544 219c156 0 284.333 -35.333 385 -106c101.333 -71.333 152 -164.333 152 -279c0 -66 -17.667 -127.333 -53 -184
c-34.667 -55.333 -82 -98.333 -142 -129c74.667 -23.333 134.334 -67.333 179.001 -132s67 -137.667 67 -219c0 -128.667 -55 -231 -165 -307s-251.667 -114 -425 -114c-233.333 0 -417.666 73 -552.999 219l148 157c38 -49.333 91.667 -88 161 -116
c68 -28.667 142.667 -43 224 -43z" />
    <glyph glyph-name="uni0418" unicode="&#x418;" horiz-adv-x="1576" 
d="M389 0h-252v1434h254v-1055l797 1055h252v-1434h-254v1049z" />
    <glyph glyph-name="uni0419" unicode="&#x419;" horiz-adv-x="1576" 
d="M1186 1049l-797 -1049h-252v1434h254v-1055l797 1055h252v-1434h-254v1049zM469 1829l182.002 0.000976562c0 -38 12.667 -68.333 38 -91s58.666 -34 99.999 -34s74.5 11.333 99.5 34s37.5 53 37.5 91h184c0 -87.333 -29.667 -158 -89 -212s-137 -81 -233 -81
c-94.667 0 -171.334 27.333 -230.001 82c-59.333 55.333 -89 125.666 -89 210.999z" />
    <glyph glyph-name="uni041A" unicode="&#x41a;" horiz-adv-x="1402" 
d="M137 0v1434h254v-594h182l455 594h299l-536 -697l563 -737h-293l-492 631h-178v-631h-254z" />
    <glyph glyph-name="uni041B" unicode="&#x41b;" horiz-adv-x="1550" 
d="M346 1434l1069 -0.000976562v-1434h-254v1225h-571c0 -263.333 -7 -477.333 -21 -642c-15.333 -166.667 -40 -293 -74 -379c-35.333 -88 -75.333 -147 -120 -177s-104 -45 -178 -45c-65.333 0 -118 10 -158 30l39 187c14.667 -8.66699 38.667 -13.667 72 -15
c26.667 0 48.667 7.33301 66 22c17.333 14 35 45.667 53 95c16.667 48.667 30.667 117.667 42 207c23.333 206.667 35 515.334 35 926.001z" />
    <glyph glyph-name="uni041C" unicode="&#x41c;" horiz-adv-x="1859" 
d="M137 0v1434h330l463 -959l463 959h329v-1434h-243v1073l-457 -944h-182l-459 944v-1073h-244z" />
    <glyph glyph-name="uni041D" unicode="&#x41d;" horiz-adv-x="1572" 
d="M391 0h-254v1434h254v-603h793v603h254v-1434h-254v623h-793v-623z" />
    <glyph glyph-name="uni041E" unicode="&#x41e;" horiz-adv-x="1656" 
d="M289 187c-138 136 -207 312.667 -207 530c0 216.667 69 393.334 207 530.001c137.333 136.667 317 205 539 205c220.667 0 400.334 -68.333 539.001 -205s208 -313.334 208 -530.001c0 -217.333 -69.333 -394 -208 -530c-138.667 -136.667 -318.334 -205 -539.001 -205
c-222 0 -401.667 68.333 -539 205zM487 1089c-88.667 -97.333 -133.001 -221.333 -133.001 -372c0 -150 44.667 -273.667 134 -371c89.333 -98 202.333 -147 339 -147c140 0 254.333 48.333 343 145s133 221 133 373s-44.333 276.333 -133 373s-203 145 -343 145
c-137.333 0 -250.666 -48.667 -339.999 -146z" />
    <glyph glyph-name="uni041F" unicode="&#x41f;" horiz-adv-x="1572" 
d="M391 0h-254v1434h1301v-1434h-254v1225h-793v-1225z" />
    <glyph glyph-name="uni0420" unicode="&#x420;" horiz-adv-x="1339" 
d="M391 549v-549h-254v1434h686c132.667 0 240.667 -41 324 -123s125 -187.667 125 -317c0 -130 -41.667 -236.667 -125 -320s-191.333 -125 -324 -125h-432zM391 1225v-465.001h404c66.667 0 120.667 21.667 162 65c40.667 42.667 61 99.334 61 170.001
c0 70 -20.333 125.667 -61 167c-40.667 42 -94.667 63 -162 63h-404z" />
    <glyph glyph-name="uni0421" unicode="&#x421;" horiz-adv-x="1413" 
d="M1204 348l147.999 -155.001c-136.667 -140.667 -315 -211 -535 -211c-217.333 0 -394 68 -530 204c-136.667 134.667 -205 311 -205 529c0 218.667 68.333 396.334 205 533.001c136.667 136 313.334 204 530.001 204c216 0 394.333 -70.333 535 -211l-148 -154
c-38 46 -90.333 82.333 -157 109c-70 27.333 -141 41 -213 41c-141.333 0 -256.333 -48.333 -345 -145c-90 -97.333 -135 -222.333 -135 -375c0 -151.333 45 -275.333 135 -372c89.333 -97.333 204.333 -146 345 -146c74.667 0 146 13.667 214 41
c66.667 26.667 118.667 62.667 156 108z" />
    <glyph glyph-name="uni0422" unicode="&#x422;" horiz-adv-x="1361" 
d="M41 1225v209h1282v-209h-514v-1225h-254v1225h-514z" />
    <glyph glyph-name="uni0423" unicode="&#x423;" horiz-adv-x="1445" 
d="M571 354l50 90l-582 990h276l433 -740l389 740h270l-616 -1170c-98 -188.667 -233.333 -282.667 -406 -282c-130 0 -231 41.333 -303 124l139 154c43.333 -40.667 95.333 -61 156 -61c75.333 0 140 51.667 194 155z" />
    <glyph glyph-name="uni0424" unicode="&#x424;" horiz-adv-x="1751" 
d="M268 293c-124 109.333 -186 250.666 -186 423.999s62 314.666 186 423.999c124 110 285.333 165.333 484 166v145h245v-145c198 -0.666992 360 -56 486 -166c124 -109.333 186 -250.666 186 -423.999s-62 -314.666 -186 -423.999c-126 -110 -288 -165.333 -486 -166v-145
h-245v145c-198.667 0.666992 -360 56 -484 166zM997 1092v-750c120 0.666992 217.667 36.334 293 107.001c75.333 69.333 113 158.666 113 267.999s-37.667 199 -113 269c-76 70 -173.667 105.333 -293 106zM462 985c-76 -71.333 -114 -160.666 -114 -267.999
c0 -108 38 -197 114 -267c74.667 -70.667 171.334 -106.667 290.001 -108v750c-116.667 -0.666992 -213.334 -36.334 -290.001 -107.001z" />
    <glyph glyph-name="uni0425" unicode="&#x425;" horiz-adv-x="1499" 
d="M748 559l-398 -559h-301l541 733l-512 701h301l369 -529l372 529h301l-514 -701l543 -733h-303z" />
    <glyph glyph-name="uni0426" unicode="&#x426;" horiz-adv-x="1673" 
d="M1389 0h-1252v1434h254v-1225h772v1225h254v-1225h207v-539h-235v330z" />
    <glyph glyph-name="uni0427" unicode="&#x427;" horiz-adv-x="1429" 
d="M102 985v448.999h254v-383c0 -103.333 33 -183.666 99 -240.999c64.667 -56.667 152.667 -85 264 -85c115.333 0 221.666 32 318.999 96v613h254v-1434h-254v594c-109.333 -60 -238.333 -90 -387 -90c-163.333 0 -295.666 42.667 -396.999 128s-152 203 -152 353z" />
    <glyph glyph-name="uni0428" unicode="&#x428;" horiz-adv-x="2209" 
d="M2075 1434v-1434h-1938v1434h254v-1225h588v1225h254v-1225h588v1225h254z" />
    <glyph glyph-name="uni0429" unicode="&#x429;" horiz-adv-x="2328" 
d="M137 0v1434h254v-1225h588v1225h254v-1225h588v1225h254v-1225h204v-539h-235v330h-1907z" />
    <glyph glyph-name="uni042A" unicode="&#x42a;" horiz-adv-x="1720" 
d="M494 1233h-452.999v201h707v-551h452c133.333 0 241.666 -41.333 324.999 -124c84 -83.333 126 -189.333 126 -318c0 -130 -42 -236 -126 -318s-192.333 -123 -325 -123h-706v1233zM1174 672h-426v-463h426c67.333 0 121.333 21.333 162 64
c40.667 41.333 61 97.333 61 168c0 69.333 -20.333 125.333 -61 168c-41.333 42 -95.333 63 -162 63z" />
    <glyph glyph-name="uni042B" unicode="&#x42b;" horiz-adv-x="1880" 
d="M844 0h-706.999v1434h254v-551h453c133.333 0 241.666 -41.333 324.999 -124c83.333 -83.333 125 -189.333 125 -318c0 -130 -42 -236 -126 -318s-192 -123 -324 -123zM1489 0v1434h254v-1434h-254zM391.001 672v-463h426c67.333 0 121.333 21.333 162 64
c40.667 41.333 61 97.333 61 168c0 69.333 -20.333 125.333 -61 168c-40.667 42 -94.667 63 -162 63h-426z" />
    <glyph glyph-name="uni042C" unicode="&#x42c;" horiz-adv-x="1363" 
d="M844 0h-706.999v1434h254v-551h453c133.333 0 241.666 -41.333 324.999 -124c83.333 -83.333 125 -189.333 125 -318c0 -130 -41.667 -236 -125 -318c-84 -82 -192.333 -123 -325 -123zM391.001 672v-463h426c67.333 0 121.333 21.333 162 64
c40.667 41.333 61 97.333 61 168c0 69.333 -20.333 125.333 -61 168c-40.667 42 -94.667 63 -162 63h-426z" />
    <glyph glyph-name="uni042D" unicode="&#x42d;" horiz-adv-x="1413" 
d="M209 1087l-148.002 153.998c142.667 140.667 321.667 211 537 211c217.333 0 394 -68.333 530 -205c135.333 -137.333 203 -314.666 203 -531.999s-67.667 -393.666 -203 -528.999c-136 -136 -313.333 -204 -532 -204c-220 0 -398.333 70.333 -535 211l148 155
c38 -45.333 91 -81.333 159 -108c68 -27.333 138.667 -41 212 -41c124.667 0 230.334 38.667 317.001 116s139.334 179.333 158.001 306h-682v208h678c-20.667 122 -73.667 220.667 -159 296c-84.667 74.667 -188.667 112 -312 112c-73.333 0 -144 -13.667 -212 -41
c-67.333 -26.667 -120.333 -63 -159 -109z" />
    <glyph glyph-name="uni042E" unicode="&#x42e;" horiz-adv-x="2224" 
d="M391 0l-254 0.00195312v1434h254v-603h307c22.667 188 99.667 338.667 231 452c129.333 112.667 291.333 169 486 169c215.333 0 390.333 -68.333 525 -205s202 -313.334 202 -530.001c0 -218 -67.333 -394.667 -202 -530c-134.667 -136.667 -309.667 -205 -525 -205
c-200 0 -364.667 58.333 -494 175c-131.333 117.333 -206.333 272.666 -225 465.999h-305v-623zM1092 1089c-86 -98 -129 -222 -129 -372s43 -273.667 129 -371c86 -98 193.667 -147 323 -147c134 0 243.333 48.333 328 145s127 221 127 373s-42.333 276.333 -127 373
s-194 145 -328 145c-130 0 -237.667 -48.667 -323 -146z" />
    <glyph glyph-name="uni042F" unicode="&#x42f;" horiz-adv-x="1396" 
d="M346 0l-276 0.000976562l329 571c-92 29.333 -164.667 81.666 -218 156.999c-54 76 -81 165 -81 267c0 130 41.667 235.667 125 317s191.333 122 324 122h711v-1434h-254v551h-344zM354 995.001c0 -70 20.667 -126.666 62 -169.999s95.333 -65 162 -65h428v465h-428
c-66.667 0 -120.667 -21 -162 -63c-41.333 -42.667 -62 -98.334 -62 -167.001z" />
    <glyph glyph-name="uni0430" unicode="&#x430;" horiz-adv-x="1136" 
d="M94 279c0 104 47.6699 188.667 143.003 254s217.666 98 366.999 98c65.333 0 124.666 -6.33301 177.999 -19v68c0 48 -21.667 87 -65 117c-44 30 -100.667 45 -170 45c-114 0 -215.667 -33 -305 -99l-113 140c48 48.667 111.667 87.334 191 116.001s163 43 251 43
c131.333 0 238.666 -32.667 321.999 -98s125 -150 125 -254v-690h-236v131c-82 -100 -194 -149.667 -336 -149c-104 0 -188.667 27.667 -254 83s-98 126.666 -98 213.999zM623.003 471c-81.333 0 -148.667 -15.667 -202 -47c-52.667 -30.667 -79 -71 -79 -121
c0 -38 17 -69.333 51 -94c33.333 -24.667 77 -37 131 -37c76.667 0 139 26 187 78c47.333 52.667 71 119 71 199c-44.667 14.667 -97.667 22 -159 22z" />
    <glyph glyph-name="uni0431" unicode="&#x431;" horiz-adv-x="1245" 
d="M1174 522c0 -161.333 -50.668 -291.664 -152.001 -390.997s-231.666 -149 -390.999 -149c-167.333 0 -300.333 60.333 -399 181c-100 121.333 -150 308.666 -150 561.999c0 468 181.667 715.667 545 743l438 35l18 -235l-368 -27
c-150 -10.667 -259.167 -49.834 -327.5 -117.501s-101.833 -167.834 -100.5 -300.501c30 66 81.667 119.333 155 160c73.333 39.333 154 59 242 59c145.333 0 263.333 -48.333 354 -145s136 -221.667 136 -375zM436.999 750.002c-52.667 -61.333 -79 -140.667 -79 -238
s26 -176.333 78 -237c52 -62 119.667 -93 203 -93s151 31 203 93c52 60.667 78 139.667 78 237c0 96.667 -26 176 -78 238c-52 61.333 -119 92 -201 92c-82.667 0 -150.667 -30.667 -204 -92z" />
    <glyph glyph-name="uni0432" unicode="&#x432;" horiz-adv-x="1142" 
d="M760 0h-633v1024h604c86 0 156.333 -24.333 211 -73s82 -111.667 82 -189c0 -106.667 -47 -184.667 -141 -234c57.333 -16.667 102.666 -47.334 135.999 -92.001s50 -98 50 -160c0 -81.333 -28.667 -147.666 -86 -198.999s-131.666 -77 -222.999 -77zM690 438
l-328 -0.000976562v-256h330c40.667 0 74.5 12.333 101.5 37s40.5 55.334 40.5 92.001c0 38 -13.5 68.667 -40.5 92s-61.5 35 -103.5 35zM653 841.999h-291.001v-240h291c40.667 0 73.334 11 98.001 33s37 50.667 37 86c0 36 -12.5 65.167 -37.5 87.5s-57.5 33.5 -97.5 33.5
z" />
    <glyph glyph-name="uni0433" unicode="&#x433;" horiz-adv-x="884" 
d="M127 1024h729v-182h-494v-842h-235v1024z" />
    <glyph glyph-name="uni0434" unicode="&#x434;" horiz-adv-x="1382" 
d="M260 -309h-219v491h170c64 103.333 96 384 96 842h838v-842h194v-491h-217v309h-862v-309zM453 182h454v660h-383c0.666992 -300 -23 -520 -71 -660z" />
    <glyph glyph-name="uni0435" unicode="&#x435;" horiz-adv-x="1175" 
d="M1098 430l-774 -0.000976562c6.66699 -72.667 42.667 -132 108 -178c64.667 -46.667 144.667 -70 240 -70c108.667 0 193.334 26.667 254.001 80l129 -129c-104.667 -101.333 -242 -151.666 -412 -150.999c-170 0 -307.333 50.333 -412 151
c-106 100 -159 230.333 -159 391c0 152 47.667 276.667 143 374c95.333 96 219.666 144 372.999 144c152.667 0 277 -49.333 373 -148c95.333 -99.333 143 -228 143 -386c0 -22.667 -2 -48.667 -6 -78zM326 605.999h532.002c-0.666992 70 -24.334 127.667 -71.001 173
c-46.667 44.667 -107.667 67 -183 67c-74.667 0 -137.334 -22.333 -188.001 -67c-52 -45.333 -82 -103 -90 -173z" />
    <glyph glyph-name="uni0436" unicode="&#x436;" horiz-adv-x="1658" 
d="M625 440l-308 -440h-276l381 539l-350 485h258l280 -401h101v401h237v-401h101l280 401h258l-350 -485l381 -539h-277l-307 440h-86v-440h-237v440h-86z" />
    <glyph glyph-name="uni0437" unicode="&#x437;" horiz-adv-x="1001" 
d="M449 178c71.333 0 129.665 13.332 174.998 39.999c45.333 27.333 68 62.666 68 105.999c0 34 -13.333 61.833 -40 83.5s-61 32.5 -103 32.5h-227v166h192c42 0 76.667 10.667 104 32s41 47.666 41 78.999c0 38 -20.333 69 -61 93c-41.333 24 -94 36 -158 36
c-120 0 -206 -32.667 -258 -98l-114 137c87.333 105.333 221 157.666 401 156.999c127.333 0 230.333 -25.333 309 -76c79.333 -51.333 119 -118 119 -200c0 -46.667 -13.167 -90.667 -39.5 -132s-60.166 -73.666 -101.499 -96.999
c48.667 -17.333 89.334 -49.666 122.001 -96.999c33.333 -49.333 50 -101.666 50 -156.999c0 -90 -41.667 -162.667 -125 -218s-192 -83 -326 -83c-188.667 0 -330 56.667 -424 170l119 137c24 -33.333 61 -60.166 111 -80.499s105.333 -30.5 166 -30.5z" />
    <glyph glyph-name="uni0438" unicode="&#x438;" horiz-adv-x="1241" 
d="M127 0v1024h235v-662l551 662h201v-1024h-235v653l-545 -653h-207z" />
    <glyph glyph-name="uni0439" unicode="&#x439;" horiz-adv-x="1241" 
d="M879 653l-545 -653h-207v1024h235v-662l551 662h201v-1024h-235v653zM301 1415h180c0 -38 12.667 -68.667 38 -92s59.333 -35 102 -35c40.667 0 73.667 11.667 99 35s38 54 38 92h184c0 -87.333 -30 -158 -90 -212s-137 -81 -231 -81c-95.333 0 -172.333 27 -231 81
c-59.333 54 -89 124.667 -89 212z" />
    <glyph glyph-name="uni043A" unicode="&#x43a;" horiz-adv-x="1148" 
d="M127 0v1024h235v-401h138l299 401h266l-371 -492l414 -532h-277l-346 440h-123v-440h-235z" />
    <glyph glyph-name="uni043B" unicode="&#x43b;" horiz-adv-x="1247" 
d="M285 1024h827v-1024h-235v842h-375c0 -237.333 -12 -418 -36 -542c-24 -125.333 -58.333 -209.333 -103 -252c-44.667 -44 -109.667 -66 -195 -66c-57.333 0 -103 10 -137 30l39 168c15.333 -9.33301 34.333 -14 57 -14c23.333 0 42 5.5 56 16.5s28 32.833 42 65.5
c14 34 25 81.667 33 143c18 138.667 27 349.667 27 633z" />
    <glyph glyph-name="uni043C" unicode="&#x43c;" horiz-adv-x="1468" 
d="M127 0v1024h285l323 -602l322 602h286v-1024h-219v690l-325 -606h-129l-326 606v-690h-217z" />
    <glyph glyph-name="uni043D" unicode="&#x43d;" 
d="M362 432v-432h-235v1024h235v-410h504v410h238v-1024h-238v432h-504z" />
    <glyph glyph-name="uni043E" unicode="&#x43e;" horiz-adv-x="1249" 
d="M227 129c-103.333 98 -155 225.667 -155 383s51.667 285 155 383s236 147 398 147s294.333 -49 397 -147s154 -225.667 154 -383s-51.333 -285 -154 -383s-235 -147 -397 -147s-294.667 49 -398 147zM326 512c0 -96.667 27.6689 -175.668 83.002 -237.001
c55.333 -62 127.333 -93 216 -93c87.333 0 158.666 31 213.999 93c55.333 61.333 83 140.333 83 237c0 98.667 -27.333 178.334 -82 239.001s-126.334 91 -215.001 91c-89.333 0 -161.333 -30.333 -216 -91c-55.333 -61.333 -83 -141 -83 -239z" />
    <glyph glyph-name="uni043F" unicode="&#x43f;" horiz-adv-x="1218" 
d="M362 0h-235v1024h967v-1024h-238v842h-494v-842z" />
    <glyph glyph-name="uni0440" unicode="&#x440;" horiz-adv-x="1222" 
d="M362 -461l-235 0.000976562v1485h235v-145c31.333 49.333 79.666 89 144.999 119c66 29.333 134.667 44 206 44c130.667 0 236.334 -46.333 317.001 -139s121 -213.334 121 -362.001c0 -166 -50.667 -300.667 -152 -404c-102 -103.333 -235 -155 -399 -155
c-94.667 0 -174 15.667 -238 47v-490zM362 553.001l0.000976562 -324c62.667 -32.667 131.667 -49 207 -49c96.667 0 175.667 32.667 237 98c60.667 64.667 91 148.667 91 252c0 94 -25.333 171.333 -76 232c-50.667 60 -115.334 90 -194.001 90
c-78 0 -141.667 -27.667 -191 -83s-74 -127.333 -74 -216z" />
    <glyph glyph-name="uni0441" unicode="&#x441;" horiz-adv-x="1073" 
d="M879 264l137 -137c-92.667 -96.667 -221 -145 -385 -145c-166 0 -300.333 49 -403 147c-104 98 -156 225.667 -156 383s51.667 285 155 383s237.333 147 402 147c161.333 0 290.333 -48.333 387 -145l-137 -137c-58.667 54.667 -136.667 82 -234 82
c-92.667 0 -169 -30.667 -229 -92c-60 -62 -90 -141.333 -90 -238c0 -97.333 30 -176.333 90 -237c60 -62 136.333 -93 229 -93c97.333 0 175.333 27.333 234 82z" />
    <glyph glyph-name="uni0442" unicode="&#x442;" horiz-adv-x="1017" 
d="M31 842v182h956v-182h-360v-842h-236v842h-360z" />
    <glyph glyph-name="uni0443" unicode="&#x443;" horiz-adv-x="1159" 
d="M29 -387l118 143c27.333 -23.333 59.666 -35 96.999 -35c74 0 136 56 186 168l49 111l-450 1024h241l320 -758l299 758h241l-503 -1212c-83.333 -194 -204.333 -291 -363 -291c-89.333 0 -167.666 30.667 -234.999 92z" />
    <glyph glyph-name="uni0444" unicode="&#x444;" horiz-adv-x="1560" 
d="M221 131c-99.333 97.333 -149.001 224.333 -149.001 381c0 157.333 50 284.333 150 381c98.667 96.667 227.334 145 386.001 145c21.333 0 39.333 -0.666992 54 -2v449h237v-449c14.667 1.33301 32.334 2 53.001 2c159.333 0 288.333 -48.333 387 -145
s148 -223.667 148 -381s-49.333 -284.333 -148 -381s-228.334 -145 -389.001 -145c-19.333 0 -36.333 0.666992 -51 2v-449h-237v449c-14.667 -1.33301 -32.667 -2 -54 -2c-159.333 0 -288.333 48.333 -387 145zM607.999 856c-87.333 0 -159 -32.333 -215 -97
s-84 -147 -84 -247s28 -182.333 84 -247s127.667 -97 215 -97c15.333 0 33.333 1.33301 54 4v680c-20.667 2.66699 -38.667 4 -54 4zM951.999 856c-16 0 -33.667 -1.33203 -53 -3.99902v-680c22 -2.66699 39.667 -4 53 -4c87.333 0 159 32.333 215 97
c56 65.333 84 147.666 84 246.999c0 100 -28 182.333 -84 247s-127.667 97 -215 97z" />
    <glyph glyph-name="uni0445" unicode="&#x445;" horiz-adv-x="1161" 
d="M580 369l-258 -369h-281l393 524l-371 500h279l238 -346l239 346h279l-371 -500l393 -524h-280z" />
    <glyph glyph-name="uni0446" unicode="&#x446;" horiz-adv-x="1327" 
d="M127 0v1024h235v-842h492v842h236v-842h196v-491h-219v309h-940z" />
    <glyph glyph-name="uni0447" unicode="&#x447;" horiz-adv-x="1144" 
d="M92 686l-0.000976562 338h238v-293c0 -63.333 21.333 -114 64 -152s100.334 -57 173.001 -57c82 0 153.667 24 215 72v430h236v-1024h-236v401c-87.333 -51.333 -182 -76.333 -284 -75c-122.667 0 -221 33 -295 99s-111 153 -111 261z" />
    <glyph glyph-name="uni0448" unicode="&#x448;" horiz-adv-x="1730" 
d="M1606 1024v-1024h-1479v1024h235v-842h386v842h235v-842h385v842h238z" />
    <glyph glyph-name="uni0449" unicode="&#x449;" horiz-adv-x="1843" 
d="M127 0v1024h235v-842h386v842h235v-842h385v842h238v-842h194v-491h-217v309h-1456z" />
    <glyph glyph-name="uni044A" unicode="&#x44a;" horiz-adv-x="1323" 
d="M354 842l-323 0.000976562v182h559v-358h309c102 0 185.333 -30.667 250 -92c64 -62 96 -142.667 96 -242c0 -98.667 -32 -178.334 -96 -239.001c-64 -62 -147.333 -93 -250 -93h-545v842zM846 481.001h-256v-299h256c48 0 87.333 14 118 42s46 64 46 108
c0 43.333 -15.333 79 -46 107s-70 42 -118 42z" />
    <glyph glyph-name="uni044B" unicode="&#x44b;" horiz-adv-x="1529" 
d="M127 0v1024h235v-358h310c102 0 185.333 -30.667 250 -92c64 -62 96 -142.667 96 -242c0 -98.667 -32 -178.334 -96 -239.001c-64.667 -62 -148 -93 -250 -93h-545zM1405 1024v-1024h-238v1024h238zM616 481.001h-254v-299h254c48 0 87.333 14 118 42s46 64 46 108
c0 43.333 -15.333 79 -46 107s-70 42 -118 42z" />
    <glyph glyph-name="uni044C" unicode="&#x44c;" horiz-adv-x="1095" 
d="M672 0l-545 0.000976562v1024h235v-358h310c102 0 185.333 -30.667 250 -92c64 -62 96 -142.667 96 -242c0 -98.667 -32 -178.334 -96 -239.001c-64 -62 -147.333 -93 -250 -93zM616 481.001h-254v-299h254c48 0 87.333 14 118 42s46 64 46 108
c0 43.333 -15.333 79 -46 107s-70 42 -118 42z" />
    <glyph glyph-name="uni044D" unicode="&#x44d;" horiz-adv-x="1046" 
d="M731 440l-442.001 -0.000976562v166h440c-17.333 76 -52.666 136.667 -105.999 182c-55.333 45.333 -121 68 -197 68c-105.333 0 -186.666 -30.667 -243.999 -92l-127 127c97.333 100 227 149.667 389 149c156.667 0 284.667 -48.667 384 -146
c98 -97.333 147 -224.666 147 -381.999c0 -155.333 -49.333 -282 -148 -380c-98.667 -98.667 -227 -148 -385 -148c-154.667 0 -283.667 49.667 -387 149l127 127c57.333 -61.333 138.666 -92 243.999 -92c81.333 0 149.333 25 204 75c55.333 49.333 89 115 101 197z" />
    <glyph glyph-name="uni044E" unicode="&#x44e;" horiz-adv-x="1699" 
d="M362 432l0.000976562 -432h-235v1024h235v-410h201c22 128 81 231.667 177 311c94.667 78 212 117 352 117c158.667 0 287.667 -49 387 -147s149 -225.667 149 -383c0 -154.667 -49.667 -281.667 -149 -381c-100.667 -99.333 -229 -149 -385 -149
c-144.667 0 -265.334 41.333 -362.001 124c-96.667 82 -153.667 190.667 -171 326h-199zM1094 842c-84.667 0 -153.333 -30.333 -206 -91s-79 -140.334 -79 -239.001c0 -97.333 26.333 -176.333 79 -237c53.333 -62 122 -93 206 -93c83.333 0 151 31 203 93
c51.333 61.333 77 140.333 77 237c0 98.667 -26 178.334 -78 239.001c-52.667 60.667 -120 91 -202 91z" />
    <glyph glyph-name="uni044F" unicode="&#x44f;" horiz-adv-x="1132" 
d="M317 0h-257.999l277 391c-74.667 15.333 -134.334 51.333 -179.001 108c-46 57.333 -69 125 -69 203c0 94 33.333 171.333 100 232c66 60 150.667 90 254 90h564l2 -1024h-238l-2 381h-188zM324.001 692c0 -42 16 -76 48 -102s73.333 -39 124 -39h274v291h-274
c-50.667 0 -92 -14 -124 -42s-48 -64 -48 -108z" />
    <glyph glyph-name="uni0450" unicode="&#x450;" horiz-adv-x="1175" 
d="M1098 430l-774 -0.000976562c6.66699 -72.667 42.667 -132 108 -178c64.667 -46.667 144.667 -70 240 -70c108.667 0 193.334 26.667 254.001 80l129 -129c-104.667 -101.333 -242 -151.666 -412 -150.999c-170 0 -307.333 50.333 -412 151
c-106 100 -159 230.333 -159 391c0 152 47.667 276.667 143 374c95.333 96 219.666 144 372.999 144c152.667 0 277 -49.333 373 -148c95.333 -99.333 143 -228 143 -386c0 -22.667 -2 -48.667 -6 -78zM326 605.999h532.002c-0.666992 70 -24.334 127.667 -71.001 173
c-46.667 44.667 -107.667 67 -183 67c-74.667 0 -137.334 -22.333 -188.001 -67c-52 -45.333 -82 -103 -90 -173zM666.002 1157l-353 246l144 141l299 -299z" />
    <glyph glyph-name="uni0451" unicode="&#x451;" horiz-adv-x="1175" 
d="M643 -18c-170 0 -307.334 50.333 -412.001 151c-106 100 -159 230.333 -159 391c0 152 47.667 276.667 143 374c95.333 96 219.666 144 372.999 144c152.667 0 277 -49.333 373 -148c95.333 -99.333 143 -228 143 -386c0 -22.667 -2 -48.667 -6 -78h-774
c6.66699 -72.667 42.667 -132 108 -178c64.667 -46.667 144.667 -70 240 -70c108.667 0 193.334 26.667 254.001 80l129 -129c-103.333 -100.667 -240.666 -151 -411.999 -151zM325.999 606h532.002c-0.666992 70 -24.334 127.667 -71.001 173
c-46.667 44.667 -107.667 67 -183 67c-74.667 0 -137.334 -22.333 -188.001 -67c-52 -45.333 -82 -103 -90 -173zM922.001 1219h-228v215h228v-215zM252.001 1219v215h227v-215h-227z" />
    <glyph glyph-name="uni0452" unicode="&#x452;" horiz-adv-x="1220" 
d="M362 1485l0.000976562 -167.999h302v-148h-302v-288c82 108 195.333 161.667 340 161c120 0 217 -37 291 -111c74 -75.333 111 -172 111 -290v-747c0 -110.667 -33.333 -200.334 -100 -269.001c-66.667 -68 -155 -102 -265 -102c-106.667 0 -195.334 35.333 -266.001 106
l121 140c30 -30 72.333 -45 127 -45c44 0 79.5 16.333 106.5 49s40.5 75.667 40.5 129v692c0 76 -22 137.333 -66 184c-44.667 46.667 -101.667 70 -171 70c-79.333 0 -144 -29.333 -194 -88s-75 -133 -75 -223v-537h-235v1169h-141v148h141v168h235z" />
    <glyph glyph-name="uni0453" unicode="&#x453;" horiz-adv-x="884" 
d="M127 1024h729v-182h-494v-842h-235v1024zM334 1245l297 299l141 -141l-350 -246z" />
    <glyph glyph-name="uni0454" unicode="&#x454;" horiz-adv-x="1046" 
d="M799 606l-0.000976562 -165.999h-484c12 -82.667 46 -148.334 102 -197.001c55.333 -50 123.333 -75 204 -75c105.333 0 187 30.667 245 92l125 -127c-100 -100 -229 -149.667 -387 -149c-157.333 0 -285.333 49.333 -384 148c-98.667 98 -148 224.667 -148 380
c0 158 49.333 285.333 148 382c98.667 97.333 226.667 146 384 146c160.667 0 289.667 -49.667 387 -149l-125 -127c-59.333 61.333 -141 92 -245 92c-76 0 -141.333 -22.667 -196 -68c-53.333 -45.333 -88.666 -106 -105.999 -182h480z" />
    <glyph glyph-name="uni0455" unicode="&#x455;" horiz-adv-x="946" 
d="M881 299c0 -96.667 -38.666 -173.67 -115.999 -231.003s-180.666 -86 -309.999 -86c-156 0 -289.333 48.333 -400 145l121 137c74.667 -57.333 166.334 -86 275.001 -86c61.333 0 110.666 9.66699 147.999 29s56 45.333 56 78c0 32 -20 57.667 -60 77
c-20 9.33301 -39.667 17.333 -59 24l-79 24c-13.333 4.66699 -23 7.33398 -29 8.00098c-43.333 12 -76 22.333 -98 31c-25.333 8.66699 -55 22.334 -89 41.001c-34.667 17.333 -61.334 36.333 -80.001 57c-48.667 50 -73 112 -73 186c0 96 36 171.333 108 226
c71.333 55.333 168.333 83 291 83c147.333 0 268.333 -45 363 -135l-121 -139c-60 52 -137.667 78 -233 78c-56 0 -100.5 -8.83301 -133.5 -26.5s-49.5 -41.5 -49.5 -71.5c0 -21.333 11.667 -41.666 35 -60.999c22.667 -19.333 45.667 -32.333 69 -39
c7.33301 -2 22.166 -6.66699 44.499 -14l56.5 -18c37.333 -10 73.333 -20.667 108 -32c28 -10 60 -24 96 -42c36 -18.667 64 -37.667 84 -57c50 -50 75 -112 75 -186z" />
    <glyph glyph-name="uni0456" unicode="&#x456;" horiz-adv-x="489" 
d="M362 0h-235v1024h235v-1024zM362 1219h-235v215h235v-215z" />
    <glyph glyph-name="uni0457" unicode="&#x457;" horiz-adv-x="489" 
d="M127 0v1024h235v-1024h-235zM559 1219h-227v215h227v-215zM-70 1219v215h228v-215h-228z" />
    <glyph glyph-name="uni0458" unicode="&#x458;" horiz-adv-x="516" 
d="M-242 -371l121 140c30 -30 72.333 -45 127 -45c44 0 79.667 16.333 107 49s41 75.667 41 129v1122h237v-1130c0 -110 -33.667 -199.667 -101 -269c-68 -68 -156 -102 -264 -102s-197.333 35.333 -268 106zM391 1434v-215h-237v215h237z" />
    <glyph glyph-name="uni0459" unicode="&#x459;" horiz-adv-x="1798" 
d="M31 12l39.001 168.001c15.333 -9.33301 34.333 -14 57 -14c23.333 0 42 5.5 56 16.5s28 32.833 42 65.5c14 34 25 81.667 33 143c18 138.667 27 349.667 27 633h807v-358h290c102 0 185.667 -30.667 251 -92c64 -62 96 -142.667 96 -242
c0 -98.667 -32 -178.334 -96 -239.001c-64.667 -62 -148.334 -93 -251.001 -93h-526v842h-354c0 -237.333 -12 -418 -36 -542c-24 -125.333 -58.333 -209.333 -103 -252c-44.667 -44 -109.667 -66 -195 -66c-57.333 -1.33301 -103 8.66699 -137 30zM1327 481.001h-235v-299
h235c48 0 87.333 14 118 42s46 64 46 108c0 43.333 -15.333 79 -46 107s-70 42 -118 42z" />
    <glyph glyph-name="uni045A" unicode="&#x45a;" horiz-adv-x="1755" 
d="M127 0v1024h235v-389h463v389h236v-389h299c96 0 174.333 -29.333 235 -88s91 -134.667 91 -228c0 -94.667 -30.667 -171.667 -92 -231c-61.333 -58.667 -141.333 -88 -240 -88h-529v453h-463v-453h-235zM1300 453h-239v-271h239c44 0 80 13 108 39s42 59 42 99
c0 39.333 -14 71.333 -42 96s-64 37 -108 37z" />
    <glyph glyph-name="uni045B" unicode="&#x45b;" horiz-adv-x="1220" 
d="M362 1485v-168h302v-148h-302v-288c82 108 195.333 161.667 340 161c120 0 217 -37 291 -111c74 -75.333 111 -172 111 -290v-641h-236v594c0 76 -22 137.333 -66 184c-44.667 46.667 -101.667 70 -171 70c-79.333 0 -144 -29.333 -194 -88s-75 -133 -75 -223v-537h-235
v1169h-141v148h141v168h235z" />
    <glyph glyph-name="uni045C" unicode="&#x45c;" horiz-adv-x="1148" 
d="M127 0v1024h235v-401h138l299 401h266l-371 -492l414 -532h-277l-346 440h-123v-440h-235zM496 1157l-88 88l297 299l141 -141z" />
    <glyph glyph-name="uni045D" unicode="&#x45d;" horiz-adv-x="1241" 
d="M334 0h-207v1024h235v-662l551 662h201v-1024h-235v653zM788 1245l-88 -88l-352 246l141 141z" />
    <glyph glyph-name="uni045E" unicode="&#x45e;" horiz-adv-x="1159" 
d="M29 -387l118 143c27.333 -23.333 59.666 -35 96.999 -35c74 0 136 56 186 168l49 111l-450 1024h241l320 -758l299 758h241l-503 -1212c-83.333 -194 -204.333 -291 -363 -291c-89.333 0 -167.666 30.667 -234.999 92zM270 1415h181c0 -38 12.667 -68.667 38 -92
s59 -35 101 -35c40.667 0 73.334 11.667 98.001 35s37 54 37 92h186c0 -87.333 -30 -158 -90 -212s-137 -81 -231 -81c-94.667 0 -171.334 27 -230.001 81c-60 54 -90 124.667 -90 212z" />
    <glyph glyph-name="uni045F" unicode="&#x45f;" horiz-adv-x="1218" 
d="M127 0v1024h235v-842h494v842h238v-1024h-375v-309h-219v309h-373z" />
    <glyph glyph-name="uni0490" unicode="&#x490;" horiz-adv-x="1150" 
d="M391 1225v-1225h-254v1434h737v256h238v-465h-721z" />
    <glyph glyph-name="uni0491" unicode="&#x491;" horiz-adv-x="884" 
d="M362 0h-235v1024h500v256h217v-438h-482v-842z" />
    <glyph glyph-name="uni04D8" unicode="&#x4d8;" horiz-adv-x="1617" 
d="M1330 187c-136.667 -136.667 -312.331 -205.001 -526.998 -205.001s-388.334 68.333 -521.001 205c-133.333 136.667 -200 313.334 -200 530.001c0 32.667 2 64.667 6 96h1167c-19.333 125.333 -74.333 227 -165 305s-202 117 -334 117
c-78.667 0 -153.334 -13.667 -224.001 -41c-69.333 -26 -123 -62.333 -161 -109l-148 156c136.667 140.667 319.667 211 549 211c226 0 409.667 -68.333 551 -205c142 -136.667 213 -314 213 -532c0 -216 -68.667 -392 -206 -528zM799.003 198.999
c116.667 0 216.333 37.333 299 112c83.333 74 135 171.667 155 293h-888c10.667 -120 56 -217.333 136 -292c80.667 -75.333 180 -113 298 -113z" />
    <glyph glyph-name="uni04D9" unicode="&#x4d9;" horiz-adv-x="1175" 
d="M78 594l776.001 -0.000976562c-8 72.667 -44.333 132.334 -109 179.001c-64.667 46 -145 69 -241 69c-108.667 0 -193.334 -26.667 -254.001 -80l-127 129c102 102 239.333 152.333 412 151c168 0 305 -50 411 -150c105.333 -101.333 158 -232 158 -392
c0 -150.667 -47.667 -274.667 -143 -372c-96 -97.333 -219.667 -146 -371 -146c-152.667 0 -277 49.667 -373 149c-96.667 98.667 -145 227 -145 385c0 22.667 2 48.667 6 78zM850.001 417.999h-533.001c0.666992 -70 25 -127.667 73 -173
c46.667 -44.667 107.334 -67 182.001 -67c74 0 136.667 22.333 188 67c52 45.333 82 103 90 173z" />
    <glyph glyph-name="Wgrave" unicode="&#x1e80;" horiz-adv-x="2256" 
d="M508 0l-471 1434h258l342 -1098l364 1098h254l361 -1098l344 1098h258l-471 -1434h-264l-355 1094l-356 -1094h-264zM1208 1499l-354 246l143 143l299 -299z" />
    <glyph glyph-name="wgrave" unicode="&#x1e81;" horiz-adv-x="1658" 
d="M596 0h-221l-348 1024h231l236 -725l229 725h213l227 -725l238 725h231l-352 -1024h-219l-232 700zM997 1245l-88 -88l-352 246l141 141z" />
    <glyph glyph-name="Wacute" unicode="&#x1e82;" horiz-adv-x="2256" 
d="M508 0l-471 1434h258l342 -1098l364 1098h254l361 -1098l344 1098h258l-471 -1434h-264l-355 1094l-356 -1094h-264zM1049 1499l-88 90l296 299l142 -143z" />
    <glyph glyph-name="wacute" unicode="&#x1e83;" horiz-adv-x="1658" 
d="M375 0l-348 1024h231l236 -725l229 725h213l227 -725l238 725h231l-352 -1024h-219l-232 700l-233 -700h-221zM750 1157l-88 88l296 299l144 -141z" />
    <glyph glyph-name="Wdieresis" unicode="&#x1e84;" horiz-adv-x="2256" 
d="M508 0l-471 1434h258l342 -1098l364 1098h254l361 -1098l344 1098h258l-471 -1434h-264l-355 1094l-356 -1094h-264zM1462 1563h-227v213h227v-213zM1022 1563h-227v213h227v-213z" />
    <glyph glyph-name="wdieresis" unicode="&#x1e85;" horiz-adv-x="1658" 
d="M596 0h-221l-348 1024h231l236 -725l229 725h213l227 -725l238 725h231l-352 -1024h-219l-232 700zM936 1219v215h227v-215h-227zM496 1219v215h227v-215h-227z" />
    <glyph glyph-name="uni1E9E" unicode="&#x1e9e;" horiz-adv-x="1597" 
d="M1327 1307l-299.002 -469c324.667 -108 487.334 -258.333 488.001 -451c0 -115.333 -47 -211.333 -141 -288c-95.333 -78 -215.666 -117 -360.999 -117c-96 0 -189 17.333 -279 52c-92.667 35.333 -168.334 82 -227.001 140l127 164
c40.667 -40.667 93.334 -74 158.001 -100c64 -26 129.333 -39 196 -39c79.333 0 145 17 197 51s78 75.667 78 125c0 79.333 -69 150 -207 212c-71.333 32 -127 55 -167 69c-36.667 12.667 -95 31.667 -175 57c-17.333 4.66699 -28.333 8 -33 10l317 502h-315
c-86.667 0 -157.667 -29 -213 -87c-54.667 -57.333 -82 -132.333 -82 -225v-913h-254v922c0 156 48.333 280.333 145 373c95.333 92.667 225.333 139 390 139h657v-127z" />
    <glyph glyph-name="Ygrave" unicode="&#x1ef2;" horiz-adv-x="1435" 
d="M590 0v539l-553 895h278l402 -660l403 660h277l-553 -895v-539h-254zM887 1589l-90 -90l-353 246l144 143z" />
    <glyph glyph-name="ygrave" unicode="&#x1ef3;" horiz-adv-x="1157" 
d="M428 -111l50.999 111l-452 1024h243l318 -758l301 758h241l-505 -1212c-83.333 -194 -203.666 -291 -360.999 -291c-90.667 0 -169.667 30.667 -237 92l118 143c27.333 -23.333 60.333 -35 99 -35c72.667 0 134 56 184 168zM747.999 1245l-91 -88l-352 246l144 141z" />
    <glyph glyph-name="figuredash" unicode="&#x2012;" 
d="M983 643h-737v148h737v-148z" />
    <glyph glyph-name="endash" unicode="&#x2013;" horiz-adv-x="1024" 
d="M881 479h-738v148h738v-148z" />
    <glyph glyph-name="emdash" unicode="&#x2014;" horiz-adv-x="2048" 
d="M1905 479h-1762v148h1762v-148z" />
    <glyph glyph-name="quoteleft" unicode="&#x2018;" horiz-adv-x="438" 
d="M238 1485h163l-73 -455h-238z" />
    <glyph glyph-name="quoteright" unicode="&#x2019;" horiz-adv-x="438" 
d="M201 1030h-164l74 455h237z" />
    <glyph glyph-name="quotesinglbase" unicode="&#x201a;" horiz-adv-x="438" 
d="M201 -229h-164l74 454h237z" />
    <glyph glyph-name="quotereversed" unicode="&#x201b;" horiz-adv-x="438" 
d="M328 1485l73 -455h-163l-148 455h238z" />
    <glyph glyph-name="quotedblleft" unicode="&#x201c;" horiz-adv-x="741" 
d="M631 1030h-238l148 455h164zM328 1030h-238l148 455h163z" />
    <glyph glyph-name="quotedblright" unicode="&#x201d;" horiz-adv-x="741" 
d="M506 1030h-166l76 455h235zM201 1030h-164l74 455h237z" />
    <glyph glyph-name="quotedblbase" unicode="&#x201e;" horiz-adv-x="741" 
d="M506 -229h-166l76 454h235zM201 -229h-164l74 454h237z" />
    <glyph glyph-name="uni201F" unicode="&#x201f;" horiz-adv-x="741" 
d="M541 1030l-148 455h238l76 -455h-166zM401 1030h-163l-148 455h238z" />
    <glyph glyph-name="dagger" unicode="&#x2020;" horiz-adv-x="1140" 
d="M1055 1126v-147h-410v-1081h-147v1081h-410v147h410v410h147v-410h410z" />
    <glyph glyph-name="daggerdbl" unicode="&#x2021;" horiz-adv-x="1140" 
d="M498 307h-410v148h410v524h-410v147h410v410h147v-410h410v-147h-410v-524h410v-148h-410v-409h-147v409z" />
    <glyph glyph-name="bullet" unicode="&#x2022;" horiz-adv-x="673" 
d="M528 526h-383v381h383v-381z" />
    <glyph glyph-name="ellipsis" unicode="&#x2026;" horiz-adv-x="1314" 
d="M1223 270v-270h-256v270h256zM784 0h-254v270h254v-270zM92 0v270h254v-270h-254z" />
    <glyph glyph-name="perthousand" unicode="&#x2030;" horiz-adv-x="2379" 
d="M424 0h-172l1003 1434h177zM179 761c-58 74 -87.001 170.667 -87.001 290c0 118 29 214.667 87 290c58 74 132.667 111 224 111c92.667 0 168.334 -37 227.001 -111c58 -75.333 87 -172 87 -290c0 -119.333 -29 -216 -87 -290c-58 -74.667 -133.667 -112 -227 -112
c-91.333 0 -166 37.333 -224 112zM295.999 1244c-28 -50 -41.999 -114.333 -41.999 -193c0 -79.333 14 -144 42 -194s63.667 -75 107 -75c45.333 0 82 25 110 75s42 114.667 42 194c0 78.667 -14 143 -42 193s-64.667 75 -110 75c-44.667 0 -80.334 -25 -107.001 -75z
M1054 94c-58 74 -86.999 170.332 -86.999 288.999s29 215.334 87 290.001c58 74 132.667 111 224 111c92 0 167.667 -37 227 -111c58.667 -74.667 88 -171.334 88 -290.001c0 -119.333 -29.333 -215.666 -88 -288.999c-58.667 -74.667 -134.334 -112 -227.001 -112
c-91.333 0 -166 37.333 -224 112zM1170 576.999c-28 -50 -42 -114.667 -42 -194s14 -143.666 42 -192.999c28 -50 64 -75 108 -75c46.667 0 84 25 112 75c28 49.333 42 113.666 42 192.999s-14 144 -42 194c-28 49.333 -65.333 74 -112 74c-44 0 -80 -24.667 -108 -74z
M1750 93.999c-58 74 -87 170.333 -87 289s29 215.334 87 290.001c58 74 132.667 111 224 111c92 0 167.667 -37 227 -111c58 -74.667 87 -171.334 87 -290.001s-29 -215 -87 -289c-58 -74.667 -133.667 -112 -227 -112c-91.333 0 -166 37.333 -224 112zM1867 576.999
c-28 -50 -42 -114.667 -42 -194s14 -143.666 42 -192.999c28 -50 63.667 -75 107 -75c45.333 0 82 25 110 75c28 49.333 42 113.666 42 192.999s-14 144 -42 194c-28 49.333 -64.667 74 -110 74c-44 0 -79.667 -24.667 -107 -74z" />
    <glyph glyph-name="guilsinglleft" unicode="&#x2039;" horiz-adv-x="720" 
d="M594 274l-105 -106l-385 385l385 383l105 -105l-281 -278z" />
    <glyph glyph-name="guilsinglright" unicode="&#x203a;" horiz-adv-x="720" 
d="M129 831l102 105l385 -383l-385 -385l-102 106l279 279z" />
    <glyph glyph-name="fraction" unicode="&#x2044;" horiz-adv-x="1179" 
d="M1180 1434l-1006 -1432l-174 -2l1004 1434h176z" />
    </font>
</defs>
</svg>
