<?xml version="1.0" standalone="no"?>
<!DOCTYPE svg PUBLIC "-//W3C//DTD SVG 1.1//EN" "http://www.w3.org/Graphics/SVG/1.1/DTD/svg11.dtd" >
<svg>
<metadata>
Created by FontForge 20090914 at Sun Oct 11 22:03:20 2020
 By www-data
(c) Andriy Konstantynov 2013-2019 Desktop use is strictly prohibited.
</metadata>
<defs>
<font id="CynthoNext-Medium" horiz-adv-x="1228" >
  <font-face 
    font-family="Cyntho Next Medium"
    font-weight="500"
    font-stretch="normal"
    units-per-em="2048"
    panose-1="0 0 0 0 0 0 0 0 0 0"
    ascent="1741"
    descent="-307"
    x-height="1024"
    cap-height="1434"
    bbox="-326 -479.002 2398 1939"
    underline-thickness="0"
    underline-position="0"
    unicode-range="U+000D-U+FB04"
  />
<missing-glyph horiz-adv-x="681" 
 />
    <glyph glyph-name="uniFB00" unicode="ff" horiz-adv-x="1531" 
d="M233 0v868h-194v156h194v125c0 104 32 189 96 255c63.333 66 145.333 99 246 99c105.333 0 193 -38 263 -114l-103 -119c-39.333 39.333 -86.333 59 -141 59c-48 0 -87 -15.667 -117 -47s-45 -72.333 -45 -123v-135h498v125c0 104 32 189 96 255s146.667 99 248 99
c102.667 0 190 -38 262 -114l-102 -119c-42.667 39.333 -90.667 59 -144 59c-48 0 -87 -15.667 -117 -47s-45 -72.333 -45 -123v-135h365v-156h-365v-868h-198v868h-498v-868h-199z" />
    <glyph glyph-name="uniFB01" unicode="fi" horiz-adv-x="1269" 
d="M229 868h-191.999v156h192v125c0 104.667 32.333 189.667 97 255c64 66 146.333 99 247 99c102 0 189.667 -38 263 -114l-103 -119c-42.667 39.333 -90.334 59 -143.001 59c-48 0 -87 -15.667 -117 -47s-45 -72.333 -45 -123v-135h365v-156h-365v-868h-199v868zM1130 0
h-198v1024h198v-1024zM1130 1231h-198v203h198v-203z" />
    <glyph glyph-name="uniFB02" unicode="fl" horiz-adv-x="1396" 
d="M229 868h-191.999v156h192v125c0 104.667 32.333 189.667 97 255c64 66 146.333 99 247 99c102 0 189.667 -38 263 -114l-103 -119c-42.667 39.333 -90.334 59 -143.001 59c-48 0 -87 -15.667 -117 -47s-45 -72.333 -45 -123v-135h365v-156h-365v-868h-199v868z
M946.001 242l-0.000976562 1243h199v-1229c0 -30 8.5 -54.167 25.5 -72.5s40.5 -27.5 70.5 -27.5c28.667 0 53.334 10 74.001 30l92 -118c-55.333 -57.333 -122.333 -86 -201 -86c-76.667 0 -139 24.333 -187 73c-48.667 48 -73 110.333 -73 187z" />
    <glyph glyph-name="uniFB03" unicode="ffi" horiz-adv-x="1968" 
d="M432 1159l0.000976562 -135h500v125c0 103.333 31.667 188.333 95 255c63.333 66 145.666 99 246.999 99c105.333 0 192.666 -38 261.999 -114l-102 -119c-39.333 39.333 -86.666 59 -141.999 59c-48 0 -87 -15.667 -117 -47s-45 -72.333 -45 -123v-135h365v-156h-365
v-868h-198v868h-500v-868h-199v868h-194v156h194v125c0 104 32 189 96 255c63.333 66 145.333 99 246 99c105.333 0 193 -38 263 -114l-103 -119c-39.333 39.333 -86.333 59 -141 59c-48 0 -87 -15.667 -117 -47s-45 -72.333 -45 -123zM1829 0h-199v1024h199v-1024z
M1829 1231h-199v203h199v-203z" />
    <glyph glyph-name="uniFB04" unicode="ffl" horiz-adv-x="2095" 
d="M428 1159l0.000976562 -135h500v125c0 104 32 189 96 255s146.667 99 248 99c102.667 0 190 -38 262 -114l-102 -119c-42.667 39.333 -90.667 59 -144 59c-48 0 -87 -15.667 -117 -47s-45 -72.333 -45 -123v-135h365v-156h-365v-868h-198v868h-500v-868h-199v868h-192
v156h192v125c0 104.667 32.333 189.667 97 255c64 66 146.333 99 247 99c102 0 189.667 -38 263 -114l-103 -119c-42.667 39.333 -90.334 59 -143.001 59c-48 0 -87 -15.667 -117 -47s-45 -72.333 -45 -123zM1645 242l-0.000976562 1243h198v-1229
c0 -30 8.5 -54.167 25.5 -72.5s40.5 -27.5 70.5 -27.5c28.667 0 53.334 10 74.001 30l92 -118c-55.333 -57.333 -122 -86 -200 -86c-76.667 0 -139 24.333 -187 73c-48.667 48 -73 110.333 -73 187z" />
    <glyph glyph-name=".notdef" horiz-adv-x="681" 
 />
    <glyph glyph-name="glyph1" horiz-adv-x="0" 
 />
    <glyph glyph-name="glyph1" horiz-adv-x="0" 
 />
    <glyph glyph-name="uni000D" unicode="&#xd;" horiz-adv-x="512" 
 />
    <glyph glyph-name="space" unicode=" " horiz-adv-x="600" 
 />
    <glyph glyph-name="exclam" unicode="!" horiz-adv-x="485" 
d="M350 0h-215v250h215v-250zM328 446h-170l-21 988h213z" />
    <glyph glyph-name="quotedbl" unicode="&#x22;" horiz-adv-x="694" 
d="M561 981h-141l-29 453h199zM274 981h-141l-29 453h199z" />
    <glyph glyph-name="numbersign" unicode="#" horiz-adv-x="1411" 
d="M1231 479l-23 -127h-258l-61 -352h-127l61 352h-364l-62 -352h-127l62 352h-258l22 127h258l84 475h-258l23 127h258l61 353h127l-61 -353h364l62 353h127l-62 -353h258l-22 -127h-258l-84 -475h258zM565 954l-84 -475h365l84 475h-365z" />
    <glyph glyph-name="dollar" unicode="$" horiz-adv-x="1236" 
d="M94 178l109 136.999c103.333 -98 236.333 -147 399 -147c80 0 154.333 17.333 223 52s103 87.667 103 159c0 50 -20 90.333 -60 121c-42.667 32 -106.667 63.333 -192 94c-37.333 12 -59.333 19.333 -66 22c-4 1.33301 -14.167 5 -30.5 11s-26.5 9.33301 -30.5 10
c-145.333 52.667 -253 111 -323 175c-70 62.667 -105 143 -105 241c0 110 39.333 201.333 118 274c78 73.333 181.333 114.333 310 123v188h127v-190c174 -18 313.333 -80 418 -186l-107 -138c-90 94.667 -210.667 142.667 -362 144c-74 0 -141.333 -17 -202 -51
c-60.667 -34.667 -91 -86 -91 -154c0 -67.333 40 -122 120 -164c37.333 -20 70.333 -35.333 99 -46l104 -36c70 -24 113.667 -39.333 131 -46c37.333 -14 79.333 -33.333 126 -58c48 -25.333 87.333 -52.333 118 -81c74 -69.333 111 -149.666 111 -240.999
c0 -109.333 -43 -202 -129 -278c-86 -76.667 -198 -119.667 -336 -129v-189h-127v191c-183.333 15.333 -335 79.333 -455 192z" />
    <glyph glyph-name="percent" unicode="%" horiz-adv-x="1699" 
d="M420 0h-148l1004 1434h151zM189 766c-56.667 73.333 -84.999 169.001 -84.999 287.001c0 117.333 28.333 213.333 85 288c57.333 74 131.666 111 222.999 111c92 0 166.333 -37 223 -111c57.333 -75.333 86 -171.333 86 -288s-28.667 -212.334 -86 -287.001
c-56.667 -74 -131 -111 -223 -111s-166.333 37 -223 111zM242.001 1053c0 -81.333 15.667 -148.666 47 -201.999c30.667 -52.667 71.667 -79 123 -79c50 0 91 26.333 123 79c31.333 53.333 47 120.666 47 201.999c0 82.667 -15.667 150.667 -47 204c-32 52 -73 78 -123 78
c-50.667 0 -91.667 -26 -123 -78c-31.333 -53.333 -47 -121.333 -47 -204zM1065 94.001c-57.333 74.667 -85.998 170.334 -85.998 287.001s28.667 212.334 86 287.001c57.333 73.333 131.666 110 222.999 110s165.666 -36.667 222.999 -110
c57.333 -74.667 86 -170.334 86 -287.001s-28.667 -212.334 -86 -287.001c-56.667 -74.667 -131 -112 -223 -112s-166.333 37.333 -223 112zM1165 584.001c-31.333 -52.667 -47 -120.334 -47 -203.001s15.667 -150.667 47 -204c30.667 -52.667 71.667 -79 123 -79
s92.333 26.333 123 79c31.333 53.333 47 121.333 47 204s-15.667 150.334 -47 203.001c-31.333 52 -72.333 78 -123 78s-91.667 -26 -123 -78z" />
    <glyph glyph-name="ampersand" unicode="&#x26;" horiz-adv-x="1417" 
d="M590 -18c-149.333 0 -269.665 40.334 -360.998 121.001c-92.667 80 -139 185.667 -139 317c0 102.667 28 185.334 84 248.001s132.333 118 229 166c-60 101.333 -90 195.333 -90 282c0 96.667 34 177 102 241c67.333 63.333 154.333 95 261 95
c100.667 0 183.334 -28.667 248.001 -86c64 -57.333 96 -131.666 96 -222.999c0 -74.667 -25 -140 -75 -196c-20.667 -23.333 -49 -46.333 -85 -69c-40.667 -26.667 -72.334 -45.334 -95.001 -56.001c-26.667 -14 -63.334 -31.333 -110.001 -52
c90 -100.667 202.667 -213.334 338 -338.001c37.333 84 56.666 179 57.999 285h170c0 -160.667 -30.333 -297.334 -91 -410.001l232 -203l-125 -124l-209 180c-114.667 -118.667 -260.667 -178 -438 -178zM289.001 412.001c0 -80.667 27.332 -145.331 81.999 -193.998
s126.334 -73 215.001 -73c121.333 0 225 45.333 311 136c-182.667 173.333 -315 311.666 -397 414.999c-70 -38.667 -122.667 -80.334 -158 -125.001s-53 -97.667 -53 -159zM559 901.004c92 38 161.331 74 207.998 108c46 32.667 69 76 69 130
c0 44 -15.167 79.833 -45.5 107.5s-69.166 41.5 -116.499 41.5c-53.333 0 -96.666 -18 -129.999 -54c-33.333 -36.667 -50 -82 -50 -136c-0.666992 -60 21 -125.667 65 -197z" />
    <glyph glyph-name="quotesingle" unicode="'" horiz-adv-x="407" 
d="M274 981h-141l-29 453h199z" />
    <glyph glyph-name="parenleft" unicode="(" horiz-adv-x="659" 
d="M214 258c-25.333 113.333 -38.002 232.33 -38.002 356.997s12 242.667 36 354c24 110 53 199.667 87 269c32 64.667 65.167 122.5 99.5 173.5s63.833 88.5 88.5 112.5l37 30l88 -90c-6.66699 -6.66699 -15.667 -16.667 -27 -30c-10.667 -12.667 -31 -44.667 -61 -96
c-29.333 -51.333 -54.333 -106.666 -75 -165.999c-21.333 -59.333 -41.666 -139.666 -60.999 -240.999c-18.667 -99.333 -28 -204.666 -28 -315.999c0 -110.667 9 -215.334 27 -314.001c18 -100.667 39.333 -181.667 64 -243c48.667 -129.333 94.334 -217 137.001 -263
l26 -31l-90 -90c-12 9.33301 -24.333 20.333 -37 33c-16.667 16 -44.334 51 -83.001 105c-39.333 54 -74.666 114 -105.999 180c-30.667 64.667 -58.667 153.334 -84 266.001z" />
    <glyph glyph-name="parenright" unicode=")" horiz-adv-x="659" 
d="M446 971c24.667 -110.667 37.002 -229.332 37.002 -355.999c0 -124 -11.667 -242.333 -35 -355c-23.333 -109.333 -52.333 -199.333 -87 -270c-68 -135.333 -131 -230.333 -189 -285l-37 -31l-88 90c6.66699 6.66699 16 17 28 31c12 14.667 32 47 60 97
c27.333 48 52.666 103.333 75.999 166c21.333 57.333 41.666 137.333 60.999 240c18 101.333 27 207 27 317c0 112 -8.33301 217 -25 315c-17.333 98.667 -38.333 179.667 -63 243c-48 120.667 -93.667 207.667 -137 261l-27 30l88 90c15.333 -12 28 -22.667 38 -32
c16.667 -16 44.334 -51 83.001 -105c41.333 -58 76.666 -118 105.999 -180c30.667 -64.667 58.667 -153.334 84 -266.001z" />
    <glyph glyph-name="asterisk" unicode="*" horiz-adv-x="796" 
d="M111 1276l237 -96l-20 254h141l-20 -252l235 98l45 -137l-248 -58l164 -194l-115 -84l-131 217l-135 -219l-114 84l165 194l-247 60z" />
    <glyph glyph-name="plus" unicode="+" 
d="M551 653h-346v127h346v346h127v-346h346v-127h-346v-346h-127v346z" />
    <glyph glyph-name="comma" unicode="," horiz-adv-x="421" 
d="M193 -233h-156l78 454h215z" />
    <glyph glyph-name="hyphen" unicode="-" horiz-adv-x="768" 
d="M639 489h-510v127h510v-127z" />
    <glyph glyph-name="period" unicode="." horiz-adv-x="421" 
d="M319 0h-215v250h215v-250z" />
    <glyph glyph-name="slash" unicode="/" horiz-adv-x="946" 
d="M946 1483l-831 -1790l-115 53l831 1790z" />
    <glyph glyph-name="zero" unicode="0" horiz-adv-x="1314" 
d="M251 187c-104.667 135.333 -157 311.997 -157 529.997c0 216.667 52.333 393.334 157 530.001s240.334 205 407.001 205c166 0 301.667 -68.667 407 -206s158 -313.666 158 -528.999s-52.667 -391.666 -158 -528.999s-241 -206 -407 -206
c-166.667 0 -302.334 68.333 -407.001 205zM405 1125c-65.333 -105.333 -98 -241.333 -98 -408c0 -166 32.667 -301.333 98 -406c64.667 -104.667 149 -157 253 -157c103.333 0 188 52.333 254 157c65.333 104.667 98 240 98 406c0 166.667 -32.667 302.667 -98 408
c-66 104.667 -150.667 157 -254 157c-104 0 -188.333 -52.333 -253 -157z" />
    <glyph glyph-name="one" unicode="1" horiz-adv-x="927" 
d="M195 1028l-89 156l445 250h156v-1434h-199v1206z" />
    <glyph glyph-name="two" unicode="2" horiz-adv-x="1163" 
d="M1047 0l-934 -0.00390625v150l75 55c32 24.667 86.667 71.667 164 141c77.333 68.667 147.333 137.334 210 206.001c60 65.333 115.333 144 166 236c50 86.667 75.333 167.834 76 243.501s-24 136.334 -74 182.001s-120.667 68.5 -212 68.5
c-120.667 0 -225.667 -47.667 -315 -143l-109 108c130 136.667 279.667 205 449 205c140 0 253.667 -38.333 341 -115c88 -76.667 132 -175.667 132 -297c0 -78.667 -20.333 -161.667 -61 -249s-90.667 -166.666 -150 -237.999c-65.333 -78.667 -124 -144 -176 -196
c-59.333 -59.333 -109.333 -105.333 -150 -138l-61 -49h629v-170z" />
    <glyph glyph-name="three" unicode="3" horiz-adv-x="1189" 
d="M573 -16c-196.667 0 -358.331 67.335 -484.998 202.002l115 115c38 -46 87.5 -82 148.5 -108s126.167 -39 195.5 -39c94 0 170.333 24.333 229 73c58.667 48 88 110.333 88 187c0 76 -28.333 138 -85 186s-130 72 -220 72h-106v155h110c76.667 0 139 21 187 63
c47.333 41.333 71 95.666 71 162.999c0 68 -24.667 123 -74 165c-50.667 41.333 -116.667 62 -198 62c-64 0 -125 -13.333 -183 -40s-106.333 -63.334 -145 -110.001l-112 115c116.667 136.667 270.667 205 462 205c136.667 0 247 -34 331 -102
c84 -68.667 126 -158.334 126 -269.001c0 -76 -19.833 -142.667 -59.5 -200s-94.834 -99.666 -165.501 -126.999c84 -29.333 149.667 -76 197 -140c47.333 -65.333 71 -140.333 71 -225c0 -120 -46.333 -217 -139 -291c-92.667 -74.667 -212.334 -112 -359.001 -112z" />
    <glyph glyph-name="four" unicode="4" horiz-adv-x="1318" 
d="M74 295v104l735 1035h229v-983h189v-156h-189v-295h-207v295h-757zM831 1167l-514 -716h514v716z" />
    <glyph glyph-name="five" unicode="5" horiz-adv-x="1167" 
d="M541 -18c-182 0 -340.33 66.666 -474.997 199.999l114 115c94 -95.333 210 -143 348 -143c104.667 0 185.167 24.833 241.5 74.5s84.5 118.834 84.5 207.501c0 94.667 -32 170.334 -96 227.001c-63.333 56.667 -154.333 85 -273 85
c-80.667 0 -171.334 -12.333 -272.001 -37l-45 45l51 678h719v-170h-561l-27 -375c65.333 15.333 127.666 22.666 186.999 21.999c159.333 0 287.666 -45 384.999 -135c96.667 -90 145 -203.333 145 -340c0 -138 -49 -248 -147 -330c-98.667 -82.667 -225 -124 -379 -124z
" />
    <glyph glyph-name="six" unicode="6" horiz-adv-x="1230" 
d="M690 1282c-114.667 0 -204.669 -40.6689 -270.002 -122.002s-103 -201.666 -113 -360.999c79.333 68 184 102 314 102c152.667 0 277.334 -43 374.001 -129c96 -86 144 -197.333 144 -334c0 -133.333 -45.667 -242.666 -137 -327.999
c-92.667 -85.333 -211 -128 -355 -128c-174 0 -309.333 64 -406 192c-98 126.667 -147 305.667 -147 537c0 236 51.667 418.667 155 548c102.667 128.667 247 193 433 193c170.667 0 304.334 -46.333 401.001 -139l-120 -121c-62 60 -153 90 -273 90zM642.998 153.998
c82.667 0 150.668 26.666 204.001 79.999c52.667 52.667 79 120 79 202c0 86.667 -30.333 157.334 -91 212.001c-61.333 55.333 -141 83 -239 83c-126.667 0 -223 -41 -289 -123c8 -147.333 41.667 -259.833 101 -337.5s137.666 -116.5 234.999 -116.5z" />
    <glyph glyph-name="seven" unicode="7" horiz-adv-x="1189" 
d="M864 1264h-782v170h1020v-105l-588 -1329h-209z" />
    <glyph glyph-name="eight" unicode="8" horiz-adv-x="1259" 
d="M160 1090c0 108 43.333 195.331 130 261.998s200.334 100 341.001 100c141.333 0 255.333 -33.333 342 -100c87.333 -67.333 131 -154.666 131 -261.999c0 -76 -19.833 -142.833 -59.5 -200.5s-94.834 -100.167 -165.501 -127.5
c83.333 -29.333 149.333 -76.666 198 -141.999c48 -67.333 72 -145 72 -233c0 -119.333 -47.667 -216.666 -143 -291.999c-96.667 -75.333 -221.667 -113 -375 -113c-154 0 -279.333 37.667 -376 113c-96 75.333 -144 172.666 -144 291.999
c0 88.667 24.333 166.334 73 233.001c47.333 65.333 113 112.666 197 141.999c-69.333 27.333 -123.5 70 -162.5 128s-58.5 124.667 -58.5 200zM324 411.998c0 -75.333 28.667 -137 86 -185c56.667 -48.667 129.667 -73 219 -73c90.667 0 164.334 24.333 221.001 73
c57.333 48 86 109.667 86 185c0 78 -28.667 141.667 -86 191c-56.667 48.667 -130.334 73 -221.001 73c-89.333 0 -162.333 -24.333 -219 -73c-57.333 -49.333 -86 -113 -86 -191zM445 1221c-48 -40.667 -72 -93.333 -72 -158c0 -64 24.333 -116 73 -156
c47.333 -40.667 109 -61 185 -61c78.667 0 141.667 20.333 189 61c47.333 40 71 92 71 156s-23.667 116.667 -71 158c-47.333 40.667 -110.333 61 -189 61c-77.333 0 -139.333 -20.333 -186 -61z" />
    <glyph glyph-name="nine" unicode="9" horiz-adv-x="1218" 
d="M514 154c118.667 0 213.668 41.668 285.001 125.001s109.333 202.666 114 357.999c-80.667 -68 -183.667 -102 -309 -102c-151.333 0 -274 43 -368 129c-94.667 86 -142 197 -142 333c0 134 45.333 243.333 136 328c89.333 84.667 206 127 350 127
c169.333 0 302.666 -63.667 399.999 -191c97.333 -128.667 146 -306 146 -532c0 -238.667 -53.667 -422.667 -161 -552c-108 -130 -255 -195 -441 -195c-178 0 -320.667 52.333 -428 157l121 121c73.333 -70.667 172.333 -106 297 -106zM584.001 1282
c-82 0 -148.669 -26.667 -200.002 -80s-77 -121 -77 -203c0 -86 29.667 -156 89 -210c58.667 -54.667 136.334 -82 233.001 -82c124.667 0 219.334 40 284.001 120c-8 147.333 -41.167 260 -99.5 338s-134.833 117 -229.5 117z" />
    <glyph glyph-name="colon" unicode=":" horiz-adv-x="421" 
d="M319 0h-215v250h215v-250zM104 774v250h215v-250h-215z" />
    <glyph glyph-name="semicolon" unicode=";" horiz-adv-x="421" 
d="M193 -233h-156l78 454h215zM319 774h-215v250h215v-250z" />
    <glyph glyph-name="less" unicode="&#x3c;" 
d="M164 649v135l860 344v-135l-682 -274l682 -277v-135z" />
    <glyph glyph-name="equal" unicode="=" 
d="M1024 854h-819v127h819v-127zM1024 580v-127h-819v127h819z" />
    <glyph glyph-name="greater" unicode="&#x3e;" 
d="M205 307v135l682 277l-682 274v135l860 -344v-135z" />
    <glyph glyph-name="question" unicode="?" horiz-adv-x="1093" 
d="M993 1051c0 -60 -12.332 -115.001 -36.999 -165.001c-25.333 -51.333 -55.666 -92.666 -90.999 -123.999c-74.667 -65.333 -140.334 -109 -197.001 -131l-39 -15l-11 -170h-169l-11 289c18 6 30.333 10.333 37 13c12.667 4 40 16.333 82 37
c41.333 20 76.333 40.667 105 62c29.333 22.667 56.666 52.667 81.999 90c24 36.667 36 76.667 36 120c0 62.667 -24 116 -72 160c-49.333 43.333 -121.333 65 -216 65c-128 0 -236.667 -50.667 -326 -152l-109 111c130 140.667 281.667 211 455 211
c142.667 0 258.667 -37.667 348 -113c88.667 -76 133 -172 133 -288zM641.001 -0.000976562h-215v250h215v-250z" />
    <glyph glyph-name="at" unicode="@" horiz-adv-x="2213" 
d="M1612 -117l84 -101.997c-221.333 -173.333 -472 -260 -752 -260c-258.667 0 -464.667 74 -618 222s-230 347.667 -230 599c0 154.667 30.667 303.334 92 446.001c61.333 143.333 143.666 267 246.999 371c103.333 105.333 228.333 189 375 251
c147.333 62 302.666 93 465.999 93c252 0 455.333 -69.333 610 -208s232 -320.334 232 -545.001c0 -119.333 -20.333 -235 -61 -347c-40.667 -112.667 -106 -209.334 -196 -290.001c-89.333 -80.667 -193 -121 -311 -121c-144 0 -229.333 62 -256 186
c-44.667 -60.667 -100 -108.334 -166 -143.001c-67.333 -35.333 -136.666 -53 -207.999 -53c-104.667 0 -187.334 36.333 -248.001 109c-61.333 72.667 -92 170 -92 292c0 185.333 66.667 341.666 200 468.999c132.667 126.667 297.334 190 494.001 190
c124 0 236 -27 336 -81l-115 -656c-9.33301 -46.667 -2.5 -84.667 20.5 -114s55.833 -44 98.5 -44c62.667 0 118.334 36.333 167.001 109c48 72.667 82.333 153.334 103 242.001c20.667 87.333 31 170.666 31 249.999c0 173.333 -60 314.333 -180 423
c-120.667 108 -280 162 -478 162c-177.333 0 -340 -45 -488 -135c-148.667 -90.667 -264.334 -210 -347.001 -358c-83.333 -149.333 -125 -309.333 -125 -480c0 -204 62 -366.667 186 -488c122.667 -120.667 292 -181 508 -181c112.667 0 224.334 17 335.001 51
c112 34.667 207.333 81.667 286 141zM1325 475.003l64 359c-60 26 -122.333 38.667 -187 38c-124 0 -225 -46 -303 -138s-117 -198.667 -117 -320c0 -83.333 19.5 -149 58.5 -197s91.833 -72 158.5 -72c79.333 0 149.333 31.333 210 94c60 61.333 98.667 140 116 236z" />
    <glyph glyph-name="A" unicode="A" horiz-adv-x="1591" 
d="M270 0h-223l639 1434h217l641 -1434h-225l-150 340h-747zM1092 518l-295 670l-297 -670h592z" />
    <glyph glyph-name="B" unicode="B" horiz-adv-x="1417" 
d="M924 0l-772 0.000976562v1434h741c110 0 199.333 -33.333 268 -100s103 -153 103 -259c0 -72.667 -16.833 -136.667 -50.5 -192s-80.5 -98.333 -140.5 -129c76 -22.667 137.667 -66.667 185 -132c46 -65.333 69 -143 69 -233c0 -116.667 -37 -210.334 -111 -281.001
c-74.667 -72 -172 -108 -292 -108zM850 653.001l-485 -0.000976562v-483h485c74.667 0 135.667 22.667 183 68c46 45.333 69 104 69 176c0 70.667 -23 128.334 -69 173.001c-47.333 44 -108.333 66 -183 66zM365 1264l0.000976562 -435h460c66 0 119.333 20.333 160 61
c41.333 40 62 92.333 62 157c0 63.333 -20.333 115.333 -61 156s-94.334 61 -161.001 61h-460z" />
    <glyph glyph-name="C" unicode="C" horiz-adv-x="1427" 
d="M1229 326l124.996 -130.997c-138 -142 -315 -213 -531 -213c-217.333 0 -393 68.333 -527 205c-134.667 135.333 -202 312 -202 530c0 216 67.667 392.667 203 530c134.667 136.667 309.334 205 524.001 205c216.667 0 394.334 -71 533.001 -213l-125 -129
c-40.667 47.333 -96.667 85.666 -168 114.999c-70 28.667 -145 43 -225 43c-152 0 -275.333 -51 -370 -153c-96 -102.667 -144 -235.334 -144 -398.001c0 -160.667 47.667 -292.334 143 -395.001c94.667 -102.667 218.334 -154 371.001 -154c80.667 0 156 14.333 226 43
c70.667 28.667 126.334 67 167.001 115z" />
    <glyph glyph-name="D" unicode="D" horiz-adv-x="1544" 
d="M725 0h-573v1434h573c216 0 392 -67 528 -201c135.333 -134 203 -306 203 -516c0 -210.667 -67.667 -382.667 -203 -516c-136 -134 -312 -201 -528 -201zM1096 327c95.333 99.333 143 229.333 143 390c0 160 -47.667 290.333 -143 391c-96 99.333 -219.667 149 -371 149
h-360v-1079h360c151.333 0 275 49.667 371 149z" />
    <glyph glyph-name="E" unicode="E" horiz-adv-x="1310" 
d="M152 0v1434h1036v-177h-823v-438h759v-176h-759v-465h839v-178h-1052z" />
    <glyph glyph-name="F" unicode="F" horiz-adv-x="1290" 
d="M152 0v1434h1036v-177h-823v-440h759v-176h-759v-641h-213z" />
    <glyph glyph-name="G" unicode="G" horiz-adv-x="1501" 
d="M1169 616h-368.001v177h581v-600c-138 -140.667 -318.667 -211 -542 -211c-221.333 0 -401 68 -539 204c-138 134.667 -207 311 -207 529c0 218.667 69 396.334 207 533.001c138 136 317 204 537 204c218.667 0 400 -71 544 -213l-125 -131
c-44.667 49.333 -103.667 88.333 -177 117c-72 28.667 -149.333 43 -232 43c-154 0 -280 -51.667 -378 -155c-98.667 -102.667 -148 -235.334 -148 -398.001c0 -161.333 49 -293 147 -395c98 -102.667 225.667 -154 383 -154c122.667 0 228.334 33.333 317.001 100v350z" />
    <glyph glyph-name="H" unicode="H" horiz-adv-x="1576" 
d="M365 0h-213v1434h213v-617h847v617h213v-1434h-213v641h-847v-641z" />
    <glyph glyph-name="I" unicode="I" horiz-adv-x="514" 
d="M365 1434v-1434h-213v1434h213z" />
    <glyph glyph-name="J" unicode="J" horiz-adv-x="1128" 
d="M774 496l0.000976562 937.999h213v-938c0 -154 -48.667 -278 -146 -372c-97.333 -94.667 -224.666 -142 -381.999 -142c-160.667 0 -293.334 51 -398.001 153l123 137c61.333 -69.333 149.666 -104 264.999 -104c94.667 0 172.667 30.667 234 92
c60.667 60.667 91 139.334 91 236.001z" />
    <glyph glyph-name="K" unicode="K" horiz-adv-x="1396" 
d="M365 479v-479h-213v1434h213v-676l651 676h274l-571 -588l622 -846h-241l-520 700z" />
    <glyph glyph-name="L" unicode="L" horiz-adv-x="1226" 
d="M1167 0h-1015v1434h213v-1256h802v-178z" />
    <glyph glyph-name="M" unicode="M" horiz-adv-x="1855" 
d="M356 0h-204v1434h276l500 -1010l502 1010h276v-1434h-207v1128l-491 -993h-158l-494 993v-1128z" />
    <glyph glyph-name="N" unicode="N" horiz-adv-x="1568" 
d="M356 0h-204v1434h202l858 -1094v1094h205v-1434h-205l-856 1102v-1102z" />
    <glyph glyph-name="O" unicode="O" horiz-adv-x="1660" 
d="M299 187c-136.667 136 -205 312.666 -205 529.999c0 216.667 68 393.334 204 530.001s313.333 205 532 205c218 0 395.333 -68.333 532 -205s205 -313.334 205 -530.001c0 -215.333 -68.667 -391.666 -206 -528.999s-314.333 -206 -531 -206
c-217.333 0 -394.333 68.333 -531 205zM464 1112c-94.667 -103.333 -142 -235 -142 -395s47.333 -291.333 142 -394c95.333 -103.333 217 -155 365 -155c150.667 0 273.334 51.333 368.001 154c94.667 101.333 142 233 142 395c0 161.333 -47.333 293.333 -142 396
c-95.333 103.333 -218 155 -368 155c-148.667 0 -270.334 -52 -365.001 -156z" />
    <glyph glyph-name="P" unicode="P" horiz-adv-x="1339" 
d="M365 565l-0.000976562 -565h-213v1434h671c130 0 236.333 -40 319 -120s124 -184.333 124 -313c0 -126.667 -41.333 -231 -124 -313c-83.333 -82 -189.666 -123 -318.999 -123h-458zM364.999 1257v-514h436c75.333 0 136.333 24 183 72c46 48 69 111 69 189
c0 76.667 -23.333 138 -70 184c-47.333 46 -108 69 -182 69h-436z" />
    <glyph glyph-name="Q" unicode="Q" horiz-adv-x="1660" 
d="M298 1247c136 136.667 313.333 205 532 205c218 0 395.333 -68.333 532 -205s205 -313.334 205 -530.001c0 -186.667 -51.333 -343.667 -154 -471l141 -140l-139 -139l-147 150c-124 -90 -270.333 -135 -439 -135c-219.333 0 -396.333 68.333 -531 205
c-136 136 -204 312.667 -204 530c0 216.667 68 393.334 204 530.001zM1032 629l227.998 -228c56 89.333 83.667 193.333 83 312c0 164 -47.333 298.333 -142 403c-95.333 104 -218.666 156 -369.999 156c-149.333 0 -272.666 -51.667 -369.999 -155
c-97.333 -104.667 -146 -238 -146 -400c0 -162.667 48.667 -295.667 146 -399c96.667 -104 221.667 -156 375 -156c115.333 0 213.333 31.333 294 94l-235 233z" />
    <glyph glyph-name="R" unicode="R" horiz-adv-x="1406" 
d="M365 0l-213 -0.000976562v1434h682c130 0 236 -40 318 -120c81.333 -80 122 -184.333 122 -313c0 -98 -25.667 -183.667 -77 -257c-50.667 -73.333 -120 -124.666 -208 -153.999l357 -590h-234l-340 565h-407v-565zM811 1257h-446.001v-514h446c74 0 134.333 24 181 72
c46 48 69 111 69 189c0 76.667 -23 138 -69 184c-47.333 46 -107.666 69 -180.999 69z" />
    <glyph glyph-name="S" unicode="S" horiz-adv-x="1236" 
d="M1141 391c0 -117.333 -48.6719 -214.669 -146.005 -292.002c-98 -78 -222.667 -117 -374 -117c-100.667 0 -198 17.667 -292 53c-92.667 34.667 -171 82.334 -235 143.001l109 137c46.667 -45.333 105.334 -81.166 176.001 -107.499s145 -39.5 223 -39.5
c95.333 0 173.666 20 234.999 60c60.667 38.667 91 89 91 151c0 54.667 -25 99 -75 133c-50.667 34.667 -131.667 69.334 -243 104.001c-167.333 54.667 -290.666 115.667 -369.999 183s-119 152 -119 254c0 116 44.667 211.667 134 287
c88.667 74.667 204.334 112 347.001 112c95.333 0 187 -17.333 275 -52c88.667 -34.667 161 -80.667 217 -138l-107 -138c-39.333 42 -91.666 76.667 -156.999 104c-65.333 26.667 -133.666 40 -204.999 40c-85.333 0 -155.666 -19 -210.999 -57
c-54.667 -38.667 -82 -88 -82 -148c0 -56 25.333 -101.333 76 -136c51.333 -36 133.666 -72.667 246.999 -110c164.667 -56 287.334 -116.333 368.001 -181c78.667 -62.667 118 -144.334 118 -245.001z" />
    <glyph glyph-name="T" unicode="T" horiz-adv-x="1370" 
d="M49 1257v177h1272v-177h-528v-1257h-213v1257h-531z" />
    <glyph glyph-name="U" unicode="U" horiz-adv-x="1540" 
d="M141 602l-0.000976562 832.001h213v-832c0 -134.667 38.333 -240.334 115 -317.001c76.667 -78 177 -117 301 -117s224.667 39 302 117c77.333 77.333 116 183 116 317v832h213v-832c0 -188.667 -58 -339 -174 -451c-115.333 -112.667 -267.666 -169 -456.999 -169
c-188 0 -339.667 56.333 -455 169c-116 112 -174 262.333 -174 451z" />
    <glyph glyph-name="V" unicode="V" horiz-adv-x="1570" 
d="M893 0h-217l-629 1434h223l516 -1188l514 1188h224z" />
    <glyph glyph-name="W" unicode="W" horiz-adv-x="2265" 
d="M748 0h-222l-479 1434h217l373 -1151l389 1151h215l387 -1151l375 1151h217l-481 -1434h-223l-383 1147z" />
    <glyph glyph-name="X" unicode="X" horiz-adv-x="1484" 
d="M741 586l-432 -586h-252l551 731l-524 703h254l403 -557l408 557h254l-529 -703l556 -731h-256z" />
    <glyph glyph-name="Y" unicode="Y" horiz-adv-x="1419" 
d="M602 549l-555 885h234l428 -689l430 689h233l-557 -885v-549h-213v549z" />
    <glyph glyph-name="Z" unicode="Z" horiz-adv-x="1366" 
d="M971 1257h-871v177h1170v-111l-887 -1145h899v-178h-1198v111z" />
    <glyph glyph-name="bracketleft" unicode="[" horiz-adv-x="659" 
d="M176 -307v1843h430v-127h-246v-1589h246v-127h-430z" />
    <glyph glyph-name="backslash" unicode="\" horiz-adv-x="946" 
d="M0 1483l115 53l831 -1790l-115 -53z" />
    <glyph glyph-name="bracketright" unicode="]" horiz-adv-x="659" 
d="M53 1409v127h430v-1843h-430v127h246v1589h-246z" />
    <glyph glyph-name="asciicircum" unicode="^" 
d="M614 1270l-381 -379l-90 90l471 471l471 -471l-90 -90z" />
    <glyph glyph-name="underscore" unicode="_" horiz-adv-x="1024" 
d="M1024 -229h-1024v127h1024v-127z" />
    <glyph glyph-name="grave" unicode="`" horiz-adv-x="624" 
d="M444 1165l-342 258l121 121l299 -301z" />
    <glyph glyph-name="a" unicode="a" horiz-adv-x="1150" 
d="M111 276c0 102.667 47.001 186.335 141.001 251.002c94 64 216 96 366 96c76 0 141.667 -7 197 -21v80c0 56 -23.667 101.667 -71 137c-48.667 35.333 -111 53 -187 53c-122.667 0 -228.334 -35.333 -317.001 -106l-99 119c48 47.333 112 85.333 192 114
c79.333 28.667 161 43 245 43c128.667 0 233.667 -32.667 315 -98c80.667 -64.667 121 -149.334 121 -254.001v-690h-199v166c-36.667 -57.333 -86.167 -102.333 -148.5 -135s-130.833 -49 -205.5 -49c-102.667 0 -186.667 27.667 -252 83s-98 125.666 -98 210.999z
M635.001 487.001c-92.667 0 -168.667 -18 -228 -54c-60 -36 -90 -82 -90 -138c0 -43.333 19.667 -79.666 59 -108.999c38.667 -28.667 88 -43 148 -43c86 0 156 30.667 210 92s81 136.666 81 225.999c-56 17.333 -116 26 -180 26z" />
    <glyph glyph-name="b" unicode="b" horiz-adv-x="1208" 
d="M141 57v1428h199v-608c35.333 52 82.666 92.5 141.999 121.5s123.333 43.5 192 43.5c134 0 243 -46 327 -138c83.333 -92.667 125 -211 125 -355c0 -169.333 -57 -306 -171 -410c-113.333 -104.667 -261.666 -157 -444.999 -157c-137.333 0 -260.333 25 -369 75zM340 549
l-0.000976562 -363c58 -22 123.667 -32.667 197 -32c112.667 0 203.334 35.333 272.001 106c69.333 70.667 104 162.334 104 275.001c0 99.333 -26.667 181.666 -80 246.999c-54 64.667 -122.667 97 -206 97s-152 -31 -206 -93c-54 -62.667 -81 -141.667 -81 -237z" />
    <glyph glyph-name="c" unicode="c" horiz-adv-x="1085" 
d="M897 246l117.002 -117c-94.667 -98 -222.334 -147 -383.001 -147c-162 0 -293.667 49.667 -395 149s-152 227 -152 383c0 154.667 50.667 281.667 152 381c101.333 98 232.333 147 393 147c158.667 0 287 -49 385 -147l-117 -117c-62.667 62.667 -147.334 94 -254.001 94
c-102.667 0 -186 -33.333 -250 -100s-96 -152.667 -96 -258c0 -108 32 -195 96 -261s147.333 -99 250 -99c108 0 192.667 30.667 254 92z" />
    <glyph glyph-name="d" unicode="d" horiz-adv-x="1226" 
d="M520 -18c-130 0 -235.001 46.666 -315.001 139.999c-80.667 92.667 -121 213.667 -121 363c0 166 50.333 300.333 151 403c100 102.667 230.667 154 392 154c100.667 0 187.334 -19.667 260.001 -59v502h198v-1485h-198v182c-30.667 -59.333 -80 -107.666 -148 -144.999
c-67.333 -36.667 -140.333 -55 -219 -55zM652.999 871.999c-106.667 0 -192.666 -34.668 -257.999 -104.001s-98 -160 -98 -272c0 -103.333 27.333 -186.666 82 -249.999c55.333 -64 125.666 -96 210.999 -96c86 0 157 32.667 213 98s84 148 84 248v317
c-73.333 39.333 -151.333 59 -234 59z" />
    <glyph glyph-name="e" unicode="e" horiz-adv-x="1183" 
d="M1096 446l-802.999 -0.000976562c4.66699 -86 42.667 -156 114 -210c69.333 -54.667 156.333 -82 261 -82c117.333 0 208 30 272 90l111 -109c-103.333 -103.333 -239.333 -154.333 -408 -153c-166 0 -300.333 50.333 -403 151c-104 100 -156 230.333 -156 391
c0 152 47.333 276.333 142 373c94 96.667 216 145 366 145c149.333 0 271.666 -49 366.999 -147c94 -98 141 -226.333 141 -385c0 -29.333 -1.33301 -50.666 -4 -63.999zM297.001 595.999l597.999 -0.000976562c-3.33301 82 -31.333 149 -84 201
c-53.333 51.333 -121.666 77 -204.999 77c-84 0 -154.333 -25.333 -211 -76c-57.333 -51.333 -90 -118.666 -98 -201.999z" />
    <glyph glyph-name="f" unicode="f" horiz-adv-x="835" 
d="M233 868h-194v156h194v125c0 104 32 189 96 255c63.333 66 145.333 99 246 99c105.333 0 193 -38 263 -114l-103 -119c-39.333 39.333 -86.333 59 -141 59c-48 0 -87 -15.667 -117 -47s-45 -72.333 -45 -123v-135h365v-156h-365v-868h-199v868z" />
    <glyph glyph-name="g" unicode="g" horiz-adv-x="1208" 
d="M532 -18c-134 0 -242.003 45.6641 -324.003 136.997c-82.667 90.667 -124 209.334 -124 356.001c0 168.667 56.667 305.667 170 411c112.667 104 261.334 156 446.001 156c137.333 0 260.333 -25 369 -75v-959c0 -142.667 -49.667 -259.667 -149 -351
c-99.333 -90.667 -228.666 -136 -387.999 -136c-163.333 0 -296.333 49.667 -399 149l115 115c66.667 -62.667 155.334 -94 266.001 -94c106 0 191.667 29.333 257 88c66 58.667 99 134.334 99 227.001v141c-36 -51.333 -84.167 -91.666 -144.5 -120.999
s-124.833 -44 -193.5 -44zM669.997 871.997c-112 0 -202 -34.999 -270 -104.999c-68.667 -69.333 -103 -162 -103 -278c0 -100.667 26.667 -183.334 80 -248.001c52.667 -64 121 -96 205 -96c82.667 0 151.667 31.667 207 95c54 62.667 81 141.667 81 237v363
c-66 21.333 -132.667 32 -200 32z" />
    <glyph glyph-name="h" unicode="h" horiz-adv-x="1230" 
d="M340 0h-198.999v1485h199v-643c38 62.667 88.667 111.667 152 147s132.666 53 207.999 53c118 0 214.333 -36.667 289 -110c74 -74 111 -169.667 111 -287v-645h-199v606c0 80 -23.667 145.333 -71 196c-48 50 -110.333 75 -187 75c-90 0 -163 -34 -219 -102
c-56 -68.667 -84 -155.667 -84 -261v-514z" />
    <glyph glyph-name="i" unicode="i" horiz-adv-x="479" 
d="M340 0h-199v1024h199v-1024zM340 1231h-199v203h199v-203z" />
    <glyph glyph-name="j" unicode="j" horiz-adv-x="503" 
d="M-240 -373l103 118.999c34 -34 79.667 -51 137 -51c49.333 0 89.333 17.333 120 52s46 80 46 136v1141h199v-1149c0 -103.333 -32 -187.666 -96 -252.999c-64.667 -64.667 -149 -97 -253 -97c-102.667 0 -188 34 -256 102zM365 1434v-203h-199v203h199z" />
    <glyph glyph-name="k" unicode="k" horiz-adv-x="1126" 
d="M141 0v1485h199v-924l434 463h240l-383 -406l442 -618h-215l-350 487l-168 -178v-309h-199z" />
    <glyph glyph-name="l" unicode="l" horiz-adv-x="591" 
d="M510 186l91.999 -118c-55.333 -57.333 -122.333 -86 -201 -86c-76.667 0 -139 24.333 -187 73c-48.667 48 -73 110.333 -73 187v1243h199v-1229c0 -30 8.5 -54.167 25.5 -72.5s40.5 -27.5 70.5 -27.5c28.667 -0.666992 53.334 9.33301 74.001 30z" />
    <glyph glyph-name="m" unicode="m" horiz-adv-x="1849" 
d="M340 565v-565h-199v1024h199v-139c75.333 106 181.666 158.333 318.999 157c74.667 0 140.5 -16.833 197.5 -50.5s99.833 -80.167 128.5 -139.5c36.667 60 86.5 106.667 149.5 140s132.5 50 208.5 50c114 0 205.333 -36 274 -108c68.667 -72.667 103 -167 103 -283v-651
h-198v649c0 68.667 -20.333 123.667 -61 165c-40.667 42 -95 63 -163 63c-78 0 -142 -28 -192 -84c-50.667 -55.333 -76 -128 -76 -218v-575h-199v649c0 68.667 -20.333 123.667 -61 165c-41.333 42 -94.666 63 -159.999 63c-78 0 -142.333 -29.333 -193 -88
c-51.333 -59.333 -77 -134 -77 -224z" />
    <glyph glyph-name="n" unicode="n" horiz-adv-x="1230" 
d="M340 0h-198.999v1024h199v-182c38 62.667 88.667 111.667 152 147s132.666 53 207.999 53c118 0 214.333 -36.667 289 -110c74 -74 111 -169.667 111 -287v-645h-199v606c0 80 -23.667 145.333 -71 196c-48 50 -110.333 75 -187 75c-90 0 -163 -34 -219 -102
c-56 -68.667 -84 -155.667 -84 -261v-514z" />
    <glyph glyph-name="o" unicode="o" horiz-adv-x="1251" 
d="M236 131c-101.333 99.333 -152.002 226.334 -152.002 381.001c0 155.333 50.667 282.666 152 381.999c100.667 98.667 231 148 391 148s290.333 -49.333 391 -148s151 -226 151 -382c0 -155.333 -50.333 -282.333 -151 -381
c-101.333 -99.333 -231.666 -149 -390.999 -149s-289.666 49.667 -390.999 149zM388.998 772.001c-61.333 -67.333 -92 -154 -92 -260s30.667 -192.333 92 -259c60.667 -66 140 -99 238 -99c96.667 0 175.667 33 237 99c61.333 66.667 92 153 92 259
s-30.667 192.667 -92 260c-60.667 66.667 -139.667 100 -237 100c-98 0 -177.333 -33.333 -238 -100z" />
    <glyph glyph-name="p" unicode="p" horiz-adv-x="1226" 
d="M340 -461h-198.999v1485h199v-184c30.667 60 80 108.667 148 146c67.333 37.333 140.333 56 219 56c129.333 0 234.666 -46.667 315.999 -140c80 -93.333 120 -214.333 120 -363c0 -164.667 -50 -298.667 -150 -402c-101.333 -103.333 -233 -155 -395 -155
c-100.667 0 -186.667 19.667 -258 59v-502zM340.001 528v-317c73.333 -39.333 151 -59 233 -59c106.667 0 193 34.667 259 104c65.333 69.333 98 160.666 98 273.999c0 102.667 -27.333 186.334 -82 251.001c-54.667 64 -125 96 -211 96c-88 0 -159.333 -32.333 -214 -97
c-55.333 -65.333 -83 -149.333 -83 -252z" />
    <glyph glyph-name="q" unicode="q" horiz-adv-x="1208" 
d="M535 -18c-134 0 -242.667 46 -326 138c-83.333 92.667 -125 211.667 -125 357c0 168 56.333 304.333 169 409c112.667 104 259.667 156 441 156c142 0 267 -25 375 -75v-1428h-199v608c-36.667 -52 -84.667 -92.5 -144 -121.5s-123 -43.5 -191 -43.5zM672 872
c-112 0 -202.333 -35.335 -271 -106.002c-69.333 -71.333 -104 -163.666 -104 -276.999c0 -99.333 26.667 -181.666 80 -246.999c52.667 -64.667 121 -97 205 -97c83.333 0 152.333 31.333 207 94c54 62 81 140.667 81 236v363c-62 22.667 -128 34 -198 34z" />
    <glyph glyph-name="r" unicode="r" horiz-adv-x="763" 
d="M340 0h-199v1024h199v-246c36.667 84 88.5 149 155.5 195s143.5 69 229.5 69v-192c-114 0 -206.333 -34 -277 -102c-72 -69.333 -108 -157 -108 -263v-485z" />
    <glyph glyph-name="s" unicode="s" horiz-adv-x="964" 
d="M879 291c0 -92 -37.666 -166.668 -112.999 -224.001c-74.667 -56.667 -174.334 -85 -299.001 -85c-150.667 0 -279.667 47.667 -387 143l102 117c73.333 -61.333 167 -92 281 -92c68 0 122.5 11.833 163.5 35.5s61.5 54.834 61.5 93.501c0 36.667 -17.667 65 -53 85
c-36.667 20 -92 41.333 -166 64c-8 2.66699 -14.667 4.66699 -20 6c-48 14 -89.667 28.333 -125 43c-34 14 -68.667 32.333 -104 55c-74 46.667 -111 117 -111 211c0 91.333 34.667 164 104 218c68.667 54 162.334 81 281.001 81c142.667 0 260.667 -45 354 -135l-103 -119
c-64.667 57.333 -146.334 86 -245.001 86c-60 0 -108.5 -10.833 -145.5 -32.5s-55.5 -50.167 -55.5 -85.5c0 -28 13 -52.333 39 -73c26.667 -22 51 -36.667 73 -44c12.667 -4.66699 49.667 -17 111 -37c47.333 -13.333 83 -24.333 107 -33c24 -8 55 -21.667 93 -41
c36.667 -19.333 64.667 -38.666 84 -57.999c48.667 -48.667 73 -108.334 73 -179.001z" />
    <glyph glyph-name="t" unicode="t" horiz-adv-x="878" 
d="M432 1300l0.000976562 -276h340v-156h-340v-551c0 -48 14.333 -86.833 43 -116.5s66.334 -44.5 113.001 -44.5c53.333 0 97.666 17.667 132.999 53l98 -98c-60.667 -86 -149.334 -129 -266.001 -129c-92.667 0 -169 29 -229 87c-60.667 58 -91 132 -91 222v577h-194v156
h194v199z" />
    <glyph glyph-name="u" unicode="u" horiz-adv-x="1234" 
d="M141 379l-0.000976562 645.001h199v-606c0 -80 23.667 -145.333 71 -196c47.333 -50 109 -75 185 -75c88.667 0 161 34.333 217 103c56 68 84 154.667 84 260v514h199v-1024h-199v184c-38 -63.333 -88.667 -112.833 -152 -148.5s-132.666 -53.5 -207.999 -53.5
c-118 0 -213.333 37 -286 111c-73.333 73.333 -110 168.666 -110 285.999z" />
    <glyph glyph-name="v" unicode="v" horiz-adv-x="1157" 
d="M477 0l-440 1024h205l338 -801l335 801h205l-442 -1024h-201z" />
    <glyph glyph-name="w" unicode="w" horiz-adv-x="1669" 
d="M578 0h-187l-354 1024h194l258 -770l256 770h179l254 -770l260 770h196l-358 -1024h-186l-254 754z" />
    <glyph glyph-name="x" unicode="x" horiz-adv-x="1155" 
d="M578 393l-289 -393h-236l400 524l-377 500h233l269 -371l266 371h237l-381 -500l402 -524h-236z" />
    <glyph glyph-name="y" unicode="y" horiz-adv-x="1155" 
d="M915 1024h203.001l-518 -1219c-41.333 -94 -89.333 -164.833 -144 -212.5s-120.667 -71.5 -198 -71.5c-84.667 0 -158.334 29.333 -221.001 88l100 123c30 -26 65 -39 105 -39c73.333 0 137.333 60 192 180l58 125l-455 1026h203l346 -801z" />
    <glyph glyph-name="z" unicode="z" horiz-adv-x="1048" 
d="M688 868h-590v156h869v-98l-602 -770h612v-156h-889v98z" />
    <glyph glyph-name="braceleft" unicode="{" horiz-adv-x="659" 
d="M276 -10l-0.000976562 340.002c0 63.333 -17.667 116.333 -53 159c-35.333 41.333 -80.333 62 -135 62v127c55.333 0 100.333 21.333 135 64c35.333 42.667 53 97 53 163v330c0 94.667 31.333 171.334 94 230.001c62.667 59.333 143.334 89 242.001 89v-127
c-45.333 0 -81.833 -14.833 -109.5 -44.5s-41.5 -68.5 -41.5 -116.5v-338c0 -72.667 -15.333 -138.334 -46 -197.001c-31.333 -59.333 -70.666 -98.333 -117.999 -117c47.333 -18.667 86.666 -56.334 117.999 -113.001c30.667 -56.667 46 -119.334 46 -188.001v-354
c0 -46.667 14 -84.667 42 -114s64.333 -44 109 -44v-127c-100.667 0 -181.667 29.333 -243 88c-62 58.667 -93 134.667 -93 228z" />
    <glyph glyph-name="bar" unicode="|" horiz-adv-x="561" 
d="M344 1536v-1843h-127v1843h127z" />
    <glyph glyph-name="braceright" unicode="}" horiz-adv-x="659" 
d="M47 -326v126.998c45.333 0 82 14.667 110 44s42 67.333 42 114v354c0 68.667 15.333 131.334 46 188.001c30.667 56 69.667 93.667 117 113c-48 18.667 -87 57.667 -117 117c-30.667 58.667 -46 124.334 -46 197.001v338c0 48 -14 86.833 -42 116.5
s-64.667 44.5 -110 44.5v127c99.333 0 180.333 -29.667 243 -89c62 -59.333 93 -136 93 -230v-330c0 -66 17.667 -120.333 53 -163c34.667 -42.667 79.667 -64 135 -64v-127c-54.667 0 -99.667 -20.667 -135 -62c-35.333 -42.667 -53 -95.667 -53 -159v-340
c0 -93.333 -31 -169.333 -93 -228c-61.333 -58.667 -142.333 -88 -243 -88z" />
    <glyph glyph-name="asciitilde" unicode="~" 
d="M432 719c-42 0 -76.333 -13.665 -103 -40.998s-40 -62.333 -40 -105h-156c0 88.667 27 161 81 217s124.667 84 212 84c55.333 0 104.333 -12.333 147 -37c38.667 -22.667 78 -48.334 118 -77.001c36 -26 72 -39 108 -39c40.667 0 74 13.333 100 40s39 61 39 103h156
c0 -88.667 -27 -161 -81 -217s-124 -84 -210 -84c-39.333 0 -77.5 7.66699 -114.5 23s-67.5 33.666 -91.5 54.999c-57.333 52 -112.333 78 -165 78z" />
    <glyph glyph-name="exclamdown" unicode="&#xa1;" horiz-adv-x="485" 
d="M135 1024h215v-250h-215v250zM158 580h170l22 -990h-213z" />
    <glyph glyph-name="cent" unicode="&#xa2;" horiz-adv-x="1085" 
d="M84 514c0 141.333 42.333 259.669 127 355.002c86 96 197.333 152.333 334 169v191h127v-189c139.333 -8 253.333 -56.333 342 -145l-117 -117c-55.333 55.333 -130.333 86.666 -225 93.999c-56 0 -98.333 -4 -127 -12c-74.667 -18.667 -134.667 -59.334 -180 -122.001
s-68 -137.334 -68 -224.001c0 -105.333 31.667 -191.666 95 -258.999s147 -101 251 -101h29c96 7.33301 171 38 225 92l117 -117c-85.333 -88.667 -199.333 -137 -342 -145v-189h-127v193c-140 18 -251.667 74.333 -335 169c-84 95.333 -126 214.333 -126 357z" />
    <glyph glyph-name="sterling" unicode="&#xa3;" horiz-adv-x="1212" 
d="M246 596l-171.999 -0.00195312v133h172v242c0 142.667 46.333 258.334 139 347.001c93.333 89.333 214.333 134 363 134c156 0 286.333 -51.333 391 -154l-123 -137c-62.667 70.667 -149.334 106.334 -260.001 107.001c-88 0 -159.667 -27.667 -215 -83
c-54.667 -54.667 -82 -126 -82 -214v-242h356v-133h-356v-432h645v-164h-1030v164h172v432z" />
    <glyph glyph-name="currency" unicode="&#xa4;" 
d="M324 918l-166 165l90 91l166 -166c58.667 36.667 124.667 55 198 55c76.667 0 144.334 -18.333 203.001 -55l166 166l90 -91l-166 -165c37.333 -56.667 56.666 -124.334 57.999 -203.001c0 -78 -19.333 -144.333 -58 -199l166 -166l-90 -90l-166 166
c-57.333 -38 -125 -57 -203 -57c-76 0 -142.667 18.333 -200 55l-164 -164l-90 90l164 164c-36 58 -54.667 125 -56 201c0 78.667 19.333 146.334 58 203.001zM614 487c68 0 122.667 21.668 164 65.001s62 98.333 62 165c0 97.333 -38.333 164.333 -115 201
c-30.667 18 -67.667 26.667 -111 26c-66.667 0 -121.334 -21 -164.001 -63c-43.333 -43.333 -65 -98 -65 -164c0 -64.667 21.667 -119.334 65 -164.001c42.667 -44 97.334 -66 164.001 -66z" />
    <glyph glyph-name="yen" unicode="&#xa5;" horiz-adv-x="1419" 
d="M319 651h220l-492 783h234l428 -689l430 689h233l-493 -783h211v-127h-275v-174h275v-127h-275v-223h-213v223h-283v127h283v174h-283v127z" />
    <glyph glyph-name="brokenbar" unicode="&#xa6;" horiz-adv-x="561" 
d="M344 1536v-717h-127v717h127zM217 -307v717h127v-717h-127z" />
    <glyph glyph-name="section" unicode="&#xa7;" horiz-adv-x="985" 
d="M82 125l102.004 116.999c73.333 -61.333 168.333 -92 285 -92c65.333 0 119 11 161 33c41.333 21.333 62 50.333 62 87c0 25.333 -11.667 48 -35 68c-5.33301 4 -16 9.83301 -32 17.5s-25 12.167 -27 13.5c-4.66699 2.66699 -11.834 5.66699 -21.501 9
s-20.5 6.83301 -32.5 10.5s-20 6.16699 -24 7.5c-58.667 17.333 -91.334 27.333 -98.001 30c-42 13.333 -77 26.333 -105 39c-27.333 11.333 -59.333 29 -96 53c-72 47.333 -108 120.333 -108 219c0 102.667 41 182 123 238c-82 56 -123 129 -123 219
c0 89.333 34.333 160.333 103 213c69.333 53.333 162.666 80 279.999 80c144 0 262.667 -45 356 -135l-104 -117c-60 56 -141.333 84 -244 84c-62 0 -111.333 -10.667 -148 -32s-55 -50.333 -55 -87c0 -41.333 26.333 -74.666 79 -99.999c28.667 -14.667 54 -25.667 76 -33
c20 -7.33301 53.667 -18.333 101 -33c46 -14.667 84.667 -28.334 116 -41.001c27.333 -11.333 60.333 -29 99 -53c74 -47.333 111 -117 111 -209c0 -99.333 -43.667 -177.666 -131 -234.999c87.333 -52 131 -124.333 131 -217c0 -88 -37.667 -159.667 -113 -215
c-74.667 -54.667 -174.334 -82 -299.001 -82c-152 0 -281.667 47.667 -389 143zM453.004 884.999c-8.66699 0 -16.333 1.99902 -23 5.99902c-42 -8 -75 -24 -99 -48s-36 -53 -36 -87c0 -44 19.667 -78.667 59 -104c40.667 -26 107 -53.667 199 -83
c45.333 9.33301 80.833 26.333 106.5 51s38.5 54.334 38.5 89.001c0 28 -10.333 53 -31 75s-46.667 39.667 -78 53c-25.333 10 -64 24 -116 42c-8 2.66699 -14.667 4.66699 -20 6z" />
    <glyph glyph-name="dieresis" unicode="&#xa8;" horiz-adv-x="839" 
d="M295 1434v-201h-193v201h193zM737 1233h-190v201h190v-201z" />
    <glyph glyph-name="copyright" unicode="&#xa9;" horiz-adv-x="1660" 
d="M311 197c-143.333 143.333 -215 316.668 -215 520.001s71.667 376.666 215 519.999s316.666 215 519.999 215c202 0 375 -72 519 -216c143.333 -144.667 215 -317.667 215 -519s-71.667 -374.333 -215 -519c-142.667 -144 -315.667 -216 -519 -216
s-376.666 71.667 -519.999 215zM402 1147c-119.333 -119.333 -179 -262.666 -179 -429.999c0 -168 59.667 -311 179 -429c118.667 -118 262 -177 430 -177c166.667 0 309.667 59 429 177c118 118 177 261 177 429c0 167.333 -59 310.666 -177 429.999
c-118.667 118.667 -261.667 178 -429 178c-168 0 -311.333 -59.333 -430 -178zM1063 516.002l79.999 -86.002c-71.333 -78 -169 -117 -293 -117c-119.333 0 -216.666 37.667 -291.999 113c-74.667 74.667 -112 171.667 -112 291c0 120.667 37.333 218.334 112 293.001
s172 112 292 112s217.667 -38.667 293 -116l-80 -84c-44.667 54.667 -113 82 -205 82c-77.333 0 -140.666 -26.667 -189.999 -80s-74 -121.666 -74 -204.999c0 -84.667 24.667 -153.667 74 -207s112.666 -80 189.999 -80c92 0 160.333 28 205 84z" />
    <glyph glyph-name="ordfeminine" unicode="&#xaa;" horiz-adv-x="825" 
d="M82 913c0 70.667 33.668 128.666 101.001 173.999s153 68 257 68c49.333 0 93.666 -4.66699 132.999 -14v53c0 36 -16.333 65.5 -49 88.5s-74.334 34.5 -125.001 34.5c-84.667 0 -157.667 -24 -219 -72l-74 90c32 32.667 76.667 59.334 134 80.001
c55.333 20.667 114 31 176 31c90 0 164 -23 222 -69c58 -47.333 87 -106.333 87 -177v-483h-152v104c-56 -78 -137 -116.667 -243 -116c-73.333 0 -132.666 19.333 -177.999 58c-46.667 38.667 -70 88.667 -70 150zM453.001 1053c-62 0 -112.333 -12 -151 -36
c-40 -24 -60 -53.667 -60 -89c0 -30 12.833 -54.333 38.5 -73s58.5 -28 98.5 -28c57.333 0 104 20 140 60c36 39.333 54 89 54 149c-42 11.333 -82 17 -120 17z" />
    <glyph glyph-name="guillemotleft" unicode="&#xab;" horiz-adv-x="1120" 
d="M573 266l-88 -90l-376 377l376 375l88 -90l-284 -285zM985 266l-88 -90l-377 377l377 375l88 -90l-285 -285z" />
    <glyph glyph-name="logicalnot" unicode="&#xac;" 
d="M897 653h-692v127h819v-411h-127v284z" />
    <glyph glyph-name="uni00AD" unicode="&#xad;" horiz-adv-x="768" 
d="M639 489h-510v127h510v-127z" />
    <glyph glyph-name="registered" unicode="&#xae;" horiz-adv-x="1660" 
d="M831 -18c-203.333 0 -376.666 71.6689 -519.999 215.002s-215 316.666 -215 519.999s71.667 376.666 215 519.999s316.666 215 519.999 215c202 0 375 -72 519 -216c143.333 -144.667 215 -317.667 215 -519s-71.667 -374.333 -215 -519c-144 -144 -317 -216 -519 -216z
M1261 1147c-118.667 118.667 -261.667 178 -429 178c-168 0 -311.333 -59.333 -430 -178c-119.333 -119.333 -179 -262.666 -179 -429.999c0 -168 59.667 -311 179 -429c118.667 -118 262 -177 430 -177c166.667 0 309.667 59 429 177c118 118 177 261 177 429
c0 167.333 -59 310.666 -177 429.999zM670 627.002l-0.000976562 -303h-140v788h379c72.667 0 132.334 -22.333 179.001 -67c46 -44.667 69 -103 69 -175c0 -112 -49.667 -187 -149 -225l190 -321h-149l-181 303h-198zM892.999 997.002h-223v-256h223
c36.667 0 66.667 12 90 36s35 55.333 35 94c0 38 -11.667 68.5 -35 91.5s-53.333 34.5 -90 34.5z" />
    <glyph glyph-name="overscore" unicode="&#xaf;" horiz-adv-x="753" 
d="M651 1378v-127h-549v127h549z" />
    <glyph glyph-name="degree" unicode="&#xb0;" horiz-adv-x="684" 
d="M159 1015c-47.333 47.333 -71.001 108.334 -71.001 183.001c0 75.333 23.667 136.666 71 183.999c46.667 46.667 107.667 70 183 70c76 0 137.333 -23.333 184 -70s70 -108 70 -184c0 -75.333 -23.333 -136.333 -70 -183c-47.333 -47.333 -108.666 -71 -183.999 -71
c-74.667 0 -135.667 23.667 -183 71zM208.999 1200c0 -40.667 12.333 -73.334 37 -98.001s56.667 -37 96 -37s71 12.333 95 37s36 57.334 36 98.001c0 38.667 -12 70.167 -36 94.5s-55.667 36.5 -95 36.5s-71.333 -12 -96 -36s-37 -55.667 -37 -95z" />
    <glyph glyph-name="plusminus" unicode="&#xb1;" 
d="M551 807h-346v127h346v346h127v-346h346v-127h-346v-346h-127v346zM1024 193h-819v126h819v-126z" />
    <glyph glyph-name="uni00B2" unicode="&#xb2;" horiz-adv-x="657" 
d="M588 748l-518 -0.00195312v94c9.33301 6.66699 22.333 16.667 39 30c26 20.667 55 45.334 87 74.001c45.333 40.667 82 77.334 110 110.001c31.333 35.333 60.333 77 87 125c26 47.333 39 90.666 39 129.999c0 83.333 -47.667 125 -143 125c-64 0 -118 -24 -162 -72
l-72 72c77.333 74 160 110.667 248 110c79.333 0 144 -21 194 -63c49.333 -43.333 74 -98.666 74 -165.999c0 -64.667 -25 -135.667 -75 -213c-52 -78 -102.667 -138 -152 -180l-76 -66h320v-110z" />
    <glyph glyph-name="uni00B3" unicode="&#xb3;" horiz-adv-x="677" 
d="M326 737c-110.667 0 -201.666 36.999 -272.999 110.999l74 76c42 -50.667 102 -76 180 -76c49.333 0 88.666 12 117.999 36s44 55.667 44 95c0 38 -14 69.333 -42 94s-64 37 -108 37h-63v100h66c36.667 0 66.5 10.333 89.5 31s34.5 47.334 34.5 80.001
c0 36 -12.167 64.167 -36.5 84.5s-58.5 30.5 -102.5 30.5c-69.333 0 -125.333 -25.333 -168 -76l-73 76c67.333 74 153.333 110.667 258 110c77.333 0 139.333 -19 186 -57s70 -87.333 70 -148c0 -87.333 -38.333 -147.333 -115 -180c92.667 -38 139 -104.667 139 -200
c0 -66.667 -25.667 -120.667 -77 -162c-52.667 -41.333 -119.667 -62 -201 -62z" />
    <glyph glyph-name="acute" unicode="&#xb4;" horiz-adv-x="622" 
d="M102 1243l299 301l119 -121l-340 -258z" />
    <glyph glyph-name="mu" unicode="&#xb5;" horiz-adv-x="1241" 
d="M342 -410h-199.001v1434h199v-606c0 -80 23.667 -145.333 71 -196c47.333 -50 109 -75 185 -75c88.667 0 161 34.333 217 103c56 68 84 154.667 84 260v514h199v-1024h-199v184c-38 -62 -86.167 -110.5 -144.5 -145.5s-120.166 -52.5 -185.499 -52.5
c-100 0 -175.667 32.667 -227 98v-494z" />
    <glyph glyph-name="paragraph" unicode="&#xb6;" horiz-adv-x="1230" 
d="M78 1001c0 128.667 41.001 233 123.001 313s187.667 120 317 120h203v-1895h-127v1026h-76c-130.667 0 -236.334 41 -317.001 123c-82 82 -123 186.333 -123 313zM1077 -461h-127v1895h127v-1895z" />
    <glyph glyph-name="middot" unicode="&#xb7;" horiz-adv-x="407" 
d="M305 600h-201v236h201v-236z" />
    <glyph glyph-name="cedilla" unicode="&#xb8;" horiz-adv-x="598" 
d="M102 -342l68 74c30.667 -34 69.667 -51 117 -51c24.667 0 44.834 5 60.501 15s23.5 24 23.5 42c0 22 -12.667 39.5 -38 52.5s-59.333 19.5 -102 19.5l23 190h111l-17 -113c44 -6.66699 79.667 -25 107 -55s41 -66 41 -108c0 -45.333 -17.667 -82 -53 -110
c-36 -28 -80.667 -42 -134 -42c-40 0 -79.333 8.16699 -118 24.5s-68.334 36.833 -89.001 61.5z" />
    <glyph glyph-name="uni00B9" unicode="&#xb9;" horiz-adv-x="520" 
d="M119 1298l-58 101l248 137h101v-788h-129v641z" />
    <glyph glyph-name="ordmasculine" unicode="&#xba;" horiz-adv-x="899" 
d="M173 808c-71.333 69.333 -107 158.334 -107 267.001c0 109.333 35.667 198.666 107 267.999c70.667 68.667 162.667 103 276 103c115.333 0 208.333 -34.333 279 -103s106 -158 106 -268c0 -109.333 -35.333 -198.333 -106 -267s-163.667 -103 -279 -103
c-113.333 0 -205.333 34.333 -276 103zM290 1250c-42 -45.333 -62.999 -103.333 -62.999 -174s21 -128.667 63 -174c41.333 -45.333 94.333 -68 159 -68c65.333 0 118.666 22.667 159.999 68c40.667 44.667 61 102.667 61 174s-20.333 129.333 -61 174s-94 67 -160 67
c-64 0 -117 -22.333 -159 -67z" />
    <glyph glyph-name="guillemotright" unicode="&#xbb;" horiz-adv-x="1120" 
d="M547 838l88 90l377 -375l-377 -377l-88 90l284 287zM135 838l88 90l377 -375l-377 -377l-88 90l285 287z" />
    <glyph glyph-name="onequarter" unicode="&#xbc;" horiz-adv-x="1617" 
d="M1327 158h-412v65l398 565h147v-530h101v-100h-101v-158h-133v158zM362 2l-147 -2l1002 1432l151 2zM119 1196l-58 100l248 138h101v-789h-129v641zM1327 616l-254 -358h254v358z" />
    <glyph glyph-name="onehalf" unicode="&#xbd;" horiz-adv-x="1699" 
d="M119 1196l-58 100l248 138h101v-789h-129v641zM1389 1434l-1006 -1432l-147 -2l1001 1432zM1628 0l-517.999 0.000976562v94c9.33301 6.66699 22.333 16.667 39 30s45.667 38.333 87 75c42.667 38.667 79.667 75 111 109c31.333 35.333 60.333 77 87 125
c26 47.333 39 90.666 39 129.999c0 83.333 -48 125 -144 125c-64 0 -118 -24 -162 -72l-71 72c77.333 74 159.666 111 246.999 111c79.333 0 144 -21 194 -63c50 -42.667 75 -98.334 75 -167.001c0 -66 -25.333 -136.667 -76 -212
c-51.333 -77.333 -102 -137.666 -152 -180.999l-75 -65h319v-111z" />
    <glyph glyph-name="threequarters" unicode="&#xbe;" horiz-adv-x="1732" 
d="M1442 158h-410v65l395 565h150v-530h98v-100h-98v-158h-135v158zM1483 1434l-1006 -1432l-147 -2l1001 1432zM53 745l74.001 76.002c42 -50.667 102 -76 180 -76c49.333 0 88.666 12 117.999 36s44 56 44 96c0 38 -14 69.333 -42 94s-64 37 -108 37h-63v100h66
c36.667 0 66.5 10.167 89.5 30.5s34.5 47.166 34.5 80.499c0 35.333 -12.167 63.166 -36.5 83.499s-58.5 30.5 -102.5 30.5c-69.333 0 -125.333 -25.333 -168 -76l-73 76c66.667 74 152.667 111 258 111c77.333 0 139.333 -19 186 -57c46.667 -38.667 70 -88 70 -148
c0 -87.333 -38.333 -147.333 -115 -180c92.667 -38 139 -105 139 -201c0 -66 -25.667 -119.667 -77 -161c-52.667 -41.333 -119.667 -62 -201 -62c-110.667 -0.666992 -201.667 36 -273 110zM1442 616.002l-252 -358h252v358z" />
    <glyph glyph-name="questiondown" unicode="&#xbf;" horiz-adv-x="1093" 
d="M100 -27c0 58 12.668 113 38.001 165c25.333 51.333 56 92.666 92 123.999c73.333 65.333 138.666 109 195.999 131l39 15l10 172h170l12 -291l-36 -12c-22.667 -9.33301 -50 -21.666 -82 -36.999c-39.333 -18.667 -74.666 -39.667 -105.999 -63
c-29.333 -22 -57 -52 -83 -90c-24.667 -36.667 -37 -76.667 -37 -120c0 -62.667 24.667 -116 74 -160c49.333 -43.333 121.666 -65 216.999 -65c126.667 0 234.667 50.667 324 152l110 -111c-132.667 -140.667 -284.667 -211 -456 -211c-142.667 0 -258.667 37.667 -348 113
c-89.333 76 -134 172 -134 288zM453.001 1024h215v-250h-215v250z" />
    <glyph glyph-name="Agrave" unicode="&#xc0;" horiz-adv-x="1591" 
d="M270 0h-223l639 1434h217l641 -1434h-225l-150 340h-747zM1092 518l-295 670l-297 -670h592zM952 1579l-78 -78l-342 258l121 121z" />
    <glyph glyph-name="Aacute" unicode="&#xc1;" horiz-adv-x="1591" 
d="M270 0h-223l639 1434h217l641 -1434h-225l-150 340h-747zM1092 518l-295 670l-297 -670h592zM1059 1759l-340 -258l-78 78l297 301z" />
    <glyph glyph-name="Acircumflex" unicode="&#xc2;" horiz-adv-x="1591" 
d="M270 0h-223l639 1434h217l641 -1434h-225l-150 340h-747zM1092 518l-295 670l-297 -670h592zM561 1522l-100 98l336 235l336 -235l-101 -98l-235 170z" />
    <glyph glyph-name="Atilde" unicode="&#xc3;" horiz-adv-x="1591" 
d="M270 0h-223l639 1434h217l641 -1434h-225l-150 340h-747zM1092 518l-295 670l-297 -670h592zM604 1561l-143 -0.000976562c0 69.333 21.333 125 64 167c42.667 41.333 97 62 163 62c26 0.666992 51.167 -4.16602 75.5 -14.499s44 -21.833 59 -34.5s30.667 -24 47 -34
s30.833 -14.333 43.5 -13c22 0 39.833 8.16699 53.5 24.5s20.5 36.833 20.5 61.5h143c0 -66 -20.667 -120.667 -62 -164c-40.667 -42.667 -95 -64 -163 -64c-48 0 -92.333 16 -133 48c-41.333 31.333 -72 47 -92 47c-23.333 0 -41.833 -7.83301 -55.5 -23.5
s-20.5 -36.5 -20.5 -62.5z" />
    <glyph glyph-name="Adieresis" unicode="&#xc4;" horiz-adv-x="1591" 
d="M270 0h-223l639 1434h217l641 -1434h-225l-150 340h-747zM1092 518l-295 670l-297 -670h592zM1114 1769v-200h-192v200h192zM670 1769v-200h-191v200h191z" />
    <glyph glyph-name="Aring" unicode="&#xc5;" horiz-adv-x="1591" 
d="M422 340l-152 -340h-223l639 1434h217l641 -1434h-225l-150 340h-747zM1092 518l-295 670l-297 -670h592zM925 1563c-34.667 -33.333 -77.334 -50.001 -128.001 -50.001c-51.333 0 -93.666 16.667 -126.999 50c-32.667 32.667 -49 75.667 -49 129
c0 52 16.333 94.333 49 127s75 49 127 49s94.667 -16.333 128 -49c33.333 -33.333 50 -75.666 50 -126.999c0 -52.667 -16.667 -95.667 -50 -129zM719 1692c0 -23.333 7.16699 -42.167 21.5 -56.5s33.166 -21.5 56.499 -21.5c22.667 0 41 7.33301 55 22
c13.333 14 20 32.5 20 55.5s-7 41.833 -21 56.5c-15.333 14 -33.333 21 -54 21c-23.333 0 -42.166 -7.33301 -56.499 -22s-21.5 -33 -21.5 -55z" />
    <glyph glyph-name="AE" unicode="&#xc6;" horiz-adv-x="2052" 
d="M465 340l-189 -340h-229l793 1434h1087v-177h-756v-438h695v-176h-695v-465h775v-178h-988v340h-493zM958 518v719l-395 -719h395z" />
    <glyph glyph-name="Ccedilla" unicode="&#xc7;" horiz-adv-x="1427" 
d="M735 -190l23.001 174.002c-197.333 12.667 -357.333 87 -480 223c-122.667 134.667 -184 304.667 -184 510c0 216.667 67.667 393.667 203 531c135.333 136 310 204 524 204c216.667 0 394.334 -71 533.001 -213l-125 -129c-40.667 47.333 -96.667 85.666 -168 114.999
c-70 28.667 -145 43 -225 43c-152 0 -275.333 -51 -370 -153c-96 -102.667 -144 -235.334 -144 -398.001c0 -160.667 47.667 -292.334 143 -395.001c94.667 -102.667 218.334 -154 371.001 -154c80 0 155 14.333 225 43c71.333 29.333 127.333 67.666 168 114.999l125 -131
c-128.667 -132.667 -291.334 -203 -488.001 -211l-12 -97c44 -6.66699 79.167 -25 105.5 -55s39.5 -66 39.5 -108c0 -45.333 -17.333 -82 -52 -110s-79.334 -42 -134.001 -42c-39.333 0 -78 8 -116 24c-38.667 16.667 -68.334 37.334 -89.001 62.001l68 74
c30.667 -34 69.667 -51 117 -51c24 0 44 5.33301 60 16s24 24.334 24 41.001c0 22 -13 39.5 -39 52.5s-60.333 19.5 -103 19.5z" />
    <glyph glyph-name="Egrave" unicode="&#xc8;" horiz-adv-x="1310" 
d="M1204 0h-1052v1434h1036v-177h-823v-438h759v-176h-759v-465h839v-178zM829 1579l-77 -78l-342 258l120 121z" />
    <glyph glyph-name="Eacute" unicode="&#xc9;" horiz-adv-x="1310" 
d="M1204 0h-1052v1434h1036v-177h-823v-438h759v-176h-759v-465h839v-178zM936 1759l-340 -258l-78 78l297 301z" />
    <glyph glyph-name="Ecircumflex" unicode="&#xca;" horiz-adv-x="1310" 
d="M152 0v1434h1036v-177h-823v-438h759v-176h-759v-465h839v-178h-1052zM674 1692l-236 -170l-100 98l336 235l336 -235l-101 -98z" />
    <glyph glyph-name="Edieresis" unicode="&#xcb;" horiz-adv-x="1310" 
d="M1204 0h-1052v1434h1036v-177h-823v-438h759v-176h-759v-465h839v-178zM356 1569v200h193v-200h-193zM991 1769v-200h-190v200h190z" />
    <glyph glyph-name="Igrave" unicode="&#xcc;" horiz-adv-x="514" 
d="M365 1434v-1434h-213v1434h213zM336 1501l-344 258l121 121l299 -301z" />
    <glyph glyph-name="Iacute" unicode="&#xcd;" horiz-adv-x="514" 
d="M365 1434v-1434h-213v1434h213zM100 1579l299 301l121 -121l-342 -258z" />
    <glyph glyph-name="Icircumflex" unicode="&#xce;" horiz-adv-x="514" 
d="M365 1434v-1434h-213v1434h213zM20 1522l-98 98l336 235l334 -235l-98 -98l-236 170z" />
    <glyph glyph-name="Idieresis" unicode="&#xcf;" horiz-adv-x="514" 
d="M365 1434v-1434h-213v1434h213zM575 1769v-200h-192v200h192zM-61 1569v200h192v-200h-192z" />
    <glyph glyph-name="Eth" unicode="&#xd0;" horiz-adv-x="1554" 
d="M160 0v653h-150v127h150v654h575c216 0 392 -67 528 -201c135.333 -134 203 -306 203 -516c0 -210.667 -67.667 -382.667 -203 -516c-136 -134 -312 -201 -528 -201h-575zM702 780v-126.999h-329v-475h362c151.333 0 274.666 49.667 369.999 149
c94.667 98.667 142 228.667 142 390s-47.333 291.666 -142 390.999c-95.333 99.333 -218.666 149 -369.999 149h-362v-477h329z" />
    <glyph glyph-name="Ntilde" unicode="&#xd1;" horiz-adv-x="1568" 
d="M356 1102v-1102h-204v1434h202l858 -1094v1094h205v-1434h-205zM592 1561l-141 -0.000976562c0 68 21.333 123.333 64 166c42 42 95.667 63 161 63c26.667 0.666992 52.167 -4.16602 76.5 -14.499s44 -21.833 59 -34.5s30.667 -24 47 -34s30.5 -14.333 42.5 -13
c22 0 39.833 8.16699 53.5 24.5s20.5 36.833 20.5 61.5h143c0 -66 -20.667 -120.667 -62 -164c-42 -42.667 -96.333 -64 -163 -64c-48 0 -92 16 -132 48c-41.333 31.333 -72.333 47 -93 47c-22 0 -40.167 -7.83301 -54.5 -23.5s-21.5 -36.5 -21.5 -62.5z" />
    <glyph glyph-name="Ograve" unicode="&#xd2;" horiz-adv-x="1660" 
d="M299 187c-136.667 136 -205 312.666 -205 529.999c0 216.667 68 393.334 204 530.001s313.333 205 532 205c218 0 395.333 -68.333 532 -205s205 -313.334 205 -530.001c0 -215.333 -68.667 -391.666 -206 -528.999s-314.333 -206 -531 -206
c-217.333 0 -394.333 68.333 -531 205zM464 1112c-94.667 -103.333 -142 -235 -142 -395s47.333 -291.333 142 -394c95.333 -103.333 217 -155 365 -155c150.667 0 273.334 51.333 368.001 154c94.667 101.333 142 233 142 395c0 161.333 -47.333 293.333 -142 396
c-95.333 103.333 -218 155 -368 155c-148.667 0 -270.334 -52 -365.001 -156zM907 1501l-342 258l121 121l299 -301z" />
    <glyph glyph-name="Oacute" unicode="&#xd3;" horiz-adv-x="1660" 
d="M299 187c-136.667 136 -205 312.666 -205 529.999c0 216.667 68 393.334 204 530.001s313.333 205 532 205c218 0 395.333 -68.333 532 -205s205 -313.334 205 -530.001c0 -215.333 -68.667 -391.666 -206 -528.999s-314.333 -206 -531 -206
c-217.333 0 -394.333 68.333 -531 205zM464 1112c-94.667 -103.333 -142 -235 -142 -395s47.333 -291.333 142 -394c95.333 -103.333 217 -155 365 -155c150.667 0 273.334 51.333 368.001 154c94.667 101.333 142 233 142 395c0 161.333 -47.333 293.333 -142 396
c-95.333 103.333 -218 155 -368 155c-148.667 0 -270.334 -52 -365.001 -156zM674 1579l297 301l121 -121l-340 -258z" />
    <glyph glyph-name="Ocircumflex" unicode="&#xd4;" horiz-adv-x="1660" 
d="M299 187c-136.667 136 -205 312.666 -205 529.999c0 216.667 68 393.334 204 530.001s313.333 205 532 205c218 0 395.333 -68.333 532 -205s205 -313.334 205 -530.001c0 -215.333 -68.667 -391.666 -206 -528.999s-314.333 -206 -531 -206
c-217.333 0 -394.333 68.333 -531 205zM464 1112c-94.667 -103.333 -142 -235 -142 -395s47.333 -291.333 142 -394c95.333 -103.333 217 -155 365 -155c150.667 0 273.334 51.333 368.001 154c94.667 101.333 142 233 142 395c0 161.333 -47.333 293.333 -142 396
c-95.333 103.333 -218 155 -368 155c-148.667 0 -270.334 -52 -365.001 -156zM594 1522l-100 98l335 235l336 -235l-100 -98l-236 170z" />
    <glyph glyph-name="Otilde" unicode="&#xd5;" horiz-adv-x="1660" 
d="M299 187c-136.667 136 -205 312.666 -205 529.999c0 216.667 68 393.334 204 530.001s313.333 205 532 205c218 0 395.333 -68.333 532 -205s205 -313.334 205 -530.001c0 -215.333 -68.667 -391.666 -206 -528.999s-314.333 -206 -531 -206
c-217.333 0 -394.333 68.333 -531 205zM464 1112c-94.667 -103.333 -142 -235 -142 -395s47.333 -291.333 142 -394c95.333 -103.333 217 -155 365 -155c150.667 0 273.334 51.333 368.001 154c94.667 101.333 142 233 142 395c0 161.333 -47.333 293.333 -142 396
c-95.333 103.333 -218 155 -368 155c-148.667 0 -270.334 -52 -365.001 -156zM713 1647c-23.333 0 -41.834 -7.83398 -55.501 -23.501s-20.5 -36.5 -20.5 -62.5h-143c0 69.333 21.333 125 64 167c42.667 41.333 97 62 163 62c26 0.666992 51.167 -4.16602 75.5 -14.499
s44 -21.833 59 -34.5s30.667 -24 47 -34s30.833 -14.333 43.5 -13c22 0 39.833 8.16699 53.5 24.5s20.5 36.833 20.5 61.5h143c0 -66 -20.667 -120.667 -62 -164c-42 -42.667 -96.333 -64 -163 -64c-47.333 0 -91.666 16 -132.999 48c-41.333 31.333 -72 47 -92 47z" />
    <glyph glyph-name="Odieresis" unicode="&#xd6;" horiz-adv-x="1660" 
d="M1361 188c-137.333 -137.333 -314.333 -206.001 -531 -206.001c-217.333 0 -394.333 68.333 -531 205c-136.667 136 -205 312.667 -205 530c0 216.667 68 393.334 204 530.001s313.333 205 532 205c218 0 395.333 -68.333 532 -205s205 -313.334 205 -530.001
c0 -215.333 -68.667 -391.666 -206 -528.999zM464 1112c-94.667 -103.333 -142 -235 -142 -395s47.333 -291.333 142 -394c95.333 -103.333 217 -155 365 -155c150.667 0 273.334 51.333 368.001 154c94.667 101.333 142 233 142 395c0 161.333 -47.333 293.333 -142 396
c-95.333 103.333 -218 155 -368 155c-148.667 0 -270.334 -52 -365.001 -156zM705 1569h-193v200h193v-200zM1147 1769v-200h-191v200h191z" />
    <glyph glyph-name="multiply" unicode="&#xd7;" 
d="M524 717l-299 299l90 90l299 -299l299 299l91 -90l-299 -299l299 -299l-91 -90l-299 299l-299 -299l-90 90z" />
    <glyph glyph-name="Oslash" unicode="&#xd8;" horiz-adv-x="1660" 
d="M170 29l130.999 154.998c-138 134.667 -207 312.334 -207 533.001c0 216.667 68 393.667 204 531c136 136 313 204 531 204c164 0 309 -41 435 -123l133 158l96 -82l-133 -158c138 -135.333 207 -312 207 -530c0 -215.333 -68.667 -391.666 -206 -528.999
s-314.666 -206 -531.999 -206c-162.667 0 -306.667 40.667 -432 122l-131 -155zM439.999 349.998l693.001 821.001c-85.333 63.333 -186.666 95.666 -303.999 96.999c-148.667 0 -270.334 -52 -365.001 -156c-94.667 -103.333 -142 -235 -142 -395
c-0.666992 -146 38.666 -268.333 117.999 -367zM1223 1083l-693.001 -821c85.333 -62.667 185 -94 299 -94c150.667 0 273.334 51.333 368.001 154c94.667 101.333 142 233 142 395c0.666992 143.333 -38 265.333 -116 366z" />
    <glyph glyph-name="Ugrave" unicode="&#xd9;" horiz-adv-x="1540" 
d="M141 602l-0.000976562 832.001h213v-832c0 -134.667 38.333 -240.334 115 -317.001c76.667 -78 177 -117 301 -117s224.667 39 302 117c77.333 77.333 116 183 116 317v832h213v-832c0 -188.667 -58 -339 -174 -451c-115.333 -112.667 -267.666 -169 -456.999 -169
c-188 0 -339.667 56.333 -455 169c-116 112 -174 262.333 -174 451zM925.999 1579l-78 -78l-342 258l121 121z" />
    <glyph glyph-name="Uacute" unicode="&#xda;" horiz-adv-x="1540" 
d="M770 -18c-188 0 -339.668 56.334 -455.001 169.001c-116 112 -174 262.333 -174 451v832h213v-832c0 -134.667 38.333 -240.334 115 -317.001c76.667 -78 177 -117 301 -117s224.667 39 302 117c77.333 77.333 116 183 116 317v832h213v-832
c0 -188.667 -58 -339 -174 -451c-115.333 -112.667 -267.666 -169 -456.999 -169zM1032 1759l-340 -258l-78 78l297 301z" />
    <glyph glyph-name="Ucircumflex" unicode="&#xdb;" horiz-adv-x="1540" 
d="M141 602l-0.000976562 832.001h213v-832c0 -134.667 38.333 -240.334 115 -317.001c76.667 -78 177 -117 301 -117s224.667 39 302 117c77.333 77.333 116 183 116 317v832h213v-832c0 -188.667 -58 -339 -174 -451c-115.333 -112.667 -267.666 -169 -456.999 -169
c-188 0 -339.667 56.333 -455 169c-116 112 -174 262.333 -174 451zM769.999 1692l-235 -170l-101 98l336 235l336 -235l-100 -98z" />
    <glyph glyph-name="Udieresis" unicode="&#xdc;" horiz-adv-x="1540" 
d="M770 -18c-188 0 -339.668 56.334 -455.001 169.001c-116 112 -174 262.333 -174 451v832h213v-832c0 -134.667 38.333 -240.334 115 -317.001c76.667 -78 177 -117 301 -117s224.667 39 302 117c77.333 77.333 116 183 116 317v832h213v-832
c0 -188.667 -58 -339 -174 -451c-115.333 -112.667 -267.666 -169 -456.999 -169zM644.999 1769v-200h-192v200h192zM896.999 1569v200h190v-200h-190z" />
    <glyph glyph-name="Yacute" unicode="&#xdd;" horiz-adv-x="1419" 
d="M602 0v549l-555 885h234l428 -689l430 689h233l-557 -885v-549h-213zM631 1501l-76 78l297 301l121 -121z" />
    <glyph glyph-name="Thorn" unicode="&#xde;" horiz-adv-x="1277" 
d="M365 287l0.000976562 -287h-213v1434h213v-281h399c130 0 236 -40 318 -120c81.333 -80 122 -184 122 -312c0 -127.333 -41 -231.333 -123 -312c-82.667 -81.333 -188.334 -122 -317.001 -122h-399zM741.001 977l-376 0.000976562v-514h376c74 0 134.333 24.333 181 73
c46 48 69 110.333 69 187c0 75.333 -23 136.666 -69 183.999c-46.667 46.667 -107 70 -181 70z" />
    <glyph glyph-name="germandbls" unicode="&#xdf;" horiz-adv-x="1296" 
d="M1212 317c0 -97.333 -36.333 -177.331 -109 -239.998c-73.333 -63.333 -166.666 -95 -279.999 -95c-142.667 0 -261.334 51 -356.001 153l102 115c62.667 -66.667 145.334 -100 248.001 -100c59.333 0 108.666 13 147.999 39c38 24.667 57 57.334 57 98.001
c0 25.333 -10.667 48.666 -32 69.999c-20 19.333 -41 34.666 -63 45.999c-8 4 -43.333 19.333 -106 46c-12.667 4.66699 -20.667 8 -24 10c-41.333 16 -73.666 30 -96.999 42c-28.667 14.667 -57.334 33.334 -86.001 56.001c-64 48 -96 119.667 -96 215
c0 51.333 11.667 98.666 35 141.999c22 40 47.333 72.333 76 97c28.667 23.333 54 49.333 76 78c22.667 28.667 34 58.334 34 89.001c0 41.333 -19 77.666 -57 108.999c-37.333 30.667 -83 46 -137 46c-60 0 -109 -19.333 -147 -58c-38.667 -38.667 -58 -87.667 -58 -147
v-1128h-199v1118c0 114.667 36.667 207.667 110 279c72.667 70.667 168.667 106 288 106c114 0 208.333 -31 283 -93s112 -137.333 112 -226c0 -44.667 -11.667 -86.334 -35 -125.001c-22.667 -38 -48.334 -68.333 -77.001 -91c-28 -22.667 -53.333 -49 -76 -79
c-23.333 -30.667 -35 -60.667 -35 -90c0 -37.333 15.5 -68.166 46.5 -92.499s83.5 -51.5 157.5 -81.5l71 -30c14.667 -6 36.334 -16 65.001 -30c32.667 -16.667 55 -30.667 67 -42c47.333 -45.333 75.333 -85.333 84 -120c6.66699 -24.667 10 -53.334 10 -86.001z" />
    <glyph glyph-name="agrave" unicode="&#xe0;" horiz-adv-x="1150" 
d="M461 -18c-102.667 0 -186.666 27.668 -251.999 83.001s-98 125.666 -98 210.999c0 102.667 47 186.334 141 251.001c94 64 216 96 366 96c76 0 141.667 -7 197 -21v80c0 56 -23.667 101.667 -71 137c-48.667 35.333 -111 53 -187 53
c-122.667 0 -228.334 -35.333 -317.001 -106l-99 119c48 47.333 112 85.333 192 114c79.333 28.667 161 43 245 43c128.667 0 233.667 -32.667 315 -98c80.667 -64.667 121 -149.334 121 -254.001v-690h-199v166c-36.667 -58 -86 -103.167 -148 -135.5
s-130.667 -48.5 -206 -48.5zM317.001 295.001c0 -43.333 19.667 -79.666 59 -108.999c38.667 -28.667 88 -43 148 -43c86 0 156 30.667 210 92s81 136.666 81 225.999c-56 18 -116 26.667 -180 26c-92.667 0 -168.667 -18 -228 -54c-60 -36 -90 -82 -90 -138zM643.001 1165
l-344 258l121 121l299 -301z" />
    <glyph glyph-name="aacute" unicode="&#xe1;" horiz-adv-x="1150" 
d="M461 -18c-102.667 0 -186.666 27.668 -251.999 83.001s-98 125.666 -98 210.999c0 102.667 47 186.334 141 251.001c94 64 216 96 366 96c76 0 141.667 -7 197 -21v80c0 56 -23.667 101.667 -71 137c-48.667 35.333 -111 53 -187 53
c-122.667 0 -228.334 -35.333 -317.001 -106l-99 119c48 47.333 112 85.333 192 114c79.333 28.667 161 43 245 43c128.667 0 233.667 -32.667 315 -98c80.667 -64.667 121 -149.334 121 -254.001v-690h-199v166c-36.667 -58 -86 -103.167 -148 -135.5
s-130.667 -48.5 -206 -48.5zM317.001 295.001c0 -43.333 19.667 -79.666 59 -108.999c38.667 -28.667 88 -43 148 -43c86 0 156 30.667 210 92s81 136.666 81 225.999c-56 18 -116 26.667 -180 26c-92.667 0 -168.667 -18 -228 -54c-60 -36 -90 -82 -90 -138zM827.001 1423
l-342 -258l-77 78l299 301z" />
    <glyph glyph-name="acircumflex" unicode="&#xe2;" horiz-adv-x="1150" 
d="M111 276c0 102.667 47.001 186.335 141.001 251.002c94 64 216 96 366 96c76 0 141.667 -7 197 -21v80c0 56 -23.667 101.667 -71 137c-48.667 35.333 -111 53 -187 53c-122.667 0 -228.334 -35.333 -317.001 -106l-99 119c48 47.333 112 85.333 192 114
c79.333 28.667 161 43 245 43c128.667 0 233.667 -32.667 315 -98c80.667 -64.667 121 -149.334 121 -254.001v-690h-199v166c-36.667 -57.333 -86.167 -102.333 -148.5 -135s-130.833 -49 -205.5 -49c-102.667 0 -186.667 27.667 -252 83s-98 125.666 -98 210.999z
M635.001 487.001c-92.667 0 -168.667 -18 -228 -54c-60 -36 -90 -82 -90 -138c0 -43.333 19.667 -79.666 59 -108.999c38.667 -28.667 88 -43 148 -43c86 0 156 30.667 210 92s81 136.666 81 225.999c-56 17.333 -116 26 -180 26zM328.001 1186l-99 98l334 236l336 -236
l-98 -98l-238 170z" />
    <glyph glyph-name="atilde" unicode="&#xe3;" horiz-adv-x="1150" 
d="M111 276c0 102.667 47.001 186.335 141.001 251.002c94 64 216 96 366 96c76 0 141.667 -7 197 -21v80c0 56 -23.667 101.667 -71 137c-48.667 35.333 -111 53 -187 53c-122.667 0 -228.334 -35.333 -317.001 -106l-99 119c48 47.333 112 85.333 192 114
c79.333 28.667 161 43 245 43c128.667 0 233.667 -32.667 315 -98c80.667 -64.667 121 -149.334 121 -254.001v-690h-199v166c-36.667 -57.333 -86.167 -102.333 -148.5 -135s-130.833 -49 -205.5 -49c-102.667 0 -186.667 27.667 -252 83s-98 125.666 -98 210.999z
M635.001 487.001c-92.667 0 -168.667 -18 -228 -54c-60 -36 -90 -82 -90 -138c0 -43.333 19.667 -79.666 59 -108.999c38.667 -28.667 88 -43 148 -43c86 0 156 30.667 210 92s81 136.666 81 225.999c-56 17.333 -116 26 -180 26zM373.001 1225l-144.001 -0.000976562
c0 68 21.333 123.333 64 166c42 42 96 63 162 63c26.667 0.666992 52.167 -4.16602 76.5 -14.499s44 -21.833 59 -34.5s30.667 -24 47 -34s30.5 -14.333 42.5 -13c22 0 40.167 8.16699 54.5 24.5s21.5 36.833 21.5 61.5h141c0 -66 -20.667 -120.333 -62 -163
c-42 -42.667 -95.667 -64 -161 -64c-47.333 0 -91.666 15.667 -132.999 47s-72 47 -92 47c-23.333 0 -41.833 -7.83301 -55.5 -23.5s-20.5 -36.5 -20.5 -62.5z" />
    <glyph glyph-name="adieresis" unicode="&#xe4;" horiz-adv-x="1150" 
d="M461 -18c-102.667 0 -186.666 27.668 -251.999 83.001s-98 125.666 -98 210.999c0 102.667 47 186.334 141 251.001c94 64 216 96 366 96c76 0 141.667 -7 197 -21v80c0 56 -23.667 101.667 -71 137c-48.667 35.333 -111 53 -187 53
c-122.667 0 -228.334 -35.333 -317.001 -106l-99 119c48 47.333 112 85.333 192 114c79.333 28.667 161 43 245 43c128.667 0 233.667 -32.667 315 -98c80.667 -64.667 121 -149.334 121 -254.001v-690h-199v166c-36.667 -58 -86 -103.167 -148 -135.5
s-130.667 -48.5 -206 -48.5zM317.001 295.001c0 -43.333 19.667 -79.666 59 -108.999c38.667 -28.667 88 -43 148 -43c86 0 156 30.667 210 92s81 136.666 81 225.999c-56 18 -116 26.667 -180 26c-92.667 0 -168.667 -18 -228 -54c-60 -36 -90 -82 -90 -138zM438.001 1233
h-192v201h192v-201zM690.001 1233v201h191v-201h-191z" />
    <glyph glyph-name="aring" unicode="&#xe5;" horiz-adv-x="1150" 
d="M111 276c0 102.667 47.001 186.335 141.001 251.002c94 64 216 96 366 96c76 0 141.667 -7 197 -21v80c0 56 -23.667 101.667 -71 137c-48.667 35.333 -111 53 -187 53c-122.667 0 -228.334 -35.333 -317.001 -106l-99 119c48 47.333 112 85.333 192 114
c79.333 28.667 161 43 245 43c128.667 0 233.667 -32.667 315 -98c80.667 -64.667 121 -149.334 121 -254.001v-690h-199v166c-36.667 -57.333 -86.167 -102.333 -148.5 -135s-130.833 -49 -205.5 -49c-102.667 0 -186.667 27.667 -252 83s-98 125.666 -98 210.999z
M317.001 295.001c0 -43.333 19.667 -79.666 59 -108.999c38.667 -28.667 88 -43 148 -43c86 0 156 30.667 210 92s81 136.666 81 225.999c-56 18 -116 26.667 -180 26c-92.667 0 -168.667 -18 -228 -54c-60 -36 -90 -82 -90 -138zM387.001 1356
c0 52 16.333 94.332 49 126.999s75 49 127 49c52.667 0 95.334 -16.333 128.001 -49c33.333 -33.333 50 -75.666 50 -126.999c0 -52.667 -16.667 -95.667 -50 -129c-32.667 -32.667 -75.334 -49 -128.001 -49c-52 0 -94.333 16.333 -127 49s-49 75.667 -49 129z
M618.001 1413c-14.667 14 -33 21 -55 21s-40 -7 -54 -21c-14.667 -14.667 -22 -33.667 -22 -57s7 -42 21 -56c12.667 -14.667 31 -22 55 -22c23.333 0 42 7.33301 56 22c13.333 14 20 32.667 20 56s-7 42.333 -21 57z" />
    <glyph glyph-name="ae" unicode="&#xe6;" horiz-adv-x="1900" 
d="M106 276c0 102 47.6689 185.668 143.002 251.001c95.333 64 217.666 96 366.999 96c75.333 0 141 -7 197 -21v80c0 56 -24 101.667 -72 137c-49.333 35.333 -111.333 53 -186 53c-124 0 -230.333 -35.333 -319 -106l-97 119c47.333 47.333 110.666 85.333 189.999 114
s161.333 43 246 43c167.333 0 288.333 -53 363 -159c88.667 106.667 212.334 159.667 371.001 159c150 0 272.333 -49.333 367 -148c94 -98.667 141 -226.667 141 -384c0 -26 -1.66699 -47.333 -5 -64h-802c7.33301 -86 45.666 -156 114.999 -210
c68.667 -54.667 155 -82 259 -82c116 0 207.667 30 275 90l108 -109c-103.333 -103.333 -238.333 -154.333 -405 -153c-203.333 0 -355 73.667 -455 221c-100 -147.333 -250 -221 -450 -221c-102.667 0 -186.667 27.667 -252 83c-66 55.333 -99 125.666 -99 210.999z
M631.002 487.001c-92.667 0 -168.332 -18 -226.999 -54c-59.333 -36 -89 -82 -89 -138c0 -44 19.333 -80.333 58 -109c37.333 -28.667 86.333 -43 147 -43c85.333 0 155.666 30 210.999 90c54.667 58.667 82 134.667 82 228c-56 17.333 -116.667 26 -182 26zM1014 596.001
h597.998c-2.66699 82 -30.667 149 -84 201c-53.333 51.333 -121.666 77 -204.999 77s-153.666 -25.667 -210.999 -77c-57.333 -52.667 -90 -119.667 -98 -201z" />
    <glyph glyph-name="ccedilla" unicode="&#xe7;" horiz-adv-x="1085" 
d="M543 -190l22.001 173.998c-144 14.667 -260.333 70.334 -349 167.001c-88 96 -132 217 -132 363c0 154.667 50.667 281.667 152 381c101.333 98 232.333 147 393 147c158.667 0 287 -49 385 -147l-117 -117c-62.667 62.667 -147.334 94 -254.001 94
c-102.667 0 -186 -33.333 -250 -100s-96 -152.667 -96 -258c0 -108 32 -195 96 -261s147.333 -99 250 -99c108 0 192.667 30.667 254 92l117 -117c-86 -88.667 -199.333 -137 -340 -145l-12 -97c44 -6.66699 79.5 -25 106.5 -55s40.5 -66 40.5 -108
c0 -45.333 -17.667 -82 -53 -110c-36 -28 -80.333 -42 -133 -42c-90 0 -159 28.667 -207 86l67 74c31.333 -34 70.333 -51 117 -51c24 0 44 5.33301 60 16s24 24.334 24 41.001c0 22 -13 39.5 -39 52.5s-60 19.5 -102 19.5z" />
    <glyph glyph-name="egrave" unicode="&#xe8;" horiz-adv-x="1183" 
d="M1096 446l-802.999 -0.000976562c4.66699 -86 42.667 -156 114 -210c69.333 -54.667 156.333 -82 261 -82c117.333 0 208 30 272 90l111 -109c-103.333 -103.333 -239.333 -154.333 -408 -153c-166 0 -300.333 50.333 -403 151c-104 100 -156 230.333 -156 391
c0 152 47.333 276.333 142 373c94 96.667 216 145 366 145c149.333 0 271.666 -49 366.999 -147c94 -98 141 -226.333 141 -385c0 -29.333 -1.33301 -50.666 -4 -63.999zM297.001 595.999l597.999 -0.000976562c-3.33301 82 -31.333 149 -84 201
c-53.333 51.333 -121.666 77 -204.999 77c-84 0 -154.333 -25.333 -211 -76c-57.333 -51.333 -90 -118.666 -98 -201.999zM670 1165l-344 258l120 121l299 -301z" />
    <glyph glyph-name="eacute" unicode="&#xe9;" horiz-adv-x="1183" 
d="M1096 446l-802.999 -0.000976562c4.66699 -86 42.667 -156 114 -210c69.333 -54.667 156.333 -82 261 -82c117.333 0 208 30 272 90l111 -109c-103.333 -103.333 -239.333 -154.333 -408 -153c-166 0 -300.333 50.333 -403 151c-104 100 -156 230.333 -156 391
c0 152 47.333 276.333 142 373c94 96.667 216 145 366 145c149.333 0 271.666 -49 366.999 -147c94 -98 141 -226.333 141 -385c0 -29.333 -1.33301 -50.666 -4 -63.999zM297.001 595.999l597.999 -0.000976562c-3.33301 82 -31.333 149 -84 201
c-53.333 51.333 -121.666 77 -204.999 77c-84 0 -154.333 -25.333 -211 -76c-57.333 -51.333 -90 -118.666 -98 -201.999zM434 1243l299 301l121 -121l-342 -258z" />
    <glyph glyph-name="ecircumflex" unicode="&#xea;" horiz-adv-x="1183" 
d="M1096 446l-802.999 -0.000976562c4.66699 -86 42.667 -156 114 -210c69.333 -54.667 156.333 -82 261 -82c117.333 0 208 30 272 90l111 -109c-103.333 -103.333 -239.333 -154.333 -408 -153c-166 0 -300.333 50.333 -403 151c-104 100 -156 230.333 -156 391
c0 152 47.333 276.333 142 373c94 96.667 216 145 366 145c149.333 0 271.666 -49 366.999 -147c94 -98 141 -226.333 141 -385c0 -29.333 -1.33301 -50.666 -4 -63.999zM297.001 595.999l597.999 -0.000976562c-3.33301 82 -31.333 149 -84 201
c-53.333 51.333 -121.666 77 -204.999 77c-84 0 -154.333 -25.333 -211 -76c-57.333 -51.333 -90 -118.666 -98 -201.999zM354 1186l-98 98l336 236l334 -236l-99 -98l-235 170z" />
    <glyph glyph-name="edieresis" unicode="&#xeb;" horiz-adv-x="1183" 
d="M643 -18c-166 0 -300.332 50.332 -402.999 150.999c-104 100 -156 230.333 -156 391c0 152 47.333 276.333 142 373c94 96.667 216 145 366 145c149.333 0 271.666 -49 366.999 -147c94 -98 141 -226.333 141 -385c0 -29.333 -1.33301 -50.666 -4 -63.999h-803
c4.66699 -86 42.667 -156 114 -210c69.333 -54.667 156.333 -82 261 -82c117.333 0 208 30 272 90l111 -109c-103.333 -102 -239.333 -153 -408 -153zM297.001 595.999l597.999 -0.000976562c-3.33301 82 -31.333 149 -84 201c-53.333 51.333 -121.666 77 -204.999 77
c-84 0 -154.333 -25.333 -211 -76c-57.333 -51.333 -90 -118.666 -98 -201.999zM909 1233h-192v201h192v-201zM274 1233v201h191v-201h-191z" />
    <glyph glyph-name="igrave" unicode="&#xec;" horiz-adv-x="479" 
d="M340 1024v-1024h-199v1024h199zM317 1165l-342 258l121 121l299 -301z" />
    <glyph glyph-name="iacute" unicode="&#xed;" horiz-adv-x="479" 
d="M340 1024v-1024h-199v1024h199zM84 1243l297 301l121 -121l-340 -258z" />
    <glyph glyph-name="icircumflex" unicode="&#xee;" horiz-adv-x="479" 
d="M340 1024v-1024h-199v1024h199zM4 1186l-100 98l336 236l335 -236l-100 -98l-235 170z" />
    <glyph glyph-name="idieresis" unicode="&#xef;" horiz-adv-x="485" 
d="M342 1024v-1024h-199v1024h199zM541 1434v-201h-193v201h193zM-55 1233v201h192v-201h-192z" />
    <glyph glyph-name="eth" unicode="&#xf0;" horiz-adv-x="1255" 
d="M84 520c0 154.667 45.332 280.331 135.999 376.998s208.334 145 353.001 145c98 0 185 -24 261 -72c76.667 -49.333 128.334 -112.666 155.001 -189.999c8 240 -86 400.667 -282 482l-107 -160l-106 69l86 129c-96.667 22 -212.334 33 -347.001 33l17 170
c177.333 0 321.333 -16.333 432 -49l98 148l105 -70l-82 -123c238.667 -114.667 358 -349.334 358 -704.001c0 -243.333 -49.667 -424.666 -149 -543.999c-100 -119.333 -232 -179 -396 -179c-156.667 0 -284.667 49.667 -384 149c-98.667 98.667 -148 228.334 -148 389.001
zM835.999 770.997c-59.333 67.333 -134.335 101 -225.002 101c-91.333 0 -166.666 -33.667 -225.999 -101c-58.667 -66.667 -88 -153 -88 -259c0 -105.333 29.333 -191.333 88 -258s134.334 -100 227.001 -100c91.333 0 166.333 33.333 225 100c58 66.667 87 152.667 87 258
c0 106 -29.333 192.333 -88 259z" />
    <glyph glyph-name="ntilde" unicode="&#xf1;" horiz-adv-x="1230" 
d="M340 514l0.000976562 -514h-199v1024h199v-182c38 62.667 88.667 111.667 152 147s132.666 53 207.999 53c118 0 214.333 -36.667 289 -110c74 -74 111 -169.667 111 -287v-645h-199v606c0 80 -23.667 145.333 -71 196c-48 50 -110.333 75 -187 75
c-90 0 -163 -34 -219 -102c-56 -68.667 -84 -155.667 -84 -261zM442.001 1231l-143.001 0.00195312c0 69.333 21.333 125 64 167c42.667 41.333 97 62 163 62c26.667 0.666992 52.167 -3.83301 76.5 -13.5s44 -20.834 59 -33.501s30.667 -23.834 47 -33.501
s30.833 -14.167 43.5 -13.5c22 0 39.667 7.83301 53 23.5s20 36.5 20 62.5h144c0 -67.333 -20.667 -122.333 -62 -165c-42 -42.667 -96.667 -64 -164 -64c-47.333 0 -91.666 15.667 -132.999 47s-72 47 -92 47c-24 0 -42.667 -7.5 -56 -22.5s-20 -36.167 -20 -63.5z" />
    <glyph glyph-name="ograve" unicode="&#xf2;" horiz-adv-x="1251" 
d="M236 131c-101.333 99.333 -152.002 226.334 -152.002 381.001c0 155.333 50.667 282.666 152 381.999c100.667 98.667 231 148 391 148s290.333 -49.333 391 -148s151 -226 151 -382c0 -155.333 -50.333 -282.333 -151 -381
c-101.333 -99.333 -231.666 -149 -390.999 -149s-289.666 49.667 -390.999 149zM388.998 772.001c-61.333 -67.333 -92 -154 -92 -260s30.667 -192.333 92 -259c60.667 -66 140 -99 238 -99c96.667 0 175.667 33 237 99c61.333 66.667 92 153 92 259
s-30.667 192.667 -92 260c-60.667 66.667 -139.667 100 -237 100c-98 0 -177.333 -33.333 -238 -100zM704.998 1165l-343 258l119 121l301 -301z" />
    <glyph glyph-name="oacute" unicode="&#xf3;" horiz-adv-x="1251" 
d="M236 131c-101.333 99.333 -152.002 226.334 -152.002 381.001c0 155.333 50.667 282.666 152 381.999c100.667 98.667 231 148 391 148s290.333 -49.333 391 -148s151 -226 151 -382c0 -155.333 -50.333 -282.333 -151 -381
c-101.333 -99.333 -231.666 -149 -390.999 -149s-289.666 49.667 -390.999 149zM388.998 772.001c-61.333 -67.333 -92 -154 -92 -260s30.667 -192.333 92 -259c60.667 -66 140 -99 238 -99c96.667 0 175.667 33 237 99c61.333 66.667 92 153 92 259
s-30.667 192.667 -92 260c-60.667 66.667 -139.667 100 -237 100c-98 0 -177.333 -33.333 -238 -100zM470.998 1243l297 301l121 -121l-342 -258z" />
    <glyph glyph-name="ocircumflex" unicode="&#xf4;" horiz-adv-x="1251" 
d="M236 131c-101.333 99.333 -152.002 226.334 -152.002 381.001c0 155.333 50.667 282.666 152 381.999c100.667 98.667 231 148 391 148s290.333 -49.333 391 -148s151 -226 151 -382c0 -155.333 -50.333 -282.333 -151 -381
c-101.333 -99.333 -231.666 -149 -390.999 -149s-289.666 49.667 -390.999 149zM388.998 772.001c-61.333 -67.333 -92 -154 -92 -260s30.667 -192.333 92 -259c60.667 -66 140 -99 238 -99c96.667 0 175.667 33 237 99c61.333 66.667 92 153 92 259
s-30.667 192.667 -92 260c-60.667 66.667 -139.667 100 -237 100c-98 0 -177.333 -33.333 -238 -100zM388.998 1186l-98 98l336 236l334 -236l-99 -98l-235 170z" />
    <glyph glyph-name="otilde" unicode="&#xf5;" horiz-adv-x="1251" 
d="M236 131c-101.333 99.333 -152.002 226.334 -152.002 381.001c0 155.333 50.667 282.666 152 381.999c100.667 98.667 231 148 391 148s290.333 -49.333 391 -148s151 -226 151 -382c0 -155.333 -50.333 -282.333 -151 -381
c-101.333 -99.333 -231.666 -149 -390.999 -149s-289.666 49.667 -390.999 149zM388.998 772.001c-61.333 -67.333 -92 -154 -92 -260s30.667 -192.333 92 -259c60.667 -66 140 -99 238 -99c96.667 0 175.667 33 237 99c61.333 66.667 92 153 92 259
s-30.667 192.667 -92 260c-60.667 66.667 -139.667 100 -237 100c-98 0 -177.333 -33.333 -238 -100zM509.998 1317c-24 0 -42.6689 -7.49902 -56.002 -22.499s-20 -36.167 -20 -63.5h-143c0 69.333 21.333 125 64 167c42.667 41.333 97 62 163 62
c48.667 0 93.667 -15.667 135 -47c40.667 -31.333 70 -47 88 -47c23.333 0 41.833 7.83301 55.5 23.5s20.5 36.5 20.5 62.5h144c0 -66.667 -21 -121.334 -63 -164.001c-43.333 -43.333 -97.666 -65 -162.999 -65c-47.333 0 -91.666 15.667 -132.999 47s-72 47 -92 47z" />
    <glyph glyph-name="odieresis" unicode="&#xf6;" horiz-adv-x="1251" 
d="M1018 131c-101.333 -99.333 -231.668 -148.999 -391.001 -148.999s-289.666 49.667 -390.999 149s-152 226.333 -152 381c0 155.333 50.667 282.666 152 381.999c100.667 98.667 231 148 391 148s290.333 -49.333 391 -148s151 -226 151 -382
c0 -155.333 -50.333 -282.333 -151 -381zM388.998 772.001c-61.333 -67.333 -92 -154 -92 -260s30.667 -192.333 92 -259c60.667 -66 140 -99 238 -99c96.667 0 175.667 33 237 99c61.333 66.667 92 153 92 259s-30.667 192.667 -92 260
c-60.667 66.667 -139.667 100 -237 100c-98 0 -177.333 -33.333 -238 -100zM943.998 1434v-201h-192v201h192zM499.998 1233h-191v201h191v-201z" />
    <glyph glyph-name="divide" unicode="&#xf7;" 
d="M1047 653h-863v127h863v-127zM713 461v-197h-197v197h197zM713 1169v-196h-197v196h197z" />
    <glyph glyph-name="oslash" unicode="&#xf8;" horiz-adv-x="1251" 
d="M150 41l78.999 94.001c-96.667 99.333 -145 225 -145 377c0 155.333 50.667 282.666 152 381.999c100.667 98.667 231 148 391 148c112 0 211 -25 297 -75l84 98l96 -80l-80 -96c96.667 -99.333 145 -225 145 -377c0 -155.333 -50.333 -282.333 -151 -381
c-101.333 -99.333 -231.666 -149 -390.999 -149c-113.333 0 -213 25 -299 75l-82 -98zM353.999 285.001l455.001 542.001c-52.667 33.333 -113.334 50.666 -182.001 51.999c-100 0 -181.333 -34 -244 -102c-62.667 -68.667 -94 -157 -94 -265
c-0.666992 -88 21 -163.667 65 -227zM899 739.002l-455.001 -542.001c52.667 -33.333 113.667 -50.666 183 -51.999c100 0 181 34.333 243 103c62 68 93 156 93 264c-1.33301 88 -22.666 163.667 -63.999 227z" />
    <glyph glyph-name="ugrave" unicode="&#xf9;" horiz-adv-x="1234" 
d="M141 379l-0.000976562 645.001h199v-606c0 -80 23.667 -145.333 71 -196c47.333 -50 109 -75 185 -75c88.667 0 161 34.333 217 103c56 68 84 154.667 84 260v514h199v-1024h-199v184c-38 -63.333 -88.667 -112.833 -152 -148.5s-132.666 -53.5 -207.999 -53.5
c-118 0 -213.333 37 -286 111c-73.333 73.333 -110 168.666 -110 285.999zM773.999 1243l-78 -78l-342 258l119 121z" />
    <glyph glyph-name="uacute" unicode="&#xfa;" horiz-adv-x="1234" 
d="M141 379l-0.000976562 645.001h199v-606c0 -80 23.667 -145.333 71 -196c47.333 -50 109 -75 185 -75c88.667 0 161 34.333 217 103c56 68 84 154.667 84 260v514h199v-1024h-199v184c-38 -63.333 -88.667 -112.833 -152 -148.5s-132.666 -53.5 -207.999 -53.5
c-118 0 -213.333 37 -286 111c-73.333 73.333 -110 168.666 -110 285.999zM880.999 1423l-342 -258l-76 78l297 301z" />
    <glyph glyph-name="ucircumflex" unicode="&#xfb;" horiz-adv-x="1234" 
d="M141 379l-0.000976562 645.001h199v-606c0 -80 23.667 -145.333 71 -196c47.333 -50 109 -75 185 -75c88.667 0 161 34.333 217 103c56 68 84 154.667 84 260v514h199v-1024h-199v184c-38 -63.333 -88.667 -112.833 -152 -148.5s-132.666 -53.5 -207.999 -53.5
c-118 0 -213.333 37 -286 111c-73.333 73.333 -110 168.666 -110 285.999zM617.999 1356l-237 -170l-98 98l335 236l334 -236l-98 -98z" />
    <glyph glyph-name="udieresis" unicode="&#xfc;" horiz-adv-x="1234" 
d="M141 379l-0.000976562 645.001h199v-606c0 -80 23.667 -145.333 71 -196c47.333 -50 109 -75 185 -75c88.667 0 161 34.333 217 103c56 68 84 154.667 84 260v514h199v-1024h-199v184c-38 -63.333 -88.667 -112.833 -152 -148.5s-132.666 -53.5 -207.999 -53.5
c-118 0 -213.333 37 -286 111c-73.333 73.333 -110 168.666 -110 285.999zM935.999 1434v-201h-193v201h193zM491.999 1434v-201h-191v201h191z" />
    <glyph glyph-name="yacute" unicode="&#xfd;" horiz-adv-x="1155" 
d="M915 1024h203.001l-518 -1219c-41.333 -94 -89.333 -164.833 -144 -212.5s-120.667 -71.5 -198 -71.5c-84.667 0 -158.334 29.333 -221.001 88l100 123c30 -26 65 -39 105 -39c73.333 0 137.333 60 192 180l58 125l-455 1026h203l346 -801zM422.001 1243l299 301
l119 -121l-340 -258z" />
    <glyph glyph-name="thorn" unicode="&#xfe;" horiz-adv-x="1226" 
d="M340 -461h-198.999v1946h199v-645c30.667 60 80 108.667 148 146c67.333 37.333 140.333 56 219 56c129.333 0 234.666 -46.667 315.999 -140c80 -93.333 120 -214.333 120 -363c0 -164.667 -50 -298.667 -150 -402c-101.333 -103.333 -233 -155 -395 -155
c-100.667 0 -186.667 19.667 -258 59v-502zM340.001 528v-317c73.333 -39.333 151 -59 233 -59c106.667 0 193 34.667 259 104c65.333 69.333 98 160.666 98 273.999c0 102.667 -27.333 186.334 -82 251.001c-54.667 64 -125 96 -211 96c-88 0 -159.333 -32.333 -214 -97
c-55.333 -65.333 -83 -149.333 -83 -252z" />
    <glyph glyph-name="ydieresis" unicode="&#xff;" horiz-adv-x="1155" 
d="M492 -2l-454.999 1026h203l346 -801l329 801h203l-518 -1219c-41.333 -94 -89.333 -164.833 -144 -212.5s-120.667 -71.5 -198 -71.5c-84.667 0 -158.334 29.333 -221.001 88l100 123c30 -26 65 -39 105 -39c73.333 0 137.333 60 192 180zM260.001 1233v201h193v-201
h-193zM895.001 1434v-201h-190v201h190z" />
    <glyph glyph-name="Amacron" unicode="&#x100;" horiz-adv-x="1591" 
d="M270 0h-223l639 1434h217l641 -1434h-225l-150 340h-747zM1092 518l-295 670l-297 -670h592zM1071 1587h-549v127h549v-127z" />
    <glyph glyph-name="amacron" unicode="&#x101;" horiz-adv-x="1150" 
d="M461 -18c-102.667 0 -186.666 27.668 -251.999 83.001s-98 125.666 -98 210.999c0 102.667 47 186.334 141 251.001c94 64 216 96 366 96c76 0 141.667 -7 197 -21v80c0 56 -23.667 101.667 -71 137c-48.667 35.333 -111 53 -187 53
c-122.667 0 -228.334 -35.333 -317.001 -106l-99 119c48 47.333 112 85.333 192 114c79.333 28.667 161 43 245 43c128.667 0 233.667 -32.667 315 -98c80.667 -64.667 121 -149.334 121 -254.001v-690h-199v166c-36.667 -58 -86 -103.167 -148 -135.5
s-130.667 -48.5 -206 -48.5zM317.001 295.001c0 -43.333 19.667 -79.666 59 -108.999c38.667 -28.667 88 -43 148 -43c86 0 156 30.667 210 92s81 136.666 81 225.999c-56 18 -116 26.667 -180 26c-92.667 0 -168.667 -18 -228 -54c-60 -36 -90 -82 -90 -138zM289.001 1251
v127h549v-127h-549z" />
    <glyph glyph-name="Abreve" unicode="&#x102;" horiz-adv-x="1591" 
d="M422 340l-152 -340h-223l639 1434h217l641 -1434h-225l-150 340h-747zM1092 518l-295 670l-297 -670h592zM465 1718l127.001 84c40.667 -80.667 109 -121 205 -121c95.333 0 163.333 40.333 204 121l127 -84c-74 -118.667 -184.333 -178 -331 -178
c-148.667 0 -259.334 59.333 -332.001 178z" />
    <glyph glyph-name="abreve" unicode="&#x103;" horiz-adv-x="1150" 
d="M111 276c0 102.667 47.001 186.335 141.001 251.002c94 64 216 96 366 96c76 0 141.667 -7 197 -21v80c0 56 -23.667 101.667 -71 137c-48.667 35.333 -111 53 -187 53c-122.667 0 -228.334 -35.333 -317.001 -106l-99 119c48 47.333 112 85.333 192 114
c79.333 28.667 161 43 245 43c128.667 0 233.667 -32.667 315 -98c80.667 -64.667 121 -149.334 121 -254.001v-690h-199v166c-36.667 -57.333 -86.167 -102.333 -148.5 -135s-130.833 -49 -205.5 -49c-102.667 0 -186.667 27.667 -252 83s-98 125.666 -98 210.999z
M317.001 295.001c0 -43.333 19.667 -79.666 59 -108.999c38.667 -28.667 88 -43 148 -43c86 0 156 30.667 210 92s81 136.666 81 225.999c-56 18 -116 26.667 -180 26c-92.667 0 -168.667 -18 -228 -54c-60 -36 -90 -82 -90 -138zM563.001 1204
c-147.333 0 -258 59.333 -332 178l127 84c44 -80.667 112.333 -120.667 205 -120c94 0 163 40 207 120l127 -84c-74 -118.667 -185.333 -178 -334 -178z" />
    <glyph glyph-name="Aogonek" unicode="&#x104;" horiz-adv-x="1591" 
d="M270 0l-223 -0.000976562l639 1434h217l641 -1434h-43c-30 -25.333 -61 -64 -93 -116c-24 -39.333 -36 -73.666 -36 -102.999c0 -26 7.16699 -46.167 21.5 -60.5s33.833 -21.5 58.5 -21.5c34 0 64.667 11.667 92 35l70 -74c-44.667 -58.667 -109 -88 -193 -88
c-54 0 -97.5 16.667 -130.5 50s-49.5 78 -49.5 134c0 46 11.333 88.667 34 128c23.333 42 46 71 68 87l33 29h-57l-150 340h-747zM1092 517.999l-295 670l-297 -670h592z" />
    <glyph glyph-name="aogonek" unicode="&#x105;" horiz-adv-x="1150" 
d="M111 276c0 102.667 47.002 186.334 141.002 251.001c94 64 216 96 366 96c76 0 141.667 -7 197 -21v80c0 56 -23.667 101.667 -71 137c-48.667 35.333 -111 53 -187 53c-122.667 0 -228.334 -35.333 -317.001 -106l-99 119c48 47.333 112 85.333 192 114
c79.333 28.667 161 43 245 43c128.667 0 233.667 -32.667 315 -98c80.667 -64.667 121 -149.334 121 -254.001v-690h-31c-30 -25.333 -60.667 -64 -92 -116c-23.333 -39.333 -35 -73.666 -35 -102.999c0 -54.667 26.667 -82 80 -82c32.667 0 62.667 11.667 90 35l70 -74
c-20.667 -26 -48.834 -47.167 -84.501 -63.5s-71.167 -24.5 -106.5 -24.5c-54 0 -97.5 16.667 -130.5 50s-49.5 78 -49.5 134c0 45.333 11 88 33 128c22 40.667 43.667 69.667 65 87l35 29h-43v166c-36.667 -57.333 -86.167 -102.333 -148.5 -135s-130.833 -49 -205.5 -49
c-102.667 0 -186.667 27.667 -252 83s-98 125.666 -98 210.999zM635.002 487c-92.667 0 -168.667 -18 -228 -54c-60 -36 -90 -82 -90 -138c0 -43.333 19.667 -79.666 59 -108.999c38.667 -28.667 88 -43 148 -43c86 0 156 30.667 210 92s81 136.666 81 225.999
c-56 17.333 -116 26 -180 26z" />
    <glyph glyph-name="Cacute" unicode="&#x106;" horiz-adv-x="1427" 
d="M1229 326l124.996 -130.997c-138 -142 -315 -213 -531 -213c-217.333 0 -393 68.333 -527 205c-134.667 135.333 -202 312 -202 530c0 216 67.667 392.667 203 530c134.667 136.667 309.334 205 524.001 205c216.667 0 394.334 -71 533.001 -213l-125 -129
c-40.667 47.333 -96.667 85.666 -168 114.999c-70 28.667 -145 43 -225 43c-152 0 -275.333 -51 -370 -153c-96 -102.667 -144 -235.334 -144 -398.001c0 -160.667 47.667 -292.334 143 -395.001c94.667 -102.667 218.334 -154 371.001 -154c80.667 0 156 14.333 226 43
c70.667 28.667 126.334 67 167.001 115zM636.996 1579l299 301l121 -121l-342 -258z" />
    <glyph glyph-name="cacute" unicode="&#x107;" horiz-adv-x="1085" 
d="M897 246l117.002 -117c-94.667 -98 -222.334 -147 -383.001 -147c-162 0 -293.667 49.667 -395 149s-152 227 -152 383c0 154.667 50.667 281.667 152 381c101.333 98 232.333 147 393 147c158.667 0 287 -49 385 -147l-117 -117c-62.667 62.667 -147.334 94 -254.001 94
c-102.667 0 -186 -33.333 -250 -100s-96 -152.667 -96 -258c0 -108 32 -195 96 -261s147.333 -99 250 -99c108 0 192.667 30.667 254 92zM442.002 1262l299 299l121 -121l-342 -256z" />
    <glyph glyph-name="Ccircumflex" unicode="&#x108;" horiz-adv-x="1427" 
d="M1229 326l124.996 -130.997c-138 -142 -315 -213 -531 -213c-217.333 0 -393 68.333 -527 205c-134.667 135.333 -202 312 -202 530c0 216 67.667 392.667 203 530c134.667 136.667 309.334 205 524.001 205c216.667 0 394.334 -71 533.001 -213l-125 -129
c-40.667 47.333 -96.667 85.666 -168 114.999c-70 28.667 -145 43 -225 43c-152 0 -275.333 -51 -370 -153c-96 -102.667 -144 -235.334 -144 -398.001c0 -160.667 47.667 -292.334 143 -395.001c94.667 -102.667 218.334 -154 371.001 -154c80.667 0 156 14.333 226 43
c70.667 28.667 126.334 67 167.001 115zM556.996 1522l-98 98l336 235l333 -235l-98 -98l-235 170z" />
    <glyph glyph-name="ccircumflex" unicode="&#x109;" horiz-adv-x="1085" 
d="M897 246l117.002 -117c-94.667 -98 -222.334 -147 -383.001 -147c-162 0 -293.667 49.667 -395 149s-152 227 -152 383c0 154.667 50.667 281.667 152 381c101.333 98 232.333 147 393 147c158.667 0 287 -49 385 -147l-117 -117c-62.667 62.667 -147.334 94 -254.001 94
c-102.667 0 -186 -33.333 -250 -100s-96 -152.667 -96 -258c0 -108 32 -195 96 -261s147.333 -99 250 -99c108 0 192.667 30.667 254 92zM362.002 1202l-98 101l334 235l336 -235l-98 -101l-238 170z" />
    <glyph glyph-name="Cdotaccent" unicode="&#x10a;" horiz-adv-x="1427" 
d="M1229 326l124.996 -130.997c-138 -142 -315 -213 -531 -213c-217.333 0 -393 68.333 -527 205c-134.667 135.333 -202 312 -202 530c0 216 67.667 392.667 203 530c134.667 136.667 309.334 205 524.001 205c216.667 0 394.334 -71 533.001 -213l-125 -129
c-40.667 47.333 -96.667 85.666 -168 114.999c-70 28.667 -145 43 -225 43c-152 0 -275.333 -51 -370 -153c-96 -102.667 -144 -235.334 -144 -398.001c0 -160.667 47.667 -292.334 143 -395.001c94.667 -102.667 218.334 -154 371.001 -154c80.667 0 156 14.333 226 43
c70.667 28.667 126.334 67 167.001 115zM892.996 1567h-199v202h199v-202z" />
    <glyph glyph-name="cdotaccent" unicode="&#x10b;" horiz-adv-x="1085" 
d="M897 246l117.002 -117c-94.667 -98 -222.334 -147 -383.001 -147c-162 0 -293.667 49.667 -395 149s-152 227 -152 383c0 154.667 50.667 281.667 152 381c101.333 98 232.333 147 393 147c158.667 0 287 -49 385 -147l-117 -117c-62.667 62.667 -147.334 94 -254.001 94
c-102.667 0 -186 -33.333 -250 -100s-96 -152.667 -96 -258c0 -108 32 -195 96 -261s147.333 -99 250 -99c108 0 192.667 30.667 254 92zM698.002 1247h-198v205h198v-205z" />
    <glyph glyph-name="Ccaron" unicode="&#x10c;" horiz-adv-x="1427" 
d="M1229 326l124.996 -130.997c-138 -142 -315 -213 -531 -213c-217.333 0 -393 68.333 -527 205c-134.667 135.333 -202 312 -202 530c0 216 67.667 392.667 203 530c134.667 136.667 309.334 205 524.001 205c216.667 0 394.334 -71 533.001 -213l-125 -129
c-40.667 47.333 -96.667 85.666 -168 114.999c-70 28.667 -145 43 -225 43c-152 0 -275.333 -51 -370 -153c-96 -102.667 -144 -235.334 -144 -398.001c0 -160.667 47.667 -292.334 143 -395.001c94.667 -102.667 218.334 -154 371.001 -154c80.667 0 156 14.333 226 43
c70.667 28.667 126.334 67 167.001 115zM1030 1855l96 -98l-331 -237l-336 237l98 98l238 -169z" />
    <glyph glyph-name="ccaron" unicode="&#x10d;" horiz-adv-x="1085" 
d="M897 246l117.002 -117c-94.667 -98 -222.334 -147 -383.001 -147c-162 0 -293.667 49.667 -395 149s-152 227 -152 383c0 154.667 50.667 281.667 152 381c101.333 98 232.333 147 393 147c158.667 0 287 -49 385 -147l-117 -117c-62.667 62.667 -147.334 94 -254.001 94
c-102.667 0 -186 -33.333 -250 -100s-96 -152.667 -96 -258c0 -108 32 -195 96 -261s147.333 -99 250 -99c108 0 192.667 30.667 254 92zM836.002 1538l96 -98l-334 -240l-334 238l98 100l236 -170z" />
    <glyph glyph-name="Dcaron" unicode="&#x10e;" horiz-adv-x="1544" 
d="M725 0h-573v1434h573c216 0 392 -67 528 -201c135.333 -134 203 -306 203 -516c0 -210.667 -67.667 -382.667 -203 -516c-136 -134 -312 -201 -528 -201zM1096 327c95.333 99.333 143 229.333 143 390c0 160 -47.667 290.333 -143 391c-96 99.333 -219.667 149 -371 149
h-360v-1079h360c151.333 0 275 49.667 371 149zM969 1855l98 -98l-334 -237l-334 237l99 98l235 -169z" />
    <glyph glyph-name="dcaron" unicode="&#x10f;" horiz-adv-x="1501" 
d="M520 -18c-130 0 -235.001 46.666 -315.001 139.999c-80.667 92.667 -121 213.667 -121 363c0 166 50.333 300.333 151 403c100 102.667 230.667 154 392 154c100.667 0 187.334 -19.667 260.001 -59v502h198v-1485h-198v182c-30.667 -59.333 -80 -107.666 -148 -144.999
c-67.333 -36.667 -140.333 -55 -219 -55zM652.999 871.999c-106.667 0 -192.666 -34.668 -257.999 -104.001s-98 -160 -98 -272c0 -103.333 27.333 -186.666 82 -249.999c55.333 -64 125.666 -96 210.999 -96c86 0 157 32.667 213 98s84 148 84 248v317
c-73.333 39.333 -151.333 59 -234 59zM1489 1485l-139 -434h-140l78 434h201z" />
    <glyph glyph-name="Dcroat" unicode="&#x110;" horiz-adv-x="1554" 
d="M160 0v653h-150v127h150v654h575c216 0 392 -67 528 -201c135.333 -134 203 -306 203 -516c0 -210.667 -67.667 -382.667 -203 -516c-136 -134 -312 -201 -528 -201h-575zM702 780v-126.999h-329v-475h362c151.333 0 274.666 49.667 369.999 149
c94.667 98.667 142 228.667 142 390s-47.333 291.666 -142 390.999c-95.333 99.333 -218.666 149 -369.999 149h-362v-477h329z" />
    <glyph glyph-name="dslash" unicode="&#x111;" horiz-adv-x="1226" 
d="M520 -18c-130 0 -235.001 46.666 -315.001 139.999c-80.667 92.667 -121 213.667 -121 363c0 166 50.333 300.333 151 403c100 102.667 230.667 154 392 154c100.667 0 187.334 -19.667 260.001 -59v199h-316v127h316v176h198v-176h152v-127h-152v-1182h-198v182
c-30.667 -59.333 -80 -107.666 -148 -144.999c-67.333 -36.667 -140.333 -55 -219 -55zM652.999 871.999c-106.667 0 -192.666 -34.668 -257.999 -104.001s-98 -160 -98 -272c0 -103.333 27.333 -186.666 82 -249.999c55.333 -64 125.666 -96 210.999 -96
c86 0 157 32.667 213 98s84 148 84 248v317c-73.333 39.333 -151.333 59 -234 59z" />
    <glyph glyph-name="Emacron" unicode="&#x112;" horiz-adv-x="1310" 
d="M1204 0h-1052v1434h1036v-177h-823v-438h759v-176h-759v-465h839v-178zM399 1587v127h549v-127h-549z" />
    <glyph glyph-name="emacron" unicode="&#x113;" horiz-adv-x="1183" 
d="M1096 446l-802.999 -0.000976562c4.66699 -86 42.667 -156 114 -210c69.333 -54.667 156.333 -82 261 -82c117.333 0 208 30 272 90l111 -109c-103.333 -103.333 -239.333 -154.333 -408 -153c-166 0 -300.333 50.333 -403 151c-104 100 -156 230.333 -156 391
c0 152 47.333 276.333 142 373c94 96.667 216 145 366 145c149.333 0 271.666 -49 366.999 -147c94 -98 141 -226.333 141 -385c0 -29.333 -1.33301 -50.666 -4 -63.999zM297.001 595.999l597.999 -0.000976562c-3.33301 82 -31.333 149 -84 201
c-53.333 51.333 -121.666 77 -204.999 77c-84 0 -154.333 -25.333 -211 -76c-57.333 -51.333 -90 -118.666 -98 -201.999zM866 1378v-127h-549v127h549z" />
    <glyph glyph-name="Ebreve" unicode="&#x114;" horiz-adv-x="1310" 
d="M1204 0h-1052v1434h1036v-177h-823v-438h759v-176h-759v-465h839v-178zM342 1718l127.001 84c40.667 -80.667 109 -121 205 -121s164.333 40.333 205 121l127 -84c-72.667 -118.667 -183.334 -178 -332.001 -178c-147.333 0 -258 59.333 -332 178z" />
    <glyph glyph-name="ebreve" unicode="&#x115;" horiz-adv-x="1183" 
d="M1096 446l-802.999 -0.000976562c4.66699 -86 42.667 -156 114 -210c69.333 -54.667 156.333 -82 261 -82c117.333 0 208 30 272 90l111 -109c-103.333 -103.333 -239.333 -154.333 -408 -153c-166 0 -300.333 50.333 -403 151c-104 100 -156 230.333 -156 391
c0 152 47.333 276.333 142 373c94 96.667 216 145 366 145c149.333 0 271.666 -49 366.999 -147c94 -98 141 -226.333 141 -385c0 -29.333 -1.33301 -50.666 -4 -63.999zM297.001 595.999l597.999 -0.000976562c-3.33301 82 -31.333 149 -84 201
c-53.333 51.333 -121.666 77 -204.999 77c-84 0 -154.333 -25.333 -211 -76c-57.333 -51.333 -90 -118.666 -98 -201.999zM258 1382l127 84c44 -81.333 113 -121.333 207 -120c92.667 0 161 40 205 120l127 -84c-74 -118.667 -184.667 -178 -332 -178
c-148.667 0 -260 59.333 -334 178z" />
    <glyph glyph-name="Edotaccent" unicode="&#x116;" horiz-adv-x="1310" 
d="M1204 0h-1052v1434h1036v-177h-823v-438h759v-176h-759v-465h839v-178zM575 1567v202h199v-202h-199z" />
    <glyph glyph-name="edotaccent" unicode="&#x117;" horiz-adv-x="1183" 
d="M1096 446l-802.999 -0.000976562c4.66699 -86 42.667 -156 114 -210c69.333 -54.667 156.333 -82 261 -82c117.333 0 208 30 272 90l111 -109c-103.333 -103.333 -239.333 -154.333 -408 -153c-166 0 -300.333 50.333 -403 151c-104 100 -156 230.333 -156 391
c0 152 47.333 276.333 142 373c94 96.667 216 145 366 145c149.333 0 271.666 -49 366.999 -147c94 -98 141 -226.333 141 -385c0 -29.333 -1.33301 -50.666 -4 -63.999zM297.001 595.999l597.999 -0.000976562c-3.33301 82 -31.333 149 -84 201
c-53.333 51.333 -121.666 77 -204.999 77c-84 0 -154.333 -25.333 -211 -76c-57.333 -51.333 -90 -118.666 -98 -201.999zM690 1231h-198v203h198v-203z" />
    <glyph glyph-name="Eogonek" unicode="&#x118;" horiz-adv-x="1310" 
d="M991 0l-839 -0.000976562v1434h1036v-177h-823v-438h759v-176h-759v-465h839v-178h-88c-30 -25.333 -61 -64 -93 -116c-24 -39.333 -36 -73.666 -36 -102.999c0 -26 7.16699 -46.167 21.5 -60.5s33.833 -21.5 58.5 -21.5c34 0 64.667 11.667 92 35l70 -74
c-20.667 -26 -48.667 -47.167 -84 -63.5s-71 -24.5 -107 -24.5c-54 0 -97.833 16.833 -131.5 50.5s-50.5 78.167 -50.5 133.5c0 46 11.333 88.667 34 128c23.333 42 46 71 68 87z" />
    <glyph glyph-name="eogonek" unicode="&#x119;" horiz-adv-x="1183" 
d="M84 524c0 152 47.333 276.333 142 373c94 96.667 216 145 366 145c149.333 0 271.666 -49 366.999 -147c94 -98 141 -226.333 141 -385c0 -29.333 -1.33301 -50.666 -4 -63.999h-803c4.66699 -86 42.667 -156 114 -210c69.333 -54.667 156.333 -82 261 -82
c117.333 0 208 30 272 90l111 -109c-31.333 -31.333 -70.333 -60 -117 -86c-22 -20 -47.667 -51.333 -77 -94c-26.667 -38.667 -40 -77 -40 -115c0 -24.667 7.16699 -44.5 21.5 -59.5s33.833 -22.5 58.5 -22.5c33.333 0 63.333 11.667 90 35l72 -74
c-44 -57.333 -108.333 -86 -193 -86c-54 0 -97.5 16.667 -130.5 50s-49.5 77.666 -49.5 132.999c0 63.333 21.333 121.333 64 174c-33.333 -5.33301 -69 -8 -107 -8c-165.333 0 -299.666 50 -402.999 150c-104 100 -156 230.667 -156 392zM297 596l597.999 -0.000976562
c-3.33301 82 -31.333 149 -84 201c-53.333 51.333 -121.666 77 -204.999 77c-84 0 -154.333 -25.333 -211 -76c-57.333 -51.333 -90 -118.666 -98 -201.999z" />
    <glyph glyph-name="Ecaron" unicode="&#x11a;" horiz-adv-x="1310" 
d="M152 0v1434h1036v-177h-823v-438h759v-176h-759v-465h839v-178h-1052zM1008 1757l-334 -237l-336 237l100 98l236 -169l235 169z" />
    <glyph glyph-name="ecaron" unicode="&#x11b;" horiz-adv-x="1183" 
d="M1096 446l-802.999 -0.000976562c4.66699 -86 42.667 -156 114 -210c69.333 -54.667 156.333 -82 261 -82c117.333 0 208 30 272 90l111 -109c-103.333 -103.333 -239.333 -154.333 -408 -153c-166 0 -300.333 50.333 -403 151c-104 100 -156 230.333 -156 391
c0 152 47.333 276.333 142 373c94 96.667 216 145 366 145c149.333 0 271.666 -49 366.999 -147c94 -98 141 -226.333 141 -385c0 -29.333 -1.33301 -50.666 -4 -63.999zM297.001 595.999l597.999 -0.000976562c-3.33301 82 -31.333 149 -84 201
c-53.333 51.333 -121.666 77 -204.999 77c-84 0 -154.333 -25.333 -211 -76c-57.333 -51.333 -90 -118.666 -98 -201.999zM827 1520l97 -99l-332 -237l-336 237l98 99l238 -170z" />
    <glyph glyph-name="Gcircumflex" unicode="&#x11c;" horiz-adv-x="1501" 
d="M1169 616h-368.001v177h581v-600c-138 -140.667 -318.667 -211 -542 -211c-221.333 0 -401 68 -539 204c-138 134.667 -207 311 -207 529c0 218.667 69 396.334 207 533.001c138 136 317 204 537 204c218.667 0 400 -71 544 -213l-125 -131
c-44.667 49.333 -103.667 88.333 -177 117c-72 28.667 -149.333 43 -232 43c-154 0 -280 -51.667 -378 -155c-98.667 -102.667 -148 -235.334 -148 -398.001c0 -161.333 49 -293 147 -395c98 -102.667 225.667 -154 383 -154c122.667 0 228.334 33.333 317.001 100v350z
M570.999 1522l-98 98l336 235l334 -235l-99 -98l-235 170z" />
    <glyph glyph-name="gcircumflex" unicode="&#x11d;" horiz-adv-x="1208" 
d="M532 -18c-134 0 -242.003 45.6641 -324.003 136.997c-82.667 90.667 -124 209.334 -124 356.001c0 168.667 56.667 305.667 170 411c112.667 104 261.334 156 446.001 156c137.333 0 260.333 -25 369 -75v-959c0 -142.667 -49.667 -259.667 -149 -351
c-99.333 -90.667 -228.666 -136 -387.999 -136c-163.333 0 -296.333 49.667 -399 149l115 115c66.667 -62.667 155.334 -94 266.001 -94c106 0 191.667 29.333 257 88c66 58.667 99 134.334 99 227.001v141c-36 -51.333 -84.167 -91.666 -144.5 -120.999
s-124.833 -44 -193.5 -44zM296.997 488.997c0 -100.667 26.667 -183.332 80 -247.999c52.667 -64 121 -96 205 -96c82.667 0 151.667 31.667 207 95c54 62.667 81 141.667 81 237v363c-66 22 -132.667 32.667 -200 32c-112 0 -202 -35 -270 -105
c-68.667 -70.667 -103 -163.334 -103 -278.001zM648.997 1356l-237 -170l-99 98l336 236l334 -236l-98 -98z" />
    <glyph glyph-name="Gbreve" unicode="&#x11e;" horiz-adv-x="1501" 
d="M1169 616h-368.001v177h581v-600c-138 -140.667 -318.667 -211 -542 -211c-221.333 0 -401 68 -539 204c-138 134.667 -207 311 -207 529c0 218.667 69 396.334 207 533.001c138 136 317 204 537 204c218.667 0 400 -71 544 -213l-125 -131
c-44.667 49.333 -103.667 88.333 -177 117c-72 28.667 -149.333 43 -232 43c-154 0 -280 -51.667 -378 -155c-98.667 -102.667 -148 -235.334 -148 -398.001c0 -161.333 49 -293 147 -395c98 -102.667 225.667 -154 383 -154c122.667 0 228.334 33.333 317.001 100v350z
M474.999 1718l127 84c44 -80.667 113 -121 207 -121c92.667 0 161 40.333 205 121l127 -84c-74 -118.667 -184.667 -178 -332 -178c-148.667 0 -260 59.333 -334 178z" />
    <glyph glyph-name="gbreve" unicode="&#x11f;" horiz-adv-x="1208" 
d="M84 475c0 168.667 56.6641 305.665 169.997 410.998c112.667 104 261.334 156 446.001 156c137.333 0 260.333 -25 369 -75v-959c0 -142.667 -49.667 -259.667 -149 -351c-99.333 -90.667 -228.666 -136 -387.999 -136c-163.333 0 -296.333 49.667 -399 149l115 115
c66.667 -62.667 155.334 -94 266.001 -94c106 0 191.667 29.333 257 88c66 58.667 99 134.334 99 227.001v141c-36 -52 -84.167 -92.5 -144.5 -121.5s-124.833 -43.5 -193.5 -43.5c-134 0 -242 45.667 -324 137c-82.667 90.667 -124 209.334 -124 356.001zM296.997 488.998
c0 -100.667 26.667 -183.332 80 -247.999c52.667 -64 121 -96 205 -96c82.667 0 151.667 31.667 207 95c54 62.667 81 141.667 81 237v363c-66 22 -132.667 32.667 -200 32c-112 0 -202 -35 -270 -105c-68.667 -70.667 -103 -163.334 -103 -278.001zM648.997 1204
c-148.667 0 -259.332 59.333 -331.999 178l127 84c40.667 -80.667 109 -120.667 205 -120c95.333 0 163.666 40 204.999 120l127 -84c-74 -118.667 -184.667 -178 -332 -178z" />
    <glyph glyph-name="Gdotaccent" unicode="&#x120;" horiz-adv-x="1501" 
d="M1169 616h-368.001v177h581v-600c-138 -140.667 -318.667 -211 -542 -211c-221.333 0 -401 68 -539 204c-138 134.667 -207 311 -207 529c0 218.667 69 396.334 207 533.001c138 136 317 204 537 204c218.667 0 400 -71 544 -213l-125 -131
c-44.667 49.333 -103.667 88.333 -177 117c-72 28.667 -149.333 43 -232 43c-154 0 -280 -51.667 -378 -155c-98.667 -102.667 -148 -235.334 -148 -398.001c0 -161.333 49 -293 147 -395c98 -102.667 225.667 -154 383 -154c122.667 0 228.334 33.333 317.001 100v350z
M906.999 1567h-198v202h198v-202z" />
    <glyph glyph-name="gdotaccent" unicode="&#x121;" horiz-adv-x="1208" 
d="M532 -18c-134 0 -242.003 45.6641 -324.003 136.997c-82.667 90.667 -124 209.334 -124 356.001c0 168.667 56.667 305.667 170 411c112.667 104 261.334 156 446.001 156c137.333 0 260.333 -25 369 -75v-959c0 -142.667 -49.667 -259.667 -149 -351
c-99.333 -90.667 -228.666 -136 -387.999 -136c-163.333 0 -296.333 49.667 -399 149l115 115c66.667 -62.667 155.334 -94 266.001 -94c106 0 191.667 29.333 257 88c66 58.667 99 134.334 99 227.001v141c-36 -51.333 -84.167 -91.666 -144.5 -120.999
s-124.833 -44 -193.5 -44zM669.997 871.997c-112 0 -202 -34.999 -270 -104.999c-68.667 -69.333 -103 -162 -103 -278c0 -100.667 26.667 -183.334 80 -248.001c52.667 -64 121 -96 205 -96c82.667 0 151.667 31.667 207 95c54 62.667 81 141.667 81 237v363
c-66 21.333 -132.667 32 -200 32zM747.997 1434v-203h-199v203h199z" />
    <glyph glyph-name="uni0122" unicode="&#x122;" horiz-adv-x="1501" 
d="M1169 616h-368.001v177h581v-600c-138 -140.667 -318.667 -211 -542 -211c-221.333 0 -401 68 -539 204c-138 134.667 -207 311 -207 529c0 218.667 69 396.334 207 533.001c138 136 317 204 537 204c218.667 0 400 -71 544 -213l-125 -131
c-44.667 49.333 -103.667 88.333 -177 117c-72 28.667 -149.333 43 -232 43c-154 0 -280 -51.667 -378 -155c-98.667 -102.667 -148 -235.334 -148 -398.001c0 -161.333 49 -293 147 -395c98 -102.667 225.667 -154 383 -154c122.667 0 228.334 33.333 317.001 100v350z
M802.999 -408h-113l58 326h174z" />
    <glyph glyph-name="uni0123" unicode="&#x123;" horiz-adv-x="1208" 
d="M532 -18c-134 0 -242.003 45.6641 -324.003 136.997c-82.667 90.667 -124 209.334 -124 356.001c0 168.667 56.667 305.667 170 411c112.667 104 261.334 156 446.001 156c137.333 0 260.333 -25 369 -75v-959c0 -142.667 -49.667 -259.667 -149 -351
c-99.333 -90.667 -228.666 -136 -387.999 -136c-163.333 0 -296.333 49.667 -399 149l115 115c66.667 -62.667 155.334 -94 266.001 -94c106 0 191.667 29.333 257 88c66 58.667 99 134.334 99 227.001v141c-36 -51.333 -84.167 -91.666 -144.5 -120.999
s-124.833 -44 -193.5 -44zM669.997 871.997c-112 0 -202 -34.999 -270 -104.999c-68.667 -69.333 -103 -162 -103 -278c0 -100.667 26.667 -183.334 80 -248.001c52.667 -64 121 -96 205 -96c82.667 0 151.667 31.667 207 95c54 62.667 81 141.667 81 237v363
c-66 21.333 -132.667 32 -200 32zM693.997 1178h-174l119 325h113z" />
    <glyph glyph-name="Hcircumflex" unicode="&#x124;" horiz-adv-x="1576" 
d="M365 0h-213v1434h213v-617h847v617h213v-1434h-213v641h-847v-641zM553 1522l-98 98l333 235l336 -235l-100 -98l-236 170z" />
    <glyph glyph-name="hcircumflex" unicode="&#x125;" horiz-adv-x="1230" 
d="M141 0l0.000976562 1485h199v-643c38 62.667 88.667 111.667 152 147s132.666 53 207.999 53c118 0 214.333 -36.667 289 -110c74 -74 111 -169.667 111 -287v-645h-199v606c0 80 -23.667 145.333 -71 196c-48 50 -110.333 75 -187 75c-90 0 -163 -34 -219 -102
c-56 -68.667 -84 -155.667 -84 -261v-514h-199zM240.001 1714l-236 -170l-100 98l336 236l335 -236l-100 -98z" />
    <glyph glyph-name="Hbar" unicode="&#x126;" horiz-adv-x="1576" 
d="M152 0v1040h-142v127h142v267h213v-267h847v267h213v-267h142v-127h-142v-1040h-213v641h-847v-641h-213zM1212 817v223h-847v-223h847z" />
    <glyph glyph-name="hbar" unicode="&#x127;" horiz-adv-x="1230" 
d="M340 1485l0.000976562 -176h315v-127h-315v-340c38 62.667 88.667 111.667 152 147s132.666 53 207.999 53c118 0 214.333 -36.667 289 -110c74 -74 111 -169.667 111 -287v-645h-199v606c0 80 -23.667 145.333 -71 196c-48 50 -110.333 75 -187 75
c-90 0 -163 -34 -219 -102c-56 -68.667 -84 -155.667 -84 -261v-514h-199v1182h-153v127h153v176h199z" />
    <glyph glyph-name="Itilde" unicode="&#x128;" horiz-adv-x="514" 
d="M365 1434v-1434h-213v1434h213zM141 1647c-23.333 0 -41.668 -7.83203 -55.001 -23.499s-20 -36.5 -20 -62.5h-144c0 67.333 21 122.666 63 165.999c43.333 42 97.333 63 162 63c50 0 95.667 -16 137 -48c40 -32 69.667 -48 89 -48c22 0 40.167 8.16699 54.5 24.5
s21.5 36.833 21.5 61.5h141c0 -66 -20.667 -120.667 -62 -164c-42 -42.667 -95.667 -64 -161 -64c-47.333 0 -91.666 16 -132.999 48c-41.333 31.333 -72.333 47 -93 47z" />
    <glyph glyph-name="itilde" unicode="&#x129;" horiz-adv-x="479" 
d="M340 1024v-1024h-199v1024h199zM123 1317c-24 0 -42.668 -7.49805 -56.001 -22.498s-20 -36.167 -20 -63.5h-143c0 69.333 21 125 63 167c43.333 41.333 98 62 164 62c26 0.666992 51.167 -3.83301 75.5 -13.5s44 -20.834 59 -33.501s30.833 -23.834 47.5 -33.501
s31 -14.167 43 -13.5c22 0 39.833 7.83301 53.5 23.5s20.5 36.5 20.5 62.5h143c0 -67.333 -20.667 -122.333 -62 -165c-40.667 -42.667 -95 -64 -163 -64c-47.333 0 -91.666 15.667 -132.999 47s-72 47 -92 47z" />
    <glyph glyph-name="Imacron" unicode="&#x12a;" horiz-adv-x="514" 
d="M365 1434v-1434h-213v1434h213zM532 1714v-127h-550v127h550z" />
    <glyph glyph-name="imacron" unicode="&#x12b;" horiz-adv-x="479" 
d="M340 1024v-1024h-199v1024h199zM514 1378v-127h-549v127h549z" />
    <glyph glyph-name="Ibreve" unicode="&#x12c;" horiz-adv-x="514" 
d="M365 1434v-1434h-213v1434h213zM-76 1718l127 84c44 -80.667 113 -121 207 -121c92.667 0 161 40.333 205 121l127 -84c-74 -118.667 -184.667 -178 -332 -178c-148.667 0 -260 59.333 -334 178z" />
    <glyph glyph-name="ibreve" unicode="&#x12d;" horiz-adv-x="479" 
d="M340 1024v-1024h-199v1024h199zM-92 1382l127.001 84c40.667 -80.667 109 -120.667 205 -120c94.667 0 162.667 40 204 120l127 -84c-72.667 -118.667 -183 -178 -331 -178c-148.667 0 -259.334 59.333 -332.001 178z" />
    <glyph glyph-name="Iogonek" unicode="&#x12e;" horiz-adv-x="514" 
d="M70 -244c0 46 11.332 88.666 33.999 127.999c22 40.667 44.667 69.667 68 87l33 29h-53v1434h213v-1434h-37c-31.333 -26 -62 -64.667 -92 -116c-23.333 -39.333 -35 -73.666 -35 -102.999c0 -54.667 26.667 -82 80 -82c32.667 0 62.667 11.667 90 35l69 -74
c-19.333 -26 -46.666 -47.167 -81.999 -63.5s-71.333 -24.5 -108 -24.5c-54 0 -97.5 16.667 -130.5 50s-49.5 78 -49.5 134z" />
    <glyph glyph-name="iogonek" unicode="&#x12f;" horiz-adv-x="479" 
d="M49 -244c0 46 11.3311 88.666 33.998 127.999c23.333 41.333 46.333 70.333 69 87l32 29h-43v1024h199v-1024h-33c-30 -25.333 -60.667 -64 -92 -116c-23.333 -39.333 -35 -73.666 -35 -102.999c0 -54.667 26.667 -82 80 -82c32.667 0 62.667 11.667 90 35l70 -74
c-19.333 -26 -46.666 -47.167 -81.999 -63.5s-71.666 -24.5 -108.999 -24.5c-54 0 -97.5 16.667 -130.5 50s-49.5 78 -49.5 134zM339.998 1434v-203h-199v203h199z" />
    <glyph glyph-name="Idot" unicode="&#x130;" horiz-adv-x="514" 
d="M365 1434v-1434h-213v1434h213zM356 1567h-198v202h198v-202z" />
    <glyph glyph-name="dotlessi" unicode="&#x131;" horiz-adv-x="479" 
d="M340 1024v-1024h-199v1024h199z" />
    <glyph glyph-name="IJ" unicode="&#x132;" horiz-adv-x="1642" 
d="M973 -18c-160.667 0 -293.332 51 -397.999 153l123 137c61.333 -69.333 149.666 -104 264.999 -104c95.333 0 173.333 30.333 234 91s91 139.667 91 237v938h213v-938c0 -154 -48.667 -278 -146 -372c-96.667 -94.667 -224 -142 -382 -142zM360.002 0h-213v1434h213
v-1434z" />
    <glyph glyph-name="ij" unicode="&#x133;" horiz-adv-x="983" 
d="M240 -373l102 118.999c34 -34 79.667 -51 137 -51c49.333 0 89.333 17.333 120 52s46 80 46 136v1141h199v-1149c0 -103.333 -32 -187.666 -96 -252.999c-64.667 -64.667 -148.667 -97 -252 -97c-102.667 0 -188 34 -256 102zM141 -0.000976562v1024h199v-1024h-199z
M844 1231h-199v203h199v-203zM340 1231h-199v203h199v-203z" />
    <glyph glyph-name="Jcircumflex" unicode="&#x134;" horiz-adv-x="1128" 
d="M774 496l0.000976562 937.999h213v-938c0 -154 -48.667 -278 -146 -372c-97.333 -94.667 -224.666 -142 -381.999 -142c-160.667 0 -293.334 51 -398.001 153l123 137c61.333 -69.333 149.666 -104 264.999 -104c94.667 0 172.667 30.667 234 92
c60.667 60.667 91 139.334 91 236.001zM645.001 1522l-98 98l334 235l336 -235l-99 -98l-237 170z" />
    <glyph glyph-name="jcircumflex" unicode="&#x135;" horiz-adv-x="503" 
d="M-240 -373l103 118.999c34 -34 79.667 -51 137 -51c49.333 0 89.333 17.333 120 52s46 80 46 136v1141h199v-1149c0 -103.333 -32 -187.666 -96 -252.999c-64.667 -64.667 -149 -97 -253 -97c-102.667 0 -188 34 -256 102zM29 1186l-101 98l336 236l336 -236l-100 -98
l-236 170z" />
    <glyph glyph-name="uni0136" unicode="&#x136;" horiz-adv-x="1396" 
d="M152 0v1434h213v-676l651 676h274l-571 -588l622 -846h-241l-520 700l-215 -221v-479h-213zM815 -82l-119 -326h-112l57 326h174z" />
    <glyph glyph-name="uni0137" unicode="&#x137;" horiz-adv-x="1126" 
d="M141 0v1485h199v-924l434 463h240l-383 -406l442 -618h-215l-350 487l-168 -178v-309h-199zM680 -82l-117 -326h-112l57 326h172z" />
    <glyph glyph-name="Lacute" unicode="&#x139;" horiz-adv-x="1226" 
d="M1167 0h-1015v1434h213v-1256h802v-178zM100 1579l299 301l121 -121l-342 -258z" />
    <glyph glyph-name="lacute" unicode="&#x13a;" horiz-adv-x="591" 
d="M510 186l91.999 -118c-55.333 -57.333 -122.333 -86 -201 -86c-76.667 0 -139 24.333 -187 73c-48.667 48 -73 110.333 -73 187v1243h199v-1229c0 -30 8.5 -54.167 25.5 -72.5s40.5 -27.5 70.5 -27.5c28.667 -0.666992 53.334 9.33301 74.001 30zM85.999 1602l299 301
l121 -121l-342 -258z" />
    <glyph glyph-name="uni013B" unicode="&#x13b;" horiz-adv-x="1226" 
d="M1167 0h-1015v1434h213v-1256h802v-178zM635 -408h-113l58 326h174z" />
    <glyph glyph-name="uni013C" unicode="&#x13c;" horiz-adv-x="591" 
d="M510 186l91.999 -118c-55.333 -57.333 -122.333 -86 -201 -86c-76.667 0 -139 24.333 -187 73c-48.667 48 -73 110.333 -73 187v1243h199v-1229c0 -30 8.5 -54.167 25.5 -72.5s40.5 -27.5 70.5 -27.5c28.667 -0.666992 53.334 9.33301 74.001 30zM337.999 -408h-113
l58 326h174z" />
    <glyph glyph-name="Lcaron" unicode="&#x13d;" horiz-adv-x="1232" 
d="M1167 0h-1015v1434h213v-1256h802v-178zM879 1051h-142l80 434h199z" />
    <glyph glyph-name="lcaron" unicode="&#x13e;" horiz-adv-x="794" 
d="M141 242v1243h199v-1229c0 -30 8.5 -54.167 25.5 -72.5s40.5 -27.5 70.5 -27.5c28 0 52.667 10 74 30l92 -118c-55.333 -57.333 -122.333 -86 -201 -86c-76.667 0 -139 24.333 -187 73c-48.667 48 -73 110.333 -73 187zM782 1485l-139 -434h-139l78 434h200z" />
    <glyph glyph-name="Ldot" unicode="&#x13f;" horiz-adv-x="1232" 
d="M1167 0h-1015v1434h213v-1256h802v-178zM971 600h-201v236h201v-236z" />
    <glyph glyph-name="ldot" unicode="&#x140;" horiz-adv-x="874" 
d="M510 186l91.999 -118c-55.333 -57.333 -122.333 -86 -201 -86c-76.667 0 -139 24.333 -187 73c-48.667 48 -73 110.333 -73 187v1243h199v-1229c0 -30 8.5 -54.167 25.5 -72.5s40.5 -27.5 70.5 -27.5c28.667 -0.666992 53.334 9.33301 74.001 30zM767.999 600h-201v236
h201v-236z" />
    <glyph glyph-name="Lslash" unicode="&#x141;" horiz-adv-x="1251" 
d="M176 596l-129 -74l-63 109l192 112v691h213v-568l184 107l64 -111l-248 -143v-541h803v-178h-1016v596z" />
    <glyph glyph-name="lslash" unicode="&#x142;" horiz-adv-x="626" 
d="M176 637l-129 -74l-63 109l192 112v701h199v-586l157 92l64 -110l-221 -127v-498c0 -30 8.5 -54.167 25.5 -72.5s39.833 -27.5 68.5 -27.5c30 0 55.333 10 76 30l92 -118c-55.333 -57.333 -123 -86 -203 -86c-77.333 0 -139.333 24.333 -186 73
c-48 48 -72 110.333 -72 187v395z" />
    <glyph glyph-name="Nacute" unicode="&#x143;" horiz-adv-x="1568" 
d="M356 0h-204v1434h202l858 -1094v1094h205v-1434h-205l-856 1102v-1102zM707 1501l-78 78l299 301l119 -121z" />
    <glyph glyph-name="nacute" unicode="&#x144;" horiz-adv-x="1230" 
d="M141 0l0.000976562 1024h199v-182c38 62.667 88.667 111.667 152 147s132.666 53 207.999 53c118 0 214.333 -36.667 289 -110c74 -74 111 -169.667 111 -287v-645h-199v606c0 80 -23.667 145.333 -71 196c-48 50 -110.333 75 -187 75c-90 0 -163 -34 -219 -102
c-56 -68.667 -84 -155.667 -84 -261v-514h-199zM557.001 1165l-78 78l297 301l121 -121z" />
    <glyph glyph-name="uni0145" unicode="&#x145;" horiz-adv-x="1568" 
d="M356 0h-204v1434h202l858 -1094v1094h205v-1434h-205l-856 1102v-1102zM756 -408h-113l59 326h172z" />
    <glyph glyph-name="uni0146" unicode="&#x146;" horiz-adv-x="1230" 
d="M141 0l0.000976562 1024h199v-182c38 62.667 88.667 111.667 152 147s132.666 53 207.999 53c118 0 214.333 -36.667 289 -110c74 -74 111 -169.667 111 -287v-645h-199v606c0 80 -23.667 145.333 -71 196c-48 50 -110.333 75 -187 75c-90 0 -163 -34 -219 -102
c-56 -68.667 -84 -155.667 -84 -261v-514h-199zM598.001 -408h-113l58 326h174z" />
    <glyph glyph-name="Ncaron" unicode="&#x147;" horiz-adv-x="1568" 
d="M152 0v1434h202l858 -1094v1094h205v-1434h-205l-856 1102v-1102h-204zM784 1520l-333 237l98 98l235 -169l236 169l98 -98z" />
    <glyph glyph-name="ncaron" unicode="&#x148;" horiz-adv-x="1230" 
d="M340 514l0.000976562 -514h-199v1024h199v-182c38 62.667 88.667 111.667 152 147s132.666 53 207.999 53c118 0 214.333 -36.667 289 -110c74 -74 111 -169.667 111 -287v-645h-199v606c0 80 -23.667 145.333 -71 196c-48 50 -110.333 75 -187 75
c-90 0 -163 -34 -219 -102c-56 -68.667 -84 -155.667 -84 -261zM969.001 1421l-334 -237l-336 237l100 99l236 -170l235 170z" />
    <glyph glyph-name="Eng" unicode="&#x14a;" horiz-adv-x="1568" 
d="M356 1102l-0.000976562 -1102h-204v1434h202l858 -1094v1094h205v-1487c0 -128.667 -39.333 -232 -118 -310c-79.333 -77.333 -184.666 -116 -315.999 -116c-134 0 -243.333 42.333 -328 127l125 135c48 -52 111.667 -78 191 -78c71.333 0 129.333 22.333 174 67
s67 103 67 175v55z" />
    <glyph glyph-name="eng" unicode="&#x14b;" horiz-adv-x="1230" 
d="M340 0l-198.999 -0.000976562v1024h199v-182c38 62.667 88.667 111.667 152 147s132.666 53 207.999 53c118 0 214.333 -36.667 289 -110c74 -74 111 -169.667 111 -287v-770c0 -103.333 -32 -187.666 -96 -252.999c-64.667 -64.667 -148 -97 -250 -97
c-102.667 0 -188 34 -256 102l102 119c34 -34 79.667 -51 137 -51c48 0 87.333 17.333 118 52s46 80 46 136v723c0 80 -23.667 145.333 -71 196c-48 50 -110.333 75 -187 75c-90 0 -163 -34 -219 -102c-56 -68.667 -84 -155.667 -84 -261v-514z" />
    <glyph glyph-name="Omacron" unicode="&#x14c;" horiz-adv-x="1660" 
d="M299 187c-136.667 136 -205 312.666 -205 529.999c0 216.667 68 393.334 204 530.001s313.333 205 532 205c218 0 395.333 -68.333 532 -205s205 -313.334 205 -530.001c0 -215.333 -68.667 -391.666 -206 -528.999s-314.333 -206 -531 -206
c-217.333 0 -394.333 68.333 -531 205zM464 1112c-94.667 -103.333 -142 -235 -142 -395s47.333 -291.333 142 -394c95.333 -103.333 217 -155 365 -155c150.667 0 273.334 51.333 368.001 154c94.667 101.333 142 233 142 395c0 161.333 -47.333 293.333 -142 396
c-95.333 103.333 -218 155 -368 155c-148.667 0 -270.334 -52 -365.001 -156zM1104 1714v-127h-549v127h549z" />
    <glyph glyph-name="omacron" unicode="&#x14d;" horiz-adv-x="1251" 
d="M236 131c-101.333 99.333 -152.002 226.334 -152.002 381.001c0 155.333 50.667 282.666 152 381.999c100.667 98.667 231 148 391 148s290.333 -49.333 391 -148s151 -226 151 -382c0 -155.333 -50.333 -282.333 -151 -381
c-101.333 -99.333 -231.666 -149 -390.999 -149s-289.666 49.667 -390.999 149zM388.998 772.001c-61.333 -67.333 -92 -154 -92 -260s30.667 -192.333 92 -259c60.667 -66 140 -99 238 -99c96.667 0 175.667 33 237 99c61.333 66.667 92 153 92 259
s-30.667 192.667 -92 260c-60.667 66.667 -139.667 100 -237 100c-98 0 -177.333 -33.333 -238 -100zM900.998 1378v-127h-549v127h549z" />
    <glyph glyph-name="Obreve" unicode="&#x14e;" horiz-adv-x="1660" 
d="M299 187c-136.667 136 -205 312.666 -205 529.999c0 216.667 68 393.334 204 530.001s313.333 205 532 205c218 0 395.333 -68.333 532 -205s205 -313.334 205 -530.001c0 -215.333 -68.667 -391.666 -206 -528.999s-314.333 -206 -531 -206
c-217.333 0 -394.333 68.333 -531 205zM464 1112c-94.667 -103.333 -142 -235 -142 -395s47.333 -291.333 142 -394c95.333 -103.333 217 -155 365 -155c150.667 0 273.334 51.333 368.001 154c94.667 101.333 142 233 142 395c0 161.333 -47.333 293.333 -142 396
c-95.333 103.333 -218 155 -368 155c-148.667 0 -270.334 -52 -365.001 -156zM498 1718l127.001 84c40.667 -80.667 109 -121 205 -121c95.333 0 163.333 40.333 204 121l127 -84c-72.667 -118.667 -183.334 -178 -332.001 -178c-146.667 0 -257 59.333 -331 178z" />
    <glyph glyph-name="obreve" unicode="&#x14f;" horiz-adv-x="1251" 
d="M236 131c-101.333 99.333 -152.002 226.334 -152.002 381.001c0 155.333 50.667 282.666 152 381.999c100.667 98.667 231 148 391 148s290.333 -49.333 391 -148s151 -226 151 -382c0 -155.333 -50.333 -282.333 -151 -381
c-101.333 -99.333 -231.666 -149 -390.999 -149s-289.666 49.667 -390.999 149zM388.998 772.001c-61.333 -67.333 -92 -154 -92 -260s30.667 -192.333 92 -259c60.667 -66 140 -99 238 -99c96.667 0 175.667 33 237 99c61.333 66.667 92 153 92 259
s-30.667 192.667 -92 260c-60.667 66.667 -139.667 100 -237 100c-98 0 -177.333 -33.333 -238 -100zM294.998 1382l127.001 84c40.667 -80.667 109 -120.667 205 -120c95.333 0 163.333 40 204 120l127 -84c-74 -118.667 -184.333 -178 -331 -178
c-148.667 0 -259.334 59.333 -332.001 178z" />
    <glyph glyph-name="Ohungarumlaut" unicode="&#x150;" horiz-adv-x="1660" 
d="M299 187c-136.667 136 -205 312.666 -205 529.999c0 216.667 68 393.334 204 530.001s313.333 205 532 205c218 0 395.333 -68.333 532 -205s205 -313.334 205 -530.001c0 -215.333 -68.667 -391.666 -206 -528.999s-314.333 -206 -531 -206
c-217.333 0 -394.333 68.333 -531 205zM464 1112c-94.667 -103.333 -142 -235 -142 -395s47.333 -291.333 142 -394c95.333 -103.333 217 -155 365 -155c150.667 0 273.334 51.333 368.001 154c94.667 101.333 142 233 142 395c0 161.333 -47.333 293.333 -142 396
c-95.333 103.333 -218 155 -368 155c-148.667 0 -270.334 -52 -365.001 -156zM481 1579l297 301l121 -121l-342 -258zM864 1579l299 301l121 -121l-342 -258z" />
    <glyph glyph-name="ohungarumlaut" unicode="&#x151;" horiz-adv-x="1251" 
d="M236 131c-101.333 99.333 -152.002 226.334 -152.002 381.001c0 155.333 50.667 282.666 152 381.999c100.667 98.667 231 148 391 148s290.333 -49.333 391 -148s151 -226 151 -382c0 -155.333 -50.333 -282.333 -151 -381
c-101.333 -99.333 -231.666 -149 -390.999 -149s-289.666 49.667 -390.999 149zM388.998 772.001c-61.333 -67.333 -92 -154 -92 -260s30.667 -192.333 92 -259c60.667 -66 140 -99 238 -99c96.667 0 175.667 33 237 99c61.333 66.667 92 153 92 259
s-30.667 192.667 -92 260c-60.667 66.667 -139.667 100 -237 100c-98 0 -177.333 -33.333 -238 -100zM275.998 1243l299 301l121 -121l-342 -258zM661.998 1243l299 301l118 -121l-340 -258z" />
    <glyph glyph-name="OE" unicode="&#x152;" horiz-adv-x="2504" 
d="M829 -18c-217.333 0 -393.999 68.332 -529.999 204.999c-136.667 136 -205 312.667 -205 530c0 216.667 68 393.334 204 530.001s313 205 531 205c209.333 0 380.666 -69.667 513.999 -209v191h1037v-177h-824v-438h762v-176h-762v-465h842v-178h-1055v190
c-132.667 -138.667 -304 -208 -514 -208zM464.001 1112c-94.667 -103.333 -142 -235 -142 -395s47.333 -291.333 142 -394c95.333 -103.333 217 -155 365 -155c150.667 0 273.334 51.333 368.001 154c94.667 101.333 142 233 142 395c0 161.333 -47.333 293.333 -142 396
c-95.333 103.333 -218 155 -368 155c-148.667 0 -270.334 -52 -365.001 -156z" />
    <glyph glyph-name="oe" unicode="&#x153;" horiz-adv-x="2056" 
d="M627 -18c-159.333 0 -289.668 49.667 -391.001 149s-152 226.333 -152 381c0 155.333 50.667 282.666 152 381.999c100.667 98.667 231 148 391 148c190.667 0 334.667 -68.667 432 -206c90 138 225 206.667 405 206c150.667 0 273.334 -49.333 368.001 -148
s142 -226.667 142 -384c0 -15.333 -1.33301 -36.666 -4 -63.999h-803c7.33301 -86 45.666 -156 114.999 -210c68.667 -54.667 155.334 -82 260.001 -82c117.333 0 208.333 30 273 90l108 -109c-103.333 -103.333 -238.333 -154.333 -405 -153
c-203.333 0 -354.333 72.333 -453 217c-94 -144.667 -240 -217 -438 -217zM388.998 772c-61.333 -67.333 -92 -154 -92 -260s30.667 -192.333 92 -259c60.667 -66 140 -99 238 -99c96.667 0 175.667 33 237 99c61.333 66.667 92 153 92 259s-30.667 192.667 -92 260
c-60.667 66.667 -139.667 100 -237 100c-98 0 -177.333 -33.333 -238 -100zM1684 797c-53.333 51.333 -121.668 77 -205.001 77s-153.666 -25.667 -210.999 -77c-57.333 -52 -90.333 -119 -99 -201h598c-3.33301 82.667 -31 149.667 -83 201z" />
    <glyph glyph-name="Racute" unicode="&#x154;" horiz-adv-x="1406" 
d="M365 565v-565.001h-213v1434h682c130 0 236 -40 318 -120c81.333 -80 122 -184.333 122 -313c0 -98 -25.667 -183.667 -77 -257c-50.667 -73.333 -120 -124.666 -208 -153.999l357 -590h-234l-340 565h-407zM811 1257h-446.001v-514h446c74 0 134.333 24 181 72
c46 48 69 111 69 189c0 76.667 -23 138 -69 184c-47.333 46 -107.666 69 -180.999 69zM574.999 1501l-77 78l299 301l121 -121z" />
    <glyph glyph-name="racute" unicode="&#x155;" horiz-adv-x="763" 
d="M340 485v-485h-199v1024h199v-246c36.667 84 88.5 149 155.5 195s143.5 69 229.5 69v-192c-114 0 -206.333 -34 -277 -102c-72 -69.333 -108 -157 -108 -263zM358 1165l-77 78l299 301l118 -121z" />
    <glyph glyph-name="uni0156" unicode="&#x156;" horiz-adv-x="1406" 
d="M365 565v-565.001h-213v1434h682c130 0 236 -40 318 -120c81.333 -80 122 -184.333 122 -313c0 -98 -25.667 -183.667 -77 -257c-50.667 -73.333 -120 -124.666 -208 -153.999l357 -590h-234l-340 565h-407zM811 1257h-446.001v-514h446c74 0 134.333 24 181 72
c46 48 69 111 69 189c0 76.667 -23 138 -69 184c-47.333 46 -107.666 69 -180.999 69zM820.999 -82.001l-116 -326h-113l57 326h172z" />
    <glyph glyph-name="uni0157" unicode="&#x157;" horiz-adv-x="763" 
d="M340 485v-485h-199v1024h199v-246c36.667 84 88.5 149 155.5 195s143.5 69 229.5 69v-192c-114 0 -206.333 -34 -277 -102c-72 -69.333 -108 -157 -108 -263zM215 -408h-113l58 326h172z" />
    <glyph glyph-name="Rcaron" unicode="&#x158;" horiz-adv-x="1406" 
d="M152 0v1434h682c130 0 236 -40 318 -120c81.333 -80 122 -184.333 122 -313c0 -98 -25.667 -183.667 -77 -257c-50.667 -73.333 -120 -124.666 -208 -153.999l357 -590h-234l-340 565h-407v-565h-213zM811 1257h-446.001v-514h446c74 0 134.333 24 181 72
c46 48 69 111 69 189c0 76.667 -23 138 -69 184c-47.333 46 -107.666 69 -180.999 69zM986.999 1757l-332 -237l-336 237l99 98l237 -169l236 169z" />
    <glyph glyph-name="rcaron" unicode="&#x159;" horiz-adv-x="763" 
d="M340 485v-485h-199v1024h199v-246c36.667 84 88.5 149 155.5 195s143.5 69 229.5 69v-192c-114 0 -206.333 -34 -277 -102c-72 -69.333 -108 -157 -108 -263zM436 1184l-334 237l99 99l235 -170l236 170l98 -99z" />
    <glyph glyph-name="Sacute" unicode="&#x15a;" horiz-adv-x="1236" 
d="M1141 391c0 -117.333 -48.6719 -214.669 -146.005 -292.002c-98 -78 -222.667 -117 -374 -117c-100.667 0 -198 17.667 -292 53c-92.667 34.667 -171 82.334 -235 143.001l109 137c46.667 -45.333 105.334 -81.166 176.001 -107.499s145 -39.5 223 -39.5
c95.333 0 173.666 20 234.999 60c60.667 38.667 91 89 91 151c0 54.667 -25 99 -75 133c-50.667 34.667 -131.667 69.334 -243 104.001c-167.333 54.667 -290.666 115.667 -369.999 183s-119 152 -119 254c0 116 44.667 211.667 134 287
c88.667 74.667 204.334 112 347.001 112c95.333 0 187 -17.333 275 -52c88.667 -34.667 161 -80.667 217 -138l-107 -138c-39.333 42 -91.666 76.667 -156.999 104c-65.333 26.667 -133.666 40 -204.999 40c-85.333 0 -155.666 -19 -210.999 -57
c-54.667 -38.667 -82 -88 -82 -148c0 -56 25.333 -101.333 76 -136c51.333 -36 133.666 -72.667 246.999 -110c164.667 -56 287.334 -116.333 368.001 -181c78.667 -62.667 118 -144.334 118 -245.001zM454.995 1579l297 301l120 -121l-340 -258z" />
    <glyph glyph-name="sacute" unicode="&#x15b;" horiz-adv-x="964" 
d="M879 291c0 -92 -37.666 -166.668 -112.999 -224.001c-74.667 -56.667 -174.334 -85 -299.001 -85c-150.667 0 -279.667 47.667 -387 143l102 117c73.333 -61.333 167 -92 281 -92c68 0 122.5 11.833 163.5 35.5s61.5 54.834 61.5 93.501c0 36.667 -17.667 65 -53 85
c-36.667 20 -92 41.333 -166 64c-8 2.66699 -14.667 4.66699 -20 6c-48 14 -89.667 28.333 -125 43c-34 14 -68.667 32.333 -104 55c-74 46.667 -111 117 -111 211c0 91.333 34.667 164 104 218c68.667 54 162.334 81 281.001 81c142.667 0 260.667 -45 354 -135l-103 -119
c-64.667 57.333 -146.334 86 -245.001 86c-60 0 -108.5 -10.833 -145.5 -32.5s-55.5 -50.167 -55.5 -85.5c0 -28 13 -52.333 39 -73c26.667 -22 51 -36.667 73 -44c12.667 -4.66699 49.667 -17 111 -37c47.333 -13.333 83 -24.333 107 -33c24 -8 55 -21.667 93 -41
c36.667 -19.333 64.667 -38.666 84 -57.999c48.667 -48.667 73 -108.334 73 -179.001zM330.001 1243l299 301l121 -121l-342 -258z" />
    <glyph glyph-name="Scircumflex" unicode="&#x15c;" horiz-adv-x="1236" 
d="M1141 391c0 -117.333 -48.6719 -214.669 -146.005 -292.002c-98 -78 -222.667 -117 -374 -117c-100.667 0 -198 17.667 -292 53c-92.667 34.667 -171 82.334 -235 143.001l109 137c46.667 -45.333 105.334 -81.166 176.001 -107.499s145 -39.5 223 -39.5
c95.333 0 173.666 20 234.999 60c60.667 38.667 91 89 91 151c0 54.667 -25 99 -75 133c-50.667 34.667 -131.667 69.334 -243 104.001c-167.333 54.667 -290.666 115.667 -369.999 183s-119 152 -119 254c0 116 44.667 211.667 134 287
c88.667 74.667 204.334 112 347.001 112c95.333 0 187 -17.333 275 -52c88.667 -34.667 161 -80.667 217 -138l-107 -138c-39.333 42 -91.666 76.667 -156.999 104c-65.333 26.667 -133.666 40 -204.999 40c-85.333 0 -155.666 -19 -210.999 -57
c-54.667 -38.667 -82 -88 -82 -148c0 -56 25.333 -101.333 76 -136c51.333 -36 133.666 -72.667 246.999 -110c164.667 -56 287.334 -116.333 368.001 -181c78.667 -62.667 118 -144.334 118 -245.001zM374.995 1522l-101 98l336 235l336 -235l-100 -98l-236 170z" />
    <glyph glyph-name="scircumflex" unicode="&#x15d;" horiz-adv-x="964" 
d="M879 291c0 -92 -37.666 -166.668 -112.999 -224.001c-74.667 -56.667 -174.334 -85 -299.001 -85c-150.667 0 -279.667 47.667 -387 143l102 117c73.333 -61.333 167 -92 281 -92c68 0 122.5 11.833 163.5 35.5s61.5 54.834 61.5 93.501c0 36.667 -17.667 65 -53 85
c-36.667 20 -92 41.333 -166 64c-8 2.66699 -14.667 4.66699 -20 6c-48 14 -89.667 28.333 -125 43c-34 14 -68.667 32.333 -104 55c-74 46.667 -111 117 -111 211c0 91.333 34.667 164 104 218c68.667 54 162.334 81 281.001 81c142.667 0 260.667 -45 354 -135l-103 -119
c-64.667 57.333 -146.334 86 -245.001 86c-60 0 -108.5 -10.833 -145.5 -32.5s-55.5 -50.167 -55.5 -85.5c0 -28 13 -52.333 39 -73c26.667 -22 51 -36.667 73 -44c12.667 -4.66699 49.667 -17 111 -37c47.333 -13.333 83 -24.333 107 -33c24 -8 55 -21.667 93 -41
c36.667 -19.333 64.667 -38.666 84 -57.999c48.667 -48.667 73 -108.334 73 -179.001zM250.001 1186l-98 98l335 236l334 -236l-98 -98l-236 170z" />
    <glyph glyph-name="Scedilla" unicode="&#x15e;" horiz-adv-x="1236" 
d="M543 -190l19.9932 173.999c-91.333 5.33301 -178.333 25.333 -261 60c-83.333 35.333 -152.666 80 -207.999 134l109 137c46.667 -45.333 105.334 -81.166 176.001 -107.499s145 -39.5 223 -39.5c95.333 0 173.666 20 234.999 60c60.667 38.667 91 89 91 151
c0 54.667 -25 99 -75 133c-50.667 34.667 -131.667 69.334 -243 104.001c-167.333 54.667 -290.666 115.667 -369.999 183s-119 152 -119 254c0 116 44.667 211.667 134 287c88.667 74.667 204.334 112 347.001 112c95.333 0 187 -17.333 275 -52
c88.667 -34.667 161 -80.667 217 -138l-107 -138c-39.333 42 -91.666 76.667 -156.999 104c-65.333 26.667 -133.666 40 -204.999 40c-85.333 0 -155.666 -19 -210.999 -57c-54.667 -38.667 -82 -88 -82 -148c0 -56 25.333 -101.333 76 -136
c51.333 -36 133.666 -72.667 246.999 -110c164.667 -56 287.334 -116.333 368.001 -181c78.667 -62.667 118 -144.334 118 -245.001c0 -111.333 -43.333 -204.333 -130 -279c-87.333 -76.667 -199.666 -119.334 -336.999 -128.001l-15 -97c44 -6.66699 79.667 -25 107 -55
s41 -66 41 -108c0 -45.333 -17.667 -82 -53 -110c-36 -28 -80.333 -42 -133 -42c-40.667 0 -80.334 8 -119.001 24c-39.333 17.333 -68.666 38 -87.999 62l67 74c31.333 -34 71 -51 119 -51c23.333 0 42.833 5.33301 58.5 16s23.5 24.334 23.5 41.001
c0 22 -12.667 39.5 -38 52.5s-59 19.5 -101 19.5z" />
    <glyph glyph-name="scedilla" unicode="&#x15f;" horiz-adv-x="964" 
d="M80 125l101.999 116.998c73.333 -61.333 167 -92 281 -92c68 0 122.5 11.833 163.5 35.5s61.5 54.834 61.5 93.501c0 36.667 -17.667 65 -53 85c-36.667 20 -92 41.333 -166 64c-8 2.66699 -14.667 4.66699 -20 6c-48 14 -89.667 28.333 -125 43
c-34 14 -68.667 32.333 -104 55c-74 46.667 -111 117 -111 211c0 91.333 34.667 164 104 218c68.667 54 162.334 81 281.001 81c142.667 0 260.667 -45 354 -135l-103 -119c-64.667 57.333 -146.334 86 -245.001 86c-60 0 -108.5 -10.833 -145.5 -32.5
s-55.5 -50.167 -55.5 -85.5c0 -28 13 -52.333 39 -73c26.667 -22 51 -36.667 73 -44c12.667 -4.66699 49.667 -17 111 -37c47.333 -13.333 83 -24.333 107 -33c24 -8 55 -21.667 93 -41c36.667 -19.333 64.667 -38.666 84 -57.999c48.667 -48.667 73 -108.334 73 -179.001
c0 -82.667 -30.667 -151.667 -92 -207c-61.333 -54 -144.666 -86.667 -249.999 -98l-13 -99c44 -6.66699 79.333 -25 106 -55s40 -66 40 -108c0 -45.333 -17.333 -82 -52 -110s-79.667 -42 -135 -42c-40 0 -79 8.16699 -117 24.5s-67 36.833 -87 61.5l67 74
c30 -34 69 -51 117 -51c24 0 44 5.33301 60 16s24 24.334 24 41.001c0 22 -13 39.5 -39 52.5s-60 19.5 -102 19.5l22 174c-134.667 5.33301 -250.667 52.333 -348 141z" />
    <glyph glyph-name="Scaron" unicode="&#x160;" horiz-adv-x="1236" 
d="M1141 391c0 -117.333 -48.6719 -214.669 -146.005 -292.002c-98 -78 -222.667 -117 -374 -117c-100.667 0 -198 17.667 -292 53c-92.667 34.667 -171 82.334 -235 143.001l109 137c46.667 -45.333 105.334 -81.166 176.001 -107.499s145 -39.5 223 -39.5
c95.333 0 173.666 20 234.999 60c60.667 38.667 91 89 91 151c0 54.667 -25 99 -75 133c-50.667 34.667 -131.667 69.334 -243 104.001c-167.333 54.667 -290.666 115.667 -369.999 183s-119 152 -119 254c0 116 44.667 211.667 134 287
c88.667 74.667 204.334 112 347.001 112c95.333 0 187 -17.333 275 -52c88.667 -34.667 161 -80.667 217 -138l-107 -138c-39.333 42 -91.666 76.667 -156.999 104c-65.333 26.667 -133.666 40 -204.999 40c-85.333 0 -155.666 -19 -210.999 -57
c-54.667 -38.667 -82 -88 -82 -148c0 -56 25.333 -101.333 76 -136c51.333 -36 133.666 -72.667 246.999 -110c164.667 -56 287.334 -116.333 368.001 -181c78.667 -62.667 118 -144.334 118 -245.001zM845.995 1855l98 -98l-334 -237l-336 237l101 98l235 -169z" />
    <glyph glyph-name="scaron" unicode="&#x161;" horiz-adv-x="964" 
d="M879 291c0 -92 -37.666 -166.668 -112.999 -224.001c-74.667 -56.667 -174.334 -85 -299.001 -85c-150.667 0 -279.667 47.667 -387 143l102 117c73.333 -61.333 167 -92 281 -92c68 0 122.5 11.833 163.5 35.5s61.5 54.834 61.5 93.501c0 36.667 -17.667 65 -53 85
c-36.667 20 -92 41.333 -166 64c-8 2.66699 -14.667 4.66699 -20 6c-48 14 -89.667 28.333 -125 43c-34 14 -68.667 32.333 -104 55c-74 46.667 -111 117 -111 211c0 91.333 34.667 164 104 218c68.667 54 162.334 81 281.001 81c142.667 0 260.667 -45 354 -135l-103 -119
c-64.667 57.333 -146.334 86 -245.001 86c-60 0 -108.5 -10.833 -145.5 -32.5s-55.5 -50.167 -55.5 -85.5c0 -28 13 -52.333 39 -73c26.667 -22 51 -36.667 73 -44c12.667 -4.66699 49.667 -17 111 -37c47.333 -13.333 83 -24.333 107 -33c24 -8 55 -21.667 93 -41
c36.667 -19.333 64.667 -38.666 84 -57.999c48.667 -48.667 73 -108.334 73 -179.001zM723.001 1520l96 -99l-332 -237l-335 237l98 99l237 -170z" />
    <glyph glyph-name="uni0162" unicode="&#x162;" horiz-adv-x="1370" 
d="M49 1257v177h1272v-177h-528v-1257h-213v1257h-531zM774 -82l-117 -326h-112l57 326h172z" />
    <glyph glyph-name="uni0163" unicode="&#x163;" horiz-adv-x="878" 
d="M233 868h-193.999v156h194v199l199 77v-276h340v-156h-340v-551c0 -48 14.333 -86.833 43 -116.5s66.334 -44.5 113.001 -44.5c53.333 0 97.666 17.667 132.999 53l98 -98c-60.667 -86 -149.334 -129 -266.001 -129c-92.667 0 -169 29 -229 87
c-60.667 58 -91 132 -91 222v577zM596.001 -82l-117 -326h-112l57 326h172z" />
    <glyph glyph-name="Tcaron" unicode="&#x164;" horiz-adv-x="1370" 
d="M580 1257h-531v177h1272v-177h-528v-1257h-213v1257zM686 1520l-336 237l99 98l237 -169l236 169l96 -98z" />
    <glyph glyph-name="tcaron" unicode="&#x165;" horiz-adv-x="878" 
d="M233 868h-193.999v156h194v199l199 77v-276h340v-156h-340v-551c0 -48 14.333 -86.833 43 -116.5s66.334 -44.5 113.001 -44.5c53.333 0 97.666 17.667 132.999 53l98 -98c-60.667 -86 -149.334 -129 -266.001 -129c-92.667 0 -169 29 -229 87
c-60.667 58 -91 132 -91 222v577zM862.001 1485l-123 -350h-139l62 350h200z" />
    <glyph glyph-name="Tbar" unicode="&#x166;" horiz-adv-x="1370" 
d="M49 1257v177h1272v-177h-528v-479h264v-127h-264v-651h-213v651h-265v127h265v479h-531z" />
    <glyph glyph-name="tbar" unicode="&#x167;" horiz-adv-x="878" 
d="M432 1300l0.000976562 -276h340v-156h-340v-221h295v-127h-295v-203c0 -48 14.333 -86.833 43 -116.5s66.334 -44.5 113.001 -44.5c53.333 0 97.666 17.667 132.999 53l98 -98c-60.667 -86 -149.334 -129 -266.001 -129c-92.667 0 -169 29 -229 87
c-60.667 58 -91 132 -91 222v229h-174v127h174v221h-194v156h194v199z" />
    <glyph glyph-name="Utilde" unicode="&#x168;" horiz-adv-x="1540" 
d="M770 -18c-188 0 -339.668 56.334 -455.001 169.001c-116 112 -174 262.333 -174 451v832h213v-832c0 -134.667 38.333 -240.334 115 -317.001c76.667 -78 177 -117 301 -117s224.667 39 302 117c77.333 77.333 116 183 116 317v832h213v-832
c0 -188.667 -58 -339 -174 -451c-115.333 -112.667 -267.666 -169 -456.999 -169zM577.999 1561l-144.005 -0.000976562c0 69.333 21.333 125 64 167c42.667 41.333 97.334 62 164.001 62c26 0.666992 51.167 -4.16602 75.5 -14.499s43.833 -21.833 58.5 -34.5
s30.334 -24 47.001 -34s31.334 -14.333 44.001 -13c22 0 39.833 8.16699 53.5 24.5s20.5 36.833 20.5 61.5h143c0 -66 -20.667 -120.667 -62 -164c-42 -42.667 -96.333 -64 -163 -64c-47.333 0 -91.666 16 -132.999 48c-41.333 31.333 -72.333 47 -93 47
c-23.333 0 -41.666 -7.83301 -54.999 -23.5s-20 -36.5 -20 -62.5z" />
    <glyph glyph-name="utilde" unicode="&#x169;" horiz-adv-x="1234" 
d="M141 379l-0.000976562 645.001h199v-606c0 -80 23.667 -145.333 71 -196c47.333 -50 109 -75 185 -75c88.667 0 161 34.333 217 103c56 68 84 154.667 84 260v514h199v-1024h-199v184c-38 -63.333 -88.667 -112.833 -152 -148.5s-132.666 -53.5 -207.999 -53.5
c-118 0 -213.333 37 -286 111c-73.333 73.333 -110 168.666 -110 285.999zM425.999 1231l-143.001 0.000976562c0 69.333 21.333 125 64 167c42.667 41.333 97 62 163 62c48.667 0 93.667 -15.667 135 -47c40.667 -31.333 70 -47 88 -47c23.333 0 41.833 7.83301 55.5 23.5
s20.5 36.5 20.5 62.5h143c0 -66.667 -21 -121.334 -63 -164.001c-43.333 -43.333 -97.333 -65 -162 -65c-47.333 0 -91.666 15.667 -132.999 47s-72 47 -92 47c-24 0 -42.667 -7.5 -56 -22.5s-20 -36.167 -20 -63.5z" />
    <glyph glyph-name="Umacron" unicode="&#x16a;" horiz-adv-x="1540" 
d="M770 -18c-188 0 -339.668 56.334 -455.001 169.001c-116 112 -174 262.333 -174 451v832h213v-832c0 -134.667 38.333 -240.334 115 -317.001c76.667 -78 177 -117 301 -117s224.667 39 302 117c77.333 77.333 116 183 116 317v832h213v-832
c0 -188.667 -58 -339 -174 -451c-115.333 -112.667 -267.666 -169 -456.999 -169zM1044 1587h-548v127h548v-127z" />
    <glyph glyph-name="umacron" unicode="&#x16b;" horiz-adv-x="1234" 
d="M141 379l-0.000976562 645.001h199v-606c0 -80 23.667 -145.333 71 -196c47.333 -50 109 -75 185 -75c88.667 0 161 34.333 217 103c56 68 84 154.667 84 260v514h199v-1024h-199v184c-38 -63.333 -88.667 -112.833 -152 -148.5s-132.666 -53.5 -207.999 -53.5
c-118 0 -213.333 37 -286 111c-73.333 73.333 -110 168.666 -110 285.999zM343.999 1251v127h549v-127h-549z" />
    <glyph glyph-name="Ubreve" unicode="&#x16c;" horiz-adv-x="1540" 
d="M141 602l-0.000976562 832.001h213v-832c0 -134.667 38.333 -240.334 115 -317.001c76.667 -78 177 -117 301 -117s224.667 39 302 117c77.333 77.333 116 183 116 317v832h213v-832c0 -188.667 -58 -339 -174 -451c-115.333 -112.667 -267.666 -169 -456.999 -169
c-188 0 -339.667 56.333 -455 169c-116 112 -174 262.333 -174 451zM437.999 1718l127.001 84c40.667 -80.667 109 -121 205 -121s164.333 40.333 205 121l127 -84c-72.667 -118.667 -183.334 -178 -332.001 -178c-147.333 0 -258 59.333 -332 178z" />
    <glyph glyph-name="ubreve" unicode="&#x16d;" horiz-adv-x="1234" 
d="M141 379l-0.000976562 645.001h199v-606c0 -80 23.667 -145.333 71 -196c47.333 -50 109 -75 185 -75c88.667 0 161 34.333 217 103c56 68 84 154.667 84 260v514h199v-1024h-199v184c-38 -63.333 -88.667 -112.833 -152 -148.5s-132.666 -53.5 -207.999 -53.5
c-118 0 -213.333 37 -286 111c-73.333 73.333 -110 168.666 -110 285.999zM617.999 1204c-148.667 0 -259 59.333 -331 178l127 84c40.667 -80.667 109 -120.667 205 -120c95.333 0 163.333 40 204 120l127 -84c-74 -118.667 -184.667 -178 -332 -178z" />
    <glyph glyph-name="Uring" unicode="&#x16e;" horiz-adv-x="1540" 
d="M141 602l-0.000976562 832.001h213v-832c0 -134.667 38.333 -240.334 115 -317.001c76.667 -78 177 -117 301 -117s224.667 39 302 117c77.333 77.333 116 183 116 317v832h213v-832c0 -188.667 -58 -339 -174 -451c-115.333 -112.667 -267.666 -169 -456.999 -169
c-188 0 -339.667 56.333 -455 169c-116 112 -174 262.333 -174 451zM593.999 1692c0 52 16.332 94.332 48.999 126.999s75 49 127 49c52.667 0 95.334 -16.333 128.001 -49c33.333 -33.333 50 -75.666 50 -126.999c0 -52.667 -16.667 -95.667 -50 -129s-76 -50 -128 -50
s-94.333 16.5 -127 49.5s-49 76.167 -49 129.5zM824.998 1748c-16 14 -34.165 20.999 -54.498 20.999s-38.833 -7.5 -55.5 -22.5s-24.334 -33.167 -23.001 -54.5c0 -23.333 7.16699 -42.166 21.5 -56.499s33.166 -21.5 56.499 -21.5s42 7.33301 56 22
c13.333 14 20 32.5 20 55.5s-7 41.833 -21 56.5z" />
    <glyph glyph-name="uring" unicode="&#x16f;" horiz-adv-x="1234" 
d="M141 379l-0.000976562 645.001h199v-606c0 -80 23.667 -145.333 71 -196c47.333 -50 109 -75 185 -75c88.667 0 161 34.333 217 103c56 68 84 154.667 84 260v514h199v-1024h-199v184c-38 -63.333 -88.667 -112.833 -152 -148.5s-132.666 -53.5 -207.999 -53.5
c-118 0 -213.333 37 -286 111c-73.333 73.333 -110 168.666 -110 285.999zM615.999 1178c-52 0 -94.333 16.333 -127 49s-49 75.667 -49 129c0 51.333 16.667 93.666 50 126.999c32.667 32.667 74.667 49 126 49c54 0 97.667 -16.333 131 -49
c33.333 -33.333 50 -75.666 50 -126.999c0 -53.333 -16.667 -96.333 -50 -129s-77 -49 -131 -49zM561.999 1413c-14 -14.667 -21 -33.666 -21 -56.999s7.33301 -42 22 -56c14 -14.667 32.333 -22 55 -22c22 0 40.167 7.16699 54.5 21.5s21.5 33.166 21.5 56.499
c0 22 -7.16699 40.5 -21.5 55.5s-32.5 22.5 -54.5 22.5c-23.333 0 -42 -7 -56 -21z" />
    <glyph glyph-name="Uhungarumlaut" unicode="&#x170;" horiz-adv-x="1540" 
d="M770 -18c-188 0 -339.668 56.334 -455.001 169.001c-116 112 -174 262.333 -174 451v832h213v-832c0 -134.667 38.333 -240.334 115 -317.001c76.667 -78 177 -117 301 -117s224.667 39 302 117c77.333 77.333 116 183 116 317v832h213v-832
c0 -188.667 -58 -339 -174 -451c-115.333 -112.667 -267.666 -169 -456.999 -169zM1225 1759l-342 -258l-78 78l299 301zM839.999 1759l-342 -258l-76 78l297 301z" />
    <glyph glyph-name="uhungarumlaut" unicode="&#x171;" horiz-adv-x="1234" 
d="M141 379l-0.000976562 645.001h199v-606c0 -80 23.667 -145.333 71 -196c47.333 -50 109 -75 185 -75c88.667 0 161 34.333 217 103c56 68 84 154.667 84 260v514h199v-1024h-199v184c-38 -63.333 -88.667 -112.833 -152 -148.5s-132.666 -53.5 -207.999 -53.5
c-118 0 -213.333 37 -286 111c-73.333 73.333 -110 168.666 -110 285.999zM345.999 1165l-78 78l299 301l121 -121zM730.999 1165l-78 78l299 301l119 -121z" />
    <glyph glyph-name="Uogonek" unicode="&#x172;" horiz-adv-x="1540" 
d="M141 602l-0.00292969 832.001h213v-832c0 -134.667 38.333 -240.334 115 -317.001c76.667 -78 177 -117 301 -117s224.667 39 302 117c77.333 77.333 116 183 116 317v832h213v-832c0 -161.333 -43.333 -295.333 -130 -402
c-87.333 -107.333 -203.666 -175.333 -348.999 -204c-82 -82 -123 -153.667 -123 -215c0 -54.667 26.667 -82 80 -82c32.667 0 62.667 11.667 90 35l69 -74c-19.333 -26 -46.666 -47.167 -81.999 -63.5s-71.333 -24.5 -108 -24.5c-54 0 -97.5 16.667 -130.5 50
s-49.5 78 -49.5 134c0 84 37.333 159.333 112 226c-191.333 0 -345.666 55.667 -462.999 167s-176 262.333 -176 453z" />
    <glyph glyph-name="uogonek" unicode="&#x173;" horiz-adv-x="1234" 
d="M141 379l-0.000976562 645h199v-606c0 -80 23.667 -145.333 71 -196c47.333 -50 109 -75 185 -75c88.667 0 161 34.333 217 103c56 68 84 154.667 84 260v514h199v-1024h-31c-30 -25.333 -61 -64 -93 -116c-24 -39.333 -36 -73.666 -36 -102.999
c0 -26 7.16699 -46.167 21.5 -60.5s33.833 -21.5 58.5 -21.5c34 0 64.667 11.667 92 35l70 -74c-44.667 -58.667 -109 -88 -193 -88c-54 0 -97.5 16.667 -130.5 50s-49.5 78 -49.5 134c0 46 11.333 88.667 34 128c22 41.333 44 70.333 66 87l35 29h-43v184
c-38 -63.333 -88.667 -112.833 -152 -148.5s-132.666 -53.5 -207.999 -53.5c-118 0 -213.333 37 -286 111c-73.333 73.333 -110 168.666 -110 285.999z" />
    <glyph glyph-name="Wcircumflex" unicode="&#x174;" horiz-adv-x="2265" 
d="M748 0h-222l-479 1434h217l373 -1151l389 1151h215l387 -1151l375 1151h217l-481 -1434h-223l-383 1147zM1133 1692l-236 -170l-98 98l334 235l335 -235l-98 -98z" />
    <glyph glyph-name="wcircumflex" unicode="&#x175;" horiz-adv-x="1669" 
d="M391 0l-354 1024h194l258 -770l256 770h179l254 -770l260 770h196l-358 -1024h-186l-254 754l-258 -754h-187zM598 1186l-98 98l336 236l333 -236l-98 -98l-235 170z" />
    <glyph glyph-name="Ycircumflex" unicode="&#x176;" horiz-adv-x="1419" 
d="M602 0v549l-555 885h234l428 -689l430 689h233l-557 -885v-549h-213zM711 1692l-236 -170l-100 98l336 235l333 -235l-98 -98z" />
    <glyph glyph-name="ycircumflex" unicode="&#x177;" horiz-adv-x="1155" 
d="M915 1024h203.001l-518 -1219c-41.333 -94 -89.333 -164.833 -144 -212.5s-120.667 -71.5 -198 -71.5c-84.667 0 -158.334 29.333 -221.001 88l100 123c30 -26 65 -39 105 -39c73.333 0 137.333 60 192 180l58 125l-455 1026h203l346 -801zM342.001 1186l-98 98l334 236
l335 -236l-100 -98l-235 170z" />
    <glyph glyph-name="Ydieresis" unicode="&#x178;" horiz-adv-x="1419" 
d="M602 549l-555 885h234l428 -689l430 689h233l-557 -885v-549h-213v549zM1028 1569h-192v200h192v-200zM584 1769v-200h-191v200h191z" />
    <glyph glyph-name="Zacute" unicode="&#x179;" horiz-adv-x="1366" 
d="M971 1257h-871v177h1170v-111l-887 -1145h899v-178h-1198v111zM524 1579l299 301l121 -121l-342 -258z" />
    <glyph glyph-name="zacute" unicode="&#x17a;" horiz-adv-x="1048" 
d="M688 868h-590v156h869v-98l-602 -770h612v-156h-889v98zM377 1243l297 301l121 -121l-342 -258z" />
    <glyph glyph-name="Zdotaccent" unicode="&#x17b;" horiz-adv-x="1366" 
d="M971 1257h-871v177h1170v-111l-887 -1145h899v-178h-1198v111zM780 1567h-198v202h198v-202z" />
    <glyph glyph-name="zdotaccent" unicode="&#x17c;" horiz-adv-x="1048" 
d="M688 868h-590v156h869v-98l-602 -770h612v-156h-889v98zM631 1231h-199v203h199v-203z" />
    <glyph glyph-name="Zcaron" unicode="&#x17d;" horiz-adv-x="1366" 
d="M971 1257h-871v177h1170v-111l-887 -1145h899v-178h-1198v111zM918 1855l96 -98l-332 -237l-336 237l98 98l238 -169z" />
    <glyph glyph-name="zcaron" unicode="&#x17e;" horiz-adv-x="1048" 
d="M688 868h-590v156h869v-98l-602 -770h612v-156h-889v98zM768 1520l98 -99l-334 -237l-335 237l98 99l237 -170z" />
    <glyph glyph-name="uni018F" unicode="&#x18f;" horiz-adv-x="1632" 
d="M809 -18c-211.333 0 -383 68.333 -515 205c-132 136 -198 312.667 -198 530c0 22.667 1.33301 48.667 4 78h1200c-14.667 140.667 -71.334 254.667 -170.001 342s-220 131 -364 131c-82.667 0 -161 -14.667 -235 -44s-131.667 -68 -173 -116l-125 131
c138 142 320.333 213 547 213c222.667 0 404.334 -68.333 545.001 -205s211 -314 211 -532c0 -214 -68 -389.667 -204 -527s-310.333 -206 -523 -206zM807 168c130.667 0 240.668 41.333 330.001 124s143.666 190.667 162.999 324h-968c10.667 -134 59.667 -242 147 -324
c86.667 -82.667 196 -124 328 -124z" />
    <glyph glyph-name="florin" unicode="&#x192;" horiz-adv-x="841" 
d="M-326 -373l125.003 119c26 -34 68.333 -51 127 -51c49.333 0 92.166 17.333 128.499 52s59.833 80 70.5 136l156 883h-195l29 156h192l41 227c19.333 105.333 66.666 190.666 141.999 255.999s163.333 98 264 98c103.333 0 183.666 -38 240.999 -114l-123 -119
c-33.333 39.333 -77 59 -131 59c-47.333 0 -89.333 -15.667 -126 -47s-59.334 -72.333 -68.001 -123l-41 -237h323l-26 -156h-326l-155 -891c-18 -103.333 -64.667 -187.666 -140 -252.999c-75.333 -64.667 -164.666 -97 -267.999 -97c-102.667 0 -182.667 34 -240 102z" />
    <glyph glyph-name="uni01DD" unicode="&#x1dd;" horiz-adv-x="1183" 
d="M88 578l802.999 -0.000976562c-7.33301 86.667 -45.333 157.334 -114 212.001c-69.333 54.667 -156.333 82 -261 82c-114 0 -205.333 -30.667 -274 -92l-109 109c100 102.667 235.333 153.667 406 153c164.667 0 299.667 -50 405 -150
c104 -101.333 156 -231.333 156 -390c0 -152 -47 -276.333 -141 -373c-95.333 -98 -217.666 -147 -366.999 -147c-150 0 -272 49.667 -366 149c-94.667 98.667 -142 226.334 -142 383.001c0 29.333 1.33301 50.666 4 63.999zM886.999 427.999h-598
c2.66699 -80.667 30.667 -147 84 -199c52.667 -52.667 121 -79 205 -79c82.667 0 153 26 211 78c57.333 51.333 90 118 98 200z" />
    <glyph glyph-name="Aringacute" unicode="&#x1fa;" horiz-adv-x="1597" 
d="M422 340l-151.999 -340.001h-223l623 1399c-32.667 32.667 -49 75.667 -49 129c0 52.667 16.333 95.334 49 128.001c33.333 33.333 75.666 50 126.999 50c29.333 0 59.333 -6.66699 90 -20l252 253l121 -120l-297 -222c8 -23.333 12 -46.333 12 -69
c0 -54.667 -18.333 -99 -55 -133l624 -1395h-225l-150 340h-747zM1092 517.999l-295 670l-297 -670h592zM852.001 1585c-14 14 -32.5 21 -55.5 21s-41.5 -7 -55.5 -21c-14.667 -14.667 -22 -33.667 -22 -57s7.33301 -42 22 -56c14 -14.667 32.5 -22 55.5 -22
s41.5 7.33301 55.5 22c13.333 14 20 32.667 20 56s-6.66699 42.333 -20 57z" />
    <glyph glyph-name="aringacute" unicode="&#x1fb;" horiz-adv-x="1150" 
d="M461 -18c-102.667 0 -186.666 27.668 -251.999 83.001s-98 125.666 -98 210.999c0 102.667 47 186.334 141 251.001c94 64 216 96 366 96c76 0 141.667 -7 197 -21v80c0 56 -23.667 101.667 -71 137c-48.667 35.333 -111 53 -187 53
c-122.667 0 -228.334 -35.333 -317.001 -106l-99 119c48 47.333 112 85.333 192 114c79.333 28.667 161 43 245 43c128.667 0 233.667 -32.667 315 -98c80.667 -64.667 121 -149.334 121 -254.001v-690h-199v166c-36.667 -58 -86 -103.167 -148 -135.5
s-130.667 -48.5 -206 -48.5zM691.001 1227c-32.667 -32.667 -75.333 -49 -128 -49c-52 0 -94.333 16.333 -127 49s-49 75.667 -49 129c0 52 16.333 94.333 49 127s75 49 127 49c24 0 49.333 -4.66699 76 -14l250 251l121 -120l-285 -215c10.667 -24 16 -50 16 -78
c0 -52.667 -16.667 -95.667 -50 -129zM635.002 487.001c-92.667 0 -168.667 -18 -228 -54c-60 -36 -90 -82 -90 -138c0 -43.333 19.667 -79.666 59 -108.999c38.667 -28.667 88 -43 148 -43c86 0 156 30.667 210 92s81 136.666 81 225.999c-56 17.333 -116 26 -180 26z
M618.002 1413c-14.667 14 -33 21 -55 21s-40 -7 -54 -21c-14.667 -14.667 -22 -33.667 -22 -57s7 -42 21 -56c12.667 -14.667 31 -22 55 -22c23.333 0 42 7.33301 56 22c13.333 14 20 32.667 20 56s-7 42.333 -21 57z" />
    <glyph glyph-name="AEacute" unicode="&#x1fc;" horiz-adv-x="2052" 
d="M465 340l-189 -340h-229l793 1434h1087v-177h-756v-438h695v-176h-695v-465h775v-178h-988v340h-493zM958 518v719l-395 -719h395zM1133 1501l-78 78l299 301l121 -121z" />
    <glyph glyph-name="aeacute" unicode="&#x1fd;" horiz-adv-x="1900" 
d="M106 276c0 102 47.6689 185.668 143.002 251.001c95.333 64 217.666 96 366.999 96c75.333 0 141 -7 197 -21v80c0 56 -24 101.667 -72 137c-49.333 35.333 -111.333 53 -186 53c-124 0 -230.333 -35.333 -319 -106l-97 119c47.333 47.333 110.666 85.333 189.999 114
s161.333 43 246 43c167.333 0 288.333 -53 363 -159c88.667 106.667 212.334 159.667 371.001 159c150 0 272.333 -49.333 367 -148c94 -98.667 141 -226.667 141 -384c0 -26 -1.66699 -47.333 -5 -64h-802c7.33301 -86 45.666 -156 114.999 -210
c68.667 -54.667 155 -82 259 -82c116 0 207.667 30 275 90l108 -109c-103.333 -103.333 -238.333 -154.333 -405 -153c-203.333 0 -355 73.667 -455 221c-100 -147.333 -250 -221 -450 -221c-102.667 0 -186.667 27.667 -252 83c-66 55.333 -99 125.666 -99 210.999z
M631.002 487.001c-92.667 0 -168.332 -18 -226.999 -54c-59.333 -36 -89 -82 -89 -138c0 -44 19.333 -80.333 58 -109c37.333 -28.667 86.333 -43 147 -43c85.333 0 155.666 30 210.999 90c54.667 58.667 82 134.667 82 228c-56 17.333 -116.667 26 -182 26zM1014 596.001
h597.998c-2.66699 82 -30.667 149 -84 201c-53.333 51.333 -121.666 77 -204.999 77s-153.666 -25.667 -210.999 -77c-57.333 -52.667 -90 -119.667 -98 -201zM864.002 1165l-78 78l297 301l121 -121z" />
    <glyph glyph-name="Oslashacute" unicode="&#x1fe;" horiz-adv-x="1660" 
d="M94 717c0 216.667 67.999 393.665 203.999 530.998c136 136 313 204 531 204c164 0 309 -41 435 -123l133 158l96 -82l-133 -158c138 -135.333 207 -312 207 -530c0 -215.333 -68.667 -391.666 -206 -528.999s-314.666 -206 -531.999 -206
c-162.667 0 -306.667 40.667 -432 122l-131 -155l-96 80l131 155c-138 134.667 -207 312.334 -207 533.001zM439.999 349.998l693.001 821.001c-85.333 63.333 -186.666 95.666 -303.999 96.999c-148.667 0 -270.334 -52 -365.001 -156
c-94.667 -103.333 -142 -235 -142 -395c-0.666992 -146 38.666 -268.333 117.999 -367zM1223 1083l-693.001 -821c85.333 -62.667 185 -94 299 -94c150.667 0 273.334 51.333 368.001 154c94.667 101.333 142 233 142 395c0.666992 143.333 -38 265.333 -116 366z
M753.999 1501l-78 78l299 301l121 -121z" />
    <glyph glyph-name="oslashacute" unicode="&#x1ff;" horiz-adv-x="1251" 
d="M84 512c0 155.333 50.666 282.667 151.999 382c100.667 98.667 231 148 391 148c112 0 211 -25 297 -75l84 98l96 -80l-80 -96c96.667 -99.333 145 -225 145 -377c0 -155.333 -50.333 -282.333 -151 -381c-101.333 -99.333 -231.666 -149 -390.999 -149
c-113.333 0 -213 25 -299 75l-82 -98l-96 82l79 94c-96.667 99.333 -145 225 -145 377zM353.999 285.001l455.001 542.001c-52.667 33.333 -113.334 50.666 -182.001 51.999c-100 0 -181.333 -34 -244 -102c-62.667 -68.667 -94 -157 -94 -265
c-0.666992 -88 21 -163.667 65 -227zM899 739.002l-455.001 -542.001c52.667 -33.333 113.667 -50.666 183 -51.999c100 0 181 34.333 243 103c62 68 93 156 93 264c-1.33301 88 -22.666 163.667 -63.999 227zM546.999 1165l-76 78l297 301l121 -121z" />
    <glyph glyph-name="uni0218" unicode="&#x218;" horiz-adv-x="1236" 
d="M1141 391c0 -117.333 -48.6719 -214.669 -146.005 -292.002c-98 -78 -222.667 -117 -374 -117c-100.667 0 -198 17.667 -292 53c-92.667 34.667 -171 82.334 -235 143.001l109 137c46.667 -45.333 105.334 -81.166 176.001 -107.499s145 -39.5 223 -39.5
c95.333 0 173.666 20 234.999 60c60.667 38.667 91 89 91 151c0 54.667 -25 99 -75 133c-50.667 34.667 -131.667 69.334 -243 104.001c-167.333 54.667 -290.666 115.667 -369.999 183s-119 152 -119 254c0 116 44.667 211.667 134 287
c88.667 74.667 204.334 112 347.001 112c95.333 0 187 -17.333 275 -52c88.667 -34.667 161 -80.667 217 -138l-107 -138c-39.333 42 -91.666 76.667 -156.999 104c-65.333 26.667 -133.666 40 -204.999 40c-85.333 0 -155.666 -19 -210.999 -57
c-54.667 -38.667 -82 -88 -82 -148c0 -56 25.333 -101.333 76 -136c51.333 -36 133.666 -72.667 246.999 -110c164.667 -56 287.334 -116.333 368.001 -181c78.667 -62.667 118 -144.334 118 -245.001zM591.995 -408.003h-113l58 326h174z" />
    <glyph glyph-name="uni0219" unicode="&#x219;" horiz-adv-x="964" 
d="M879 291c0 -92 -37.666 -166.668 -112.999 -224.001c-74.667 -56.667 -174.334 -85 -299.001 -85c-150.667 0 -279.667 47.667 -387 143l102 117c73.333 -61.333 167 -92 281 -92c68 0 122.5 11.833 163.5 35.5s61.5 54.834 61.5 93.501c0 36.667 -17.667 65 -53 85
c-36.667 20 -92 41.333 -166 64c-8 2.66699 -14.667 4.66699 -20 6c-48 14 -89.667 28.333 -125 43c-34 14 -68.667 32.333 -104 55c-74 46.667 -111 117 -111 211c0 91.333 34.667 164 104 218c68.667 54 162.334 81 281.001 81c142.667 0 260.667 -45 354 -135l-103 -119
c-64.667 57.333 -146.334 86 -245.001 86c-60 0 -108.5 -10.833 -145.5 -32.5s-55.5 -50.167 -55.5 -85.5c0 -28 13 -52.333 39 -73c26.667 -22 51 -36.667 73 -44c12.667 -4.66699 49.667 -17 111 -37c47.333 -13.333 83 -24.333 107 -33c24 -8 55 -21.667 93 -41
c36.667 -19.333 64.667 -38.666 84 -57.999c48.667 -48.667 73 -108.334 73 -179.001zM457.001 -408.001h-113l57 326h172z" />
    <glyph glyph-name="uni021A" unicode="&#x21a;" horiz-adv-x="1370" 
d="M49 1257v177h1272v-177h-528v-1257h-213v1257h-531zM774 -82l-117 -326h-112l57 326h172z" />
    <glyph glyph-name="uni021B" unicode="&#x21b;" horiz-adv-x="878" 
d="M233 868h-193.999v156h194v199l199 77v-276h340v-156h-340v-551c0 -48 14.333 -86.833 43 -116.5s66.334 -44.5 113.001 -44.5c53.333 0 97.666 17.667 132.999 53l98 -98c-60.667 -86 -149.334 -129 -266.001 -129c-92.667 0 -169 29 -229 87
c-60.667 58 -91 132 -91 222v577zM596.001 -82l-117 -326h-112l57 326h172z" />
    <glyph glyph-name="uni0237" unicode="&#x237;" horiz-adv-x="503" 
d="M-240 -373l103 118.999c34 -34 79.667 -51 137 -51c49.333 0 89.333 17.333 120 52s46 80 46 136v1141h199v-1149c0 -103.333 -32 -187.666 -96 -252.999c-64.667 -64.667 -149 -97 -253 -97c-102.667 0 -188 34 -256 102z" />
    <glyph glyph-name="uni0259" unicode="&#x259;" horiz-adv-x="1183" 
d="M88 578l802.999 -0.000976562c-7.33301 86.667 -45.333 157.334 -114 212.001c-69.333 54.667 -156.333 82 -261 82c-114 0 -205.333 -30.667 -274 -92l-109 109c100 102.667 235.333 153.667 406 153c164.667 0 299.667 -50 405 -150
c104 -101.333 156 -231.333 156 -390c0 -152 -47 -276.333 -141 -373c-95.333 -98 -217.666 -147 -366.999 -147c-150 0 -272 49.667 -366 149c-94.667 98.667 -142 226.334 -142 383.001c0 29.333 1.33301 50.666 4 63.999zM886.999 427.999h-598
c2.66699 -80.667 30.667 -147 84 -199c52.667 -52.667 121 -79 205 -79c82.667 0 153 26 211 78c57.333 51.333 90 118 98 200z" />
    <glyph glyph-name="circumflex" unicode="&#x2c6;" horiz-adv-x="874" 
d="M201 1186l-99 98l336 236l334 -236l-98 -98l-236 170z" />
    <glyph glyph-name="caron" unicode="&#x2c7;" horiz-adv-x="874" 
d="M674 1520l98 -99l-334 -237l-336 237l99 99l237 -170z" />
    <glyph glyph-name="breve" unicode="&#x2d8;" horiz-adv-x="868" 
d="M102 1382l127.001 84c40.667 -80.667 109 -120.667 205 -120c96 0 164.333 40 205 120l127 -84c-72.667 -118.667 -183.334 -178 -332.001 -178c-147.333 0 -258 59.333 -332 178z" />
    <glyph glyph-name="dotaccent" unicode="&#x2d9;" horiz-adv-x="403" 
d="M301 1231h-199v203h199v-203z" />
    <glyph glyph-name="ring" unicode="&#x2da;" horiz-adv-x="559" 
d="M102 1356c0 51.333 16.667 93.666 50 126.999c32.667 32.667 75 49 127 49s94.667 -16.333 128 -49c33.333 -33.333 50 -75.666 50 -126.999c0 -52.667 -16.667 -95.667 -50 -129c-33.333 -32.667 -76 -49 -128 -49s-94.333 16.333 -127 49
c-33.333 33.333 -50 76.333 -50 129zM225 1413c-14.667 -14.667 -21.999 -33.667 -21.999 -57s7 -42 21 -56c13.333 -14.667 31.5 -22 54.5 -22s41.5 7.33301 55.5 22c13.333 14 20 32.667 20 56s-7 42.333 -21 57c-14.667 14 -32.834 21 -54.501 21s-39.5 -7 -53.5 -21z
" />
    <glyph glyph-name="ogonek" unicode="&#x2db;" horiz-adv-x="577" 
d="M205 -29l33 28.999h122c-30 -25.333 -60.667 -64 -92 -116c-23.333 -39.333 -35 -73.666 -35 -102.999c0 -26 7.16699 -46.167 21.5 -60.5s33.833 -21.5 58.5 -21.5c33.333 0 63.333 11.667 90 35l72 -74c-44.667 -58.667 -108.667 -88 -192 -88
c-54 0 -97.667 16.833 -131 50.5s-50 78.167 -50 133.5c0 46 11.333 88.667 34 128c22.667 41.333 45.667 70.333 69 87z" />
    <glyph glyph-name="tilde" unicode="&#x2dc;" horiz-adv-x="874" 
d="M322 1311c-23.333 0 -41.835 -7.83301 -55.502 -23.5s-20.5 -36.5 -20.5 -62.5h-144c0 69.333 21.333 125 64 167c42.667 41.333 97.334 62 164.001 62c49.333 0 94 -16 134 -48s69.667 -48 89 -48c22 0 40.167 8.16699 54.5 24.5s21.5 36.833 21.5 61.5h143
c0 -66.667 -21 -121 -63 -163c-42.667 -42.667 -96.667 -64 -162 -64c-47.333 0 -91.666 15.667 -132.999 47s-72 47 -92 47z" />
    <glyph glyph-name="hungarumlaut" unicode="&#x2dd;" horiz-adv-x="999" 
d="M98 1243l299 301l119 -121l-340 -258zM483 1243l297 301l121 -121l-342 -258z" />
    <glyph glyph-name="uni0400" unicode="&#x400;" horiz-adv-x="1316" 
d="M1208 0h-1054v1434h1036v-177h-823v-438h759v-176h-759v-465h841v-178zM831 1579l-75 -78l-344 258l120 121z" />
    <glyph glyph-name="uni0401" unicode="&#x401;" horiz-adv-x="1316" 
d="M1208 0h-1054v1434h1036v-177h-823v-438h759v-176h-759v-465h841v-178zM995 1769v-200h-192v200h192zM360 1569v200h191v-200h-191z" />
    <glyph glyph-name="uni0402" unicode="&#x402;" horiz-adv-x="1748" 
d="M53 1257l-0.00292969 177h1272v-177h-530v-466c103.333 58.667 225.333 88 366 88c152 0 274.667 -42.333 368 -127c93.333 -85.333 140 -199.333 140 -342c0 -127.333 -36.333 -230.333 -109 -309c-73.333 -79.333 -168.666 -119 -285.999 -119
c-109.333 0 -198.666 34.667 -267.999 104l102 117c34.667 -32.667 81 -49 139 -49c64 0 114.833 20.833 152.5 62.5s56.5 98.5 56.5 170.5c0 95.333 -32.667 171 -98 227s-150.666 84 -255.999 84c-112 0 -214.333 -29.333 -307 -88v-610h-213v1257h-529z" />
    <glyph glyph-name="uni0403" unicode="&#x403;" horiz-adv-x="1183" 
d="M154 0v1434h979v-177h-766v-1257h-213zM487 1579l297 301l121 -121l-340 -258z" />
    <glyph glyph-name="uni0404" unicode="&#x404;" horiz-adv-x="1433" 
d="M827 -18c-217.333 0 -393.335 68.334 -528.002 205.001c-135.333 136.667 -203 313.334 -203 530.001c0 216 67.667 392.667 203 530c134.667 136.667 310.334 205 527.001 205c216 0 393.333 -71 532 -213l-125 -129c-40.667 47.333 -96.667 85.666 -168 114.999
c-70 28.667 -145 43 -225 43c-136 0 -250.333 -41.667 -343 -125c-92 -82 -147.667 -192 -167 -330h796v-176h-798c16.667 -140.667 71.667 -254 165 -340c92.667 -86 208.334 -129 347.001 -129c80 0 155 14.333 225 43c71.333 29.333 127.333 67.666 168 114.999l125 -131
c-138.667 -142 -315.667 -213 -531 -213z" />
    <glyph glyph-name="uni0405" unicode="&#x405;" horiz-adv-x="1243" 
d="M1143 391c0 -118 -48.3398 -215.334 -145.007 -292.001c-97.333 -78 -221.666 -117 -372.999 -117c-100.667 0 -198 17.667 -292 53c-92.667 34.667 -171.667 82.334 -237 143.001l109 137c46.667 -45.333 105.334 -81.166 176.001 -107.499s145 -39.5 223 -39.5
c95.333 0 174 20 236 60c61.333 39.333 92 89.666 92 150.999c0 54.667 -25 99 -75 133c-50.667 34.667 -131.667 69.334 -243 104.001c-170 55.333 -293.667 116 -371 182c-80 66 -120 151 -120 255c0 116 44.667 211.667 134 287c88.667 74.667 204.334 112 347.001 112
c96 0 188 -17.333 276 -52c88.667 -35.333 161.334 -81.333 218.001 -138l-107 -138c-39.333 42 -91.666 76.667 -156.999 104c-65.333 26.667 -133.666 40 -204.999 40c-86 0 -156.333 -19 -211 -57c-54.667 -38.667 -82 -88 -82 -148c0 -56 25 -101.333 75 -136
c50 -35.333 132 -72 246 -110c164.667 -56 287.334 -116.333 368.001 -181c78.667 -62.667 118 -144.334 118 -245.001z" />
    <glyph glyph-name="uni0406" unicode="&#x406;" horiz-adv-x="520" 
d="M367 1434v-1434h-213v1434h213z" />
    <glyph glyph-name="uni0407" unicode="&#x407;" horiz-adv-x="520" 
d="M367 1434v-1434h-213v1434h213zM-57 1569v200h192v-200h-192zM578 1769v-200h-191v200h191z" />
    <glyph glyph-name="uni0408" unicode="&#x408;" horiz-adv-x="1134" 
d="M778 496l0.000976562 937.999h213v-938c0 -154 -49 -278 -147 -372c-98.667 -94.667 -226.334 -142 -383.001 -142c-161.333 0 -293 51 -395 153l120 137c61.333 -69.333 150.333 -104 267 -104c94.667 0 172.667 30.667 234 92c60.667 60.667 91 139.334 91 236.001z
" />
    <glyph glyph-name="uni0409" unicode="&#x409;" horiz-adv-x="2357" 
d="M193 -18c-56 0 -104.001 9.33105 -144.001 27.998l35 158c20 -9.33301 42.667 -14 68 -14c28.667 0 52.667 7.66699 72 23s38.333 48 57 98s33.667 120.667 45 212c24 198.667 36 514.334 36 947.001h1018v-568h457c130.667 0 236.667 -40.333 318.001 -121
c81.333 -81.333 122 -185.666 122 -312.999c0 -128.667 -40.667 -232.667 -122 -312c-82 -80 -188 -120 -318 -120h-670v1257h-600c0 -272.667 -7 -493.667 -21 -663c-15.333 -170 -39.333 -299.333 -72 -388c-33.333 -89.333 -71 -149 -113 -179
c-43.333 -30 -99.333 -45 -168 -45zM1815 687.998h-434.999v-510h435c75.333 0 135.666 23 180.999 69c45.333 45.333 68 107 68 185c0 76.667 -22.667 138.667 -68 186c-44.667 46.667 -105 70 -181 70z" />
    <glyph glyph-name="uni040A" unicode="&#x40a;" horiz-adv-x="2365" 
d="M367 662l-0.000976562 -662.001h-213v1434h213v-596h802v596h213v-596h463c130.667 0 236.667 -39.333 318.001 -118c82 -79.333 123 -180 123 -302c0 -123.333 -41 -223.666 -123 -300.999c-82 -78 -188 -117 -318 -117h-676v662h-802zM1823 661.999h-441.001v-484h441
c74 0 134.333 22 181 66c46 42.667 69 100.667 69 174c0 72 -23 130.667 -69 176c-47.333 45.333 -107.666 68 -180.999 68z" />
    <glyph glyph-name="uni040B" unicode="&#x40b;" horiz-adv-x="1804" 
d="M582 1257h-529v177h1272v-177h-530v-466c103.333 58.667 226.666 88 369.999 88c151.333 0 273.333 -40.333 366 -121c92 -81.333 138 -193.333 138 -336v-422h-213v369c0 106 -32 187.333 -96 244c-63.333 56.667 -148.666 85 -255.999 85
c-113.333 0 -216.333 -29.333 -309 -88v-610h-213v1257z" />
    <glyph glyph-name="uni040C" unicode="&#x40c;" horiz-adv-x="1388" 
d="M154 0v1434h213v-613h206l478 613h252l-547 -697l573 -737h-248l-510 645h-204v-645h-213zM616 1501l-77 78l299 301l118 -121z" />
    <glyph glyph-name="uni040D" unicode="&#x40d;" horiz-adv-x="1589" 
d="M365 0h-211v1434h213v-1117l856 1117h213v-1434h-213v1110zM950 1579l-78 -78l-342 258l121 121z" />
    <glyph glyph-name="uni040E" unicode="&#x40e;" horiz-adv-x="1445" 
d="M643 438l-593.998 996h234l467 -787l421 787h226l-627 -1176c-94.667 -184 -222.334 -276 -383.001 -276c-120.667 0 -216.334 39.333 -287.001 118l117 131c42 -42 96.667 -63 164 -63c38.667 0 74.5 13 107.5 39s66.167 69 99.5 129zM725.002 1540
c-91.333 0 -165.668 26 -223.001 78s-86 120.333 -86 205h153c0 -42 14.333 -76.167 43 -102.5s66.334 -39.5 113.001 -39.5s84 13 112 39s42 60.333 42 103h157c0 -84.667 -28.667 -153 -86 -205s-132.333 -78 -225 -78z" />
    <glyph glyph-name="uni040F" unicode="&#x40f;" horiz-adv-x="1574" 
d="M688 0h-534v1434h213v-1256h841v1256h213v-1434h-534v-334h-199v334z" />
    <glyph glyph-name="uni0410" unicode="&#x410;" horiz-adv-x="1597" 
d="M274 0h-225l641 1434h217l641 -1434h-225l-149 340h-750zM1094 518l-295 670l-295 -670h590z" />
    <glyph glyph-name="uni0411" unicode="&#x411;" horiz-adv-x="1366" 
d="M850 0h-696.001v1434h1007v-177h-794v-391h483c130 0 236.333 -40.333 319 -121c82 -80.667 123 -185 123 -313c0 -129.333 -41 -233.333 -123 -312c-83.333 -80 -189.666 -120 -318.999 -120zM826.999 688l-460 -0.000976562v-510h460c75.333 0 136.333 23 183 69
c46 44.667 69 106.334 69 185.001c0 77.333 -23 139.333 -69 186c-46.667 46.667 -107.667 70 -183 70z" />
    <glyph glyph-name="uni0412" unicode="&#x412;" horiz-adv-x="1423" 
d="M928 0h-774v1434h743c110 0 199.333 -33.333 268 -100s103 -153 103 -259c0 -73.333 -17 -138 -51 -194s-81.333 -98.333 -142 -127c76 -22.667 137.667 -66.667 185 -132c46 -65.333 69 -143 69 -233c0 -116 -36.667 -209.667 -110 -281c-74 -72 -171 -108 -291 -108z
M852 653l-485 -0.000976562v-483h485c74.667 0 135.667 22.667 183 68c46 45.333 69 104 69 176c0 70.667 -23 128.334 -69 173.001c-47.333 44 -108.333 66 -183 66zM367 1264l0.000976562 -435h462c66 0 119.333 20.333 160 61c41.333 40 62 92.333 62 157
c0 63.333 -20.333 115.333 -61 156s-94.334 61 -161.001 61h-462z" />
    <glyph glyph-name="uni0413" unicode="&#x413;" horiz-adv-x="1183" 
d="M154 0v1434h979v-177h-766v-1257h-213z" />
    <glyph glyph-name="uni0414" unicode="&#x414;" horiz-adv-x="1691" 
d="M272 -334h-213v512h181c45.333 49.333 79 167 101 353c21.333 188 32 489 32 903h1052v-1256h207v-512h-198v334h-1162v-334zM473 178h739v1079h-634c-0.666992 -540 -35.667 -899.667 -105 -1079z" />
    <glyph glyph-name="uni0415" unicode="&#x415;" horiz-adv-x="1316" 
d="M154 0v1434h1036v-177h-823v-438h759v-176h-759v-465h841v-178h-1054z" />
    <glyph glyph-name="uni0416" unicode="&#x416;" horiz-adv-x="2082" 
d="M778 645l-471 -645h-248l539 737l-508 697h246l438 -613h160v613h213v-613h160l440 613h246l-510 -697l540 -737h-247l-471 645h-158v-645h-213v645h-156z" />
    <glyph glyph-name="uni0417" unicode="&#x417;" horiz-adv-x="1300" 
d="M606 168c107.333 0 196.665 23.667 267.998 71c70 47.333 105 110.333 105 189c0 64 -23.667 117.667 -71 161c-47.333 42.667 -109.666 64 -186.999 64h-293v176h272c68 0 124.667 20 170 60c45.333 39.333 68 87.666 68 144.999c0 70.667 -31 127.334 -93 170.001
c-61.333 42.667 -140.333 64 -237 64c-81.333 0 -157.333 -15 -228 -45c-72.667 -30 -129.667 -70.333 -171 -121l-125 131c143.333 146 323.666 219 540.999 219c154 0 281 -35 381 -105c99.333 -71.333 149 -164 149 -278c0 -68 -18 -130.333 -54 -187
c-35.333 -56 -83.666 -98.667 -144.999 -128c76 -22 136.333 -65.333 181 -130s67 -139 67 -223c0 -126.667 -54 -228 -162 -304c-108.667 -76.667 -247.667 -115 -417 -115c-230.667 0 -413.667 73.667 -549 221l125 131c40.667 -52 96.834 -92.667 168.501 -122
s150.5 -44 236.5 -44z" />
    <glyph glyph-name="uni0418" unicode="&#x418;" horiz-adv-x="1589" 
d="M365 0h-211v1434h213v-1117l856 1117h213v-1434h-213v1110z" />
    <glyph glyph-name="uni0419" unicode="&#x419;" horiz-adv-x="1589" 
d="M1223 1110l-858 -1110h-211v1434h213v-1117l856 1117h213v-1434h-213v1110zM485 1823h153.998c0 -42 14.333 -76.167 43 -102.5s66.334 -39.5 113.001 -39.5c46 0 83 13 111 39s42 60.333 42 103h158c0 -84.667 -28.667 -153 -86 -205s-132.333 -78 -225 -78
c-91.333 0 -165.666 26 -222.999 78c-58 52 -87 120.333 -87 205z" />
    <glyph glyph-name="uni041A" unicode="&#x41a;" horiz-adv-x="1388" 
d="M154 0v1434h213v-613h206l478 613h252l-547 -697l573 -737h-248l-510 645h-204v-645h-213z" />
    <glyph glyph-name="uni041B" unicode="&#x41b;" horiz-adv-x="1560" 
d="M362 1434l1045 -0.000976562v-1434h-213v1257h-627c0 -272.667 -7 -493.667 -21 -663c-15.333 -170 -39.333 -299.333 -72 -388c-33.333 -89.333 -71 -149 -113 -179c-43.333 -30 -99.333 -45 -168 -45c-56 0 -104 9.33301 -144 28l35 158c20 -9.33301 42.667 -14 68 -14
c28.667 0 52.667 7.66699 72 23s38.333 48 57 98s33.667 120.667 45 212c24 198.667 36 514.334 36 947.001z" />
    <glyph glyph-name="uni041C" unicode="&#x41c;" horiz-adv-x="1861" 
d="M360 0h-206v1434h276l502 -1010l500 1010h276v-1434h-205v1128l-493 -993h-156l-494 993v-1128z" />
    <glyph glyph-name="uni041D" unicode="&#x41d;" horiz-adv-x="1583" 
d="M367 0h-213v1434h213v-617h850v617h213v-1434h-213v641h-850v-641z" />
    <glyph glyph-name="uni041E" unicode="&#x41e;" horiz-adv-x="1667" 
d="M301 187c-136.667 136 -205 312.666 -205 529.999c0 216.667 68.333 393.334 205 530.001s314.334 205 533.001 205c218 0 395.333 -68.333 532 -205s205 -313.334 205 -530.001c0 -215.333 -68.667 -391.666 -206 -528.999s-314.333 -206 -531 -206
c-218.667 0 -396.334 68.333 -533.001 205zM468 1112c-96 -104 -143.999 -235.668 -143.999 -395.001s47.667 -290.666 143 -393.999s217.666 -155 366.999 -155s271.666 51.667 366.999 155c94.667 102.667 142 234 142 394s-47.333 291.667 -142 395
c-95.333 104 -217.666 156 -366.999 156s-271.333 -52 -366 -156z" />
    <glyph glyph-name="uni041F" unicode="&#x41f;" horiz-adv-x="1583" 
d="M367 0h-213v1434h1276v-1434h-213v1257h-850v-1257z" />
    <glyph glyph-name="uni0420" unicode="&#x420;" horiz-adv-x="1341" 
d="M367 565v-565h-213v1434h673c130 0 236 -40 318 -120s123 -184.333 123 -313c0 -126.667 -41 -231 -123 -313s-188 -123 -318 -123h-460zM367 1257v-514h438c74 0 134.333 24 181 72c46 48 69 111 69 189c0 76.667 -23.333 138 -70 184c-47.333 46 -107.333 69 -180 69
h-438z" />
    <glyph glyph-name="uni0421" unicode="&#x421;" horiz-adv-x="1433" 
d="M1233 326l124.998 -130.998c-138.667 -142 -315.667 -213 -531 -213c-217.333 0 -393.333 68.333 -528 205c-135.333 136.667 -203 313.334 -203 530.001c0 216 67.667 392.667 203 530c134.667 136.667 310.334 205 527.001 205c216 0 393.333 -71 532 -213l-125 -129
c-40.667 47.333 -96.667 85.666 -168 114.999c-70 28.667 -145 43 -225 43c-153.333 0 -277.333 -51 -372 -153c-96 -102.667 -144 -235.334 -144 -398.001c0 -160.667 47.667 -292.334 143 -395.001c94.667 -102.667 219 -154 373 -154c80.667 0 156 14.333 226 43
c70.667 28.667 126.334 67 167.001 115z" />
    <glyph glyph-name="uni0422" unicode="&#x422;" horiz-adv-x="1376" 
d="M53 1257v177h1272v-177h-530v-1257h-213v1257h-529z" />
    <glyph glyph-name="uni0423" unicode="&#x423;" horiz-adv-x="1445" 
d="M588 336l55.002 102l-594 996h234l467 -787l421 787h226l-627 -1176c-94.667 -184 -222.334 -276 -383.001 -276c-120.667 0 -216.334 39.333 -287.001 118l117 131c42 -42 96.667 -63 164 -63c38.667 0 74.5 13 107.5 39s66.167 69 99.5 129z" />
    <glyph glyph-name="uni0424" unicode="&#x424;" horiz-adv-x="1738" 
d="M283 296c-124.667 108.667 -186.999 249 -186.999 421s62.333 312.333 187 421c124 108 285 163 483 165v149h205v-149c197.333 -0.666992 358.666 -55.667 483.999 -165c124.667 -108.667 187 -249 187 -421s-62.333 -312.333 -187 -421s-286 -163 -484 -163v-151h-205
v151c-198.667 0 -359.667 54.333 -483 163zM971.001 1120v-807c132 0.666992 240 39 324 115c82.667 74.667 124 171 124 289s-41.333 214.333 -124 289c-83.333 74.667 -191.333 112.667 -324 114zM444.001 1006c-83.333 -75.333 -125 -171.668 -125 -289.001
s41.667 -213.666 125 -288.999c84 -76 191.333 -114.333 322 -115v807c-132 -1.33301 -239.333 -39.333 -322 -114z" />
    <glyph glyph-name="uni0425" unicode="&#x425;" horiz-adv-x="1490" 
d="M743 586l-432 -586h-252l553 731l-526 703h254l403 -557l408 557h254l-526 -703l553 -731h-254z" />
    <glyph glyph-name="uni0426" unicode="&#x426;" horiz-adv-x="1679" 
d="M1421 -334v334h-1267v1434h213v-1256h831v1256h213v-1256h209v-512h-199z" />
    <glyph glyph-name="uni0427" unicode="&#x427;" horiz-adv-x="1435" 
d="M115 987l0.00195312 447.001h213v-392c0 -108 35 -190.667 105 -248c68.667 -58 162.667 -87 282 -87c135.333 0 253.333 34 354 102v625h213v-1434h-213v616c-112.667 -64 -249.334 -96 -410.001 -96c-164.667 0 -296.334 41.333 -395.001 124
c-99.333 83.333 -149 197.666 -149 342.999z" />
    <glyph glyph-name="uni0428" unicode="&#x428;" horiz-adv-x="2234" 
d="M2081 1434v-1434h-1927v1434h213v-1256h645v1256h213v-1256h643v1256h213z" />
    <glyph glyph-name="uni0429" unicode="&#x429;" horiz-adv-x="2349" 
d="M154 0v1434h213v-1256h645v1256h213v-1256h643v1256h213v-1256h209v-512h-199v334h-1937z" />
    <glyph glyph-name="uni042A" unicode="&#x42a;" horiz-adv-x="1738" 
d="M520 1264h-467v170h680v-568h484c130 0 236.333 -40.333 319 -121c82 -80.667 123 -185 123 -313c0 -129.333 -41.333 -233.333 -124 -312c-83.333 -80 -189.333 -120 -318 -120h-697v1264zM1194 688l-461 -0.000976562v-510h461c74.667 0 135.667 23 183 69
c46 44.667 69 106.334 69 185.001c0 77.333 -23 139.333 -69 186c-46.667 46.667 -107.667 70 -183 70z" />
    <glyph glyph-name="uni042B" unicode="&#x42b;" horiz-adv-x="1878" 
d="M850 0h-696v1434h213v-568h483c130 0 236.333 -40.333 319 -121c82 -80.667 123 -185 123 -313c0 -129.333 -41.333 -233.333 -124 -312c-82.667 -80 -188.667 -120 -318 -120zM367 688v-510.001h460c75.333 0 136.333 23 183 69c46 44.667 69 106.334 69 185.001
c0 77.333 -23 139.333 -69 186c-46.667 46.667 -107.667 70 -183 70h-460zM1511 -0.000976562v1434h213v-1434h-213z" />
    <glyph glyph-name="uni042C" unicode="&#x42c;" horiz-adv-x="1372" 
d="M850 0h-696.001v1434h213v-568h483c130 0 236.333 -40.333 319 -121c82 -80.667 123 -185 123 -313c0 -129.333 -41 -233.333 -123 -312c-83.333 -80 -189.666 -120 -318.999 -120zM366.999 688v-510.001h460c75.333 0 136.333 23 183 69
c46 44.667 69 106.334 69 185.001c0 77.333 -23 139.333 -69 186c-46.667 46.667 -107.667 70 -183 70h-460z" />
    <glyph glyph-name="uni042D" unicode="&#x42d;" horiz-adv-x="1433" 
d="M201 1110l-125.001 128.999c138.667 142 316.334 213 533.001 213c216 0 391.333 -68.333 526 -205s202 -313.334 202 -530.001c0 -218 -67.333 -394.667 -202 -530c-134.667 -136.667 -311 -205 -529 -205c-216 0 -392.667 71 -530 213l125 131
c40.667 -47.333 96.667 -85.666 168 -114.999c70 -28.667 145 -43 225 -43c138.667 0 254.334 43 347.001 129c93.333 86 148.333 199.333 165 340h-729v176h727c-18.667 136.667 -74.334 246.667 -167.001 330s-207 125 -343 125c-80 0 -155 -14.333 -225 -43
c-71.333 -29.333 -127.333 -67.666 -168 -114.999z" />
    <glyph glyph-name="uni042E" unicode="&#x42e;" horiz-adv-x="2228" 
d="M367 0l-212.999 0.000976562v1434h213v-617h338c21.333 192 96 345.667 224 461c128.667 116 290.667 174 486 174c212 0 384.333 -68.333 517 -205c133.333 -137.333 200 -314 200 -530s-66.333 -392.333 -199 -529c-133.333 -137.333 -306 -206 -518 -206
c-201.333 0 -366.333 60.333 -495 181c-130.667 121.333 -203.334 280.666 -218.001 477.999h-335v-641zM1064 1112c-92 -104 -138 -235.668 -138 -395.001s46 -290.666 138 -393.999s209 -155 351 -155c143.333 0 261 51.667 353 155
c91.333 103.333 137 234.666 137 393.999c0 158.667 -45.667 290.334 -137 395.001c-92 104 -209.667 156 -353 156c-142 0 -259 -52 -351 -156z" />
    <glyph glyph-name="uni042F" unicode="&#x42f;" horiz-adv-x="1402" 
d="M313 0h-231l340 584c-96.667 22.667 -173.667 72.334 -231 149.001c-58 75.333 -87 165.666 -87 270.999c0 126.667 41 230 123 310s188 120 318 120h704v-1434h-213v569h-391zM317 1006c0 -78.667 23.333 -141.667 70 -189c47.333 -48 108 -72 182 -72h467v512h-467
c-75.333 0 -136 -23 -182 -69c-46.667 -46 -70 -106.667 -70 -182z" />
    <glyph glyph-name="uni0430" unicode="&#x430;" horiz-adv-x="1150" 
d="M111 276c0 102.667 47.001 186.335 141.001 251.002c94 64 216 96 366 96c76 0 141.667 -7 197 -21v80c0 56 -23.667 101.667 -71 137c-48.667 35.333 -111 53 -187 53c-122.667 0 -228.334 -35.333 -317.001 -106l-99 119c48 47.333 112 85.333 192 114
c79.333 28.667 161 43 245 43c128.667 0 233.667 -32.667 315 -98c80.667 -64.667 121 -149.334 121 -254.001v-690h-199v166c-36.667 -57.333 -86.167 -102.333 -148.5 -135s-130.833 -49 -205.5 -49c-102.667 0 -186.667 27.667 -252 83s-98 125.666 -98 210.999z
M635.001 487.001c-92.667 0 -168.667 -18 -228 -54c-60 -36 -90 -82 -90 -138c0 -43.333 19.667 -79.666 59 -108.999c38.667 -28.667 88 -43 148 -43c86 0 156 30.667 210 92s81 136.666 81 225.999c-56 17.333 -116 26 -180 26z" />
    <glyph glyph-name="uni0431" unicode="&#x431;" horiz-adv-x="1261" 
d="M1176 520c0 -160.667 -49.334 -290.332 -148.001 -388.999c-99.333 -99.333 -228.333 -149 -387 -149c-165.333 0 -297.333 60.333 -396 181c-99.333 121.333 -149 307.333 -149 558c0 466.667 182.333 715 547 745l432 37l15 -198l-375 -29
c-157.333 -12 -271.833 -58.333 -343.5 -139s-105.5 -199.667 -101.5 -357c26.667 77.333 78 140.666 154 189.999c74.667 48 161.334 72 260.001 72c144.667 0 263 -48.667 355 -146c91.333 -98.667 137 -224 137 -376zM421.999 771.002
c-58.667 -66.667 -88.002 -153 -88.002 -259c0 -105.333 29 -191.333 87 -258s134 -100 228 -100c92.667 0 168.334 33.333 227.001 100c58 66.667 87 152.667 87 258c0 106 -29.333 192.333 -88 259c-59.333 67.333 -134.666 101 -225.999 101
c-92 0 -167.667 -33.667 -227 -101z" />
    <glyph glyph-name="uni0432" unicode="&#x432;" horiz-adv-x="1155" 
d="M764 0l-620.998 -0.000976562v1024h590c85.333 0 154.666 -24 207.999 -72c52.667 -48.667 79 -112 79 -190c0 -106.667 -47 -184 -141 -232c57.333 -16.667 102.666 -47.667 135.999 -93s50 -99 50 -161c0 -81.333 -28 -147.666 -84 -198.999
c-56.667 -51.333 -129 -77 -217 -77zM702.002 452.999h-360v-297h365c48 0 86.5 14 115.5 42s43.5 64 43.5 108s-14.833 79.5 -44.5 106.5s-69.5 40.5 -119.5 40.5zM668.002 867.999l-326.001 0.000976562v-274h326c46.667 0 83.834 12.333 111.501 37s41.5 57.667 41.5 99
s-14 74.666 -42 99.999s-65 38 -111 38z" />
    <glyph glyph-name="uni0433" unicode="&#x433;" horiz-adv-x="905" 
d="M143 1024h719v-156h-520v-868h-199v1024z" />
    <glyph glyph-name="uni0434" unicode="&#x434;" horiz-adv-x="1396" 
d="M240 -313h-185v469h168c69.333 104 104.333 393.333 105 868h815v-868h198v-469h-184v313h-917v-313zM430 156h514v712h-434c0 -328.667 -26.667 -566 -80 -712z" />
    <glyph glyph-name="uni0435" unicode="&#x435;" horiz-adv-x="1189" 
d="M1100 446h-803.002c5.33301 -87.333 43 -157.666 113 -210.999c68.667 -54 156 -81 262 -81c117.333 0 208 30 272 90l109 -109c-102.667 -102.667 -238 -153.667 -406 -153c-167.333 0 -302.333 50.333 -405 151c-104 100 -156 230.333 -156 391
c0 151.333 47.667 275.666 143 372.999c94.667 96.667 216.334 145 365.001 145c150.667 0 273.334 -49.333 368.001 -148s142 -226.667 142 -384c0 -16 -1.33301 -37.333 -4 -64zM298.998 596l597.999 -0.000976562c-3.33301 82 -31.333 149 -84 201
c-53.333 51.333 -121.666 77 -204.999 77c-84 0 -154.333 -25.333 -211 -76c-57.333 -51.333 -90 -118.666 -98 -201.999z" />
    <glyph glyph-name="uni0436" unicode="&#x436;" horiz-adv-x="1644" 
d="M612 453l-323 -453h-234l389 537l-360 487h219l299 -416h121v416h199v-416h118l301 416h220l-361 -487l389 -537h-233l-326 453h-108v-453h-199v453h-111z" />
    <glyph glyph-name="uni0437" unicode="&#x437;" horiz-adv-x="1017" 
d="M463 150c80 0 144.667 15.334 194 46.001c49.333 31.333 74 71 74 119c0 40.667 -16.167 74.167 -48.5 100.5s-74.833 39.5 -127.5 39.5h-225v141h194c50 0 91.167 12.333 123.5 37s48.5 55.334 48.5 92.001c0 46 -22.333 82.333 -67 109s-102.667 40 -174 40
c-127.333 0 -218.333 -36 -273 -108l-100 117c91.333 107.333 223.666 160.333 396.999 159c123.333 0 223.333 -25.333 300 -76c77.333 -51.333 116 -118 116 -200c0 -48 -13.667 -92.667 -41 -134c-27.333 -42 -62 -73.667 -104 -95
c50 -14.667 92.667 -46.334 128 -95.001c34.667 -48.667 52 -102.334 52 -161.001c0 -87.333 -41.333 -159 -124 -215c-83.333 -56 -189.666 -84 -318.999 -84c-184 0 -323 56 -417 168l100 116c60 -77.333 157.667 -116 293 -116z" />
    <glyph glyph-name="uni0438" unicode="&#x438;" horiz-adv-x="1257" 
d="M143 0v1024h199v-719l602 719h170v-1024h-199v713l-596 -713h-176z" />
    <glyph glyph-name="uni0439" unicode="&#x439;" horiz-adv-x="1257" 
d="M915 713l-596 -713h-176v1024h199v-719l602 719h170v-1024h-199v713zM317 1415h155.999c0 -42 14.333 -76 43 -102s66.334 -39 113.001 -39c45.333 0 82.166 13 110.499 39s42.5 60 42.5 102h156c0 -84.667 -28.667 -152.667 -86 -204c-57.333 -52 -132.333 -78 -225 -78
c-91.333 0 -165.666 26 -222.999 78c-58 51.333 -87 119.333 -87 204z" />
    <glyph glyph-name="uni043A" unicode="&#x43a;" horiz-adv-x="1144" 
d="M342 0h-199v1024h199v-416h162l317 416h226l-379 -492l422 -532h-234l-362 453h-152v-453z" />
    <glyph glyph-name="uni043B" unicode="&#x43b;" horiz-adv-x="1259" 
d="M305 1024l803 0.000976562v-1024h-199v868h-422c0 -246 -11.333 -432.667 -34 -560c-22.667 -128.667 -55.667 -215 -99 -259c-42.667 -44.667 -104.667 -67 -186 -67c-50 0 -91.667 9.33301 -125 28l33 144c16 -10 35.667 -14.833 59 -14.5s43 5.83301 59 16.5
c16 12 31.333 35.667 46 71c27.333 66 46.333 201.333 57 406c5.33301 115.333 8 245.666 8 390.999z" />
    <glyph glyph-name="uni043C" unicode="&#x43c;" horiz-adv-x="1472" 
d="M143 0v1024h240l352 -653l355 653h239v-1024h-184v739l-352 -651h-113l-352 651v-739h-185z" />
    <glyph glyph-name="uni043D" unicode="&#x43d;" horiz-adv-x="1243" 
d="M342 0h-199v1024h199v-420h559v420h199v-1024h-199v449h-559v-449z" />
    <glyph glyph-name="uni043E" unicode="&#x43e;" horiz-adv-x="1257" 
d="M238 131c-101.333 99.333 -152.002 226.334 -152.002 381.001c0 155.333 50.667 282.666 152 381.999c100.667 98.667 231 148 391 148s290.333 -49.333 391 -148s151 -226 151 -382c0 -155.333 -50.333 -282.333 -151 -381
c-101.333 -99.333 -231.666 -149 -390.999 -149s-289.666 49.667 -390.999 149zM390.998 772.001c-61.333 -67.333 -91.999 -154 -91.999 -260s30.667 -192.333 92 -259c61.333 -66 140.666 -99 237.999 -99c96.667 0 175.667 33 237 99c61.333 66.667 92 153 92 259
s-30.667 192.667 -92 260c-60.667 66.667 -139.667 100 -237 100c-98 0 -177.333 -33.333 -238 -100z" />
    <glyph glyph-name="uni043F" unicode="&#x43f;" horiz-adv-x="1232" 
d="M342 0h-199v1024h947v-1024h-199v868h-549v-868z" />
    <glyph glyph-name="uni0440" unicode="&#x440;" horiz-adv-x="1232" 
d="M342 -461h-198.999v1485h199v-184c31.333 60 81 108.667 149 146c67.333 37.333 140.666 56 219.999 56c128.667 0 233.667 -46.667 315 -140c80.667 -92.667 121 -213.667 121 -363c0 -165.333 -50.333 -299.333 -151 -402
c-101.333 -103.333 -232.666 -155 -393.999 -155c-100.667 0 -187.334 19.667 -260.001 59v-502zM342.001 530v-319c73.333 -39.333 151 -59 233 -59c106 0 192.667 35 260 105c66 70 99 161.667 99 275c0 102 -27.667 185.667 -83 251c-55.333 64 -126 96 -212 96
s-157 -32.333 -213 -97c-56 -65.333 -84 -149.333 -84 -252z" />
    <glyph glyph-name="uni0441" unicode="&#x441;" horiz-adv-x="1091" 
d="M901 246l117.002 -117c-94.667 -98 -223 -147 -385 -147s-293.667 49.667 -395 149s-152 227 -152 383c0 154.667 51 281.667 153 381c101.333 98 232.666 147 393.999 147c158.667 0 287 -49 385 -147l-117 -117c-64.667 62.667 -149.334 94 -254.001 94
c-102.667 0 -186.334 -33.333 -251.001 -100s-97 -152.667 -97 -258c0 -106 32.667 -192.667 98 -260c64.667 -66.667 148 -100 250 -100c104.667 0 189.334 30.667 254.001 92z" />
    <glyph glyph-name="uni0442" unicode="&#x442;" horiz-adv-x="1034" 
d="M43 868v156h950v-156h-377v-868h-198v868h-375z" />
    <glyph glyph-name="uni0443" unicode="&#x443;" horiz-adv-x="1161" 
d="M438 -127l57.999 125l-457 1026h205l344 -801l330 801h204l-520 -1219c-81.333 -190 -195.333 -284.667 -342 -284c-84 0 -157.667 29.333 -221 88l100 123c30.667 -26 66.334 -39 107.001 -39c73.333 0 137.333 60 192 180z" />
    <glyph glyph-name="uni0444" unicode="&#x444;" horiz-adv-x="1548" 
d="M235 133c-99.333 97.333 -149 223.667 -149 379s49.667 282 149 380c99.333 97.333 228 146 386 146c20.667 0 39 -0.666992 55 -2v449h198v-449c16 1.33301 34.667 2 56 2c156.667 0 284.667 -48.667 384 -146c98.667 -98 148 -224.667 148 -380
c0 -156 -49.333 -282.333 -148 -379c-98.667 -98 -226.667 -147 -384 -147c-20 0 -38.667 0.666992 -56 2v-449h-198v449c-16 -1.33301 -34.333 -2 -55 -2c-158 0 -286.667 49 -386 147zM621 883.001c-97.333 0 -177.667 -34.667 -241 -104
c-63.333 -70.667 -95 -159.667 -95 -267c0 -108 31.333 -196.333 94 -265c63.333 -69.333 144 -104 242 -104c26 0 44.333 1.33301 55 4v732c-22 2.66699 -40.333 4 -55 4zM929.999 883.001c-15.333 0 -34.001 -1.33203 -56.001 -3.99902v-732
c10.667 -2.66699 29.334 -4 56.001 -4c98 0 178.333 34.333 241 103c62 68 93 156.667 93 266s-31 198.666 -93 267.999c-62.667 68.667 -143 103 -241 103z" />
    <glyph glyph-name="uni0445" unicode="&#x445;" horiz-adv-x="1161" 
d="M580 393l-287 -393h-238l402 524l-379 500h235l267 -371l268 371h235l-378 -500l401 -524h-238z" />
    <glyph glyph-name="uni0446" unicode="&#x446;" horiz-adv-x="1337" 
d="M143 0v1024h199v-868h543v868h198v-868h199v-469h-184v313h-955z" />
    <glyph glyph-name="uni0447" unicode="&#x447;" horiz-adv-x="1155" 
d="M106 686l0.000976562 338h199v-299c0 -66 23 -119.667 69 -161c45.333 -41.333 107.666 -62 186.999 -62c96.667 0 180.667 28.667 252 86v436h199v-1024h-199v420c-92.667 -56 -195.667 -84 -309 -84c-121.333 0 -218 32 -290 96s-108 148.667 -108 254z" />
    <glyph glyph-name="uni0448" unicode="&#x448;" horiz-adv-x="1744" 
d="M1602 1024v-1024h-1459v1024h199v-868h432v868h199v-868h430v868h199z" />
    <glyph glyph-name="uni0449" unicode="&#x449;" horiz-adv-x="1855" 
d="M143 0v1024h199v-868h432v868h199v-868h430v868h199v-868h198v-469h-184v313h-1473z" />
    <glyph glyph-name="uni044A" unicode="&#x44a;" horiz-adv-x="1329" 
d="M375 868h-332v156h530v-373h330c101.333 0 183.333 -30.333 246 -91s94 -138.667 94 -234c0 -96 -31.333 -174.333 -94 -235s-144.667 -91 -246 -91h-528v868zM858 496h-285v-340h285c54 0 98.667 15.667 134 47c34.667 30.667 52 71.667 52 123c0 50 -17.333 91 -52 123
c-35.333 31.333 -80 47 -134 47z" />
    <glyph glyph-name="uni044B" unicode="&#x44b;" horiz-adv-x="1523" 
d="M672 0h-529v1024h199v-373h330c101.333 0 183.333 -30.333 246 -91s94 -138.667 94 -234c0 -96 -31.333 -174.333 -94 -235s-144.667 -91 -246 -91zM1380 0h-198v1024h198v-1024zM627 496h-285v-340h285c54 0 98.667 15.667 134 47c34.667 30.667 52 71.667 52 123
c0 50 -17.333 91 -52 123c-35.333 31.333 -80 47 -134 47z" />
    <glyph glyph-name="uni044C" unicode="&#x44c;" horiz-adv-x="1097" 
d="M672 0h-529v1024h199v-373h330c101.333 0 183.333 -30.333 246 -91s94 -138.667 94 -234c0 -96 -31.333 -174.333 -94 -235s-144.667 -91 -246 -91zM627 496h-285v-340h285c54 0 98.667 15.667 134 47c34.667 30.667 52 71.667 52 123c0 50 -17.333 91 -52 123
c-35.333 31.333 -80 47 -134 47z" />
    <glyph glyph-name="uni044D" unicode="&#x44d;" horiz-adv-x="1071" 
d="M782 455l-474.997 -0.000976562v141h471c-14.667 85.333 -52.334 154.666 -113.001 207.999c-59.333 52.667 -132.333 79 -219 79c-112.667 0 -200.667 -33.667 -264 -101l-106 107c95.333 100.667 223.666 150.334 384.999 149.001
c155.333 0 281.666 -48.667 378.999 -146c96.667 -97.333 145 -224 145 -380c0 -155.333 -48.667 -281.666 -146 -378.999c-98 -98 -224.667 -147 -380 -147c-156 0 -283.667 49.667 -383 149l106 107c63.333 -66 151.333 -99.667 264 -101c89.333 0 165.333 28.667 228 86
c61.333 56.667 97.333 132.667 108 228z" />
    <glyph glyph-name="uni044E" unicode="&#x44e;" horiz-adv-x="1699" 
d="M342 449l-0.000976562 -449h-199v1024h199v-420h223c18.667 130.667 76 236.667 172 318c95.333 80 211.333 120 348 120c155.333 0 282.333 -49.333 381 -148s148 -226 148 -382c0 -154.667 -49 -281.667 -147 -381c-99.333 -99.333 -226.666 -149 -381.999 -149
c-144 0 -263.333 43 -358 129c-95.333 86 -150 198.667 -164 338h-221zM1313 772c-58.667 66.667 -134.334 100 -227.001 100c-93.333 0 -169.333 -33.333 -228 -100s-88 -153.334 -88 -260.001c0 -105.333 29.333 -191.333 88 -258s134.667 -100 228 -100
c92.667 0 168.334 33.333 227.001 100s88 152.667 88 258c0 106.667 -29.333 193.334 -88 260.001z" />
    <glyph glyph-name="uni044F" unicode="&#x44f;" horiz-adv-x="1136" 
d="M293 0l-217 -0.000976562l286 403c-78 11.333 -141 45.333 -189 102c-48.667 56.667 -73 124.667 -73 204c0 92.667 32.333 168.334 97 227.001c63.333 58.667 146.333 88 249 88h545l2 -1024h-198l-2 395h-226zM299 701.999c0 -49.333 18.001 -88.667 54.001 -118
c35.333 -30 80.666 -45 135.999 -45h306v329h-306c-56 0 -101.667 -15.667 -137 -47s-53 -71 -53 -119z" />
    <glyph glyph-name="uni0450" unicode="&#x450;" horiz-adv-x="1189" 
d="M1100 446h-803.002c5.33301 -87.333 43 -157.666 113 -210.999c68.667 -54 156 -81 262 -81c117.333 0 208 30 272 90l109 -109c-102.667 -102.667 -238 -153.667 -406 -153c-167.333 0 -302.333 50.333 -405 151c-104 100 -156 230.333 -156 391
c0 151.333 47.667 275.666 143 372.999c94.667 96.667 216.334 145 365.001 145c150.667 0 273.334 -49.333 368.001 -148s142 -226.667 142 -384c0 -16 -1.33301 -37.333 -4 -64zM298.998 596l597.999 -0.000976562c-3.33301 82 -31.333 149 -84 201
c-53.333 51.333 -121.666 77 -204.999 77c-84 0 -154.333 -25.333 -211 -76c-57.333 -51.333 -90 -118.666 -98 -201.999zM671.997 1165l-342 258l121 121l299 -301z" />
    <glyph glyph-name="uni0451" unicode="&#x451;" horiz-adv-x="1189" 
d="M647 -18c-167.333 0 -302.336 50.332 -405.003 150.999c-104 100 -156 230.333 -156 391c0 151.333 47.667 275.666 143 372.999c94.667 96.667 216.334 145 365.001 145c150.667 0 273.334 -49.333 368.001 -148s142 -226.667 142 -384
c0 -15.333 -1.33301 -36.666 -4 -63.999h-803c5.33301 -87.333 43 -157.666 113 -210.999c68.667 -54 156 -81 262 -81c117.333 0 208 30 272 90l109 -109c-103.333 -102 -238.666 -153 -405.999 -153zM298.997 595.999l597.999 -0.000976562
c-3.33301 82 -31.333 149 -84 201c-53.333 51.333 -121.666 77 -204.999 77c-84 0 -154.333 -25.333 -211 -76c-57.333 -51.333 -90 -118.666 -98 -201.999zM275.996 1233v201h193v-201h-193zM910.996 1233h-190v201h190v-201z" />
    <glyph glyph-name="uni0452" unicode="&#x452;" horiz-adv-x="1236" 
d="M342 1485l-0.000976562 -176h317v-127h-317v-340c38 62.667 89 111.667 153 147s134 53 210 53c118 0 214.333 -36.667 289 -110c73.333 -74.667 110 -170.334 110 -287.001v-770c0 -103.333 -32 -187.666 -96 -252.999c-64.667 -64.667 -148.667 -97 -252 -97
c-102.667 0 -188 34 -256 102l102 119c34 -34 79.667 -51 137 -51c49.333 0 89.333 17.333 120 52s46 80 46 136v723c0 80.667 -24 146 -72 196c-48.667 50 -110.667 75 -186 75c-89.333 0 -162.666 -34 -219.999 -102c-56.667 -68.667 -85 -155.667 -85 -261v-514h-199
v1182h-151v127h151v176h199z" />
    <glyph glyph-name="uni0453" unicode="&#x453;" horiz-adv-x="905" 
d="M143 1024h719v-156h-520v-868h-199v1024zM356 1243l299 301l121 -121l-342 -258z" />
    <glyph glyph-name="uni0454" unicode="&#x454;" horiz-adv-x="1071" 
d="M803 596l0.00195312 -140.998h-512c11.333 -95.333 47 -171 107 -227c61.333 -58 137.666 -87 228.999 -87c111.333 0 198.666 33.667 261.999 101l108 -107c-100 -100.667 -227.667 -150.334 -383 -149.001c-157.333 0 -284.666 49 -381.999 147
c-97.333 97.333 -146 223.666 -146 378.999s49 282 147 380c97.333 97.333 223.666 146 378.999 146c159.333 0 287.666 -49.667 384.999 -149l-108 -107c-59.333 66 -146.666 99.667 -261.999 101c-88 0 -161.333 -26.333 -220 -79c-60 -52.667 -97.333 -122 -112 -208h508
z" />
    <glyph glyph-name="uni0455" unicode="&#x455;" horiz-adv-x="956" 
d="M874 291c0 -92.667 -37.3301 -167.335 -111.997 -224.002s-174.334 -85 -299.001 -85c-150.667 0 -279.667 47.667 -387 143l102 117c73.333 -61.333 167 -92 281 -92c68 0 122.5 11.833 163.5 35.5s61.5 54.834 61.5 93.501c0 36.667 -17.667 65 -53 85
c-36.667 20 -92 41.333 -166 64c-8.66699 2.66699 -15.667 4.66699 -21 6c-48 14 -89.667 28.333 -125 43c-34.667 14.667 -69 33 -103 55c-74.667 46.667 -112 117 -112 211c0 91.333 35 164 105 218c68.667 54 162 81 280 81c143.333 0 261.666 -45 354.999 -135
l-103 -119c-64.667 57.333 -146.334 86 -245.001 86c-60 0 -108.5 -10.833 -145.5 -32.5s-55.5 -50.167 -55.5 -85.5c0 -28 13 -52.333 39 -73c26.667 -22 51 -36.667 73 -44c12.667 -4.66699 49.667 -17 111 -37c47.333 -13.333 83 -24.333 107 -33
c24 -8 55 -21.667 93 -41c36.667 -19.333 64.667 -38.666 84 -57.999c48 -49.333 72 -109 72 -179z" />
    <glyph glyph-name="uni0456" unicode="&#x456;" horiz-adv-x="485" 
d="M342 0h-199v1024h199v-1024zM342 1231h-199v203h199v-203z" />
    <glyph glyph-name="uni0457" unicode="&#x457;" horiz-adv-x="485" 
d="M342 1024v-1024h-199v1024h199zM541 1434v-201h-193v201h193zM-55 1233v201h192v-201h-192z" />
    <glyph glyph-name="uni0458" unicode="&#x458;" horiz-adv-x="509" 
d="M-238 -373l105.001 118.999c34 -34 79.667 -51 137 -51c48 0 87.333 17.333 118 52s46 80 46 136v1141h199v-1149c0 -103.333 -32 -187.666 -96 -252.999c-64.667 -64.667 -148.334 -97 -251.001 -97c-101.333 0 -187.333 34 -258 102zM367.001 1434v-203h-199v203h199z
" />
    <glyph glyph-name="uni0459" unicode="&#x459;" horiz-adv-x="1822" 
d="M43 10l33 144.002c16 -10 35.667 -14.833 59 -14.5s43 5.83301 59 16.5c16 12 31.333 35.667 46 71c27.333 66 46.333 201.333 57 406c5.33301 115.333 8 245.666 8 390.999h782v-373h318c99.333 0 180.666 -30 243.999 -90c62.667 -60 94 -138.333 94 -235
c0 -97.333 -31.333 -176 -94 -236c-63.333 -60 -144.666 -90 -243.999 -90h-516v868h-402c0 -246 -11.333 -432.667 -34 -560c-22.667 -128.667 -55.667 -215 -99 -259c-42.667 -44.667 -104.667 -67 -186 -67c-48 -0.666992 -89.667 8.66602 -125 27.999zM1360 496.002
h-273v-340h273c54.667 0 99 15.667 133 47s51 72.333 51 123c0 50 -17 91 -51 123c-34.667 31.333 -79 47 -133 47z" />
    <glyph glyph-name="uni045A" unicode="&#x45a;" horiz-adv-x="1777" 
d="M342 469v-469h-199v1024h199v-399h516v399h199v-399h317c94.667 0 172.667 -29 234 -87c60 -58 90 -133 90 -225c0 -92.667 -30.333 -168 -91 -226s-139.667 -87 -237 -87h-512v469h-516zM1325 469l-268 -0.000976562v-313h268c50 0 91.667 14.667 125 44
c32.667 28.667 49 66.334 49 113.001c0 46 -16.333 83.333 -49 112c-33.333 29.333 -75 44 -125 44z" />
    <glyph glyph-name="uni045B" unicode="&#x45b;" horiz-adv-x="1236" 
d="M342 1485l-0.000976562 -175.999h317v-127h-317v-340c38 62.667 89 111.667 153 147s134 53 210 53c118 0 214.333 -36.667 289 -110c73.333 -74.667 110 -170.334 110 -287.001v-645h-199v606c0 80.667 -24 146 -72 196c-48.667 50 -110.667 75 -186 75
c-89.333 0 -162.666 -34 -219.999 -102c-56.667 -68.667 -85 -155.667 -85 -261v-514h-199v1182h-151v127h151v176h199z" />
    <glyph glyph-name="uni045C" unicode="&#x45c;" horiz-adv-x="1144" 
d="M342 0h-199v1024h199v-416h162l317 416h226l-379 -492l422 -532h-234l-362 453h-152v-453zM498 1165l-78 78l299 301l121 -121z" />
    <glyph glyph-name="uni045D" unicode="&#x45d;" horiz-adv-x="1257" 
d="M319 0h-176v1024h199v-719l602 719h170v-1024h-199v713zM784 1243l-77 -78l-342 258l120 121z" />
    <glyph glyph-name="uni045E" unicode="&#x45e;" horiz-adv-x="1161" 
d="M438 -127l57.999 125l-457 1026h205l344 -801l330 801h204l-520 -1219c-81.333 -190 -195.333 -284.667 -342 -284c-84 0 -157.667 29.333 -221 88l100 123c30.667 -26 66.334 -39 107.001 -39c73.333 0 137.333 60 192 180zM278.999 1415h152.999
c0 -42 14.333 -76 43 -102s66.334 -39 113.001 -39c46 0 83 13 111 39s42 60 42 102h158c0 -84.667 -28.667 -152.667 -86 -204c-56.667 -52 -131.667 -78 -225 -78c-92 0 -166.333 26 -223 78c-57.333 51.333 -86 119.333 -86 204z" />
    <glyph glyph-name="uni045F" unicode="&#x45f;" horiz-adv-x="1232" 
d="M143 0v1024h199v-868h549v868h199v-1024h-381v-313h-185v313h-381z" />
    <glyph glyph-name="uni0490" unicode="&#x490;" horiz-adv-x="1171" 
d="M367 1257v-1257h-213v1434h766v256h198v-433h-751z" />
    <glyph glyph-name="uni0491" unicode="&#x491;" horiz-adv-x="905" 
d="M342 0h-199v1024h523v256h184v-412h-508v-868z" />
    <glyph glyph-name="uni04D8" unicode="&#x4d8;" horiz-adv-x="1632" 
d="M809 -18c-211.333 0 -383 68.333 -515 205c-132 136 -198 312.667 -198 530c0 22.667 1.33301 48.667 4 78h1200c-14.667 140.667 -71.334 254.667 -170.001 342s-220 131 -364 131c-82.667 0 -161 -14.667 -235 -44s-131.667 -68 -173 -116l-125 131
c138 142 320.333 213 547 213c222.667 0 404.334 -68.333 545.001 -205s211 -314 211 -532c0 -214 -68 -389.667 -204 -527s-310.333 -206 -523 -206zM807 168c130.667 0 240.668 41.333 330.001 124s143.666 190.667 162.999 324h-968c10.667 -134 59.667 -242 147 -324
c86.667 -82.667 196 -124 328 -124z" />
    <glyph glyph-name="uni04D9" unicode="&#x4d9;" horiz-adv-x="1189" 
d="M90 578l802.999 -0.000976562c-7.33301 86.667 -45.333 157.334 -114 212.001c-69.333 54.667 -156.333 82 -261 82c-116 0 -206.667 -30.667 -272 -92l-109 109c98 102.667 233.333 153.667 406 153c164.667 0 299.667 -50 405 -150c104 -101.333 156 -231.333 156 -390
c0 -152 -47.333 -276.333 -142 -373c-94.667 -98 -216.667 -147 -366 -147s-271.666 49.667 -366.999 149s-143 227 -143 383c0 16 1.33301 37.333 4 64zM890.999 427.999h-598c2.66699 -80.667 30.667 -147 84 -199c52.667 -52.667 121 -79 205 -79s154.333 26 211 78
c57.333 51.333 90 118 98 200z" />
    <glyph glyph-name="Wgrave" unicode="&#x1e80;" horiz-adv-x="2265" 
d="M526 0l-479 1434h217l373 -1151l389 1151h215l387 -1151l375 1151h217l-481 -1434h-223l-383 1147l-385 -1147h-222zM1210 1501l-342 258l121 121l299 -301z" />
    <glyph glyph-name="wgrave" unicode="&#x1e81;" horiz-adv-x="1669" 
d="M578 0h-187l-354 1024h194l258 -770l256 770h179l254 -770l260 770h196l-358 -1024h-186l-254 754zM989 1243l-76 -78l-344 258l121 121z" />
    <glyph glyph-name="Wacute" unicode="&#x1e82;" horiz-adv-x="2265" 
d="M526 0l-479 1434h217l373 -1151l389 1151h215l387 -1151l375 1151h217l-481 -1434h-223l-383 1147l-385 -1147h-222zM1055 1501l-78 78l299 301l119 -121z" />
    <glyph glyph-name="wacute" unicode="&#x1e83;" horiz-adv-x="1669" 
d="M391 0l-354 1024h194l258 -770l256 770h179l254 -770l260 770h196l-358 -1024h-186l-254 754l-258 -754h-187zM756 1165l-78 78l299 301l121 -121z" />
    <glyph glyph-name="Wdieresis" unicode="&#x1e84;" horiz-adv-x="2265" 
d="M526 0l-479 1434h217l373 -1151l389 1151h215l387 -1151l375 1151h217l-481 -1434h-223l-383 1147l-385 -1147h-222zM815 1569v200h193v-200h-193zM1260 1569v200h190v-200h-190z" />
    <glyph glyph-name="wdieresis" unicode="&#x1e85;" horiz-adv-x="1669" 
d="M578 0h-187l-354 1024h194l258 -770l256 770h179l254 -770l260 770h196l-358 -1024h-186l-254 754zM961 1233v201h192v-201h-192zM518 1233v201h191v-201h-191z" />
    <glyph glyph-name="uni1E9E" unicode="&#x1e9e;" horiz-adv-x="1593" 
d="M1309 1323l-326 -485.001c159.333 -52 284.666 -114.333 375.999 -187c92 -72.667 138 -163.334 138 -272.001c0 -112 -46.333 -206 -139 -282c-92.667 -76.667 -210.667 -115 -354 -115c-93.333 0 -185 17.667 -275 53c-89.333 34.667 -164.333 82.334 -225 143.001
l110 137c42.667 -46 97 -81.667 163 -107c66 -26.667 135.333 -40 208 -40c86.667 0 158.334 19.667 215.001 59c56 39.333 84 87.333 84 144c0 126 -185 244.667 -555 356c-18 4.66699 -31 8.66699 -39 12l344 518h-342c-95.333 0 -173.666 -31.667 -234.999 -95
s-92 -145.666 -92 -246.999v-915h-213v920c0 155.333 47.667 280 143 374c95.333 93.333 223.666 140 384.999 140h629v-111z" />
    <glyph glyph-name="Ygrave" unicode="&#x1ef2;" horiz-adv-x="1419" 
d="M602 0v549l-555 885h234l428 -689l430 689h233l-557 -885v-549h-213zM866 1579l-78 -78l-342 258l119 121z" />
    <glyph glyph-name="ygrave" unicode="&#x1ef3;" horiz-adv-x="1155" 
d="M915 1024h203.001l-518 -1219c-41.333 -94 -89.333 -164.833 -144 -212.5s-120.667 -71.5 -198 -71.5c-84.667 0 -158.334 29.333 -221.001 88l100 123c30 -26 65 -39 105 -39c73.333 0 137.333 60 192 180l58 125l-455 1026h203l346 -801zM655.001 1165l-342 258
l121 121l299 -301z" />
    <glyph glyph-name="figuredash" unicode="&#x2012;" 
d="M983 653h-737v127h737v-127z" />
    <glyph glyph-name="endash" unicode="&#x2013;" horiz-adv-x="1024" 
d="M881 489h-738v127h738v-127z" />
    <glyph glyph-name="emdash" unicode="&#x2014;" horiz-adv-x="2048" 
d="M1905 489h-1762v127h1762v-127z" />
    <glyph glyph-name="quoteleft" unicode="&#x2018;" horiz-adv-x="421" 
d="M240 1485h139l-78 -434h-201z" />
    <glyph glyph-name="quoteright" unicode="&#x2019;" horiz-adv-x="421" 
d="M184 1051h-141l80 434h201z" />
    <glyph glyph-name="quotesinglbase" unicode="&#x201a;" horiz-adv-x="421" 
d="M184 -223h-141l80 434h201z" />
    <glyph glyph-name="quotereversed" unicode="&#x201b;" horiz-adv-x="421" 
d="M301 1485l78 -434h-139l-140 434h201z" />
    <glyph glyph-name="quotedblleft" unicode="&#x201c;" horiz-adv-x="708" 
d="M588 1051h-201l139 434h140zM301 1051h-201l140 434h139z" />
    <glyph glyph-name="quotedblright" unicode="&#x201d;" horiz-adv-x="708" 
d="M471 1051h-141l80 434h200zM184 1051h-141l80 434h201z" />
    </font>
</defs>
</svg>
