<?xml version="1.0" standalone="no"?>
<!DOCTYPE svg PUBLIC "-//W3C//DTD SVG 1.1//EN" "http://www.w3.org/Graphics/SVG/1.1/DTD/svg11.dtd" >
<svg>
<metadata>
Created by FontForge 20090914 at Sun Oct 11 22:02:56 2020
 By www-data
(c) Andriy Konstantynov 2013-2019 Desktop use is strictly prohibited.
</metadata>
<defs>
<font id="CynthoNext-Bold" horiz-adv-x="1228" >
  <font-face 
    font-family="Cyntho Next Bold"
    font-weight="700"
    font-stretch="normal"
    units-per-em="2048"
    panose-1="0 0 0 0 0 0 0 0 0 0"
    ascent="1741"
    descent="-307"
    x-height="1024"
    cap-height="1434"
    bbox="-342 -481.003 2343 1931"
    underline-thickness="0"
    underline-position="0"
    unicode-range="U+000D-U+FB04"
  />
<missing-glyph horiz-adv-x="681" 
 />
    <glyph glyph-name="uniFB00" unicode="ff" horiz-adv-x="1554" 
d="M203 0v813h-185v211h185v90c0 116 35.333 210.333 106 283c70 72 161 108 273 108c116 0 212.667 -41 290 -123l-139 -163c-37.333 34 -79 51 -125 51c-39.333 0 -71.333 -13 -96 -39s-37 -59.667 -37 -101v-106h445v90c0 116 35 210.333 105 283c70 72 161 108 273 108
c116 0 213 -41 291 -123l-139 -163c-37.333 34 -79 51 -125 51c-39.333 0 -71.333 -13 -96 -39s-37 -59.667 -37 -101v-106h344v-211h-344v-813h-272v813h-445v-813h-272z" />
    <glyph glyph-name="uniFB01" unicode="fi" horiz-adv-x="1304" 
d="M203 813h-185v211h185v90c0 116 35.333 210.333 106 283c70 72 161.667 108 275 108c117.333 0 213.333 -41 288 -123l-139 -163c-37.333 34 -79 51 -125 51c-39.333 0 -71.333 -13 -96 -39s-37 -59.667 -37 -101v-106h344v-211h-344v-813h-272v813zM1194 0h-272v1024
h272v-1024zM1194 1206h-272v228h272v-228z" />
    <glyph glyph-name="uniFB02" unicode="fl" horiz-adv-x="1452" 
d="M203 813h-185v211h185v90c0 116 35.333 210.333 106 283c70 72 161.667 108 275 108c117.333 0 213.333 -41 288 -123l-139 -163c-37.333 34 -79 51 -125 51c-39.333 0 -71.333 -13 -96 -39s-37 -59.667 -37 -101v-106h344v-211h-344v-813h-272v813zM942 285
l0.000976562 1200h275v-1180c0 -27.333 7.83301 -49.166 23.5 -65.499s37.167 -24.5 64.5 -24.5c25.333 0 47.666 9.66699 66.999 29l123 -162c-64 -68 -144.667 -102 -242 -102c-92 0 -166.667 28.333 -224 85c-58 56.667 -87 130 -87 220z" />
    <glyph glyph-name="uniFB03" unicode="ffi" horiz-adv-x="2023" 
d="M475 1130v-106h447v90c0 116 35.333 210.333 106 283c70 72 160.667 108 272 108c116 0 213 -41 291 -123l-139 -163c-37.333 34 -79 51 -125 51c-39.333 0 -71.333 -13 -96 -39s-37 -59.667 -37 -101v-106h344v-211h-344v-813h-272v813h-447v-813h-272v813h-185v211h185
v90c0 116 35.333 210.333 106 283c70 72 161 108 273 108c116 0 212.667 -41 290 -123l-139 -163c-37.333 34 -79 51 -125 51c-39.333 0 -71.333 -13 -96 -39s-37 -59.667 -37 -101zM1913 0h-273v1024h273v-1024zM1913 1206h-273v228h273v-228z" />
    <glyph glyph-name="uniFB04" unicode="ffl" horiz-adv-x="2170" 
d="M475 1130v-106h447v90c0 116 35.333 210.333 106 283c70 72 161.667 108 275 108c116.667 0 212.667 -41 288 -123l-139 -163c-37.333 34 -79 51 -125 51c-39.333 0 -71.333 -13 -96 -39s-37 -59.667 -37 -101v-106h344v-211h-344v-813h-272v813h-447v-813h-272v813h-185
v211h185v90c0 116 35.333 210.333 106 283c70 72 161.667 108 275 108c117.333 0 213.333 -41 288 -123l-139 -163c-37.333 34 -79 51 -125 51c-39.333 0 -71.333 -13 -96 -39s-37 -59.667 -37 -101zM1661 285v1200h274v-1180c0 -27.333 7.83301 -49.166 23.5 -65.499
s37.167 -24.5 64.5 -24.5c26 0 48.667 9.66699 68 29l123 -162c-64 -68 -144.667 -102 -242 -102c-92 0 -166.667 28.333 -224 85c-58 56.667 -87 130 -87 220z" />
    <glyph glyph-name=".notdef" horiz-adv-x="681" 
 />
    <glyph glyph-name="glyph1" horiz-adv-x="0" 
 />
    <glyph glyph-name="glyph1" horiz-adv-x="0" 
 />
    <glyph glyph-name="uni000D" unicode="&#xd;" horiz-adv-x="512" 
 />
    <glyph glyph-name="space" unicode=" " horiz-adv-x="593" 
 />
    <glyph glyph-name="exclam" unicode="!" horiz-adv-x="538" 
d="M416 0h-295v291h295v-291zM385 463h-231l-33 971h295z" />
    <glyph glyph-name="quotedbl" unicode="&#x22;" horiz-adv-x="753" 
d="M633 961h-191l-41 473h273zM311 961h-190l-41 473h272z" />
    <glyph glyph-name="numbersign" unicode="#" horiz-adv-x="1406" 
d="M1237 494l-29 -168h-243l-58 -326h-168l58 326h-324l-57 -326h-168l57 326h-246l31 168h244l80 446h-246l31 168h243l58 326h168l-58 -326h324l57 326h168l-57 -326h246l-31 -168h-244l-80 -446h244zM582 940l-80 -446h323l80 446h-323z" />
    <glyph glyph-name="dollar" unicode="$" horiz-adv-x="1222" 
d="M70 170l146.999 187.999c96.667 -84.667 219.667 -127 369 -127c64 0 126 13 186 39s90 66.333 90 121c0 28.667 -13.667 55.167 -41 79.5s-71.666 48.5 -132.999 72.5c-22.667 9.33301 -54.667 21 -96 35c-49.333 16.667 -95 33.334 -137 50.001
c-32.667 12.667 -76.334 34 -131.001 64c-48 26.667 -87.667 55 -119 85c-32 32 -58.5 70.5 -79.5 115.5s-31.5 92.167 -31.5 141.5c0 112 39 206 117 282c78.667 76.667 181.667 121.334 309 134.001v188h168v-190c81.333 -9.33301 158.333 -29.333 231 -60
c70.667 -30 131 -67.333 181 -112l-142 -193c-37.333 37.333 -86.666 66.333 -147.999 87c-62.667 21.333 -123 32 -181 32c-58.667 0 -114 -12.667 -166 -38c-50.667 -24.667 -76 -63.667 -76 -117c0 -54 44.333 -101.333 133 -142c34.667 -16 80.334 -33 137.001 -51
c2 -0.666992 7.16699 -2.16699 15.5 -4.5s13.5 -4.16602 15.5 -5.49902c167.333 -60 286.666 -123.667 357.999 -191c72.667 -68.667 109 -150.334 109 -245.001c0 -113.333 -43 -209.333 -129 -288c-85.333 -78.667 -198 -124 -338 -136v-189h-168v191
c-184.667 19.333 -334.667 80.666 -450 183.999z" />
    <glyph glyph-name="percent" unicode="%" horiz-adv-x="1667" 
d="M428 0h-197l1004 1434h201zM168 755c-58.667 74.667 -88.001 172.667 -88.001 294c0 120.667 29.333 218.334 88 293.001s134.334 112 227.001 112c96 0 173.333 -37.333 232 -112s88 -172.334 88 -293.001c0 -122 -29.333 -220.333 -88 -295
c-59.333 -75.333 -136.666 -113 -231.999 -113c-92.667 0 -168.334 38 -227.001 114zM300.999 1233c-24.667 -47.333 -37 -108.667 -37 -184c0 -76 12.333 -137.333 37 -184c25.333 -48 56.666 -72 93.999 -72c39.333 0 71.333 24 96 72c24.667 46.667 37 108 37 184
c0 74.667 -12 136 -36 184c-25.333 48 -57.666 72 -96.999 72c-38 0 -69.333 -24 -94 -72zM1043 92.999c-59.333 75.333 -89.001 172.666 -89.001 291.999c0 120.667 29.333 218.667 88 294c58.667 76 134.667 114 228 114c94.667 0 171.334 -38 230.001 -114
c59.333 -76.667 89 -174.667 89 -294s-29.667 -216.666 -89 -291.999s-136 -113 -230 -113c-92 0 -167.667 37.667 -227 113zM1139 384.999c0 -75.333 12.333 -136.333 37 -183c24 -47.333 55.333 -71 94 -71s70.667 23.667 96 71c24.667 46.667 37 107.667 37 183
c0 77.333 -12.333 139.333 -37 186s-56.667 70 -96 70c-38 0 -69.333 -23.333 -94 -70s-37 -108.667 -37 -186z" />
    <glyph glyph-name="ampersand" unicode="&#x26;" horiz-adv-x="1433" 
d="M600 -20c-158.667 0 -286.665 41.6689 -383.998 125.002s-146 193 -146 329c0 97.333 26 177.666 78 240.999c50.667 62 121.334 115 212.001 159c-55.333 91.333 -82.333 180 -81 266c0 102 36.667 186.667 110 254c72.667 66.667 167 100 283 100
c111.333 0 202.666 -30.667 273.999 -92c70 -61.333 105 -141.333 105 -240c0 -95.333 -36 -173 -108 -233c-36.667 -30.667 -71.334 -55.334 -104.001 -74.001c-36 -20 -78.667 -41.667 -128 -65c55.333 -55.333 144.666 -138 267.999 -248c23.333 66 35 137.667 35 215
h231c0 -144 -25.333 -271.667 -76 -383l226 -189l-172 -170c-46 34.667 -111 88 -195 160c-115.333 -103.333 -258 -155 -428 -155zM498.002 647.002c-102.667 -62.667 -154.002 -137.667 -154.002 -225c0 -66.667 23 -120 69 -160c44.667 -40.667 104.334 -61 179.001 -61
c94.667 0 179.334 32.667 254.001 98c-130.667 116.667 -246.667 232.667 -348 348zM573 924.002c80 32 137.332 62 171.999 90s52 62 52 102c0 34 -12 62 -36 84s-54.333 33 -91 33c-41.333 0 -75.666 -15 -102.999 -45c-27.333 -30.667 -41 -68.334 -41 -113.001
c0 -47.333 15.667 -97.666 47 -150.999z" />
    <glyph glyph-name="quotesingle" unicode="'" horiz-adv-x="432" 
d="M311 961h-190l-41 473h272z" />
    <glyph glyph-name="parenleft" unicode="(" horiz-adv-x="700" 
d="M204 253c-28 112.667 -41.998 233.337 -41.998 362.004c0 129.333 13.333 249.333 40 360c27.333 112.667 59.666 203 96.999 271c36 64 73.5 121.167 112.5 171.5s72.5 86.5 100.5 108.5l41 30l117 -116c-10.667 -10.667 -19.667 -20.334 -27 -29.001
c-12 -12.667 -32.667 -44 -62 -94s-55 -103.667 -77 -161c-22 -58 -42 -135.667 -60 -233c-18.667 -96 -28 -198.667 -28 -308c0 -108 9 -210.333 27 -307c16.667 -94.667 38 -173.334 64 -236.001c56.667 -132.667 102.667 -217.334 138 -254.001l27 -29l-119 -117
c-12.667 8 -27 18.667 -43 32c-18 14.667 -49 48.667 -93 102c-42.667 51.333 -82.334 111 -119.001 179c-34.667 65.333 -66 154.666 -94 267.999z" />
    <glyph glyph-name="parenright" unicode=")" horiz-adv-x="700" 
d="M497 976c28 -113.333 42 -233.667 42 -361c0 -130 -13.333 -250.333 -40 -361c-27.333 -112.667 -59.666 -203 -96.999 -271c-36.667 -64.667 -74.5 -122 -113.5 -172s-72.5 -86 -100.5 -108l-41 -31l-118 117l28 29c12 14 32.333 45.333 61 94
c28.667 48 54.667 101.667 78 161c21.333 56 41.666 134 60.999 234c18.667 95.333 28 198 28 308c0 107.333 -9 209.666 -27 306.999c-18 96.667 -39 175 -63 235c-51.333 124.667 -97.333 209.334 -138 254.001l-26 29l116 116
c11.333 -7.33301 25.666 -17.666 42.999 -30.999c18 -14.667 49.333 -49 94 -103c44.667 -54.667 84.334 -114.334 119.001 -179.001c34.667 -64 66 -153 94 -267z" />
    <glyph glyph-name="asterisk" unicode="*" horiz-adv-x="819" 
d="M117 1284l227 -98l-27 248h187l-29 -246l225 102l60 -182l-242 -47l166 -184l-152 -111l-120 215l-125 -215l-152 108l166 185l-240 49z" />
    <glyph glyph-name="plus" unicode="+" 
d="M530 633h-325v168h325v325h168v-325h326v-168h-326v-326h-168v326z" />
    <glyph glyph-name="comma" unicode="," horiz-adv-x="454" 
d="M229 -248h-211l72 496h295z" />
    <glyph glyph-name="hyphen" unicode="-" horiz-adv-x="768" 
d="M645 469h-522v168h522v-168z" />
    <glyph glyph-name="period" unicode="." horiz-adv-x="454" 
d="M375 0h-295v291h295v-291z" />
    <glyph glyph-name="slash" unicode="/" horiz-adv-x="972" 
d="M973 1464l-821 -1771l-152 71l823 1772z" />
    <glyph glyph-name="zero" unicode="0" horiz-adv-x="1294" 
d="M231 186c-107.333 137.333 -161 314.333 -161 531s53.667 393.667 161 531s246 206 416 206c170.667 0 309.667 -68.667 417 -206s161 -314.333 161 -531s-53.667 -393.667 -161 -531s-246.333 -206 -417 -206c-170 0 -308.667 68.667 -416 206zM444 1082
c-52.667 -94.667 -79 -216.334 -79 -365.001c0 -149.333 26.333 -270.666 79 -363.999c52 -94.667 119.667 -142 203 -142s151.333 47.333 204 142c52.667 93.333 79 214.666 79 363.999c0 148.667 -26.333 270.334 -79 365.001c-52.667 94 -120.667 141 -204 141
s-151 -47 -203 -141z" />
    <glyph glyph-name="one" unicode="1" horiz-adv-x="923" 
d="M199 969l-119 213l452 252h211v-1434h-274v1120z" />
    <glyph glyph-name="two" unicode="2" horiz-adv-x="1155" 
d="M1053 0l-950.999 0.000976562v201c6 4 16.5 11.667 31.5 23l36.5 27c27.333 20 77.666 63 150.999 129c74 68 137.333 132 190 192c58 66 108.333 138.667 151 218c44.667 81.333 67 157.333 67 228c0 136.667 -79 205 -237 205c-106.667 0 -197.667 -39.667 -273 -119
l-149 149c67.333 66 137 116.333 209 151c72 33.333 153.667 50 245 50c148 0 268.333 -39 361 -117c92.667 -78.667 139 -181 139 -307c0 -76.667 -17.333 -155 -52 -235c-34.667 -82 -76.667 -155 -126 -219c-49.333 -65.333 -98.333 -124.333 -147 -177
c-50.667 -54.667 -92.667 -96.334 -126 -125.001l-53 -43h533v-231z" />
    <glyph glyph-name="three" unicode="3" horiz-adv-x="1198" 
d="M571 -20c-202.667 0 -369.667 66.668 -501 200.001l155 156c33.333 -39.333 77.333 -70 132 -92c55.333 -22 113 -33 173 -33c82.667 0 148.667 20.333 198 61c50 40 75 92 75 156c0 62 -22.333 113.333 -67 154s-101.667 61 -171 61h-125v209h127
c56.667 0 103.667 17 141 51c36 34 54 77.667 54 131c0 57.333 -20.5 103.166 -61.5 137.499s-96.167 51.5 -165.5 51.5c-56.667 0 -111 -11.333 -163 -34s-94 -53.667 -126 -93l-156 157c121.333 134 280.333 201 477 201c142.667 0 258.667 -34.667 348 -104
c88 -70 132 -162.333 132 -277c0 -72 -17 -136.333 -51 -193s-81.333 -100 -142 -130c72.667 -31.333 129.667 -78.833 171 -142.5s62 -136.5 62 -218.5c0 -122 -47.667 -220.667 -143 -296c-96.667 -75.333 -221 -113 -373 -113z" />
    <glyph glyph-name="four" unicode="4" horiz-adv-x="1331" 
d="M59 274v136l705 1024h313v-949h172v-211h-172v-274h-284v274h-734zM793 1067l-398 -582h398v582z" />
    <glyph glyph-name="five" unicode="5" horiz-adv-x="1148" 
d="M514 -20c-177.333 0 -335.67 63.999 -475.003 191.999l156 156c78.667 -78 178.334 -117 299.001 -117c93.333 0 163.333 20 210 60s70 97 70 171c0 82.667 -27.167 147.834 -81.5 195.501s-130.166 71.5 -227.499 71.5c-75.333 0 -160 -11 -254 -33l-61 59l55 699h727
v-232h-512l-23 -287c38.667 8.66699 85.334 13.667 140.001 15c160 0 288.667 -46.667 386 -140c97.333 -94 146 -210 146 -348c0 -141.333 -52 -253.333 -156 -336c-104.667 -84 -237.667 -126 -399 -126z" />
    <glyph glyph-name="six" unicode="6" horiz-adv-x="1224" 
d="M692 1223c-96.667 0 -172 -31.166 -226 -93.499s-87.667 -158.833 -101 -289.5c74.667 53.333 166 80 274 80c152 0 276.333 -43.667 373 -131c95.333 -88 143 -201.333 143 -340c0 -139.333 -47.333 -252.333 -142 -339s-218 -130 -370 -130
c-181.333 0 -322 64.333 -422 193c-100.667 127.333 -151 306.666 -151 537.999c0 238 53.333 421.333 160 550c106 128.667 256.667 193 452 193c184 0 324.667 -47.667 422 -143l-164 -164c-51.333 50.667 -134 76 -248 76zM637 211.001c65.333 0 119 22.333 161 67
c41.333 44.667 62 100.667 62 168c0 70 -23.667 127.667 -71 173c-47.333 44.667 -110.333 67 -189 67c-102.667 0 -181 -32.667 -235 -98c8 -124 36 -217.833 84 -281.5s110.667 -95.5 188 -95.5z" />
    <glyph glyph-name="seven" unicode="7" horiz-adv-x="1185" 
d="M786 1202h-714v232h1044v-134l-573 -1300h-285z" />
    <glyph glyph-name="eight" unicode="8" horiz-adv-x="1247" 
d="M137 1085c0 109.333 45.332 198.331 135.999 266.998c90 68 207.333 102 352 102c146 0 264 -34 354 -102c90 -69.333 135 -158.333 135 -267c0 -152.667 -64.667 -261 -194 -325c74.667 -31.333 132.834 -79.666 174.501 -144.999s62.5 -140.666 62.5 -225.999
c0 -122 -49 -220.333 -147 -295c-98.667 -76 -227 -114 -385 -114c-160 0 -289 38 -387 114c-98.667 74.667 -148 173 -148 295c0 85.333 21 160.5 63 225.5s100.333 113.5 175 145.5c-60.667 30 -107.667 73.333 -141 130s-50 121.667 -50 195zM452.999 580.998
c-45.333 -41.333 -68 -93.001 -68 -155.001c0 -62.667 22.667 -114 68 -154c44.667 -40.667 101.334 -61 170.001 -61c70.667 0 128.334 20.333 173.001 61c44 40 66 91.333 66 154s-22 114.334 -66 155.001c-44.667 40 -102.334 60 -173.001 60
c-68.667 0 -125.334 -20 -170.001 -60zM431.999 1047c0 -50.667 18.332 -92.333 54.999 -125c36.667 -33.333 82.667 -50 138 -50c56.667 0 103.334 16.667 140.001 50c36 33.333 54 75 54 125c0 52 -17.833 94.333 -53.5 127s-82.5 49 -140.5 49
c-56.667 0 -102.667 -16.333 -138 -49c-36.667 -32.667 -55 -75 -55 -127z" />
    <glyph glyph-name="nine" unicode="9" horiz-adv-x="1214" 
d="M510 211c97.333 0 176.67 33.667 238.003 101c60 66.667 94 160.667 102 282c-74.667 -53.333 -164.667 -80 -270 -80c-150.667 0 -273.334 43.667 -368.001 131c-94.667 86.667 -142 200 -142 340c0 139.333 47 252.333 141 339c93.333 86.667 215.666 130 366.999 130
c178.667 0 318 -63.333 418 -190c99.333 -127.333 149 -305 149 -533c0 -240.667 -55.333 -425.667 -166 -555c-110.667 -130.667 -263 -196 -457 -196c-188.667 0 -339.334 54.333 -452.001 163l163 164c70.667 -64 163 -96 277 -96zM584.004 1223
c-63.333 0 -115.667 -21.667 -157 -65c-41.333 -44.667 -62 -101 -62 -169c0 -72.667 23 -131 69 -175c45.333 -44 106 -66 182 -66c100 0 178 32.667 234 98c-8 124 -35.333 217.833 -82 281.5s-108 95.5 -184 95.5z" />
    <glyph glyph-name="colon" unicode=":" horiz-adv-x="454" 
d="M375 0h-295v291h295v-291zM80 733v291h295v-291h-295z" />
    <glyph glyph-name="semicolon" unicode=";" horiz-adv-x="454" 
d="M229 -248h-211l72 496h295zM375 733h-295v291h295v-291z" />
    <glyph glyph-name="less" unicode="&#x3c;" 
d="M164 629v178l860 326v-179l-621 -235l621 -238v-178z" />
    <glyph glyph-name="equal" unicode="=" 
d="M1024 827h-819v168h819v-168zM1024 606v-168h-819v168h819z" />
    <glyph glyph-name="greater" unicode="&#x3e;" 
d="M205 303v178l620 238l-620 235v179l860 -326v-178z" />
    <glyph glyph-name="question" unicode="?" horiz-adv-x="1095" 
d="M1016 1038c0 -56 -11.6689 -109.668 -35.002 -161.001s-53 -93.666 -89 -126.999c-71.333 -66 -135.333 -108.333 -192 -127l-34 -15l-15 -145h-231l-19 307c6 2 17.333 5.33301 34 10c12 3.33301 37.667 14 77 32c34.667 16 67 34.667 97 56
c28.667 19.333 54.334 45.333 77.001 78c23.333 33.333 35 68.333 35 105c0 52 -20.667 94 -62 126s-102.666 48 -183.999 48c-113.333 0 -209 -43.667 -287 -131l-149 149c67.333 70 138 123.333 212 160c74 35.333 159.667 53 257 53c149.333 0 271.333 -39 366 -117
s142 -178.333 142 -301zM681.998 -0.000976562h-295v291h295v-291z" />
    <glyph glyph-name="at" unicode="@" horiz-adv-x="2189" 
d="M1571 -88l115.001 -135.003c-224 -172 -474 -258 -750 -258c-264 0 -474.333 74.667 -631 224c-156.667 148.667 -235 350.334 -235 605.001c0 210 52.667 403.667 158 581s250 317.666 434 420.999c184.667 103.333 387.334 155 608.001 155
c253.333 0 458.666 -68.667 615.999 -206c156 -138 234 -321.667 234 -551c0 -93.333 -13.667 -184.833 -41 -274.5s-66.666 -170.167 -117.999 -241.5c-50.667 -72 -117.334 -130.333 -200.001 -175c-81.333 -44.667 -172 -67 -272 -67c-121.333 0 -213 41 -275 123
c-38.667 -39.333 -87.667 -71.333 -147 -96c-58 -24.667 -116 -37 -174 -37c-103.333 0 -184.333 36.333 -243 109c-59.333 72.667 -89 169.334 -89 290.001c0 188.667 67.667 346.667 203 474s304 191 506 191c121.333 0 234 -27 338 -81l-117 -660
c-5.33301 -29.333 1 -53.666 19 -72.999s42.333 -29 73 -29c41.333 0 79.333 19.333 114 58s62 87.334 82 146.001c41.333 122.667 62 236 62 340c0 157.333 -54.667 285 -164 383c-109.333 97.333 -254 146 -434 146c-164.667 0 -316.334 -41.667 -455.001 -125
c-138 -82 -246.667 -192.667 -326 -332c-78.667 -137.333 -118 -284.666 -118 -441.999c0 -190.667 58.333 -342.334 175 -455.001c117.333 -113.333 277.333 -170 480 -170c103.333 0 207 14.333 311 43c106.667 29.333 193.667 69 261 119zM1243 454.997l60 336.001
c-38.667 15.333 -81.667 22.666 -129 21.999c-101.333 0 -182 -39.667 -242 -119c-60 -78.667 -90 -168.667 -90 -270c0 -69.333 14.667 -123.833 44 -163.5s70 -59.5 122 -59.5c58 0 108.333 23.333 151 70c43.333 46 71.333 107.333 84 184z" />
    <glyph glyph-name="A" unicode="A" horiz-adv-x="1615" 
d="M338 0h-309l628 1434h301l629 -1434h-309l-125 293h-690zM1049 535l-240 563l-242 -563h482z" />
    <glyph glyph-name="B" unicode="B" horiz-adv-x="1409" 
d="M926 0h-805v1434h778c112.667 0 204.667 -33.667 276 -101c70 -68 105 -155.333 105 -262c0 -70.667 -16 -133.667 -48 -189s-76.667 -98 -134 -128c74.667 -23.333 133.334 -67.333 176.001 -132c43.333 -65.333 65 -142.333 65 -231c0 -116 -38 -210 -114 -282
c-76.667 -72.667 -176.334 -109 -299.001 -109zM819 616l-403.001 0.000976562v-385h403c60.667 0 110.334 18.667 149.001 56c37.333 37.333 56 84.333 56 141c0 55.333 -18.667 100.666 -56 135.999c-37.333 34.667 -87 52 -149 52zM415.999 1202v-343.999h387
c52.667 0 95.167 15.833 127.5 47.5s48.5 72.5 48.5 122.5c0 51.333 -16.167 93.166 -48.5 125.499s-74.833 48.5 -127.5 48.5h-387z" />
    <glyph glyph-name="C" unicode="C" horiz-adv-x="1394" 
d="M1176 371l172 -181c-136.667 -140.667 -316.334 -210.667 -539.001 -210c-220 0 -398 68.333 -534 205c-136.667 136 -205 312.667 -205 530c0 218.667 68.667 396.667 206 534c136.667 136.667 313.667 205 531 205c218 0 398.333 -70.333 541 -211l-172 -178
c-32.667 40.667 -81 74 -145 100c-64.667 26 -132 39 -202 39c-131.333 0 -238 -45.333 -320 -136c-82.667 -90.667 -124 -207.667 -124 -351c0 -142 41.333 -258.333 124 -349c83.333 -91.333 190 -137 320 -137c70 0 137 13.333 201 40
c64.667 26 113.334 59.333 146.001 100z" />
    <glyph glyph-name="D" unicode="D" horiz-adv-x="1540" 
d="M721 0h-600v1434h600c220 0 400 -67 540 -201c139.333 -134 209 -306 209 -516c0 -210.667 -69.667 -382.667 -209 -516c-140 -134 -320 -201 -540 -201zM1044 373c82 87.333 123 202 123 344s-41 256.667 -123 344c-83.333 87.333 -191 131 -323 131h-305v-950h305
c132 0 239.667 43.667 323 131z" />
    <glyph glyph-name="E" unicode="E" horiz-adv-x="1275" 
d="M121 0v1434h1057v-242h-762v-344h698v-242h-698v-364h782v-242h-1077z" />
    <glyph glyph-name="F" unicode="F" horiz-adv-x="1255" 
d="M121 0v1434h1057v-242h-762v-346h698v-242h-698v-604h-295z" />
    <glyph glyph-name="G" unicode="G" horiz-adv-x="1476" 
d="M1092 588h-321.998v241h616v-643c-139.333 -139.333 -322.666 -209 -549.999 -209c-228.667 0 -413.334 68.333 -554.001 205c-141.333 137.333 -212 315 -212 533s70.667 395.667 212 533s324.333 206 549 206c223.333 0 408.333 -70.333 555 -211l-169 -180
c-36.667 40.667 -89.667 74 -159 100c-68.667 26 -139.334 39 -212.001 39c-135.333 0 -246 -45.333 -332 -136s-129 -207.667 -129 -351c0 -142 43.333 -258.333 130 -349c87.333 -91.333 199.666 -137 336.999 -137c90.667 0 170.667 20 240 60v299z" />
    <glyph glyph-name="H" unicode="H" horiz-adv-x="1566" 
d="M416 0h-295v1434h295v-588h735v588h295v-1434h-295v604h-735v-604z" />
    <glyph glyph-name="I" unicode="I" horiz-adv-x="534" 
d="M416 1434v-1434h-295v1434h295z" />
    <glyph glyph-name="J" unicode="J" horiz-adv-x="1085" 
d="M680 492l0.00195312 942h295v-942c0 -154.667 -49.667 -278.667 -149 -372c-100.667 -93.333 -230.667 -140 -390 -140c-162 0 -298.333 51 -409 153l168 189c23.333 -27.333 55.666 -49.333 96.999 -66s84.666 -25 129.999 -25c76.667 0 139 24.333 187 73
c47.333 49.333 71 112 71 188z" />
    <glyph glyph-name="K" unicode="K" horiz-adv-x="1439" 
d="M416 469v-469h-295v1434h295v-582l565 582h377l-565 -580l608 -854h-330l-471 657z" />
    <glyph glyph-name="L" unicode="L" horiz-adv-x="1196" 
d="M1157 0h-1036v1434h295v-1192h741v-242z" />
    <glyph glyph-name="M" unicode="M" horiz-adv-x="1857" 
d="M403 0h-282v1434h385l424 -908l422 908h387v-1434h-285v1020l-420 -899h-209l-422 899v-1020z" />
    <glyph glyph-name="N" unicode="N" horiz-adv-x="1544" 
d="M403 0h-282v1434h280l740 -965v965h282v-1434h-280l-740 975v-975z" />
    <glyph glyph-name="O" unicode="O" horiz-adv-x="1646" 
d="M279 185c-139.333 136 -209 313.334 -209 532.001c0 217.333 69.667 394.666 209 531.999c138.667 136.667 320 205 544 205c224.667 0 406.667 -68.333 546 -205c140 -136.667 210 -314 210 -532c0 -218.667 -70 -396 -210 -532
c-139.333 -136.667 -321.333 -205 -546 -205c-224 0 -405.333 68.333 -544 205zM510 1065c-83.333 -91.333 -125.001 -207.333 -125.001 -348s41.667 -256.667 125 -348c82.667 -92 187 -138 313 -138c130 0 235.667 46 317 138c81.333 91.333 122 207.333 122 348
s-40.667 256.667 -122 348s-187 137 -317 137c-125.333 0 -229.666 -45.667 -312.999 -137z" />
    <glyph glyph-name="P" unicode="P" horiz-adv-x="1337" 
d="M416 532v-532.001h-295v1434h698c135.333 0 245.666 -41.667 330.999 -125s128 -191.333 128 -324c0 -131.333 -42.667 -239.666 -128 -324.999s-195.666 -128 -330.999 -128h-403zM416 1192v-416h370c58 0 105.667 19.667 143 59c36 39.333 54 90 54 152
s-18.167 111.667 -54.5 149s-83.833 56 -142.5 56h-370z" />
    <glyph glyph-name="Q" unicode="Q" horiz-adv-x="1646" 
d="M279 1249c138.667 136.667 319.999 205.001 543.999 205.001c224.667 0 406.667 -68.333 546 -205c140 -136.667 210 -314 210 -532c0 -174 -46.333 -324.333 -139 -451l119 -119l-189 -190l-129 131c-117.333 -73.333 -256.666 -109.333 -417.999 -108
c-224 0 -405.333 68.333 -544 205c-139.333 136 -209 313.333 -209 532c0 217.333 69.667 394.666 209 531.999zM1028 680.001l197.001 -199c28.667 64 43 140.667 43 230c0 146 -41 265.333 -123 358s-187.667 139 -317 139c-130 0 -237.333 -46.333 -322 -139
s-127 -210 -127 -352s42.333 -259.333 127 -352c85.333 -93.333 193.666 -140 324.999 -140c83.333 0 156 18 218 54l-211 210z" />
    <glyph glyph-name="R" unicode="R" horiz-adv-x="1392" 
d="M416 0h-295.001v1434h696c136.667 0 247.334 -41.333 332.001 -124s127 -191 127 -325c0 -93.333 -22.667 -176.333 -68 -249c-45.333 -72 -108 -126.333 -188 -163l336 -573h-320l-309 532h-311v-532zM785.999 1192h-369.999v-416h370c56.667 0 103.667 19.667 141 59
c36 39.333 54 90 54 152s-17.833 111.667 -53.5 149s-82.834 56 -141.501 56z" />
    <glyph glyph-name="S" unicode="S" horiz-adv-x="1222" 
d="M1155 408c0 -122.667 -50.665 -224.666 -151.998 -305.999c-102.667 -81.333 -232.334 -122 -389.001 -122c-103.333 0 -203.666 17.333 -300.999 52c-98 34.667 -179 80.667 -243 138l147 188c41.333 -36 96 -66.333 164 -91c67.333 -24 135.666 -36 204.999 -36
c81.333 0 147.666 15.333 198.999 46c51.333 30 77 68 77 114c0 35.333 -20 67 -60 95c-42 28.667 -112 59.334 -210 92.001c-178.667 59.333 -306 124.666 -382 195.999c-77.333 71.333 -116 158 -116 260c0 122 46.667 222.667 140 302c92.667 78.667 212.667 118 360 118
c94 0 188 -16.667 282 -50c92 -32.667 166.667 -75.334 224 -128.001l-142 -193c-33.333 33.333 -81 61.666 -143 84.999c-60 22.667 -122 34 -186 34c-71.333 0 -129.333 -14.333 -174 -43c-45.333 -29.333 -68 -66.666 -68 -111.999c0 -38 20 -71 60 -99
c38 -28.667 108 -60 210 -94c176 -60 303 -125 381 -195c78 -71.333 117 -155 117 -251z" />
    <glyph glyph-name="T" unicode="T" horiz-adv-x="1349" 
d="M29 1192v242h1292v-242h-498v-1192h-295v1192h-499z" />
    <glyph glyph-name="U" unicode="U" horiz-adv-x="1513" 
d="M111 612l0.000976562 822h295v-822c0 -117.333 32 -210 96 -278c64 -68.667 148.667 -103 254 -103s190.333 34.333 255 103c64.667 67.333 97 160 97 278v822h295v-822c0 -192.667 -59.667 -346 -179 -460c-119.333 -114.667 -275.333 -172 -468 -172
s-348.334 57.333 -467.001 172c-118.667 114 -178 267.333 -178 460z" />
    <glyph glyph-name="V" unicode="V" horiz-adv-x="1595" 
d="M948 0h-301l-618 1434h309l461 -1096l458 1096h310z" />
    <glyph glyph-name="W" unicode="W" horiz-adv-x="2246" 
d="M795 0h-308l-458 1434h299l311 -1047l338 1047h295l332 -1047l315 1047h299l-461 -1434h-307l-326 1038z" />
    <glyph glyph-name="X" unicode="X" horiz-adv-x="1507" 
d="M752 530l-365 -530h-348l530 733l-501 701h350l334 -500l338 500h350l-504 -701l532 -733h-352z" />
    <glyph glyph-name="Y" unicode="Y" horiz-adv-x="1452" 
d="M578 530l-549 904h323l373 -631l375 631h321l-549 -904v-530h-294v530z" />
    <glyph glyph-name="Z" unicode="Z" horiz-adv-x="1333" 
d="M834 1192h-750v242h1165v-146l-764 -1046h779v-242h-1194v145z" />
    <glyph glyph-name="bracketleft" unicode="[" horiz-adv-x="700" 
d="M162 -307v1843h500v-168h-246v-1507h246v-168h-500z" />
    <glyph glyph-name="backslash" unicode="\" horiz-adv-x="972" 
d="M0 1464l152 72l821 -1772l-150 -71z" />
    <glyph glyph-name="bracketright" unicode="]" horiz-adv-x="700" 
d="M39 1368v168h500v-1843h-500v168h246v1507h-246z" />
    <glyph glyph-name="asciicircum" unicode="^" 
d="M614 1214l-358 -358l-119 121l477 477l478 -477l-119 -121z" />
    <glyph glyph-name="underscore" unicode="_" horiz-adv-x="1024" 
d="M1024 -270h-1024v168h1024v-168z" />
    <glyph glyph-name="grave" unicode="`" horiz-adv-x="667" 
d="M465 1147l-363 235l164 164l299 -299z" />
    <glyph glyph-name="a" unicode="a" horiz-adv-x="1122" 
d="M80 281c0 105.333 47.668 191.001 143.001 257.001s217.666 99 366.999 99c56.667 0 110 -4.66699 160 -14v55c0 39.333 -19.667 71.666 -59 96.999c-40.667 25.333 -92 38 -154 38c-108.667 0 -206.334 -30.667 -293.001 -92l-129 160c48 49.333 112.667 89 194 119
c82 29.333 167.333 44 256 44c134 0 243.667 -33 329 -99s128 -151 128 -255v-690h-272v96c-85.333 -78 -190.666 -116.667 -315.999 -116c-104 0 -189 28 -255 84s-99 128.333 -99 217zM612.001 455.001c-72.667 0 -131.667 -13.667 -177 -41s-68 -61.666 -68 -102.999
c0 -32.667 15.333 -59.334 46 -80.001c31.333 -21.333 69 -32 113 -32c65.333 0 119 22 161 66c42 43.333 63 100.333 63 171c-40 12.667 -86 19 -138 19z" />
    <glyph glyph-name="b" unicode="b" horiz-adv-x="1191" 
d="M111 59v1426h272v-531c71.333 60 168.333 90 291 90c136 0 246.667 -45.667 332 -137c84.667 -90.667 127 -208.667 127 -354c0 -170.667 -58.667 -308.667 -176 -414c-118 -106 -271 -159 -459 -159c-148 0 -277 26.333 -387 79zM383 569v-336.001
c46.667 -15.333 96.334 -22.666 149.001 -21.999c90.667 0 164.667 29.667 222 89c56 58.667 84 136 84 232c0 83.333 -21.667 152.666 -65 207.999c-44 55.333 -100.333 83 -169 83c-64.667 0 -117.334 -23.333 -158.001 -70c-42 -47.333 -63 -108.666 -63 -183.999z" />
    <glyph glyph-name="c" unicode="c" horiz-adv-x="1052" 
d="M858 283l158.002 -158c-94.667 -96.667 -224.334 -145 -389.001 -145c-168.667 0 -305.334 49.333 -410.001 148c-105.333 99.333 -158 227.333 -158 384c0 157.333 52.333 285.333 157 384s241 148 409 148c162 0 292.333 -48.333 391 -145l-158 -158
c-52 48 -123 72 -213 72c-84.667 0 -154.334 -28.333 -209.001 -85s-82 -128.667 -82 -216s27.333 -159.333 82 -216s124.334 -85 209.001 -85c87.333 0 158.333 24 213 72z" />
    <glyph glyph-name="d" unicode="d" horiz-adv-x="1212" 
d="M498 -20c-130 0 -235.666 46.668 -316.999 140.001s-122 214.333 -122 363c0 167.333 51.333 302.666 154 405.999c103.333 103.333 235.666 155 396.999 155c90 0 163 -12 219 -36v477h275v-1485h-275v104c-32 -36 -78.667 -65.333 -140 -88
c-62 -24 -125.667 -36 -191 -36zM651.001 815.001c-87.333 0 -158.668 -29.667 -214.001 -89s-83 -135.333 -83 -228c0 -86 23 -156 69 -210s105.667 -81 179 -81c66.667 0 121.334 23.333 164.001 70c42 46 63 105.333 63 178v323c-52 24.667 -111.333 37 -178 37z" />
    <glyph glyph-name="e" unicode="e" horiz-adv-x="1163" 
d="M1098 416l-747.998 0.000976562c9.33301 -60 44.333 -109 105 -147c59.333 -38.667 131.666 -58 216.999 -58c103.333 0 181.666 23.333 234.999 70l148 -148c-102.667 -102.667 -241.334 -153.667 -416.001 -153c-172 0 -311.667 50.667 -419 152s-161 232 -161 392
c0 152.667 48.667 277.667 146 375c96.667 96.667 222.334 145 377.001 145c154 0 279.667 -49.667 377 -149c96.667 -99.333 145 -228.333 145 -387c0 -28.667 -2 -59.334 -6 -92.001zM354.002 616.001l465 0.000976562c1.33301 59.333 -18.334 107.666 -59.001 144.999
c-41.333 37.333 -94 56 -158 56c-63.333 0 -118.666 -18.667 -165.999 -56c-46.667 -38 -74 -86.333 -82 -145z" />
    <glyph glyph-name="f" unicode="f" horiz-adv-x="837" 
d="M203 813h-185v211h185v90c0 116 35.333 210.333 106 283c70 72 161 108 273 108c116 0 212.667 -41 290 -123l-139 -163c-37.333 34 -79 51 -125 51c-39.333 0 -71.333 -13 -96 -39s-37 -59.667 -37 -101v-106h344v-211h-344v-813h-272v813z" />
    <glyph glyph-name="g" unicode="g" horiz-adv-x="1191" 
d="M516 -20c-136.667 0 -246.999 45.667 -330.999 137s-126 209.333 -126 354c0 170.667 59.667 309 179 415c119.333 105.333 274 158 464 158c142 0 269 -26.333 381 -79v-953c0 -146.667 -52.333 -265.334 -157 -356.001c-105.333 -91.333 -241.333 -137 -408 -137
c-172 0 -307.667 49.667 -407 149l153 154c52 -48 128 -72 228 -72c93.333 0 169.666 24.667 228.999 74c58.667 48.667 88 111.334 88 188.001v58c-74 -60 -171.667 -90 -293 -90zM662.001 813c-90.667 0 -164.667 -29.6689 -222 -89.002s-86 -136.666 -86 -231.999
c0 -83.333 22 -152.666 66 -207.999c43.333 -55.333 99.333 -83 168 -83c64 0 117 23.667 159 71c41.333 47.333 62 108.333 62 183v336c-42 14.667 -91 22 -147 22z" />
    <glyph glyph-name="h" unicode="h" horiz-adv-x="1206" 
d="M383 0h-272v1485h272v-565c83.333 83.333 189 124.666 317 123.999c120.667 0 218.334 -37.333 293.001 -112c75.333 -75.333 113 -173.666 113 -294.999v-637h-272v584c0 69.333 -20 126 -60 170c-41.333 43.333 -94 65 -158 65
c-68.667 0 -124.334 -24.333 -167.001 -73c-44 -49.333 -66 -112.333 -66 -189v-557z" />
    <glyph glyph-name="i" unicode="i" horiz-adv-x="493" 
d="M383 0h-272v1024h272v-1024zM383 1206h-272v228h272v-228z" />
    <glyph glyph-name="j" unicode="j" horiz-adv-x="524" 
d="M-246 -369l137 160c28.667 -24.667 67.667 -37 117 -37c40 0 72.167 15.167 96.5 45.5s36.5 70.5 36.5 120.5v1104h275v-1112c0 -116.667 -35.333 -210.667 -106 -282c-70.667 -70.667 -163 -106.667 -277 -108c-113.333 0 -206.333 36.333 -279 109zM416 1434v-228h-275
v228h275z" />
    <glyph glyph-name="k" unicode="k" horiz-adv-x="1144" 
d="M111 0v1485h272v-850l350 389h326l-365 -399l422 -625h-295l-297 446l-141 -155v-291h-272z" />
    <glyph glyph-name="l" unicode="l" horiz-adv-x="618" 
d="M541 244l123.001 -162.001c-64 -68 -144.667 -102 -242 -102c-92 0 -166.667 28.333 -224 85c-58 56.667 -87 130 -87 220v1200h272v-1180c0 -27.333 8.16699 -49.166 24.5 -65.499s38.166 -24.5 65.499 -24.5c26 0 48.667 9.66699 68 29z" />
    <glyph glyph-name="m" unicode="m" horiz-adv-x="1808" 
d="M383 573v-572.999h-272v1024h272v-82c76.667 68 171.667 102 285 102c144 0 249.667 -49.667 317 -149c82 100 195.333 149.667 340 149c117.333 0 211 -36.333 281 -109c69.333 -73.333 104 -169.333 104 -288v-647h-274v645c0 51.333 -16 93.666 -48 126.999
c-32.667 32.667 -74.667 49 -126 49c-61.333 0 -112.333 -23 -153 -69c-41.333 -47.333 -62 -107 -62 -179v-573h-275v645c0 52 -16 94.333 -48 127s-74 49 -126 49c-60.667 0 -111.667 -22.667 -153 -68c-41.333 -46.667 -62 -106.667 -62 -180z" />
    <glyph glyph-name="n" unicode="n" horiz-adv-x="1206" 
d="M383 0h-272v1024h272v-104c83.333 83.333 189 124.666 317 123.999c120.667 0 218.334 -37.333 293.001 -112c75.333 -75.333 113 -173.666 113 -294.999v-637h-272v584c0 69.333 -20 126 -60 170c-41.333 43.333 -94 65 -158 65
c-68.667 0 -124.334 -24.333 -167.001 -73c-44 -49.333 -66 -112.333 -66 -189v-557z" />
    <glyph glyph-name="o" unicode="o" horiz-adv-x="1239" 
d="M216 128c-104.667 98.667 -157 226.667 -157 384s52.333 285.333 157 384s239.667 148 405 148c164.667 0 299.334 -49.333 404.001 -148s157 -226.667 157 -384s-52.333 -285.333 -157 -384s-239.334 -148 -404.001 -148c-165.333 0 -300.333 49.333 -405 148zM354 512
c0 -86.667 25 -158.667 75 -216c50 -56.667 114 -85 192 -85c77.333 0 141 28.333 191 85c50 57.333 75 129.333 75 216c0 88.667 -25 161 -75 217s-113.667 84 -191 84c-78 0 -142 -28 -192 -84s-75 -128.333 -75 -217z" />
    <glyph glyph-name="p" unicode="p" horiz-adv-x="1212" 
d="M383 -461h-271.999v1485h272v-104c30.667 36.667 77.334 66.667 140.001 90c61.333 22.667 125.333 34 192 34c131.333 0 237.666 -46.667 318.999 -140c80.667 -92.667 121 -213.667 121 -363c0 -166 -51.333 -300.667 -154 -404
c-102.667 -104.667 -236.334 -157 -401.001 -157c-88 0 -160.333 12 -217 36v-477zM383.001 571l0.000976562 -324.999c55.333 -24.667 115.333 -37 180 -37c87.333 0 158.666 29.667 213.999 89s83 136 83 230c0 85.333 -22.667 155.666 -68 210.999
c-46 54.667 -106 82 -180 82c-68 0 -123 -23 -165 -69c-42.667 -46.667 -64 -107 -64 -181z" />
    <glyph glyph-name="q" unicode="q" horiz-adv-x="1191" 
d="M516 -20c-136.667 0 -246.999 45.667 -330.999 137s-126 209.333 -126 354c0 168.667 59 306.667 177 414c117.333 106 268.666 159 453.999 159c152 0 283 -26.333 393 -79v-1426h-274v531c-74 -60 -171.667 -90 -293 -90zM662.001 813
c-90.667 0 -164.667 -29.6689 -222 -89.002s-86 -136.666 -86 -231.999c0 -83.333 22 -152.666 66 -207.999c43.333 -55.333 99.333 -83 168 -83c64 0 117 23.667 159 71c41.333 47.333 62 108.333 62 183v336c-42 14.667 -91 22 -147 22z" />
    <glyph glyph-name="r" unicode="r" horiz-adv-x="757" 
d="M383 0l-272 0.000976562v1024h272v-193c38.667 67.333 88.834 119.666 150.501 156.999s130.167 56 205.5 56v-262c-104.667 0 -190.334 -24.667 -257.001 -74c-66 -50 -99 -114.667 -99 -194v-514z" />
    <glyph glyph-name="s" unicode="s" horiz-adv-x="956" 
d="M897 307c0 -101.333 -39.667 -181 -119 -239c-78.667 -58.667 -185.667 -88 -321 -88c-159.333 0 -295.333 49 -408 147l137 160c69.333 -53.333 157.666 -80 264.999 -80c56 0 100.667 7.5 134 22.5s50 35.5 50 61.5c0 22.667 -13.167 41 -39.5 55
s-72.5 29.667 -138.5 47c-18 3.33301 -29 6 -33 8c-44 11.333 -85 24.666 -123 39.999c-31.333 12.667 -66 31.667 -104 57c-75.333 50 -113 125 -113 225s36.667 178.667 110 236c72.667 56.667 173.334 85 302.001 85c148 0 271.333 -45.667 370 -137l-139 -159
c-56 47.333 -129.667 70.333 -221 69c-108 0 -162 -26 -162 -78c0 -26.667 20.667 -49 62 -67c18.667 -8.66699 36.667 -16 54 -22c10 -4 32 -10.333 66 -19c51.333 -13.333 98 -27.666 140 -42.999c34 -14 71.667 -32.667 113 -56c78.667 -48 118 -123 118 -225z" />
    <glyph glyph-name="t" unicode="t" horiz-adv-x="870" 
d="M475 1300l0.00195312 -276.002h301v-211h-301v-481c0 -35.333 10.333 -63.666 31 -84.999s48 -32 82 -32c41.333 0 77.333 13.667 108 41l135 -131c-28.667 -45.333 -68.834 -80.833 -120.501 -106.5s-108.834 -38.5 -171.501 -38.5c-96 0 -175.667 29.333 -239 88
c-64.667 58.667 -97 134.334 -97 227.001v518h-185v211h185v172z" />
    <glyph glyph-name="u" unicode="u" horiz-adv-x="1210" 
d="M111 387v636.997h272v-584c0 -69.333 20 -125.666 60 -168.999c39.333 -44 91 -66 155 -66c66.667 0 121.667 24.667 165 74c42.667 48.667 64 111.334 64 188.001v557h273v-1024h-273v104c-86.667 -83.333 -191.667 -124.666 -315 -123.999
c-120 0 -216.667 37.667 -290 113c-74 75.333 -111 173.333 -111 294z" />
    <glyph glyph-name="v" unicode="v" horiz-adv-x="1153" 
d="M436 0l-418 1024h283l277 -719l274 719h283l-420 -1024h-279z" />
    <glyph glyph-name="w" unicode="w" horiz-adv-x="1648" 
d="M616 0h-256l-342 1024h269l209 -680l206 680h244l203 -680l213 680h268l-346 -1024h-254l-205 649z" />
    <glyph glyph-name="x" unicode="x" horiz-adv-x="1161" 
d="M580 346l-228 -346h-323l383 524l-361 500h322l207 -324l208 324h326l-364 -500l385 -524h-326z" />
    <glyph glyph-name="y" unicode="y" horiz-adv-x="1159" 
d="M18 -385l136 166c27.333 -19.333 57.333 -29 90 -29c76 0 135.333 52 178 156l43 92l-447 1024h281l291 -717l270 717h281l-490 -1204c-84.667 -200.667 -211.667 -301 -381 -301c-94 0 -178 32 -252 96z" />
    <glyph glyph-name="z" unicode="z" horiz-adv-x="1015" 
d="M569 813h-489v211h878v-125l-503 -688h514v-211h-899v125z" />
    <glyph glyph-name="braceleft" unicode="{" horiz-adv-x="700" 
d="M276 4l0.000976562 336.001c0 56 -18 101.667 -54 137c-36.667 35.333 -83.334 53 -140.001 53v168c57.333 0 104 18.333 140 55c36 36 54 82.667 54 140v326c0 99.333 35.667 180.666 107 243.999c71.333 62 163.333 93 276 93v-167c-38 0 -69.333 -11.667 -94 -35
s-37 -53.333 -37 -90v-338c0 -64.667 -15.333 -125.667 -46 -183c-30.667 -59.333 -69.667 -102.333 -117 -129c46.667 -26.667 86 -68 118 -124c30 -56 45 -114.333 45 -175v-356c0 -34 12.333 -62.333 37 -85s56 -34 94 -34v-168c-112.667 0 -204.667 30.667 -276 92
c-71.333 62 -107 142 -107 240z" />
    <glyph glyph-name="bar" unicode="|" horiz-adv-x="575" 
d="M371 1536v-1843h-168v1843h168z" />
    <glyph glyph-name="braceright" unicode="}" horiz-adv-x="700" 
d="M41 -328v167.999c38 0 69.333 11.333 94 34s37 51 37 85v356c0 60.667 15.333 118.667 46 174c31.333 56.667 70.666 98.334 117.999 125.001c-47.333 26.667 -86.666 69.334 -117.999 128.001c-30.667 57.333 -46 118.666 -46 183.999v338
c0 36.667 -12.333 66.667 -37 90s-56 35 -94 35v167c114 0 206.333 -31.333 277 -94s106 -143.667 106 -243v-326c0 -57.333 18 -104 54 -140c36 -36.667 82.667 -55 140 -55v-168c-56.667 0 -103.334 -17.667 -140.001 -53c-36 -35.333 -54 -81 -54 -137v-336
c0 -98 -35.333 -178 -106 -240c-71.333 -61.333 -163.666 -92 -276.999 -92z" />
    <glyph glyph-name="asciitilde" unicode="~" 
d="M449 676c-34 0 -62.335 -11.332 -85.002 -33.999s-34 -51.667 -34 -87h-211c0 96 29.667 175.667 89 239c58.667 62 135.334 93 230.001 93c35.333 1.33301 71.833 -4.83398 109.5 -18.501s69.5 -29 95.5 -46s52.833 -32.333 80.5 -46s50.167 -19.834 67.5 -18.501
c31.333 0 56.833 10.833 76.5 32.5s29.5 49.5 29.5 83.5h211c0 -97.333 -29 -176.333 -87 -237c-58 -61.333 -132 -92 -222 -92c-36 -1.33301 -72.333 4.83398 -109 18.501s-67.5 29.167 -92.5 46.5s-51.167 33 -78.5 47s-50.666 20.333 -69.999 19z" />
    <glyph glyph-name="exclamdown" unicode="&#xa1;" horiz-adv-x="538" 
d="M121 1024h295v-291h-295v291zM154 561h231l31 -971h-295z" />
    <glyph glyph-name="cent" unicode="&#xa2;" horiz-adv-x="1052" 
d="M183 162c-82.667 93.333 -124 209.999 -124 349.999c0 139.333 41.333 256.333 124 351c83.333 94.667 193.666 152.334 330.999 173.001v193h168v-187c136.667 -11.333 248 -59 334 -143l-158 -158c-46 40 -104.667 63.333 -176 70c-10.667 1.33301 -23 2 -37 2
c-86 0 -156 -28.333 -210 -85c-54 -57.333 -81 -129.333 -81 -216s27 -158.667 81 -216c54 -56.667 124 -85 210 -85s157 24 213 72l158 -158c-82 -84 -193.333 -131.667 -334 -143v-187h-168v193c-137.333 22 -247.666 80 -330.999 174z" />
    <glyph glyph-name="sterling" unicode="&#xa3;" horiz-adv-x="1196" 
d="M207 571h-148v179h148v213c0 144.667 49 262.667 147 354c97.333 91.333 223 137 377 137c162 0 297.333 -51.333 406 -154l-166 -188c-52.667 60 -128.667 90 -228 90c-70 0 -127.667 -22 -173 -66c-45.333 -45.333 -68 -103 -68 -173v-213h340v-179h-340v-350h581v-221
h-1024v221h148v350z" />
    <glyph glyph-name="currency" unicode="&#xa4;" 
d="M272 256l-117.999 119l151 151c-31.333 55.333 -47 118.333 -47 189c0 70 16.333 133.333 49 190l-153 154l118 119l154 -154c56 30 118 45 186 45c70.667 0 133.667 -15.667 189 -47l155 156l119 -119l-155 -156c32.667 -52.667 49 -115.334 49 -188.001
c0 -69.333 -15.667 -131.666 -47 -186.999l153 -153l-119 -119l-153 154c-52 -32 -115.667 -48.667 -191 -50c-70.667 0 -133.334 16 -188.001 48zM424.001 788c-12.667 -48 -12.667 -95.666 0 -142.999c20.667 -58.667 60.334 -98.334 119.001 -119.001
c24 -6.66699 47.667 -10 71 -10c25.333 0 48.666 4 69.999 12c38.667 12 69.167 35.5 91.5 70.5s33.5 74.5 33.5 118.5c0 56.667 -18 103.667 -54 141c-36.667 36.667 -83.667 55 -141 55c-44 0 -82.833 -11 -116.5 -33s-58.167 -52.667 -73.5 -92z" />
    <glyph glyph-name="yen" unicode="&#xa5;" horiz-adv-x="1452" 
d="M305 678h182l-458 756h323l373 -631l375 631h321l-458 -756h167v-168h-258v-139h258v-168h-258v-203h-294v203h-273v168h273v139h-273v168z" />
    <glyph glyph-name="brokenbar" unicode="&#xa6;" horiz-adv-x="575" 
d="M371 1536v-717h-168v717h168zM203 -307v717h168v-717h-168z" />
    <glyph glyph-name="section" unicode="&#xa7;" horiz-adv-x="976" 
d="M47 127l139 160c69.333 -53.333 158.333 -80 267 -80c56.667 0 101.167 7.5 133.5 22.5s48.5 36.167 48.5 63.5c0 20.667 -7.66699 36 -23 46c-18.667 12.667 -40.667 23.334 -66 32.001c-33.333 10.667 -66.666 20.667 -99.999 30c-14 3.33301 -34.333 9 -61 17
c-40.667 11.333 -74.334 23 -101.001 35s-57.334 30 -92.001 54c-72 49.333 -108 126.666 -108 231.999c0 100.667 34 179.334 102 236.001c-68 56.667 -102 129 -102 217c0 96 36.667 172.667 110 230c72.667 56.667 173.334 85 302.001 85
c147.333 0 270.666 -45.667 369.999 -137l-139 -160c-58.667 46.667 -132.334 70 -221.001 70c-108 0 -162 -26 -162 -78c0 -26.667 15.333 -48.834 46 -66.501s82.334 -37.167 155.001 -58.5c50.667 -14.667 93 -28.667 127 -42c36 -14 72 -32.667 108 -56
c78 -48.667 117 -124.334 117 -227.001c0 -95.333 -34.667 -172.666 -104 -231.999c69.333 -52 104 -123.667 104 -215c0 -100 -40 -179 -120 -237c-79.333 -58.667 -186.666 -88 -321.999 -88c-156 0 -292 49 -408 147zM422 866
c-58.667 -18 -88.001 -50.668 -88.001 -98.001c0 -32.667 16.667 -60 50 -82c32.667 -22 90.334 -46 173.001 -72c58.667 18.667 88 52.334 88 101.001c0 64 -74.333 114.333 -223 151z" />
    <glyph glyph-name="dieresis" unicode="&#xa8;" horiz-adv-x="907" 
d="M367 1434v-228h-265v228h265zM805 1206h-262v228h262v-228z" />
    <glyph glyph-name="copyright" unicode="&#xa9;" horiz-adv-x="1613" 
d="M286 196c-144 144 -216 317.667 -216 521s72 377 216 521s317.667 216 521 216s377 -72 521 -216s216 -317.667 216 -521s-72 -377 -216 -521s-317.667 -216 -521 -216s-377 72 -521 216zM404 1120c-110.667 -110.667 -166 -245 -166 -403
c0 -158.667 55.333 -293.334 166 -404.001c110 -110.667 244.333 -166 403 -166c158 0 292.333 55.333 403 166s166 245.334 166 404.001c0 158 -55.333 292.333 -166 403s-245 166 -403 166c-158.667 0 -293 -55.333 -403 -166zM1018 541l106.001 -113.001
c-74 -78 -173 -117 -297 -117c-121.333 0 -219.666 37.667 -294.999 113c-76 74.667 -114 172.334 -114 293.001c0 120 38 218 114 294c75.333 75.333 173.666 113 294.999 113c119.333 0 218.333 -38.667 297 -116l-106 -111c-34.667 46.667 -94 70 -178 70
c-66.667 0 -120.667 -23 -162 -69c-41.333 -46.667 -62 -106.334 -62 -179.001c0 -73.333 20.667 -133.333 62 -180c40.667 -46.667 94.667 -70 162 -70c35.333 0 69.666 6.83301 102.999 20.5s58.333 30.834 75 51.501z" />
    <glyph glyph-name="ordfeminine" unicode="&#xaa;" horiz-adv-x="800" 
d="M59 915c0 72.667 33.6689 132.666 101.002 179.999c66.667 46.667 152.667 70 258 70c37.333 0 72.666 -2.66699 105.999 -8v33c0 26 -13.333 46.833 -40 62.5s-61 23.5 -103 23.5c-76 0 -142.333 -21.333 -199 -64l-96 121c34 34.667 79.333 62.334 136 83.001
c58.667 21.333 120 32 184 32c94 0 171 -23 231 -69c60 -47.333 90 -107 90 -179v-483h-203v55c-60.667 -46.667 -132.334 -70 -215.001 -70c-74 0 -134 20 -180 60c-46.667 38.667 -70 89.667 -70 153zM434.002 1030c-46.667 0 -84.667 -8.5 -114 -25.5
s-44 -39.167 -44 -66.5c0 -22 9.5 -39.5 28.5 -52.5s43.833 -19.5 74.5 -19.5c44 0 79.167 13.667 105.5 41s39.5 64.333 39.5 111c-33.333 8 -63.333 12 -90 12z" />
    <glyph glyph-name="guillemotleft" unicode="&#xab;" horiz-adv-x="1165" 
d="M612 281l-116 -121l-394 393l394 391l116 -121l-272 -270zM1044 281l-116 -121l-393 393l393 391l116 -121l-272 -270z" />
    <glyph glyph-name="logicalnot" unicode="&#xac;" 
d="M856 633h-651v168h819v-432h-168v264z" />
    <glyph glyph-name="uni00AD" unicode="&#xad;" horiz-adv-x="768" 
d="M645 469h-522v168h522v-168z" />
    <glyph glyph-name="registered" unicode="&#xae;" horiz-adv-x="1613" 
d="M1328 196c-144 -144 -317.667 -216 -521 -216s-377 72 -521 216s-216 317.667 -216 521s72 377 216 521s317.667 216 521 216s377 -72 521 -216s216 -317.667 216 -521s-72 -377 -216 -521zM1210 1120c-110.667 110.667 -245 166 -403 166
c-158.667 0 -293 -55.333 -403 -166c-110.667 -110.667 -166 -245 -166 -403c0 -158.667 55.333 -293.334 166 -404.001c110 -110.667 244.333 -166 403 -166c158 0 292.333 55.333 403 166s166 245.334 166 404.001c0 158 -55.333 292.333 -166 403zM676 608v-283.999h-184
v788h389c76.667 0 138.667 -22.667 186 -68c46.667 -46 70 -106.667 70 -182c0 -108.667 -44.333 -184.334 -133 -227.001l178 -311h-197l-164 284h-145zM858 961.001l-182 0.00195312v-201h182c28.667 0 51.5 9.16699 68.5 27.5s25.5 43.166 25.5 74.499
s-8.5 55.666 -25.5 72.999s-39.833 26 -68.5 26z" />
    <glyph glyph-name="overscore" unicode="&#xaf;" horiz-adv-x="780" 
d="M678 1372v-168h-576v168h576z" />
    <glyph glyph-name="degree" unicode="&#xb0;" horiz-adv-x="712" 
d="M158 982c-50.667 50.667 -76 116.667 -76 198c0 80 25.667 145.667 77 197s117.333 77 198 77c79.333 0 145.333 -25.667 198 -77c52 -51.333 78 -117 78 -197c0 -81.333 -26 -147.333 -78 -198c-52.667 -51.333 -119 -77 -199 -77c-82 0 -148 25.667 -198 77zM240 1182
c0 -35.333 10.833 -64 32.5 -86s50.167 -33 85.5 -33c32.667 0 59.667 11.167 81 33.5s32 50.833 32 85.5c0 34 -10.5 61.5 -31.5 82.5s-48.167 31.5 -81.5 31.5c-35.333 0 -63.833 -10.5 -85.5 -31.5s-32.5 -48.5 -32.5 -82.5z" />
    <glyph glyph-name="plusminus" unicode="&#xb1;" 
d="M530 786h-325v168h325v326h168v-326h326v-168h-326v-325h-168v325zM1024 172h-819v168h819v-168z" />
    <glyph glyph-name="uni00B2" unicode="&#xb2;" horiz-adv-x="653" 
d="M592 748l-528.998 -0.000976562v122l36 27c18 13.333 44 36 78 68c35.333 32.667 68.333 66.334 99 101.001c28 32 54.333 71 79 117c24 44 36 84.667 36 122c0 65.333 -39.667 98 -119 98c-54.667 0 -100.334 -19 -137.001 -57l-94 94c42 38 82.333 65.5 121 82.5
s83 25.5 133 25.5c81.333 0 148.666 -21.667 201.999 -65c52 -44 78 -101.333 78 -172c0 -62.667 -20.667 -128.667 -62 -198c-40 -68 -81.333 -122.333 -124 -163l-63 -57h266v-145z" />
    <glyph glyph-name="uni00B3" unicode="&#xb3;" horiz-adv-x="681" 
d="M324 735c-111.333 0 -204.332 36.333 -278.999 109l96 98c32.667 -40.667 85.334 -61 158.001 -61c40.667 0 73.334 9.83301 98.001 29.5s37 45.167 37 76.5c0 30 -10.5 55 -31.5 75s-47.167 30 -78.5 30h-74v133h74c27.333 0 49.166 8.16699 65.499 24.5
s24.5 37.5 24.5 63.5c0 28 -10 50 -30 66s-47.667 24 -83 24c-64.667 0 -113.667 -20.667 -147 -62l-97 99c65.333 73.333 153.666 109.333 264.999 108c81.333 0 146.666 -19.333 195.999 -58c49.333 -39.333 74 -90.333 74 -153c0 -82 -33.333 -141.333 -100 -178
c82 -38 122.667 -103.333 122 -196c0 -68 -26.667 -123 -80 -165c-54 -42 -124 -63 -210 -63z" />
    <glyph glyph-name="acute" unicode="&#xb4;" horiz-adv-x="665" 
d="M102 1247l297 299l164 -164l-360 -235z" />
    <glyph glyph-name="mu" unicode="&#xb5;" horiz-adv-x="1208" 
d="M383 -410l-274.001 -0.00195312v1434h274v-584c0 -69.333 20 -125.666 60 -168.999c39.333 -44 90.333 -66 153 -66c66.667 0 121.667 24.667 165 74c42.667 48.667 64 111.334 64 188.001v557h275v-1024h-275v104c-84.667 -81.333 -174.667 -121.333 -270 -120
c-67.333 0 -124.666 17.667 -171.999 53v-447z" />
    <glyph glyph-name="paragraph" unicode="&#xb6;" horiz-adv-x="1257" 
d="M59 985c0 132.667 42.667 240.668 128 324.001s195.666 125 330.999 125h250v-1895h-168v993h-82c-135.333 0 -245.666 42.667 -330.999 128s-128 193.666 -128 324.999zM1139 -460.999h-168v1895h168v-1895z" />
    <glyph glyph-name="middot" unicode="&#xb7;" horiz-adv-x="432" 
d="M352 582h-272v270h272v-270z" />
    <glyph glyph-name="cedilla" unicode="&#xb8;" horiz-adv-x="620" 
d="M102 -346l88 94c30.667 -28.667 63.667 -43 99 -43c18 0 33.333 4.16699 46 12.5s19 18.5 19 30.5c0 34 -41 51 -123 51l19 201h141l-8 -100c40 -8 72.333 -28.333 97 -61c25.333 -32.667 38 -69.667 38 -111c0 -48 -18.667 -87 -56 -117s-85 -45 -143 -45
c-96 0 -168.333 29.333 -217 88z" />
    <glyph glyph-name="uni00B9" unicode="&#xb9;" horiz-adv-x="520" 
d="M121 1264l-76 133l254 139h131v-788h-172v593z" />
    <glyph glyph-name="ordmasculine" unicode="&#xba;" horiz-adv-x="886" 
d="M158 807c-74 68.667 -111.001 158 -111.001 268c0 109.333 37 199 111 269c73.333 69.333 168 104 284 104c118 0 213.333 -34.333 286 -103c73.333 -69.333 110 -159.333 110 -270c0 -110 -36.667 -199.667 -110 -269s-168.666 -104 -285.999 -104
c-116 0 -210.667 35 -284 105zM316.999 1220c-32.667 -37.333 -49 -85.667 -49 -145s16.333 -107.333 49 -144c32 -38 74 -57 126 -57c51.333 0 93 19 125 57c32 36.667 48 84.667 48 144c0 58.667 -16 107 -48 145c-32 37.333 -73.667 56 -125 56
c-52 0 -94 -18.667 -126 -56z" />
    <glyph glyph-name="guillemotright" unicode="&#xbb;" horiz-adv-x="1165" 
d="M553 823l119 121l393 -391l-393 -393l-119 121l274 272zM121 823l119 121l393 -391l-393 -393l-119 121l274 272z" />
    <glyph glyph-name="onequarter" unicode="&#xbc;" horiz-adv-x="1660" 
d="M1341 145h-397v82l379 561h197v-512h88v-131h-88v-145h-179v145zM1419 1434l-1009 -1434h-197l1004 1434h202zM121 1161l-76 133l254 140h131v-789h-172v594zM1341 559l-188 -283h188v283z" />
    <glyph glyph-name="onehalf" unicode="&#xbd;" horiz-adv-x="1742" 
d="M430 0h-197l1004 1434h203zM1227 598l-94 94.001c78.667 72.667 162.334 109 251.001 109c82.667 0 150.667 -21.667 204 -65c52.667 -44 79 -101.667 79 -173c0 -63.333 -21 -129.333 -63 -198c-44 -71.333 -85.667 -125.333 -125 -162l-64 -58h268v-145h-530v123
c8.66699 7.33301 20.667 16.333 36 27c17.333 13.333 43.333 35.666 78 66.999c36.667 34 69.667 68 99 102c28 32 54.333 71 79 117c24 44 36 84.333 36 121c0 65.333 -39 98 -117 98c-54.667 0 -100.334 -19 -137.001 -57zM121 1161l-76 133l254 140h131v-789h-172v594z
" />
    <glyph glyph-name="threequarters" unicode="&#xbe;" horiz-adv-x="1781" 
d="M1462 145h-395v82l377 561h196v-512h91v-131h-91v-145h-178v145zM532 0h-198l1003 1434h203zM324 633c-110.667 0 -203.667 36.001 -279 108.001l96 99c32.667 -40.667 85.334 -61.334 158.001 -62.001c40 0 72.5 10 97.5 30s37.5 45.667 37.5 77
c0 30 -10.5 54.833 -31.5 74.5s-47.167 29.5 -78.5 29.5h-74v133h74c27.333 0 49.166 8.16699 65.499 24.5s24.5 37.5 24.5 63.5c0 28 -10 50 -30 66s-47.667 24 -83 24c-65.333 0 -114.333 -20.333 -147 -61l-97 98c64.667 72.667 153 109 265 109
c81.333 0 146.666 -19.333 195.999 -58c49.333 -39.333 74 -90.333 74 -153c0 -82 -33.333 -141.333 -100 -178c82.667 -38 123.334 -103.667 122.001 -197c0 -68 -26.667 -122.667 -80 -164c-54 -42 -124 -63 -210 -63zM1462 559.001l-188 -283h188v283z" />
    <glyph glyph-name="questiondown" unicode="&#xbf;" horiz-adv-x="1095" 
d="M80 -14c0 56 11.5029 109.666 34.5029 160.999s52.5 94 88.5 128c70 64.667 133.333 106.667 190 126l37 15l16 145h232l16 -307c-4 -1.33301 -15 -4.66602 -33 -9.99902c-12 -3.33301 -37.667 -14 -77 -32c-34.667 -16 -67.334 -34.333 -98.001 -55
c-28 -20 -53.333 -46.333 -76 -79c-23.333 -33.333 -35 -68.333 -35 -105c0 -52 20.667 -94 62 -126s102.666 -48 183.999 -48c113.333 0 208.666 43.667 285.999 131l150 -149c-68 -69.333 -138.667 -122 -212 -158c-74 -35.333 -159.667 -53 -257 -53
c-148 0 -269.667 38.667 -365 116s-143 177.333 -143 300zM414.003 1024h295v-291h-295v291z" />
    <glyph glyph-name="Agrave" unicode="&#xc0;" horiz-adv-x="1615" 
d="M338 0h-309l628 1434h301l629 -1434h-309l-125 293h-690zM1049 535l-240 563l-242 -563h482zM989 1597l-100 -100l-363 236l164 163z" />
    <glyph glyph-name="Aacute" unicode="&#xc1;" horiz-adv-x="1615" 
d="M338 0h-309l628 1434h301l629 -1434h-309l-125 293h-690zM1049 535l-240 563l-242 -563h482zM1087 1733l-358 -236l-102 100l297 299z" />
    <glyph glyph-name="Acircumflex" unicode="&#xc2;" horiz-adv-x="1615" 
d="M338 0h-309l628 1434h301l629 -1434h-309l-125 293h-690zM1049 535l-240 563l-242 -563h482zM594 1501l-133 133l348 242l346 -242l-131 -133l-215 156z" />
    <glyph glyph-name="Atilde" unicode="&#xc3;" horiz-adv-x="1615" 
d="M338 0h-309l628 1434h301l629 -1434h-309l-125 293h-690zM631 1544l-191 -0.000976562c0 78 24.667 141.667 74 191c48.667 48.667 112.334 73 191.001 73c34.667 0.666992 67.167 -6 97.5 -20s55.666 -28 75.999 -42s36.166 -20.667 47.499 -20c18 0 32 6.5 42 19.5
s15 30.5 15 52.5h191c0 -77.333 -24 -140.666 -72 -189.999s-111 -74 -189 -74c-50.667 0 -96 14 -136 42s-67.667 42 -83 42c-19.333 0 -34.666 -6.83301 -45.999 -20.5s-17 -31.5 -17 -53.5zM1049 534.999l-240 563l-242 -563h482z" />
    <glyph glyph-name="Adieresis" unicode="&#xc4;" horiz-adv-x="1615" 
d="M338 0h-309l628 1434h301l629 -1434h-309l-125 293h-690zM1049 535l-240 563l-242 -563h482zM897 1554v230h262v-230h-262zM719 1784v-230h-262v230h262z" />
    <glyph glyph-name="Aring" unicode="&#xc5;" horiz-adv-x="1615" 
d="M338 0h-309l628 1434h301l629 -1434h-309l-125 293h-690zM1049 535l-240 563l-242 -563h482zM616 1702c0 56 18.001 101.666 54.001 136.999c35.333 35.333 81.666 53 138.999 53c55.333 0 101.333 -17.667 138 -53c36 -35.333 54 -81 54 -137
c0 -57.333 -18 -103.666 -54 -138.999c-36 -36 -82 -54 -138 -54c-58 0 -104.333 18 -139 54c-36 34.667 -54 81 -54 139zM809.001 1765c-20 0 -35.999 -5.66797 -47.999 -17.001s-18 -26.666 -18 -45.999s6.16699 -35.166 18.5 -47.499s28.166 -18.5 47.499 -18.5
c18 0 32.667 6.16699 44 18.5s17 28.166 17 47.499c0 18 -5.66699 33 -17 45s-26 18 -44 18z" />
    <glyph glyph-name="AE" unicode="&#xc6;" horiz-adv-x="2076" 
d="M506 293l-160 -293h-317l788 1434h1159v-242h-700v-344h637v-242h-637v-364h723v-242h-1018v293h-475zM981 535v626l-342 -626h342z" />
    <glyph glyph-name="Ccedilla" unicode="&#xc7;" horiz-adv-x="1394" 
d="M709 -201l14 185.001c-196.667 18.667 -354.667 95 -474 229c-119.333 133.333 -179 300.666 -179 501.999c0 218.667 68.667 396.667 206 534c136.667 136.667 313.667 205 531 205c218 0 398.333 -70.333 541 -211l-172 -178c-32.667 40.667 -81 74 -145 100
c-64.667 26 -132 39 -202 39c-131.333 0 -238 -45.333 -320 -136c-82.667 -90.667 -124 -207.667 -124 -351c0 -142 41.333 -258.333 124 -349c83.333 -91.333 190 -137 320 -137c68.667 0 135.667 13 201 39c64 26 112.667 59.667 146 101l172 -181
c-122.667 -126.667 -283.334 -196 -482.001 -208l-8 -82c40.667 -8 73.667 -27.833 99 -59.5s38 -69.167 38 -112.5c0 -48 -18.667 -87 -56 -117c-36.667 -30 -84.667 -45 -144 -45c-42 0 -83 8.16699 -123 24.5s-70.667 37.5 -92 63.5l88 94
c30.667 -28.667 63.334 -43 98.001 -43c16.667 0 31.667 4.16699 45 12.5s20 18.5 20 30.5c0 34 -40.667 51 -122 51z" />
    <glyph glyph-name="Egrave" unicode="&#xc8;" horiz-adv-x="1275" 
d="M121 0v1434h1057v-242h-762v-344h698v-242h-698v-364h782v-242h-1077zM834 1597l-101 -100l-362 236l164 163z" />
    <glyph glyph-name="Eacute" unicode="&#xc9;" horiz-adv-x="1275" 
d="M1198 0h-1077v1434h1057v-242h-762v-344h698v-242h-698v-364h782v-242zM934 1733l-361 -236l-100 100l297 299z" />
    <glyph glyph-name="Ecircumflex" unicode="&#xca;" horiz-adv-x="1275" 
d="M121 0v1434h1057v-242h-762v-344h698v-242h-698v-364h782v-242h-1077zM653 1657l-215 -156l-133 133l348 242l348 -242l-133 -133z" />
    <glyph glyph-name="Edieresis" unicode="&#xcb;" horiz-adv-x="1275" 
d="M1198 0h-1077v1434h1057v-242h-762v-344h698v-242h-698v-364h782v-242zM1006 1784v-230h-265v230h265zM301 1554v230h264v-230h-264z" />
    <glyph glyph-name="Igrave" unicode="&#xcc;" horiz-adv-x="534" 
d="M416 1434v-1434h-295v1434h295zM348 1497l-362 236l164 163l299 -299z" />
    <glyph glyph-name="Iacute" unicode="&#xcd;" horiz-adv-x="534" 
d="M416 1434v-1434h-295v1434h295zM86 1597l297 299l164 -163l-361 -236z" />
    <glyph glyph-name="Icircumflex" unicode="&#xce;" horiz-adv-x="534" 
d="M416 1434v-1434h-295v1434h295zM53 1501l-133 133l348 242l346 -242l-131 -133l-215 156z" />
    <glyph glyph-name="Idieresis" unicode="&#xcf;" horiz-adv-x="534" 
d="M121 0v1434h295v-1434h-295zM618 1554h-262v230h262v-230zM-84 1554v230h262v-230h-262z" />
    <glyph glyph-name="Eth" unicode="&#xd0;" horiz-adv-x="1554" 
d="M135 0v632.998h-137v168h137v633h600c221.333 0 401.666 -66.667 540.999 -200s209 -305.666 209 -516.999s-69.667 -383.666 -209 -516.999s-319.666 -200 -540.999 -200h-600zM729 800.998v-168.002h-299v-391h305c132 0 239.667 43.667 323 131
c82.667 86.667 124 201.334 124 344.001s-41.333 257.334 -124 344.001c-83.333 87.333 -191 131 -323 131h-305v-391h299z" />
    <glyph glyph-name="Ntilde" unicode="&#xd1;" horiz-adv-x="1544" 
d="M403 975v-975h-282v1434h280l740 -965v965h282v-1434h-280zM596 1544h-190c0 78 24.667 141.667 74 191c48.667 48.667 112 73 190 73c34.667 0.666992 67.167 -6 97.5 -20s55.666 -28 75.999 -42s36.166 -20.667 47.499 -20c18 0 32 6.5 42 19.5s15 30.5 15 52.5h191
c0 -78 -24.333 -141.333 -73 -190c-49.333 -49.333 -111.666 -74 -186.999 -74c-50.667 0 -96 14 -136 42c-40.667 28 -68.667 42 -84 42c-19.333 0 -34.666 -6.83301 -45.999 -20.5s-17 -31.5 -17 -53.5z" />
    <glyph glyph-name="Ograve" unicode="&#xd2;" horiz-adv-x="1646" 
d="M279 185c-139.333 136 -209 313.334 -209 532.001c0 217.333 69.667 394.666 209 531.999c138.667 136.667 320 205 544 205c224.667 0 406.667 -68.333 546 -205c140 -136.667 210 -314 210 -532c0 -218.667 -70 -396 -210 -532
c-139.333 -136.667 -321.333 -205 -546 -205c-224 0 -405.333 68.333 -544 205zM510 1065c-83.333 -91.333 -125.001 -207.333 -125.001 -348s41.667 -256.667 125 -348c82.667 -92 187 -138 313 -138c130 0 235.667 46 317 138c81.333 91.333 122 207.333 122 348
s-40.667 256.667 -122 348s-187 137 -317 137c-125.333 0 -229.666 -45.667 -312.999 -137zM902.999 1497l-362 236l164 163l299 -299z" />
    <glyph glyph-name="Oacute" unicode="&#xd3;" horiz-adv-x="1646" 
d="M279 185c-139.333 136 -209 313.334 -209 532.001c0 217.333 69.667 394.666 209 531.999c138.667 136.667 320 205 544 205c224.667 0 406.667 -68.333 546 -205c140 -136.667 210 -314 210 -532c0 -218.667 -70 -396 -210 -532
c-139.333 -136.667 -321.333 -205 -546 -205c-224 0 -405.333 68.333 -544 205zM510 1065c-83.333 -91.333 -125.001 -207.333 -125.001 -348s41.667 -256.667 125 -348c82.667 -92 187 -138 313 -138c130 0 235.667 46 317 138c81.333 91.333 122 207.333 122 348
s-40.667 256.667 -122 348s-187 137 -317 137c-125.333 0 -229.666 -45.667 -312.999 -137zM642.999 1597l295 299l166 -163l-361 -236z" />
    <glyph glyph-name="Ocircumflex" unicode="&#xd4;" horiz-adv-x="1646" 
d="M279 185c-139.333 136 -209 313.334 -209 532.001c0 217.333 69.667 394.666 209 531.999c138.667 136.667 320 205 544 205c224.667 0 406.667 -68.333 546 -205c140 -136.667 210 -314 210 -532c0 -218.667 -70 -396 -210 -532
c-139.333 -136.667 -321.333 -205 -546 -205c-224 0 -405.333 68.333 -544 205zM510 1065c-83.333 -91.333 -125.001 -207.333 -125.001 -348s41.667 -256.667 125 -348c82.667 -92 187 -138 313 -138c130 0 235.667 46 317 138c81.333 91.333 122 207.333 122 348
s-40.667 256.667 -122 348s-187 137 -317 137c-125.333 0 -229.666 -45.667 -312.999 -137zM607.999 1501l-133 133l348 242l346 -242l-131 -133l-215 156z" />
    <glyph glyph-name="Otilde" unicode="&#xd5;" horiz-adv-x="1646" 
d="M279 185c-139.333 136 -209 313.334 -209 532.001c0 217.333 69.667 394.666 209 531.999c138.667 136.667 320 205 544 205c224.667 0 406.667 -68.333 546 -205c140 -136.667 210 -314 210 -532c0 -218.667 -70 -396 -210 -532
c-139.333 -136.667 -321.333 -205 -546 -205c-224 0 -405.333 68.333 -544 205zM510 1065c-83.333 -91.333 -125.001 -207.333 -125.001 -348s41.667 -256.667 125 -348c82.667 -92 187 -138 313 -138c130 0 235.667 46 317 138c81.333 91.333 122 207.333 122 348
s-40.667 256.667 -122 348s-187 137 -317 137c-125.333 0 -229.666 -45.667 -312.999 -137zM708.999 1618c-19.333 0 -34.8311 -6.83203 -46.498 -20.499s-17.5 -31.5 -17.5 -53.5h-190c0 78 24.667 141.667 74 191c48.667 48.667 112 73 190 73
c27.333 0.666992 53.666 -3.33301 78.999 -12s45.5 -18.334 60.5 -29.001s30 -20.334 45 -29.001s27.167 -12.667 36.5 -12c18 0 32 6.5 42 19.5s15 30.5 15 52.5h191c0 -77.333 -24 -140.666 -72 -189.999s-110 -74 -186 -74c-34.667 -0.666992 -67.167 6.33301 -97.5 21
s-55.833 29 -76.5 43s-36.334 20.667 -47.001 20z" />
    <glyph glyph-name="Odieresis" unicode="&#xd6;" horiz-adv-x="1646" 
d="M1369 185c-139.333 -136.667 -321.333 -204.999 -546 -204.999c-224 0 -405.333 68.333 -544 205c-139.333 136 -209 313.333 -209 532c0 217.333 69.667 394.666 209 531.999c138.667 136.667 320 205 544 205c224.667 0 406.667 -68.333 546 -205
c140 -136.667 210 -314 210 -532c0 -218.667 -70 -396 -210 -532zM510 1065c-83.333 -91.333 -125.001 -207.333 -125.001 -348s41.667 -256.667 125 -348c82.667 -92 187 -138 313 -138c130 0 235.667 46 317 138c81.333 91.333 122 207.333 122 348
s-40.667 256.667 -122 348s-187 137 -317 137c-125.333 0 -229.666 -45.667 -312.999 -137zM734.999 1554h-264v230h264v-230zM1174 1784v-230h-263v230h263z" />
    <glyph glyph-name="multiply" unicode="&#xd7;" 
d="M494 717l-281 280l121 121l280 -280l281 280l121 -121l-281 -280l281 -281l-121 -121l-281 281l-280 -281l-121 121z" />
    <glyph glyph-name="Oslash" unicode="&#xd8;" horiz-adv-x="1646" 
d="M145 35l129 153.001c-136.667 134 -204.667 310.333 -204 529c0 217.333 69.667 394.666 209 531.999c138.667 136.667 320 205 544 205c159.333 0 299.333 -36 420 -108l135 161l129 -106l-133 -158c136.667 -136.667 205 -312 205 -526c0 -218.667 -70 -396 -210 -532
c-139.333 -136.667 -321.333 -205 -546 -205c-155.333 0 -294.333 35.333 -417 106l-134 -158zM469 422.001l593.999 707.999c-67.333 48 -147.333 72 -240 72c-125.333 0 -229.666 -45.667 -312.999 -137s-125 -207.333 -125 -348c0 -111.333 28 -209.666 84 -294.999z
M1180 1012l-594 -708.999c68 -48 147 -72 237 -72c130 0 235.667 46 317 138c81.333 91.333 122 207.333 122 348c0 115.333 -27.333 213.666 -82 294.999z" />
    <glyph glyph-name="Ugrave" unicode="&#xd9;" horiz-adv-x="1513" 
d="M111 612l0.000976562 822h295v-822c0 -117.333 32 -210 96 -278c64 -68.667 148.667 -103 254 -103s190.333 34.333 255 103c64.667 67.333 97 160 97 278v822h295v-822c0 -192.667 -59.667 -346 -179 -460c-119.333 -114.667 -275.333 -172 -468 -172
s-348.334 57.333 -467.001 172c-118.667 114 -178 267.333 -178 460zM938.001 1597l-102 -100l-361 236l164 163z" />
    <glyph glyph-name="Uacute" unicode="&#xda;" horiz-adv-x="1513" 
d="M1224 152c-119.333 -114.667 -275.332 -172 -467.999 -172s-348.334 57.333 -467.001 172s-178 268 -178 460v822h295v-822c0 -117.333 32 -210 96 -278c64 -68.667 148.667 -103 254 -103s190.333 34.333 255 103c64.667 67.333 97 160 97 278v822h295v-822
c0 -192.667 -59.667 -346 -179 -460zM1036 1733l-360 -236l-101 100l297 299z" />
    <glyph glyph-name="Ucircumflex" unicode="&#xdb;" horiz-adv-x="1513" 
d="M111 612l0.000976562 822h295v-822c0 -117.333 32 -210 96 -278c64 -68.667 148.667 -103 254 -103s190.333 34.333 255 103c64.667 67.333 97 160 97 278v822h295v-822c0 -192.667 -59.667 -346 -179 -460c-119.333 -114.667 -275.333 -172 -468 -172
s-348.334 57.333 -467.001 172s-178 268 -178 460zM756.001 1657l-215 -156l-131 133l346 242l348 -242l-133 -133z" />
    <glyph glyph-name="Udieresis" unicode="&#xdc;" horiz-adv-x="1513" 
d="M111 612l0.000976562 822h295v-822c0 -117.333 32 -210 96 -278c64 -68.667 148.667 -103 254 -103s190.333 34.333 255 103c64.667 67.333 97 160 97 278v822h295v-822c0 -192.667 -59.667 -346 -179 -460c-119.333 -114.667 -275.333 -172 -468 -172
s-348.334 57.333 -467.001 172s-178 268 -178 460zM1108 1784v-230h-262v230h262zM406.001 1554v230h262v-230h-262z" />
    <glyph glyph-name="Yacute" unicode="&#xdd;" horiz-adv-x="1452" 
d="M578 0v530l-549 904h323l373 -631l375 631h321l-549 -904v-530h-294zM647 1497l-100 100l297 299l164 -163z" />
    <glyph glyph-name="Thorn" unicode="&#xde;" horiz-adv-x="1286" 
d="M416 268v-268h-295v1434h295v-265h352c136 0 246.667 -41 332 -123c84.667 -82.667 127 -191 127 -325c0 -132 -42.667 -240.667 -128 -326c-84.667 -84.667 -195 -127 -331 -127h-352zM737 928l-321 0.000976562v-418h321c56.667 0 103.667 20 141 60
c36 38.667 54 89.667 54 153c0 59.333 -18 108.666 -54 147.999c-37.333 38 -84.333 57 -141 57z" />
    <glyph glyph-name="germandbls" unicode="&#xdf;" horiz-adv-x="1345" 
d="M1276 342c0 -107.333 -39.3281 -194.334 -117.995 -261.001c-79.333 -67.333 -179.333 -101 -300 -101c-144.667 0 -268.334 51 -371.001 153l140 156c54.667 -54.667 128.334 -82 221.001 -82c48.667 0 88.5 8.5 119.5 25.5s46.5 39.167 46.5 66.5
c0 22 -13.333 41.833 -40 59.5s-73.334 39.5 -140.001 65.5c-8.66699 3.33301 -15 5.33301 -19 6c-36 12.667 -66.333 25.667 -91 39c-24 12 -51.667 30.667 -83 56c-64 52 -96 131.667 -96 239c0 52 9.66699 100 29 144c19.333 43.333 39.666 75 60.999 95
c60 57.333 90 104 90 140c0 36.667 -16 67.667 -48 93c-32.667 25.333 -71.334 38 -116.001 38c-52.667 0 -95.334 -17.333 -128.001 -52c-33.333 -35.333 -50 -80.333 -50 -135v-1087h-272v1073c0 130.667 40.333 235.334 121 314.001c79.333 78.667 186.333 118 321 118
c126 0 230.667 -34.333 314 -103c84 -69.333 126 -152.333 126 -249c0 -40.667 -8.83301 -79.334 -26.5 -116.001s-39.167 -66 -64.5 -88c-60.667 -55.333 -91 -104.666 -91 -147.999c0 -30.667 13.667 -57 41 -79s72.333 -45.667 135 -71
c49.333 -18.667 84 -32.667 104 -42c21.333 -10 49.666 -27.333 84.999 -52c66.667 -46 100 -117.667 100 -215z" />
    <glyph glyph-name="agrave" unicode="&#xe0;" horiz-adv-x="1122" 
d="M434 -20c-104 0 -188.999 28.002 -254.999 84.002c-66 55.333 -99 127.666 -99 216.999c0 105.333 47.667 191 143 257s217.666 99 366.999 99c56.667 0 110 -4.66699 160 -14v55c0 39.333 -19.667 71.666 -59 96.999c-40.667 25.333 -92 38 -154 38
c-108.667 0 -206.334 -30.667 -293.001 -92l-129 160c48 49.333 112.667 89 194 119c82 29.333 167.333 44 256 44c134 0 243.667 -33 329 -99s128 -151 128 -255v-690h-272v96c-85.333 -77.333 -190.666 -116 -315.999 -116zM367.001 311.002
c0 -32.667 15.333 -59.332 46 -79.999c31.333 -21.333 69 -32 113 -32c65.333 0 119 22 161 66c42 43.333 63 100.333 63 171c-40 11.333 -86 17.666 -138 18.999c-72.667 0 -131.667 -13.667 -177 -41c-45.333 -28 -68 -62.333 -68 -103zM633.001 1147l-363 235l164 164
l299 -299z" />
    <glyph glyph-name="aacute" unicode="&#xe1;" horiz-adv-x="1122" 
d="M434 -20c-104 0 -188.999 28.002 -254.999 84.002c-66 55.333 -99 127.666 -99 216.999c0 105.333 47.667 191 143 257s217.666 99 366.999 99c56.667 0 110 -4.66699 160 -14v55c0 39.333 -19.667 71.666 -59 96.999c-40.667 25.333 -92 38 -154 38
c-108.667 0 -206.334 -30.667 -293.001 -92l-129 160c48 49.333 112.667 89 194 119c82 29.333 167.333 44 256 44c134 0 243.667 -33 329 -99s128 -151 128 -255v-690h-272v96c-85.333 -77.333 -190.666 -116 -315.999 -116zM367.001 311.002
c0 -32.667 15.333 -59.332 46 -79.999c31.333 -21.333 69 -32 113 -32c65.333 0 119 22 161 66c42 43.333 63 100.333 63 171c-40 11.333 -86 17.666 -138 18.999c-72.667 0 -131.667 -13.667 -177 -41c-45.333 -28 -68 -62.333 -68 -103zM831.001 1382l-360 -235l-100 100
l297 299z" />
    <glyph glyph-name="acircumflex" unicode="&#xe2;" horiz-adv-x="1122" 
d="M80 281c0 105.333 47.668 191.001 143.001 257.001s217.666 99 366.999 99c56.667 0 110 -4.66699 160 -14v55c0 39.333 -19.667 71.666 -59 96.999c-40.667 25.333 -92 38 -154 38c-108.667 0 -206.334 -30.667 -293.001 -92l-129 160c48 49.333 112.667 89 194 119
c82 29.333 167.333 44 256 44c134 0 243.667 -33 329 -99s128 -151 128 -255v-690h-272v96c-85.333 -78 -190.666 -116.667 -315.999 -116c-104 0 -189 28 -255 84s-99 128.333 -99 217zM336.001 1151l-131 133l346 242l348 -242l-133 -133l-215 158zM612.001 455.001
c-72.667 0 -131.667 -13.667 -177 -41s-68 -61.666 -68 -102.999c0 -32.667 15.333 -59.334 46 -80.001c31.333 -21.333 69 -32 113 -32c65.333 0 119 22 161 66c42 43.333 63 100.333 63 171c-40 12.667 -86 19 -138 19z" />
    <glyph glyph-name="atilde" unicode="&#xe3;" horiz-adv-x="1122" 
d="M80 281c0 105.333 47.668 191.001 143.001 257.001s217.666 99 366.999 99c56.667 0 110 -4.66699 160 -14v55c0 39.333 -19.667 71.666 -59 96.999c-40.667 25.333 -92 38 -154 38c-108.667 0 -206.334 -30.667 -293.001 -92l-129 160c48 49.333 112.667 89 194 119
c82 29.333 167.333 44 256 44c134 0 243.667 -33 329 -99s128 -151 128 -255v-690h-272v96c-85.333 -78 -190.666 -116.667 -315.999 -116c-104 0 -189 28 -255 84s-99 128.333 -99 217zM375.001 1196h-191c0 76.667 24.667 139.667 74 189
c48.667 48.667 112.334 73 191.001 73c51.333 0 97.333 -13.667 138 -41s67.667 -41 81 -41c18 0 32.333 6.83301 43 20.5s16 30.834 16 51.501h191c0 -78 -24.333 -141 -73 -189c-48.667 -48.667 -111.334 -73 -188.001 -73c-50 0 -95.333 13.667 -136 41
s-68.334 41 -83.001 41c-19.333 0 -34.666 -6.83301 -45.999 -20.5s-17 -30.834 -17 -51.501zM612.001 455.001c-72.667 0 -131.667 -13.667 -177 -41s-68 -61.666 -68 -102.999c0 -32.667 15.333 -59.334 46 -80.001c31.333 -21.333 69 -32 113 -32c65.333 0 119 22 161 66
c42 43.333 63 100.333 63 171c-40 12.667 -86 19 -138 19z" />
    <glyph glyph-name="adieresis" unicode="&#xe4;" horiz-adv-x="1122" 
d="M434 -20c-104 0 -188.999 28.002 -254.999 84.002c-66 55.333 -99 127.666 -99 216.999c0 105.333 47.667 191 143 257s217.666 99 366.999 99c56.667 0 110 -4.66699 160 -14v55c0 39.333 -19.667 71.666 -59 96.999c-40.667 25.333 -92 38 -154 38
c-108.667 0 -206.334 -30.667 -293.001 -92l-129 160c48 49.333 112.667 89 194 119c82 29.333 167.333 44 256 44c134 0 243.667 -33 329 -99s128 -151 128 -255v-690h-272v96c-85.333 -77.333 -190.666 -116 -315.999 -116zM367.001 311.002
c0 -32.667 15.333 -59.332 46 -79.999c31.333 -21.333 69 -32 113 -32c65.333 0 119 22 161 66c42 43.333 63 100.333 63 171c-40 11.333 -86 17.666 -138 18.999c-72.667 0 -131.667 -13.667 -177 -41c-45.333 -28 -68 -62.333 -68 -103zM641.001 1206v228h262v-228h-262z
M463.001 1434v-228h-262v228h262z" />
    <glyph glyph-name="aring" unicode="&#xe5;" horiz-adv-x="1122" 
d="M80 281c0 105.333 47.668 191.001 143.001 257.001s217.666 99 366.999 99c56.667 0 110 -4.66699 160 -14v55c0 39.333 -19.667 71.666 -59 96.999c-40.667 25.333 -92 38 -154 38c-108.667 0 -206.334 -30.667 -293.001 -92l-129 160c48 49.333 112.667 89 194 119
c82 29.333 167.333 44 256 44c134 0 243.667 -33 329 -99s128 -151 128 -255v-690h-272v96c-85.333 -78 -190.666 -116.667 -315.999 -116c-104 0 -189 28 -255 84s-99 128.333 -99 217zM551.001 1159c-56.667 0 -102.333 18 -137 54c-36 35.333 -54 81.666 -54 138.999
c0 56 18 102 54 138c35.333 36 81 54 137 54c57.333 0 104 -18 140 -54s54 -82 54 -138c0 -57.333 -18 -103.666 -54 -138.999c-36 -36 -82.667 -54 -140 -54zM367.002 311.001c0 -32.667 15.333 -59.332 46 -79.999c31.333 -21.333 69 -32 113 -32c65.333 0 119 22 161 66
c42 43.333 63 100.333 63 171c-40 11.333 -86 17.666 -138 18.999c-72.667 0 -131.667 -13.667 -177 -41c-45.333 -28 -68 -62.333 -68 -103zM596.002 1398c-12 11.333 -26.998 17 -44.998 17s-33 -5.66699 -45 -17c-12.667 -12 -19 -27.5 -19 -46.5s6 -34.167 18 -45.5
c11.333 -12 26.666 -18 45.999 -18s34.666 6 45.999 18c11.333 11.333 17 26.5 17 45.5s-6 34.5 -18 46.5z" />
    <glyph glyph-name="ae" unicode="&#xe6;" horiz-adv-x="1835" 
d="M80 281c0 105.333 47.6699 191.002 143.003 257.002s217.666 99 366.999 99c56.667 0 110 -4.66699 160 -14v55c0 39.333 -19.667 71.666 -59 96.999c-40.667 25.333 -92 38 -154 38c-108.667 0 -206.334 -30.667 -293.001 -92l-129 160
c48.667 49.333 113.667 89 195 119c82 29.333 167.667 44 257 44c150 0 264 -40.667 342 -122c90.667 82 204.667 122.667 342 122c155.333 0 281.666 -49.667 378.999 -149c97.333 -100.667 146 -229.667 146 -387c0 -30.667 -2.33301 -61.334 -7 -92.001h-747
c9.33301 -60 44.333 -109 105 -147c59.333 -38.667 131.333 -58 216 -58c102.667 0 181.334 23.333 236.001 70l147 -148c-102.667 -102.667 -241 -153.667 -415 -153c-188.667 0 -333.334 60 -434.001 180c-103.333 -120 -251 -180 -443 -180c-104 0 -189 28 -255 84
s-99 128.333 -99 217zM612.003 455.002c-72 0 -130.667 -13.667 -176 -41c-44.667 -26.667 -67 -61 -67 -103c0 -32 15 -58.667 45 -80s67.333 -32 112 -32c65.333 0 119 22 161 66c42 43.333 63 100.333 63 171c-38 12.667 -84 19 -138 19zM1026 616.002l465 0.000976562
c0 60 -20 108.667 -60 146c-40.667 36.667 -93 55 -157 55c-66 0 -121.667 -18.333 -167 -55c-46 -36.667 -73 -85.334 -81 -146.001z" />
    <glyph glyph-name="ccedilla" unicode="&#xe7;" horiz-adv-x="1052" 
d="M524 -201l17 185c-144 18 -260.333 74.667 -349 170c-88.667 94.667 -133 214 -133 358c0 157.333 52.333 285.333 157 384s241 148 409 148c162 0 292.333 -48.333 391 -145l-158 -158c-52 48 -123 72 -213 72c-84.667 0 -154.334 -28.333 -209.001 -85
s-82 -128.667 -82 -216s27.333 -159.333 82 -216s124.334 -85 209.001 -85c87.333 0 158.333 24 213 72l158 -158c-82 -84 -193.333 -131.667 -334 -143l-6 -82c40 -8 72.333 -28.333 97 -61c25.333 -32.667 38 -69.667 38 -111c0 -48 -18.667 -87 -56 -117
c-38 -30 -85.667 -45 -143 -45c-96 0 -168.333 29.333 -217 88l88 94c30.667 -28.667 63.667 -43 99 -43c18 0 33.333 4.16699 46 12.5s19 18.5 19 30.5c0 34 -41 51 -123 51z" />
    <glyph glyph-name="egrave" unicode="&#xe8;" horiz-adv-x="1163" 
d="M1098 416l-747.998 0.000976562c9.33301 -60 44.333 -109 105 -147c59.333 -38.667 131.666 -58 216.999 -58c103.333 0 181.666 23.333 234.999 70l148 -148c-102.667 -102.667 -241.334 -153.667 -416.001 -153c-172 0 -311.667 50.667 -419 152s-161 232 -161 392
c0 152.667 48.667 277.667 146 375c96.667 96.667 222.334 145 377.001 145c154 0 279.667 -49.667 377 -149c96.667 -99.333 145 -228.333 145 -387c0 -28.667 -2 -59.334 -6 -92.001zM354.002 616.001l465 0.000976562c1.33301 59.333 -18.334 107.666 -59.001 144.999
c-41.333 37.333 -94 56 -158 56c-63.333 0 -118.666 -18.667 -165.999 -56c-46.667 -38 -74 -86.333 -82 -145zM662.002 1147l-363 235l164 164l299 -299z" />
    <glyph glyph-name="eacute" unicode="&#xe9;" horiz-adv-x="1163" 
d="M1098 416l-747.998 0.000976562c9.33301 -60 44.333 -109 105 -147c59.333 -38.667 131.666 -58 216.999 -58c103.333 0 181.666 23.333 234.999 70l148 -148c-102.667 -102.667 -241.334 -153.667 -416.001 -153c-172 0 -311.667 50.667 -419 152s-161 232 -161 392
c0 152.667 48.667 277.667 146 375c96.667 96.667 222.334 145 377.001 145c154 0 279.667 -49.667 377 -149c96.667 -99.333 145 -228.333 145 -387c0 -28.667 -2 -59.334 -6 -92.001zM354.002 616.001l465 0.000976562c1.33301 59.333 -18.334 107.666 -59.001 144.999
c-41.333 37.333 -94 56 -158 56c-63.333 0 -118.666 -18.667 -165.999 -56c-46.667 -38 -74 -86.333 -82 -145zM399.002 1247l297 299l164 -164l-360 -235z" />
    <glyph glyph-name="ecircumflex" unicode="&#xea;" horiz-adv-x="1163" 
d="M1098 416l-747.998 0.000976562c9.33301 -60 44.333 -109 105 -147c59.333 -38.667 131.666 -58 216.999 -58c103.333 0 181.666 23.333 234.999 70l148 -148c-102.667 -102.667 -241.334 -153.667 -416.001 -153c-172 0 -311.667 50.667 -419 152s-161 232 -161 392
c0 152.667 48.667 277.667 146 375c96.667 96.667 222.334 145 377.001 145c154 0 279.667 -49.667 377 -149c96.667 -99.333 145 -228.333 145 -387c0 -28.667 -2 -59.334 -6 -92.001zM354.002 616.001l465 0.000976562c1.33301 59.333 -18.334 107.666 -59.001 144.999
c-41.333 37.333 -94 56 -158 56c-63.333 0 -118.666 -18.667 -165.999 -56c-46.667 -38 -74 -86.333 -82 -145zM367.002 1151l-134 133l349 242l346 -242l-131 -133l-215 158z" />
    <glyph glyph-name="edieresis" unicode="&#xeb;" horiz-adv-x="1163" 
d="M639 -20c-172 0 -311.666 50.668 -418.999 152.001s-161 232 -161 392c0 152.667 48.667 277.667 146 375c96.667 96.667 222.334 145 377.001 145c154 0 279.667 -49.667 377 -149c96.667 -99.333 145 -228.333 145 -387c0 -28.667 -2 -59.334 -6 -92.001h-748
c9.33301 -60 44.333 -109 105 -147c59.333 -38.667 131.666 -58 216.999 -58c103.333 0 181.666 23.333 234.999 70l148 -148c-103.333 -102 -242 -153 -416 -153zM354.001 616.001l465 0.000976562c1.33301 59.333 -18.334 107.666 -59.001 144.999
c-41.333 37.333 -94 56 -158 56c-63.333 0 -118.666 -18.667 -165.999 -56c-46.667 -38 -74 -86.333 -82 -145zM670.001 1206v228h262v-228h-262zM492.001 1434v-228h-263v228h263z" />
    <glyph glyph-name="igrave" unicode="&#xec;" horiz-adv-x="493" 
d="M383 1024v-1024h-272v1024h272zM326 1147l-363 235l166 164l299 -299z" />
    <glyph glyph-name="iacute" unicode="&#xed;" horiz-adv-x="493" 
d="M383 1024v-1024h-272v1024h272zM66 1247l296 299l164 -164l-360 -235z" />
    <glyph glyph-name="icircumflex" unicode="&#xee;" horiz-adv-x="493" 
d="M383 1024v-1024h-272v1024h272zM31 1151l-131 133l346 242l348 -242l-133 -133l-215 158z" />
    <glyph glyph-name="idieresis" unicode="&#xef;" horiz-adv-x="491" 
d="M109 0v1024h274v-1024h-274zM578 1206h-265v228h265v-228zM-86 1206v228h264v-228h-264z" />
    <glyph glyph-name="eth" unicode="&#xf0;" horiz-adv-x="1230" 
d="M59 524c0 153.333 45.334 278.333 136.001 375c90 96.667 207.333 145 352 145c82 0 157.667 -16 227 -48c68 -31.333 118.667 -75.333 152 -132c-1.33301 165.333 -76 278.666 -224 339.999l-96 -133l-137 94l61 86c-80.667 15.333 -182.334 23 -305.001 23l21 231
c180 0 324.667 -15 434 -45l90 125l137 -94l-65 -92c212.667 -114.667 319 -344 319 -688c0 -249.333 -49.667 -433.666 -149 -552.999c-100 -118.667 -234 -178 -402 -178c-164 0 -296.667 49.667 -398 149c-102 99.333 -153 231 -153 395zM602.001 813
c-72.667 0 -132 -28.002 -178 -84.002c-46.667 -55.333 -70 -127.666 -70 -216.999s23.333 -161.666 70 -216.999c46.667 -56 106 -84 178 -84c70.667 0 129 28.333 175 85c46 57.333 69 129.333 69 216c0 88.667 -23 161 -69 217s-104.333 84 -175 84z" />
    <glyph glyph-name="ntilde" unicode="&#xf1;" horiz-adv-x="1206" 
d="M383 557v-557h-272v1024h272v-104c83.333 83.333 189 124.666 317 123.999c120.667 0 218.334 -37.333 293.001 -112c75.333 -75.333 113 -173.666 113 -294.999v-637h-272v584c0 69.333 -20 126 -60 170c-41.333 43.333 -94 65 -158 65
c-68.667 0 -124.334 -24.333 -167.001 -73c-44 -49.333 -66 -112.333 -66 -189zM459 1194l-192.999 -0.000976562c0 78 24.667 141.667 74 191c48.667 48.667 112 73 190 73c52 0 98.667 -13.667 140 -41s68.666 -41 81.999 -41c38 0 57 24 57 72h192
c0 -77.333 -24 -140.666 -72 -189.999c-49.333 -49.333 -112 -74 -188 -74c-50 0 -95.667 14 -137 42s-69.333 42 -84 42c-40.667 0 -61 -24.667 -61 -74z" />
    <glyph glyph-name="ograve" unicode="&#xf2;" horiz-adv-x="1239" 
d="M216 128c-104.667 98.667 -157 226.667 -157 384s52.333 285.333 157 384s239.667 148 405 148c164.667 0 299.334 -49.333 404.001 -148s157 -226.667 157 -384s-52.333 -285.333 -157 -384s-239.334 -148 -404.001 -148c-165.333 0 -300.333 49.333 -405 148zM354 512
c0 -86.667 25 -158.667 75 -216c50 -56.667 114 -85 192 -85c77.333 0 141 28.333 191 85c50 57.333 75 129.333 75 216c0 88.667 -25 161 -75 217s-113.667 84 -191 84c-78 0 -142 -28 -192 -84s-75 -128.333 -75 -217zM700 1147l-362 235l164 164l299 -299z" />
    <glyph glyph-name="oacute" unicode="&#xf3;" horiz-adv-x="1239" 
d="M216 128c-104.667 98.667 -157 226.667 -157 384s52.333 285.333 157 384s239.667 148 405 148c164.667 0 299.334 -49.333 404.001 -148s157 -226.667 157 -384s-52.333 -285.333 -157 -384s-239.334 -148 -404.001 -148c-165.333 0 -300.333 49.333 -405 148zM354 512
c0 -86.667 25 -158.667 75 -216c50 -56.667 114 -85 192 -85c77.333 0 141 28.333 191 85c50 57.333 75 129.333 75 216c0 88.667 -25 161 -75 217s-113.667 84 -191 84c-78 0 -142 -28 -192 -84s-75 -128.333 -75 -217zM440 1247l295 299l166 -164l-360 -235z" />
    <glyph glyph-name="ocircumflex" unicode="&#xf4;" horiz-adv-x="1239" 
d="M216 128c-104.667 98.667 -157 226.667 -157 384s52.333 285.333 157 384s239.667 148 405 148c164.667 0 299.334 -49.333 404.001 -148s157 -226.667 157 -384s-52.333 -285.333 -157 -384s-239.334 -148 -404.001 -148c-165.333 0 -300.333 49.333 -405 148zM354 512
c0 -86.667 25 -158.667 75 -216c50 -56.667 114 -85 192 -85c77.333 0 141 28.333 191 85c50 57.333 75 129.333 75 216c0 88.667 -25 161 -75 217s-113.667 84 -191 84c-78 0 -142 -28 -192 -84s-75 -128.333 -75 -217zM406 1151l-134 133l349 242l346 -242l-131 -133
l-215 158z" />
    <glyph glyph-name="otilde" unicode="&#xf5;" horiz-adv-x="1239" 
d="M216 128c-104.667 98.667 -157 226.667 -157 384s52.333 285.333 157 384s239.667 148 405 148c164.667 0 299.334 -49.333 404.001 -148s157 -226.667 157 -384s-52.333 -285.333 -157 -384s-239.334 -148 -404.001 -148c-165.333 0 -300.333 49.333 -405 148zM354 512
c0 -86.667 25 -158.667 75 -216c50 -56.667 114 -85 192 -85c77.333 0 141 28.333 191 85c50 57.333 75 129.333 75 216c0 88.667 -25 161 -75 217s-113.667 84 -191 84c-78 0 -142 -28 -192 -84s-75 -128.333 -75 -217zM506 1268c-40 0 -60.666 -24.666 -61.999 -73.999
h-192c0 78 24.667 141.667 74 191c48.667 48.667 112 73 190 73c27.333 0.666992 53.666 -3.33301 78.999 -12s45.5 -18.334 60.5 -29.001s30 -20.334 45 -29.001s27.167 -12.667 36.5 -12c18 0 32.167 6.5 42.5 19.5s15.5 30.5 15.5 52.5h190
c0 -77.333 -23.667 -140.666 -71 -189.999c-48 -49.333 -110.333 -74 -187 -74c-50 0 -95.667 14 -137 42s-69.333 42 -84 42z" />
    <glyph glyph-name="odieresis" unicode="&#xf6;" horiz-adv-x="1239" 
d="M1025 128c-104.667 -98.667 -239.334 -148 -404.001 -148c-165.333 0 -300.333 49.333 -405 148s-157 226.667 -157 384s52.333 285.333 157 384s239.667 148 405 148c164.667 0 299.334 -49.333 404.001 -148s157 -226.667 157 -384s-52.333 -285.333 -157 -384z
M354 512c0 -86.667 25 -158.667 75 -216c50 -56.667 114 -85 192 -85c77.333 0 141 28.333 191 85c50 57.333 75 129.333 75 216c0 88.667 -25 161 -75 217s-113.667 84 -191 84c-78 0 -142 -28 -192 -84s-75 -128.333 -75 -217zM532 1434v-228h-264v228h264zM971 1434v-228
h-262v228h262z" />
    <glyph glyph-name="divide" unicode="&#xf7;" 
d="M1057 633h-883v168h883v-168zM739 496v-252h-250v252h250zM739 1190v-252h-250v252h250z" />
    <glyph glyph-name="oslash" unicode="&#xf8;" horiz-adv-x="1239" 
d="M127 53l74 88c-93.333 97.333 -140.666 221 -141.999 371c0 157.333 52.333 285.333 157 384s239.667 148 405 148c104 0 198 -21 282 -63l84 100l129 -106l-78 -92c94.667 -100 142.667 -223.667 144 -371c0 -157.333 -52.333 -285.333 -157 -384
s-239.334 -148 -404.001 -148c-104.667 0 -199.667 21 -285 63l-82 -98zM862 672l-368 -441.001c36.667 -20.667 79 -30.667 127 -30c80.667 0 147 29 199 87c51.333 58.667 77 133.334 77 224.001c0 58.667 -11.667 112 -35 160zM379 353.999l365.999 441.001
c-39.333 19.333 -80.666 28.666 -123.999 27.999c-80.667 0 -147 -29 -199 -87s-78 -132.667 -78 -224c0 -57.333 11.667 -110 35 -158z" />
    <glyph glyph-name="ugrave" unicode="&#xf9;" horiz-adv-x="1210" 
d="M111 387v636.997h272v-584c0 -69.333 20 -125.666 60 -168.999c39.333 -44 91 -66 155 -66c66.667 0 121.667 24.667 165 74c42.667 48.667 64 111.334 64 188.001v557h273v-1024h-273v104c-86.667 -83.333 -191.667 -124.666 -315 -123.999
c-120 0 -216.667 37.667 -290 113c-74 75.333 -111 173.333 -111 294zM786 1247l-100 -100l-362 235l163 164z" />
    <glyph glyph-name="uacute" unicode="&#xfa;" horiz-adv-x="1210" 
d="M111 387v636.997h272v-584c0 -69.333 20 -125.666 60 -168.999c39.333 -44 91 -66 155 -66c66.667 0 121.667 24.667 165 74c42.667 48.667 64 111.334 64 188.001v557h273v-1024h-273v104c-86.667 -83.333 -191.667 -124.666 -315 -123.999
c-120 0 -216.667 37.667 -290 113c-74 75.333 -111 173.333 -111 294zM885 1382l-361 -235l-100 100l297 299z" />
    <glyph glyph-name="ucircumflex" unicode="&#xfb;" horiz-adv-x="1210" 
d="M111 387v636.997h272v-584c0 -69.333 20 -125.666 60 -168.999c39.333 -44 91 -66 155 -66c66.667 0 121.667 24.667 165 74c42.667 48.667 64 111.334 64 188.001v557h273v-1024h-273v104c-86.667 -83.333 -191.667 -124.666 -315 -123.999
c-120 0 -216.667 37.667 -290 113c-74 75.333 -111 173.333 -111 294zM604 1309l-215 -158l-131 133l346 242l348 -242l-133 -133z" />
    <glyph glyph-name="udieresis" unicode="&#xfc;" horiz-adv-x="1210" 
d="M111 387v636.997h272v-584c0 -69.333 20 -125.666 60 -168.999c39.333 -44 91 -66 155 -66c66.667 0 121.667 24.667 165 74c42.667 48.667 64 111.334 64 188.001v557h273v-1024h-273v104c-86.667 -83.333 -191.667 -124.666 -315 -123.999
c-120 0 -216.667 37.667 -290 113c-74 75.333 -111 173.333 -111 294zM694 1206v228h262v-228h-262zM516 1434v-228h-262v228h262z" />
    <glyph glyph-name="yacute" unicode="&#xfd;" horiz-adv-x="1159" 
d="M422 -92l43 92l-447 1024h281l291 -717l270 717h281l-490 -1204c-84.667 -200.667 -211.667 -301 -381 -301c-94 0 -178 32 -252 96l136 166c27.333 -19.333 57.333 -29 90 -29c76 0 135.333 52 178 156zM860 1382l-360 -235l-101 100l297 299z" />
    <glyph glyph-name="thorn" unicode="&#xfe;" horiz-adv-x="1212" 
d="M383 -461h-271.999v1946h272v-565c30.667 36.667 77.334 66.667 140.001 90c61.333 22.667 125.333 34 192 34c131.333 0 237.666 -46.667 318.999 -140c80.667 -92.667 121 -213.667 121 -363c0 -166 -51.333 -300.667 -154 -404
c-102.667 -104.667 -236.334 -157 -401.001 -157c-88 0 -160.333 12 -217 36v-477zM383.001 571l0.000976562 -324.999c55.333 -24.667 115.333 -37 180 -37c87.333 0 158.666 29.667 213.999 89s83 136 83 230c0 85.333 -22.667 155.666 -68 210.999
c-46 54.667 -106 82 -180 82c-68 0 -123 -23 -165 -69c-42.667 -46.667 -64 -107 -64 -181z" />
    <glyph glyph-name="ydieresis" unicode="&#xff;" horiz-adv-x="1159" 
d="M465 0l-447 1024h281l291 -717l270 717h281l-490 -1204c-84.667 -200.667 -211.667 -301 -381 -301c-94 0 -178 32 -252 96l136 166c27.333 -19.333 57.333 -29 90 -29c76 0 135.333 52 178 156zM932 1206h-264v228h264v-228zM492 1434v-228h-265v228h265z" />
    <glyph glyph-name="Amacron" unicode="&#x100;" horiz-adv-x="1615" 
d="M338 0h-309l628 1434h301l629 -1434h-309l-125 293h-690zM1049 535l-240 563l-242 -563h482zM1096 1552h-576v168h576v-168z" />
    <glyph glyph-name="amacron" unicode="&#x101;" horiz-adv-x="1122" 
d="M434 -20c-104 0 -188.999 28.002 -254.999 84.002c-66 55.333 -99 127.666 -99 216.999c0 105.333 47.667 191 143 257s217.666 99 366.999 99c56.667 0 110 -4.66699 160 -14v55c0 39.333 -19.667 71.666 -59 96.999c-40.667 25.333 -92 38 -154 38
c-108.667 0 -206.334 -30.667 -293.001 -92l-129 160c48 49.333 112.667 89 194 119c82 29.333 167.333 44 256 44c134 0 243.667 -33 329 -99s128 -151 128 -255v-690h-272v96c-85.333 -77.333 -190.666 -116 -315.999 -116zM264.001 1204v168h576v-168h-576z
M367.001 311.002c0 -32.667 15.333 -59.332 46 -79.999c31.333 -21.333 69 -32 113 -32c65.333 0 119 22 161 66c42 43.333 63 100.333 63 171c-40 11.333 -86 17.666 -138 18.999c-72.667 0 -131.667 -13.667 -177 -41c-45.333 -28 -68 -62.333 -68 -103z" />
    <glyph glyph-name="Abreve" unicode="&#x102;" horiz-adv-x="1615" 
d="M338 0h-309l628 1434h301l629 -1434h-309l-125 293h-690zM1049 535l-240 563l-242 -563h482zM455 1716l171.999 109c34.667 -66 95.334 -99.667 182.001 -101c84.667 0 144.667 33.667 180 101l174 -109c-79.333 -121.333 -197.333 -182 -354 -182
c-158 0 -276 60.667 -354 182z" />
    <glyph glyph-name="abreve" unicode="&#x103;" horiz-adv-x="1122" 
d="M80 281c0 105.333 47.668 191.001 143.001 257.001s217.666 99 366.999 99c56.667 0 110 -4.66699 160 -14v55c0 39.333 -19.667 71.666 -59 96.999c-40.667 25.333 -92 38 -154 38c-108.667 0 -206.334 -30.667 -293.001 -92l-129 160c48 49.333 112.667 89 194 119
c82 29.333 167.333 44 256 44c134 0 243.667 -33 329 -99s128 -151 128 -255v-690h-272v96c-85.333 -78 -190.666 -116.667 -315.999 -116c-104 0 -189 28 -255 84s-99 128.333 -99 217zM551.001 1184c-156.667 0 -274.668 60.666 -354.001 181.999l174 111
c34.667 -67.333 94.667 -101.666 180 -102.999c86.667 0 147.334 34.333 182.001 103l174 -111c-79.333 -121.333 -198 -182 -356 -182zM367 311c0 -32.667 15.333 -59.332 46 -79.999c31.333 -21.333 69 -32 113 -32c65.333 0 119 22 161 66c42 43.333 63 100.333 63 171
c-40 11.333 -86 17.666 -138 18.999c-72.667 0 -131.667 -13.667 -177 -41c-45.333 -28 -68 -62.333 -68 -103z" />
    <glyph glyph-name="Aogonek" unicode="&#x104;" horiz-adv-x="1615" 
d="M463 293l-125 -293.001h-309l628 1434h301l629 -1434h-63c-79.333 -79.333 -119 -147.666 -119 -204.999c0 -39.333 18.333 -59 55 -59c21.333 0 43.333 7.33301 66 22l92 -98c-20.667 -26 -49.834 -47.5 -87.501 -64.5s-75.5 -25.5 -113.5 -25.5
c-55.333 0 -100.333 17 -135 51c-35.333 34 -53 79.667 -53 137c0 45.333 11 88 33 128c20.667 40.667 42.334 69.667 65.001 87l33 27h-82l-125 293h-690zM1049 534.999l-240 563l-242 -563h482z" />
    <glyph glyph-name="aogonek" unicode="&#x105;" horiz-adv-x="1122" 
d="M80 281c0 105.333 47.665 191.002 142.998 257.002s217.666 99 366.999 99c56.667 0 110 -4.66699 160 -14v55c0 39.333 -19.667 71.666 -59 96.999c-40.667 25.333 -92 38 -154 38c-108.667 0 -206.334 -30.667 -293.001 -92l-129 160c48 49.333 112.667 89 194 119
c82 29.333 167.333 44 256 44c134 0 243.667 -33 329 -99s128 -151 128 -255v-690h-45c-80.667 -78.667 -121 -147 -121 -205c0 -39.333 19 -59 57 -59c21.333 0 43.333 7.33301 66 22l92 -98c-21.333 -26.667 -50.666 -48.334 -87.999 -65.001s-75.666 -25 -114.999 -25
c-55.333 0 -100.166 17.167 -134.499 51.5s-51.5 79.833 -51.5 136.5c0 45.333 11 88 33 128c22 40.667 43.667 69.667 65 87l33 27h-63v96c-85.333 -78 -190.666 -116.667 -315.999 -116c-104 0 -189 28 -255 84s-99 128.333 -99 217zM611.998 455.002
c-72.667 0 -131.667 -13.667 -177 -41s-68 -61.666 -68 -102.999c0 -32.667 15.333 -59.334 46 -80.001c31.333 -21.333 69 -32 113 -32c65.333 0 119 22 161 66c42 43.333 63 100.333 63 171c-40 12.667 -86 19 -138 19z" />
    <glyph glyph-name="Cacute" unicode="&#x106;" horiz-adv-x="1394" 
d="M1176 371l172 -181c-136.667 -140.667 -316.334 -210.667 -539.001 -210c-220 0 -398 68.333 -534 205c-136.667 136 -205 312.667 -205 530c0 218.667 68.667 396.667 206 534c136.667 136.667 313.667 205 531 205c218 0 398.333 -70.333 541 -211l-172 -178
c-32.667 40.667 -81 74 -145 100c-64.667 26 -132 39 -202 39c-131.333 0 -238 -45.333 -320 -136c-82.667 -90.667 -124 -207.667 -124 -351c0 -142 41.333 -258.333 124 -349c83.333 -91.333 190 -137 320 -137c70 0 137 13.333 201 40
c64.667 26 113.334 59.333 146.001 100zM596 1597l297 299l164 -163l-361 -236z" />
    <glyph glyph-name="cacute" unicode="&#x107;" horiz-adv-x="1052" 
d="M858 283l158.002 -158c-94.667 -96.667 -224.334 -145 -389.001 -145c-168.667 0 -305.334 49.333 -410.001 148c-105.333 99.333 -158 227.333 -158 384c0 157.333 52.333 285.333 157 384s241 148 409 148c162 0 292.333 -48.333 391 -145l-158 -158
c-52 48 -123 72 -213 72c-84.667 0 -154.334 -28.333 -209.001 -85s-82 -128.667 -82 -216s27.333 -159.333 82 -216s124.334 -85 209.001 -85c87.333 0 158.333 24 213 72zM414.002 1245l297 299l163 -164l-360 -235z" />
    <glyph glyph-name="Ccircumflex" unicode="&#x108;" horiz-adv-x="1394" 
d="M1176 371l172 -181c-136.667 -140.667 -316.334 -210.667 -539.001 -210c-220 0 -398 68.333 -534 205c-136.667 136 -205 312.667 -205 530c0 218.667 68.667 396.667 206 534c136.667 136.667 313.667 205 531 205c218 0 398.333 -70.333 541 -211l-172 -178
c-32.667 40.667 -81 74 -145 100c-64.667 26 -132 39 -202 39c-131.333 0 -238 -45.333 -320 -136c-82.667 -90.667 -124 -207.667 -124 -351c0 -142 41.333 -258.333 124 -349c83.333 -91.333 190 -137 320 -137c70 0 137 13.333 201 40
c64.667 26 113.334 59.333 146.001 100zM561 1501l-131 133l346 242l348 -242l-133 -133l-215 156z" />
    <glyph glyph-name="ccircumflex" unicode="&#x109;" horiz-adv-x="1052" 
d="M858 283l158.002 -158c-94.667 -96.667 -224.334 -145 -389.001 -145c-168.667 0 -305.334 49.333 -410.001 148c-105.333 99.333 -158 227.333 -158 384c0 157.333 52.333 285.333 157 384s241 148 409 148c162 0 292.333 -48.333 391 -145l-158 -158
c-52 48 -123 72 -213 72c-84.667 0 -154.334 -28.333 -209.001 -85s-82 -128.667 -82 -216s27.333 -159.333 82 -216s124.334 -85 209.001 -85c87.333 0 158.333 24 213 72zM379.002 1149l-133 133l348 242l346 -242l-131 -133l-215 158z" />
    <glyph glyph-name="Cdotaccent" unicode="&#x10a;" horiz-adv-x="1394" 
d="M1176 371l172 -181c-136.667 -140.667 -316.334 -210.667 -539.001 -210c-220 0 -398 68.333 -534 205c-136.667 136 -205 312.667 -205 530c0 218.667 68.667 396.667 206 534c136.667 136.667 313.667 205 531 205c218 0 398.333 -70.333 541 -211l-172 -178
c-32.667 40.667 -81 74 -145 100c-64.667 26 -132 39 -202 39c-131.333 0 -238 -45.333 -320 -136c-82.667 -90.667 -124 -207.667 -124 -351c0 -142 41.333 -258.333 124 -349c83.333 -91.333 190 -137 320 -137c70 0 137 13.333 201 40
c64.667 26 113.334 59.333 146.001 100zM913 1556h-274v228h274v-228z" />
    <glyph glyph-name="cdotaccent" unicode="&#x10b;" horiz-adv-x="1052" 
d="M858 283l158.002 -158c-94.667 -96.667 -224.334 -145 -389.001 -145c-168.667 0 -305.334 49.333 -410.001 148c-105.333 99.333 -158 227.333 -158 384c0 157.333 52.333 285.333 157 384s241 148 409 148c162 0 292.333 -48.333 391 -145l-158 -158
c-52 48 -123 72 -213 72c-84.667 0 -154.334 -28.333 -209.001 -85s-82 -128.667 -82 -216s27.333 -159.333 82 -216s124.334 -85 209.001 -85c87.333 0 158.333 24 213 72zM731.002 1204h-274v228h274v-228z" />
    <glyph glyph-name="Ccaron" unicode="&#x10c;" horiz-adv-x="1394" 
d="M1176 371l172 -181c-136.667 -140.667 -316.334 -210.667 -539.001 -210c-220 0 -398 68.333 -534 205c-136.667 136 -205 312.667 -205 530c0 218.667 68.667 396.667 206 534c136.667 136.667 313.667 205 531 205c218 0 398.333 -70.333 541 -211l-172 -178
c-32.667 40.667 -81 74 -145 100c-64.667 26 -132 39 -202 39c-131.333 0 -238 -45.333 -320 -136c-82.667 -90.667 -124 -207.667 -124 -351c0 -142 41.333 -258.333 124 -349c83.333 -91.333 190 -137 320 -137c70 0 137 13.333 201 40
c64.667 26 113.334 59.333 146.001 100zM991 1876l131 -131l-346 -246l-346 244l131 133l215 -156z" />
    <glyph glyph-name="ccaron" unicode="&#x10d;" horiz-adv-x="1052" 
d="M858 283l158.002 -158c-94.667 -96.667 -224.334 -145 -389.001 -145c-168.667 0 -305.334 49.333 -410.001 148c-105.333 99.333 -158 227.333 -158 384c0 157.333 52.333 285.333 157 384s241 148 409 148c162 0 292.333 -48.333 391 -145l-158 -158
c-52 48 -123 72 -213 72c-84.667 0 -154.334 -28.333 -209.001 -85s-82 -128.667 -82 -216s27.333 -159.333 82 -216s124.334 -85 209.001 -85c87.333 0 158.333 24 213 72zM809.002 1524l129 -129l-344 -248l-348 246l133 131l215 -156z" />
    <glyph glyph-name="Dcaron" unicode="&#x10e;" horiz-adv-x="1540" 
d="M721 0h-600v1434h600c220 0 400 -67 540 -201c139.333 -134 209 -306 209 -516c0 -210.667 -69.667 -382.667 -209 -516c-140 -134 -320 -201 -540 -201zM1044 373c82 87.333 123 202 123 344s-41 256.667 -123 344c-83.333 87.333 -191 131 -323 131h-305v-950h305
c132 0 239.667 43.667 323 131zM936 1876l131 -131l-346 -246l-346 244l133 133l213 -156z" />
    <glyph glyph-name="dcaron" unicode="&#x10f;" horiz-adv-x="1546" 
d="M498 -20c-130 0 -235.666 46.668 -316.999 140.001s-122 214.333 -122 363c0 167.333 51.333 302.666 154 405.999c103.333 103.333 235.666 155 396.999 155c90 0 163 -12 219 -36v477h275v-1485h-275v104c-32 -36 -78.667 -65.333 -140 -88
c-62 -24 -125.667 -36 -191 -36zM651.001 815.001c-87.333 0 -158.668 -29.667 -214.001 -89s-83 -135.333 -83 -228c0 -86 23 -156 69 -210s105.667 -81 179 -81c66.667 0 121.334 23.333 164.001 70c42 46 63 105.333 63 178v323c-52 24.667 -111.333 37 -178 37z
M1548 1485l-155 -475h-189l70 475h274z" />
    <glyph glyph-name="Dcroat" unicode="&#x110;" horiz-adv-x="1554" 
d="M135 0v632.998h-137v168h137v633h600c221.333 0 401.666 -66.667 540.999 -200s209 -305.666 209 -516.999s-69.667 -383.666 -209 -516.999s-319.666 -200 -540.999 -200h-600zM729 800.998v-168.002h-299v-391h305c132 0 239.667 43.667 323 131
c82.667 86.667 124 201.334 124 344.001s-41.333 257.334 -124 344.001c-83.333 87.333 -191 131 -323 131h-305v-391h299z" />
    <glyph glyph-name="dslash" unicode="&#x111;" horiz-adv-x="1212" 
d="M498 -20c-130 0 -235.666 46.668 -316.999 140.001s-122 214.333 -122 363c0 167.333 51.333 302.666 154 405.999c103.333 103.333 235.666 155 396.999 155c90 0 163 -12 219 -36v149h-282v168h282v160h275v-160h131v-168h-131v-1157h-275v104
c-32 -36 -78.667 -65.333 -140 -88c-62 -24 -125.667 -36 -191 -36zM651.001 815.001c-87.333 0 -158.668 -29.667 -214.001 -89s-83 -135.333 -83 -228c0 -86 23 -156 69 -210s105.667 -81 179 -81c66.667 0 121.334 23.333 164.001 70c42 46 63 105.333 63 178v323
c-52 24.667 -111.333 37 -178 37z" />
    <glyph glyph-name="Emacron" unicode="&#x112;" horiz-adv-x="1275" 
d="M1198 0h-1077v1434h1057v-242h-762v-344h698v-242h-698v-364h782v-242zM365 1552v168h577v-168h-577z" />
    <glyph glyph-name="emacron" unicode="&#x113;" horiz-adv-x="1163" 
d="M1098 416l-747.998 0.000976562c9.33301 -60 44.333 -109 105 -147c59.333 -38.667 131.666 -58 216.999 -58c103.333 0 181.666 23.333 234.999 70l148 -148c-102.667 -102.667 -241.334 -153.667 -416.001 -153c-172 0 -311.667 50.667 -419 152s-161 232 -161 392
c0 152.667 48.667 277.667 146 375c96.667 96.667 222.334 145 377.001 145c154 0 279.667 -49.667 377 -149c96.667 -99.333 145 -228.333 145 -387c0 -28.667 -2 -59.334 -6 -92.001zM354.002 616.001l465 0.000976562c1.33301 59.333 -18.334 107.666 -59.001 144.999
c-41.333 37.333 -94 56 -158 56c-63.333 0 -118.666 -18.667 -165.999 -56c-46.667 -38 -74 -86.333 -82 -145zM868.002 1372v-168h-575v168h575z" />
    <glyph glyph-name="Ebreve" unicode="&#x114;" horiz-adv-x="1275" 
d="M1198 0h-1077v1434h1057v-242h-762v-344h698v-242h-698v-364h782v-242zM299 1716l172 109.001c38 -66.667 98.667 -100 182 -100c82.667 -0.666992 143.667 32.666 183 99.999l172 -109c-78 -121.333 -196 -182 -354 -182c-158.667 0 -277 60.667 -355 182z" />
    <glyph glyph-name="ebreve" unicode="&#x115;" horiz-adv-x="1163" 
d="M1098 416l-747.998 0.000976562c9.33301 -60 44.333 -109 105 -147c59.333 -38.667 131.666 -58 216.999 -58c103.333 0 181.666 23.333 234.999 70l148 -148c-102.667 -102.667 -241.334 -153.667 -416.001 -153c-172 0 -311.667 50.667 -419 152s-161 232 -161 392
c0 152.667 48.667 277.667 146 375c96.667 96.667 222.334 145 377.001 145c154 0 279.667 -49.667 377 -149c96.667 -99.333 145 -228.333 145 -387c0 -28.667 -2 -59.334 -6 -92.001zM354.002 616.001l465 0.000976562c1.33301 59.333 -18.334 107.666 -59.001 144.999
c-41.333 37.333 -94 56 -158 56c-63.333 0 -118.666 -18.667 -165.999 -56c-46.667 -38 -74 -86.333 -82 -145zM225.002 1366l174 110.999c34.667 -67.333 95.667 -101.666 183 -102.999c85.333 0 145.333 34.333 180 103l174 -111
c-79.333 -121.333 -197.333 -182 -354 -182c-158.667 0 -277.667 60.667 -357 182z" />
    <glyph glyph-name="Edotaccent" unicode="&#x116;" horiz-adv-x="1275" 
d="M1198 0h-1077v1434h1057v-242h-762v-344h698v-242h-698v-364h782v-242zM516 1556v228h275v-228h-275z" />
    <glyph glyph-name="edotaccent" unicode="&#x117;" horiz-adv-x="1163" 
d="M1098 416l-747.998 0.000976562c9.33301 -60 44.333 -109 105 -147c59.333 -38.667 131.666 -58 216.999 -58c103.333 0 181.666 23.333 234.999 70l148 -148c-102.667 -102.667 -241.334 -153.667 -416.001 -153c-172 0 -311.667 50.667 -419 152s-161 232 -161 392
c0 152.667 48.667 277.667 146 375c96.667 96.667 222.334 145 377.001 145c154 0 279.667 -49.667 377 -149c96.667 -99.333 145 -228.333 145 -387c0 -28.667 -2 -59.334 -6 -92.001zM354.002 616.001l465 0.000976562c1.33301 59.333 -18.334 107.666 -59.001 144.999
c-41.333 37.333 -94 56 -158 56c-63.333 0 -118.666 -18.667 -165.999 -56c-46.667 -38 -74 -86.333 -82 -145zM717.002 1206h-273v228h273v-228z" />
    <glyph glyph-name="Eogonek" unicode="&#x118;" horiz-adv-x="1275" 
d="M971 0l-850.001 0.000976562v1434h1057v-242h-762v-344h698v-242h-698v-364h782v-242h-63c-80.667 -78.667 -121 -147 -121 -205c0 -39.333 19 -59 57 -59c21.333 0 43.333 7.33301 66 22l92 -98c-21.333 -26.667 -50.333 -48.334 -87 -65.001
c-37.333 -16.667 -75.333 -25 -114 -25c-54.667 0 -99.667 17 -135 51s-53 79.667 -53 137c0 45.333 11 88 33 128c20.667 40.667 42.334 69.667 65.001 87z" />
    <glyph glyph-name="eogonek" unicode="&#x119;" horiz-adv-x="1163" 
d="M639 -20c-172 0 -311.665 50.668 -418.998 152.001s-161 232 -161 392c0 152.667 48.667 277.667 146 375c96.667 96.667 222.334 145 377.001 145c154 0 279.667 -49.667 377 -149c96.667 -99.333 145 -228.333 145 -387c0 -28.667 -2 -59.334 -6 -92.001h-748
c9.33301 -60 44.333 -109 105 -147c59.333 -38.667 131.666 -58 216.999 -58c103.333 0 181.666 23.333 234.999 70l148 -148c-24.667 -24.667 -54.667 -48 -90 -70h2c-80.667 -78.667 -121 -146.667 -121 -204c0 -39.333 19 -59.333 57 -60c20.667 0 42.667 7.66699 66 23
l92 -98c-20.667 -26 -49.834 -47.667 -87.501 -65s-75.5 -26 -113.5 -26c-54.667 0 -99.667 17 -135 51c-35.333 35.333 -53 81.333 -53 138c0 57.333 18.333 111.333 55 162c-34 -2.66699 -63.333 -4 -88 -4zM354.002 616.001l465 0.000976562
c1.33301 59.333 -18.334 107.666 -59.001 144.999c-41.333 37.333 -94 56 -158 56c-63.333 0 -118.666 -18.667 -165.999 -56c-46.667 -38 -74 -86.333 -82 -145z" />
    <glyph glyph-name="Ecaron" unicode="&#x11a;" horiz-adv-x="1275" 
d="M121 0v1434h1057v-242h-762v-344h698v-242h-698v-364h782v-242h-1077zM999 1745l-346 -246l-348 244l133 133l215 -156l215 156z" />
    <glyph glyph-name="ecaron" unicode="&#x11b;" horiz-adv-x="1163" 
d="M1098 416l-747.998 0.000976562c9.33301 -60 44.333 -109 105 -147c59.333 -38.667 131.666 -58 216.999 -58c103.333 0 181.666 23.333 234.999 70l148 -148c-102.667 -102.667 -241.334 -153.667 -416.001 -153c-172 0 -311.667 50.667 -419 152s-161 232 -161 392
c0 152.667 48.667 277.667 146 375c96.667 96.667 222.334 145 377.001 145c154 0 279.667 -49.667 377 -149c96.667 -99.333 145 -228.333 145 -387c0 -28.667 -2 -59.334 -6 -92.001zM354.002 616.001l465 0.000976562c1.33301 59.333 -18.334 107.666 -59.001 144.999
c-41.333 37.333 -94 56 -158 56c-63.333 0 -118.666 -18.667 -165.999 -56c-46.667 -38 -74 -86.333 -82 -145zM797.002 1526l129 -129l-344 -248l-349 246l134 131l215 -156z" />
    <glyph glyph-name="Gcircumflex" unicode="&#x11c;" horiz-adv-x="1476" 
d="M1092 588h-321.998v241h616v-643c-139.333 -139.333 -322.666 -209 -549.999 -209c-228.667 0 -413.334 68.333 -554.001 205c-141.333 137.333 -212 315 -212 533s70.667 395.667 212 533s324.333 206 549 206c223.333 0 408.333 -70.333 555 -211l-169 -180
c-36.667 40.667 -89.667 74 -159 100c-68.667 26 -139.334 39 -212.001 39c-135.333 0 -246 -45.333 -332 -136s-129 -207.667 -129 -351c0 -142 43.333 -258.333 130 -349c87.333 -91.333 199.666 -137 336.999 -137c90.667 0 170.667 20 240 60v299zM584.002 1501
l-133 133l348 242l346 -242l-131 -133l-215 156z" />
    <glyph glyph-name="gcircumflex" unicode="&#x11d;" horiz-adv-x="1191" 
d="M516 -20c-136.667 0 -246.999 45.667 -330.999 137s-126 209.333 -126 354c0 170.667 59.667 309 179 415c119.333 105.333 274 158 464 158c142 0 269 -26.333 381 -79v-953c0 -146.667 -52.333 -265.334 -157 -356.001c-105.333 -91.333 -241.333 -137 -408 -137
c-172 0 -307.667 49.667 -407 149l153 154c52 -48 128 -72 228 -72c93.333 0 169.666 24.667 228.999 74c58.667 48.667 88 111.334 88 188.001v58c-74 -60 -171.667 -90 -293 -90zM662.001 813c-90.667 0 -164.667 -29.6689 -222 -89.002s-86 -136.666 -86 -231.999
c0 -83.333 22 -152.666 66 -207.999c43.333 -55.333 99.333 -83 168 -83c64 0 117 23.667 159 71c41.333 47.333 62 108.333 62 183v336c-42 14.667 -91 22 -147 22zM440.001 1151l-131 133l346 242l349 -242l-134 -133l-215 158z" />
    <glyph glyph-name="Gbreve" unicode="&#x11e;" horiz-adv-x="1476" 
d="M1092 588h-321.998v241h616v-643c-139.333 -139.333 -322.666 -209 -549.999 -209c-228.667 0 -413.334 68.333 -554.001 205c-141.333 137.333 -212 315 -212 533s70.667 395.667 212 533s324.333 206 549 206c223.333 0 408.333 -70.333 555 -211l-169 -180
c-36.667 40.667 -89.667 74 -159 100c-68.667 26 -139.334 39 -212.001 39c-135.333 0 -246 -45.333 -332 -136s-129 -207.667 -129 -351c0 -142 43.333 -258.333 130 -349c87.333 -91.333 199.666 -137 336.999 -137c90.667 0 170.667 20 240 60v299zM442.002 1716l174 109
c34.667 -66 95.667 -99.667 183 -101c84.667 0 144.667 33.667 180 101l174 -109c-79.333 -121.333 -197.333 -182 -354 -182c-158.667 0 -277.667 60.667 -357 182z" />
    <glyph glyph-name="gbreve" unicode="&#x11f;" horiz-adv-x="1191" 
d="M59 471c0 170.667 59.668 309 179.001 415c119.333 105.333 274 158 464 158c142 0 269 -26.333 381 -79v-953c0 -146.667 -52.333 -265.334 -157 -356.001c-105.333 -91.333 -241.333 -137 -408 -137c-172 0 -307.667 49.667 -407 149l153 154c52 -48 128 -72 228 -72
c93.333 0 169.666 24.667 228.999 74c58.667 48.667 88 111.334 88 188.001v58c-74 -60 -171.667 -90 -293 -90c-136.667 0 -247 45.667 -331 137s-126 209.333 -126 354zM662.001 813c-90.667 0 -164.667 -29.6689 -222 -89.002s-86 -136.666 -86 -231.999
c0 -83.333 22 -152.666 66 -207.999c43.333 -55.333 99.333 -83 168 -83c64 0 117 23.667 159 71c41.333 47.333 62 108.333 62 183v336c-42 14.667 -91 22 -147 22zM655.001 1184c-156.667 0 -274.667 60.666 -354 181.999l174 111
c34.667 -67.333 94.667 -101.666 180 -102.999c86 0 147 34.333 183 103l174 -111c-79.333 -121.333 -198.333 -182 -357 -182z" />
    <glyph glyph-name="Gdotaccent" unicode="&#x120;" horiz-adv-x="1476" 
d="M1092 588h-321.998v241h616v-643c-139.333 -139.333 -322.666 -209 -549.999 -209c-228.667 0 -413.334 68.333 -554.001 205c-141.333 137.333 -212 315 -212 533s70.667 395.667 212 533s324.333 206 549 206c223.333 0 408.333 -70.333 555 -211l-169 -180
c-36.667 40.667 -89.667 74 -159 100c-68.667 26 -139.334 39 -212.001 39c-135.333 0 -246 -45.333 -332 -136s-129 -207.667 -129 -351c0 -142 43.333 -258.333 130 -349c87.333 -91.333 199.666 -137 336.999 -137c90.667 0 170.667 20 240 60v299zM934.002 1556h-272
v228h272v-228z" />
    <glyph glyph-name="gdotaccent" unicode="&#x121;" horiz-adv-x="1191" 
d="M516 -20c-136.667 0 -246.999 45.667 -330.999 137s-126 209.333 -126 354c0 170.667 59.667 309 179 415c119.333 105.333 274 158 464 158c142 0 269 -26.333 381 -79v-953c0 -146.667 -52.333 -265.334 -157 -356.001c-105.333 -91.333 -241.333 -137 -408 -137
c-172 0 -307.667 49.667 -407 149l153 154c52 -48 128 -72 228 -72c93.333 0 169.666 24.667 228.999 74c58.667 48.667 88 111.334 88 188.001v58c-74 -60 -171.667 -90 -293 -90zM662.001 813c-90.667 0 -164.667 -29.6689 -222 -89.002s-86 -136.666 -86 -231.999
c0 -83.333 22 -152.666 66 -207.999c43.333 -55.333 99.333 -83 168 -83c64 0 117 23.667 159 71c41.333 47.333 62 108.333 62 183v336c-42 14.667 -91 22 -147 22zM793.001 1434v-228h-273v228h273z" />
    <glyph glyph-name="uni0122" unicode="&#x122;" horiz-adv-x="1476" 
d="M1092 588h-321.998v241h616v-643c-139.333 -139.333 -322.666 -209 -549.999 -209c-228.667 0 -413.334 68.333 -554.001 205c-141.333 137.333 -212 315 -212 533s70.667 395.667 212 533s324.333 206 549 206c223.333 0 408.333 -70.333 555 -211l-169 -180
c-36.667 40.667 -89.667 74 -159 100c-68.667 26 -139.334 39 -212.001 39c-135.333 0 -246 -45.333 -332 -136s-129 -207.667 -129 -351c0 -142 43.333 -258.333 130 -349c87.333 -91.333 199.666 -137 336.999 -137c90.667 0 170.667 20 240 60v299zM805.002 -410h-148
l52 338h231z" />
    <glyph glyph-name="uni0123" unicode="&#x123;" horiz-adv-x="1191" 
d="M516 -20c-136.667 0 -246.999 45.667 -330.999 137s-126 209.333 -126 354c0 170.667 59.667 309 179 415c119.333 105.333 274 158 464 158c142 0 269 -26.333 381 -79v-953c0 -146.667 -52.333 -265.334 -157 -356.001c-105.333 -91.333 -241.333 -137 -408 -137
c-172 0 -307.667 49.667 -407 149l153 154c52 -48 128 -72 228 -72c93.333 0 169.666 24.667 228.999 74c58.667 48.667 88 111.334 88 188.001v58c-74 -60 -171.667 -90 -293 -90zM662.001 813c-90.667 0 -164.667 -29.6689 -222 -89.002s-86 -136.666 -86 -231.999
c0 -83.333 22 -152.666 66 -207.999c43.333 -55.333 99.333 -83 168 -83c64 0 117 23.667 159 71c41.333 47.333 62 108.333 62 183v336c-42 14.667 -91 22 -147 22zM725.001 1155h-231l135 340h145z" />
    <glyph glyph-name="Hcircumflex" unicode="&#x124;" horiz-adv-x="1566" 
d="M416 0h-295v1434h295v-588h735v588h295v-1434h-295v604h-735v-604zM569 1501l-133 133l348 242l346 -242l-131 -133l-215 156z" />
    <glyph glyph-name="hcircumflex" unicode="&#x125;" horiz-adv-x="1206" 
d="M111 0v1485h272v-565c83.333 83.333 189 124.666 317 123.999c120.667 0 218.334 -37.333 293.001 -112c75.333 -75.333 113 -173.666 113 -294.999v-637h-272v584c0 69.333 -20 126 -60 170c-41.333 43.333 -94 65 -158 65c-68.667 0 -124.334 -24.333 -167.001 -73
c-44 -49.333 -66 -112.333 -66 -189v-557h-272zM246 1667l-215 -158l-131 133l346 242l348 -242l-133 -133z" />
    <glyph glyph-name="Hbar" unicode="&#x126;" horiz-adv-x="1566" 
d="M121 0v1022h-123v168h123v244h295v-244h735v244h295v-244h121v-168h-121v-1022h-295v604h-735v-604h-295zM1151 846v176h-735v-176h735z" />
    <glyph glyph-name="hbar" unicode="&#x127;" horiz-adv-x="1206" 
d="M383 1485v-160h285v-168h-285v-237c83.333 83.333 189 124.666 317 123.999c120.667 0 218.334 -37.333 293.001 -112c75.333 -75.333 113 -173.666 113 -294.999v-637h-272v584c0 69.333 -20 126 -60 170c-41.333 43.333 -94 65 -158 65
c-68.667 0 -124.334 -24.333 -167.001 -73c-44 -49.333 -66 -112.333 -66 -189v-557h-272v1157h-134v168h134v160h272z" />
    <glyph glyph-name="Itilde" unicode="&#x128;" horiz-adv-x="534" 
d="M416 1434v-1434h-295v1434h295zM154 1618c-19.333 0 -34.832 -6.83398 -46.499 -20.501s-17.5 -31.5 -17.5 -53.5h-190c0 78.667 24.333 142.334 73 191.001c49.333 48.667 113 73 191 73c34.667 0.666992 67.167 -6 97.5 -20s55.666 -28 75.999 -42
s36.166 -20.667 47.499 -20c18 0 32 6.5 42 19.5s15 30.5 15 52.5h191c0 -78 -24.333 -141.333 -73 -190c-49.333 -49.333 -111.666 -74 -186.999 -74c-50.667 0 -96 14 -136 42s-67.667 42 -83 42z" />
    <glyph glyph-name="itilde" unicode="&#x129;" horiz-adv-x="493" 
d="M383 1024v-1024h-272v1024h272zM131 1268c-18 0 -32.667 -6.83496 -44 -20.502s-17 -31.5 -17 -53.5h-191c0 78.667 24.333 142.334 73 191.001s112.334 73 191.001 73c51.333 0 97.666 -13.667 138.999 -41c40.667 -27.333 67.334 -41 80.001 -41
c38.667 0 58.667 24 60 72h190c0 -77.333 -24 -140.666 -72 -189.999c-49.333 -49.333 -112 -74 -188 -74c-50.667 0 -96.334 14 -137.001 42s-68.667 42 -84 42z" />
    <glyph glyph-name="Imacron" unicode="&#x12a;" horiz-adv-x="534" 
d="M416 1434v-1434h-295v1434h295zM555 1720v-168h-575v168h575z" />
    <glyph glyph-name="imacron" unicode="&#x12b;" horiz-adv-x="493" 
d="M383 1024v-1024h-272v1024h272zM535 1372v-168h-576v168h576z" />
    <glyph glyph-name="Ibreve" unicode="&#x12c;" horiz-adv-x="534" 
d="M416 1434v-1434h-295v1434h295zM-88 1716l173.998 109c34.667 -66 95.334 -99.667 182.001 -101c84.667 0 145 33.667 181 101l174 -109c-79.333 -121.333 -197.666 -182 -354.999 -182c-158 0 -276.667 60.667 -356 182z" />
    <glyph glyph-name="ibreve" unicode="&#x12d;" horiz-adv-x="493" 
d="M383 1024v-1024h-272v1024h272zM-109 1366l174.999 110.999c34.667 -67.333 94.667 -101.666 180 -102.999c86.667 0 147.334 34.333 182.001 103l172 -111c-78 -121.333 -196 -182 -354 -182c-158.667 0 -277 60.667 -355 182z" />
    <glyph glyph-name="Iogonek" unicode="&#x12e;" horiz-adv-x="534" 
d="M63 -242c0 45.333 10.999 88 32.999 128c22 41.333 44 70.333 66 87l33 27h-74v1434h295v-1434h-60c-80 -79.333 -119.333 -147.666 -118 -204.999c0 -39.333 19 -59 57 -59c21.333 0 42.333 7.33301 63 22l95 -98c-21.333 -26.667 -50.666 -48.334 -87.999 -65.001
c-38 -16.667 -76.333 -25 -115 -25c-55.333 0 -100.333 17.167 -135 51.5s-52 79.833 -52 136.5z" />
    <glyph glyph-name="iogonek" unicode="&#x12f;" horiz-adv-x="493" 
d="M43 -242c0 45.333 10.998 88 32.998 128c22 40.667 43.667 69.667 65 87l33 27h-63v1024h272v-1024h-47c-79.333 -79.333 -119 -147.666 -119 -204.999c0 -39.333 19 -59 57 -59c21.333 0 42.666 7.33301 63.999 22l94 -98
c-21.333 -26.667 -50.666 -48.334 -87.999 -65.001s-75.666 -25 -114.999 -25c-55.333 0 -100.166 17.167 -134.499 51.5s-51.5 79.833 -51.5 136.5zM382.998 1434v-228h-272v228h272z" />
    <glyph glyph-name="Idot" unicode="&#x130;" horiz-adv-x="534" 
d="M416 1434v-1434h-295v1434h295zM403 1556h-272v228h272v-228z" />
    <glyph glyph-name="dotlessi" unicode="&#x131;" horiz-adv-x="493" 
d="M383 1024v-1024h-272v1024h272z" />
    <glyph glyph-name="IJ" unicode="&#x132;" horiz-adv-x="1619" 
d="M971 -20c-161.333 0 -298.001 51 -410.001 153l168 189c23.333 -27.333 55.833 -49.333 97.5 -66s84.834 -25 129.501 -25c76.667 0 139 24.333 187 73c47.333 49.333 71 112 71 188v942h295v-942c0 -154.667 -49.667 -278.667 -149 -372s-229 -140 -389 -140zM415.999 0
h-295v1434h295v-1434z" />
    <glyph glyph-name="ij" unicode="&#x133;" horiz-adv-x="1017" 
d="M246 -369l139 160c28.667 -24.667 67.667 -37 117 -37c39.333 0 71.333 15.333 96 46s37 70.667 37 120v1104h272v-1112c0 -116 -35 -210 -105 -282c-71.333 -71.333 -164 -107 -278 -107c-110 -1.33301 -202.667 34.667 -278 108zM111 0v1024h272v-1024h-272zM907 1206
h-272v228h272v-228zM383 1206h-272v228h272v-228z" />
    <glyph glyph-name="Jcircumflex" unicode="&#x134;" horiz-adv-x="1085" 
d="M680 492l0.00195312 942h295v-942c0 -154.667 -49.667 -278.667 -149 -372c-100.667 -93.333 -230.667 -140 -390 -140c-162 0 -298.333 51 -409 153l168 189c23.333 -27.333 55.666 -49.333 96.999 -66s84.666 -25 129.999 -25c76.667 0 139 24.333 187 73
c47.333 49.333 71 112 71 188zM612.002 1501l-131 133l346 242l349 -242l-134 -133l-215 156z" />
    <glyph glyph-name="jcircumflex" unicode="&#x135;" horiz-adv-x="524" 
d="M-246 -369l137 160c28.667 -24.667 67.667 -37 117 -37c40 0 72.167 15.167 96.5 45.5s36.5 70.5 36.5 120.5v1104h275v-1112c0 -116.667 -35.333 -210.667 -106 -282c-70.667 -70.667 -163 -106.667 -277 -108c-113.333 0 -206.333 36.333 -279 109zM63 1151l-133 133
l349 242l346 -242l-131 -133l-215 158z" />
    <glyph glyph-name="uni0136" unicode="&#x136;" horiz-adv-x="1439" 
d="M121 0v1434h295v-582l565 582h377l-565 -580l608 -854h-330l-471 657l-184 -188v-469h-295zM860 -72l-135 -338h-145l49 338h231z" />
    <glyph glyph-name="uni0137" unicode="&#x137;" horiz-adv-x="1144" 
d="M111 0v1485h272v-850l350 389h326l-365 -399l422 -625h-295l-297 446l-141 -155v-291h-272zM717 -72l-135 -338h-148l51 338h232z" />
    <glyph glyph-name="Lacute" unicode="&#x139;" horiz-adv-x="1196" 
d="M1157 0h-1036v1434h295v-1192h741v-242zM86 1597l297 299l164 -163l-361 -236z" />
    <glyph glyph-name="lacute" unicode="&#x13a;" horiz-adv-x="618" 
d="M541 244l123.001 -162.001c-64 -68 -144.667 -102 -242 -102c-92 0 -166.667 28.333 -224 85c-58 56.667 -87 130 -87 220v1200h272v-1180c0 -27.333 8.16699 -49.166 24.5 -65.499s38.166 -24.5 65.499 -24.5c26 0 48.667 9.66699 68 29zM66.001 1606l296 299l164 -164
l-360 -236z" />
    <glyph glyph-name="uni013B" unicode="&#x13b;" horiz-adv-x="1196" 
d="M1157 0h-1036v1434h295v-1192h741v-242zM631 -410h-148l52 338h231z" />
    <glyph glyph-name="uni013C" unicode="&#x13c;" horiz-adv-x="618" 
d="M541 244l123.001 -162.001c-64 -68 -144.667 -102 -242 -102c-92 0 -166.667 28.333 -224 85c-58 56.667 -87 130 -87 220v1200h272v-1180c0 -27.333 8.16699 -49.166 24.5 -65.499s38.166 -24.5 65.499 -24.5c26 0 48.667 9.66699 68 29zM367.001 -410.001h-146l49 338
h232z" />
    <glyph glyph-name="Lcaron" unicode="&#x13d;" horiz-adv-x="1193" 
d="M1157 0h-1036v1434h295v-1192h741v-242zM893 1010h-191l72 475h275z" />
    <glyph glyph-name="lcaron" unicode="&#x13e;" horiz-adv-x="847" 
d="M111 285l0.000976562 1200h272v-1180c0 -27.333 8.16699 -49.166 24.5 -65.499s38.166 -24.5 65.499 -24.5c26 0 48.667 9.66699 68 29l123 -162c-64 -68 -144.667 -102 -242 -102c-92 0 -166.667 28.333 -224 85c-58 56.667 -87 130 -87 220zM848.001 1485l-156 -475
h-188l71 475h273z" />
    <glyph glyph-name="Ldot" unicode="&#x13f;" horiz-adv-x="1193" 
d="M1157 0h-1036v1434h295v-1192h741v-242zM989 582h-272v270h272v-270z" />
    <glyph glyph-name="ldot" unicode="&#x140;" horiz-adv-x="927" 
d="M541 244l123.001 -162.001c-64 -68 -144.667 -102 -242 -102c-92 0 -166.667 28.333 -224 85c-58 56.667 -87 130 -87 220v1200h272v-1180c0 -27.333 8.16699 -49.166 24.5 -65.499s38.166 -24.5 65.499 -24.5c26 0 48.667 9.66699 68 29zM848.001 581.999h-275v270h275
v-270z" />
    <glyph glyph-name="Lslash" unicode="&#x141;" horiz-adv-x="1226" 
d="M152 557l-107 -61l-84 143l191 111v684h294v-514l154 90l84 -146l-238 -137v-485h742v-242h-1036v557z" />
    <glyph glyph-name="lslash" unicode="&#x142;" horiz-adv-x="661" 
d="M152 598l-106.999 -61l-84 143l191 111v694h274v-535l133 78l84 -145l-217 -125v-453c0 -27.333 7.83301 -49.166 23.5 -65.499s36.5 -24.5 62.5 -24.5c27.333 0 50.666 9.66699 69.999 29l123 -162c-64 -68 -145.333 -102 -244 -102c-92 0 -166.333 28.333 -223 85
c-57.333 57.333 -86 130.666 -86 219.999v313z" />
    <glyph glyph-name="Nacute" unicode="&#x143;" horiz-adv-x="1544" 
d="M403 0h-282v1434h280l740 -965v965h282v-1434h-280l-740 975v-975zM692 1497l-100 100l297 299l164 -163z" />
    <glyph glyph-name="nacute" unicode="&#x144;" horiz-adv-x="1206" 
d="M111 0v1024h272v-104c83.333 83.333 189 124.666 317 123.999c120.667 0 218.334 -37.333 293.001 -112c75.333 -75.333 113 -173.666 113 -294.999v-637h-272v584c0 69.333 -20 126 -60 170c-41.333 43.333 -94 65 -158 65c-68.667 0 -124.334 -24.333 -167.001 -73
c-44 -49.333 -66 -112.333 -66 -189v-557h-272zM555 1147l-100 100l297 299l163 -164z" />
    <glyph glyph-name="uni0145" unicode="&#x145;" horiz-adv-x="1544" 
d="M403 0h-282v1434h280l740 -965v965h282v-1434h-280l-740 975v-975zM895 -72l-135 -338h-146l50 338h231z" />
    <glyph glyph-name="uni0146" unicode="&#x146;" horiz-adv-x="1206" 
d="M111 0v1024h272v-104c83.333 83.333 189 124.666 317 123.999c120.667 0 218.334 -37.333 293.001 -112c75.333 -75.333 113 -173.666 113 -294.999v-637h-272v584c0 69.333 -20 126 -60 170c-41.333 43.333 -94 65 -158 65c-68.667 0 -124.334 -24.333 -167.001 -73
c-44 -49.333 -66 -112.333 -66 -189v-557h-272zM600 -410h-147l51 338h231z" />
    <glyph glyph-name="Ncaron" unicode="&#x147;" horiz-adv-x="1544" 
d="M121 0v1434h280l740 -965v965h282v-1434h-280l-740 975v-975h-282zM772 1499l-346 244l133 133l213 -156l215 156l131 -131z" />
    <glyph glyph-name="ncaron" unicode="&#x148;" horiz-adv-x="1206" 
d="M383 0h-272v1024h272v-104c83.333 83.333 189 124.666 317 123.999c120.667 0 218.334 -37.333 293.001 -112c75.333 -75.333 113 -173.666 113 -294.999v-637h-272v584c0 69.333 -20 126 -60 170c-41.333 43.333 -94 65 -158 65
c-68.667 0 -124.334 -24.333 -167.001 -73c-44 -49.333 -66 -112.333 -66 -189v-557zM635 1149l-348 246l133 131l215 -156l215 156l131 -129z" />
    <glyph glyph-name="Eng" unicode="&#x14a;" horiz-adv-x="1544" 
d="M403 975v-975h-282v1434h280l740 -965v965h282v-1485c0 -131.333 -40.333 -236 -121 -314c-81.333 -77.333 -189 -116 -323 -116c-139.333 0 -254 43 -344 129l170 184c36.667 -40.667 87.667 -61 153 -61c54 0 98.333 16.667 133 50c33.333 33.333 50 76 50 128v53z" />
    <glyph glyph-name="eng" unicode="&#x14b;" horiz-adv-x="1206" 
d="M383 0h-272.001v1024h272v-104c83.333 83.333 189 124.666 317 123.999c120.667 0 218.334 -37.333 293.001 -112c75.333 -75.333 113 -173.666 113 -294.999v-725c0 -116 -35 -210 -105 -282c-71.333 -71.333 -163.333 -107 -276 -107s-205.667 36 -279 108l138 160
c28.667 -24.667 67.334 -37 116.001 -37c39.333 0 71.5 15.333 96.5 46s37.5 70.667 37.5 120v664c0 69.333 -20 126 -60 170c-41.333 43.333 -94 65 -158 65c-68.667 0 -124.334 -24.333 -167.001 -73c-44 -49.333 -66 -112.333 -66 -189v-557z" />
    <glyph glyph-name="Omacron" unicode="&#x14c;" horiz-adv-x="1646" 
d="M279 185c-139.333 136 -209 313.334 -209 532.001c0 217.333 69.667 394.666 209 531.999c138.667 136.667 320 205 544 205c224.667 0 406.667 -68.333 546 -205c140 -136.667 210 -314 210 -532c0 -218.667 -70 -396 -210 -532
c-139.333 -136.667 -321.333 -205 -546 -205c-224 0 -405.333 68.333 -544 205zM510 1065c-83.333 -91.333 -125.001 -207.333 -125.001 -348s41.667 -256.667 125 -348c82.667 -92 187 -138 313 -138c130 0 235.667 46 317 138c81.333 91.333 122 207.333 122 348
s-40.667 256.667 -122 348s-187 137 -317 137c-125.333 0 -229.666 -45.667 -312.999 -137zM1110 1720v-168h-575v168h575z" />
    <glyph glyph-name="omacron" unicode="&#x14d;" horiz-adv-x="1239" 
d="M216 128c-104.667 98.667 -157 226.667 -157 384s52.333 285.333 157 384s239.667 148 405 148c164.667 0 299.334 -49.333 404.001 -148s157 -226.667 157 -384s-52.333 -285.333 -157 -384s-239.334 -148 -404.001 -148c-165.333 0 -300.333 49.333 -405 148zM354 512
c0 -86.667 25 -158.667 75 -216c50 -56.667 114 -85 192 -85c77.333 0 141 28.333 191 85c50 57.333 75 129.333 75 216c0 88.667 -25 161 -75 217s-113.667 84 -191 84c-78 0 -142 -28 -192 -84s-75 -128.333 -75 -217zM907 1372v-168h-575v168h575z" />
    <glyph glyph-name="Obreve" unicode="&#x14e;" horiz-adv-x="1646" 
d="M279 185c-139.333 136 -209 313.334 -209 532.001c0 217.333 69.667 394.666 209 531.999c138.667 136.667 320 205 544 205c224.667 0 406.667 -68.333 546 -205c140 -136.667 210 -314 210 -532c0 -218.667 -70 -396 -210 -532
c-139.333 -136.667 -321.333 -205 -546 -205c-224 0 -405.333 68.333 -544 205zM510 1065c-83.333 -91.333 -125.001 -207.333 -125.001 -348s41.667 -256.667 125 -348c82.667 -92 187 -138 313 -138c130 0 235.667 46 317 138c81.333 91.333 122 207.333 122 348
s-40.667 256.667 -122 348s-187 137 -317 137c-125.333 0 -229.666 -45.667 -312.999 -137zM468.999 1716l172 109.001c38 -66.667 98.667 -100 182 -100c82.667 -0.666992 143.667 32.666 183 99.999l172 -109c-78 -121.333 -196 -182 -354 -182
c-158.667 0 -277 60.667 -355 182z" />
    <glyph glyph-name="obreve" unicode="&#x14f;" horiz-adv-x="1239" 
d="M216 128c-104.667 98.667 -157 226.667 -157 384s52.333 285.333 157 384s239.667 148 405 148c164.667 0 299.334 -49.333 404.001 -148s157 -226.667 157 -384s-52.333 -285.333 -157 -384s-239.334 -148 -404.001 -148c-165.333 0 -300.333 49.333 -405 148zM354 512
c0 -86.667 25 -158.667 75 -216c50 -56.667 114 -85 192 -85c77.333 0 141 28.333 191 85c50 57.333 75 129.333 75 216c0 88.667 -25 161 -75 217s-113.667 84 -191 84c-78 0 -142 -28 -192 -84s-75 -128.333 -75 -217zM266 1366l171.999 111
c37.333 -68 98.333 -102 183 -102c84.667 -0.666992 145.334 33.333 182.001 102l172 -111c-78 -121.333 -196 -182 -354 -182c-158.667 0 -277 60.667 -355 182z" />
    <glyph glyph-name="Ohungarumlaut" unicode="&#x150;" horiz-adv-x="1646" 
d="M279 185c-139.333 136 -209 313.334 -209 532.001c0 217.333 69.667 394.666 209 531.999c138.667 136.667 320 205 544 205c224.667 0 406.667 -68.333 546 -205c140 -136.667 210 -314 210 -532c0 -218.667 -70 -396 -210 -532
c-139.333 -136.667 -321.333 -205 -546 -205c-224 0 -405.333 68.333 -544 205zM510 1065c-83.333 -91.333 -125.001 -207.333 -125.001 -348s41.667 -256.667 125 -348c82.667 -92 187 -138 313 -138c130 0 235.667 46 317 138c81.333 91.333 122 207.333 122 348
s-40.667 256.667 -122 348s-187 137 -317 137c-125.333 0 -229.666 -45.667 -312.999 -137zM443.999 1597l297 299l164 -163l-360 -236zM837.999 1597l297 299l163 -163l-360 -236z" />
    <glyph glyph-name="ohungarumlaut" unicode="&#x151;" horiz-adv-x="1239" 
d="M216 128c-104.667 98.667 -157 226.667 -157 384s52.333 285.333 157 384s239.667 148 405 148c164.667 0 299.334 -49.333 404.001 -148s157 -226.667 157 -384s-52.333 -285.333 -157 -384s-239.334 -148 -404.001 -148c-165.333 0 -300.333 49.333 -405 148zM354 512
c0 -86.667 25 -158.667 75 -216c50 -56.667 114 -85 192 -85c77.333 0 141 28.333 191 85c50 57.333 75 129.333 75 216c0 88.667 -25 161 -75 217s-113.667 84 -191 84c-78 0 -142 -28 -192 -84s-75 -128.333 -75 -217zM242 1247l297 299l163 -164l-360 -235zM635 1247
l297 299l164 -164l-361 -235z" />
    <glyph glyph-name="OE" unicode="&#x152;" horiz-adv-x="2422" 
d="M823 -20c-224 0 -405.333 68.334 -544 205.001c-139.333 136 -209 313.333 -209 532c0 217.333 69.667 394.666 209 531.999c138.667 136.667 320 205 544 205c170 0 317.667 -47 443 -141v121h1056v-242h-761v-344h698v-242h-698v-364h782v-242h-1077v121
c-125.333 -94 -273 -141 -443 -141zM510 1065c-83.333 -91.333 -125.001 -207.333 -125.001 -348s41.667 -256.667 125 -348c82.667 -92 187 -138 313 -138c130 0 235.667 46 317 138c81.333 91.333 122 207.333 122 348s-40.667 256.667 -122 348s-187 137 -317 137
c-125.333 0 -229.666 -45.667 -312.999 -137z" />
    <glyph glyph-name="oe" unicode="&#x153;" horiz-adv-x="1990" 
d="M621 -20c-165.333 0 -300.333 49.334 -405 148.001s-157 226.667 -157 384s52.333 285.333 157 384s239.667 148 405 148c172.667 0 307.667 -53.667 405 -161c93.333 108 220.333 161.667 381 161c155.333 0 281.666 -49.667 378.999 -149
c96.667 -99.333 145 -228.333 145 -387c0 -28.667 -2 -59.334 -6 -92.001h-747c8.66699 -60 43.334 -109 104.001 -147c59.333 -38.667 131.666 -58 216.999 -58c102.667 0 181.334 23.333 236.001 70l147 -148c-102.667 -102.667 -241.334 -153.667 -416.001 -153
c-185.333 0 -328.666 58 -429.999 174c-98 -116 -236.333 -174 -415 -174zM354 512.001c0 -86.667 25 -158.667 75 -216c50 -56.667 114 -85 192 -85c77.333 0 141 28.333 191 85c50 57.333 75 129.333 75 216c0 88.667 -25 161 -75 217s-113.667 84 -191 84
c-78 0 -142 -28 -192 -84s-75 -128.333 -75 -217zM1430 817.001c-66 0 -121.667 -18.333 -167 -55c-46 -37.333 -73 -86 -81 -146h465c0 60 -20 108.667 -60 146c-40.667 36.667 -93 55 -157 55z" />
    <glyph glyph-name="Racute" unicode="&#x154;" horiz-adv-x="1392" 
d="M416 532l-0.000976562 -532h-295v1434h696c136.667 0 247.334 -41.333 332.001 -124s127 -191 127 -325c0 -93.333 -22.667 -176.333 -68 -249c-45.333 -72 -108 -126.333 -188 -163l336 -573h-320l-309 532h-311zM785.999 1192h-369.999v-416h370
c56.667 0 103.667 19.667 141 59c36 39.333 54 90 54 152s-17.833 111.667 -53.5 149s-82.834 56 -141.501 56zM563 1497l-100 100l297 299l164 -163z" />
    <glyph glyph-name="racute" unicode="&#x155;" horiz-adv-x="757" 
d="M383 514v-513.999h-272v1024h272v-193c38.667 67.333 88.834 119.666 150.501 156.999s130.167 56 205.5 56v-262c-104.667 0 -190.334 -24.667 -257.001 -74c-66 -50 -99 -114.667 -99 -194zM705 1382l-361 -235l-100 100l297 299z" />
    <glyph glyph-name="uni0156" unicode="&#x156;" horiz-adv-x="1392" 
d="M416 532l-0.000976562 -532h-295v1434h696c136.667 0 247.334 -41.333 332.001 -124s127 -191 127 -325c0 -93.333 -22.667 -176.333 -68 -249c-45.333 -72 -108 -126.333 -188 -163l336 -573h-320l-309 532h-311zM785.999 1192h-369.999v-416h370
c56.667 0 103.667 19.667 141 59c36 39.333 54 90 54 152s-17.833 111.667 -53.5 149s-82.834 56 -141.501 56zM838 -72l-136 -338h-147l51 338h232z" />
    <glyph glyph-name="uni0157" unicode="&#x157;" horiz-adv-x="757" 
d="M383 514v-513.999h-272v1024h272v-193c38.667 67.333 88.834 119.666 150.501 156.999s130.167 56 205.5 56v-262c-104.667 0 -190.334 -24.667 -257.001 -74c-66 -50 -99 -114.667 -99 -194zM233 -409.999h-147l51 338h232z" />
    <glyph glyph-name="Rcaron" unicode="&#x158;" horiz-adv-x="1392" 
d="M121 0l-0.000976562 1434h696c136.667 0 247.334 -41.333 332.001 -124s127 -191 127 -325c0 -93.333 -22.667 -176.333 -68 -249c-45.333 -72 -108 -126.333 -188 -163l336 -573h-320l-309 532h-311v-532h-295zM785.999 1192h-369.999v-416h370
c56.667 0 103.667 19.667 141 59c36 39.333 54 90 54 152s-17.833 111.667 -53.5 149s-82.834 56 -141.501 56zM989 1745l-344 -246l-348 244l133 133l215 -156l215 156z" />
    <glyph glyph-name="rcaron" unicode="&#x159;" horiz-adv-x="757" 
d="M383 514v-513.999h-272v1024h272v-193c38.667 67.333 88.834 119.666 150.501 156.999s130.167 56 205.5 56v-262c-104.667 0 -190.334 -24.667 -257.001 -74c-66 -50 -99 -114.667 -99 -194zM424 1149l-346 246l133 131l213 -156l215 156l131 -129z" />
    <glyph glyph-name="Sacute" unicode="&#x15a;" horiz-adv-x="1222" 
d="M1155 408c0 -122.667 -50.665 -224.666 -151.998 -305.999c-102.667 -81.333 -232.334 -122 -389.001 -122c-103.333 0 -203.666 17.333 -300.999 52c-98 34.667 -179 80.667 -243 138l147 188c41.333 -36 96 -66.333 164 -91c67.333 -24 135.666 -36 204.999 -36
c81.333 0 147.666 15.333 198.999 46c51.333 30 77 68 77 114c0 35.333 -20 67 -60 95c-42 28.667 -112 59.334 -210 92.001c-178.667 59.333 -306 124.666 -382 195.999c-77.333 71.333 -116 158 -116 260c0 122 46.667 222.667 140 302c92.667 78.667 212.667 118 360 118
c94 0 188 -16.667 282 -50c92 -32.667 166.667 -75.334 224 -128.001l-142 -193c-33.333 33.333 -81 61.666 -143 84.999c-60 22.667 -122 34 -186 34c-71.333 0 -129.333 -14.333 -174 -43c-45.333 -29.333 -68 -66.666 -68 -111.999c0 -38 20 -71 60 -99
c38 -28.667 108 -60 210 -94c176 -60 303 -125 381 -195c78 -71.333 117 -155 117 -251zM424.002 1597l295 299l166 -163l-361 -236z" />
    <glyph glyph-name="sacute" unicode="&#x15b;" horiz-adv-x="956" 
d="M897 307c0 -101.333 -39.667 -181 -119 -239c-78.667 -58.667 -185.667 -88 -321 -88c-159.333 0 -295.333 49 -408 147l137 160c69.333 -53.333 157.666 -80 264.999 -80c56 0 100.667 7.5 134 22.5s50 35.5 50 61.5c0 22.667 -13.167 41 -39.5 55
s-72.5 29.667 -138.5 47c-18 3.33301 -29 6 -33 8c-44 11.333 -85 24.666 -123 39.999c-31.333 12.667 -66 31.667 -104 57c-75.333 50 -113 125 -113 225s36.667 178.667 110 236c72.667 56.667 173.334 85 302.001 85c148 0 271.333 -45.667 370 -137l-139 -159
c-56 47.333 -129.667 70.333 -221 69c-108 0 -162 -26 -162 -78c0 -26.667 20.667 -49 62 -67c18.667 -8.66699 36.667 -16 54 -22c10 -4 32 -10.333 66 -19c51.333 -13.333 98 -27.666 140 -42.999c34 -14 71.667 -32.667 113 -56c78.667 -48 118 -123 118 -225zM303 1247
l297 299l164 -164l-361 -235z" />
    <glyph glyph-name="Scircumflex" unicode="&#x15c;" horiz-adv-x="1222" 
d="M1155 408c0 -122.667 -50.665 -224.666 -151.998 -305.999c-102.667 -81.333 -232.334 -122 -389.001 -122c-103.333 0 -203.666 17.333 -300.999 52c-98 34.667 -179 80.667 -243 138l147 188c41.333 -36 96 -66.333 164 -91c67.333 -24 135.666 -36 204.999 -36
c81.333 0 147.666 15.333 198.999 46c51.333 30 77 68 77 114c0 35.333 -20 67 -60 95c-42 28.667 -112 59.334 -210 92.001c-178.667 59.333 -306 124.666 -382 195.999c-77.333 71.333 -116 158 -116 260c0 122 46.667 222.667 140 302c92.667 78.667 212.667 118 360 118
c94 0 188 -16.667 282 -50c92 -32.667 166.667 -75.334 224 -128.001l-142 -193c-33.333 33.333 -81 61.666 -143 84.999c-60 22.667 -122 34 -186 34c-71.333 0 -129.333 -14.333 -174 -43c-45.333 -29.333 -68 -66.666 -68 -111.999c0 -38 20 -71 60 -99
c38 -28.667 108 -60 210 -94c176 -60 303 -125 381 -195c78 -71.333 117 -155 117 -251zM389.002 1501l-133 133l348 242l346 -242l-131 -133l-215 156z" />
    <glyph glyph-name="scircumflex" unicode="&#x15d;" horiz-adv-x="956" 
d="M897 307c0 -101.333 -39.667 -181 -119 -239c-78.667 -58.667 -185.667 -88 -321 -88c-159.333 0 -295.333 49 -408 147l137 160c69.333 -53.333 157.666 -80 264.999 -80c56 0 100.667 7.5 134 22.5s50 35.5 50 61.5c0 22.667 -13.167 41 -39.5 55
s-72.5 29.667 -138.5 47c-18 3.33301 -29 6 -33 8c-44 11.333 -85 24.666 -123 39.999c-31.333 12.667 -66 31.667 -104 57c-75.333 50 -113 125 -113 225s36.667 178.667 110 236c72.667 56.667 173.334 85 302.001 85c148 0 271.333 -45.667 370 -137l-139 -159
c-56 47.333 -129.667 70.333 -221 69c-108 0 -162 -26 -162 -78c0 -26.667 20.667 -49 62 -67c18.667 -8.66699 36.667 -16 54 -22c10 -4 32 -10.333 66 -19c51.333 -13.333 98 -27.666 140 -42.999c34 -14 71.667 -32.667 113 -56c78.667 -48 118 -123 118 -225zM268 1151
l-133 133l348 242l346 -242l-131 -133l-215 158z" />
    <glyph glyph-name="Scedilla" unicode="&#x15e;" horiz-adv-x="1222" 
d="M524 -201l17.001 185.001c-191.333 14.667 -348.333 76.667 -471 186l147 188c41.333 -36 96 -66.333 164 -91c67.333 -24 135.666 -36 204.999 -36c81.333 0 147.666 15.333 198.999 46c51.333 30 77 68 77 114c0 35.333 -20 67 -60 95
c-42 28.667 -112 59.334 -210 92.001c-178.667 59.333 -306 124.666 -382 195.999c-77.333 71.333 -116 158 -116 260c0 122 46.667 222.667 140 302c92.667 78.667 212.667 118 360 118c94 0 188 -16.667 282 -50c92 -32.667 166.667 -75.334 224 -128.001l-142 -193
c-33.333 33.333 -81 61.666 -143 84.999c-60 22.667 -122 34 -186 34c-71.333 0 -129.333 -14.333 -174 -43c-45.333 -29.333 -68 -66.666 -68 -111.999c0 -38 20 -71 60 -99c38 -28.667 108 -60 210 -94c176 -60 303 -125 381 -195c78 -71.333 117 -155 117 -251
c0 -113.333 -43.333 -209.333 -130 -288c-87.333 -79.333 -201 -125.333 -341 -138l-8 -82c40.667 -8 73.334 -27.833 98.001 -59.5s37 -69.167 37 -112.5c0 -48 -18.667 -87 -56 -117c-38 -30 -85.667 -45 -143 -45c-96 0 -168.333 29.333 -217 88l88 94
c30.667 -28.667 63.667 -43 99 -43c18 0 33.333 4.16699 46 12.5s19 18.5 19 30.5c0 34 -41 51 -123 51z" />
    <glyph glyph-name="scedilla" unicode="&#x15f;" horiz-adv-x="956" 
d="M49 127l136.997 159.999c69.333 -53.333 157.666 -80 264.999 -80c56 0 100.667 7.5 134 22.5s50 35.5 50 61.5c0 22.667 -13.167 41 -39.5 55s-72.5 29.667 -138.5 47c-18 3.33301 -29 6 -33 8c-44 11.333 -85 24.666 -123 39.999c-31.333 12.667 -66 31.667 -104 57
c-75.333 50 -113 125 -113 225s36.667 178.667 110 236c72.667 56.667 173.334 85 302.001 85c148 0 271.333 -45.667 370 -137l-139 -159c-56 47.333 -129.667 70.333 -221 69c-108 0 -162 -26 -162 -78c0 -26.667 20.667 -49 62 -67c18.667 -8.66699 36.667 -16 54 -22
c10 -4 32 -10.333 66 -19c51.333 -13.333 98 -27.666 140 -42.999c34 -14 71.667 -32.667 113 -56c78.667 -48 118 -123 118 -225c0 -87.333 -30.667 -159.666 -92 -216.999s-146.666 -92 -255.999 -104l-8 -86c40.667 -8 73.334 -27.833 98.001 -59.5s37 -69.167 37 -112.5
c0 -48 -18.667 -87 -56 -117c-38 -30 -85.667 -45 -143 -45c-96 0 -168.333 29.333 -217 88l88 94c30.667 -28.667 63.334 -43 98.001 -43c18 0 33.5 4.16699 46.5 12.5s19.5 18.5 19.5 30.5c0 34 -41 51 -123 51l17 183c-136 8.66699 -255 57 -357 145z" />
    <glyph glyph-name="Scaron" unicode="&#x160;" horiz-adv-x="1222" 
d="M1155 408c0 -122.667 -50.665 -224.666 -151.998 -305.999c-102.667 -81.333 -232.334 -122 -389.001 -122c-103.333 0 -203.666 17.333 -300.999 52c-98 34.667 -179 80.667 -243 138l147 188c41.333 -36 96 -66.333 164 -91c67.333 -24 135.666 -36 204.999 -36
c81.333 0 147.666 15.333 198.999 46c51.333 30 77 68 77 114c0 35.333 -20 67 -60 95c-42 28.667 -112 59.334 -210 92.001c-178.667 59.333 -306 124.666 -382 195.999c-77.333 71.333 -116 158 -116 260c0 122 46.667 222.667 140 302c92.667 78.667 212.667 118 360 118
c94 0 188 -16.667 282 -50c92 -32.667 166.667 -75.334 224 -128.001l-142 -193c-33.333 33.333 -81 61.666 -143 84.999c-60 22.667 -122 34 -186 34c-71.333 0 -129.333 -14.333 -174 -43c-45.333 -29.333 -68 -66.666 -68 -111.999c0 -38 20 -71 60 -99
c38 -28.667 108 -60 210 -94c176 -60 303 -125 381 -195c78 -71.333 117 -155 117 -251zM819.002 1876l129 -131l-344 -246l-348 244l133 133l215 -156z" />
    <glyph glyph-name="scaron" unicode="&#x161;" horiz-adv-x="956" 
d="M897 307c0 -101.333 -39.667 -181 -119 -239c-78.667 -58.667 -185.667 -88 -321 -88c-159.333 0 -295.333 49 -408 147l137 160c69.333 -53.333 157.666 -80 264.999 -80c56 0 100.667 7.5 134 22.5s50 35.5 50 61.5c0 22.667 -13.167 41 -39.5 55
s-72.5 29.667 -138.5 47c-18 3.33301 -29 6 -33 8c-44 11.333 -85 24.666 -123 39.999c-31.333 12.667 -66 31.667 -104 57c-75.333 50 -113 125 -113 225s36.667 178.667 110 236c72.667 56.667 173.334 85 302.001 85c148 0 271.333 -45.667 370 -137l-139 -159
c-56 47.333 -129.667 70.333 -221 69c-108 0 -162 -26 -162 -78c0 -26.667 20.667 -49 62 -67c18.667 -8.66699 36.667 -16 54 -22c10 -4 32 -10.333 66 -19c51.333 -13.333 98 -27.666 140 -42.999c34 -14 71.667 -32.667 113 -56c78.667 -48 118 -123 118 -225zM698 1526
l129 -129l-344 -248l-348 246l133 131l215 -156z" />
    <glyph glyph-name="uni0162" unicode="&#x162;" horiz-adv-x="1349" 
d="M29 1192v242h1292v-242h-498v-1192h-295v1192h-499zM797 -72l-135 -338h-146l49 338h232z" />
    <glyph glyph-name="uni0163" unicode="&#x163;" horiz-adv-x="870" 
d="M203 813l-184.998 -0.00195312v211h185v172l272 104v-276h301v-211h-301v-481c0 -35.333 10.333 -63.666 31 -84.999s48 -32 82 -32c41.333 0 77.333 13.667 108 41l135 -131c-28.667 -45.333 -68.834 -80.833 -120.501 -106.5s-108.834 -38.5 -171.501 -38.5
c-96 0 -175.667 29.333 -239 88c-64.667 58.667 -97 134.334 -97 227.001v518zM612.002 -72.002l-135 -338h-147l51 338h231z" />
    <glyph glyph-name="Tcaron" unicode="&#x164;" horiz-adv-x="1349" 
d="M528 1192h-499v242h1292v-242h-498v-1192h-295v1192zM676 1499l-348 244l133 133l215 -156l215 156l129 -131z" />
    <glyph glyph-name="tcaron" unicode="&#x165;" horiz-adv-x="870" 
d="M203 813l-184.998 -0.00195312v211h185v172l272 104v-276h301v-211h-301v-481c0 -35.333 10.333 -63.666 31 -84.999s48 -32 82 -32c41.333 0 77.333 13.667 108 41l135 -131c-28.667 -45.333 -68.834 -80.833 -120.501 -106.5s-108.834 -38.5 -171.501 -38.5
c-96 0 -175.667 29.333 -239 88c-64.667 58.667 -97 134.334 -97 227.001v518zM895.002 1485l-137 -371h-189l52 371h274z" />
    <glyph glyph-name="Tbar" unicode="&#x166;" horiz-adv-x="1349" 
d="M29 1192v242h1292v-242h-498v-414h244v-168h-244v-610h-295v610h-243v168h243v414h-499z" />
    <glyph glyph-name="tbar" unicode="&#x167;" horiz-adv-x="870" 
d="M475 1300l0.00195312 -276.002h301v-211h-301v-156h252v-168h-252v-157c0 -35.333 10.333 -63.666 31 -84.999s48 -32 82 -32c41.333 0 77.333 13.667 108 41l135 -131c-28.667 -45.333 -68.834 -80.833 -120.501 -106.5s-108.834 -38.5 -171.501 -38.5
c-96 0 -175.667 29.333 -239 88c-64.667 58.667 -97 134.334 -97 227.001v194h-164v168h164v156h-185v211h185v172z" />
    <glyph glyph-name="Utilde" unicode="&#x168;" horiz-adv-x="1513" 
d="M111 612l0.000976562 822h295v-822c0 -117.333 32 -210 96 -278c64 -68.667 148.667 -103 254 -103s190.333 34.333 255 103c64.667 67.333 97 160 97 278v822h295v-822c0 -192.667 -59.667 -346 -179 -460c-119.333 -114.667 -275.333 -172 -468 -172
s-348.334 57.333 -467.001 172c-118.667 114 -178 267.333 -178 460zM580.001 1544l-191.001 -0.00195312c0 78.667 24.333 142.334 73 191.001s112.334 73 191.001 73c51.333 0 97.666 -13.667 138.999 -41c40.667 -27.333 67.334 -41 80.001 -41c38.667 0 58.667 24 60 72
h190c0 -77.333 -24 -140.666 -72 -189.999c-49.333 -49.333 -112 -74 -188 -74c-50 0 -95.667 14 -137 42c-40.667 28 -68.667 42 -84 42c-18 0 -32.667 -6.83301 -44 -20.5s-17 -31.5 -17 -53.5z" />
    <glyph glyph-name="utilde" unicode="&#x169;" horiz-adv-x="1210" 
d="M111 387v636.997h272v-584c0 -69.333 20 -125.666 60 -168.999c39.333 -44 91 -66 155 -66c66.667 0 121.667 24.667 165 74c42.667 48.667 64 111.334 64 188.001v557h273v-1024h-273v104c-86.667 -83.333 -191.667 -124.666 -315 -123.999
c-120 0 -216.667 37.667 -290 113c-74 75.333 -111 173.333 -111 294zM428 1194l-190 -0.000976562c0 78.667 24.333 142.334 73 191.001c48 48.667 111.667 73 191 73c51.333 0 97.333 -13.667 138 -41s67.667 -41 81 -41c39.333 0 59 24 59 72h191
c0 -78 -24.333 -141.333 -73 -190c-49.333 -49.333 -111.666 -74 -186.999 -74c-50.667 0 -96 14 -136 42c-40.667 28 -68.334 42 -83.001 42c-19.333 0 -34.833 -6.83301 -46.5 -20.5s-17.5 -31.5 -17.5 -53.5z" />
    <glyph glyph-name="Umacron" unicode="&#x16a;" horiz-adv-x="1513" 
d="M1224 152c-119.333 -114.667 -275.332 -172 -467.999 -172s-348.334 57.333 -467.001 172s-178 268 -178 460v822h295v-822c0 -117.333 32 -210 96 -278c64 -68.667 148.667 -103 254 -103s190.333 34.333 255 103c64.667 67.333 97 160 97 278v822h295v-822
c0 -192.667 -59.667 -346 -179 -460zM1044 1552h-575v168h575v-168z" />
    <glyph glyph-name="umacron" unicode="&#x16b;" horiz-adv-x="1210" 
d="M111 387v636.997h272v-584c0 -69.333 20 -125.666 60 -168.999c39.333 -44 91 -66 155 -66c66.667 0 121.667 24.667 165 74c42.667 48.667 64 111.334 64 188.001v557h273v-1024h-273v104c-86.667 -83.333 -191.667 -124.666 -315 -123.999
c-120 0 -216.667 37.667 -290 113c-74 75.333 -111 173.333 -111 294zM317 1204v168h576v-168h-576z" />
    <glyph glyph-name="Ubreve" unicode="&#x16c;" horiz-adv-x="1513" 
d="M111 612l0.000976562 822h295v-822c0 -117.333 32 -210 96 -278c64 -68.667 148.667 -103 254 -103s190.333 34.333 255 103c64.667 67.333 97 160 97 278v822h295v-822c0 -192.667 -59.667 -346 -179 -460c-119.333 -114.667 -275.333 -172 -468 -172
s-348.334 57.333 -467.001 172c-118.667 114 -178 267.333 -178 460zM756.001 1534c-157.333 0 -275.667 60.667 -355 182l174 109c34.667 -66 95 -99.667 181 -101c86 0 146.667 33.667 182 101l172 -109c-77.333 -121.333 -195.333 -182 -354 -182z" />
    <glyph glyph-name="ubreve" unicode="&#x16d;" horiz-adv-x="1210" 
d="M111 387v636.997h272v-584c0 -69.333 20 -125.666 60 -168.999c39.333 -44 91 -66 155 -66c66.667 0 121.667 24.667 165 74c42.667 48.667 64 111.334 64 188.001v557h273v-1024h-273v104c-86.667 -83.333 -191.667 -124.666 -315 -123.999
c-120 0 -216.667 37.667 -290 113c-74 75.333 -111 173.333 -111 294zM604 1184c-156.667 0 -274.668 60.666 -354.001 181.999l174 111c34.667 -67.333 94.667 -101.666 180 -102.999c86.667 0 147.334 34.333 182.001 103l175 -111
c-79.333 -121.333 -198.333 -182 -357 -182z" />
    <glyph glyph-name="Uring" unicode="&#x16e;" horiz-adv-x="1513" 
d="M111 612l0.000976562 822h295v-822c0 -117.333 32 -210 96 -278c64 -68.667 148.667 -103 254 -103s190.333 34.333 255 103c64.667 67.333 97 160 97 278v822h295v-822c0 -192.667 -59.667 -346 -179 -460c-119.333 -114.667 -275.333 -172 -468 -172
s-348.334 57.333 -467.001 172s-178 268 -178 460zM565.001 1702c0 56 17.999 101.666 53.999 136.999c35.333 35.333 81 53 137 53c56.667 0 103.334 -17.667 140.001 -53c36 -35.333 54 -81 54 -137c0 -57.333 -18 -103.666 -54 -138.999c-36 -36 -82.667 -54 -140 -54
c-56 0 -101.667 18 -137 54c-36 34.667 -54 81 -54 139zM801 1747c-18.667 20 -42.001 24.332 -70.001 12.999s-41 -30.666 -39 -57.999c0 -19.333 6 -35.166 18 -47.499s27.333 -18.5 46 -18.5s33.834 6.16699 45.501 18.5s17.5 28.166 17.5 47.499c0 18 -6 33 -18 45z" />
    <glyph glyph-name="uring" unicode="&#x16f;" horiz-adv-x="1210" 
d="M111 387v636.997h272v-584c0 -69.333 20 -125.666 60 -168.999c39.333 -44 91 -66 155 -66c66.667 0 121.667 24.667 165 74c42.667 48.667 64 111.334 64 188.001v557h273v-1024h-273v104c-86.667 -83.333 -191.667 -124.666 -315 -123.999
c-120 0 -216.667 37.667 -290 113c-74 75.333 -111 173.333 -111 294zM604 1159c-56 0 -101.667 18 -137 54c-35.333 35.333 -53 81.666 -53 138.999c0 55.333 17.667 101.333 53 138c35.333 36 81 54 137 54c57.333 0 104.333 -18 141 -54c36 -36 54 -82 54 -138
c0 -57.333 -18 -103.666 -54 -138.999c-36.667 -36 -83.667 -54 -141 -54zM560 1398c-12.667 -12 -18.998 -27.5 -18.998 -46.5s5.66699 -34.167 17 -45.5c11.333 -12 26.666 -18 45.999 -18s35 6 47 18c11.333 11.333 17 26.5 17 45.5s-6 34.5 -18 46.5
c-12.667 11.333 -27.834 17 -45.501 17s-32.5 -5.66699 -44.5 -17z" />
    <glyph glyph-name="Uhungarumlaut" unicode="&#x170;" horiz-adv-x="1513" 
d="M1224 152c-119.333 -114.667 -275.332 -172 -467.999 -172s-348.334 57.333 -467.001 172s-178 268 -178 460v822h295v-822c0 -117.333 32 -210 96 -278c64 -68.667 148.667 -103 254 -103s190.333 34.333 255 103c64.667 67.333 97 160 97 278v822h295v-822
c0 -192.667 -59.667 -346 -179 -460zM1231 1733l-361 -236l-100 100l297 299zM479.001 1497l-100 100l297 299l164 -163z" />
    <glyph glyph-name="uhungarumlaut" unicode="&#x171;" horiz-adv-x="1210" 
d="M111 387v636.997h272v-584c0 -69.333 20 -125.666 60 -168.999c39.333 -44 91 -66 155 -66c66.667 0 121.667 24.667 165 74c42.667 48.667 64 111.334 64 188.001v557h273v-1024h-273v104c-86.667 -83.333 -191.667 -124.666 -315 -123.999
c-120 0 -216.667 37.667 -290 113c-74 75.333 -111 173.333 -111 294zM721 1147l-103 100l297 299l164 -164zM328 1147l-101 100l297 299l164 -164z" />
    <glyph glyph-name="Uogonek" unicode="&#x172;" horiz-adv-x="1513" 
d="M111 612l0.00195312 821.999h295v-822c0 -117.333 32 -210 96 -278c64 -68.667 148.667 -103 254 -103s190.333 34.333 255 103c64.667 67.333 97 160 97 278v822h295v-822c0 -162.667 -43 -297.667 -129 -405c-85.333 -107.333 -202 -177.666 -350 -210.999
c-76.667 -76.667 -115 -143.667 -115 -201c0 -39.333 18.333 -59 55 -59c21.333 0 43.333 7.33301 66 22l92 -98c-20.667 -26 -49.834 -47.5 -87.501 -64.5s-75.5 -25.5 -113.5 -25.5c-55.333 0 -100.333 17 -135 51c-35.333 34 -53 79.667 -53 137
c0 83.333 35.333 157.333 106 222c-188.667 4 -340.334 63.333 -455.001 178c-115.333 114 -173 265.333 -173 454z" />
    <glyph glyph-name="uogonek" unicode="&#x173;" horiz-adv-x="1210" 
d="M111 387l-0.00390625 636.998h272v-584c0 -69.333 20 -125.666 60 -168.999c39.333 -44 91 -66 155 -66c66.667 0 121.667 24.667 165 74c42.667 48.667 64 111.334 64 188.001v557h273v-1024h-45c-80.667 -78.667 -121 -147 -121 -205c0 -39.333 19 -59 57 -59
c21.333 0 43.333 7.33301 66 22l92 -98c-21.333 -26.667 -50.666 -48.334 -87.999 -65.001s-75.666 -25 -114.999 -25c-55.333 0 -100.166 17.167 -134.499 51.5s-51.5 79.833 -51.5 136.5c0 45.333 11 88 33 128c20.667 40.667 42.334 69.667 65.001 87l33 27h-64v104
c-86.667 -83.333 -191.667 -124.666 -315 -123.999c-120 0 -216.667 37.667 -290 113c-74 75.333 -111 173.333 -111 294z" />
    <glyph glyph-name="Wcircumflex" unicode="&#x174;" horiz-adv-x="2246" 
d="M487 0l-458 1434h299l311 -1047l338 1047h295l332 -1047l315 1047h299l-461 -1434h-307l-326 1038l-329 -1038h-308zM909 1501l-133 133l348 242l346 -242l-131 -133l-215 156z" />
    <glyph glyph-name="wcircumflex" unicode="&#x175;" horiz-adv-x="1648" 
d="M616 0h-256l-342 1024h269l209 -680l206 680h244l203 -680l213 680h268l-346 -1024h-254l-205 649zM825 1309l-215 -158l-133 133l348 242l346 -242l-131 -133z" />
    <glyph glyph-name="Ycircumflex" unicode="&#x176;" horiz-adv-x="1452" 
d="M578 0v530l-549 904h323l373 -631l375 631h321l-549 -904v-530h-294zM727 1657l-215 -156l-133 133l348 242l346 -242l-131 -133z" />
    <glyph glyph-name="ycircumflex" unicode="&#x177;" horiz-adv-x="1159" 
d="M18 -385l136 166c27.333 -19.333 57.333 -29 90 -29c76 0 135.333 52 178 156l43 92l-447 1024h281l291 -717l270 717h281l-490 -1204c-84.667 -200.667 -211.667 -301 -381 -301c-94 0 -178 32 -252 96zM580 1309l-215 -158l-132 133l347 242l348 -242l-133 -133z" />
    <glyph glyph-name="Ydieresis" unicode="&#x178;" horiz-adv-x="1452" 
d="M578 0v530l-549 904h323l373 -631l375 631h321l-549 -904v-530h-294zM815 1554v230h264v-230h-264zM639 1554h-264v230h264v-230z" />
    <glyph glyph-name="Zacute" unicode="&#x179;" horiz-adv-x="1333" 
d="M834 1192h-750v242h1165v-146l-764 -1046h779v-242h-1194v145zM483 1597l297 299l164 -163l-360 -236z" />
    <glyph glyph-name="zacute" unicode="&#x17a;" horiz-adv-x="1015" 
d="M569 813h-489v211h878v-125l-503 -688h514v-211h-899v125zM338 1247l297 299l164 -164l-361 -235z" />
    <glyph glyph-name="Zdotaccent" unicode="&#x17b;" horiz-adv-x="1333" 
d="M834 1192h-750v242h1165v-146l-764 -1046h779v-242h-1194v145zM801 1556h-275v228h275v-228z" />
    <glyph glyph-name="zdotaccent" unicode="&#x17c;" horiz-adv-x="1015" 
d="M569 813h-489v211h878v-125l-503 -688h514v-211h-899v125zM655 1206h-272v228h272v-228z" />
    <glyph glyph-name="Zcaron" unicode="&#x17d;" horiz-adv-x="1333" 
d="M834 1192h-750v242h1165v-146l-764 -1046h779v-242h-1194v145zM879 1876l131 -131l-346 -246l-347 244l132 133l215 -156z" />
    <glyph glyph-name="zcaron" unicode="&#x17e;" horiz-adv-x="1015" 
d="M569 813h-489v211h878v-125l-503 -688h514v-211h-899v125zM733 1526l131 -129l-346 -248l-346 246l131 131l215 -156z" />
    <glyph glyph-name="uni018F" unicode="&#x18f;" horiz-adv-x="1605" 
d="M795 -20c-216.667 0 -391.333 68.333 -524 205c-134 136 -201 313.333 -201 532c0 39.333 2 77.333 6 114h1134c-22.667 111.333 -76 201.333 -160 270c-84.667 67.333 -186.334 101 -305.001 101c-74 0 -144.333 -13 -211 -39s-117 -59.333 -151 -100l-170 180
c136.667 140.667 320.334 211 551.001 211c228 0 413.667 -68.667 557 -206s215 -315 215 -533c0 -217.333 -69 -394 -207 -530c-138.667 -136.667 -316.667 -205 -534 -205zM522.001 331c72.667 -66.667 161.668 -100.002 267.001 -100.002c104.667 0 195 33 271 99
c75.333 64.667 124.666 151.334 147.999 260.001h-811c11.333 -107.333 53 -193.666 125 -258.999z" />
    <glyph glyph-name="florin" unicode="&#x192;" horiz-adv-x="837" 
d="M-342 -369l165.999 160.001c24.667 -24.667 61.334 -37 110.001 -37c40 0 75 15.167 105 45.5s49.667 70.5 59 120.5l140 791h-187l39 211h184l33 192c20.667 115.333 72.667 209.666 156 282.999c83.333 72 181 108 293 108c117.333 0 206.666 -41 267.999 -123
l-168 -163c-26.667 34 -65 51 -115 51c-39.333 0 -73.666 -13 -102.999 -39s-47.333 -59.667 -54 -101l-37 -208h303l-37 -211h-303l-141 -799c-20.667 -116 -72.667 -210 -156 -282c-83.333 -71.333 -181.666 -107 -294.999 -107
c-114.667 -0.666992 -201.334 35.333 -260.001 108z" />
    <glyph glyph-name="uni01DD" unicode="&#x1dd;" horiz-adv-x="1163" 
d="M66 610l747 0.000976562c-8.66699 60 -43.334 109 -104.001 147c-61.333 37.333 -133.666 56 -216.999 56c-104.667 0 -183.334 -23.333 -236.001 -70l-147 148c102.667 102.667 241 153.667 415 153c172.667 0 312.334 -50.333 419.001 -151
c107.333 -101.333 161 -232.333 161 -393c0 -152.667 -48.333 -277.334 -145 -374.001c-97.333 -97.333 -222.333 -146 -375 -146c-155.333 0 -281.666 50 -378.999 150c-97.333 99.333 -146 228 -146 386c1.33301 32 3.66602 63.333 6.99902 94zM809 408.001h-464.998
c-1.33301 -58.667 18.667 -106.667 60 -144c41.333 -38 93.666 -57 156.999 -57s118.666 19 165.999 57c46.667 36.667 74 84.667 82 144z" />
    <glyph glyph-name="Aringacute" unicode="&#x1fa;" horiz-adv-x="1615" 
d="M338 0h-308.998l616 1407c-19.333 30.667 -29 66 -29 106c0 57.333 18 104 54 140c35.333 35.333 81.666 53 138.999 53c29.333 0 56.666 -5.33301 81.999 -16l239 241l164 -164l-301 -196c5.33301 -18 8 -37.333 8 -58c0 -42 -10 -78 -30 -108l616 -1405h-309l-125 293
h-690zM1049 535l-240 563l-242 -563h482zM809.002 1579c-19.333 0 -35.166 -5.99902 -47.499 -17.999s-18.5 -27.667 -18.5 -47c0 -18.667 6.16699 -34 18.5 -46s28.166 -18 47.499 -18c18 0 32.667 6 44 18s17 27 17 45c0 19.333 -5.66699 35.166 -17 47.499
s-26 18.5 -44 18.5z" />
    <glyph glyph-name="aringacute" unicode="&#x1fb;" horiz-adv-x="1122" 
d="M80 281c0 105.333 47.668 191.001 143.001 257.001s217.666 99 366.999 99c56.667 0 110 -4.66699 160 -14v55c0 39.333 -19.667 71.666 -59 96.999c-40.667 25.333 -92 38 -154 38c-108.667 0 -206.334 -30.667 -293.001 -92l-129 160c48 49.333 112.667 89 194 119
c82 29.333 167.333 44 256 44c134 0 243.667 -33 329 -99s128 -151 128 -255v-690h-272v96c-85.333 -78 -190.666 -116.667 -315.999 -116c-104 0 -189 28 -255 84s-99 128.333 -99 217zM551.001 1159c-56.667 0 -102.333 18 -137 54c-36 35.333 -54 81.666 -54 138.999
c0 56 18 102 54 138c35.333 36 81 54 137 54c21.333 0 43 -3.33301 65 -10l236 238l164 -164l-283 -185c8 -22 12 -45.667 12 -71c0 -57.333 -18 -103.666 -54 -138.999c-36 -36 -82.667 -54 -140 -54zM367.002 311.001c0 -32.667 15.333 -59.332 46 -79.999
c31.333 -21.333 69 -32 113 -32c65.333 0 119 22 161 66c42 43.333 63 100.333 63 171c-40 11.333 -86 17.666 -138 18.999c-72.667 0 -131.667 -13.667 -177 -41c-45.333 -28 -68 -62.333 -68 -103zM596.002 1398c-12 11.333 -26.998 17 -44.998 17s-33 -5.66699 -45 -17
c-12.667 -12 -19 -27.5 -19 -46.5s6 -34.167 18 -45.5c11.333 -12 26.666 -18 45.999 -18s34.666 6 45.999 18c11.333 11.333 17 26.5 17 45.5s-6 34.5 -18 46.5z" />
    <glyph glyph-name="AEacute" unicode="&#x1fc;" horiz-adv-x="2076" 
d="M506 293l-160 -293h-317l788 1434h1159v-242h-700v-344h637v-242h-637v-364h723v-242h-1018v293h-475zM981 535v626l-342 -626h342zM1133 1497l-101 100l297 299l164 -163z" />
    <glyph glyph-name="aeacute" unicode="&#x1fd;" horiz-adv-x="1835" 
d="M80 281c0 105.333 47.6699 191.002 143.003 257.002s217.666 99 366.999 99c56.667 0 110 -4.66699 160 -14v55c0 39.333 -19.667 71.666 -59 96.999c-40.667 25.333 -92 38 -154 38c-108.667 0 -206.334 -30.667 -293.001 -92l-129 160
c48.667 49.333 113.667 89 195 119c82 29.333 167.667 44 257 44c150 0 264 -40.667 342 -122c90.667 82 204.667 122.667 342 122c155.333 0 281.666 -49.667 378.999 -149c97.333 -100.667 146 -229.667 146 -387c0 -30.667 -2.33301 -61.334 -7 -92.001h-747
c9.33301 -60 44.333 -109 105 -147c59.333 -38.667 131.333 -58 216 -58c102.667 0 181.334 23.333 236.001 70l147 -148c-102.667 -102.667 -241 -153.667 -415 -153c-188.667 0 -333.334 60 -434.001 180c-103.333 -120 -251 -180 -443 -180c-104 0 -189 28 -255 84
s-99 128.333 -99 217zM612.003 455.002c-72 0 -130.667 -13.667 -176 -41c-44.667 -26.667 -67 -61 -67 -103c0 -32 15 -58.667 45 -80s67.333 -32 112 -32c65.333 0 119 22 161 66c42 43.333 63 100.333 63 171c-38 12.667 -84 19 -138 19zM1026 616.002l465 0.000976562
c0 60 -20 108.667 -60 146c-40.667 36.667 -93 55 -157 55c-66 0 -121.667 -18.333 -167 -55c-46 -36.667 -73 -85.334 -81 -146.001zM834.003 1147l-103 100l297 299l164 -164z" />
    <glyph glyph-name="Oslashacute" unicode="&#x1fe;" horiz-adv-x="1646" 
d="M145 35l129 153.001c-136 134 -204 310.333 -204 529c0 217.333 69.667 394.666 209 531.999c138.667 136.667 320 205 544 205c159.333 0 299.333 -36 420 -108l135 161l129 -106l-133 -158c136.667 -136.667 205 -312 205 -526c0 -218.667 -70 -396 -210 -532
c-139.333 -136.667 -321.333 -205 -546 -205c-155.333 0 -294.333 35.333 -417 106l-134 -158zM469 422.001l593.999 707.999c-67.333 48 -147.333 72 -240 72c-125.333 0 -229.666 -45.667 -312.999 -137s-125 -207.333 -125 -348c0 -111.333 28 -209.666 84 -294.999z
M1180 1012l-594 -708.999c68 -48 147 -72 237 -72c130 0 235.667 46 317 138c81.333 91.333 122 207.333 122 348c0 115.333 -27.333 213.666 -82 294.999zM740.999 1497l-100 100l297 299l164 -163z" />
    <glyph glyph-name="oslashacute" unicode="&#x1ff;" horiz-adv-x="1239" 
d="M59 512c0 157.333 52.334 285.332 157.001 383.999s239.667 148 405 148c104 0 198 -21 282 -63l84 100l129 -106l-78 -92c94.667 -100 142.667 -223.667 144 -371c0 -157.333 -52.333 -285.333 -157 -384s-239.334 -148 -404.001 -148c-104.667 0 -199.667 21 -285 63
l-82 -98l-127 108l74 88c-94.667 98.667 -142 222.334 -142 371.001zM862.001 671.999l-368 -441.001c36.667 -20.667 79 -30.667 127 -30c80.667 0 147 29 199 87c51.333 58.667 77 133.334 77 224.001c0 58.667 -11.667 112 -35 160zM379.001 353.998l365.999 441.001
c-39.333 19.333 -80.666 28.666 -123.999 27.999c-80.667 0 -147 -29 -199 -87s-78 -132.667 -78 -224c0 -57.333 11.667 -110 35 -158zM541 1147l-101 100l295 299l166 -164z" />
    <glyph glyph-name="uni0218" unicode="&#x218;" horiz-adv-x="1222" 
d="M1155 408c0 -122.667 -50.665 -224.666 -151.998 -305.999c-102.667 -81.333 -232.334 -122 -389.001 -122c-103.333 0 -203.666 17.333 -300.999 52c-98 34.667 -179 80.667 -243 138l147 188c41.333 -36 96 -66.333 164 -91c67.333 -24 135.666 -36 204.999 -36
c81.333 0 147.666 15.333 198.999 46c51.333 30 77 68 77 114c0 35.333 -20 67 -60 95c-42 28.667 -112 59.334 -210 92.001c-178.667 59.333 -306 124.666 -382 195.999c-77.333 71.333 -116 158 -116 260c0 122 46.667 222.667 140 302c92.667 78.667 212.667 118 360 118
c94 0 188 -16.667 282 -50c92 -32.667 166.667 -75.334 224 -128.001l-142 -193c-33.333 33.333 -81 61.666 -143 84.999c-60 22.667 -122 34 -186 34c-71.333 0 -129.333 -14.333 -174 -43c-45.333 -29.333 -68 -66.666 -68 -111.999c0 -38 20 -71 60 -99
c38 -28.667 108 -60 210 -94c176 -60 303 -125 381 -195c78 -71.333 117 -155 117 -251zM600.002 -409.999h-145l49 338h231z" />
    <glyph glyph-name="uni0219" unicode="&#x219;" horiz-adv-x="956" 
d="M897 307c0 -101.333 -39.667 -181 -119 -239c-78.667 -58.667 -185.667 -88 -321 -88c-159.333 0 -295.333 49 -408 147l137 160c69.333 -53.333 157.666 -80 264.999 -80c56 0 100.667 7.5 134 22.5s50 35.5 50 61.5c0 22.667 -13.167 41 -39.5 55
s-72.5 29.667 -138.5 47c-18 3.33301 -29 6 -33 8c-44 11.333 -85 24.666 -123 39.999c-31.333 12.667 -66 31.667 -104 57c-75.333 50 -113 125 -113 225s36.667 178.667 110 236c72.667 56.667 173.334 85 302.001 85c148 0 271.333 -45.667 370 -137l-139 -159
c-56 47.333 -129.667 70.333 -221 69c-108 0 -162 -26 -162 -78c0 -26.667 20.667 -49 62 -67c18.667 -8.66699 36.667 -16 54 -22c10 -4 32 -10.333 66 -19c51.333 -13.333 98 -27.666 140 -42.999c34 -14 71.667 -32.667 113 -56c78.667 -48 118 -123 118 -225zM467 -410
h-148l52 338h229z" />
    <glyph glyph-name="uni021A" unicode="&#x21a;" horiz-adv-x="1349" 
d="M29 1192v242h1292v-242h-498v-1192h-295v1192h-499zM797 -72l-135 -338h-146l49 338h232z" />
    <glyph glyph-name="uni021B" unicode="&#x21b;" horiz-adv-x="870" 
d="M203 813l-184.998 -0.00195312v211h185v172l272 104v-276h301v-211h-301v-481c0 -35.333 10.333 -63.666 31 -84.999s48 -32 82 -32c41.333 0 77.333 13.667 108 41l135 -131c-28.667 -45.333 -68.834 -80.833 -120.501 -106.5s-108.834 -38.5 -171.501 -38.5
c-96 0 -175.667 29.333 -239 88c-64.667 58.667 -97 134.334 -97 227.001v518zM612.002 -72.002l-135 -338h-147l51 338h231z" />
    <glyph glyph-name="uni0237" unicode="&#x237;" horiz-adv-x="524" 
d="M-246 -369l137 160c28.667 -24.667 67.667 -37 117 -37c40 0 72.167 15.167 96.5 45.5s36.5 70.5 36.5 120.5v1104h275v-1112c0 -116.667 -35.333 -210.667 -106 -282c-70.667 -70.667 -163 -106.667 -277 -108c-113.333 0 -206.333 36.333 -279 109z" />
    <glyph glyph-name="uni0259" unicode="&#x259;" horiz-adv-x="1163" 
d="M66 610l747 0.000976562c-8.66699 60 -43.334 109 -104.001 147c-61.333 37.333 -133.666 56 -216.999 56c-104.667 0 -183.334 -23.333 -236.001 -70l-147 148c102.667 102.667 241 153.667 415 153c172.667 0 312.334 -50.333 419.001 -151
c107.333 -101.333 161 -232.333 161 -393c0 -152.667 -48.333 -277.334 -145 -374.001c-97.333 -97.333 -222.333 -146 -375 -146c-155.333 0 -281.666 50 -378.999 150c-97.333 99.333 -146 228 -146 386c1.33301 32 3.66602 63.333 6.99902 94zM809 408.001h-464.998
c-1.33301 -58.667 18.667 -106.667 60 -144c41.333 -38 93.666 -57 156.999 -57s118.666 19 165.999 57c46.667 36.667 74 84.667 82 144z" />
    <glyph glyph-name="circumflex" unicode="&#x2c6;" horiz-adv-x="899" 
d="M236 1151l-134 133l349 242l346 -242l-131 -133l-215 158z" />
    <glyph glyph-name="caron" unicode="&#x2c7;" horiz-adv-x="897" 
d="M666 1526l129 -129l-344 -248l-349 246l134 131l215 -156z" />
    <glyph glyph-name="breve" unicode="&#x2d8;" horiz-adv-x="913" 
d="M102 1366l171.999 111c37.333 -68 98.333 -102 183 -102c84.667 -0.666992 145.334 33.333 182.001 102l172 -111c-78 -121.333 -196 -182 -354 -182c-158.667 0 -277 60.667 -355 182z" />
    <glyph glyph-name="dotaccent" unicode="&#x2d9;" horiz-adv-x="479" 
d="M377 1206h-275v228h275v-228z" />
    <glyph glyph-name="ring" unicode="&#x2da;" horiz-adv-x="591" 
d="M102 1352c0 56 18 102 54 138c34.667 36 81 54 139 54c55.333 0 101.666 -18 138.999 -54c36.667 -36 55 -82 55 -138c0 -57.333 -18 -103.666 -54 -138.999c-36 -36 -82.667 -54 -140 -54s-103.666 18 -138.999 54c-36 35.333 -54 81.666 -54 138.999zM248 1398
c-20.667 -18.667 -25.167 -42.333 -13.5 -71s31.834 -41.667 60.501 -39c18 0 32.667 5.83301 44 17.5s17 27.167 17 46.5c0 18 -5.66699 33 -17 45s-26 18 -44 18c-18.667 0 -34.334 -5.66699 -47.001 -17z" />
    <glyph glyph-name="ogonek" unicode="&#x2db;" horiz-adv-x="593" 
d="M201 -27l32 27h164c-80.667 -78.667 -121 -147 -121 -205c0 -39.333 19.333 -59 58 -59c20.667 0 42.334 7.33301 65.001 22l93 -98c-20.667 -26 -49.834 -47.5 -87.501 -64.5s-76.167 -25.5 -115.5 -25.5c-55.333 0 -100.333 17.167 -135 51.5s-52 79.833 -52 136.5
c0 45.333 11 88 33 128c22 41.333 44 70.333 66 87z" />
    <glyph glyph-name="tilde" unicode="&#x2dc;" horiz-adv-x="937" 
d="M356 1268c-19.333 0 -34.665 -6.83301 -45.998 -20.5s-17 -30.834 -17 -51.501h-191c0 76.667 24.667 139.667 74 189c48.667 48.667 112.334 73 191.001 73c34.667 0.666992 67.167 -6 97.5 -20s55.666 -28 75.999 -42s36.166 -20.667 47.499 -20
c17.333 0 31.166 6.66699 41.499 20s15.5 30.666 15.5 51.999h191c0 -78 -24 -141 -72 -189c-48 -48.667 -110 -73 -186 -73c-28 -0.666992 -54.5 3.33301 -79.5 12s-44.833 18.334 -59.5 29.001s-29.667 20.334 -45 29.001s-28 12.667 -38 12z" />
    <glyph glyph-name="hungarumlaut" unicode="&#x2dd;" horiz-adv-x="1044" 
d="M96 1247l297 299l164 -164l-360 -235zM487 1247l297 299l164 -164l-360 -235z" />
    <glyph glyph-name="uni0400" unicode="&#x400;" horiz-adv-x="1275" 
d="M119 0v1434h1057v-242h-762v-344h698v-242h-698v-364h784v-242h-1079zM834 1597l-101 -100l-362 236l164 163z" />
    <glyph glyph-name="uni0401" unicode="&#x401;" horiz-adv-x="1275" 
d="M1198 0h-1079v1434h1057v-242h-762v-344h698v-242h-698v-364h784v-242zM1006 1784v-230h-265v230h265zM301 1554v230h264v-230h-264z" />
    <glyph glyph-name="uni0402" unicode="&#x402;" horiz-adv-x="1718" 
d="M29 1192l0.000976562 242h1292v-242h-500v-373c94.667 49.333 203.334 74 326.001 74c152.667 0 276.334 -42 371.001 -126c94 -84 141 -198.333 141 -343c0 -133.333 -38 -240.333 -114 -321c-76.667 -82 -176 -123 -298 -123c-118 0 -214.333 36 -289 108l138 160
c28.667 -24.667 66 -37 112 -37c49.333 0 87.666 15.667 114.999 47s41 75 41 131c0 80.667 -27.667 143.667 -83 189c-54.667 44.667 -127.334 67 -218.001 67c-88.667 0 -169.334 -22.333 -242.001 -67v-578h-295v1192h-497z" />
    <glyph glyph-name="uni0403" unicode="&#x403;" horiz-adv-x="1142" 
d="M119 0v1434h995v-242h-700v-1192h-295zM442 1597l297 299l164 -163l-360 -236z" />
    <glyph glyph-name="uni0404" unicode="&#x404;" horiz-adv-x="1394" 
d="M809 -20c-220 0 -397.999 68.334 -533.999 205.001c-136.667 136 -205 312.667 -205 530c0 218.667 68.667 396.667 206 534c136.667 136.667 313.667 205 531 205c216 0 396.333 -70.333 541 -211l-172 -178c-32.667 40.667 -81 74 -145 100c-64.667 26 -132 39 -202 39
c-110 0 -203.333 -32.333 -280 -97c-78.667 -65.333 -129.334 -152.333 -152.001 -261h713v-244h-715c22 -112.667 72 -202.334 150 -269.001c78 -68 172.667 -102 284 -102c68.667 0 135.667 13 201 39c64 26 112.667 59.667 146 101l172 -181
c-138 -140 -317.667 -210 -539 -210z" />
    <glyph glyph-name="uni0405" unicode="&#x405;" horiz-adv-x="1222" 
d="M1155 408c0 -122.667 -50.6641 -224.667 -151.997 -306c-102.667 -81.333 -232.334 -122 -389.001 -122c-103.333 0 -203.666 17.333 -300.999 52c-98 34.667 -179 80.667 -243 138l147 188c41.333 -36 96 -66.333 164 -91c67.333 -24 135.666 -36 204.999 -36
c81.333 0 147.666 15.333 198.999 46c51.333 30 77 68 77 114c0 35.333 -20 67 -60 95c-42 28.667 -112 59.334 -210 92.001c-178.667 59.333 -306 124.666 -382 195.999c-77.333 71.333 -116 158 -116 260c0 122 46.667 222.667 140 302c92.667 78.667 212 118 358 118
c95.333 0 190 -16.667 284 -50c92 -32.667 166.667 -75.334 224 -128.001l-144 -193c-32.667 34 -79.334 62.333 -140.001 85c-60 22.667 -122.333 34 -187 34c-71.333 0 -129.333 -14.333 -174 -43c-45.333 -29.333 -68 -66.666 -68 -111.999c0 -38 20 -71 60 -99
c38 -28.667 108 -60 210 -94c176 -60 303 -125 381 -195c78 -71.333 117 -155 117 -251z" />
    <glyph glyph-name="uni0406" unicode="&#x406;" horiz-adv-x="534" 
d="M414 1434v-1434h-295v1434h295z" />
    <glyph glyph-name="uni0407" unicode="&#x407;" horiz-adv-x="534" 
d="M119 0v1434h295v-1434h-295zM618 1554h-262v230h262v-230zM-84 1554v230h262v-230h-262z" />
    <glyph glyph-name="uni0408" unicode="&#x408;" horiz-adv-x="1085" 
d="M680 492v941.999h295v-942c0 -154.667 -49.667 -278.667 -149 -372c-100.667 -93.333 -230.667 -140 -390 -140c-164 0 -300.333 51 -409 153l166 189c52.667 -59.333 129 -89.666 229 -90.999c76.667 0 139 24.333 187 73c47.333 49.333 71 112 71 188z" />
    <glyph glyph-name="uni0409" unicode="&#x409;" horiz-adv-x="2324" 
d="M203 -20c-72 0 -129.999 10.668 -173.999 32.001l45 215c20 -9.33301 43.667 -14 71 -14c24.667 0 45.334 7.33301 62.001 22c15.333 13.333 31.666 44.333 48.999 93c17.333 46.667 30.333 113.667 39 201c22 200 33 501.667 33 905h1075v-535h405
c135.333 0 245.333 -42.333 329.999 -127c84.667 -84.667 127 -192.334 127 -323.001c0 -133.333 -42.333 -241.333 -127 -324c-85.333 -83.333 -195.333 -125 -330 -125h-700v1192h-498c0 -334.667 -14.667 -591.667 -44 -771c-28.667 -176 -70.667 -293.667 -126 -353
c-54.667 -58.667 -133.667 -88 -237 -88zM1776 655.001h-373v-413h373c58.667 0 105.667 18.5 141 55.5s53 87.5 53 151.5c0 62.667 -17.667 112.667 -53 150s-82.333 56 -141 56z" />
    <glyph glyph-name="uni040A" unicode="&#x40a;" horiz-adv-x="2326" 
d="M414 625v-625.001h-295v1434h295v-568h696v568h295v-568h403c136 0 246.333 -40.333 331 -121c85.333 -81.333 128 -185.666 128 -312.999c0 -129.333 -42.333 -233.333 -127 -312c-85.333 -80 -196 -120 -332 -120h-698v625h-696zM1778 624.999h-372.999v-383h373
c58.667 0 105.667 17.167 141 51.5s53 80.5 53 138.5c0 57.333 -18 104 -54 140c-36.667 35.333 -83.334 53 -140.001 53z" />
    <glyph glyph-name="uni040B" unicode="&#x40b;" horiz-adv-x="1757" 
d="M526 1192h-497.002v242h1292v-242h-500v-373c94.667 49.333 203.334 74 326.001 74c152.667 0 276.334 -42.333 371.001 -127c94 -85.333 141 -201.333 141 -348v-418h-295v342c0 96 -27.667 170.667 -83 224c-54.667 52.667 -128.667 79 -222 79
c-86 0 -165.333 -22.333 -238 -67v-578h-295v1192z" />
    <glyph glyph-name="uni040C" unicode="&#x40c;" horiz-adv-x="1417" 
d="M414 616v-616h-295v1434h295v-576h159l433 576h344l-527 -695l555 -739h-340l-471 616h-153zM979 1733l-361 -236l-100 100l297 299z" />
    <glyph glyph-name="uni040D" unicode="&#x40d;" horiz-adv-x="1564" 
d="M412 0h-293v1434h295v-996l739 996h293v-1434h-295v987zM965 1597l-101 -100l-362 236l164 163z" />
    <glyph glyph-name="uni040E" unicode="&#x40e;" horiz-adv-x="1443" 
d="M557 373l40.999 80.001l-569 981h319l397 -693l359 693h311l-604 -1164c-100 -194.667 -242.667 -291.334 -428 -290.001c-136.667 0 -243.334 44.333 -320.001 133l160 178c38.667 -38.667 89.334 -58.667 152.001 -60c70.667 0 131.334 47.333 182.001 142z
M962.999 1617c-62.667 -55.333 -142.667 -83.001 -240 -83.001c-98 0 -177.667 28 -239 84c-60.667 56 -91 129 -91 219h209c0 -34 11 -61.333 33 -82s51.333 -31 88 -31c35.333 0 64 10.333 86 31s33 48 33 82h213c0 -91.333 -30.667 -164.666 -92 -219.999z" />
    <glyph glyph-name="uni040F" unicode="&#x40f;" horiz-adv-x="1554" 
d="M641 0h-522v1434h295v-1192h727v1192h295v-1434h-523v-328h-272v328z" />
    <glyph glyph-name="uni0410" unicode="&#x410;" horiz-adv-x="1615" 
d="M338 0h-309l626 1434h303l629 -1434h-309l-125 293h-690zM1049 535l-242 563l-240 -563h482z" />
    <glyph glyph-name="uni0411" unicode="&#x411;" horiz-adv-x="1357" 
d="M838 0h-718.999v1434h1034v-242h-739v-293h424c136 0 246.333 -42.333 331 -127s127 -192.334 127 -323.001c0 -133.333 -42 -241.666 -126 -324.999c-84.667 -82.667 -195.334 -124 -332.001 -124zM807.001 655h-393v-413h393c58.667 0 105.667 18.5 141 55.5
s53 87.5 53 151.5c0 61.333 -18 111 -54 149s-82.667 57 -140 57z" />
    <glyph glyph-name="uni0412" unicode="&#x412;" horiz-adv-x="1406" 
d="M926 0l-806.999 -0.000976562v1434h780c112.667 0 204.667 -33.667 276 -101c70 -68 105 -155.333 105 -262c0 -70.667 -16 -133.667 -48 -189s-76.667 -98 -134 -128c73.333 -22.667 131.666 -66.667 174.999 -132c42.667 -64.667 64 -141.667 64 -231
c0 -117.333 -37.667 -211.666 -113 -282.999c-76 -72 -175.333 -108 -298 -108zM817.001 615.999h-403v-385h403c60.667 0 110.667 18.667 150 56c38 36.667 57 83.667 57 141c0 56 -19 101.333 -57 136s-88 52 -150 52zM414.001 1202l0.000976562 -344.001h389
c51.333 0 93.666 16 126.999 48c32.667 32 49 72.667 49 122c0 50.667 -16.333 92.334 -49 125.001s-75 49 -127 49h-389z" />
    <glyph glyph-name="uni0413" unicode="&#x413;" horiz-adv-x="1142" 
d="M119 0v1434h995v-242h-700v-1192h-295z" />
    <glyph glyph-name="uni0414" unicode="&#x414;" horiz-adv-x="1685" 
d="M334 -328h-295v570h188c36.667 52.667 64 168.667 82 348c18 178.667 27 460 27 844h1106v-1192h205v-570h-275v328h-1038v-328zM537 242h610v950h-529c1.33301 -449.333 -25.667 -766 -81 -950z" />
    <glyph glyph-name="uni0415" unicode="&#x415;" horiz-adv-x="1275" 
d="M119 0v1434h1057v-242h-762v-344h698v-242h-698v-364h784v-242h-1079z" />
    <glyph glyph-name="uni0416" unicode="&#x416;" horiz-adv-x="2140" 
d="M811 616l-430 -616h-342l522 739l-489 695h340l391 -576h119v576h295v-576h118l394 576h339l-491 -695l524 -739h-342l-430 616h-112v-616h-295v616h-111z" />
    <glyph glyph-name="uni0417" unicode="&#x417;" horiz-adv-x="1271" 
d="M582 231c89.333 0 162.667 19.332 220 57.999c58 38 87 88.333 87 151c0 51.333 -20.333 93.333 -61 126c-41.333 33.333 -95.333 50 -162 50h-256v242h241c57.333 0 105.333 15.333 144 46c38 30.667 57 68.667 57 114c0 56 -25.667 101 -77 135
s-115.666 51 -192.999 51c-70.667 0 -138.667 -14 -204 -42c-66 -28 -115.667 -63.667 -149 -107l-170 178c143.333 147.333 325.666 221 546.999 221c158.667 0 289.667 -35.667 393 -107c102.667 -72 154 -166 154 -282c0 -65.333 -17.667 -125.666 -53 -180.999
s-81.666 -98.666 -138.999 -129.999c72.667 -24.667 131 -69 175 -133c44 -64.667 66 -137.334 66 -218.001c0 -128 -55.667 -230.667 -167 -308c-110.667 -76.667 -254.334 -115 -431.001 -115c-234.667 0 -419.667 73.667 -555 221l170 180
c34 -46 83.667 -82.333 149 -109c66.667 -27.333 138 -41 214 -41z" />
    <glyph glyph-name="uni0418" unicode="&#x418;" horiz-adv-x="1564" 
d="M412 0h-293v1434h295v-996l739 996h293v-1434h-295v987z" />
    <glyph glyph-name="uni0419" unicode="&#x419;" horiz-adv-x="1564" 
d="M1151 987l-739 -987h-293v1434h295v-996l739 996h293v-1434h-295v987zM453 1837l208.999 -0.000976562c0 -34 10.833 -61.333 32.5 -82s50.834 -31 87.501 -31c36 0 65.167 10.333 87.5 31s33.5 48 33.5 82h211c0 -91.333 -30.667 -164.666 -92 -219.999
s-141.333 -83 -240 -83c-97.333 0 -176.333 28 -237 84c-61.333 56 -92 129 -92 219z" />
    <glyph glyph-name="uni041A" unicode="&#x41a;" horiz-adv-x="1417" 
d="M119 0v1434h295v-576h159l433 576h344l-527 -695l555 -739h-340l-471 616h-153v-616h-295z" />
    <glyph glyph-name="uni041B" unicode="&#x41b;" horiz-adv-x="1542" 
d="M328 1434h1095v-1434h-295v1192h-518c0 -334.667 -14.667 -591.667 -44 -771c-28.667 -175.333 -71 -293 -127 -353c-54.667 -58.667 -133.334 -88 -236.001 -88c-72 0 -130 10.667 -174 32l45 215c20 -9.33301 43.667 -14 71 -14c24.667 0 45.334 7.33301 62.001 22
c15.333 13.333 31.666 44.333 48.999 93c17.333 46.667 30.333 113.667 39 201c22 200 33 501.667 33 905z" />
    <glyph glyph-name="uni041C" unicode="&#x41c;" horiz-adv-x="1857" 
d="M119 0v1434h387l424 -908l422 908h385v-1434h-283v1020l-420 -899h-209l-422 899v-1020h-284z" />
    <glyph glyph-name="uni041D" unicode="&#x41d;" horiz-adv-x="1564" 
d="M414 0h-295v1434h295v-588h737v588h295v-1434h-295v604h-737v-604z" />
    <glyph glyph-name="uni041E" unicode="&#x41e;" horiz-adv-x="1646" 
d="M279 185c-139.333 136 -209 313.334 -209 532.001c0 217.333 69.667 394.666 209 531.999c138.667 136.667 320 205 544 205c223.333 0 404.666 -68.333 543.999 -205c140 -136.667 210 -314 210 -532c0 -218.667 -70 -396 -210 -532
c-139.333 -136.667 -320.666 -205 -543.999 -205c-224 0 -405.333 68.333 -544 205zM510 1065c-83.333 -91.333 -125.001 -207.333 -125.001 -348s41.667 -256.667 125 -348c82.667 -92 187 -138 313 -138c128.667 0 234 46 316 138c82 91.333 123 207.333 123 348
s-41 256.667 -123 348s-187.333 137 -316 137c-125.333 0 -229.666 -45.667 -312.999 -137z" />
    <glyph glyph-name="uni041F" unicode="&#x41f;" horiz-adv-x="1564" 
d="M414 0h-295v1434h1327v-1434h-295v1192h-737v-1192z" />
    <glyph glyph-name="uni0420" unicode="&#x420;" horiz-adv-x="1337" 
d="M414 532l0.000976562 -532h-295v1434h700c134.667 0 244.667 -41.667 330 -125c84.667 -82.667 127 -190.667 127 -324c0 -132 -42.667 -240.667 -128 -326c-84.667 -84.667 -194.334 -127 -329.001 -127h-405zM414.001 1192l0.000976562 -416h372
c58.667 0 106 19.667 142 59c35.333 39.333 53 90 53 152s-17.833 111.667 -53.5 149s-82.834 56 -141.501 56h-372z" />
    <glyph glyph-name="uni0421" unicode="&#x421;" horiz-adv-x="1394" 
d="M1176 371l171.999 -181c-138 -141.333 -317.667 -211.333 -539 -210c-220 0 -398 68.333 -534 205c-136.667 136 -205 312.667 -205 530c0 218.667 68.667 396.667 206 534c136.667 136.667 313.667 205 531 205c216 0 396.333 -70.333 541 -211l-172 -178
c-32.667 40.667 -81 74 -145 100c-64.667 26 -132 39 -202 39c-131.333 0 -238 -45.333 -320 -136c-82.667 -90.667 -124 -207.667 -124 -351c0 -142 41.333 -258.333 124 -349c83.333 -91.333 190 -137 320 -137c70 0 137 13.333 201 40
c64.667 26 113.334 59.333 146.001 100z" />
    <glyph glyph-name="uni0422" unicode="&#x422;" horiz-adv-x="1349" 
d="M29 1192v242h1292v-242h-500v-1192h-295v1192h-497z" />
    <glyph glyph-name="uni0423" unicode="&#x423;" horiz-adv-x="1443" 
d="M557 373l40.999 80.001l-569 981h319l397 -693l359 693h311l-604 -1164c-100 -194.667 -242.667 -291.334 -428 -290.001c-136.667 0 -243.334 44.333 -320.001 133l160 178c38.667 -38.667 89.334 -58.667 152.001 -60c70.667 0 131.334 47.333 182.001 142z" />
    <glyph glyph-name="uni0424" unicode="&#x424;" horiz-adv-x="1763" 
d="M256 290c-124 110 -186.001 252.334 -186.001 427.001c0 174 62 316.667 186 428s285 167.333 483 168v141h285v-141c198.667 -1.33301 360.334 -57.333 485.001 -168s187 -253.334 187 -428.001s-62 -317 -186 -427c-125.333 -110.667 -287.333 -166.334 -486 -167.001
v-143h-285v143c-197.333 0.666992 -358.333 56.334 -483 167.001zM1024 1063v-692c106 0.666992 192.667 33.667 260 99c66.667 64.667 100 147 100 247s-33.333 182.333 -100 247c-67.333 65.333 -154 98.333 -260 99zM479.999 964.001
c-67.333 -65.333 -101 -147.668 -101 -247.001s34 -181.666 102 -246.999c67.333 -65.333 153.333 -98.333 258 -99v692c-106 -1.33301 -192.333 -34.333 -259 -99z" />
    <glyph glyph-name="uni0425" unicode="&#x425;" horiz-adv-x="1507" 
d="M750 530l-363 -530h-348l530 733l-501 701h350l332 -500l340 500h350l-504 -701l532 -733h-352z" />
    <glyph glyph-name="uni0426" unicode="&#x426;" horiz-adv-x="1669" 
d="M1356 0h-1237v1434h295v-1192h716v1192h295v-1192h205v-570h-274v328z" />
    <glyph glyph-name="uni0427" unicode="&#x427;" horiz-adv-x="1421" 
d="M90 981v452.999h295v-375c0 -99.333 30.667 -176.666 92 -231.999c60.667 -54.667 143.334 -82 248.001 -82c106 0 200.333 28.667 283 86v603h295v-1434h-295v571c-104.667 -54.667 -226.334 -82 -365.001 -82c-166 0 -299.333 44 -400 132
c-102 87.333 -153 207.333 -153 360z" />
    <glyph glyph-name="uni0428" unicode="&#x428;" horiz-adv-x="2187" 
d="M2066 1434v-1434h-1947v1434h295v-1192h532v1192h295v-1192h531v1192h294z" />
    <glyph glyph-name="uni0429" unicode="&#x429;" horiz-adv-x="2310" 
d="M119 0v1434h295v-1192h532v1192h295v-1192h531v1192h294v-1192h205v-570h-272v328h-1880z" />
    <glyph glyph-name="uni042A" unicode="&#x42a;" horiz-adv-x="1701" 
d="M465 1202h-435.999v232h731v-535h424c136 0 246.333 -42.333 331 -127s127 -192.334 127 -323.001c0 -133.333 -42 -241.666 -126 -324.999c-84.667 -82.667 -195.334 -124 -332.001 -124h-719v1202zM1153 655h-392.999v-413h393c59.333 0 106.666 18.5 141.999 55.5
s53 87.5 53 151.5c0 61.333 -18 111 -54 149c-37.333 38 -84.333 57 -141 57z" />
    <glyph glyph-name="uni042B" unicode="&#x42b;" horiz-adv-x="1880" 
d="M838 0l-719 0.000976562v1434h295v-535h424c136 0 246.333 -42.333 331 -127s127 -192.334 127 -323.001c0 -134 -42.333 -242.333 -127 -325s-195 -124 -331 -124zM1466 0.000976562v1434h295v-1434h-295zM414 655.001v-413h393c58.667 0 105.667 18.5 141 55.5
s53 87.5 53 151.5c0 61.333 -18 111 -54 149s-82.667 57 -140 57h-393z" />
    <glyph glyph-name="uni042C" unicode="&#x42c;" horiz-adv-x="1355" 
d="M838 0h-718.999v1434h295v-535h424c136 0 246.333 -42.333 331 -127s127 -192.334 127 -323.001c0 -133.333 -42 -241.666 -126 -324.999c-84.667 -82.667 -195.334 -124 -332.001 -124zM414.001 655v-413h393c58.667 0 105.667 18.5 141 55.5s53 87.5 53 151.5
c0 61.333 -18 111 -54 149s-82.667 57 -140 57h-393z" />
    <glyph glyph-name="uni042D" unicode="&#x42d;" horiz-adv-x="1394" 
d="M219 1065l-170.003 178c142.667 140.667 322.334 211 539.001 211s394.334 -68.667 533.001 -206c137.333 -137.333 206 -315 206 -533c0 -217.333 -68.667 -394 -206 -530c-136.667 -136.667 -315 -205 -535 -205c-221.333 0 -400.333 70 -537 210l170 181
c32.667 -40.667 81.667 -74 147 -100c64 -26.667 131 -40 201 -40c112.667 0 207.334 34 284.001 102c78 67.333 127.333 157 148 269h-630v244h628c-23.333 109.333 -73.333 196.333 -150 261s-170 97 -280 97c-68.667 0 -135.667 -13 -201 -39s-114.333 -59.333 -147 -100
z" />
    <glyph glyph-name="uni042E" unicode="&#x42e;" horiz-adv-x="2222" 
d="M414 0l-295 -0.000976562v1434h295v-588h280c26 184 104.333 331.333 235 442c129.333 110.667 292 166 488 166c218.667 0 396 -68.333 532 -205c135.333 -137.333 203 -314.666 203 -531.999c0 -218 -67.667 -395.333 -203 -532c-136 -136.667 -313.333 -205 -532 -205
c-198.667 0 -363.667 56.667 -495 170c-132 114 -209.333 265.333 -232 454h-276v-604zM1119 1065c-78.667 -90.667 -118 -206.667 -118 -348s39.333 -257.333 118 -348c79.333 -92 178.666 -138 297.999 -138c122 0 222.667 46 302 138c78.667 90.667 118 206.667 118 348
c0 140.667 -39 256.667 -117 348c-79.333 91.333 -180.333 137 -303 137c-119.333 0 -218.666 -45.667 -297.999 -137z" />
    <glyph glyph-name="uni042F" unicode="&#x42f;" horiz-adv-x="1390" 
d="M377 0l-318 -0.000976562l320 561c-86 31.333 -154.667 85 -206 161c-51.333 76.667 -77 164.334 -77 263.001c0 133.333 42.333 241.333 127 324c85.333 83.333 195.333 125 330 125h719v-1434h-295v532h-297zM391 986.999c0 -64 18.334 -115.333 55.001 -154
c36 -39.333 82.667 -59 140 -59h391v418h-391c-58.667 0 -105.834 -18.667 -141.501 -56s-53.5 -87 -53.5 -149z" />
    <glyph glyph-name="uni0430" unicode="&#x430;" horiz-adv-x="1122" 
d="M80 281c0 105.333 47.668 191.001 143.001 257.001s217.666 99 366.999 99c56.667 0 110 -4.66699 160 -14v55c0 39.333 -19.667 71.666 -59 96.999c-40.667 25.333 -92 38 -154 38c-108.667 0 -206.334 -30.667 -293.001 -92l-129 160c48 49.333 112.667 89 194 119
c82 29.333 167.333 44 256 44c134 0 243.667 -33 329 -99s128 -151 128 -255v-690h-272v96c-85.333 -78 -190.666 -116.667 -315.999 -116c-104 0 -189 28 -255 84s-99 128.333 -99 217zM612.001 455.001c-72.667 0 -131.667 -13.667 -177 -41s-68 -61.666 -68 -102.999
c0 -32.667 15.333 -59.334 46 -80.001c31.333 -21.333 69 -32 113 -32c65.333 0 119 22 161 66c42 43.333 63 100.333 63 171c-40 12.667 -86 19 -138 19z" />
    <glyph glyph-name="uni0431" unicode="&#x431;" 
d="M1171 524c0 -164 -50.666 -295.67 -151.999 -395.003c-102.667 -99.333 -235.334 -149 -398.001 -149c-169.333 0 -303.333 60.333 -402 181c-99.333 121.333 -149 310 -149 566c0 468.667 179.333 716.334 538 743.001l449 35l20 -272l-364 -25
c-143.333 -9.33301 -247.166 -41.666 -311.499 -96.999s-96.5 -137.666 -96.5 -246.999c32.667 56 83.667 100 153 132s144.666 48 225.999 48c144.667 0 262 -48.333 352 -145s135 -221.667 135 -375zM453.001 728.997c-46.667 -55.333 -70 -127.668 -70 -217.001
s23.333 -161.666 70 -216.999c46 -56 105.333 -84 178 -84c72 0 131 28.333 177 85c46 57.333 69 129.333 69 216s-23 158.667 -69 216c-46 56.667 -105 85 -177 85c-72.667 0 -132 -28 -178 -84z" />
    <glyph glyph-name="uni0432" unicode="&#x432;" horiz-adv-x="1130" 
d="M758 0l-649 -0.00195312v1024h620c88.667 0 161 -25 217 -75s84 -113 84 -189c0 -105.333 -47 -183.333 -141 -234c56.667 -16.667 101.167 -47.167 133.5 -91.5s48.5 -97.166 48.5 -158.499c0 -81.333 -29 -147.666 -87 -198.999c-58.667 -51.333 -134 -77 -226 -77z
M678 423.998h-295v-213h295c35.333 0 64.333 10.167 87 30.5s34 46.5 34 78.5c0 31.333 -11.167 56.5 -33.5 75.5s-51.5 28.5 -87.5 28.5zM641 812.998h-258v-201h258c35.333 0 63.333 9 84 27s31 42 31 72s-10.667 54.5 -32 73.5s-49 28.5 -83 28.5z" />
    <glyph glyph-name="uni0433" unicode="&#x433;" horiz-adv-x="866" 
d="M109 1024h739v-211h-465v-813h-274v1024z" />
    <glyph glyph-name="uni0434" unicode="&#x434;" horiz-adv-x="1368" 
d="M281 -307h-252v518h170c58.667 103.333 88 374.333 88 813h858v-813h194v-518h-252v307h-806v-307zM475 211l395 0.000976562v602h-333c-1.33301 -270.667 -22 -471.334 -62 -602.001z" />
    <glyph glyph-name="uni0435" unicode="&#x435;" horiz-adv-x="1163" 
d="M1098 416l-747.996 0.000976562c9.33301 -60 44.333 -109 105 -147c59.333 -38.667 131.666 -58 216.999 -58c103.333 0 181.666 23.333 234.999 70l148 -148c-102.667 -102.667 -241.334 -153.667 -416.001 -153c-172 0 -311.667 50.667 -419 152s-161 232 -161 392
c0 152.667 48.667 277.667 146 375c96.667 96.667 221.667 145 375 145c155.333 0 281.666 -49.667 378.999 -149c96.667 -99.333 145 -228.333 145 -387c0 -28.667 -2 -59.334 -6 -92.001zM354.004 616.001h464.999c0 60 -20 108.667 -60 146
c-40.667 36.667 -93 55 -157 55c-63.333 0 -118.666 -18.667 -165.999 -56c-46.667 -38 -74 -86.333 -82 -145z" />
    <glyph glyph-name="uni0436" unicode="&#x436;" horiz-adv-x="1673" 
d="M635 428l-287 -428h-319l372 541l-342 483h299l260 -385h82v385h275v-385h82l260 385h299l-342 -483l373 -541h-320l-289 428h-63v-428h-275v428h-65z" />
    <glyph glyph-name="uni0437" unicode="&#x437;" horiz-adv-x="985" 
d="M436 207c62.667 0 114.663 11.667 155.996 35c40.667 22.667 61 52.667 61 90c0 27.333 -10.5 50.166 -31.5 68.499s-47.833 27.5 -80.5 27.5h-230v188h195c34 0 62.333 8.66699 85 26s34 39 34 65c0 32 -18.667 58.667 -56 80c-38 20 -85.667 30 -143 30
c-52.667 0 -101 -8.33301 -145 -25s-76.333 -38.334 -97 -65.001l-131 158c88.667 106.667 224 159.667 406 159c130.667 0 236.334 -25.333 317.001 -76s121 -118 121 -202c0 -45.333 -12.667 -88.666 -38 -129.999s-57.666 -74.333 -96.999 -99
c45.333 -17.333 84.333 -49.666 117 -96.999c32.667 -48.667 49 -101 49 -157c0 -90 -42.667 -163 -128 -219s-195.666 -84 -330.999 -84c-192.667 0 -336 57.333 -430 172l133 157c20.667 -30 55.334 -54.333 104.001 -73c48.667 -19.333 102 -29 160 -29z" />
    <glyph glyph-name="uni0438" unicode="&#x438;" horiz-adv-x="1226" 
d="M350 0h-241v1024h274v-604l502 604h231v-1024h-272v594z" />
    <glyph glyph-name="uni0439" unicode="&#x439;" horiz-adv-x="1226" 
d="M844 594l-494 -594h-241v1024h274v-604l502 604h231v-1024h-272v594zM283 1415l208.999 -0.000976562c0 -34 10.833 -61.167 32.5 -81.5s50.834 -30.5 87.501 -30.5c36 0 65.167 10.167 87.5 30.5s33.5 47.5 33.5 81.5h211c0 -91.333 -30.667 -164.666 -92 -219.999
s-141.333 -83 -240 -83c-97.333 0 -176.333 28 -237 84c-61.333 56 -92 129 -92 219z" />
    <glyph glyph-name="uni043A" unicode="&#x43a;" horiz-adv-x="1153" 
d="M109 0v1024h274v-385h113l280 385h307l-362 -489l405 -535h-319l-330 428h-94v-428h-274z" />
    <glyph glyph-name="uni043B" unicode="&#x43b;" horiz-adv-x="1234" 
d="M266 1024l848.002 -0.000976562v-1024h-272v813h-324c0 -229.333 -12 -404 -36 -524c-24 -119.333 -59.667 -200.666 -107 -243.999c-48.667 -43.333 -117.667 -65 -207 -65c-60.667 0 -110.667 10.667 -150 32l43 195c13.333 -9.33301 32.666 -14 57.999 -14
c20.667 0 37.167 5 49.5 15s25.166 30.667 38.499 62c12.667 33.333 23.667 79.333 33 138c17.333 128 26 333.333 26 616z" />
    <glyph glyph-name="uni043C" unicode="&#x43c;" horiz-adv-x="1466" 
d="M109 0v1024h331l293 -549l293 549h330v-1024h-252v639l-297 -557h-148l-297 557v-639h-253z" />
    <glyph glyph-name="uni043D" unicode="&#x43d;" horiz-adv-x="1216" 
d="M383 0h-274v1024h274v-397h451v397h272v-1024h-272v418h-451v-418z" />
    <glyph glyph-name="uni043E" unicode="&#x43e;" horiz-adv-x="1239" 
d="M216 128c-104.667 98.667 -157 226.667 -157 384s52.333 285.333 157 384s239.667 148 405 148s299.666 -49.333 402.999 -148c104 -98.667 156 -226.667 156 -384s-52 -285.333 -156 -384c-103.333 -98.667 -237.666 -148 -402.999 -148s-300.333 49.333 -405 148z
M428 729c-49.333 -56.667 -74.001 -128.999 -74.001 -216.999s24.667 -160.333 74 -217c49.333 -56 113.666 -84 192.999 -84c78 0 141.667 28 191 84c48.667 55.333 73 127.666 73 216.999c0 88 -24.667 160.333 -74 217c-49.333 56 -112.666 84 -189.999 84
c-79.333 0 -143.666 -28 -192.999 -84z" />
    <glyph glyph-name="uni043F" unicode="&#x43f;" horiz-adv-x="1206" 
d="M383 0h-274v1024h987v-1024h-273v813h-440v-813z" />
    <glyph glyph-name="uni0440" unicode="&#x440;" horiz-adv-x="1212" 
d="M383 -461h-274.001v1485h274v-104c30.667 36.667 77.334 66.667 140.001 90c61.333 22.667 125.333 34 192 34c130 0 235.667 -46.667 317 -140c80.667 -92.667 121 -213.667 121 -363c0 -167.333 -51 -302.333 -153 -405c-102.667 -104 -236 -156 -400 -156
c-88 0 -160.333 12 -217 36v-477zM382.999 573v-326.999c55.333 -24.667 114.666 -37 177.999 -37c88.667 0 160.334 30 215.001 90c54.667 59.333 82 136.333 82 231c0 85.333 -22.667 155.666 -68 210.999c-46 54.667 -105.333 82 -178 82c-68 0 -123 -23 -165 -69
c-42.667 -46.667 -64 -107 -64 -181z" />
    <glyph glyph-name="uni0441" unicode="&#x441;" horiz-adv-x="1052" 
d="M858 283l158.002 -158c-94.667 -96.667 -224.334 -145 -389.001 -145c-168.667 0 -305.334 49.333 -410.001 148c-105.333 99.333 -158 227.333 -158 384c0 157.333 52.333 285.333 157 384s241 148 409 148c162 0 292.333 -48.333 391 -145l-158 -158
c-54.667 48 -125.667 72 -213 72c-84.667 0 -154.334 -28.333 -209.001 -85s-82 -128.667 -82 -216s27.333 -159.333 82 -216s124.334 -85 209.001 -85s155.667 24 213 72z" />
    <glyph glyph-name="uni0442" unicode="&#x442;" horiz-adv-x="999" 
d="M18 813v211h965v-211h-346v-813h-275v813h-344z" />
    <glyph glyph-name="uni0443" unicode="&#x443;" horiz-adv-x="1159" 
d="M18 -385l136 166c27.333 -19.333 57.333 -29 90 -29c76 0 135.333 52 178 156l43 92l-447 1024h281l291 -717l270 717h281l-492 -1204c-82.667 -200.667 -209.667 -301 -381 -301c-92.667 0 -176 32 -250 96z" />
    <glyph glyph-name="uni0444" unicode="&#x444;" horiz-adv-x="1570" 
d="M598 -16c-160 0 -289.666 48.667 -388.999 146c-100 97.333 -150 224.666 -150 381.999s50 284.666 150 381.999c99.333 97.333 229 146 389 146c19.333 0 36.333 -0.666992 51 -2v447h273v-447c14.667 1.33301 31.667 2 51 2c160 0 289.667 -48.667 389 -146
s149 -224.666 149 -381.999s-49.667 -284.666 -149 -381.999c-100.667 -97.333 -230.334 -146 -389.001 -146c-19.333 0 -36.333 0.666992 -51 2v-447h-273v447c-14.667 -1.33301 -31.667 -2 -51 -2zM973.001 831c-14.667 0 -31.667 -1.33301 -51 -4v-628
c19.333 -2.66699 36.333 -4 51 -4c76.667 0 140.334 30 191.001 90c50 60 75 135.667 75 227c0 90.667 -25 166.667 -75 228c-50.667 60.667 -114.334 91 -191.001 91zM408.001 740c-50.667 -60.667 -76 -136.667 -76 -228c0 -92 25.333 -167.667 76 -227
c50 -60 113.333 -90 190 -90c14.667 0 31.667 1.33301 51 4v628c-19.333 2.66699 -36.333 4 -51 4c-76.667 0 -140 -30.333 -190 -91z" />
    <glyph glyph-name="uni0445" unicode="&#x445;" horiz-adv-x="1161" 
d="M580 346l-228 -346h-323l383 524l-361 500h322l207 -324l208 324h324l-362 -500l383 -524h-324z" />
    <glyph glyph-name="uni0446" unicode="&#x446;" horiz-adv-x="1318" 
d="M109 0v1024h274v-813h440v813h275v-813h194v-518h-254v307h-929z" />
    <glyph glyph-name="uni0447" unicode="&#x447;" horiz-adv-x="1134" 
d="M80 684v340h272v-287c0 -58.667 20 -106 60 -142s94 -54 162 -54s127.333 18.333 178 55v428h274v-1024h-274v381c-81.333 -44 -169 -66 -263 -66c-124 0 -223 34 -297 102c-74.667 66.667 -112 155.667 -112 267z" />
    <glyph glyph-name="uni0448" unicode="&#x448;" horiz-adv-x="1718" 
d="M1608 1024v-1024h-1499v1024h274v-813h340v813h272v-813h340v813h273z" />
    <glyph glyph-name="uni0449" unicode="&#x449;" horiz-adv-x="1830" 
d="M109 0v1024h274v-813h340v813h272v-813h340v813h273v-813h194v-518h-252v307h-1441z" />
    <glyph glyph-name="uni044A" unicode="&#x44a;" horiz-adv-x="1316" 
d="M334 813h-316v211h590v-346h287c105.333 0 190.333 -31.333 255 -94s97 -144 97 -244c0 -101.333 -32.333 -183.333 -97 -246s-149.667 -94 -255 -94h-561v813zM831 469l-223 0.00195312v-258h223c40.667 0 74.834 12.167 102.501 36.5s41.5 55.166 41.5 92.499
s-13.833 68.166 -41.5 92.499s-61.834 36.5 -102.501 36.5z" />
    <glyph glyph-name="uni044B" unicode="&#x44b;" horiz-adv-x="1538" 
d="M670 0l-561.001 -0.000976562v1024h274v-346h287c106 0 191.333 -31.333 256 -94c65.333 -63.333 98 -144.666 98 -243.999c0 -100.667 -32.667 -182.667 -98 -246c-65.333 -62.667 -150.666 -94 -255.999 -94zM1427 -0.000976562h-272v1024h272v-1024zM605.999 468.999
h-223v-258h223c42 0 76.5 12 103.5 36s40.5 55 40.5 93s-13.5 69 -40.5 93s-61.5 36 -103.5 36z" />
    <glyph glyph-name="uni044C" unicode="&#x44c;" horiz-adv-x="1093" 
d="M670 0l-561 -0.000976562v1024h274v-346h287c106 0 191.333 -31.333 256 -94c65.333 -63.333 98 -144.666 98 -243.999c0 -100.667 -32.667 -182.667 -98 -246c-64.667 -62.667 -150 -94 -256 -94zM606 468.999h-223v-258h223c42 0 76.5 12 103.5 36s40.5 55 40.5 93
s-13.5 69 -40.5 93s-61.5 36 -103.5 36z" />
    <glyph glyph-name="uni044D" unicode="&#x44d;" horiz-adv-x="1024" 
d="M682 428l-412.001 -0.000976562v188h408c-18 66 -51 118 -99 156s-105 57 -171 57c-97.333 0 -172.666 -28 -225.999 -84l-145 146c97.333 100 228.333 149.667 393 149c158.667 0 287.667 -48.667 387 -146c98.667 -96.667 148 -224 148 -382
c0 -157.333 -49.667 -284.666 -149 -381.999c-100.667 -97.333 -230 -146 -388 -146s-288.333 49.667 -391 149l145 146c52 -56 127.333 -84 226 -84c70 0 129.333 21.333 178 64c49.333 42 81.333 98.333 96 169z" />
    <glyph glyph-name="uni044E" unicode="&#x44e;" horiz-adv-x="1701" 
d="M383 418v-418h-274v1024h274v-397h180c22.667 126 83 227.333 181 304c97.333 75.333 215.333 113 354 113c162 0 293.667 -49.333 395 -148c101.333 -99.333 152 -227.333 152 -384c0 -157.333 -51 -285.333 -153 -384c-101.333 -98.667 -232 -148 -392 -148
c-143.333 0 -264 40 -362 120c-98 78.667 -157.667 184.667 -179 318h-176zM1100 813c-75.333 0 -135.999 -27.999 -181.999 -83.999c-46.667 -55.333 -70 -127.666 -70 -216.999c0 -88 23.667 -160.333 71 -217c47.333 -56 107.666 -84 180.999 -84s133.333 28 180 84
c46.667 55.333 70 127.666 70 216.999s-23.333 161.666 -70 216.999c-46.667 56 -106.667 84 -180 84z" />
    <glyph glyph-name="uni044F" unicode="&#x44f;" horiz-adv-x="1130" 
d="M340 0h-296.998l268 381c-70.667 16.667 -127.334 54 -170.001 112c-43.333 58.667 -65 125.667 -65 201c0 96.667 34 176 102 238c67.333 61.333 154.666 92 261.999 92h578l2 -1024h-272l-3 369h-155zM348.002 684c0 -36.667 14.333 -66.333 43 -89s65.667 -34 111 -34
h246v252h-246c-44 0 -80.667 -12 -110 -36s-44 -55 -44 -93z" />
    <glyph glyph-name="uni0450" unicode="&#x450;" horiz-adv-x="1163" 
d="M1098 416l-747.996 0.000976562c9.33301 -60 44.333 -109 105 -147c59.333 -38.667 131.666 -58 216.999 -58c103.333 0 181.666 23.333 234.999 70l148 -148c-102.667 -102.667 -241.334 -153.667 -416.001 -153c-172 0 -311.667 50.667 -419 152s-161 232 -161 392
c0 152.667 48.667 277.667 146 375c96.667 96.667 221.667 145 375 145c155.333 0 281.666 -49.667 378.999 -149c96.667 -99.333 145 -228.333 145 -387c0 -28.667 -2 -59.334 -6 -92.001zM354.004 616.001h464.999c0 60 -20 108.667 -60 146
c-40.667 36.667 -93 55 -157 55c-63.333 0 -118.666 -18.667 -165.999 -56c-46.667 -38 -74 -86.333 -82 -145zM659.003 1147l-360 235l164 164l299 -299z" />
    <glyph glyph-name="uni0451" unicode="&#x451;" horiz-adv-x="1163" 
d="M639 -20c-172 0 -311.664 50.668 -418.997 152.001s-161 232 -161 392c0 152.667 48.667 277.667 146 375c96.667 96.667 221.667 145 375 145c155.333 0 281.666 -49.667 378.999 -149c96.667 -99.333 145 -228.333 145 -387c0 -28.667 -2 -59.334 -6 -92.001h-748
c9.33301 -60 44.333 -109 105 -147c59.333 -38.667 131.666 -58 216.999 -58c103.333 0 181.666 23.333 234.999 70l148 -148c-103.333 -102 -242 -153 -416 -153zM354.003 616.001h464.999c0 60 -20 108.667 -60 146c-40.667 36.667 -93 55 -157 55
c-63.333 0 -118.666 -18.667 -165.999 -56c-46.667 -38 -74 -86.333 -82 -145zM670.002 1206v228h262v-228h-262zM492.002 1434v-228h-263v228h263z" />
    <glyph glyph-name="uni0452" unicode="&#x452;" horiz-adv-x="1206" 
d="M383 1485l-0.000976562 -160h283v-168h-283v-237c83.333 83.333 189 124.666 317 123.999c120.667 0 218.334 -37.333 293.001 -112c75.333 -75.333 113 -173.666 113 -294.999v-725c0 -116 -35 -210 -105 -282c-71.333 -71.333 -164 -107 -278 -107
c-111.333 0 -204.333 36 -279 108l140 160c28.667 -24.667 67.334 -37 116.001 -37c39.333 0 71.5 15.333 96.5 46s37.5 70.667 37.5 120v664c0 69.333 -20 126 -60 170c-41.333 43.333 -94 65 -158 65c-68.667 0 -124.334 -24.333 -167.001 -73
c-44 -49.333 -66 -112.333 -66 -189v-557h-274v1157h-132v168h132v160h274z" />
    <glyph glyph-name="uni0453" unicode="&#x453;" horiz-adv-x="866" 
d="M109 1024h739v-211h-465v-813h-274v1024zM309 1247l297 299l164 -164l-360 -235z" />
    <glyph glyph-name="uni0454" unicode="&#x454;" horiz-adv-x="1024" 
d="M795 616v-187.997h-453c14.667 -70 47 -126.333 97 -169c48.667 -42.667 107.667 -64 177 -64c97.333 0 172.666 28 225.999 84l145 -146c-104.667 -100 -235 -149.667 -391 -149c-158.667 0 -287.667 48.667 -387 146c-100 97.333 -150 224.666 -150 381.999
s49.667 284.666 149 381.999s228 146 386 146c162.667 0 293.667 -49.667 393 -149l-145 -146c-52 56 -127.333 84 -226 84c-67.333 0 -124.666 -18.833 -171.999 -56.5s-80 -89.834 -98 -156.501h449z" />
    <glyph glyph-name="uni0455" unicode="&#x455;" horiz-adv-x="933" 
d="M887 307c0 -99.333 -40.001 -178.67 -120.001 -238.003c-80.667 -59.333 -188.334 -89 -323.001 -89c-155.333 0 -291 49 -407 147l139 160c69.333 -53.333 157.333 -80 264 -80c56 0 100.833 7.5 134.5 22.5s50.5 35.5 50.5 61.5c0 22.667 -13.167 41 -39.5 55
s-72.833 29.667 -139.5 47c-18 3.33301 -28.667 6 -32 8c-44 11.333 -85 24.666 -123 39.999c-32.667 12.667 -67.667 31.667 -105 57c-76 49.333 -114 124.333 -114 225s37 179.334 111 236.001c72.667 56.667 173.334 85 302.001 85
c146.667 0 270.334 -45.667 371.001 -137l-139 -159c-56 47.333 -129.667 70.333 -221 69c-108 0 -162 -26 -162 -78c0 -27.333 20.333 -49.666 61 -66.999c20 -9.33301 38.333 -16.666 55 -21.999c10 -4 32 -10.333 66 -19c48.667 -13.333 94.667 -27.666 138 -42.999
c34 -14 71.667 -32.667 113 -56c80 -48 120 -123 120 -225z" />
    <glyph glyph-name="uni0456" unicode="&#x456;" horiz-adv-x="491" 
d="M383 0h-274v1024h274v-1024zM383 1206h-274v228h274v-228z" />
    <glyph glyph-name="uni0457" unicode="&#x457;" horiz-adv-x="491" 
d="M109 0v1024h274v-1024h-274zM578 1206h-265v228h265v-228zM-86 1206v228h264v-228h-264z" />
    <glyph glyph-name="uni0458" unicode="&#x458;" horiz-adv-x="524" 
d="M-248 -369l139 160c28.667 -24.667 67.667 -37 117 -37c39.333 0 71.333 15.333 96 46s37 70.667 37 120v1104h273v-1112c0 -116 -35 -210 -105 -282c-71.333 -71.333 -163.333 -107 -276 -107c-112 -1.33301 -205.667 34.667 -281 108zM414 1434v-228h-273v228h273z" />
    <glyph glyph-name="uni0459" unicode="&#x459;" horiz-adv-x="1773" 
d="M18 12l43.002 194.998c13.333 -9.33301 32.666 -14 57.999 -14c20.667 0 37.167 5 49.5 15s25.166 30.667 38.499 62c12.667 33.333 23.667 79.333 33 138c17.333 128 26 333.333 26 616h828v-346h266c106 0 191.333 -31.333 256 -94
c65.333 -63.333 98 -144.666 98 -243.999c0 -100.667 -32.667 -182.667 -98 -246c-64.667 -62.667 -150 -94 -256 -94h-539v813h-303c0 -229.333 -12 -404 -36 -524c-24 -119.333 -59.667 -200.666 -107 -243.999c-48.667 -43.333 -117.667 -65 -207 -65
c-61.333 -0.666992 -111.333 10 -150 32zM1296 468.998h-202v-258h202c42 0 76.5 12 103.5 36s40.5 55 40.5 93s-13.5 69 -40.5 93s-61.5 36 -103.5 36z" />
    <glyph glyph-name="uni045A" unicode="&#x45a;" horiz-adv-x="1734" 
d="M109 0v1024h274v-377h410v377h274v-377h279c96.667 0 175.667 -29.667 237 -89s92 -136.666 92 -231.999c0 -96.667 -31 -175 -93 -235c-61.333 -60.667 -142.333 -91 -243 -91h-546v438h-410v-438h-274zM1276 437.999h-209v-227h209c36 0 65.833 10.667 89.5 32
s35.5 49 35.5 83c0 31.333 -12 57.833 -36 79.5s-53.667 32.5 -89 32.5z" />
    <glyph glyph-name="uni045B" unicode="&#x45b;" horiz-adv-x="1206" 
d="M383 1485v-160h283v-168h-283v-237c83.333 83.333 189 124.666 317 123.999c120.667 0 218.334 -37.333 293.001 -112c75.333 -75.333 113 -173.666 113 -294.999v-637h-272v584c0 69.333 -20 126 -60 170c-41.333 43.333 -94 65 -158 65
c-68.667 0 -124.334 -24.333 -167.001 -73c-44 -49.333 -66 -112.333 -66 -189v-557h-274v1157h-132v168h132v160h274z" />
    <glyph glyph-name="uni045C" unicode="&#x45c;" horiz-adv-x="1153" 
d="M109 0v1024h274v-385h113l280 385h307l-362 -489l405 -535h-319l-330 428h-94v-428h-274zM854 1382l-360 -235l-101 100l297 299z" />
    <glyph glyph-name="uni045D" unicode="&#x45d;" horiz-adv-x="1226" 
d="M844 594l-494 -594h-241v1024h274v-604l502 604h231v-1024h-272v594zM692 1147l-362 235l166 164l299 -299z" />
    <glyph glyph-name="uni045E" unicode="&#x45e;" horiz-adv-x="1159" 
d="M18 -385l136 166c27.333 -19.333 57.333 -29 90 -29c76 0 135.333 52 178 156l43 92l-447 1024h281l291 -717l270 717h281l-492 -1204c-82.667 -200.667 -209.667 -301 -381 -301c-92.667 0 -176 32 -250 96zM260 1415l209 -0.000976562c0 -34 11 -61.167 33 -81.5
s51.333 -30.5 88 -30.5c35.333 0 64 10.167 86 30.5s33 47.5 33 81.5h213c0 -91.333 -30.667 -164.666 -92 -219.999c-62.667 -55.333 -142.667 -83 -240 -83s-176.333 28 -237 84c-62 56 -93 129 -93 219z" />
    <glyph glyph-name="uni045F" unicode="&#x45f;" horiz-adv-x="1206" 
d="M109 0v1024h274v-813h440v813h273v-1024h-367v-307h-252v307h-368z" />
    <glyph glyph-name="uni0490" unicode="&#x490;" horiz-adv-x="1132" 
d="M414 1192v-1192h-295v1434h712v256h273v-498h-690z" />
    <glyph glyph-name="uni0491" unicode="&#x491;" horiz-adv-x="866" 
d="M383 0h-274v1024h477v256h254v-467h-457v-813z" />
    <glyph glyph-name="uni04D8" unicode="&#x4d8;" horiz-adv-x="1605" 
d="M795 -20c-216.667 0 -391.333 68.333 -524 205c-134 136 -201 313.333 -201 532c0 39.333 2 77.333 6 114h1134c-22.667 111.333 -76 201.333 -160 270c-84.667 67.333 -186.334 101 -305.001 101c-74 0 -144.333 -13 -211 -39s-117 -59.333 -151 -100l-170 180
c136.667 140.667 320.334 211 551.001 211c228 0 413.667 -68.667 557 -206s215 -315 215 -533c0 -217.333 -69 -394 -207 -530c-138.667 -136.667 -316.667 -205 -534 -205zM522.001 331c72.667 -66.667 161.668 -100.002 267.001 -100.002c104.667 0 195 33 271 99
c75.333 64.667 124.666 151.334 147.999 260.001h-811c11.333 -107.333 53 -193.666 125 -258.999z" />
    <glyph glyph-name="uni04D9" unicode="&#x4d9;" horiz-adv-x="1163" 
d="M66 610l747.001 0.000976562c-8.66699 60 -43.334 109 -104.001 147c-61.333 37.333 -133.666 56 -216.999 56c-104.667 0 -183.334 -23.333 -236.001 -70l-147 148c102.667 102.667 241 153.667 415 153c172.667 0 312.334 -50.333 419.001 -151
c107.333 -101.333 161 -232.333 161 -393c0 -152.667 -48.333 -277.334 -145 -374.001c-97.333 -97.333 -223 -146 -377 -146s-279.667 50 -377 150c-97.333 99.333 -146 228 -146 386c1.33301 32 3.66602 63.333 6.99902 94zM809.001 408.001h-464.998
c-1.33301 -58.667 18.667 -106.667 60 -144c41.333 -38 93.666 -57 156.999 -57s118.666 19 165.999 57c46.667 36.667 74 84.667 82 144z" />
    <glyph glyph-name="Wgrave" unicode="&#x1e80;" horiz-adv-x="2246" 
d="M487 0l-458 1434h299l311 -1047l338 1047h295l332 -1047l315 1047h299l-461 -1434h-307l-326 1038l-329 -1038h-308zM1204 1497l-362 236l164 163l299 -299z" />
    <glyph glyph-name="wgrave" unicode="&#x1e81;" horiz-adv-x="1648" 
d="M616 0h-256l-342 1024h269l209 -680l206 680h244l203 -680l213 680h268l-346 -1024h-254l-205 649zM1006 1247l-101 -100l-362 235l164 164z" />
    <glyph glyph-name="Wacute" unicode="&#x1e82;" horiz-adv-x="2246" 
d="M487 0l-458 1434h299l311 -1047l338 1047h295l332 -1047l315 1047h299l-461 -1434h-307l-326 1038l-329 -1038h-308zM1044 1497l-102 100l297 299l164 -163z" />
    <glyph glyph-name="wacute" unicode="&#x1e83;" horiz-adv-x="1648" 
d="M360 0l-342 1024h269l209 -680l206 680h244l203 -680l213 680h268l-346 -1024h-254l-205 649l-209 -649h-256zM743 1147l-100 100l297 299l164 -164z" />
    <glyph glyph-name="Wdieresis" unicode="&#x1e84;" horiz-adv-x="2246" 
d="M795 0h-308l-458 1434h299l311 -1047l338 1047h295l332 -1047l315 1047h299l-461 -1434h-307l-326 1038zM1212 1554v230h263v-230h-263zM772 1554v230h262v-230h-262z" />
    <glyph glyph-name="wdieresis" unicode="&#x1e85;" horiz-adv-x="1648" 
d="M616 0h-256l-342 1024h269l209 -680l206 680h244l203 -680l213 680h268l-346 -1024h-254l-205 649zM913 1206v228h263v-228h-263zM735 1434v-228h-262v228h262z" />
    <glyph glyph-name="uni1E9E" unicode="&#x1e9e;" horiz-adv-x="1603" 
d="M1348 1288l-273.001 -448c306 -104 459 -253 459 -447c0 -116 -47.667 -213.667 -143 -293c-96 -80 -218.333 -120 -367 -120c-96 0 -190 17.333 -282 52c-94 35.333 -171.333 81.333 -232 138l147 188c38 -36 88.333 -66.333 151 -91
c61.333 -24 123.666 -36 186.999 -36c70.667 0 129.334 14.333 176.001 43s70 63.667 70 105c0 52 -35.667 99.333 -107 142c-56 32 -90.667 51.333 -104 58c-30 15.333 -72.667 33 -128 53l-66.5 23c-26.333 9.33301 -43.833 15.333 -52.5 18
c-18.667 6.66699 -55 18 -109 34l293 485h-291c-76.667 0 -139 -26 -187 -78c-48.667 -51.333 -73 -118.333 -73 -201v-913h-295v922c0 157.333 48.667 282 146 374c96.667 92 227.334 138 392.001 138h689v-146z" />
    <glyph glyph-name="Ygrave" unicode="&#x1ef2;" horiz-adv-x="1452" 
d="M578 0v530l-549 904h323l373 -631l375 631h321l-549 -904v-530h-294zM907 1597l-100 -100l-363 236l164 163z" />
    <glyph glyph-name="ygrave" unicode="&#x1ef3;" horiz-adv-x="1159" 
d="M465 0l-447 1024h281l291 -717l270 717h281l-490 -1204c-84.667 -200.667 -211.667 -301 -381 -301c-94 0 -178 32 -252 96l136 166c27.333 -19.333 57.333 -29 90 -29c76 0 135.333 52 178 156zM760 1247l-101 -100l-362 235l164 164z" />
    <glyph glyph-name="figuredash" unicode="&#x2012;" 
d="M983 633h-737v168h737v-168z" />
    <glyph glyph-name="endash" unicode="&#x2013;" horiz-adv-x="1024" 
d="M881 469h-738v168h738v-168z" />
    <glyph glyph-name="emdash" unicode="&#x2014;" horiz-adv-x="2048" 
d="M1905 469h-1762v168h1762v-168z" />
    <glyph glyph-name="quoteleft" unicode="&#x2018;" horiz-adv-x="454" 
d="M236 1485h188l-70 -475h-274z" />
    <glyph glyph-name="quoteright" unicode="&#x2019;" horiz-adv-x="454" 
d="M219 1010h-190l71 475h275z" />
    <glyph glyph-name="quotesinglbase" unicode="&#x201a;" horiz-adv-x="454" 
d="M219 -238h-190l71 476h275z" />
    <glyph glyph-name="quotereversed" unicode="&#x201b;" horiz-adv-x="454" 
d="M354 1485l70 -475h-188l-156 475h274z" />
    <glyph glyph-name="quotedblleft" unicode="&#x201c;" horiz-adv-x="774" 
d="M354 1010h-274l156 475h188zM674 1010h-273l156 475h188z" />
    <glyph glyph-name="quotedblright" unicode="&#x201d;" horiz-adv-x="774" 
d="M219 1010h-190l71 475h275zM539 1010h-189l72 475h272z" />
    <glyph glyph-name="quotedblbase" unicode="&#x201e;" horiz-adv-x="774" 
d="M219 -238h-190l71 476h275zM539 -238h-189l72 476h272z" />
    <glyph glyph-name="uni201F" unicode="&#x201f;" horiz-adv-x="774" 
d="M424 1010h-188l-156 475h274zM557 1010l-156 475h273l71 -475h-188z" />
    <glyph glyph-name="dagger" unicode="&#x2020;" horiz-adv-x="1148" 
d="M1067 1126v-168h-410v-1060h-168v1060h-409v168h409v410h168v-410h410z" />
    <glyph glyph-name="daggerdbl" unicode="&#x2021;" horiz-adv-x="1148" 
d="M489 307h-409v168h409v483h-409v168h409v410h168v-410h410v-168h-410v-483h410v-168h-410v-409h-168v409z" />
    <glyph glyph-name="bullet" unicode="&#x2022;" horiz-adv-x="702" 
d="M559 508h-416v418h416v-418z" />
    <glyph glyph-name="ellipsis" unicode="&#x2026;" horiz-adv-x="1361" 
d="M1282 291v-291h-295v291h295zM827 0h-295v291h295v-291zM80 0v291h295v-291h-295z" />
    <glyph glyph-name="perthousand" unicode="&#x2030;" horiz-adv-x="2361" 
d="M428 0h-197l1004 1434h201zM168 755c-58.667 74.667 -88.001 172.667 -88.001 294c0 120.667 29.333 218.334 88 293.001s134.334 112 227.001 112c96 0 173.333 -37.333 232 -112s88 -172.334 88 -293.001c0 -122 -29.333 -220.333 -88 -295
c-59.333 -75.333 -136.666 -113 -231.999 -113c-92.667 0 -168.334 38 -227.001 114zM300.999 1233c-24.667 -47.333 -37 -108.667 -37 -184c0 -76 12.333 -137.333 37 -184c25.333 -48 56.666 -72 93.999 -72c39.333 0 71.333 24 96 72c24.667 46.667 37 108 37 184
c0 74.667 -12 136 -36 184c-25.333 48 -57.666 72 -96.999 72c-38 0 -69.333 -24 -94 -72zM1043 92.999c-59.333 75.333 -89.001 172.666 -89.001 291.999c0 120.667 29.333 218.667 88 294c58.667 76 134.667 114 228 114c94.667 0 171.334 -38 230.001 -114
c59.333 -76.667 89 -174.667 89 -294s-29.667 -216.666 -89 -291.999s-136 -113 -230 -113c-92 0 -167.667 37.667 -227 113zM1139 384.999c0 -75.333 12.333 -136.333 37 -183c24 -47.333 55.333 -71 94 -71s70.667 23.667 96 71c24.667 46.667 37 107.667 37 183
c0 77.333 -12.333 139.333 -37 186s-56.667 70 -96 70c-38 0 -69.333 -23.333 -94 -70s-37 -108.667 -37 -186zM1737 92.999c-58.667 74.667 -88 172 -88 292c0 120.667 29.333 218.667 88 294c59.333 76 135 114 227 114c93.333 0 169.666 -37.667 229 -113
c58.667 -74.667 88 -173 88 -295c0 -120 -29.333 -217.333 -88 -292c-59.333 -75.333 -135.666 -113 -229 -113c-92 0 -167.667 37.667 -227 113zM1833 384.999c0 -75.333 12.334 -136.333 37.001 -183c25.333 -47.333 56.666 -71 93.999 -71c38.667 0 70.667 23.667 96 71
c24.667 46.667 37 107.667 37 183c0 77.333 -12.333 139.333 -37 186s-56.667 70 -96 70c-38 0 -69.333 -23.333 -94 -70s-37 -108.667 -37 -186z" />
    <glyph glyph-name="guilsinglleft" unicode="&#x2039;" horiz-adv-x="733" 
d="M612 281l-116 -121l-394 393l394 391l116 -121l-272 -270z" />
    <glyph glyph-name="guilsinglright" unicode="&#x203a;" horiz-adv-x="733" 
d="M121 823l119 121l393 -391l-393 -393l-119 121l274 272z" />
    <glyph glyph-name="fraction" unicode="&#x2044;" horiz-adv-x="1204" 
d="M1206 1434l-1009 -1434h-197l1004 1434h202z" />
    <glyph glyph-name="Euro" unicode="&#x20ac;" horiz-adv-x="1509" 
d="M184 786l-144.998 0.00195312v168h176c44.667 152 130.667 273.667 258 365c126 90 275.667 135 449 135c216 0 395.333 -70.333 538 -211l-170 -178c-33.333 40.667 -82.333 74 -147 100c-64 26 -131 39 -201 39c-88 0 -166.667 -22 -236 -66
s-122.333 -105.333 -159 -184h436v-168h-481c-2.66699 -32.667 -4 -55.834 -4 -69.501s1.33301 -36.834 4 -69.501h481v-168h-436c36.667 -77.333 89.667 -138 159 -182s148 -66 236 -66c69.333 0 136.333 13 201 39c63.333 26 112.333 59.667 147 101l170 -181
c-136.667 -140.667 -315.334 -210.667 -536.001 -210c-176 0 -326.667 45 -452 135c-126.667 90.667 -212.334 212 -257.001 364h-176v168h145c-1.33301 20 -2 42.667 -2 68c0 27.333 0.666992 51 2 71z" />
    </font>
</defs>
</svg>
