<?xml version="1.0" standalone="no"?>
<!DOCTYPE svg PUBLIC "-//W3C//DTD SVG 1.1//EN" "http://www.w3.org/Graphics/SVG/1.1/DTD/svg11.dtd" >
<svg>
<metadata>
Created by FontForge 20090914 at Sun Oct 11 21:55:42 2020
 By www-data
(c) Andriy Konstantynov 2013-2019 Desktop use is strictly prohibited.
</metadata>
<defs>
<font id="CynthoNext-Regular" horiz-adv-x="1228" >
  <font-face 
    font-family="Cyntho Next"
    font-weight="400"
    font-stretch="normal"
    units-per-em="2048"
    panose-1="0 0 0 0 0 0 0 0 0 0"
    ascent="1741"
    descent="-307"
    x-height="1024"
    cap-height="1434"
    bbox="-317 -477 2425 1944"
    underline-thickness="0"
    underline-position="0"
    unicode-range="U+000D-U+FB04"
  />
<missing-glyph horiz-adv-x="681" 
 />
    <glyph glyph-name="uniFB00" unicode="ff" horiz-adv-x="1521" 
d="M248 0v895.001h-199v129h199v141c0 100.667 30.333 181.667 91 243c60.667 62 138.667 93 234 93c96.667 0 179.334 -36 248.001 -108l-84 -99c-44 44 -94.333 66 -151 66c-52 0 -94.333 -17.333 -127 -52s-49 -79.334 -49 -134.001v-150h526v141c0 100 30 181 90 243
s138 93 234 93c97.333 0 180.333 -36 249 -108l-86 -99c-41.333 44 -91 66 -149 66c-52.667 0 -95.334 -17.333 -128.001 -52c-33.333 -35.333 -50 -80 -50 -134v-150h377v-129h-377v-895h-160v895h-526v-895h-162z" />
    <glyph glyph-name="uniFB01" unicode="fi" horiz-adv-x="1253" 
d="M244 895l-198.999 0.000976562v129h199v141c0 100 30 181 90 243s138.667 93 236 93c96.667 0 179 -36 247 -108l-84 -99c-44 44 -94.333 66 -151 66c-52.667 0 -95.334 -17.333 -128.001 -52c-34 -34.667 -51 -79.334 -51 -134.001v-150h377v-129h-377v-895h-159v895z
M1098 0.000976562h-162v1024h162v-1024zM1098 1241h-162v193h162v-193z" />
    <glyph glyph-name="uniFB02" unicode="fl" horiz-adv-x="1368" 
d="M244 895l-198.999 0.000976562v129h199v141c0 100 30 181 90 243s138.667 93 236 93c96.667 0 179 -36 247 -108l-84 -99c-44 44 -94.333 66 -151 66c-52.667 0 -95.334 -17.333 -128.001 -52c-34 -34.667 -51 -79.334 -51 -134.001v-150h377v-129h-377v-895h-159v895z
M946.001 221.001v1264h162v-1254c0 -32 9.16699 -57.667 27.5 -77s43.166 -29 74.499 -29c28.667 0 53.334 10.333 74.001 31l78 -97c-48 -50.667 -107.333 -76 -178 -76c-72 1.33301 -129.333 24 -172 68c-44 44 -66 100.667 -66 170z" />
    <glyph glyph-name="uniFB03" unicode="ffi" horiz-adv-x="1941" 
d="M410 1174l-0.000976562 -149.998h526v141c0 100.667 30.333 181.667 91 243c60.667 62 139 93 235 93c96.667 0 179 -36 247 -108l-84 -99c-44 44 -94.333 66 -151 66c-52 0 -94.333 -17.333 -127 -52s-49 -79.334 -49 -134.001v-150h375v-129h-375v-895h-162v895h-526
v-895h-162v895h-199v129h199v141c0 100.667 30.333 181.667 91 243c60.667 62 138.667 93 234 93c96.667 0 179.334 -36 248.001 -108l-84 -99c-44 44 -94.333 66 -151 66c-52 0 -94.333 -17.333 -127 -52s-49 -79.334 -49 -134.001zM1786 1024v-1024h-162v1024h162z
M1624 1241v193h162v-193h-162z" />
    <glyph glyph-name="uniFB04" unicode="ffl" horiz-adv-x="2056" 
d="M403 1174l0.00195312 -149.999h529v141c0 100 30 181 90 243s138.667 93 236 93c96.667 0 179 -36 247 -108l-84 -99c-44 44 -94.333 66 -151 66c-52.667 0 -95.334 -17.333 -128.001 -52c-33.333 -35.333 -50 -80 -50 -134v-150h376v-129h-376v-895h-160v895h-529v-895
h-159v895h-199v129h199v141c0 100 30 181 90 243s138.667 93 236 93c96.667 0 179 -36 247 -108l-84 -99c-44 44 -94.333 66 -151 66c-52.667 0 -95.334 -17.333 -128.001 -52c-34 -34.667 -51 -79.334 -51 -134.001zM1634 221.001v1264h162v-1254
c0 -32 9.16699 -57.667 27.5 -77s43.166 -29 74.499 -29c28.667 0 53.334 10.333 74.001 31l78 -97c-48 -50.667 -107.333 -76 -178 -76c-72 1.33301 -129.333 24 -172 68c-44 44 -66 100.667 -66 170z" />
    <glyph glyph-name=".notdef" horiz-adv-x="681" 
 />
    <glyph glyph-name="glyph1" horiz-adv-x="0" 
 />
    <glyph glyph-name="glyph1" horiz-adv-x="0" 
 />
    <glyph glyph-name="uni000D" unicode="&#xd;" horiz-adv-x="512" 
 />
    <glyph glyph-name="space" unicode=" " horiz-adv-x="604" 
 />
    <glyph glyph-name="exclam" unicode="!" horiz-adv-x="460" 
d="M317 0h-176v229h176v-229zM299 436h-139l-17 998h172z" />
    <glyph glyph-name="quotedbl" unicode="&#x22;" horiz-adv-x="663" 
d="M524 991h-114l-25 443h164zM254 991h-115l-24 443h164z" />
    <glyph glyph-name="numbersign" unicode="#" horiz-adv-x="1413" 
d="M1227 473l-19 -106h-266l-63 -367h-107l64 367h-385l-64 -367h-106l63 367h-264l20 106h265l84 488h-263l19 106h264l63 367h107l-64 -367h386l63 367h106l-63 -367h266l-18 -106h-268l-84 -488h264zM555 961l-84 -488h385l84 488h-385z" />
    <glyph glyph-name="dollar" unicode="$" horiz-adv-x="1243" 
d="M104 184l90.998 110.994c97.333 -94.667 220.666 -147.334 369.999 -158.001c12 -1.33301 27 -2 45 -2c126 0 224 33.667 294 101c39.333 38 59 84.333 59 139c0 58.667 -24 106 -72 142c-48.667 36.667 -121.667 71.334 -219 104.001c-1.33301 0 -4 0.666992 -8 2
l-18.5 6l-24.5 8l-110 38c-22 8 -57.333 22.667 -106 44c-44.667 20 -80 40 -106 60c-75.333 54.667 -123.666 110.334 -144.999 167.001c-14 34.667 -21 73.667 -21 117c0 108.667 40 198.334 120 269.001c79.333 70 183.333 108.667 312 116v190h107v-190
c172 -16.667 311.333 -81 418 -193l-86 -110c-45.333 48.667 -102.333 86.667 -171 114c-68.667 26 -138.667 39 -210 39c-4.66699 0 -14.667 -0.333008 -30 -1s-24.666 -1 -27.999 -1c-80 -9.33301 -143.333 -34.166 -190 -74.499s-70 -91.166 -70 -152.499
c0 -56 21.667 -101.667 65 -137c44.667 -36 109.667 -70.333 195 -103c19.333 -7.33301 48.666 -17.333 87.999 -30c56.667 -19.333 99.334 -34.333 128.001 -45c30 -12 71.333 -31 124 -57c48.667 -24 88.334 -49.667 119.001 -77
c31.333 -29.333 57.333 -64.666 78 -105.999s31 -85 31 -131c0 -109.333 -42.667 -200.666 -128 -273.999c-84.667 -74 -195.667 -115 -333 -123v-191h-107v191c-187.333 15.333 -341 81.333 -461 198z" />
    <glyph glyph-name="percent" unicode="%" horiz-adv-x="1716" 
d="M416 0h-123l1003 1434h127zM201 774c-57.333 73.333 -86.001 167.668 -86.001 283.001c0 116 28.667 210.667 86 284c56.667 72.667 129.667 109 219 109c90 0 163.333 -36.333 220 -109s85 -167.334 85 -284.001c0 -116 -28.333 -210.333 -85 -283
c-57.333 -73.333 -130.666 -110 -219.999 -110c-88.667 0 -161.667 36.667 -219 110zM283.999 1270c-35.333 -55.333 -53 -126.333 -53 -213s17.667 -157.667 53 -213c34.667 -54.667 80 -82 136 -82s101.333 27.333 136 82s52 125.667 52 213s-17.333 158.333 -52 213
s-80 82 -136 82s-101.333 -27.333 -136 -82zM990.999 377.002c0 116.667 28.332 211.334 84.999 284.001s130.334 109 221.001 109c90 0 163.333 -36.333 220 -109s85 -167.334 85 -284.001c0 -115.333 -28.333 -209.333 -85 -282c-56.667 -74 -130 -111 -220 -111
s-163.667 37 -221 111c-56.667 72.667 -85 166.667 -85 282zM1108 377.002c0 -86 17.668 -156.668 53.001 -212.001s80.333 -83 135 -83c56 0 101.667 27.667 137 83c34.667 54.667 52 125.334 52 212.001c0 87.333 -17.333 158.333 -52 213s-80.334 82 -137.001 82
c-56 0 -101.333 -27.333 -136 -82s-52 -125.667 -52 -213z" />
    <glyph glyph-name="ampersand" unicode="&#x26;" horiz-adv-x="1409" 
d="M586 -16c-145.333 0 -262.668 39.666 -352.001 118.999s-134 183 -134 311c0 105.333 29 189.666 87 252.999s137.667 119 239 167c-62.667 106.667 -94 203.334 -94 290.001c0 94 32 172 96 234c64.667 61.333 148 92 250 92c94.667 0 173.334 -27.667 236.001 -83
c61.333 -55.333 92 -126 92 -212c0 -97.333 -40.667 -175.666 -122 -234.999c-41.333 -30.667 -78.666 -54.667 -111.999 -72c-23.333 -12.667 -70.333 -35.334 -141 -68.001c74.667 -96 198 -223.667 370 -383c45.333 94.667 68 201.334 68 320.001h139
c0 -162 -32 -303.333 -96 -424l234 -207l-103 -104c-52.667 44 -124.334 108 -215.001 192c-114.667 -126.667 -262 -190 -442 -190zM261.998 407.999c0 -87.333 29.333 -157.333 88 -210s136 -79 232 -79c136.667 0 250 51.667 340 155
c-188 178.667 -327.333 327.667 -418 447c-81.333 -42 -142 -87.333 -182 -136s-60 -107.667 -60 -177zM552.998 890.999c43.333 18.667 82.668 36.334 118.001 53.001c28.667 14 58.667 31.333 90 52c62 40 93 91.667 93 155c0 47.333 -16.667 86.666 -50 117.999
c-32.667 30.667 -75.334 46 -128.001 46c-57.333 0 -104.333 -19.333 -141 -58c-37.333 -39.333 -56 -89 -56 -149c0 -62 24.667 -134.333 74 -217z" />
    <glyph glyph-name="quotesingle" unicode="'" horiz-adv-x="395" 
d="M254 991h-115l-24 443h164z" />
    <glyph glyph-name="parenleft" unicode="(" horiz-adv-x="638" 
d="M218 261c-24 111.333 -35.999 229.335 -35.999 354.002c0 125.333 11.333 242.666 34 351.999c23.333 112 50.666 201.333 81.999 268c67.333 142.667 126.333 237.667 177 285l35 32l74 -75c-6 -6 -14.667 -16.667 -26 -32c-12.667 -17.333 -32.667 -50 -60 -98
c-27.333 -47.333 -53 -103.333 -77 -168c-22.667 -60.667 -42.667 -142 -60 -244c-18 -102 -27 -209 -27 -321c0 -110 8.66699 -216 26 -318c17.333 -104 38 -186 62 -246c49.333 -127.333 94.333 -216.333 135 -267l27 -31l-74 -76c-10 8 -21.667 19 -35 33
c-13.333 13.333 -39.333 48.666 -78 105.999c-36 52.667 -69.333 113 -100 181c-28 62.667 -54.333 151 -79 265z" />
    <glyph glyph-name="parenright" unicode=")" horiz-adv-x="638" 
d="M421 968c24 -111.333 35.998 -229 35.998 -353c0 -126 -11.333 -243.333 -34 -352c-23.333 -110 -50.666 -199.667 -81.999 -269c-65.333 -140.667 -124.333 -235.667 -177 -285l-35 -33l-74 76c8 8 17 18.333 27 31c8.66699 12 28.334 45.333 59.001 100
c27.333 49.333 53 105.666 77 168.999c22.667 59.333 43 140.333 61 243c17.333 102.667 26 209 26 319c0 114 -8.33301 220.667 -25 320c-17.333 101.333 -38.333 183.333 -63 246c-48 123.333 -93 212 -135 266l-27 31l74 75c12 -9.33301 24 -20 36 -32
c12 -13.333 38 -48.666 78 -105.999c36 -54 69 -114.333 99 -181c28 -62.667 54.333 -151 79 -265z" />
    <glyph glyph-name="asterisk" unicode="*" horiz-adv-x="784" 
d="M106 1272l244 -94l-16 256h119l-19 -256l242 98l39 -117l-254 -63l164 -197l-97 -70l-135 215l-141 -219l-96 70l168 201l-252 63z" />
    <glyph glyph-name="plus" unicode="+" 
d="M561 664h-356v106h356v356h107v-356h356v-106h-356v-357h-107v357z" />
    <glyph glyph-name="comma" unicode="," horiz-adv-x="407" 
d="M172 -227h-127l82 434h176z" />
    <glyph glyph-name="hyphen" unicode="-" horiz-adv-x="768" 
d="M635 500h-502v106h502v-106z" />
    <glyph glyph-name="period" unicode="." horiz-adv-x="407" 
d="M291 0h-176v229h176v-229z" />
    <glyph glyph-name="slash" unicode="/" horiz-adv-x="931" 
d="M932 1491l-836 -1798l-96 45l838 1798z" />
    <glyph glyph-name="zero" unicode="0" horiz-adv-x="1325" 
d="M260 189c-104 136 -156 312 -156 528c0 215.333 52 391.333 156 528s238.667 205 404 205c164 0 298 -68.333 402 -205c103.333 -137.333 155 -313.333 155 -528c0 -216 -52 -392 -156 -528c-104 -136.667 -237.667 -205 -401 -205c-165.333 0 -300 68.333 -404 205z
M385 1145c-72.667 -110.667 -109 -253.334 -109 -428.001s36.333 -317.334 109 -428.001s165.667 -166 279 -166c115.333 0 208.333 55.333 279 166s106 253.334 106 428.001s-35.333 317.334 -106 428.001s-163.667 166 -279 166c-113.333 0 -206.333 -55.333 -279 -166z
" />
    <glyph glyph-name="one" unicode="1" horiz-adv-x="929" 
d="M193 1057l-72 127l440 250h127v-1434h-160v1247z" />
    <glyph glyph-name="two" unicode="2" horiz-adv-x="1169" 
d="M1042 0h-925.001v123c19.333 12.667 45.333 31.667 78 57c35.333 26.667 93.333 76 174 148c86 76 159.333 148 220 216c64.667 71.333 122.334 152.666 173.001 243.999c52 92 78 175.333 78 250c0 79.333 -26.667 144.666 -80 195.999s-129.333 77 -228 77
c-131.333 0 -243 -52 -335 -156l-91 90c128.667 136.667 277 205 445 205c136.667 0 247.667 -38 333 -114c85.333 -77.333 128 -173.666 128 -288.999c0 -79.333 -22 -164.666 -66 -255.999c-45.333 -92 -99.333 -175 -162 -249c-64 -74.667 -127.333 -143 -190 -205
c-64 -63.333 -117.333 -111.333 -160 -144l-67 -54h675v-139z" />
    <glyph glyph-name="three" unicode="3" horiz-adv-x="1183" 
d="M573 -12c-195.333 0 -354.333 67.333 -477 202l94 95c40.667 -49.333 93.167 -88 157.5 -116s132.833 -42 205.5 -42c103.333 0 186.333 26 249 78c63.333 52 95 119 95 201c0 82.667 -31.667 150.667 -95 204c-62.667 52 -144.334 78 -245.001 78h-98v127h100
c87.333 0 158 23 212 69c54 45.333 81 104.333 81 177c0 74 -27 133.667 -81 179c-53.333 44.667 -125.333 67 -216 67c-146 0 -261.333 -53.333 -346 -160l-92 94c116.667 136.667 268.667 205 456 205c132 0 239.333 -33.667 322 -101c82 -68 123 -156 123 -264
c0 -76.667 -21.167 -143.834 -63.5 -201.501s-101.166 -100.167 -176.499 -127.5c88 -27.333 157.333 -73.333 208 -138c51.333 -65.333 77 -141.666 77 -228.999c0 -118 -45.333 -213.333 -136 -286c-91.333 -74 -209.333 -111 -354 -111z" />
    <glyph glyph-name="four" unicode="4" horiz-adv-x="1312" 
d="M80 305v90l751 1039h187v-1000h199v-129h-199v-305h-166v305h-772zM852 1217l-573 -783h573v783z" />
    <glyph glyph-name="five" unicode="5" horiz-adv-x="1175" 
d="M553 -16c-184.667 0 -342.334 67.332 -473.001 201.999l94 95c98 -105.333 221.667 -158 371 -158c110 0 195.667 28 257 84c60.667 56 91 131 91 225c0 102.667 -34.333 184.334 -103 245.001s-166 91 -292 91c-84.667 0 -179 -13 -283 -39l-39 37l49 668h717v-140h-586
l-30 -417c68 16.667 139 24.667 213 24c160.667 0 288.667 -44 384 -132c94.667 -88 142 -200.333 142 -337c0 -136 -47.333 -244.333 -142 -325c-95.333 -82 -218.666 -123 -369.999 -123z" />
    <glyph glyph-name="six" unicode="6" horiz-adv-x="1234" 
d="M690 1311c-122.667 0 -219.831 -45.333 -291.498 -136s-112.5 -222.334 -122.5 -395.001c87.333 75.333 199.333 113 336 113c152 0 276.667 -43 374 -129c96 -86 144 -196.667 144 -332c0 -131.333 -45 -238.666 -135 -321.999c-90 -84 -205.333 -126 -346 -126
c-168.667 0 -301.334 64 -398.001 192c-98 126.667 -147 305 -147 535c0 236 51.333 418.333 154 547c102.667 128 244 192 424 192c165.333 0 295.666 -45.667 390.999 -137l-100 -99c-68.667 64.667 -163 97 -283 97zM647.003 123c90 0 164.331 29.332 222.998 87.999
s88 132.334 88 221.001c0 94 -33.667 171 -101 231c-67.333 59.333 -155.666 89 -264.999 89c-137.333 0 -242.666 -43.667 -315.999 -131c8.66699 -162 46.667 -285.667 114 -371c66 -84.667 151.667 -127 257 -127z" />
    <glyph glyph-name="seven" unicode="7" horiz-adv-x="1191" 
d="M903 1294h-817v140h1010v-88l-596 -1346h-170z" />
    <glyph glyph-name="eight" unicode="8" horiz-adv-x="1265" 
d="M170 1092c0 106.667 42.668 192.999 128.001 258.999s197 99 335 99s250 -33 336 -99c86 -67.333 129 -153.666 129 -258.999c0 -76 -21.5 -143.167 -64.5 -201.5s-101.5 -100.5 -175.5 -126.5c89.333 -26.667 159.333 -73.667 210 -141c51.333 -67.333 77 -146 77 -236
c0 -120 -47 -217 -141 -291c-94.667 -74.667 -218.334 -112 -371.001 -112c-154 0 -277.667 37.333 -371 112c-94 74 -141 171 -141 291c0 90 25.667 168.667 77 236c50.667 67.333 120.667 114.333 210 141c-74 26 -132.167 68 -174.5 126s-63.5 125.333 -63.5 202z
M293.001 405.999c0 -83.333 31.332 -151.333 93.999 -204s144 -79 244 -79c102 0 184.333 26.333 247 79c63.333 53.333 95 121.333 95 204c0 84.667 -31.667 153.667 -95 207c-63.333 52.667 -145.666 79 -246.999 79c-100 0 -181.333 -26.333 -244 -79
s-94 -121.667 -94 -207zM342 1071c0 -70 27.334 -127.332 82.001 -171.999c55.333 -45.333 125.666 -68 210.999 -68s155.333 22.667 210 68c54 44.667 81 102 81 172s-27 127.667 -81 173c-53.333 44.667 -123.333 67 -210 67c-86 0 -156.333 -22.333 -211 -67
s-82 -102.334 -82 -173.001z" />
    <glyph glyph-name="nine" unicode="9" horiz-adv-x="1222" 
d="M518 123c126.667 0 228 45.666 304 136.999s116.667 223.666 122 396.999c-82.667 -74 -192 -110.667 -328 -110c-150.667 0 -273.667 42.667 -369 128s-143 195 -143 329c0 130 44.667 237 134 321c89.333 83.333 203.333 125 342 125c166.667 0 297.667 -63 393 -189
c95.333 -127.333 143 -304.666 143 -531.999c0 -237.333 -52.667 -420.666 -158 -549.999c-106 -130 -250.667 -195 -434 -195c-172 0 -310.333 51 -415 153l98 99c79.333 -75.333 183 -113 311 -113zM584 1311c-90.667 0 -164.333 -28.999 -221 -86.999
c-58 -58 -87 -130.667 -87 -218c0 -94.667 33.333 -171.334 100 -230.001c66 -60 152.333 -90 259 -90c137.333 0 240.333 44.333 309 133c-8 162 -44.333 284.333 -109 367c-65.333 83.333 -149 125 -251 125z" />
    <glyph glyph-name="colon" unicode=":" horiz-adv-x="407" 
d="M291 0h-176v229h176v-229zM115 795v229h176v-229h-176z" />
    <glyph glyph-name="semicolon" unicode=";" horiz-adv-x="407" 
d="M172 -227h-127l82 434h176zM291 795h-176v229h176v-229z" />
    <glyph glyph-name="less" unicode="&#x3c;" 
d="M164 662v112l860 352v-114l-711 -293l711 -297v-113z" />
    <glyph glyph-name="equal" unicode="=" 
d="M1024 868h-819v107h819v-107zM1024 565v-106h-819v106h819z" />
    <glyph glyph-name="greater" unicode="&#x3e;" 
d="M205 309v113l713 297l-713 293v114l860 -352v-112z" />
    <glyph glyph-name="question" unicode="?" horiz-adv-x="1093" 
d="M983 1057c0 -56 -12.334 -110 -37.001 -162s-56 -94.667 -94 -128c-74.667 -65.333 -143 -109.333 -205 -132l-37 -14l-6 -185h-139l-10 283c8.66699 3.33301 21.667 7.33301 39 12c16.667 5.33301 45.334 18.333 86.001 39c40 20.667 75.667 43 107 67
c30.667 22.667 59 54.667 85 96c26 40 39 82.667 39 128c0 68.667 -27 127.667 -81 177c-53.333 48.667 -130.666 73 -231.999 73c-134.667 0 -248.667 -54 -342 -162l-90 90c126.667 140.667 276 211 448 211c141.333 0 254.666 -37.333 339.999 -112
c86 -75.333 129 -169 129 -281zM622.999 0h-177v229h177v-229z" />
    <glyph glyph-name="at" unicode="@" horiz-adv-x="2226" 
d="M1632 -133l70 -82c-219.333 -174.667 -470 -262 -752 -262c-257.333 0 -461.333 73.333 -612 220c-151.333 147.333 -227 346.333 -227 597c0 154 30 302 90 444c60.667 143.333 142 267 244 371c102 104.667 226 188.667 372 252c145.333 62.667 299.666 94 462.999 94
c248.667 0 450.334 -69.333 605.001 -208c154 -138.667 231 -319 231 -541c0 -173.333 -44.333 -340.333 -133 -501c-43.333 -76.667 -99.666 -138.667 -168.999 -186c-70.667 -48.667 -148.334 -73 -233.001 -73c-73.333 0 -131.333 19 -174 57s-66.667 91.333 -72 160
c-44.667 -67.333 -103.334 -121.666 -176.001 -162.999s-147.667 -62 -225 -62c-106.667 0 -190.667 36 -252 108c-61.333 71.333 -92 168.333 -92 291c0 184 66 339.667 198 467c130.667 126.667 294 190 490 190c123.333 0 234.666 -26.333 333.999 -79l-115 -654
c-9.33301 -56.667 -1 -101.667 25 -135c26 -34 62 -51 108 -51c66.667 0 126 38 178 114c52 74.667 89 159 111 253c22 93.333 33 180.666 33 261.999c0 180 -63 327 -189 441c-127.333 114 -293.666 171 -498.999 171c-184 0 -352.667 -47 -506 -141
c-154 -95.333 -273.333 -219.333 -358 -372c-85.333 -154.667 -128 -319.667 -128 -495c0 -211.333 63.667 -379.666 191 -504.999c126.667 -124.667 301.334 -187 524.001 -187c117.333 0 233 18 347 54c114 37.333 213.333 87.666 298 150.999zM1368 485l64.002 371
c-68.667 30 -140.334 45 -215.001 45c-134 0 -244.667 -49 -332 -147c-87.333 -99.333 -131 -214 -131 -344c0 -90 22 -161 66 -213c43.333 -52 101.666 -78 174.999 -78c89.333 0 169.333 34.667 240 104c70 70 114.333 157.333 133 262z" />
    <glyph glyph-name="A" unicode="A" horiz-adv-x="1576" 
d="M238 0h-183l647 1434h175l647 -1434h-183l-161 365h-779zM1114 508l-323 727l-326 -727h649z" />
    <glyph glyph-name="B" unicode="B" horiz-adv-x="1421" 
d="M924 0l-758 0.000976562v1434h723c108 0 196 -33 264 -99c68 -67.333 102 -153.333 102 -258c0 -74 -17.333 -139 -52 -195s-82.667 -98.667 -144 -128c79.333 -22 143 -65.667 191 -131c47.333 -66.667 71 -145.334 71 -236.001c0 -113.333 -36.667 -206 -110 -278
c-73.333 -72.667 -169 -109 -287 -109zM866 670.001l-528 0.000976562v-531h528c82 0 148 25 198 75s75 114.667 75 194c0 77.333 -25 140.666 -75 189.999c-50 48 -116 72 -198 72zM338 1294v-479h500c72.667 0 131.334 22.333 176.001 67c44.667 44 67 101.667 67 173
c0 70 -22.333 127.333 -67 172s-103.334 67 -176.001 67h-500z" />
    <glyph glyph-name="C" unicode="C" horiz-adv-x="1441" 
d="M1255 303l103.001 -105.998c-138 -142 -314 -213 -528 -213c-214.667 0 -389.334 68.333 -524.001 205c-134.667 135.333 -202 311.333 -202 528c0 215.333 67.333 391.333 202 528s309.334 205 524.001 205c214 0 390 -71 528 -213l-103 -107
c-44.667 51.333 -104.334 92.666 -179.001 123.999c-73.333 30.667 -152 46 -236 46c-162.667 0 -295 -54 -397 -162c-102.667 -108.667 -154 -248.334 -154 -419.001c0 -172 51.333 -312.333 154 -421c102 -108.667 234.333 -163 397 -163c85.333 0 164.333 15 237 45
c74 30.667 133.333 71.667 178 123z" />
    <glyph glyph-name="D" unicode="D" horiz-adv-x="1546" 
d="M727 0l-561 -0.000976562v1434h561c212 0 385.667 -66.667 521 -200c134.667 -132.667 202 -305 202 -517c0 -211.333 -67 -383.666 -201 -516.999c-135.333 -133.333 -309.333 -200 -522 -200zM1122 302.999c101.333 105.333 152 243.333 152 414
s-50.667 308.667 -152 414c-102 104.667 -233.667 157 -395 157h-389v-1143h389c161.333 0 293 52.667 395 158z" />
    <glyph glyph-name="E" unicode="E" horiz-adv-x="1327" 
d="M166 0v1434h1026v-146h-854v-483h792v-146h-792v-514h870v-145h-1042z" />
    <glyph glyph-name="F" unicode="F" horiz-adv-x="1306" 
d="M166 0v1434h1026v-146h-854v-485h792v-144h-792v-659h-172z" />
    <glyph glyph-name="G" unicode="G" horiz-adv-x="1513" 
d="M1206 631l-391.001 0.00195312v143h563v-579c-138 -140.667 -316 -211 -534 -211c-218.667 0 -396.667 68 -534 204c-137.333 135.333 -206 311.666 -206 528.999c0 215.333 68.667 391.666 206 528.999c136.667 136 314 204 532 204c218.667 0 397.334 -71 536.001 -213
l-100 -107c-50 52.667 -112.833 93.834 -188.5 123.501s-156.167 44.5 -241.5 44.5c-164 0 -298 -54 -402 -162c-104.667 -108.667 -157 -248.334 -157 -419.001c0 -172 52.333 -312.333 157 -421c104 -108.667 239.333 -163 406 -163c142 0 260 41 354 123v375z" />
    <glyph glyph-name="H" unicode="H" horiz-adv-x="1581" 
d="M338 0h-172v1434h172v-631h905v631h172v-1434h-172v659h-905v-659z" />
    <glyph glyph-name="I" unicode="I" horiz-adv-x="503" 
d="M338 1434v-1434h-172v1434h172z" />
    <glyph glyph-name="J" unicode="J" horiz-adv-x="1148" 
d="M821 498l0.000976562 936h172v-936c0 -154 -48.333 -278 -145 -372c-96.667 -94.667 -223 -142 -379 -142s-286.333 50.333 -391 151l102 113c67.333 -75.333 161.666 -113 282.999 -113c104.667 0 190.667 34 258 102c66.667 66.667 100 153.667 100 261z" />
    <glyph glyph-name="K" unicode="K" horiz-adv-x="1376" 
d="M338 485v-485h-172v1434h172v-723l696 723h221l-575 -594l631 -840h-195l-547 723z" />
    <glyph glyph-name="L" unicode="L" horiz-adv-x="1241" 
d="M1171 0h-1005v1434h172v-1289h833v-145z" />
    <glyph glyph-name="M" unicode="M" horiz-adv-x="1855" 
d="M166 0v1434h221l541 -1061l540 1061h222v-1434h-166v1184l-531 -1043h-131l-530 1043v-1184h-166z" />
    <glyph glyph-name="N" unicode="N" horiz-adv-x="1579" 
d="M332 0h-166v1434h166l915 -1160v1160h166v-1434h-164l-917 1165v-1165z" />
    <glyph glyph-name="O" unicode="O" horiz-adv-x="1667" 
d="M307 189c-135.333 136.667 -203 312.667 -203 528c0 214.667 67.667 390.667 203 528c134.667 136.667 310.334 205 527.001 205c214.667 0 390 -68.333 526 -205c135.333 -137.333 203 -313.333 203 -528c0 -216 -68 -392 -204 -528c-136 -136.667 -311 -205 -525 -205
c-216.667 0 -392.334 68.333 -527.001 205zM442 1136c-102 -109.333 -153 -249.002 -153 -419.002s51 -309.667 153 -419c100.667 -108.667 231.334 -163 392.001 -163c161.333 0 292.333 54.333 393 163s151 248.334 151 419.001s-50.333 310.334 -151 419.001
c-100.667 108 -231.667 162 -393 162c-160.667 0 -291.334 -54 -392.001 -162z" />
    <glyph glyph-name="P" unicode="P" horiz-adv-x="1339" 
d="M338 582l-0.000976562 -581.999h-172v1434h659c128.667 0 233.334 -39.333 314.001 -118s121 -180.667 121 -306c0 -126.667 -40.333 -229.334 -121 -308.001c-81.333 -80 -186 -120 -314 -120h-487zM337.999 1288v-560.999h469c83.333 0 151 26.333 203 79
c51.333 53.333 77 121.333 77 204c0 83.333 -25.667 150.666 -77 201.999c-51.333 50.667 -119 76 -203 76h-469z" />
    <glyph glyph-name="Q" unicode="Q" horiz-adv-x="1667" 
d="M307 1246c135.333 136 311 204.002 527 204.002s391.333 -68 526 -204c135.333 -136.667 203 -312.334 203 -527.001c0 -188.667 -54 -349 -162 -481l151 -152l-112 -113l-158 158c-124 -98 -273.333 -147 -448 -147c-216 0 -391.667 68 -527 204
c-135.333 135.333 -203 311.666 -203 528.999c0 216 67.667 392.333 203 529zM1034 602.002l242 -239.999c70.667 96.667 106 214.334 106 353.001c0 173.333 -50.667 314.666 -152 423.999c-102 109.333 -233.333 164 -394 164c-162.667 0 -295 -54.667 -397 -164
c-102.667 -108.667 -154 -249.334 -154 -422.001c0 -172 51.667 -312.667 155 -422s236 -164 398 -164c132.667 0 243.667 37.667 333 113l-247 248z" />
    <glyph glyph-name="R" unicode="R" horiz-adv-x="1415" 
d="M338 0l-172.001 -0.000976562v1434h674c128.667 0 233.334 -39.333 314.001 -118c80 -78.667 120 -180.667 120 -306c0 -102 -27.333 -189.333 -82 -262c-54.667 -73.333 -127.667 -122.666 -219 -147.999l368 -600h-190l-356 582h-457v-582zM820.999 1288h-483v-561h483
c83.333 0 151 26.333 203 79c52 53.333 78 121.333 78 204c0 84 -26 151.333 -78 202c-51.333 50.667 -119 76 -203 76z" />
    <glyph glyph-name="S" unicode="S" horiz-adv-x="1243" 
d="M1133 383c0 -115.333 -47.333 -210.334 -142 -285.001c-95.333 -76 -217.333 -114 -366 -114c-100.667 0 -197 17.667 -289 53s-169.333 84.333 -232 147l91 111c108.667 -106.667 247 -160 415 -160c103.333 0 188.333 22.667 255 68
c65.333 45.333 98 102.666 98 171.999c0 62.667 -27.667 112.667 -83 150c-53.333 36 -139.666 73.333 -258.999 112c-164.667 52.667 -287.334 111.334 -368.001 176.001c-80 64 -120 147.333 -120 250c0 112.667 44 205.667 132 279c88 72 201.667 108 341 108
c94.667 0 185 -17.333 271 -52c86.667 -35.333 157.667 -83 213 -143l-86 -110c-42 46.667 -97.333 84 -166 112c-70 27.333 -141.667 41 -215 41c-94 0 -170.333 -21 -229 -63c-59.333 -43.333 -89 -98.666 -89 -165.999c0 -64 28 -115 84 -153
c56 -38.667 144 -77.667 264 -117c163.333 -55.333 284 -113 362 -173c78.667 -60.667 118 -141.667 118 -243z" />
    <glyph glyph-name="T" unicode="T" horiz-adv-x="1380" 
d="M59 1288v146h1262v-146h-545v-1288h-172v1288h-545z" />
    <glyph glyph-name="U" unicode="U" horiz-adv-x="1554" 
d="M156 596l-0.00195312 838h172v-838c0 -142 41.333 -254.333 124 -337c82 -82.667 190 -124 324 -124c135.333 0 244.333 41.333 327 124s124 195 124 337v838h172v-838c0 -186 -57.333 -334.333 -172 -445c-115.333 -111.333 -265.666 -167 -450.999 -167
c-183.333 0 -332.666 55.667 -447.999 167c-114.667 110.667 -172 259 -172 445z" />
    <glyph glyph-name="V" unicode="V" horiz-adv-x="1556" 
d="M866 0h-174l-637 1434h181l544 -1233l541 1233h182z" />
    <glyph glyph-name="W" unicode="W" horiz-adv-x="2275" 
d="M725 0h-180l-490 1434h176l404 -1203l416 1203h174l413 -1203l406 1203h176l-491 -1434h-181l-409 1202z" />
    <glyph glyph-name="X" unicode="X" horiz-adv-x="1474" 
d="M735 612l-465 -612h-204l563 731l-539 703h207l438 -584l443 584h204l-538 -703l565 -731h-207z" />
    <glyph glyph-name="Y" unicode="Y" horiz-adv-x="1402" 
d="M614 557l-559 877h191l454 -717l459 717h189l-562 -877v-557h-172v557z" />
    <glyph glyph-name="Z" unicode="Z" horiz-adv-x="1382" 
d="M1038 1288h-929v146h1171v-95l-948 -1194h960v-145h-1202v94z" />
    <glyph glyph-name="bracketleft" unicode="[" horiz-adv-x="638" 
d="M182 -307v1843h398v-106h-246v-1631h246v-106h-398z" />
    <glyph glyph-name="backslash" unicode="\" horiz-adv-x="931" 
d="M0 1491l96 45l836 -1798l-94 -45z" />
    <glyph glyph-name="bracketright" unicode="]" horiz-adv-x="638" 
d="M59 1430v106h398v-1843h-398v106h246v1631h-246z" />
    <glyph glyph-name="asciicircum" unicode="^" 
d="M614 1298l-391 -391l-76 76l467 467l467 -467l-75 -76z" />
    <glyph glyph-name="underscore" unicode="_" horiz-adv-x="1024" 
d="M1024 -209h-1024v107h1024v-107z" />
    <glyph glyph-name="grave" unicode="`" horiz-adv-x="604" 
d="M436 1176l-334 268l99 98l301 -301z" />
    <glyph glyph-name="a" unicode="a" horiz-adv-x="1165" 
d="M125 274c0 101.333 47.668 183.665 143.001 246.998s217.666 95 366.999 95c79.333 0 151 -8 215 -24v94c0 62.667 -26.333 114.334 -79 155.001c-52.667 40 -120 60 -202 60c-59.333 0 -119.666 -10 -180.999 -30c-62 -21.333 -112 -49 -150 -83l-82 97
c46 46 108.667 83.667 188 113c78 28 158 42 240 42c126 0 228.333 -32.333 307 -97c79.333 -65.333 119 -149.666 119 -252.999v-690h-160v201c-36.667 -67.333 -88.334 -120.333 -155.001 -159s-140.667 -58 -222 -58c-102 0 -185.333 27.333 -250 82
c-65.333 54 -98 123.333 -98 208zM645.001 503.999c-102.667 0 -187 -20 -253 -60c-66 -41.333 -99 -93 -99 -155c0 -50.667 21.667 -92 65 -124s98 -48 164 -48c96.667 0 175.667 34.667 237 104c60.667 68.667 91 152.667 91 252c-56 20.667 -124.333 31 -205 31z" />
    <glyph glyph-name="b" unicode="b" horiz-adv-x="1216" 
d="M156 57v1428h161v-645c34 63.333 83.333 112.333 148 147c64.667 35.333 134.334 53 209.001 53c133.333 0 241.666 -46 324.999 -138c82 -92 123 -210.333 123 -355c0 -168.667 -56 -304.334 -168 -407.001c-112 -104 -258 -156 -438 -156
c-138.667 0 -258.667 24.333 -360 73zM317 539.001v-377.002c69.333 -26 144 -39 224 -39c121.333 0 220 38.333 296 115c75.333 76.667 113 175.667 113 297c0 108.667 -29.333 197.334 -88 266.001c-59.333 69.333 -134.333 104 -225 104
c-92.667 0 -169 -34.667 -229 -104c-60.667 -69.333 -91 -156.666 -91 -261.999z" />
    <glyph glyph-name="c" unicode="c" horiz-adv-x="1101" 
d="M918 225l95.998 -94c-94.667 -98 -221.667 -147 -381 -147s-288.666 49.333 -387.999 148c-100.667 98 -151 225.333 -151 382c0 155.333 50 282 150 380c99.333 97.333 228.333 146 387 146c157.333 0 285 -49 383 -147l-96 -96c-69.333 69.333 -161 104 -275 104
c-110.667 0 -201 -36 -271 -108c-70.667 -72.667 -106 -165.667 -106 -279c0 -116.667 35.333 -210.667 106 -282c70 -72.667 160.333 -109 271 -109c112.667 0 204.334 34 275.001 102z" />
    <glyph glyph-name="d" unicode="d" horiz-adv-x="1232" 
d="M530 -16c-130 0 -234.999 46.332 -314.999 138.999c-80.667 92.667 -121 213.334 -121 362.001c0 164.667 50 298.667 150 402c98.667 102 229 153 391 153c110 0 203.333 -23.667 280 -71v516h162v-1485h-162v221c-30.667 -70.667 -81.334 -127.667 -152.001 -171
c-71.333 -44 -149 -66 -233 -66zM655.001 900.999c-116.667 0 -210.332 -37.334 -280.999 -112.001c-72 -75.333 -108 -173.666 -108 -294.999c0 -110 29.667 -199.667 89 -269s135.666 -104 228.999 -104c94.667 0 173.667 37.667 237 113c62.667 74.667 94 168.667 94 282
v313c-75.333 48 -162 72 -260 72z" />
    <glyph glyph-name="e" unicode="e" horiz-adv-x="1193" 
d="M1096 463l-832.001 0.00195312c5.33301 -100.667 45.333 -182.334 120 -245.001c75.333 -63.333 169.333 -95 282 -95c122.667 0 219.334 34 290.001 102l91 -90c-98.667 -101.333 -232 -151.666 -400 -150.999c-164 0 -297 50 -399 150
c-102.667 98.667 -154 228.667 -154 390c0 150.667 47 274.667 141 372c92.667 96 213 144 361 144c149.333 0 270.333 -49 363 -147c92.667 -98.667 139 -226.334 139 -383.001c0 -16.667 -0.666992 -32.334 -2 -47.001zM265.999 586.002l666.001 -0.000976562
c-3.33301 94 -35 170.333 -95 229c-60.667 58.667 -137.667 88 -231 88c-92.667 0 -170.334 -29.333 -233.001 -88c-63.333 -59.333 -99 -135.666 -107 -228.999z" />
    <glyph glyph-name="f" unicode="f" horiz-adv-x="833" 
d="M248 895l-199.001 0.000976562v129h199v141c0 100.667 30.333 181.667 91 243c60.667 62 138.667 93 234 93c96.667 0 179.334 -36 248.001 -108l-84 -99c-44 44 -94.333 66 -151 66c-52 0 -94.333 -17.333 -127 -52s-49 -79.334 -49 -134.001v-150h374v-129h-374v-895
h-162v895z" />
    <glyph glyph-name="g" unicode="g" horiz-adv-x="1216" 
d="M541 -16c-132.667 0 -240.333 46.002 -323 138.002c-82.667 91.333 -124 209.666 -124 354.999c0 168 55.667 304 167 408c111.333 103.333 257.666 155 438.999 155c132.667 0 253 -24.333 361 -73v-963c0 -142.667 -48 -258.334 -144 -347.001
c-97.333 -89.333 -222.666 -134 -375.999 -134c-160.667 0 -292.667 49.667 -396 149l93 95c74 -69.333 169.333 -104.333 286 -105c112.667 0 203.667 31.333 273 94c69.333 63.333 104 145.333 104 246v182c-36.667 -62.667 -86.667 -111.667 -150 -147
s-133.333 -53 -210 -53zM676.001 901.002c-122.667 0 -221.667 -37.667 -297 -113c-75.333 -76.667 -113 -176.334 -113 -299.001c0 -109.333 29.333 -198.333 88 -267s133.334 -103 224.001 -103c93.333 0 170.666 35 231.999 105c60.667 68.667 91 156.334 91 263.001v377
c-72 24.667 -147 37 -225 37z" />
    <glyph glyph-name="h" unicode="h" horiz-adv-x="1241" 
d="M317 494l-0.00195312 -494h-161v1485h161v-684c36.667 75.333 88.834 134 156.501 176s143.834 63 228.501 63c116 0 210.667 -36 284 -108c73.333 -73.333 110 -167.666 110 -282.999v-649h-160v616c0 85.333 -26 154.666 -78 207.999c-52 52.667 -119 79 -201 79
c-101.333 0 -183.333 -38.333 -246 -115s-94 -174.667 -94 -294z" />
    <glyph glyph-name="i" unicode="i" horiz-adv-x="473" 
d="M317 0h-161v1024h161v-1024zM317 1241h-161v193h161v-193z" />
    <glyph glyph-name="j" unicode="j" horiz-adv-x="493" 
d="M-236 -375l84.001 96c41.333 -38 90.666 -57 147.999 -57c53.333 0 96.666 18.667 129.999 56c33.333 38.667 50 87 50 145v1159h162v-1165c0 -100 -30.667 -180.667 -92 -242s-140.666 -92 -237.999 -92c-98.667 0 -180 33.333 -244 100zM338.001 1434v-193h-162v193
h162z" />
    <glyph glyph-name="k" unicode="k" horiz-adv-x="1116" 
d="M156 0v1485h161v-961l480 500h194l-391 -410l453 -614h-179l-376 508l-181 -189v-319h-161z" />
    <glyph glyph-name="l" unicode="l" horiz-adv-x="577" 
d="M494 156l77 -97c-48 -50.667 -107.333 -76 -178 -76c-71.333 1.33301 -128.333 24 -171 68c-44 44 -66 100.667 -66 170v1264h161v-1254c0 -31.333 9.33301 -56.833 28 -76.5s43 -29.5 73 -29.5s55.333 10.333 76 31z" />
    <glyph glyph-name="m" unicode="m" horiz-adv-x="1869" 
d="M317 561v-561h-161v1024h161v-168c34 58 80.5 103.167 139.5 135.5s125.167 48.5 198.5 48.5c79.333 0 147.666 -18.333 204.999 -55s99 -88 125 -154c34.667 63.333 85 114.333 151 153c65.333 37.333 137.333 56 216 56c114 0 204.333 -35.333 271 -106
c67.333 -71.333 101 -165 101 -281v-653h-161v653c0 74.667 -22.667 135.667 -68 183c-44.667 46 -104 69 -178 69c-86 0 -157 -30.667 -213 -92c-56 -60.667 -84 -140 -84 -238v-575h-160v653c0 75.333 -22.333 136.333 -67 183c-44.667 46 -103.667 69 -177 69
c-85.333 0 -156.666 -32.667 -213.999 -98c-56.667 -64.667 -85 -146.667 -85 -246z" />
    <glyph glyph-name="n" unicode="n" horiz-adv-x="1241" 
d="M317 0h-161.002v1024h161v-223c36.667 75.333 88.834 134 156.501 176s143.834 63 228.501 63c116 0 210.667 -36 284 -108c73.333 -73.333 110 -167.666 110 -282.999v-649h-160v616c0 85.333 -26 154.666 -78 207.999c-52 52.667 -119 79 -201 79
c-101.333 0 -183.333 -38.333 -246 -115s-94 -174.667 -94 -294v-494z" />
    <glyph glyph-name="o" unicode="o" horiz-adv-x="1257" 
d="M244 132c-100 98 -150.001 224.667 -150.001 380c0 154.667 50 281.667 150 381c98.667 98 227 147 385 147c156.667 0 285 -49 385 -147c99.333 -99.333 149 -226.333 149 -381c0 -155.333 -49.667 -282 -149 -380c-99.333 -98.667 -227.666 -148 -384.999 -148
c-158 0 -286.333 49.333 -385 148zM265.999 512c0 -114.667 33.999 -207.999 101.999 -279.999c66.667 -72.667 153.667 -109 261 -109c108 0 195.333 36.333 262 109c66.667 71.333 100 164.666 100 279.999c0 116.667 -33.333 210.667 -100 282
c-67.333 71.333 -154.666 107 -261.999 107c-106.667 0 -193.667 -35.667 -261 -107c-68 -72 -102 -166 -102 -282z" />
    <glyph glyph-name="p" unicode="p" horiz-adv-x="1232" 
d="M317 -461h-161v1485h161v-225c30.667 72.667 81.667 131 153 175c70 44 147.333 66 232 66c130 0 235.333 -46.333 316 -139s121 -213.334 121 -362.001c0 -163.333 -49.667 -296.666 -149 -399.999c-100 -103.333 -230.667 -155 -392 -155
c-110 0 -203.667 23.667 -281 71v-516zM317 508v-313c75.333 -48 162.333 -72 261 -72c116 0 210 37.667 282 113c71.333 75.333 107 173.333 107 294c0 112 -29.667 202.667 -89 272c-60 68.667 -136.333 103 -229 103c-96.667 0 -176 -37 -238 -111
c-62.667 -74.667 -94 -170 -94 -286z" />
    <glyph glyph-name="q" unicode="q" horiz-adv-x="1216" 
d="M543 -16c-134 0 -242.331 46.333 -324.998 139s-124 212 -124 358c0 167.333 55.333 302.333 166 405s256 154 436 154c139.333 0 261 -24.333 365 -73v-1428h-160v645c-34.667 -62.667 -84.334 -111.667 -149.001 -147s-134.334 -53 -209.001 -53zM678.002 901
c-121.333 0 -220.333 -38.001 -297 -114.001c-76.667 -76.667 -115 -176.667 -115 -300c0 -108 29.333 -196.333 88 -265s134 -103 226 -103s168.667 35 230 105c60.667 68.667 91 156.334 91 263.001v375c-70.667 26 -145 39 -223 39z" />
    <glyph glyph-name="r" unicode="r" horiz-adv-x="768" 
d="M317 0l-161 -0.000976562v1024h161v-272c36.667 90.667 90.167 161.334 160.5 212.001s150.833 76 241.5 76v-155c-118 0 -214.333 -39 -289 -117c-75.333 -78.667 -113 -177.667 -113 -297v-471z" />
    <glyph glyph-name="s" unicode="s" horiz-adv-x="970" 
d="M870 283c0 -90 -35.999 -162.331 -107.999 -216.998c-72.667 -54.667 -169 -82 -289 -82c-149.333 0 -275.666 46.333 -378.999 139l86 96c75.333 -65.333 171.666 -98 288.999 -98c74 0 133.667 14 179 42c44.667 28 67 64.333 67 109c0 29.333 -12 55.666 -36 78.999
c-23.333 22 -50 39.333 -80 52c-31.333 12 -70.666 25.667 -117.999 41c-12 4 -18.667 6.33301 -20 7c-58.667 18.667 -100.334 33 -125.001 43c-30 12 -64 30 -102 54c-75.333 46.667 -113 115.334 -113 206.001c0 85.333 34 154.666 102 207.999c67.333 52 157 78 269 78
c143.333 0 259.333 -44.333 348 -133l-86 -96c-64.667 61.333 -150 92 -256 92c-66.667 0 -120.334 -13 -161.001 -39s-61 -60 -61 -102c0 -30 13.667 -57 41 -81s54.333 -41 81 -51c29.333 -12 70 -26 122 -42c60 -18.667 103.667 -33.334 131 -44.001s63 -29 107 -55
c74.667 -47.333 112 -116 112 -206z" />
    <glyph glyph-name="t" unicode="t" horiz-adv-x="884" 
d="M410 1300l0.000976562 -275.999h360v-129h-360v-586c0 -54.667 16.333 -99 49 -133s75.667 -51 129 -51c56 0 103.667 19.667 143 59l84 -80c-61.333 -81.333 -146 -121.333 -254 -120c-90.667 0 -165.334 28.333 -224.001 85c-59.333 57.333 -89 130.666 -89 219.999
v606h-199v129h199v213z" />
    <glyph glyph-name="u" unicode="u" horiz-adv-x="1249" 
d="M156 375l-0.000976562 648.999h161v-616c0 -85.333 25.667 -154.666 77 -207.999c50.667 -52.667 117.334 -79 200.001 -79c100 0 181.333 39 244 117c62.667 76.667 94 174 94 292v494h162v-1024h-162v223c-36.667 -75.333 -88.5 -134 -155.5 -176
s-142.833 -63 -227.5 -63c-116 0 -210.333 36.333 -283 109c-73.333 72 -110 166 -110 282z" />
    <glyph glyph-name="v" unicode="v" horiz-adv-x="1159" 
d="M498 0l-453 1024h168l367 -842l366 842h168l-455 -1024h-161z" />
    <glyph glyph-name="w" unicode="w" horiz-adv-x="1679" 
d="M557 0h-151l-361 1024h160l280 -815l281 815h147l279 -815l283 815h159l-362 -1024h-152l-280 805z" />
    <glyph glyph-name="x" unicode="x" horiz-adv-x="1150" 
d="M575 418l-317 -418h-195l412 524l-389 500h193l296 -393l297 393h193l-389 -500l411 -524h-194z" />
    <glyph glyph-name="y" unicode="y" horiz-adv-x="1153" 
d="M440 -145l66 143l-461 1026h166l371 -842l360 842h166l-533 -1227c-41.333 -92.667 -87.333 -161.5 -138 -206.5s-112.334 -67.5 -185.001 -67.5c-77.333 0 -146.333 27.333 -207 82l84 100c34.667 -27.333 72.334 -41 113.001 -41s76 15.167 106 45.5
s60.667 78.833 92 145.5z" />
    <glyph glyph-name="z" unicode="z" horiz-adv-x="1064" 
d="M745 895h-639v129h867v-84l-654 -811h662v-129h-885v84z" />
    <glyph glyph-name="braceleft" unicode="{" horiz-adv-x="638" 
d="M92 561l0.000976562 107.003c54.667 0 99 22.667 133 68s51 103.666 51 174.999v332c0 91.333 29 165.666 87 222.999c57.333 57.333 132.333 86 225 86v-106c-48 0 -87 -16.667 -117 -50s-45 -76.666 -45 -129.999v-338c0 -72 -14 -136.667 -42 -194
c-27.333 -56 -63.333 -93.667 -108 -113c-4.66699 -4.66699 -9.33398 -7 -14.001 -7c5.33301 0 10 -2 14 -6c44 -18.667 80 -55.334 108 -110.001s42 -116.334 42 -185.001v-354c0 -52 15 -94.333 45 -127s69 -49 117 -49v-107c-93.333 0 -168.333 28.333 -225 85
c-58 56.667 -87 131 -87 223v342c0 67.333 -17.333 123.333 -52 168s-78.667 67 -132 67z" />
    <glyph glyph-name="bar" unicode="|" horiz-adv-x="555" 
d="M330 1536v-1843h-107v1843h107z" />
    <glyph glyph-name="braceright" unicode="}" horiz-adv-x="638" 
d="M51 -324l0.00195312 106.999c48 0 87 16.333 117 49s45 75 45 127v354c0 68.667 14 130.334 42 185.001c27.333 54 63 90.667 107 110c4 4 9 6 15 6c-5.33301 0 -10.333 2.33301 -15 7c-44.667 19.333 -80.334 57.333 -107.001 114c-28 56 -42 120.333 -42 193v338
c0 53.333 -15 96.666 -45 129.999s-69 50 -117 50v106c92.667 0 167.667 -28.667 225 -86s86 -131.666 86 -222.999v-332c0 -72.667 17.333 -131.334 52 -176.001c34 -44.667 78.333 -67 133 -67v-107c-52.667 0 -96.334 -22.333 -131.001 -67
c-36 -45.333 -54 -101.333 -54 -168v-342c0 -91.333 -28.667 -165.666 -86 -222.999c-56.667 -56.667 -131.667 -85 -225 -85z" />
    <glyph glyph-name="asciitilde" unicode="~" 
d="M424 739c-46 0 -83.1689 -14.5 -111.502 -43.5s-42.5 -66.833 -42.5 -113.5h-129c0 84.667 25.667 153.667 77 207c50.667 52.667 118 79 202 79c41.333 0 80.833 -7.83301 118.5 -23.5s68.5 -35.167 92.5 -58.5c58.667 -56 116 -84 172 -84
c46.667 0 84.167 14.333 112.5 43s42.5 66.334 42.5 113.001h129c0 -84 -26 -152.333 -78 -205c-53.333 -53.333 -120.666 -80 -201.999 -80c-41.333 0 -80.666 8.16699 -117.999 24.5s-68 36.166 -92 59.499c-56 54.667 -113.667 82 -173 82z" />
    <glyph glyph-name="exclamdown" unicode="&#xa1;" horiz-adv-x="460" 
d="M141 1024h176v-229h-176v229zM160 588h139l16 -998h-172z" />
    <glyph glyph-name="cent" unicode="&#xa2;" horiz-adv-x="1101" 
d="M94 514c0 143.333 42.666 262.668 127.999 358.001c84 94 196.333 148.667 337 164v193h107v-189c142 -8 258 -57 348 -147l-96 -96c-62 62 -146 96.667 -252 104c-118.667 0 -215 -34 -289 -102c-74 -68.667 -111 -163.667 -111 -285c0 -120 36.333 -215 109 -285
c71.333 -70.667 168.333 -106 291 -106c104 7.33301 188 41.333 252 102l96 -94c-86.667 -90 -202.667 -139 -348 -147v-189h-107v193c-139.333 15.333 -251.666 70.666 -336.999 165.999s-128 215.333 -128 360z" />
    <glyph glyph-name="sterling" unicode="&#xa3;" horiz-adv-x="1220" 
d="M264 606l-183.998 0.000976562v113h184v256c0 140.667 45.667 255 137 343s209.666 132 354.999 132c155.333 0 283.666 -50.667 384.999 -152l-101 -112c-67.333 75.333 -160 112.666 -278 111.999c-96 0 -174.333 -29.667 -235 -89
c-60.667 -58.667 -91 -136.667 -91 -234v-256h365v-113h-365v-473h678v-133h-1034v133h184v473z" />
    <glyph glyph-name="currency" unicode="&#xa4;" 
d="M236 262l-76 76l172 172c-40.667 58.667 -61 127.667 -61 207c-0.666992 78 19.666 147 60.999 207l-172 172l76 75l172 -172c56 38.667 124.667 58.667 206 60c77.333 0 146.333 -20 207 -60l172 172l76 -75l-172 -172c40.667 -58.667 61 -127.667 61 -207
s-20.333 -148.333 -61 -207l172 -172l-76 -76l-170 172c-59.333 -40.667 -128.666 -61 -207.999 -61s-148.333 20.333 -207 61zM614 473c74 0 133 22.666 177 67.999c43.333 45.333 65 104 65 176c0 70.667 -22.667 128.667 -68 174c-45.333 44.667 -103.333 67 -174 67
c-72 0 -130.667 -21.667 -176 -65c-44.667 -44 -67 -102.667 -67 -176c0 -71.333 22.333 -129.666 67 -174.999c45.333 -46 104 -69 176 -69z" />
    <glyph glyph-name="yen" unicode="&#xa5;" horiz-adv-x="1402" 
d="M326 637h237l-508 797h191l454 -717l459 717h189l-510 -797h231v-107h-283v-190h283v-107h-283v-233h-172v233h-288v107h288v190h-288v107z" />
    <glyph glyph-name="brokenbar" unicode="&#xa6;" horiz-adv-x="555" 
d="M330 1536v-717h-107v717h107zM223 -307v717h107v-717h-107z" />
    <glyph glyph-name="section" unicode="&#xa7;" horiz-adv-x="991" 
d="M98 123l86.002 95.9961c75.333 -65.333 173 -98 293 -98c72.667 0 131.667 13 177 39c44.667 26 67 59.333 67 100c0 26.667 -12.667 50.667 -38 72c-26 20.667 -53 36.334 -81 47.001c-29.333 11.333 -74.333 26.333 -135 45c-14 4.66699 -23 7.33398 -27 8.00098
c-41.333 11.333 -77.666 24 -108.999 38c-32 14.667 -64 32.334 -96 53.001c-72 46 -108 116.667 -108 212c0 107.333 45 187.333 135 240c-90 55.333 -135 129 -135 221c0 84.667 33.667 152.667 101 204s156.666 77 267.999 77c142.667 0 258.667 -44.667 348 -134
l-84 -96c-65.333 61.333 -151.333 92 -258 92c-66.667 0 -120.167 -12.5 -160.5 -37.5s-60.5 -58.833 -60.5 -101.5c0 -53.333 43 -98.333 129 -135c18.667 -8 69.667 -25.667 153 -53c44 -14 72.667 -23.333 86 -28c27.333 -11.333 54.333 -24 81 -38
c31.333 -16.667 56.666 -34.667 75.999 -54c45.333 -45.333 68 -101.666 68 -168.999c0 -107.333 -50.333 -187.333 -151 -240c101.333 -51.333 151.666 -124.333 150.999 -219c0 -84 -36 -151.667 -108 -203c-73.333 -51.333 -169 -77 -287 -77
c-150.667 0 -277.667 46.333 -381 139zM457.002 894.996c-8 0 -16.332 2.66406 -24.999 7.99707c-49.333 -9.33301 -88 -27.666 -116 -54.999s-42 -60 -42 -98c0 -48 21 -86 63 -114c41.333 -28.667 112 -58.334 212 -89.001c55.333 9.33301 98.5 27.833 129.5 55.5
s46.5 61.834 46.5 102.501c0 32.667 -13 61.334 -39 86.001c-26.667 24.667 -53.334 42.334 -80.001 53.001c-26 10.667 -69.667 25.667 -131 45c-8 3.33301 -14 5.33301 -18 6z" />
    <glyph glyph-name="dieresis" unicode="&#xa8;" horiz-adv-x="804" 
d="M702 1247h-155v187h155v-187zM258 1434v-187h-156v187h156z" />
    <glyph glyph-name="copyright" unicode="&#xa9;" horiz-adv-x="1685" 
d="M325 199c-142.667 142.667 -214 315.334 -214 518.001s71.333 375.334 214 518.001c143.333 143.333 315.666 215 516.999 215c202.667 0 375.667 -71.667 519 -215c142.667 -142.667 214 -315.334 214 -518.001s-71.333 -375.334 -214 -518.001
c-143.333 -143.333 -316.333 -215 -519 -215c-201.333 0 -373.666 71.667 -516.999 215zM400 1160c-122 -122 -183.001 -269.667 -183.001 -443s61 -321 183 -443c120.667 -122.667 268 -184 442 -184c173.333 0 321 61.333 443 184c122 122 183 269.667 183 443
s-61 321 -183 443s-269.667 183 -443 183s-320.666 -61 -441.999 -183zM1085 502l67.999 -72.001c-74 -78 -171.667 -117 -293 -117c-118.667 0 -214.667 37.667 -288 113c-74 74.667 -111 171.667 -111 291c0 120 37.333 217.333 112 292c74 74 169.667 111 287 111
c120 0 217.667 -38.667 293 -116l-68 -70c-49.333 57.333 -121.666 86 -216.999 86c-84.667 0 -153 -28 -205 -84c-52.667 -55.333 -79 -127.666 -79 -216.999c0 -90 26.333 -163.333 79 -220c52 -56.667 120.333 -85 205 -85c96 0 168.333 29.333 217 88z" />
    <glyph glyph-name="ordfeminine" unicode="&#xaa;" horiz-adv-x="837" 
d="M92 911c0 69.333 33.667 126.667 101 172s154 68 260 68c52.667 0 101.667 -5.33301 147 -16v61c0 42 -18 76 -54 102s-82 39 -138 39c-88 0 -164.667 -25 -230 -75l-61 75c32.667 32.667 76.667 59 132 79s112.333 30 171 30c88 0 160.667 -23 218 -69
c56.667 -46.667 85 -105.667 85 -177v-483h-123v129c-58.667 -94 -145.334 -141 -260.001 -141c-73.333 0 -132.666 19.333 -177.999 58c-46.667 38.667 -70 88 -70 148zM463 1063c-68.667 0 -125.666 -13.001 -170.999 -39.001c-44.667 -26 -67 -60 -67 -102
c0 -32.667 14.333 -59.667 43 -81s65.667 -32 111 -32c65.333 0 118.666 22.667 159.999 68c40.667 44.667 61 100.334 61 167.001c-37.333 12.667 -83 19 -137 19z" />
    <glyph glyph-name="guillemotleft" unicode="&#xab;" horiz-adv-x="1097" 
d="M555 260l-74 -76l-368 369l368 367l74 -76l-291 -291zM956 260l-73 -76l-369 369l369 367l73 -76l-290 -291z" />
    <glyph glyph-name="logicalnot" unicode="&#xac;" 
d="M918 664h-713v106h819v-401h-106v295z" />
    <glyph glyph-name="uni00AD" unicode="&#xad;" horiz-adv-x="768" 
d="M635 500h-502v106h502v-106z" />
    <glyph glyph-name="registered" unicode="&#xae;" horiz-adv-x="1685" 
d="M842 -16c-201.333 0 -373.666 71.667 -516.999 215c-142.667 142.667 -214 315.334 -214 518.001s71.333 375.334 214 518.001c143.333 143.333 315.666 215 516.999 215c202.667 0 375.667 -71.667 519 -215c142.667 -142.667 214 -315.334 214 -518.001
s-71.333 -375.334 -214 -518.001c-143.333 -143.333 -316.333 -215 -519 -215zM1285 1160c-122 122 -269.668 183 -443.001 183s-320.666 -61 -441.999 -183c-122 -122 -183 -269.667 -183 -443s61 -321 183 -443c120.667 -122.667 268 -184 442 -184
c173.333 0 321 61.333 443 184c122 122 183 269.667 183 443s-61 321 -183 443zM665.999 637v-313h-117v788h375c72 0 130.667 -21.667 176 -65c44.667 -44 67 -101.667 67 -173c0 -54.667 -14 -102 -42 -142s-66.333 -67.667 -115 -83l196 -325h-127l-188 313h-225z
M910.999 1016h-245v-285h245c40.667 0 74.167 13.5 100.5 40.5s39.5 61.5 39.5 103.5s-13 76 -39 102s-59.667 39 -101 39z" />
    <glyph glyph-name="overscore" unicode="&#xaf;" horiz-adv-x="739" 
d="M637 1382v-106h-535v106h535z" />
    <glyph glyph-name="degree" unicode="&#xb0;" horiz-adv-x="669" 
d="M159 1032c-44.667 44 -66.999 102.334 -66.999 175.001c0 72 22.667 130.667 68 176c44.667 44.667 102.667 67 174 67c73.333 0 132.333 -22.333 177 -67s67 -103.334 67 -176.001s-22.667 -131 -68 -175c-44.667 -44.667 -103.334 -67 -176.001 -67
s-131 22.333 -175 67zM193.001 1208c0 -44 12.833 -78.834 38.5 -104.501s60.5 -38.5 104.5 -38.5c40.667 0 74 13.333 100 40s39 61.334 39 104.001c0 41.333 -13 74.833 -39 100.5s-59.333 38.5 -100 38.5c-44 0 -78.833 -12.833 -104.5 -38.5s-38.5 -59.5 -38.5 -101.5z
" />
    <glyph glyph-name="plusminus" unicode="&#xb1;" 
d="M561 817h-356v107h356v356h107v-356h356v-107h-356v-356h-107v356zM1024 203h-819v106h819v-106z" />
    <glyph glyph-name="uni00B2" unicode="&#xb2;" horiz-adv-x="661" 
d="M586 748l-514.001 0.000976562v79c12.667 8 26.667 18.333 42 31l91 79c44.667 40.667 83.667 79 117 115c34 36.667 64.667 80 92 130c27.333 49.333 41 93.666 41 132.999c0 41.333 -14 74.5 -42 99.5s-67.333 37.5 -118 37.5c-66.667 0 -124 -26 -172 -78l-62 60
c73.333 75.333 156 112.666 248 111.999c76.667 0 139.334 -21.333 188.001 -64c48 -42.667 72 -97 72 -163c0 -42 -11 -87.333 -33 -136c-23.333 -49.333 -51 -93 -83 -131c-70 -83.333 -131 -144.666 -183 -183.999l-32 -28h348v-92z" />
    <glyph glyph-name="uni00B3" unicode="&#xb3;" horiz-adv-x="673" 
d="M326 739c-108 0 -196.998 37.001 -266.998 111.001l62 63c45.333 -54 108.666 -80.333 189.999 -79c52 0 94.333 13 127 39s49 60 49 102s-15.667 76.333 -47 103s-72.333 40 -123 40h-57v84h59c42 0 76.5 11.667 103.5 35s40.5 53.333 40.5 90s-13.833 66.667 -41.5 90
s-64.5 35 -110.5 35c-74 0 -134 -27.333 -180 -82l-61 64c67.333 74 152.666 110.667 255.999 110c73.333 0 133.333 -18.667 180 -56c46 -37.333 69 -86.333 69 -147c0 -87.333 -41.333 -147.333 -124 -180c46.667 -16.667 83.167 -42.667 109.5 -78s39.5 -76 39.5 -122
c0 -66.667 -25 -120.334 -75 -161.001c-50.667 -40.667 -117 -61 -199 -61z" />
    <glyph glyph-name="acute" unicode="&#xb4;" horiz-adv-x="602" 
d="M102 1241l299 301l99 -98l-332 -268z" />
    <glyph glyph-name="mu" unicode="&#xb5;" horiz-adv-x="1257" 
d="M322 -410l-162 -0.00195312v1436h162v-618c0 -85.333 25.667 -154.666 77 -207.999c50.667 -52.667 117 -79 199 -79c99.333 0 180.666 38.667 243.999 116c62.667 76.667 94 174.334 94 293.001v496h162v-1026h-162v223c-37.333 -74 -87.666 -132 -150.999 -174
c-64.667 -42 -134.667 -63 -210 -63c-114 0 -198.333 40 -253 120v-516z" />
    <glyph glyph-name="paragraph" unicode="&#xb6;" horiz-adv-x="1216" 
d="M86 1010c0 124.667 40.333 226.333 121 305c81.333 79.333 185 119 311 119h178v-1895h-106v1043h-72c-126 0 -229.667 40 -311 120c-80.667 80 -121 182.667 -121 308zM1047 -461.001h-107v1895h107v-1895z" />
    <glyph glyph-name="middot" unicode="&#xb7;" horiz-adv-x="395" 
d="M281 608h-166v217h166v-217z" />
    <glyph glyph-name="cedilla" unicode="&#xb8;" horiz-adv-x="585" 
d="M102 -338l60 61.999c29.333 -36 71 -54.667 125 -56c26.667 0 48.667 6 66 18s26 28 26 48c0 24 -13.667 43.333 -41 58s-63 22 -107 22l25 186h94l-18 -119c45.333 -5.33301 81.833 -22.666 109.5 -51.999s41.5 -64.333 41.5 -105c0 -44.667 -16.5 -80.5 -49.5 -107.5
s-75.833 -40.5 -128.5 -40.5c-88 0 -155.667 28.667 -203 86z" />
    <glyph glyph-name="uni00B9" unicode="&#xb9;" horiz-adv-x="520" 
d="M117 1315l-47 84l243 137h86v-788h-108v665z" />
    <glyph glyph-name="ordmasculine" unicode="&#xba;" horiz-adv-x="905" 
d="M180 808c-70.667 68.667 -106 157.667 -106 267c0 110 35.333 199.333 106 268c69.333 68.667 160.333 103 273 103s203.667 -34.333 273 -103c70 -68.667 105 -158 105 -268c0 -108.667 -35 -197.667 -105 -267c-69.333 -68.667 -160.333 -103 -273 -103
s-203.667 34.333 -273 103zM277 1265c-45.333 -49.333 -68 -112.667 -68 -190s22.667 -140.333 68 -189c44.667 -48.667 103.334 -73 176.001 -73s131.334 24.333 176.001 73c44.667 47.333 67 110.333 67 189c0 78 -22.333 141.333 -67 190
c-44.667 48 -103.334 72 -176.001 72s-131.334 -24 -176.001 -72z" />
    <glyph glyph-name="guillemotright" unicode="&#xbb;" horiz-adv-x="1097" 
d="M543 844l75 76l369 -367l-369 -369l-75 76l293 293zM141 844l76 76l369 -367l-369 -369l-76 76l293 293z" />
    <glyph glyph-name="onequarter" unicode="&#xbc;" horiz-adv-x="1597" 
d="M1319 164h-418v55l406 569h125v-540h104v-84h-104v-164h-113v164zM338 4l-123 -4l1002 1432l124 4zM117 1212l-47 84l243 138h86v-789h-108v666zM1319 643l-285 -395h285v395z" />
    <glyph glyph-name="onehalf" unicode="&#xbd;" horiz-adv-x="1677" 
d="M117 1212l-47 84l243 138h86v-789h-108v666zM1362 1436l-1004 -1432l-122 -4l1001 1432zM1602 0l-515.001 0.000976562v80c12.667 8 26.667 18.333 42 31c14 10.667 44.667 37 92 79c46.667 42 85 80 115 114c34 38 64.333 81.333 91 130
c27.333 49.333 41 93.666 41 132.999c0 42 -13.5 75.5 -40.5 100.5s-65.833 37.5 -116.5 37.5c-66.667 0 -124 -26 -172 -78l-62 59c73.333 75.333 156 113 248 113c76.667 0 139.334 -21.333 188.001 -64c48 -43.333 72 -98 72 -164c0 -42 -11 -87.333 -33 -136
c-23.333 -49.333 -51 -93 -83 -131c-72 -84 -133 -145.667 -183 -185l-33 -27h349v-92z" />
    <glyph glyph-name="threequarters" unicode="&#xbe;" horiz-adv-x="1708" 
d="M1432 164h-418v55l405 569h125v-540h105v-84h-105v-164h-112v164zM1454 1436l-1003 -1432l-123 -4l999 1432zM59 748l62.002 63c45.333 -53.333 108.666 -80 189.999 -80c52 0 94.333 13 127 39s49 60.333 49 103c0 42 -15.667 76.333 -47 103s-72.333 40 -123 40h-57v84
h59c42 0 76.5 11.667 103.5 35s40.5 53.333 40.5 90c0 37.333 -13.833 67.5 -41.5 90.5s-64.5 34.5 -110.5 34.5c-74 0 -134 -27.333 -180 -82l-61 63c67.333 74 152.666 111 255.999 111c73.333 0 133.333 -18.667 180 -56c46 -38 69 -87 69 -147
c0 -87.333 -41.333 -147.333 -124 -180c46.667 -16.667 83.167 -42.667 109.5 -78s39.5 -76.333 39.5 -123c0 -66.667 -25 -120 -75 -160c-50.667 -40.667 -117 -61 -199 -61c-109.333 0 -198.333 37 -267 111zM1432 643l-285 -395h285v395z" />
    <glyph glyph-name="questiondown" unicode="&#xbf;" horiz-adv-x="1093" 
d="M111 -33c0 56.667 12.165 110.832 36.498 162.499s55.5 94.167 93.5 127.5c34 30 69.5 57 106.5 81s68.5 41 94.5 51l39 14l8 185h140l8 -283c-4 -1.33301 -16.667 -5.33301 -38 -12c-15.333 -4.66699 -43.666 -17.667 -84.999 -39s-77.333 -43.333 -108 -66
c-31.333 -23.333 -59.666 -55.333 -84.999 -96c-25.333 -41.333 -38 -84.333 -38 -129c0 -68.667 26.667 -127.667 80 -177c52.667 -48.667 129.667 -73 231 -73c136 0 250.667 54 344 162l90 -90c-126.667 -140.667 -276.667 -211 -450 -211
c-140 0 -252.667 37.333 -338 112c-86 74.667 -129 168.334 -129 281.001zM470.998 1024h176v-229h-176v229z" />
    <glyph glyph-name="Agrave" unicode="&#xc0;" horiz-adv-x="1576" 
d="M238 0h-183l647 1434h175l647 -1434h-183l-161 365h-779zM1114 508l-323 727l-326 -727h649zM934 1571l-66 -66l-333 267l98 98z" />
    <glyph glyph-name="Aacute" unicode="&#xc1;" horiz-adv-x="1576" 
d="M238 0h-183l647 1434h175l647 -1434h-183l-161 365h-779zM1114 508l-323 727l-326 -727h649zM1044 1772l-331 -267l-66 66l299 299z" />
    <glyph glyph-name="Acircumflex" unicode="&#xc2;" horiz-adv-x="1576" 
d="M238 0h-183l647 1434h175l647 -1434h-183l-161 365h-779zM1114 508l-323 727l-326 -727h649zM545 1532l-82 82l328 233l329 -233l-82 -82l-247 176z" />
    <glyph glyph-name="Atilde" unicode="&#xc3;" horiz-adv-x="1576" 
d="M238 0h-183l647 1434h175l647 -1434h-183l-161 365h-779zM1114 508l-323 727l-326 -727h649zM590 1569l-116.999 0.00292969c0 64 19.333 115.333 58 154c38 38 87.667 57 149 57c26.667 0.666992 52 -4.33301 76 -15s43.167 -22.667 57.5 -36s30 -25.333 47 -36
s32.5 -15.334 46.5 -14.001c24.667 0 44.5 8.66699 59.5 26s22.5 39.666 22.5 66.999h119c0 -62.667 -19.333 -113.334 -58 -152.001c-39.333 -39.333 -89 -59 -149 -59c-46 0 -89.333 16.667 -130 50s-73 50 -97 50c-24.667 0 -44.834 -8.33301 -60.501 -25
s-23.5 -39 -23.5 -67z" />
    <glyph glyph-name="Adieresis" unicode="&#xc4;" horiz-adv-x="1576" 
d="M238 0h-183l647 1434h175l647 -1434h-183l-161 365h-779zM1114 508l-323 727l-326 -727h649zM1092 1763v-188h-156v188h156zM645 1763v-188h-156v188h156z" />
    <glyph glyph-name="Aring" unicode="&#xc5;" horiz-adv-x="1576" 
d="M401 365l-163 -365h-183l647 1434h175l647 -1434h-183l-161 365h-779zM1114 508l-323 727l-326 -727h649zM914 1563c-32.667 -31.333 -73.667 -47 -123 -47c-50.667 0 -91.667 15.667 -123 47s-47 72.333 -47 123c0 50 15.667 90.667 47 122s72.333 47 123 47
c49.333 0 90.333 -15.667 123 -47c31.333 -31.333 47 -72 47 -122c0 -50.667 -15.667 -91.667 -47 -123zM731 1747c-16 -15.333 -24 -35.668 -24 -61.001s8 -45.666 24 -60.999c15.333 -15.333 35.333 -23 60 -23s44.334 7.66699 59.001 23c14.667 14.667 22 35 22 61
s-7.33301 46.333 -22 61c-14.667 15.333 -34.334 23 -59.001 23s-44.667 -7.66699 -60 -23z" />
    <glyph glyph-name="AE" unicode="&#xc6;" horiz-adv-x="2039" 
d="M444 365l-202 -365h-187l795 1434h1053v-146h-783v-483h721v-146h-721v-514h799v-145h-971v365h-504zM948 508v766l-426 -766h426z" />
    <glyph glyph-name="Ccedilla" unicode="&#xc7;" horiz-adv-x="1441" 
d="M750 -186l24 172.001c-200 12 -361.333 85.333 -484 220c-124 134.667 -186 305 -186 511c0 216 67.333 392.333 202 529c135.333 136 310 204 524 204s390 -71 528 -213l-103 -107c-44.667 51.333 -104.334 92.666 -179.001 123.999c-73.333 30.667 -152 46 -236 46
c-162.667 0 -295 -54 -397 -162c-102.667 -108.667 -154 -248.334 -154 -419.001c0 -172 51.333 -312.333 154 -421c102 -108.667 234.333 -163 397 -163c84.667 0 164 15 238 45c73.333 30 132.333 71 177 123l103 -106c-127.333 -133.333 -290.666 -204.333 -489.999 -213
l-16 -103c45.333 -5.33301 82 -22.666 110 -51.999s42 -64.333 42 -105c0 -45.333 -16.667 -81.333 -50 -108s-77 -40 -131 -40c-40 0 -78.833 8 -116.5 24s-65.5 36.667 -83.5 62l57 62c32.667 -36 75 -54.667 127 -56c26.667 0 48.667 6 66 18s26 28 26 48
c0 24.667 -13.667 44.167 -41 58.5s-63.333 21.5 -108 21.5z" />
    <glyph glyph-name="Egrave" unicode="&#xc8;" horiz-adv-x="1327" 
d="M1208 0h-1042v1434h1026v-146h-854v-483h792v-146h-792v-514h870v-145zM827 1571l-65 -66l-334 267l98 98z" />
    <glyph glyph-name="Eacute" unicode="&#xc9;" horiz-adv-x="1327" 
d="M1208 0h-1042v1434h1026v-146h-854v-483h792v-146h-792v-514h870v-145zM938 1772l-332 -267l-65 66l299 299z" />
    <glyph glyph-name="Ecircumflex" unicode="&#xca;" horiz-adv-x="1327" 
d="M1208 0h-1042v1434h1026v-146h-854v-483h792v-146h-792v-514h870v-145zM684 1708l-246 -176l-84 82l330 233l330 -233l-82 -82z" />
    <glyph glyph-name="Edieresis" unicode="&#xcb;" horiz-adv-x="1327" 
d="M1208 0h-1042v1434h1026v-146h-854v-483h792v-146h-792v-514h870v-145zM829 1575v188h156v-188h-156zM383 1575v188h156v-188h-156z" />
    <glyph glyph-name="Igrave" unicode="&#xcc;" horiz-adv-x="503" 
d="M338 1434v-1434h-172v1434h172zM330 1505l-334 267l98 98l301 -299z" />
    <glyph glyph-name="Iacute" unicode="&#xcd;" horiz-adv-x="503" 
d="M338 1434v-1434h-172v1434h172zM109 1571l299 299l98 -98l-332 -267z" />
    <glyph glyph-name="Icircumflex" unicode="&#xce;" horiz-adv-x="503" 
d="M338 1434v-1434h-172v1434h172zM6 1532l-84 82l330 233l330 -233l-82 -82l-248 176z" />
    <glyph glyph-name="Idieresis" unicode="&#xcf;" horiz-adv-x="503" 
d="M338 1434v-1434h-172v1434h172zM553 1763v-188h-156v188h156zM-49 1575v188h155v-188h-155z" />
    <glyph glyph-name="Eth" unicode="&#xd0;" horiz-adv-x="1554" 
d="M174 0v663.999h-160v106h160v664h561c212 0 385.667 -66.667 521 -200c134.667 -132.667 202 -305 202 -517c0 -211.333 -67 -383.666 -201 -516.999c-135.333 -133.333 -309.333 -200 -522 -200h-561zM688 769.999v-106h-342v-519h389c161.333 0 293 52.667 395 158
c101.333 105.333 152 243.333 152 414s-50.667 308.667 -152 414c-102 104.667 -233.667 157 -395 157h-389v-518h342z" />
    <glyph glyph-name="Ntilde" unicode="&#xd1;" horiz-adv-x="1579" 
d="M332 1165v-1165h-166v1434h166l915 -1160v1160h166v-1434h-164zM590 1569l-118.999 0.00390625c0 63.333 19.667 114.666 59 153.999c38.667 38 88.667 57 150 57c25.333 0.666992 50 -4.33301 74 -15s43.333 -22.667 58 -36s30.667 -25.333 48 -36
s33 -15.334 47 -14.001c24.667 0 44.5 8.66699 59.5 26s22.5 39.666 22.5 66.999h119c0 -62.667 -19.333 -113.334 -58 -152.001c-39.333 -39.333 -89 -59 -149 -59c-46 0 -89.667 16.667 -131 50s-73.333 50 -96 50c-24.667 0 -44.834 -8.33301 -60.501 -25
s-23.5 -39 -23.5 -67z" />
    <glyph glyph-name="Ograve" unicode="&#xd2;" horiz-adv-x="1667" 
d="M307 189c-135.333 136.667 -203 312.667 -203 528c0 214.667 67.667 390.667 203 528c134.667 136.667 310.334 205 527.001 205c214.667 0 390 -68.333 526 -205c135.333 -137.333 203 -313.333 203 -528c0 -216 -68 -392 -204 -528c-136 -136.667 -311 -205 -525 -205
c-216.667 0 -392.334 68.333 -527.001 205zM442 1136c-102 -109.333 -153 -249.002 -153 -419.002s51 -309.667 153 -419c100.667 -108.667 231.334 -163 392.001 -163c161.333 0 292.333 54.333 393 163s151 248.334 151 419.001s-50.333 310.334 -151 419.001
c-100.667 108 -231.667 162 -393 162c-160.667 0 -291.334 -54 -392.001 -162zM909 1505l-331 267l98 98l299 -299z" />
    <glyph glyph-name="Oacute" unicode="&#xd3;" horiz-adv-x="1667" 
d="M307 189c-135.333 136.667 -203 312.667 -203 528c0 214.667 67.667 390.667 203 528c134.667 136.667 310.334 205 527.001 205c214.667 0 390 -68.333 526 -205c135.333 -137.333 203 -313.333 203 -528c0 -216 -68 -392 -204 -528c-136 -136.667 -311 -205 -525 -205
c-216.667 0 -392.334 68.333 -527.001 205zM442 1136c-102 -109.333 -153 -249.002 -153 -419.002s51 -309.667 153 -419c100.667 -108.667 231.334 -163 392.001 -163c161.333 0 292.333 54.333 393 163s151 248.334 151 419.001s-50.333 310.334 -151 419.001
c-100.667 108 -231.667 162 -393 162c-160.667 0 -291.334 -54 -392.001 -162zM690 1571l297 299l100 -98l-331 -267z" />
    <glyph glyph-name="Ocircumflex" unicode="&#xd4;" horiz-adv-x="1667" 
d="M307 189c-135.333 136.667 -203 312.667 -203 528c0 214.667 67.667 390.667 203 528c134.667 136.667 310.334 205 527.001 205c214.667 0 390 -68.333 526 -205c135.333 -137.333 203 -313.333 203 -528c0 -216 -68 -392 -204 -528c-136 -136.667 -311 -205 -525 -205
c-216.667 0 -392.334 68.333 -527.001 205zM442 1136c-102 -109.333 -153 -249.002 -153 -419.002s51 -309.667 153 -419c100.667 -108.667 231.334 -163 392.001 -163c161.333 0 292.333 54.333 393 163s151 248.334 151 419.001s-50.333 310.334 -151 419.001
c-100.667 108 -231.667 162 -393 162c-160.667 0 -291.334 -54 -392.001 -162zM586 1532l-82 82l330 233l327 -233l-82 -82l-245 176z" />
    <glyph glyph-name="Otilde" unicode="&#xd5;" horiz-adv-x="1667" 
d="M307 189c-135.333 136.667 -203 312.667 -203 528c0 214.667 67.667 390.667 203 528c134.667 136.667 310.334 205 527.001 205c214.667 0 390 -68.333 526 -205c135.333 -137.333 203 -313.333 203 -528c0 -216 -68 -392 -204 -528c-136 -136.667 -311 -205 -525 -205
c-216.667 0 -392.334 68.333 -527.001 205zM442 1136c-102 -109.333 -153 -249.002 -153 -419.002s51 -309.667 153 -419c100.667 -108.667 231.334 -163 392.001 -163c161.333 0 292.333 54.333 393 163s151 248.334 151 419.001s-50.333 310.334 -151 419.001
c-100.667 108 -231.667 162 -393 162c-160.667 0 -291.334 -54 -392.001 -162zM813 1611c-68 56 -120.333 64.6709 -157 26.0039c-15.333 -17.333 -23 -40 -23 -68h-119c0 63.333 19.667 114.666 59 153.999c39.333 38 88.666 57 147.999 57
c26.667 0.666992 52 -4.33301 76 -15s43.167 -22.667 57.5 -36s30 -25.333 47 -36s32.5 -15.334 46.5 -14.001c24.667 0 44.834 8.66699 60.501 26s23.5 39.666 23.5 66.999h119c0 -62.667 -19.333 -113.334 -58 -152.001c-39.333 -39.333 -89 -59 -149 -59
c-46 0 -89.667 16.667 -131 50z" />
    <glyph glyph-name="Odieresis" unicode="&#xd6;" horiz-adv-x="1667" 
d="M834 -16c-216.667 0 -392.334 68.333 -527.001 205c-135.333 136.667 -203 312.667 -203 528c0 214.667 67.667 390.667 203 528c134.667 136.667 310.334 205 527.001 205c214.667 0 390 -68.333 526 -205c135.333 -137.333 203 -313.333 203 -528
c0 -215.333 -67.667 -391.333 -203 -528c-136 -136.667 -311.333 -205 -526 -205zM442 1136c-102 -109.333 -153 -249.002 -153 -419.002s51 -309.667 153 -419c100.667 -108.667 231.334 -163 392.001 -163c161.333 0 292.333 54.333 393 163s151 248.334 151 419.001
s-50.333 310.334 -151 419.001c-100.667 108 -231.667 162 -393 162c-160.667 0 -291.334 -54 -392.001 -162zM1133 1763v-188h-156v188h156zM688 1575h-156v188h156v-188z" />
    <glyph glyph-name="multiply" unicode="&#xd7;" 
d="M539 717l-308 307l76 76l307 -307l308 307l75 -76l-307 -307l307 -307l-75 -76l-308 307l-307 -307l-76 76z" />
    <glyph glyph-name="Oslash" unicode="&#xd8;" horiz-adv-x="1667" 
d="M182 27l130.999 155.002c-139.333 135.333 -209 313.666 -209 534.999c0 215.333 67.667 391.666 203 528.999c135.333 136 311 204 527 204c167.333 0 313.333 -43.667 438 -131l133 158l82 -68l-133 -158c139.333 -137.333 209 -315.333 209 -534
c0 -216 -68 -392 -204 -528c-136 -136.667 -311 -205 -525 -205c-167.333 0 -313.666 43.667 -438.999 131l-133 -158zM425.999 315.002l739 877c-93.333 70.667 -203.666 106 -330.999 106c-160.667 0 -291.334 -54 -392.001 -162c-102 -109.333 -153 -249 -153 -419
c0 -158.667 45.667 -292.667 137 -402zM1241 1118l-737 -876.002c92 -70 202 -105.667 330 -107c161.333 0 292.333 54.333 393 163s151 248.334 151 419.001c0 162.667 -45.667 296.334 -137 401.001z" />
    <glyph glyph-name="Ugrave" unicode="&#xd9;" horiz-adv-x="1554" 
d="M156 596l-0.00195312 838h172v-838c0 -142 41.333 -254.333 124 -337c82 -82.667 190 -124 324 -124c135.333 0 244.333 41.333 327 124s124 195 124 337v838h172v-838c0 -186 -57.333 -334.333 -172 -445c-115.333 -111.333 -265.666 -167 -450.999 -167
c-183.333 0 -332.666 55.667 -447.999 167c-114.667 110.667 -172 259 -172 445zM919.998 1571l-66 -66l-332 267l99 98z" />
    <glyph glyph-name="Uacute" unicode="&#xda;" horiz-adv-x="1554" 
d="M776 -16c-183.333 0 -332.668 55.667 -448.001 167c-114.667 110.667 -172 259 -172 445v838h172v-838c0 -142 41.333 -254.333 124 -337c82 -82.667 190 -124 324 -124c135.333 0 244.333 41.333 327 124s124 195 124 337v838h172v-838
c0 -186 -57.333 -334.333 -172 -445c-115.333 -111.333 -265.666 -167 -450.999 -167zM1030 1772l-332 -267l-65 66l299 299z" />
    <glyph glyph-name="Ucircumflex" unicode="&#xdb;" horiz-adv-x="1554" 
d="M156 596l-0.00195312 838h172v-838c0 -142 41.333 -254.333 124 -337c82 -82.667 190 -124 324 -124c135.333 0 244.333 41.333 327 124s124 195 124 337v838h172v-838c0 -186 -57.333 -334.333 -172 -445c-115.333 -111.333 -265.666 -167 -450.999 -167
c-183.333 0 -332.666 55.667 -447.999 167c-114.667 110.667 -172 259 -172 445zM775.998 1708l-246 -176l-81 82l327 233l330 -233l-82 -82z" />
    <glyph glyph-name="Udieresis" unicode="&#xdc;" horiz-adv-x="1554" 
d="M776 -16c-183.333 0 -332.668 55.667 -448.001 167c-114.667 110.667 -172 259 -172 445v838h172v-838c0 -142 41.333 -254.333 124 -337c82 -82.667 190 -124 324 -124c135.333 0 244.333 41.333 327 124s124 195 124 337v838h172v-838
c0 -186 -57.333 -334.333 -172 -445c-115.333 -111.333 -265.666 -167 -450.999 -167zM921.998 1575v188h155v-188h-155zM632.998 1763v-188h-156v188h156z" />
    <glyph glyph-name="Yacute" unicode="&#xdd;" horiz-adv-x="1402" 
d="M614 0v557l-559 877h191l454 -717l459 717h189l-562 -877v-557h-172zM625 1505l-66 66l299 299l98 -98z" />
    <glyph glyph-name="Thorn" unicode="&#xde;" horiz-adv-x="1273" 
d="M338 295l-0.00195312 -295h-172v1434h172v-289h422c128.667 0 233.334 -39.333 314.001 -118c80 -79.333 120 -181.333 120 -306c0 -126 -40.333 -228.333 -121 -307c-81.333 -79.333 -185.666 -119 -312.999 -119h-422zM740.998 1001l-402.999 -0.000976562v-563h403
c83.333 0 151 26.333 203 79s78 121.334 78 206.001c0 82 -26 149 -78 201c-52.667 51.333 -120.334 77 -203.001 77z" />
    <glyph glyph-name="germandbls" unicode="&#xdf;" horiz-adv-x="1271" 
d="M1182 305c0 -92.667 -34.999 -169.333 -104.999 -230c-70.667 -60.667 -160.667 -91 -270 -91c-139.333 0 -256 50.333 -350 151l84 94c68 -73.333 154.667 -109.333 260 -108c65.333 0 119.333 15.333 162 46c42 31.333 63 70 63 116c0 47.333 -25 85.666 -75 114.999
c-28 16 -51 28 -69 36c-18.667 8 -50.667 21 -96 39c-44 18.667 -77.333 34 -100 46c-23.333 11.333 -52 29.333 -86 54c-64 46 -96 113.667 -96 203c-0.666992 25.333 2.83301 50 10.5 74s15.667 44 24 60s21.5 34.333 39.5 55s31.5 35.167 40.5 43.5l43.5 40.5
c57.333 53.333 86 101.666 86 144.999c0 46 -20.333 85.333 -61 118c-41.333 33.333 -91.333 50 -150 50c-64 0 -116.667 -19.667 -158 -59c-41.333 -40 -62 -91.333 -62 -154v-1149h-161v1141c0 108 34.333 195 103 261s159 99 271 99
c107.333 0 196.666 -29.333 267.999 -88c71.333 -59.333 107 -130.333 107 -213c0 -45.333 -12.667 -87.666 -38 -126.999s-53.333 -71 -84 -95c-29.333 -22.667 -57 -50.667 -83 -84c-25.333 -32.667 -38 -65 -38 -97c0 -30.667 11.333 -57.667 34 -81
c21.333 -23.333 45.333 -41.666 72 -54.999c26 -12.667 63 -29.667 111 -51c46 -19.333 75.333 -31.333 88 -36c18 -7.33301 43.667 -20.333 77 -39c33.333 -19.333 58 -38 74 -56c42.667 -50.667 64 -108.667 64 -174z" />
    <glyph glyph-name="agrave" unicode="&#xe0;" horiz-adv-x="1165" 
d="M473 -16c-102 0 -185.332 27.332 -249.999 81.999c-65.333 54 -98 123.333 -98 208c0 101.333 47.667 183.666 143 246.999s217.666 95 366.999 95c79.333 0 151 -8 215 -24v94c0 62.667 -26.333 114.334 -79 155.001c-52.667 40 -120 60 -202 60
c-59.333 0 -119.666 -10 -180.999 -30c-62 -21.333 -112 -49 -150 -83l-82 97c46 46 108.667 83.667 188 113c78 28 158 42 240 42c126 0 228.333 -32.333 307 -97c79.333 -65.333 119 -149.666 119 -252.999v-690h-160v201c-36.667 -67.333 -88.334 -120.333 -155.001 -159
s-140.667 -58 -222 -58zM293.001 288.999c0 -50.667 21.667 -92 65 -124s98 -48 164 -48c96.667 0 175.667 34.667 237 104c60.667 68.667 91 152.667 91 252c-56 20.667 -124.333 31 -205 31c-102.667 0 -187 -20 -253 -60c-66 -41.333 -99 -93 -99 -155zM713.001 1241
l-66 -65l-332 268l99 98z" />
    <glyph glyph-name="aacute" unicode="&#xe1;" horiz-adv-x="1165" 
d="M473 -16c-102 0 -185.332 27.332 -249.999 81.999c-65.333 54 -98 123.333 -98 208c0 101.333 47.667 183.666 143 246.999s217.666 95 366.999 95c79.333 0 151 -8 215 -24v94c0 62.667 -26.333 114.334 -79 155.001c-52.667 40 -120 60 -202 60
c-59.333 0 -119.666 -10 -180.999 -30c-62 -21.333 -112 -49 -150 -83l-82 97c46 46 108.667 83.667 188 113c78 28 158 42 240 42c126 0 228.333 -32.333 307 -97c79.333 -65.333 119 -149.666 119 -252.999v-690h-160v201c-36.667 -67.333 -88.334 -120.333 -155.001 -159
s-140.667 -58 -222 -58zM293.001 288.999c0 -50.667 21.667 -92 65 -124s98 -48 164 -48c96.667 0 175.667 34.667 237 104c60.667 68.667 91 152.667 91 252c-56 20.667 -124.333 31 -205 31c-102.667 0 -187 -20 -253 -60c-66 -41.333 -99 -93 -99 -155zM823.001 1444
l-331 -268l-66 65l299 301z" />
    <glyph glyph-name="acircumflex" unicode="&#xe2;" horiz-adv-x="1165" 
d="M125 274c0 101.333 47.668 183.665 143.001 246.998s217.666 95 366.999 95c79.333 0 151 -8 215 -24v94c0 62.667 -26.333 114.334 -79 155.001c-52.667 40 -120 60 -202 60c-59.333 0 -119.666 -10 -180.999 -30c-62 -21.333 -112 -49 -150 -83l-82 97
c46 46 108.667 83.667 188 113c78 28 158 42 240 42c126 0 228.333 -32.333 307 -97c79.333 -65.333 119 -149.666 119 -252.999v-690h-160v201c-36.667 -67.333 -88.334 -120.333 -155.001 -159s-140.667 -58 -222 -58c-102 0 -185.333 27.333 -250 82
c-65.333 54 -98 123.333 -98 208zM293.001 288.999c0 -50.667 21.667 -92 65 -124s98 -48 164 -48c96.667 0 175.667 34.667 237 104c60.667 68.667 91 152.667 91 252c-56 20.667 -124.333 31 -205 31c-102.667 0 -187 -20 -253 -60c-66 -41.333 -99 -93 -99 -155z
M324.001 1202l-82 82l327 234l330 -234l-82 -82l-248 176z" />
    <glyph glyph-name="atilde" unicode="&#xe3;" horiz-adv-x="1165" 
d="M473 -16c-102 0 -185.332 27.332 -249.999 81.999c-65.333 54 -98 123.333 -98 208c0 101.333 47.667 183.666 143 246.999s217.666 95 366.999 95c79.333 0 151 -8 215 -24v94c0 62.667 -26.333 114.334 -79 155.001c-52.667 40 -120 60 -202 60
c-59.333 0 -119.666 -10 -180.999 -30c-62 -21.333 -112 -49 -150 -83l-82 97c46 46 108.667 83.667 188 113c78 28 158 42 240 42c126 0 228.333 -32.333 307 -97c79.333 -65.333 119 -149.666 119 -252.999v-690h-160v201c-36.667 -67.333 -88.334 -120.333 -155.001 -159
s-140.667 -58 -222 -58zM293.001 288.999c0 -50.667 21.667 -92 65 -124s98 -48 164 -48c96.667 0 175.667 34.667 237 104c60.667 68.667 91 152.667 91 252c-56 20.667 -124.333 31 -205 31c-102.667 0 -187 -20 -253 -60c-66 -41.333 -99 -93 -99 -155zM371.001 1239
l-119.001 0.00195312c0 63.333 19.667 114.666 59 153.999c39.333 38 88.666 57 147.999 57c26.667 1.33301 52 -3.33398 76 -14.001s43.167 -22.5 57.5 -35.5s30 -24.833 47 -35.5s32.5 -15.667 46.5 -15c24.667 0 44.834 8.5 60.501 25.5s23.5 39.167 23.5 66.5h119
c0 -62 -19.667 -112.667 -59 -152c-40.667 -39.333 -90.667 -59 -150 -59c-46 0 -89.333 16.667 -130 50c-41.333 33.333 -73.666 50 -96.999 50c-25.333 0 -45.333 -8 -60 -24s-22 -38.667 -22 -68z" />
    <glyph glyph-name="adieresis" unicode="&#xe4;" horiz-adv-x="1165" 
d="M473 -16c-102 0 -185.332 27.332 -249.999 81.999c-65.333 54 -98 123.333 -98 208c0 101.333 47.667 183.666 143 246.999s217.666 95 366.999 95c79.333 0 151 -8 215 -24v94c0 62.667 -26.333 114.334 -79 155.001c-52.667 40 -120 60 -202 60
c-59.333 0 -119.666 -10 -180.999 -30c-62 -21.333 -112 -49 -150 -83l-82 97c46 46 108.667 83.667 188 113c78 28 158 42 240 42c126 0 228.333 -32.333 307 -97c79.333 -65.333 119 -149.666 119 -252.999v-690h-160v201c-36.667 -67.333 -88.334 -120.333 -155.001 -159
s-140.667 -58 -222 -58zM293.001 288.999c0 -50.667 21.667 -92 65 -124s98 -48 164 -48c96.667 0 175.667 34.667 237 104c60.667 68.667 91 152.667 91 252c-56 20.667 -124.333 31 -205 31c-102.667 0 -187 -20 -253 -60c-66 -41.333 -99 -93 -99 -155zM715.001 1247v187
h155v-187h-155zM426.001 1247h-156v187h156v-187z" />
    <glyph glyph-name="aring" unicode="&#xe5;" horiz-adv-x="1165" 
d="M125 274c0 101.333 47.668 183.665 143.001 246.998s217.666 95 366.999 95c79.333 0 151 -8 215 -24v94c0 62.667 -26.333 114.334 -79 155.001c-52.667 40 -120 60 -202 60c-59.333 0 -119.666 -10 -180.999 -30c-62 -21.333 -112 -49 -150 -83l-82 97
c46 46 108.667 83.667 188 113c78 28 158 42 240 42c126 0 228.333 -32.333 307 -97c79.333 -65.333 119 -149.666 119 -252.999v-690h-160v201c-36.667 -67.333 -88.334 -120.333 -155.001 -159s-140.667 -58 -222 -58c-102 0 -185.333 27.333 -250 82
c-65.333 54 -98 123.333 -98 208zM293.001 288.999c0 -50.667 21.667 -92 65 -124s98 -48 164 -48c96.667 0 175.667 34.667 237 104c60.667 68.667 91 152.667 91 252c-56 20.667 -124.333 31 -205 31c-102.667 0 -187 -20 -253 -60c-66 -41.333 -99 -93 -99 -155z
M448.001 1233c-31.333 31.333 -47.001 72.333 -47.001 123s16 92 48 124c31.333 32 71.333 48 120 48c50.667 0 91.667 -16 123 -48s47 -73.333 47 -124s-15.667 -91.667 -47 -123s-72.333 -47 -123 -47c-49.333 0 -89.666 15.667 -120.999 47zM630 1419
c-16.667 15.333 -37.001 23 -61.001 23s-43.667 -7.66699 -59 -23c-15.333 -16.667 -23 -37.667 -23 -63c0 -24.667 7.5 -44.834 22.5 -60.501s34.833 -23.5 59.5 -23.5s44.834 7.83301 60.501 23.5s23.5 35.834 23.5 60.501c0 25.333 -7.66699 46.333 -23 63z" />
    <glyph glyph-name="ae" unicode="&#xe6;" horiz-adv-x="1933" 
d="M121 274c0 101.333 47.001 183.664 141.001 246.997c94.667 63.333 217 95 367 95c80.667 0 152.334 -8 215.001 -24v94c0 62.667 -26.333 114.334 -79 155.001c-52.667 40 -120 60 -202 60c-130 0 -240.667 -37.667 -332 -113l-79 97c46 46 108.667 83.667 188 113
c78 28 158 42 240 42c85.333 0 160.166 -16.167 224.499 -48.5s112.833 -77.5 145.5 -135.5c90 122.667 218.333 184 385 184c148.667 0 270 -49.333 364 -148c93.333 -99.333 140 -226.666 140 -381.999c0 -12 -1.33301 -27.667 -4 -47h-829
c4 -100 43.667 -181.667 119 -245s169.333 -95 282 -95c120.667 0 217.667 34 291 102l90 -90c-101.333 -101.333 -235.333 -151.666 -402 -150.999c-104.667 0 -197 21.5 -277 64.5s-142.333 103.833 -187 182.5c-44 -78.667 -105.333 -139.5 -184 -182.5
s-168.334 -64.5 -269.001 -64.5c-102 0 -185.333 27.333 -250 82c-65.333 54 -98 123.333 -98 208zM641.001 503.998c-102.667 0 -187 -20 -253 -60c-66 -41.333 -99 -93 -99 -155c0 -50.667 21.667 -92 65 -124c42.667 -32 96.667 -48 162 -48
c97.333 0 176.333 33.333 237 100s91 152 91 256c-55.333 20.667 -123 31 -203 31zM1008 585.998l663.001 -0.000976562c-3.33301 93.333 -35 169.333 -95 228c-61.333 59.333 -137.333 89 -228 89c-92.667 0 -170.334 -29.333 -233.001 -88
c-63.333 -59.333 -99 -135.666 -107 -228.999z" />
    <glyph glyph-name="ccedilla" unicode="&#xe7;" horiz-adv-x="1101" 
d="M553 -186l25 171.998c-144.667 12 -261.334 66.333 -350.001 163c-89.333 96.667 -134 218.334 -134 365.001c0 155.333 50 282 150 380c99.333 97.333 228.333 146 387 146c157.333 0 285 -49 383 -147l-96 -96c-69.333 69.333 -161 104 -275 104
c-110.667 0 -201 -36 -271 -108c-70.667 -72.667 -106 -165.667 -106 -279c0 -116.667 35.333 -210.667 106 -282c70 -72.667 160.333 -109 271 -109c112.667 0 204.334 34 275.001 102l96 -94c-86.667 -90 -201.334 -139 -344.001 -147l-15 -103
c44 -5.33301 80.333 -22.666 109 -51.999s43 -64.333 43 -105c0 -44 -17 -79.667 -51 -107c-34.667 -27.333 -77.667 -41 -129 -41c-40 0 -78.667 7.83301 -116 23.5s-65.666 36.5 -84.999 62.5l57 62c32.667 -36 75 -54.667 127 -56c26.667 0 48.667 6 66 18s26 28 26 48
c0 24.667 -13.5 44.167 -40.5 58.5s-63.167 21.5 -108.5 21.5z" />
    <glyph glyph-name="egrave" unicode="&#xe8;" horiz-adv-x="1193" 
d="M1096 463l-832.001 0.00195312c5.33301 -100.667 45.333 -182.334 120 -245.001c75.333 -63.333 169.333 -95 282 -95c122.667 0 219.334 34 290.001 102l91 -90c-98.667 -101.333 -232 -151.666 -400 -150.999c-164 0 -297 50 -399 150
c-102.667 98.667 -154 228.667 -154 390c0 150.667 47 274.667 141 372c92.667 96 213 144 361 144c149.333 0 270.333 -49 363 -147c92.667 -98.667 139 -226.334 139 -383.001c0 -16.667 -0.666992 -32.334 -2 -47.001zM265.999 586.002l666.001 -0.000976562
c-3.33301 94 -35 170.333 -95 229c-60.667 58.667 -137.667 88 -231 88c-92.667 0 -170.334 -29.333 -233.001 -88c-63.333 -59.333 -99 -135.666 -107 -228.999zM674 1176l-334 268l98 98l301 -301z" />
    <glyph glyph-name="eacute" unicode="&#xe9;" horiz-adv-x="1193" 
d="M1096 463l-832.001 0.00195312c5.33301 -100.667 45.333 -182.334 120 -245.001c75.333 -63.333 169.333 -95 282 -95c122.667 0 219.334 34 290.001 102l91 -90c-98.667 -101.333 -232 -151.666 -400 -150.999c-164 0 -297 50 -399 150
c-102.667 98.667 -154 228.667 -154 390c0 150.667 47 274.667 141 372c92.667 96 213 144 361 144c149.333 0 270.333 -49 363 -147c92.667 -98.667 139 -226.334 139 -383.001c0 -16.667 -0.666992 -32.334 -2 -47.001zM265.999 586.002l666.001 -0.000976562
c-3.33301 94 -35 170.333 -95 229c-60.667 58.667 -137.667 88 -231 88c-92.667 0 -170.334 -29.333 -233.001 -88c-63.333 -59.333 -99 -135.666 -107 -228.999zM453 1241l299 301l98 -98l-332 -268z" />
    <glyph glyph-name="ecircumflex" unicode="&#xea;" horiz-adv-x="1193" 
d="M1096 463l-832.001 0.00195312c5.33301 -100.667 45.333 -182.334 120 -245.001c75.333 -63.333 169.333 -95 282 -95c122.667 0 219.334 34 290.001 102l91 -90c-98.667 -101.333 -232 -151.666 -400 -150.999c-164 0 -297 50 -399 150
c-102.667 98.667 -154 228.667 -154 390c0 150.667 47 274.667 141 372c92.667 96 213 144 361 144c149.333 0 270.333 -49 363 -147c92.667 -98.667 139 -226.334 139 -383.001c0 -16.667 -0.666992 -32.334 -2 -47.001zM265.999 586.002l666.001 -0.000976562
c-3.33301 94 -35 170.333 -95 229c-60.667 58.667 -137.667 88 -231 88c-92.667 0 -170.334 -29.333 -233.001 -88c-63.333 -59.333 -99 -135.666 -107 -228.999zM350 1202l-84 82l330 234l330 -234l-82 -82l-248 176z" />
    <glyph glyph-name="edieresis" unicode="&#xeb;" horiz-adv-x="1193" 
d="M94 524c0 150.667 46.999 274.669 140.999 372.002c92.667 96 213 144 361 144c149.333 0 270.333 -49 363 -147c92.667 -98.667 139 -226.334 139 -383.001c0 -16.667 -0.666992 -32.334 -2 -47.001h-832c5.33301 -100.667 45.333 -182.334 120 -245.001
c75.333 -63.333 169.333 -95 282 -95c122.667 0 219.334 34 290.001 102l91 -90c-98.667 -101.333 -232 -151.666 -400 -150.999c-163.333 0 -296.333 49.667 -399 149c-102.667 98.667 -154 229 -154 391zM836.999 815.002c-60.667 58.667 -137.666 88 -230.999 88
c-92.667 0 -170.334 -29.333 -233.001 -88c-62 -58.667 -97.667 -135 -107 -229h666c-3.33301 94 -35 170.333 -95 229zM897 1247h-156v187h156v-187zM451 1247h-156v187h156v-187z" />
    <glyph glyph-name="igrave" unicode="&#xec;" horiz-adv-x="473" 
d="M317 1024v-1024h-161v1024h161zM313 1176l-333 268l100 98l299 -301z" />
    <glyph glyph-name="iacute" unicode="&#xed;" horiz-adv-x="473" 
d="M317 1024v-1024h-161v1024h161zM92 1241l299 301l98 -98l-331 -268z" />
    <glyph glyph-name="icircumflex" unicode="&#xee;" horiz-adv-x="473" 
d="M317 1024v-1024h-161v1024h161zM-10 1202l-82 82l328 234l329 -234l-82 -82l-247 176z" />
    <glyph glyph-name="idieresis" unicode="&#xef;" horiz-adv-x="481" 
d="M322 1024v-1024h-162v1024h162zM520 1434v-187h-155v187h155zM-39 1247v187h156v-187h-156z" />
    <glyph glyph-name="eth" unicode="&#xf0;" horiz-adv-x="1267" 
d="M94 518c0 153.333 46.332 278.666 138.999 375.999c92 97.333 210.333 146 355 146c105.333 0 198 -28 278 -84c80 -56.667 131.333 -129.667 154 -219c10.667 279.333 -93.666 463.666 -312.999 552.999l-111 -172l-88 58l94 147c-98 26 -218.667 39 -362 39l12 139
c176 0 320 -17 432 -51l102 160l88 -58l-90 -139c252.667 -116 379 -353.667 379 -713c0 -239.333 -49.667 -418.666 -149 -537.999c-100 -118.667 -231 -178 -393 -178c-155.333 0 -282 49.333 -380 148s-147 227.334 -147 386.001zM615.999 901
c-104 0 -188.333 -36.333 -253 -109s-97 -166 -97 -280c0 -112.667 32.667 -205.667 98 -279s149.333 -110 252 -110c102 0 185.667 36.667 251 110c64 72.667 96 165.667 96 279c0 114 -32.333 207.333 -97 280s-148 109 -250 109z" />
    <glyph glyph-name="ntilde" unicode="&#xf1;" horiz-adv-x="1241" 
d="M317 494l-0.00195312 -494h-161v1024h161v-223c36.667 75.333 88.834 134 156.501 176s143.834 63 228.501 63c116 0 210.667 -36 284 -108c73.333 -73.333 110 -167.666 110 -282.999v-649h-160v616c0 85.333 -26 154.666 -78 207.999c-52 52.667 -119 79 -201 79
c-101.333 0 -183.333 -38.333 -246 -115s-94 -174.667 -94 -294zM433.998 1249l-119 0.00292969c0 63.333 19.667 114.666 59 153.999c38.667 38 88.667 57 150 57c25.333 0.666992 50 -4.33301 74 -15s43.333 -22.5 58 -35.5s30.667 -24.833 48 -35.5
s33.333 -15.334 48 -14.001c24.667 0 44.5 8.5 59.5 25.5s22.5 39.167 22.5 66.5h118c0 -62.667 -19.333 -113.334 -58 -152.001c-39.333 -39.333 -89 -59 -149 -59c-46 0 -89.667 17 -131 51s-73.333 51 -96 51c-26 0 -46.5 -8.16699 -61.5 -24.5s-22.5 -39.5 -22.5 -69.5z
" />
    <glyph glyph-name="ograve" unicode="&#xf2;" horiz-adv-x="1257" 
d="M244 132c-100 98 -150.001 224.667 -150.001 380c0 154.667 50 281.667 150 381c98.667 98 227 147 385 147c156.667 0 285 -49 385 -147c99.333 -99.333 149 -226.333 149 -381c0 -155.333 -49.667 -282 -149 -380c-99.333 -98.667 -227.666 -148 -384.999 -148
c-158 0 -286.333 49.333 -385 148zM265.999 512c0 -114.667 33.999 -207.999 101.999 -279.999c66.667 -72.667 153.667 -109 261 -109c108 0 195.333 36.333 262 109c66.667 71.333 100 164.666 100 279.999c0 116.667 -33.333 210.667 -100 282
c-67.333 71.333 -154.666 107 -261.999 107c-106.667 0 -193.667 -35.667 -261 -107c-68 -72 -102 -166 -102 -282zM706.998 1176l-334 268l100 98l299 -301z" />
    <glyph glyph-name="oacute" unicode="&#xf3;" horiz-adv-x="1257" 
d="M244 132c-100 98 -150.001 224.667 -150.001 380c0 154.667 50 281.667 150 381c98.667 98 227 147 385 147c156.667 0 285 -49 385 -147c99.333 -99.333 149 -226.333 149 -381c0 -155.333 -49.667 -282 -149 -380c-99.333 -98.667 -227.666 -148 -384.999 -148
c-158 0 -286.333 49.333 -385 148zM265.999 512c0 -114.667 33.999 -207.999 101.999 -279.999c66.667 -72.667 153.667 -109 261 -109c108 0 195.333 36.333 262 109c66.667 71.333 100 164.666 100 279.999c0 116.667 -33.333 210.667 -100 282
c-67.333 71.333 -154.666 107 -261.999 107c-106.667 0 -193.667 -35.667 -261 -107c-68 -72 -102 -166 -102 -282zM484.998 1241l299 301l99 -98l-332 -268z" />
    <glyph glyph-name="ocircumflex" unicode="&#xf4;" horiz-adv-x="1257" 
d="M244 132c-100 98 -150.001 224.667 -150.001 380c0 154.667 50 281.667 150 381c98.667 98 227 147 385 147c156.667 0 285 -49 385 -147c99.333 -99.333 149 -226.333 149 -381c0 -155.333 -49.667 -282 -149 -380c-99.333 -98.667 -227.666 -148 -384.999 -148
c-158 0 -286.333 49.333 -385 148zM265.999 512c0 -114.667 33.999 -207.999 101.999 -279.999c66.667 -72.667 153.667 -109 261 -109c108 0 195.333 36.333 262 109c66.667 71.333 100 164.666 100 279.999c0 116.667 -33.333 210.667 -100 282
c-67.333 71.333 -154.666 107 -261.999 107c-106.667 0 -193.667 -35.667 -261 -107c-68 -72 -102 -166 -102 -282zM382.998 1202l-82 82l328 234l329 -234l-81 -82l-248 176z" />
    <glyph glyph-name="otilde" unicode="&#xf5;" horiz-adv-x="1257" 
d="M244 132c-100 98 -150.001 224.667 -150.001 380c0 154.667 50 281.667 150 381c98.667 98 227 147 385 147c156.667 0 285 -49 385 -147c99.333 -99.333 149 -226.333 149 -381c0 -155.333 -49.667 -282 -149 -380c-99.333 -98.667 -227.666 -148 -384.999 -148
c-158 0 -286.333 49.333 -385 148zM265.999 512c0 -114.667 33.999 -207.999 101.999 -279.999c66.667 -72.667 153.667 -109 261 -109c108 0 195.333 36.333 262 109c66.667 71.333 100 164.666 100 279.999c0 116.667 -33.333 210.667 -100 282
c-67.333 71.333 -154.666 107 -261.999 107c-106.667 0 -193.667 -35.667 -261 -107c-68 -72 -102 -166 -102 -282zM608.998 1292c-40 34 -72.334 51.001 -97.001 51.001c-24 0 -43.667 -8 -59 -24c-15.333 -17.333 -23 -40.666 -23 -69.999h-119
c0 64 19.333 115.333 58 154c38 38 87.667 57 149 57c26.667 0.666992 52 -4.33301 76 -15s43.333 -22.5 58 -35.5s30.334 -24.833 47.001 -35.5s32 -15.334 46 -14.001c24.667 0 44.5 8.5 59.5 25.5s22.5 39.167 22.5 66.5h119c0 -62.667 -19.333 -113.334 -58 -152.001
c-39.333 -39.333 -89 -59 -149 -59c-46.667 0 -90 17 -130 51z" />
    <glyph glyph-name="odieresis" unicode="&#xf6;" horiz-adv-x="1257" 
d="M1014 132c-99.333 -98.667 -227.667 -148 -385 -148c-158 0 -286.333 49.333 -385 148c-100 98 -150 224.667 -150 380c0 154.667 50 281.667 150 381c98.667 98 227 147 385 147c156.667 0 285 -49 385 -147c99.333 -99.333 149 -226.333 149 -381
c0 -155.333 -49.667 -282 -149 -380zM265.999 512c0 -114.667 33.999 -207.999 101.999 -279.999c66.667 -72.667 153.667 -109 261 -109c108 0 195.333 36.333 262 109c66.667 71.333 100 164.666 100 279.999c0 116.667 -33.333 210.667 -100 282
c-67.333 71.333 -154.666 107 -261.999 107c-106.667 0 -193.667 -35.667 -261 -107c-68 -72 -102 -166 -102 -282zM929.998 1434v-187h-156v187h156zM484.998 1247h-155v187h155v-187z" />
    <glyph glyph-name="divide" unicode="&#xf7;" 
d="M1040 664h-852v106h852v-106zM698 444v-170h-168v170h168zM698 1159v-170h-168v170h168z" />
    <glyph glyph-name="oslash" unicode="&#xf8;" horiz-adv-x="1257" 
d="M160 35l81.9971 97.999c-97.333 94.667 -146.666 221 -147.999 379c0 154.667 50 281.667 150 381c98.667 98 227 147 385 147c112.667 0 214.334 -27.333 305.001 -82l84 101l82 -68l-84 -100c98 -95.333 147 -221.666 147 -378.999c0 -155.333 -49.667 -282 -149 -380
c-99.333 -98.667 -227.666 -148 -384.999 -148c-116.667 0 -217.667 27.333 -303 82l-84 -99zM914.997 771.999l-495 -592.001c59.333 -40.667 129 -61 209 -61c109.333 0 198 36.667 266 110c68 72.667 102 167 102 283c0 100.667 -27.333 187.334 -82 260.001z
M341.997 253.998l496 590c-59.333 40.667 -129 61 -209 61c-110 0 -198.333 -36.333 -265 -109c-68 -73.333 -102 -168 -102 -284c0 -103.333 26.667 -189.333 80 -258z" />
    <glyph glyph-name="ugrave" unicode="&#xf9;" horiz-adv-x="1249" 
d="M156 375l-0.000976562 648.999h161v-616c0 -85.333 25.667 -154.666 77 -207.999c50.667 -52.667 117.334 -79 200.001 -79c100 0 181.333 39 244 117c62.667 76.667 94 174 94 292v494h162v-1024h-162v223c-36.667 -75.333 -88.5 -134 -155.5 -176
s-142.833 -63 -227.5 -63c-116 0 -210.333 36.333 -283 109c-73.333 72 -110 166 -110 282zM767.999 1241l-66 -65l-333 268l98 98z" />
    <glyph glyph-name="uacute" unicode="&#xfa;" horiz-adv-x="1249" 
d="M156 375l-0.000976562 648.999h161v-616c0 -85.333 25.667 -154.666 77 -207.999c50.667 -52.667 117.334 -79 200.001 -79c100 0 181.333 39 244 117c62.667 76.667 94 174 94 292v494h162v-1024h-162v223c-36.667 -75.333 -88.5 -134 -155.5 -176
s-142.833 -63 -227.5 -63c-116 0 -210.333 36.333 -283 109c-73.333 72 -110 166 -110 282zM878.999 1444l-332 -268l-66 65l299 301z" />
    <glyph glyph-name="ucircumflex" unicode="&#xfb;" horiz-adv-x="1249" 
d="M156 375l-0.000976562 648.999h161v-616c0 -85.333 25.667 -154.666 77 -207.999c50.667 -52.667 117.334 -79 200.001 -79c100 0 181.333 39 244 117c62.667 76.667 94 174 94 292v494h162v-1024h-162v223c-36.667 -75.333 -88.5 -134 -155.5 -176
s-142.833 -63 -227.5 -63c-116 0 -210.333 36.333 -283 109c-73.333 72 -110 166 -110 282zM624.999 1378l-248 -176l-82 82l330 234l329 -234l-84 -82z" />
    <glyph glyph-name="udieresis" unicode="&#xfc;" horiz-adv-x="1249" 
d="M156 375l-0.000976562 648.999h161v-616c0 -85.333 25.667 -154.666 77 -207.999c50.667 -52.667 117.334 -79 200.001 -79c100 0 181.333 39 244 117c62.667 76.667 94 174 94 292v494h162v-1024h-162v223c-36.667 -75.333 -88.5 -134 -155.5 -176
s-142.833 -63 -227.5 -63c-116 0 -210.333 36.333 -283 109c-73.333 72 -110 166 -110 282zM925.999 1434v-187h-156v187h156zM478.999 1434v-187h-155v187h155z" />
    <glyph glyph-name="yacute" unicode="&#xfd;" horiz-adv-x="1153" 
d="M440 -145l66 143l-461 1026h166l371 -842l360 842h166l-533 -1227c-41.333 -92.667 -87.333 -161.5 -138 -206.5s-112.334 -67.5 -185.001 -67.5c-77.333 0 -146.333 27.333 -207 82l84 100c34.667 -27.333 72.334 -41 113.001 -41s76 15.167 106 45.5
s60.667 78.833 92 145.5zM831 1444l-331 -268l-68 65l299 301z" />
    <glyph glyph-name="thorn" unicode="&#xfe;" horiz-adv-x="1232" 
d="M317 -461h-161v1946h161v-686c30.667 72.667 81.667 131 153 175c70 44 147.333 66 232 66c130 0 235.333 -46.333 316 -139s121 -213.334 121 -362.001c0 -163.333 -49.667 -296.666 -149 -399.999c-100 -103.333 -230.667 -155 -392 -155
c-110 0 -203.667 23.667 -281 71v-516zM317 508v-313c75.333 -48 162.333 -72 261 -72c116 0 210 37.667 282 113c71.333 75.333 107 173.333 107 294c0 112 -29.667 202.667 -89 272c-60 68.667 -136.333 103 -229 103c-96.667 0 -176 -37 -238 -111
c-62.667 -74.667 -94 -170 -94 -286z" />
    <glyph glyph-name="ydieresis" unicode="&#xff;" horiz-adv-x="1153" 
d="M506 -2l-461 1026h166l371 -842l360 842h166l-533 -1227c-41.333 -92.667 -87.333 -161.5 -138 -206.5s-112.334 -67.5 -185.001 -67.5c-77.333 0 -146.333 27.333 -207 82l84 100c34.667 -27.333 72.334 -41 113.001 -41s76 15.167 106 45.5s60.667 78.833 92 145.5z
M877 1434v-187h-156v187h156zM276 1247v187h156v-187h-156z" />
    <glyph glyph-name="Amacron" unicode="&#x100;" horiz-adv-x="1576" 
d="M238 0h-183l647 1434h175l647 -1434h-183l-161 365h-779zM1114 508l-323 727l-326 -727h649zM1059 1604h-537v106h537v-106z" />
    <glyph glyph-name="amacron" unicode="&#x101;" horiz-adv-x="1165" 
d="M473 -16c-102 0 -185.332 27.332 -249.999 81.999c-65.333 54 -98 123.333 -98 208c0 101.333 47.667 183.666 143 246.999s217.666 95 366.999 95c79.333 0 151 -8 215 -24v94c0 62.667 -26.333 114.334 -79 155.001c-52.667 40 -120 60 -202 60
c-59.333 0 -119.666 -10 -180.999 -30c-62 -21.333 -112 -49 -150 -83l-82 97c46 46 108.667 83.667 188 113c78 28 158 42 240 42c126 0 228.333 -32.333 307 -97c79.333 -65.333 119 -149.666 119 -252.999v-690h-160v201c-36.667 -67.333 -88.334 -120.333 -155.001 -159
s-140.667 -58 -222 -58zM293.001 288.999c0 -50.667 21.667 -92 65 -124s98 -48 164 -48c96.667 0 175.667 34.667 237 104c60.667 68.667 91 152.667 91 252c-56 20.667 -124.333 31 -205 31c-102.667 0 -187 -20 -253 -60c-66 -41.333 -99 -93 -99 -155zM838.001 1276
h-535v106h535v-106z" />
    <glyph glyph-name="Abreve" unicode="&#x102;" horiz-adv-x="1576" 
d="M401 365l-163 -365h-183l647 1434h175l647 -1434h-183l-161 365h-779zM1114 508l-323 727l-326 -727h649zM471 1718l101.998 72c47.333 -86 120 -129 218 -129s170.333 43 217 129l104 -72c-73.333 -117.333 -180.666 -176 -321.999 -176s-247.666 58.667 -318.999 176z
" />
    <glyph glyph-name="abreve" unicode="&#x103;" horiz-adv-x="1165" 
d="M125 274c0 101.333 47.668 183.665 143.001 246.998s217.666 95 366.999 95c79.333 0 151 -8 215 -24v94c0 62.667 -26.333 114.334 -79 155.001c-52.667 40 -120 60 -202 60c-59.333 0 -119.666 -10 -180.999 -30c-62 -21.333 -112 -49 -150 -83l-82 97
c46 46 108.667 83.667 188 113c78 28 158 42 240 42c126 0 228.333 -32.333 307 -97c79.333 -65.333 119 -149.666 119 -252.999v-690h-160v201c-36.667 -67.333 -88.334 -120.333 -155.001 -159s-140.667 -58 -222 -58c-102 0 -185.333 27.333 -250 82
c-65.333 54 -98 123.333 -98 208zM645.001 503.999c-102.667 0 -187 -20 -253 -60c-66 -41.333 -99 -93 -99 -155c0 -50.667 21.667 -92 65 -124s98 -48 164 -48c96.667 0 175.667 34.667 237 104c60.667 68.667 91 152.667 91 252c-56 20.667 -124.333 31 -205 31z
M569.001 1214c-142 0 -248.334 59 -319.001 177l104 69c44 -86 115.667 -129 215 -129c102 0 174.333 43 217 129l105 -69c-71.333 -118 -178.666 -177 -321.999 -177z" />
    <glyph glyph-name="Aogonek" unicode="&#x104;" horiz-adv-x="1576" 
d="M238 0h-182.999l647 1434h175l647 -1434h-35c-30.667 -26 -62 -65 -94 -117c-24.667 -38.667 -37 -74.667 -37 -108c0 -30 8 -53.167 24 -69.5s38 -24.5 66 -24.5c40 0 74.667 13.333 104 40l58 -63c-19.333 -26 -45.833 -46.5 -79.5 -61.5s-68.834 -22.5 -105.501 -22.5
c-53.333 0 -96.333 16.667 -129 50s-49 77.333 -49 132c0 46 11.333 88.667 34 128c23.333 41.333 46.333 70.333 69 87l34 29h-43l-161 365h-779zM1114 508l-323 727l-326 -727h649z" />
    <glyph glyph-name="aogonek" unicode="&#x105;" horiz-adv-x="1165" 
d="M125 274c0 101.333 47.667 183.664 143 246.997s217.666 95 366.999 95c79.333 0 151 -8 215 -24v94c0 62.667 -26.333 114.334 -79 155.001c-52.667 40 -120 60 -202 60c-59.333 0 -119.666 -10 -180.999 -30c-62 -21.333 -112 -49 -150 -83l-82 97
c46 46 108.667 83.667 188 113c78 28 158 42 240 42c126 0 228.333 -32.333 307 -97c79.333 -65.333 119 -149.666 119 -252.999v-690h-23c-30.667 -26 -62 -65 -94 -117c-24.667 -38.667 -37 -74.667 -37 -108c0 -30 8 -53.167 24 -69.5s38 -24.5 66 -24.5
c39.333 0 74.333 13.333 105 40l57 -63c-19.333 -26 -45.833 -46.5 -79.5 -61.5s-68.5 -22.5 -104.5 -22.5c-53.333 0 -96.5 16.667 -129.5 50s-49.5 77.333 -49.5 132c0 44.667 11.667 87.334 35 128.001c22.667 40.667 45.334 69.667 68.001 87l35 29h-33v201
c-36.667 -67.333 -88.334 -120.333 -155.001 -159s-140.667 -58 -222 -58c-102 0 -185.333 27.333 -250 82c-65.333 54 -98 123.333 -98 208zM645 503.998c-102.667 0 -187 -20 -253 -60c-66 -41.333 -99 -93 -99 -155c0 -50.667 21.667 -92 65 -124s98 -48 164 -48
c96.667 0 175.667 34.667 237 104c60.667 68.667 91 152.667 91 252c-56 20.667 -124.333 31 -205 31z" />
    <glyph glyph-name="Cacute" unicode="&#x106;" horiz-adv-x="1441" 
d="M1255 303l103.001 -105.998c-138 -142 -314 -213 -528 -213c-214.667 0 -389.334 68.333 -524.001 205c-134.667 135.333 -202 311.333 -202 528c0 215.333 67.333 391.333 202 528s309.334 205 524.001 205c214 0 390 -71 528 -213l-103 -107
c-44.667 51.333 -104.334 92.666 -179.001 123.999c-73.333 30.667 -152 46 -236 46c-162.667 0 -295 -54 -397 -162c-102.667 -108.667 -154 -248.334 -154 -419.001c0 -172 51.333 -312.333 154 -421c102 -108.667 234.333 -163 397 -163c85.333 0 164.333 15 237 45
c74 30.667 133.333 71.667 178 123zM659.001 1571l297 299l101 -98l-332 -267z" />
    <glyph glyph-name="cacute" unicode="&#x107;" horiz-adv-x="1101" 
d="M918 225l95.998 -94c-94.667 -98 -221.667 -147 -381 -147s-288.666 49.333 -387.999 148c-100.667 98 -151 225.333 -151 382c0 155.333 50 282 150 380c99.333 97.333 228.333 146 387 146c157.333 0 285 -49 383 -147l-96 -96c-69.333 69.333 -161 104 -275 104
c-110.667 0 -201 -36 -271 -108c-70.667 -72.667 -106 -165.667 -106 -279c0 -116.667 35.333 -210.667 106 -282c70 -72.667 160.333 -109 271 -109c112.667 0 204.334 34 275.001 102zM458.998 1270l299 299l98 -99l-332 -266z" />
    <glyph glyph-name="Ccircumflex" unicode="&#x108;" horiz-adv-x="1441" 
d="M1255 303l103.001 -105.998c-138 -142 -314 -213 -528 -213c-214.667 0 -389.334 68.333 -524.001 205c-134.667 135.333 -202 311.333 -202 528c0 215.333 67.333 391.333 202 528s309.334 205 524.001 205c214 0 390 -71 528 -213l-103 -107
c-44.667 51.333 -104.334 92.666 -179.001 123.999c-73.333 30.667 -152 46 -236 46c-162.667 0 -295 -54 -397 -162c-102.667 -108.667 -154 -248.334 -154 -419.001c0 -172 51.333 -312.333 154 -421c102 -108.667 234.333 -163 397 -163c85.333 0 164.333 15 237 45
c74 30.667 133.333 71.667 178 123zM555.001 1532l-82 82l330 233l327 -233l-81 -82l-246 176z" />
    <glyph glyph-name="ccircumflex" unicode="&#x109;" horiz-adv-x="1101" 
d="M918 225l95.998 -94c-94.667 -98 -221.667 -147 -381 -147s-288.666 49.333 -387.999 148c-100.667 98 -151 225.333 -151 382c0 155.333 50 282 150 380c99.333 97.333 228.333 146 387 146c157.333 0 285 -49 383 -147l-96 -96c-69.333 69.333 -161 104 -275 104
c-110.667 0 -201 -36 -271 -108c-70.667 -72.667 -106 -165.667 -106 -279c0 -116.667 35.333 -210.667 106 -282c70 -72.667 160.333 -109 271 -109c112.667 0 204.334 34 275.001 102zM353.998 1229l-82 84l330 231l328 -231l-82 -84l-246 178z" />
    <glyph glyph-name="Cdotaccent" unicode="&#x10a;" horiz-adv-x="1441" 
d="M1255 303l103.001 -105.998c-138 -142 -314 -213 -528 -213c-214.667 0 -389.334 68.333 -524.001 205c-134.667 135.333 -202 311.333 -202 528c0 215.333 67.333 391.333 202 528s309.334 205 524.001 205c214 0 390 -71 528 -213l-103 -107
c-44.667 51.333 -104.334 92.666 -179.001 123.999c-73.333 30.667 -152 46 -236 46c-162.667 0 -295 -54 -397 -162c-102.667 -108.667 -154 -248.334 -154 -419.001c0 -172 51.333 -312.333 154 -421c102 -108.667 234.333 -163 397 -163c85.333 0 164.333 15 237 45
c74 30.667 133.333 71.667 178 123zM883.001 1571h-162v192h162v-192z" />
    <glyph glyph-name="cdotaccent" unicode="&#x10b;" horiz-adv-x="1101" 
d="M918 225l95.998 -94c-94.667 -98 -221.667 -147 -381 -147s-288.666 49.333 -387.999 148c-100.667 98 -151 225.333 -151 382c0 155.333 50 282 150 380c99.333 97.333 228.333 146 387 146c157.333 0 285 -49 383 -147l-96 -96c-69.333 69.333 -161 104 -275 104
c-110.667 0 -201 -36 -271 -108c-70.667 -72.667 -106 -165.667 -106 -279c0 -116.667 35.333 -210.667 106 -282c70 -72.667 160.333 -109 271 -109c112.667 0 204.334 34 275.001 102zM681.998 1270h-162v192h162v-192z" />
    <glyph glyph-name="Ccaron" unicode="&#x10c;" horiz-adv-x="1441" 
d="M1255 303l103.001 -105.998c-138 -142 -314 -213 -528 -213c-214.667 0 -389.334 68.333 -524.001 205c-134.667 135.333 -202 311.333 -202 528c0 215.333 67.333 391.333 202 528s309.334 205 524.001 205c214 0 390 -71 528 -213l-103 -107
c-44.667 51.333 -104.334 92.666 -179.001 123.999c-73.333 30.667 -152 46 -236 46c-162.667 0 -295 -54 -397 -162c-102.667 -108.667 -154 -248.334 -154 -419.001c0 -172 51.333 -312.333 154 -421c102 -108.667 234.333 -163 397 -163c85.333 0 164.333 15 237 45
c74 30.667 133.333 71.667 178 123zM1049 1845l81 -82l-327 -233l-330 233l82 82l248 -176z" />
    <glyph glyph-name="ccaron" unicode="&#x10d;" horiz-adv-x="1101" 
d="M918 225l95.998 -94c-94.667 -98 -221.667 -147 -381 -147s-288.666 49.333 -387.999 148c-100.667 98 -151 225.333 -151 382c0 155.333 50 282 150 380c99.333 97.333 228.333 146 387 146c157.333 0 285 -49 383 -147l-96 -96c-69.333 69.333 -161 104 -275 104
c-110.667 0 -201 -36 -271 -108c-70.667 -72.667 -106 -165.667 -106 -279c0 -116.667 35.333 -210.667 106 -282c70 -72.667 160.333 -109 271 -109c112.667 0 204.334 34 275.001 102zM847.998 1544l82 -82l-328 -235l-330 235l82 82l248 -176z" />
    <glyph glyph-name="Dcaron" unicode="&#x10e;" horiz-adv-x="1546" 
d="M727 0l-561 -0.000976562v1434h561c212 0 385.667 -66.667 521 -200c134.667 -132.667 202 -305 202 -517c0 -211.333 -67 -383.666 -201 -516.999c-135.333 -133.333 -309.333 -200 -522 -200zM1122 302.999c101.333 105.333 152 243.333 152 414
s-50.667 308.667 -152 414c-102 104.667 -233.667 157 -395 157h-389v-1143h389c161.333 0 293 52.667 395 158zM985 1845l82 -82l-328 -233l-329 233l84 82l245 -176z" />
    <glyph glyph-name="dcaron" unicode="&#x10f;" horiz-adv-x="1478" 
d="M530 -16c-130 0 -234.999 46.332 -314.999 138.999c-80.667 92.667 -121 213.334 -121 362.001c0 164.667 50 298.667 150 402c98.667 102 229 153 391 153c110 0 203.333 -23.667 280 -71v516h162v-1485h-162v221c-30.667 -70.667 -81.334 -127.667 -152.001 -171
c-71.333 -44 -149 -66 -233 -66zM655.001 900.999c-116.667 0 -210.332 -37.334 -280.999 -112.001c-72 -75.333 -108 -173.666 -108 -294.999c0 -110 29.667 -199.667 89 -269s135.666 -104 228.999 -104c94.667 0 173.667 37.667 237 113c62.667 74.667 94 168.667 94 282
v313c-75.333 48 -162 72 -260 72zM1460 1485l-131 -412h-115l82 412h164z" />
    <glyph glyph-name="Dcroat" unicode="&#x110;" horiz-adv-x="1554" 
d="M174 0v663.999h-160v106h160v664h561c212 0 385.667 -66.667 521 -200c134.667 -132.667 202 -305 202 -517c0 -211.333 -67 -383.666 -201 -516.999c-135.333 -133.333 -309.333 -200 -522 -200h-561zM688 769.999v-106h-342v-519h389c161.333 0 293 52.667 395 158
c101.333 105.333 152 243.333 152 414s-50.667 308.667 -152 414c-102 104.667 -233.667 157 -395 157h-389v-518h342z" />
    <glyph glyph-name="dslash" unicode="&#x111;" horiz-adv-x="1232" 
d="M530 -16c-130 0 -234.999 46.332 -314.999 138.999c-80.667 92.667 -121 213.334 -121 362.001c0 164.667 50 298.667 150 402c98.667 102 229 153 391 153c110 0 203.333 -23.667 280 -71v223h-333v106h333v187h162v-187h162v-106h-162v-1192h-162v221
c-30.667 -70.667 -81.334 -127.667 -152.001 -171c-71.333 -44 -149 -66 -233 -66zM655.001 900.999c-116.667 0 -210.332 -37.334 -280.999 -112.001c-72 -75.333 -108 -173.666 -108 -294.999c0 -110 29.667 -199.667 89 -269s135.666 -104 228.999 -104
c94.667 0 173.667 37.667 237 113c62.667 74.667 94 168.667 94 282v313c-75.333 48 -162 72 -260 72z" />
    <glyph glyph-name="Emacron" unicode="&#x112;" horiz-adv-x="1327" 
d="M1208 0h-1042v1434h1026v-146h-854v-483h792v-146h-792v-514h870v-145zM416 1604v106h536v-106h-536z" />
    <glyph glyph-name="emacron" unicode="&#x113;" horiz-adv-x="1193" 
d="M1096 463l-832.001 0.00195312c5.33301 -100.667 45.333 -182.334 120 -245.001c75.333 -63.333 169.333 -95 282 -95c122.667 0 219.334 34 290.001 102l91 -90c-98.667 -101.333 -232 -151.666 -400 -150.999c-164 0 -297 50 -399 150
c-102.667 98.667 -154 228.667 -154 390c0 150.667 47 274.667 141 372c92.667 96 213 144 361 144c149.333 0 270.333 -49 363 -147c92.667 -98.667 139 -226.334 139 -383.001c0 -16.667 -0.666992 -32.334 -2 -47.001zM265.999 586.002l666.001 -0.000976562
c-3.33301 94 -35 170.333 -95 229c-60.667 58.667 -137.667 88 -231 88c-92.667 0 -170.334 -29.333 -233.001 -88c-63.333 -59.333 -99 -135.666 -107 -228.999zM864 1382v-106h-536v106h536z" />
    <glyph glyph-name="Ebreve" unicode="&#x114;" horiz-adv-x="1327" 
d="M1208 145v-145h-1042v1434h1026v-146h-854v-483h792v-146h-792v-514h870zM901 1790l105 -72c-73.333 -117.333 -180.666 -176 -321.999 -176s-248.666 58.667 -321.999 176l105 72c47.333 -86 119.666 -129 216.999 -129s169.666 43 216.999 129z" />
    <glyph glyph-name="ebreve" unicode="&#x115;" horiz-adv-x="1193" 
d="M1096 463l-832.001 0.00195312c5.33301 -100.667 45.333 -182.334 120 -245.001c75.333 -63.333 169.333 -95 282 -95c122.667 0 219.334 34 290.001 102l91 -90c-98.667 -101.333 -232 -151.666 -400 -150.999c-164 0 -297 50 -399 150
c-102.667 98.667 -154 228.667 -154 390c0 150.667 47 274.667 141 372c92.667 96 213 144 361 144c149.333 0 270.333 -49 363 -147c92.667 -98.667 139 -226.334 139 -383.001c0 -16.667 -0.666992 -32.334 -2 -47.001zM265.999 586.002l666.001 -0.000976562
c-3.33301 94 -35 170.333 -95 229c-60.667 58.667 -137.667 88 -231 88c-92.667 0 -170.334 -29.333 -233.001 -88c-63.333 -59.333 -99 -135.666 -107 -228.999zM274 1391l104.999 69c46.667 -86 119 -129 217 -129c97.333 0 169.666 43 216.999 129l105 -69
c-73.333 -117.333 -180.666 -176 -321.999 -176s-248.666 58.667 -321.999 176z" />
    <glyph glyph-name="Edotaccent" unicode="&#x116;" horiz-adv-x="1327" 
d="M1208 0h-1042v1434h1026v-146h-854v-483h792v-146h-792v-514h870v-145zM604 1571v192h160v-192h-160z" />
    <glyph glyph-name="edotaccent" unicode="&#x117;" horiz-adv-x="1193" 
d="M1096 463l-832.001 0.00195312c5.33301 -100.667 45.333 -182.334 120 -245.001c75.333 -63.333 169.333 -95 282 -95c122.667 0 219.334 34 290.001 102l91 -90c-98.667 -101.333 -232 -151.666 -400 -150.999c-164 0 -297 50 -399 150
c-102.667 98.667 -154 228.667 -154 390c0 150.667 47 274.667 141 372c92.667 96 213 144 361 144c149.333 0 270.333 -49 363 -147c92.667 -98.667 139 -226.334 139 -383.001c0 -16.667 -0.666992 -32.334 -2 -47.001zM265.999 586.002l666.001 -0.000976562
c-3.33301 94 -35 170.333 -95 229c-60.667 58.667 -137.667 88 -231 88c-92.667 0 -170.334 -29.333 -233.001 -88c-63.333 -59.333 -99 -135.666 -107 -228.999zM676 1241h-160v193h160v-193z" />
    <glyph glyph-name="Eogonek" unicode="&#x118;" horiz-adv-x="1327" 
d="M1001 0l-835.001 -0.000976562v1434h1026v-146h-854v-483h792v-146h-792v-514h870v-145h-102c-30.667 -26 -62 -65 -94 -117c-24.667 -38.667 -37 -74.667 -37 -108c0 -30 8 -53.167 24 -69.5s38 -24.5 66 -24.5c40 0 74.667 13.333 104 40l60 -63
c-44.667 -56 -107 -84 -187 -84c-53.333 0 -96.333 16.667 -129 50s-49 77.333 -49 132c0 44.667 11.667 87.334 35 128.001c22.667 40.667 45.334 69.667 68.001 87z" />
    <glyph glyph-name="eogonek" unicode="&#x119;" horiz-adv-x="1193" 
d="M94 524c0 150.667 46.998 274.671 140.998 372.004c92.667 96 213 144 361 144c149.333 0 270.333 -49 363 -147c92.667 -98.667 139 -226.334 139 -383.001c0 -16.667 -0.666992 -32.334 -2 -47.001h-832c5.33301 -100.667 45.333 -182.334 120 -245.001
c75.333 -63.333 169.333 -95 282 -95c122.667 0 219.334 34 290.001 102l91 -90c-34.667 -34.667 -77 -65.334 -127 -92.001c-78 -74 -117 -144.333 -117 -211c0 -28.667 8.16699 -51.5 24.5 -68.5s38.166 -25.5 65.499 -25.5c38.667 0 73.334 13.667 104.001 41l60 -62
c-44 -57.333 -106.333 -86 -187 -86c-52 0 -94.667 16.667 -128 50c-33.333 34.667 -50 79 -50 133c0 63.333 23.333 123.333 70 180c-39.333 -6.66699 -77.666 -10 -114.999 -10c-163.333 0 -296.333 49.667 -399 149c-102.667 98.667 -154 229 -154 391zM265.998 586.004
l666.001 -0.000976562c-3.33301 94 -35 170.333 -95 229c-60.667 58.667 -137.667 88 -231 88c-92.667 0 -170.334 -29.333 -233.001 -88c-63.333 -59.333 -99 -135.666 -107 -228.999z" />
    <glyph glyph-name="Ecaron" unicode="&#x11a;" horiz-adv-x="1327" 
d="M1208 0h-1042v1434h1026v-146h-854v-483h792v-146h-792v-514h870v-145zM1012 1763l-328 -233l-330 233l84 82l246 -176l248 176z" />
    <glyph glyph-name="ecaron" unicode="&#x11b;" horiz-adv-x="1193" 
d="M1096 463l-832.001 0.00195312c5.33301 -100.667 45.333 -182.334 120 -245.001c75.333 -63.333 169.333 -95 282 -95c122.667 0 219.334 34 290.001 102l91 -90c-98.667 -101.333 -232 -151.666 -400 -150.999c-164 0 -297 50 -399 150
c-102.667 98.667 -154 228.667 -154 390c0 150.667 47 274.667 141 372c92.667 96 213 144 361 144c149.333 0 270.333 -49 363 -147c92.667 -98.667 139 -226.334 139 -383.001c0 -16.667 -0.666992 -32.334 -2 -47.001zM265.999 586.002l666.001 -0.000976562
c-3.33301 94 -35 170.333 -95 229c-60.667 58.667 -137.667 88 -231 88c-92.667 0 -170.334 -29.333 -233.001 -88c-63.333 -59.333 -99 -135.666 -107 -228.999zM844 1516l80 -80l-328 -236l-330 234l84 82l246 -177z" />
    <glyph glyph-name="Gcircumflex" unicode="&#x11c;" horiz-adv-x="1513" 
d="M1206 631l-391.001 0.00195312v143h563v-579c-138 -140.667 -316 -211 -534 -211c-218.667 0 -396.667 68 -534 204c-137.333 135.333 -206 311.666 -206 528.999c0 215.333 68.667 391.666 206 528.999c136.667 136 314 204 532 204c218.667 0 397.334 -71 536.001 -213
l-100 -107c-50 52.667 -112.833 93.834 -188.5 123.501s-156.167 44.5 -241.5 44.5c-164 0 -298 -54 -402 -162c-104.667 -108.667 -157 -248.334 -157 -419.001c0 -172 52.333 -312.333 157 -421c104 -108.667 239.333 -163 406 -163c142 0 260 41 354 123v375z
M566.999 1532l-84 82l330 233l330 -233l-82 -82l-248 176z" />
    <glyph glyph-name="gcircumflex" unicode="&#x11d;" horiz-adv-x="1216" 
d="M541 -16c-132.667 0 -240.333 46.002 -323 138.002c-82.667 91.333 -124 209.666 -124 354.999c0 168 55.667 304 167 408c111.333 103.333 257.666 155 438.999 155c132.667 0 253 -24.333 361 -73v-963c0 -142.667 -48 -258.334 -144 -347.001
c-97.333 -89.333 -222.666 -134 -375.999 -134c-160.667 0 -292.667 49.667 -396 149l93 95c74 -69.333 169.333 -104.333 286 -105c112.667 0 203.667 31.333 273 94c69.333 63.333 104 145.333 104 246v182c-36.667 -62.667 -86.667 -111.667 -150 -147
s-133.333 -53 -210 -53zM266.001 489.002c0 -109.333 29.333 -198.334 88 -267.001s133.334 -103 224.001 -103c93.333 0 170.666 35 231.999 105c60.667 68.667 91 156.334 91 263.001v377c-73.333 24.667 -148.333 37 -225 37c-122.667 0 -221.667 -38 -297 -114
c-75.333 -76.667 -113 -176 -113 -298zM645.001 1378l-248 -176l-82 82l330 234l330 -234l-84 -82z" />
    <glyph glyph-name="Gbreve" unicode="&#x11e;" horiz-adv-x="1513" 
d="M1206 631l-391.001 0.00195312v143h563v-579c-138 -140.667 -316 -211 -534 -211c-218.667 0 -396.667 68 -534 204c-137.333 135.333 -206 311.666 -206 528.999c0 215.333 68.667 391.666 206 528.999c136.667 136 314 204 532 204c218.667 0 397.334 -71 536.001 -213
l-100 -107c-50 52.667 -112.833 93.834 -188.5 123.501s-156.167 44.5 -241.5 44.5c-164 0 -298 -54 -402 -162c-104.667 -108.667 -157 -248.334 -157 -419.001c0 -172 52.333 -312.333 157 -421c104 -108.667 239.333 -163 406 -163c142 0 260 41 354 123v375z
M491.999 1718l103.998 72c46.667 -86 119.334 -129 218.001 -129c98 0 170 43 216 129l105 -72c-73.333 -117.333 -180.333 -176 -321 -176c-141.333 0 -248.666 58.667 -321.999 176z" />
    <glyph glyph-name="gbreve" unicode="&#x11f;" horiz-adv-x="1216" 
d="M94 477c0 168 55.6689 304.002 167.002 408.002c111.333 103.333 257.666 155 438.999 155c132.667 0 253 -24.333 361 -73v-963c0 -142.667 -48 -258.334 -144 -347.001c-97.333 -89.333 -222.666 -134 -375.999 -134c-160.667 0 -292.667 49.667 -396 149l93 95
c74 -69.333 169.333 -104.333 286 -105c112.667 0 203.667 31.333 273 94c69.333 63.333 104 145.333 104 246v182c-36.667 -62.667 -86.834 -111.667 -150.501 -147s-133.5 -53 -209.5 -53c-132.667 0 -240.334 46 -323.001 138c-82.667 91.333 -124 209.666 -124 354.999z
M266.002 489.002c0 -109.333 29.333 -198.334 88 -267.001s133.334 -103 224.001 -103c93.333 0 170.666 35 231.999 105c60.667 68.667 91 156.334 91 263.001v377c-73.333 24.667 -148.333 37 -225 37c-122.667 0 -221.667 -38 -297 -114
c-75.333 -76.667 -113 -176 -113 -298zM862.002 1460l105 -69c-72.667 -118 -180 -177 -322 -177s-249 59 -321 177l104 69c47.333 -86 120 -129 218 -129s170 43 216 129z" />
    <glyph glyph-name="Gdotaccent" unicode="&#x120;" horiz-adv-x="1513" 
d="M1206 631l-391.001 0.00195312v143h563v-579c-138 -140.667 -316 -211 -534 -211c-218.667 0 -396.667 68 -534 204c-137.333 135.333 -206 311.666 -206 528.999c0 215.333 68.667 391.666 206 528.999c136.667 136 314 204 532 204c218.667 0 397.334 -71 536.001 -213
l-100 -107c-50 52.667 -112.833 93.834 -188.5 123.501s-156.167 44.5 -241.5 44.5c-164 0 -298 -54 -402 -162c-104.667 -108.667 -157 -248.334 -157 -419.001c0 -172 52.333 -312.333 157 -421c104 -108.667 239.333 -163 406 -163c142 0 260 41 354 123v375z
M892.999 1571h-160v192h160v-192z" />
    <glyph glyph-name="gdotaccent" unicode="&#x121;" horiz-adv-x="1216" 
d="M541 -16c-132.667 0 -240.333 46.002 -323 138.002c-82.667 91.333 -124 209.666 -124 354.999c0 168 55.667 304 167 408c111.333 103.333 257.666 155 438.999 155c132.667 0 253 -24.333 361 -73v-963c0 -142.667 -48 -258.334 -144 -347.001
c-97.333 -89.333 -222.666 -134 -375.999 -134c-160.667 0 -292.667 49.667 -396 149l93 95c74 -69.333 169.333 -104.333 286 -105c112.667 0 203.667 31.333 273 94c69.333 63.333 104 145.333 104 246v182c-36.667 -62.667 -86.667 -111.667 -150 -147
s-133.333 -53 -210 -53zM676.001 901.002c-122.667 0 -221.667 -37.667 -297 -113c-75.333 -76.667 -113 -176.334 -113 -299.001c0 -109.333 29.333 -198.333 88 -267s133.334 -103 224.001 -103c93.333 0 170.666 35 231.999 105c60.667 68.667 91 156.334 91 263.001v377
c-72 24.667 -147 37 -225 37zM725.001 1434v-193h-160v193h160z" />
    <glyph glyph-name="uni0122" unicode="&#x122;" horiz-adv-x="1513" 
d="M1206 631l-391.001 0.00195312v143h563v-579c-138 -140.667 -316 -211 -534 -211c-218.667 0 -396.667 68 -534 204c-137.333 135.333 -206 311.666 -206 528.999c0 215.333 68.667 391.666 206 528.999c136.667 136 314 204 532 204c218.667 0 397.334 -71 536.001 -213
l-100 -107c-50 52.667 -112.833 93.834 -188.5 123.501s-156.167 44.5 -241.5 44.5c-164 0 -298 -54 -402 -162c-104.667 -108.667 -157 -248.334 -157 -419.001c0 -172 52.333 -312.333 157 -421c104 -108.667 239.333 -163 406 -163c142 0 260 41 354 123v375z
M802.999 -405.998h-96l61 320h143z" />
    <glyph glyph-name="uni0123" unicode="&#x123;" horiz-adv-x="1216" 
d="M541 -16c-132.667 0 -240.333 46.002 -323 138.002c-82.667 91.333 -124 209.666 -124 354.999c0 168 55.667 304 167 408c111.333 103.333 257.666 155 438.999 155c132.667 0 253 -24.333 361 -73v-963c0 -142.667 -48 -258.334 -144 -347.001
c-97.333 -89.333 -222.666 -134 -375.999 -134c-160.667 0 -292.667 49.667 -396 149l93 95c74 -69.333 169.333 -104.333 286 -105c112.667 0 203.667 31.333 273 94c69.333 63.333 104 145.333 104 246v182c-36.667 -62.667 -86.667 -111.667 -150 -147
s-133.333 -53 -210 -53zM676.001 901.002c-122.667 0 -221.667 -37.667 -297 -113c-75.333 -76.667 -113 -176.334 -113 -299.001c0 -109.333 29.333 -198.333 88 -267s133.334 -103 224.001 -103c93.333 0 170.666 35 231.999 105c60.667 68.667 91 156.334 91 263.001v377
c-72 24.667 -147 37 -225 37zM678.001 1188h-143l110 319h94z" />
    <glyph glyph-name="Hcircumflex" unicode="&#x124;" horiz-adv-x="1581" 
d="M338 0h-172v1434h172v-631h905v631h172v-1434h-172v659h-905v-659zM545 1532l-82 82l328 233l329 -233l-82 -82l-247 176z" />
    <glyph glyph-name="hcircumflex" unicode="&#x125;" horiz-adv-x="1241" 
d="M317 494l-0.00195312 -494h-161v1485h161v-684c36.667 75.333 88.834 134 156.501 176s143.834 63 228.501 63c116 0 210.667 -36 284 -108c73.333 -73.333 110 -167.666 110 -282.999v-649h-160v616c0 85.333 -26 154.666 -78 207.999c-52 52.667 -119 79 -201 79
c-101.333 0 -183.333 -38.333 -246 -115s-94 -174.667 -94 -294zM-10.002 1561l-82 81l328 234l329 -234l-82 -81l-247 176z" />
    <glyph glyph-name="Hbar" unicode="&#x126;" horiz-adv-x="1581" 
d="M166 0v1049h-152v106h152v279h172v-279h905v279h172v-279h152v-106h-152v-1049h-172v659h-905v-659h-172zM1243 803v246h-905v-246h905z" />
    <glyph glyph-name="hbar" unicode="&#x127;" horiz-adv-x="1241" 
d="M156 1192h-162.002v106h162v187h161v-187h334v-106h-334v-391c36.667 75.333 88.834 134 156.501 176s143.834 63 228.501 63c116 0 210.667 -36 284 -108c73.333 -73.333 110 -167.666 110 -282.999v-649h-160v616c0 85.333 -26 154.666 -78 207.999
c-52 52.667 -119 79 -201 79c-101.333 0 -183.333 -38.333 -246 -115s-94 -174.667 -94 -294v-494h-161v1192z" />
    <glyph glyph-name="Itilde" unicode="&#x128;" horiz-adv-x="503" 
d="M338 1434v-1434h-172v1434h172zM135 1661c-24.667 0 -44.833 -8.33008 -60.5 -24.9971s-23.5 -39 -23.5 -67h-119c0 64 19.333 115.333 58 154c40 38 90.333 57 151 57c25.333 0.666992 50 -4.33301 74 -15s43.5 -22.667 58.5 -36s31.167 -25.333 48.5 -36
s33 -15.334 47 -14.001c24.667 0 44.5 8.66699 59.5 26s22.5 39.666 22.5 66.999h118c0 -62.667 -19.333 -113.334 -58 -152.001c-39.333 -39.333 -89 -59 -149 -59c-46 0 -89.667 16.667 -131 50s-73.333 50 -96 50z" />
    <glyph glyph-name="itilde" unicode="&#x129;" horiz-adv-x="473" 
d="M317 1024v-1024h-161v1024h161zM216 1292c-40 34 -72.333 51.002 -97 51.002s-44.334 -8 -59.001 -24c-15.333 -17.333 -23 -40.666 -23 -69.999h-119c0 63.333 19 114.666 57 153.999c39.333 38 89.333 57 150 57c26.667 0.666992 52 -4.33301 76 -15
s43.167 -22.5 57.5 -35.5s30 -24.833 47 -35.5s32.5 -15.334 46.5 -14.001c24.667 0 44.834 8.5 60.501 25.5s23.5 39.167 23.5 66.5h117c0 -62.667 -19.333 -113.334 -58 -152.001c-39.333 -39.333 -89 -59 -149 -59c-46.667 0 -90 17 -130 51z" />
    <glyph glyph-name="Imacron" unicode="&#x12a;" horiz-adv-x="503" 
d="M338 1434v-1434h-172v1434h172zM520 1710v-106h-536v106h536z" />
    <glyph glyph-name="imacron" unicode="&#x12b;" horiz-adv-x="473" 
d="M317 1024v-1024h-161v1024h161zM504 1382v-106h-535v106h535z" />
    <glyph glyph-name="Ibreve" unicode="&#x12c;" horiz-adv-x="503" 
d="M338 1434v-1434h-172v1434h172zM-70 1718l105 72c46.667 -86 119 -129 217 -129c97.333 0 169.666 43 216.999 129l104 -72c-73.333 -117.333 -180.333 -176 -321 -176c-141.333 0 -248.666 58.667 -321.999 176z" />
    <glyph glyph-name="ibreve" unicode="&#x12d;" horiz-adv-x="473" 
d="M317 1024v-1024h-161v1024h161zM-84 1391l104.001 69c44 -86 116 -129 216 -129c101.333 0 173.666 43 216.999 129l104 -69c-71.333 -116.667 -178.333 -175.667 -321 -177c-142 0.666992 -248.667 59.667 -320 177z" />
    <glyph glyph-name="Iogonek" unicode="&#x12e;" horiz-adv-x="503" 
d="M72 -244c0 46 11.333 88.667 34 128c22 40.667 44.667 69.667 68 87l35 29h-43v1434h172v-1434h-25c-30.667 -26 -62 -65 -94 -117c-24.667 -38.667 -37 -74.667 -37 -108c0 -30 8 -53.167 24 -69.5s38 -24.5 66 -24.5c39.333 0 74.333 13.333 105 40l59 -63
c-45.333 -56 -107.333 -84 -186 -84c-53.333 0 -96.333 16.667 -129 50s-49 77.333 -49 132z" />
    <glyph glyph-name="iogonek" unicode="&#x12f;" horiz-adv-x="473" 
d="M51 -244c0 46 11.332 88.667 33.999 128c23.333 41.333 46.333 70.333 69 87l34 29h-32v1024h161v-1024h-24c-30.667 -26 -62 -65 -94 -117c-24.667 -38.667 -37 -74.667 -37 -108c0 -30 8 -53.167 24 -69.5s38 -24.5 66 -24.5c40 0 74.667 13.333 104 40l60 -63
c-45.333 -56 -107.666 -84 -186.999 -84c-53.333 0 -96.333 16.667 -129 50s-49 77.333 -49 132zM316.999 1434v-193h-161v193h161z" />
    <glyph glyph-name="Idot" unicode="&#x130;" horiz-adv-x="503" 
d="M338 1434v-1434h-172v1434h172zM332 1571h-160v192h160v-192z" />
    <glyph glyph-name="dotlessi" unicode="&#x131;" horiz-adv-x="473" 
d="M317 1024v-1024h-161v1024h161z" />
    <glyph glyph-name="IJ" unicode="&#x132;" horiz-adv-x="1652" 
d="M1352 126c-96.667 -94.667 -222.999 -142 -378.999 -142s-286.333 50.333 -391 151l102 113c67.333 -75.333 161.666 -113 282.999 -113c104.667 0 190.667 34 258 102c66.667 66.667 100 153.667 100 261v936h172v-936c0 -154 -48.333 -278 -145 -372zM334.001 0h-172
v1434h172v-1434z" />
    <glyph glyph-name="ij" unicode="&#x133;" horiz-adv-x="966" 
d="M236 -375l86.001 96c38 -38 87 -57 147 -57c53.333 0 96.666 18.667 129.999 56c33.333 38.667 50 87 50 145v1159h162v-1165c0 -100 -30.667 -180.667 -92 -242s-140.333 -92 -237 -92c-97.333 0 -179.333 33.333 -246 100zM156.001 0v1024h161v-1024h-161z
M811.001 1241h-162v193h162v-193zM317.001 1241h-161v193h161v-193z" />
    <glyph glyph-name="Jcircumflex" unicode="&#x134;" horiz-adv-x="1148" 
d="M821 498l0.000976562 936h172v-936c0 -154 -48.333 -278 -145 -372c-96.667 -94.667 -223 -142 -379 -142s-286.333 50.333 -391 151l102 113c67.333 -75.333 161.666 -113 282.999 -113c104.667 0 190.667 34 258 102c66.667 66.667 100 153.667 100 261zM662.001 1532
l-82 82l327 233l330 -233l-82 -82l-248 176z" />
    <glyph glyph-name="jcircumflex" unicode="&#x135;" horiz-adv-x="493" 
d="M-236 -375l84.001 96c41.333 -38 90.666 -57 147.999 -57c53.333 0 96.666 18.667 129.999 56c33.333 38.667 50 87 50 145v1159h162v-1165c0 -100 -30.667 -180.667 -92 -242s-140.666 -92 -237.999 -92c-98.667 0 -180 33.333 -244 100zM10.001 1202l-82 82l330 234
l328 -234l-82 -82l-246 176z" />
    <glyph glyph-name="uni0136" unicode="&#x136;" horiz-adv-x="1376" 
d="M166 0v1434h172v-723l696 723h221l-575 -594l631 -840h-195l-547 723l-231 -238v-485h-172zM793 -86l-111 -320h-96l61 320h146z" />
    <glyph glyph-name="uni0137" unicode="&#x137;" horiz-adv-x="1116" 
d="M156 0v1485h161v-961l480 500h194l-391 -410l453 -614h-179l-376 508l-181 -189v-319h-161zM664 -86l-111 -320h-96l61 320h146z" />
    <glyph glyph-name="Lacute" unicode="&#x139;" horiz-adv-x="1241" 
d="M1171 0h-1005v1434h172v-1289h833v-145zM109 1571l299 299l98 -98l-332 -267z" />
    <glyph glyph-name="lacute" unicode="&#x13a;" horiz-adv-x="577" 
d="M494 156l77 -97c-48 -50.667 -107.333 -76 -178 -76c-71.333 1.33301 -128.333 24 -171 68c-44 44 -66 100.667 -66 170v1264h161v-1254c0 -31.333 9.33301 -56.833 28 -76.5s43 -29.5 73 -29.5s55.333 10.333 76 31zM98 1599l297 302l101 -99l-332 -268z" />
    <glyph glyph-name="uni013B" unicode="&#x13b;" horiz-adv-x="1241" 
d="M1171 0h-1005v1434h172v-1289h833v-145zM637 -406h-94l61 320h144z" />
    <glyph glyph-name="uni013C" unicode="&#x13c;" horiz-adv-x="577" 
d="M494 156l77 -97c-48 -50.667 -107.333 -76 -178 -76c-71.333 1.33301 -128.333 24 -171 68c-44 44 -66 100.667 -66 170v1264h161v-1254c0 -31.333 9.33301 -56.833 28 -76.5s43 -29.5 73 -29.5s55.333 10.333 76 31zM324 -406h-97l62 320h145z" />
    <glyph glyph-name="Lcaron" unicode="&#x13d;" horiz-adv-x="1251" 
d="M1171 0h-1005v1434h172v-1289h833v-145zM870 1073h-114l82 412h163z" />
    <glyph glyph-name="lcaron" unicode="&#x13e;" horiz-adv-x="770" 
d="M156 221v1264h161v-1254c0 -31.333 9.33301 -56.833 28 -76.5s43 -29.5 73 -29.5s55.333 10.333 76 31l77 -97c-48 -50.667 -107.333 -76 -178 -76c-71.333 1.33301 -128.333 24 -171 68c-44 44 -66 100.667 -66 170zM750 1485l-132 -412h-114l82 412h164z" />
    <glyph glyph-name="Ldot" unicode="&#x13f;" horiz-adv-x="1251" 
d="M1171 0h-1005v1434h172v-1289h833v-145zM963 608h-166v217h166v-217z" />
    <glyph glyph-name="ldot" unicode="&#x140;" horiz-adv-x="849" 
d="M494 156l77 -97c-48 -50.667 -107.333 -76 -178 -76c-71.333 1.33301 -128.333 24 -171 68c-44 44 -66 100.667 -66 170v1264h161v-1254c0 -31.333 9.33301 -56.833 28 -76.5s43 -29.5 73 -29.5s55.333 10.333 76 31zM729 608h-166v217h166v-217z" />
    <glyph glyph-name="Lslash" unicode="&#x141;" horiz-adv-x="1261" 
d="M186 616l-139 -79l-53 90l192 110v697h172v-596l201 114l53 -90l-254 -145v-572h834v-145h-1006v616z" />
    <glyph glyph-name="lslash" unicode="&#x142;" horiz-adv-x="608" 
d="M186 657l-139 -79l-53 90l192 110v707h162v-613l170 99l53 -90l-223 -129v-521c0 -31.333 9.16699 -56.833 27.5 -76.5s42.833 -29.5 73.5 -29.5c30 0 55 10.333 75 31l78 -97c-48 -51.333 -108 -76.333 -180 -75c-69.333 0 -126 22.333 -170 67
c-44 44 -66 100.667 -66 170v436z" />
    <glyph glyph-name="Nacute" unicode="&#x143;" horiz-adv-x="1579" 
d="M332 0h-166v1434h166l915 -1160v1160h166v-1434h-164l-917 1165v-1165zM1044 1772l-331 -267l-66 66l299 299z" />
    <glyph glyph-name="nacute" unicode="&#x144;" horiz-adv-x="1241" 
d="M156 0l-0.00195312 1024h161v-223c36.667 75.333 88.834 134 156.501 176s143.834 63 228.501 63c116 0 210.667 -36 284 -108c73.333 -73.333 110 -167.666 110 -282.999v-649h-160v616c0 85.333 -26 154.666 -78 207.999c-52 52.667 -119 79 -201 79
c-101.333 0 -183.333 -38.333 -246 -115s-94 -174.667 -94 -294v-494h-161zM556.998 1176l-65 65l299 301l98 -98z" />
    <glyph glyph-name="uni0145" unicode="&#x145;" horiz-adv-x="1579" 
d="M332 0h-166v1434h166l915 -1160v1160h166v-1434h-164l-917 1165v-1165zM864 -86l-110 -320h-95l62 320h143z" />
    <glyph glyph-name="uni0146" unicode="&#x146;" horiz-adv-x="1241" 
d="M156 0l-0.00195312 1024h161v-223c36.667 75.333 88.834 134 156.501 176s143.834 63 228.501 63c116 0 210.667 -36 284 -108c73.333 -73.333 110 -167.666 110 -282.999v-649h-160v616c0 85.333 -26 154.666 -78 207.999c-52 52.667 -119 79 -201 79
c-101.333 0 -183.333 -38.333 -246 -115s-94 -174.667 -94 -294v-494h-161zM597.998 -406h-96l61 320h144z" />
    <glyph glyph-name="Ncaron" unicode="&#x147;" horiz-adv-x="1579" 
d="M166 0v1434h166l915 -1160v1160h166v-1434h-164l-917 1165v-1165h-166zM791 1530l-330 233l84 82l246 -176l245 176l82 -82z" />
    <glyph glyph-name="ncaron" unicode="&#x148;" horiz-adv-x="1241" 
d="M317 494l-0.00195312 -494h-161v1024h161v-223c36.667 75.333 88.834 134 156.501 176s143.834 63 228.501 63c116 0 210.667 -36 284 -108c73.333 -73.333 110 -167.666 110 -282.999v-649h-160v616c0 85.333 -26 154.666 -78 207.999c-52 52.667 -119 79 -201 79
c-101.333 0 -183.333 -38.333 -246 -115s-94 -174.667 -94 -294zM962.998 1436l-328 -236l-330 234l84 82l246 -177l248 177z" />
    <glyph glyph-name="Eng" unicode="&#x14a;" horiz-adv-x="1579" 
d="M332 1165v-1165h-166v1434h166l915 -1160v1160h166v-1487c0 -126.667 -39 -229 -117 -307c-78.667 -78 -181.667 -117 -309 -117c-134 0 -241 41.667 -321 125l102 110c49.333 -56 119 -84 209 -84c80.667 0 146 25.333 196 76c49.333 51.333 74 117 74 197v55z" />
    <glyph glyph-name="eng" unicode="&#x14b;" horiz-adv-x="1241" 
d="M317 0l-161.002 0.000976562v1024h161v-223c36.667 75.333 88.834 134 156.501 176s143.834 63 228.501 63c116 0 210.667 -36 284 -108c73.333 -73.333 110 -167.666 110 -282.999v-790c0 -100.667 -30.333 -181.334 -91 -242.001
c-61.333 -61.333 -140.333 -92 -237 -92c-100 0 -182 33.333 -246 100l86 96c38 -38 87.333 -57 148 -57c52 0 95 18.667 129 56c34 38 51 86.333 51 145v751c0 85.333 -26 154.666 -78 207.999c-52 52.667 -119 79 -201 79c-101.333 0 -183.333 -38.333 -246 -115
s-94 -174.667 -94 -294v-494z" />
    <glyph glyph-name="Omacron" unicode="&#x14c;" horiz-adv-x="1667" 
d="M307 189c-135.333 136.667 -203 312.667 -203 528c0 214.667 67.667 390.667 203 528c134.667 136.667 310.334 205 527.001 205c214.667 0 390 -68.333 526 -205c135.333 -137.333 203 -313.333 203 -528c0 -216 -68 -392 -204 -528c-136 -136.667 -311 -205 -525 -205
c-216.667 0 -392.334 68.333 -527.001 205zM442 1136c-102 -109.333 -153 -249.002 -153 -419.002s51 -309.667 153 -419c100.667 -108.667 231.334 -163 392.001 -163c161.333 0 292.333 54.333 393 163s151 248.334 151 419.001s-50.333 310.334 -151 419.001
c-100.667 108 -231.667 162 -393 162c-160.667 0 -291.334 -54 -392.001 -162zM1100 1710v-106h-535v106h535z" />
    <glyph glyph-name="omacron" unicode="&#x14d;" horiz-adv-x="1257" 
d="M244 132c-100 98 -150.001 224.667 -150.001 380c0 154.667 50 281.667 150 381c98.667 98 227 147 385 147c156.667 0 285 -49 385 -147c99.333 -99.333 149 -226.333 149 -381c0 -155.333 -49.667 -282 -149 -380c-99.333 -98.667 -227.666 -148 -384.999 -148
c-158 0 -286.333 49.333 -385 148zM265.999 512c0 -114.667 33.999 -207.999 101.999 -279.999c66.667 -72.667 153.667 -109 261 -109c108 0 195.333 36.333 262 109c66.667 71.333 100 164.666 100 279.999c0 116.667 -33.333 210.667 -100 282
c-67.333 71.333 -154.666 107 -261.999 107c-106.667 0 -193.667 -35.667 -261 -107c-68 -72 -102 -166 -102 -282zM896.998 1382v-106h-535v106h535z" />
    <glyph glyph-name="Obreve" unicode="&#x14e;" horiz-adv-x="1667" 
d="M307 189c-135.333 136.667 -203 312.667 -203 528c0 214.667 67.667 390.667 203 528c134.667 136.667 310.334 205 527.001 205c214.667 0 390 -68.333 526 -205c135.333 -137.333 203 -313.333 203 -528c0 -216 -68 -392 -204 -528c-136 -136.667 -311 -205 -525 -205
c-216.667 0 -392.334 68.333 -527.001 205zM442 1136c-102 -109.333 -153 -249.002 -153 -419.002s51 -309.667 153 -419c100.667 -108.667 231.334 -163 392.001 -163c161.333 0 292.333 54.333 393 163s151 248.334 151 419.001s-50.333 310.334 -151 419.001
c-100.667 108 -231.667 162 -393 162c-160.667 0 -291.334 -54 -392.001 -162zM512 1718l103.998 72c46.667 -86 119.334 -129 218.001 -129c97.333 0 169.666 43 216.999 129l102 -72c-71.333 -117.333 -177.666 -176 -318.999 -176
c-143.333 0 -250.666 58.667 -321.999 176z" />
    <glyph glyph-name="obreve" unicode="&#x14f;" horiz-adv-x="1257" 
d="M244 132c-100 98 -150.001 224.667 -150.001 380c0 154.667 50 281.667 150 381c98.667 98 227 147 385 147c156.667 0 285 -49 385 -147c99.333 -99.333 149 -226.333 149 -381c0 -155.333 -49.667 -282 -149 -380c-99.333 -98.667 -227.666 -148 -384.999 -148
c-158 0 -286.333 49.333 -385 148zM265.999 512c0 -114.667 33.999 -207.999 101.999 -279.999c66.667 -72.667 153.667 -109 261 -109c108 0 195.333 36.333 262 109c66.667 71.333 100 164.666 100 279.999c0 116.667 -33.333 210.667 -100 282
c-67.333 71.333 -154.666 107 -261.999 107c-106.667 0 -193.667 -35.667 -261 -107c-68 -72 -102 -166 -102 -282zM308.998 1391l103.001 69c47.333 -86 119.666 -129 216.999 -129c98 0 170.333 43 217 129l104 -69c-70.667 -116.667 -177.667 -175.667 -321 -177
c-142 0.666992 -248.667 59.667 -320 177z" />
    <glyph glyph-name="Ohungarumlaut" unicode="&#x150;" horiz-adv-x="1667" 
d="M307 189c-135.333 136.667 -203 312.667 -203 528c0 214.667 67.667 390.667 203 528c134.667 136.667 310.334 205 527.001 205c214.667 0 390 -68.333 526 -205c135.333 -137.333 203 -313.333 203 -528c0 -216 -68 -392 -204 -528c-136 -136.667 -311 -205 -525 -205
c-216.667 0 -392.334 68.333 -527.001 205zM442 1136c-102 -109.333 -153 -249.002 -153 -419.002s51 -309.667 153 -419c100.667 -108.667 231.334 -163 392.001 -163c161.333 0 292.333 54.333 393 163s151 248.334 151 419.001s-50.333 310.334 -151 419.001
c-100.667 108 -231.667 162 -393 162c-160.667 0 -291.334 -54 -392.001 -162zM498 1571l299 299l98 -98l-332 -267zM879 1571l299 299l98 -98l-332 -267z" />
    <glyph glyph-name="ohungarumlaut" unicode="&#x151;" horiz-adv-x="1257" 
d="M244 132c-100 98 -150.001 224.667 -150.001 380c0 154.667 50 281.667 150 381c98.667 98 227 147 385 147c156.667 0 285 -49 385 -147c99.333 -99.333 149 -226.333 149 -381c0 -155.333 -49.667 -282 -149 -380c-99.333 -98.667 -227.666 -148 -384.999 -148
c-158 0 -286.333 49.333 -385 148zM265.999 512c0 -114.667 33.999 -207.999 101.999 -279.999c66.667 -72.667 153.667 -109 261 -109c108 0 195.333 36.333 262 109c66.667 71.333 100 164.666 100 279.999c0 116.667 -33.333 210.667 -100 282
c-67.333 71.333 -154.666 107 -261.999 107c-106.667 0 -193.667 -35.667 -261 -107c-68 -72 -102 -166 -102 -282zM294.998 1241l299 301l98 -98l-332 -268zM675.998 1241l299 301l98 -98l-332 -268z" />
    <glyph glyph-name="OE" unicode="&#x152;" horiz-adv-x="2545" 
d="M834 -16c-216.667 0 -392.335 68.333 -527.002 205c-135.333 136.667 -203 312.667 -203 528c0 214.667 67.667 390.667 203 528c134.667 136.667 310.334 205 527.001 205c232.667 0 415.334 -83.333 548.001 -250v234h1026v-146h-854v-483h793v-146h-793v-514h871v-145
h-1043v233c-133.333 -166 -316 -249 -548 -249zM441.999 1136c-102 -109.333 -153 -249.002 -153 -419.002s51 -309.667 153 -419c100.667 -108.667 231.334 -163 392.001 -163c161.333 0 292.333 54.333 393 163s151 248.334 151 419.001s-50.333 310.334 -151 419.001
c-100.667 108 -231.667 162 -393 162c-160.667 0 -291.334 -54 -392.001 -162z" />
    <glyph glyph-name="oe" unicode="&#x153;" horiz-adv-x="2088" 
d="M629 -16c-158 0 -286.334 49.334 -385.001 148.001c-100 98 -150 224.667 -150 380c0 154.667 50 281.667 150 381c98.667 98 227 147 385 147c98.667 0 186.334 -20.5 263.001 -61.5s137 -98.833 181 -173.5c42.667 74.667 100 132.5 172 173.5s154.667 61.5 248 61.5
c149.333 0 270.333 -49.333 363 -148s139 -226 139 -382c0 -12 -1.33301 -27.667 -4 -47h-830c5.33301 -100.667 45.333 -182.334 120 -245.001c75.333 -63.333 169.333 -95 282 -95c122 0 218.667 34 290 102l91 -90c-98.667 -101.333 -232 -151.666 -400 -150.999
c-104 0 -196 21.167 -276 63.5s-143 102.166 -189 179.499c-92.667 -162 -242.667 -243 -450 -243zM265.999 512.001c0 -114.667 33.999 -207.999 101.999 -279.999c66.667 -72.667 153.667 -109 261 -109c108 0 195.333 36.333 262 109
c66.667 71.333 100 164.666 100 279.999c0 116.667 -33.333 210.667 -100 282c-67.333 71.333 -154.666 107 -261.999 107c-106.667 0 -193.667 -35.667 -261 -107c-68 -72 -102 -166 -102 -282zM1503 903.002c-92.667 0 -170.334 -29.333 -233.001 -88
c-62 -58.667 -97.667 -135 -107 -229h666c-4 93.333 -36.333 169.333 -97 228c-61.333 59.333 -137.666 89 -228.999 89z" />
    <glyph glyph-name="Racute" unicode="&#x154;" horiz-adv-x="1415" 
d="M338 582l-0.000976562 -582.001h-172v1434h674c128.667 0 233.334 -39.333 314.001 -118c80 -78.667 120 -180.667 120 -306c0 -102 -27.333 -189.333 -82 -262c-54.667 -73.333 -127.667 -122.666 -219 -147.999l368 -600h-190l-356 582h-457zM820.999 1288h-483v-561
h483c83.333 0 151 26.333 203 79c52 53.333 78 121.333 78 204c0 84 -26 151.333 -78 202c-51.333 50.667 -119 76 -203 76zM581.999 1505l-66 66l299 299l98 -98z" />
    <glyph glyph-name="racute" unicode="&#x155;" horiz-adv-x="768" 
d="M317 471v-471.001h-161v1024h161v-272c36.667 90.667 90.167 161.334 160.5 212.001s150.833 76 241.5 76v-155c-118 0 -214.333 -39 -289 -117c-75.333 -78.667 -113 -177.667 -113 -297zM365 1176l-66 65l299 301l98 -98z" />
    <glyph glyph-name="uni0156" unicode="&#x156;" horiz-adv-x="1415" 
d="M338 582l-0.000976562 -582.001h-172v1434h674c128.667 0 233.334 -39.333 314.001 -118c80 -78.667 120 -180.667 120 -306c0 -102 -27.333 -189.333 -82 -262c-54.667 -73.333 -127.667 -122.666 -219 -147.999l368 -600h-190l-356 582h-457zM820.999 1288h-483v-561
h483c83.333 0 151 26.333 203 79c52 53.333 78 121.333 78 204c0 84 -26 151.333 -78 202c-51.333 50.667 -119 76 -203 76zM814.999 -86.001l-110 -320h-97l62 320h145z" />
    <glyph glyph-name="uni0157" unicode="&#x157;" horiz-adv-x="768" 
d="M317 471v-471.001h-161v1024h161v-272c36.667 90.667 90.167 161.334 160.5 212.001s150.833 76 241.5 76v-155c-118 0 -214.333 -39 -289 -117c-75.333 -78.667 -113 -177.667 -113 -297zM205 -406.001h-96l61 320h145z" />
    <glyph glyph-name="Rcaron" unicode="&#x158;" horiz-adv-x="1415" 
d="M166 0l-0.000976562 1434h674c128.667 0 233.334 -39.333 314.001 -118c80 -78.667 120 -180.667 120 -306c0 -102 -27.333 -189.333 -82 -262c-54.667 -73.333 -127.667 -122.666 -219 -147.999l368 -600h-190l-356 582h-457v-582h-172zM820.999 1288h-483v-561h483
c83.333 0 151 26.333 203 79c52 53.333 78 121.333 78 204c0 84 -26 151.333 -78 202c-51.333 50.667 -119 76 -203 76zM986.999 1763l-328 -233l-329 233l84 82l245 -176l248 176z" />
    <glyph glyph-name="rcaron" unicode="&#x159;" horiz-adv-x="768" 
d="M317 471v-471.001h-161v1024h161v-272c36.667 90.667 90.167 161.334 160.5 212.001s150.833 76 241.5 76v-155c-118 0 -214.333 -39 -289 -117c-75.333 -78.667 -113 -177.667 -113 -297zM442 1200l-329 234l84 82l245 -177l246 177l82 -80z" />
    <glyph glyph-name="Sacute" unicode="&#x15a;" horiz-adv-x="1243" 
d="M1133 383c0 -115.333 -47.333 -210.334 -142 -285.001c-95.333 -76 -217.333 -114 -366 -114c-100.667 0 -197 17.667 -289 53s-169.333 84.333 -232 147l91 111c108.667 -106.667 247 -160 415 -160c103.333 0 188.333 22.667 255 68
c65.333 45.333 98 102.666 98 171.999c0 62.667 -27.667 112.667 -83 150c-53.333 36 -139.666 73.333 -258.999 112c-164.667 52.667 -287.334 111.334 -368.001 176.001c-80 64 -120 147.333 -120 250c0 112.667 44 205.667 132 279c88 72 201.667 108 341 108
c94.667 0 185 -17.333 271 -52c86.667 -35.333 157.667 -83 213 -143l-86 -110c-42 46.667 -97.333 84 -166 112c-70 27.333 -141.667 41 -215 41c-94 0 -170.333 -21 -229 -63c-59.333 -43.333 -89 -98.666 -89 -165.999c0 -64 28 -115 84 -153
c56 -38.667 144 -77.667 264 -117c163.333 -55.333 284 -113 362 -173c78.667 -60.667 118 -141.667 118 -243zM471 1571l297 299l100 -98l-331 -267z" />
    <glyph glyph-name="sacute" unicode="&#x15b;" horiz-adv-x="970" 
d="M870 283c0 -90 -35.999 -162.331 -107.999 -216.998c-72.667 -54.667 -169 -82 -289 -82c-149.333 0 -275.666 46.333 -378.999 139l86 96c75.333 -65.333 171.666 -98 288.999 -98c74 0 133.667 14 179 42c44.667 28 67 64.333 67 109c0 29.333 -12 55.666 -36 78.999
c-23.333 22 -50 39.333 -80 52c-31.333 12 -70.666 25.667 -117.999 41c-12 4 -18.667 6.33301 -20 7c-58.667 18.667 -100.334 33 -125.001 43c-30 12 -64 30 -102 54c-75.333 46.667 -113 115.334 -113 206.001c0 85.333 34 154.666 102 207.999c67.333 52 157 78 269 78
c143.333 0 259.333 -44.333 348 -133l-86 -96c-64.667 61.333 -150 92 -256 92c-66.667 0 -120.334 -13 -161.001 -39s-61 -60 -61 -102c0 -30 13.667 -57 41 -81s54.333 -41 81 -51c29.333 -12 70 -26 122 -42c60 -18.667 103.667 -33.334 131 -44.001s63 -29 107 -55
c74.667 -47.333 112 -116 112 -206zM344.001 1241l299 301l98 -98l-331 -268z" />
    <glyph glyph-name="Scircumflex" unicode="&#x15c;" horiz-adv-x="1243" 
d="M1133 383c0 -115.333 -47.333 -210.334 -142 -285.001c-95.333 -76 -217.333 -114 -366 -114c-100.667 0 -197 17.667 -289 53s-169.333 84.333 -232 147l91 111c108.667 -106.667 247 -160 415 -160c103.333 0 188.333 22.667 255 68
c65.333 45.333 98 102.666 98 171.999c0 62.667 -27.667 112.667 -83 150c-53.333 36 -139.666 73.333 -258.999 112c-164.667 52.667 -287.334 111.334 -368.001 176.001c-80 64 -120 147.333 -120 250c0 112.667 44 205.667 132 279c88 72 201.667 108 341 108
c94.667 0 185 -17.333 271 -52c86.667 -35.333 157.667 -83 213 -143l-86 -110c-42 46.667 -97.333 84 -166 112c-70 27.333 -141.667 41 -215 41c-94 0 -170.333 -21 -229 -63c-59.333 -43.333 -89 -98.666 -89 -165.999c0 -64 28 -115 84 -153
c56 -38.667 144 -77.667 264 -117c163.333 -55.333 284 -113 362 -173c78.667 -60.667 118 -141.667 118 -243zM367 1532l-82 82l329 233l328 -233l-82 -82l-246 176z" />
    <glyph glyph-name="scircumflex" unicode="&#x15d;" horiz-adv-x="970" 
d="M870 283c0 -90 -35.999 -162.331 -107.999 -216.998c-72.667 -54.667 -169 -82 -289 -82c-149.333 0 -275.666 46.333 -378.999 139l86 96c75.333 -65.333 171.666 -98 288.999 -98c74 0 133.667 14 179 42c44.667 28 67 64.333 67 109c0 29.333 -12 55.666 -36 78.999
c-23.333 22 -50 39.333 -80 52c-31.333 12 -70.666 25.667 -117.999 41c-12 4 -18.667 6.33301 -20 7c-58.667 18.667 -100.334 33 -125.001 43c-30 12 -64 30 -102 54c-75.333 46.667 -113 115.334 -113 206.001c0 85.333 34 154.666 102 207.999c67.333 52 157 78 269 78
c143.333 0 259.333 -44.333 348 -133l-86 -96c-64.667 61.333 -150 92 -256 92c-66.667 0 -120.334 -13 -161.001 -39s-61 -60 -61 -102c0 -30 13.667 -57 41 -81s54.333 -41 81 -51c29.333 -12 70 -26 122 -42c60 -18.667 103.667 -33.334 131 -44.001s63 -29 107 -55
c74.667 -47.333 112 -116 112 -206zM242.001 1202l-82 82l327 234l330 -234l-82 -82l-248 176z" />
    <glyph glyph-name="Scedilla" unicode="&#x15e;" horiz-adv-x="1243" 
d="M551 -186l23.999 171.998c-190 10.667 -347 76.667 -471 198l91 111c108.667 -106.667 247 -160 415 -160c103.333 0 188.333 22.667 255 68c65.333 45.333 98 102.666 98 171.999c0 62.667 -27.667 112.667 -83 150c-53.333 36 -139.666 73.333 -258.999 112
c-164.667 52.667 -287.334 111.334 -368.001 176.001c-80 64 -120 147.333 -120 250c0 112.667 44 205.667 132 279c88 72 201.667 108 341 108c94.667 0 185 -17.333 271 -52c86.667 -35.333 157.667 -83 213 -143l-86 -110c-42 46.667 -97.333 84 -166 112
c-70 27.333 -141.667 41 -215 41c-94 0 -170.333 -21 -229 -63c-59.333 -43.333 -89 -98.666 -89 -165.999c0 -64 28 -115 84 -153c56 -38.667 144 -77.667 264 -117c163.333 -55.333 284 -113 362 -173c78.667 -60.667 118 -141.667 118 -243
c0 -109.333 -43 -201 -129 -275s-197.333 -114.667 -334 -122l-17 -105c45.333 -5.33301 82 -22.666 110 -51.999s42 -64.333 42 -105c0 -45.333 -16.5 -81.333 -49.5 -108s-76.5 -40 -130.5 -40c-40 0 -78.667 7.83301 -116 23.5s-65.666 36.5 -84.999 62.5l57 62
c32.667 -36 75 -54.667 127 -56c26.667 0 48.667 6 66 18s26 28 26 48c0 24.667 -13.667 44.167 -41 58.5s-63.333 21.5 -108 21.5z" />
    <glyph glyph-name="scedilla" unicode="&#x15f;" horiz-adv-x="970" 
d="M414 -186l24.002 170.001c-132.667 6.66699 -247.334 53 -344.001 139l86 96c75.333 -65.333 171.666 -98 288.999 -98c74 0 133.667 14 179 42c44.667 28 67 64.333 67 109c0 29.333 -12 55.666 -36 78.999c-23.333 22 -50 39.333 -80 52
c-31.333 12 -70.666 25.667 -117.999 41c-12 4 -18.667 6.33301 -20 7c-58.667 18.667 -100.334 33 -125.001 43c-30 12 -64 30 -102 54c-75.333 46.667 -113 115.334 -113 206.001c0 85.333 34 154.666 102 207.999c67.333 52 157 78 269 78
c143.333 0 259.333 -44.333 348 -133l-86 -96c-64.667 61.333 -150 92 -256 92c-66.667 0 -120.334 -13 -161.001 -39s-61 -60 -61 -102c0 -30 13.667 -57 41 -81s54.333 -41 81 -51c29.333 -12 70 -26 122 -42c60 -18.667 103.667 -33.334 131 -44.001s63 -29 107 -55
c74.667 -47.333 112 -116 112 -206c0 -83.333 -30.333 -151.333 -91 -204c-61.333 -53.333 -143.666 -84.333 -246.999 -93l-16 -105c45.333 -5.33301 82 -22.666 110 -51.999s42 -64.333 42 -105c0 -45.333 -16.667 -81.333 -50 -108s-77 -40 -131 -40
c-40 0 -78.833 8 -116.5 24s-65.5 36.667 -83.5 62l57 62c32.667 -36 75 -54.667 127 -56c26.667 0 48.667 6 66 18s26 28 26 48c0 24.667 -13.667 44.167 -41 58.5s-63.333 21.5 -108 21.5z" />
    <glyph glyph-name="Scaron" unicode="&#x160;" horiz-adv-x="1243" 
d="M1133 383c0 -115.333 -47.333 -210.334 -142 -285.001c-95.333 -76 -217.333 -114 -366 -114c-100.667 0 -197 17.667 -289 53s-169.333 84.333 -232 147l91 111c108.667 -106.667 247 -160 415 -160c103.333 0 188.333 22.667 255 68
c65.333 45.333 98 102.666 98 171.999c0 62.667 -27.667 112.667 -83 150c-53.333 36 -139.666 73.333 -258.999 112c-164.667 52.667 -287.334 111.334 -368.001 176.001c-80 64 -120 147.333 -120 250c0 112.667 44 205.667 132 279c88 72 201.667 108 341 108
c94.667 0 185 -17.333 271 -52c86.667 -35.333 157.667 -83 213 -143l-86 -110c-42 46.667 -97.333 84 -166 112c-70 27.333 -141.667 41 -215 41c-94 0 -170.333 -21 -229 -63c-59.333 -43.333 -89 -98.666 -89 -165.999c0 -64 28 -115 84 -153
c56 -38.667 144 -77.667 264 -117c163.333 -55.333 284 -113 362 -173c78.667 -60.667 118 -141.667 118 -243zM860 1845l82 -82l-328 -233l-329 233l82 82l247 -176z" />
    <glyph glyph-name="scaron" unicode="&#x161;" horiz-adv-x="970" 
d="M870 283c0 -90 -35.999 -162.331 -107.999 -216.998c-72.667 -54.667 -169 -82 -289 -82c-149.333 0 -275.666 46.333 -378.999 139l86 96c75.333 -65.333 171.666 -98 288.999 -98c74 0 133.667 14 179 42c44.667 28 67 64.333 67 109c0 29.333 -12 55.666 -36 78.999
c-23.333 22 -50 39.333 -80 52c-31.333 12 -70.666 25.667 -117.999 41c-12 4 -18.667 6.33301 -20 7c-58.667 18.667 -100.334 33 -125.001 43c-30 12 -64 30 -102 54c-75.333 46.667 -113 115.334 -113 206.001c0 85.333 34 154.666 102 207.999c67.333 52 157 78 269 78
c143.333 0 259.333 -44.333 348 -133l-86 -96c-64.667 61.333 -150 92 -256 92c-66.667 0 -120.334 -13 -161.001 -39s-61 -60 -61 -102c0 -30 13.667 -57 41 -81s54.333 -41 81 -51c29.333 -12 70 -26 122 -42c60 -18.667 103.667 -33.334 131 -44.001s63 -29 107 -55
c74.667 -47.333 112 -116 112 -206zM735.001 1516l80 -80l-328 -236l-327 234l82 82l245 -177z" />
    <glyph glyph-name="uni0162" unicode="&#x162;" horiz-adv-x="1380" 
d="M59 1288v146h1262v-146h-545v-1288h-172v1288h-545zM764 -86l-111 -320h-94l62 320h143z" />
    <glyph glyph-name="uni0163" unicode="&#x163;" horiz-adv-x="884" 
d="M248 895l-198.999 0.000976562v129h199v213l162 63v-276h360v-129h-360v-586c0 -54.667 16.333 -99 49 -133s75.667 -51 129 -51c56 0 103.667 19.667 143 59l84 -80c-61.333 -81.333 -146 -121.333 -254 -120c-90.667 0 -165.334 28.333 -224.001 85
c-59.333 57.333 -89 130.666 -89 219.999v606zM590.001 -85.999l-111 -320h-96l61 320h146z" />
    <glyph glyph-name="Tcaron" unicode="&#x164;" horiz-adv-x="1380" 
d="M604 1288h-545v146h1262v-146h-545v-1288h-172v1288zM690 1530l-330 233l84 82l246 -176l248 176l80 -82z" />
    <glyph glyph-name="tcaron" unicode="&#x165;" horiz-adv-x="884" 
d="M248 895l-198.999 0.000976562v129h199v213l162 63v-276h360v-129h-360v-586c0 -54.667 16.333 -99 49 -133s75.667 -51 129 -51c56 0 103.667 19.667 143 59l84 -80c-61.333 -81.333 -146 -121.333 -254 -120c-90.667 0 -165.334 28.333 -224.001 85
c-59.333 57.333 -89 130.666 -89 219.999v606zM848.001 1485l-117 -338h-115l68 338h164z" />
    <glyph glyph-name="Tbar" unicode="&#x166;" horiz-adv-x="1380" 
d="M59 1288v146h1262v-146h-545v-510h275v-106h-275v-672h-172v672h-274v106h274v510h-545z" />
    <glyph glyph-name="tbar" unicode="&#x167;" horiz-adv-x="884" 
d="M410 1300l0.000976562 -275.999h360v-129h-360v-254h317v-106h-317v-226c0 -54.667 16.333 -99 49 -133s75.667 -51 129 -51c56 0 103.667 19.667 143 59l84 -80c-61.333 -81.333 -146 -121.333 -254 -120c-90.667 0 -165.334 28.333 -224.001 85
c-59.333 57.333 -89 130.666 -89 219.999v246h-178v106h178v254h-199v129h199v213z" />
    <glyph glyph-name="Utilde" unicode="&#x168;" horiz-adv-x="1554" 
d="M776 -16c-183.333 0 -332.668 55.667 -448.001 167c-114.667 110.667 -172 259 -172 445v838h172v-838c0 -142 41.333 -254.333 124 -337c82 -82.667 190 -124 324 -124c135.333 0 244.333 41.333 327 124s124 195 124 337v838h172v-838
c0 -186 -57.333 -334.333 -172 -445c-115.333 -111.333 -265.666 -167 -450.999 -167zM577.998 1569l-119.002 0.00390625c0 63.333 19 114.666 57 153.999c38 38 88 57 150 57c26.667 0.666992 52 -4.33301 76 -15s43.167 -22.667 57.5 -36s30 -25.333 47 -36
s32.5 -15.334 46.5 -14.001c24.667 0 44.834 8.66699 60.501 26s23.5 39.666 23.5 66.999h117c0 -62.667 -19.333 -113.334 -58 -152.001c-39.333 -39.333 -89 -59 -149 -59c-46 0 -89.333 16.667 -130 50c-41.333 33.333 -73.666 50 -96.999 50
c-24.667 0 -44.5 -8.33301 -59.5 -25s-22.5 -39 -22.5 -67z" />
    <glyph glyph-name="utilde" unicode="&#x169;" horiz-adv-x="1249" 
d="M156 375l-0.000976562 648.999h161v-616c0 -85.333 25.667 -154.666 77 -207.999c50.667 -52.667 117.334 -79 200.001 -79c100 0 181.333 39 244 117c62.667 76.667 94 174 94 292v494h162v-1024h-162v223c-36.667 -75.333 -88.5 -134 -155.5 -176
s-142.833 -63 -227.5 -63c-116 0 -210.333 36.333 -283 109c-73.333 72 -110 166 -110 282zM423.999 1249l-119 0.00195312c0 63.333 19.667 114.666 59 153.999c38.667 38 88.667 57 150 57c47.333 0 91.666 -16.667 132.999 -50c40.667 -33.333 71.334 -50 92.001 -50
c26 0 46.5 8.33301 61.5 25s22.5 39 22.5 67h119c0 -62.667 -19.333 -113.334 -58 -152.001c-39.333 -39.333 -89 -59 -149 -59c-46 0 -89.667 17 -131 51s-73.333 51 -96 51c-26 0 -46.5 -8.16699 -61.5 -24.5s-22.5 -39.5 -22.5 -69.5z" />
    <glyph glyph-name="Umacron" unicode="&#x16a;" horiz-adv-x="1554" 
d="M776 -16c-183.333 0 -332.668 55.667 -448.001 167c-114.667 110.667 -172 259 -172 445v838h172v-838c0 -142 41.333 -254.333 124 -337c82 -82.667 190 -124 324 -124c135.333 0 244.333 41.333 327 124s124 195 124 337v838h172v-838
c0 -186 -57.333 -334.333 -172 -445c-115.333 -111.333 -265.666 -167 -450.999 -167zM1044 1604h-534v106h534v-106z" />
    <glyph glyph-name="umacron" unicode="&#x16b;" horiz-adv-x="1249" 
d="M156 375l-0.000976562 648.999h161v-616c0 -85.333 25.667 -154.666 77 -207.999c50.667 -52.667 117.334 -79 200.001 -79c100 0 181.333 39 244 117c62.667 76.667 94 174 94 292v494h162v-1024h-162v223c-36.667 -75.333 -88.5 -134 -155.5 -176
s-142.833 -63 -227.5 -63c-116 0 -210.333 36.333 -283 109c-73.333 72 -110 166 -110 282zM355.999 1276v106h537v-106h-537z" />
    <glyph glyph-name="Ubreve" unicode="&#x16c;" horiz-adv-x="1554" 
d="M156 596l-0.00195312 838h172v-838c0 -142 41.333 -254.333 124 -337c82 -82.667 190 -124 324 -124c135.333 0 244.333 41.333 327 124s124 195 124 337v838h172v-838c0 -186 -57.333 -334.333 -172 -445c-115.333 -111.333 -265.666 -167 -450.999 -167
c-183.333 0 -332.666 55.667 -447.999 167c-114.667 110.667 -172 259 -172 445zM456.998 1718l103.999 72c44 -86 115.667 -129 215 -129c101.333 0 173.666 43 216.999 129l105 -72c-71.333 -117.333 -178.666 -176 -321.999 -176
c-141.333 0 -247.666 58.667 -318.999 176z" />
    <glyph glyph-name="ubreve" unicode="&#x16d;" horiz-adv-x="1249" 
d="M156 375l-0.000976562 648.999h161v-616c0 -85.333 25.667 -154.666 77 -207.999c50.667 -52.667 117.334 -79 200.001 -79c100 0 181.333 39 244 117c62.667 76.667 94 174 94 292v494h162v-1024h-162v223c-36.667 -75.333 -88.5 -134 -155.5 -176
s-142.833 -63 -227.5 -63c-116 0 -210.333 36.333 -283 109c-73.333 72 -110 166 -110 282zM841.999 1460l104.001 -69c-72 -118 -179 -177 -321 -177s-249.333 59 -322 177l105 69c47.333 -86 119.666 -129 216.999 -129c98 0 170.333 43 217 129z" />
    <glyph glyph-name="Uring" unicode="&#x16e;" horiz-adv-x="1554" 
d="M156 596l-0.00195312 838h172v-838c0 -142 41.333 -254.333 124 -337c82 -82.667 190 -124 324 -124c135.333 0 244.333 41.333 327 124s124 195 124 337v838h172v-838c0 -186 -57.333 -334.333 -172 -445c-115.333 -111.333 -265.666 -167 -450.999 -167
c-183.333 0 -332.666 55.667 -447.999 167c-114.667 110.667 -172 259 -172 445zM653.998 1563c-30.667 30.667 -46 71.666 -46 122.999c0 50.667 15.333 91.334 46 122.001c31.333 31.333 72 47 122 47c50.667 0 91.667 -15.667 123 -47s47 -72 47 -122
c0 -50.667 -15.667 -91.667 -47 -123s-72.333 -47 -123 -47c-50 0 -90.667 15.667 -122 47zM836.998 1747c-15.333 14.667 -35.666 22 -60.999 22c-24.667 0 -44.334 -7.33301 -59.001 -22c-15.333 -15.333 -23 -35.666 -23 -60.999s7.66699 -45.666 23 -60.999
s35 -23 59 -23s44.333 7.66699 61 23c15.333 15.333 23 35.666 23 60.999s-7.66699 45.666 -23 60.999z" />
    <glyph glyph-name="uring" unicode="&#x16f;" horiz-adv-x="1249" 
d="M156 375l-0.000976562 648.999h161v-616c0 -85.333 25.667 -154.666 77 -207.999c50.667 -52.667 117.334 -79 200.001 -79c100 0 181.333 39 244 117c62.667 76.667 94 174 94 292v494h162v-1024h-162v223c-36.667 -75.333 -88.5 -134 -155.5 -176
s-142.833 -63 -227.5 -63c-116 0 -210.333 36.333 -283 109c-73.333 72 -110 166 -110 282zM622.999 1186c-49.333 0 -89.667 15.667 -121 47s-47 72.333 -47 123c0 50 15.667 91.333 47 124c30.667 32 71 48 121 48c50.667 0 92 -16 124 -48s48 -73.333 48 -124
s-16 -91.667 -48 -123s-73.333 -47 -124 -47zM540.998 1356c0 -24.667 7.83301 -44.834 23.5 -60.501s35.834 -23.5 60.501 -23.5s44.5 7.83301 59.5 23.5s22.5 35.834 22.5 60.501c0 26 -7.5 46.833 -22.5 62.5s-34.833 23.5 -59.5 23.5s-44.834 -7.83301 -60.501 -23.5
s-23.5 -36.5 -23.5 -62.5z" />
    <glyph glyph-name="Uhungarumlaut" unicode="&#x170;" horiz-adv-x="1554" 
d="M776 -16c-183.333 0 -332.668 55.667 -448.001 167c-114.667 110.667 -172 259 -172 445v838h172v-838c0 -142 41.333 -254.333 124 -337c82 -82.667 190 -124 324 -124c135.333 0 244.333 41.333 327 124s124 195 124 337v838h172v-838
c0 -186 -57.333 -334.333 -172 -445c-115.333 -111.333 -265.666 -167 -450.999 -167zM1221 1772l-332 -267l-66 66l299 299zM839.998 1772l-332 -267l-66 66l299 299z" />
    <glyph glyph-name="uhungarumlaut" unicode="&#x171;" horiz-adv-x="1249" 
d="M156 375l-0.000976562 648.999h161v-616c0 -85.333 25.667 -154.666 77 -207.999c50.667 -52.667 117.334 -79 200.001 -79c100 0 181.333 39 244 117c62.667 76.667 94 174 94 292v494h162v-1024h-162v223c-36.667 -75.333 -88.5 -134 -155.5 -176
s-142.833 -63 -227.5 -63c-116 0 -210.333 36.333 -283 109c-73.333 72 -110 166 -110 282zM736.999 1176l-67 65l299 301l98 -98zM355.999 1176l-65 65l297 301l100 -98z" />
    <glyph glyph-name="Uogonek" unicode="&#x172;" horiz-adv-x="1554" 
d="M156 596l0.000976562 838.001h172v-838c0 -142 41.333 -254.333 124 -337c82 -82.667 190 -124 324 -124c135.333 0 244.333 41.333 327 124s124 195 124 337v838h172v-838c0 -158.667 -43 -290.667 -129 -396c-86 -106 -201.333 -173.333 -346 -202
c-36.667 -32.667 -69.334 -74.334 -98.001 -125.001c-20.667 -34.667 -31 -67.334 -31 -98.001c0 -30 8 -53.167 24 -69.5s38 -24.5 66 -24.5c40 0 74.667 13.333 104 40l58 -63c-19.333 -25.333 -46 -45.666 -80 -60.999s-69 -23 -105 -23
c-53.333 0 -96.333 16.667 -129 50s-49 77.333 -49 132c0 86 39 162 117 228c-194 0 -350 54 -468 162c-118 106.667 -177 256.667 -177 450z" />
    <glyph glyph-name="uogonek" unicode="&#x173;" horiz-adv-x="1249" 
d="M156 375l-0.00195312 648.998h161v-616c0 -85.333 25.667 -154.666 77 -207.999c50.667 -52.667 117.334 -79 200.001 -79c100 0 181.333 39 244 117c62.667 76.667 94 174 94 292v494h162v-1024h-25c-30.667 -26 -62 -65 -94 -117c-24.667 -38.667 -37 -74.667 -37 -108
c0 -30 8 -53.167 24 -69.5s38 -24.5 66 -24.5c39.333 0 74.333 13.333 105 40l59 -63c-45.333 -56 -107.333 -84 -186 -84c-52 0 -94.667 16.667 -128 50c-34 33.333 -51 77.333 -51 132c0 44.667 11.667 87.334 35 128.001c22.667 40.667 45.334 69.667 68.001 87l35 29
h-33v223c-36.667 -75.333 -88.5 -134 -155.5 -176s-142.833 -63 -227.5 -63c-116 0 -210.333 36.333 -283 109c-73.333 72 -110 166 -110 282z" />
    <glyph glyph-name="Wcircumflex" unicode="&#x174;" horiz-adv-x="2275" 
d="M725 0h-180l-490 1434h176l404 -1203l416 1203h174l413 -1203l406 1203h176l-491 -1434h-181l-409 1202zM1139 1708l-248 -176l-82 82l330 233l327 -233l-82 -82z" />
    <glyph glyph-name="wcircumflex" unicode="&#x175;" horiz-adv-x="1679" 
d="M406 0l-361 1024h160l280 -815l281 815h147l279 -815l283 815h159l-362 -1024h-152l-280 805l-283 -805h-151zM594 1202l-84 82l330 234l329 -234l-82 -82l-247 176z" />
    <glyph glyph-name="Ycircumflex" unicode="&#x176;" horiz-adv-x="1402" 
d="M614 0v557l-559 877h191l454 -717l459 717h189l-562 -877v-557h-172zM702 1708l-247 -176l-82 82l329 233l328 -233l-82 -82z" />
    <glyph glyph-name="ycircumflex" unicode="&#x177;" horiz-adv-x="1153" 
d="M506 -2l-461 1026h166l371 -842l360 842h166l-533 -1227c-41.333 -92.667 -87.333 -161.5 -138 -206.5s-112.334 -67.5 -185.001 -67.5c-77.333 0 -146.333 27.333 -207 82l84 100c34.667 -27.333 72.334 -41 113.001 -41s76 15.167 106 45.5s60.667 78.833 92 145.5z
M578 1378l-248 -176l-82 82l330 234l327 -234l-82 -82z" />
    <glyph glyph-name="Ydieresis" unicode="&#x178;" horiz-adv-x="1402" 
d="M614 557l-559 877h191l454 -717l459 717h189l-562 -877v-557h-172v557zM1004 1575h-156v188h156v-188zM557 1763v-188h-156v188h156z" />
    <glyph glyph-name="Zacute" unicode="&#x179;" horiz-adv-x="1382" 
d="M1038 1288h-929v146h1171v-95l-948 -1194h960v-145h-1202v94zM547 1571l297 299l100 -98l-332 -267z" />
    <glyph glyph-name="zacute" unicode="&#x17a;" horiz-adv-x="1064" 
d="M745 895h-639v129h867v-84l-654 -811h662v-129h-885v84zM395 1241l299 301l99 -98l-332 -268z" />
    <glyph glyph-name="Zdotaccent" unicode="&#x17b;" horiz-adv-x="1382" 
d="M1038 1288h-929v146h1171v-95l-948 -1194h960v-145h-1202v94zM770 1571h-162v192h162v-192z" />
    <glyph glyph-name="zdotaccent" unicode="&#x17c;" horiz-adv-x="1064" 
d="M745 895h-639v129h867v-84l-654 -811h662v-129h-885v84zM618 1241h-159v193h159v-193z" />
    <glyph glyph-name="Zcaron" unicode="&#x17d;" horiz-adv-x="1382" 
d="M1038 1288h-929v146h1171v-95l-948 -1194h960v-145h-1202v94zM936 1845l82 -82l-328 -233l-330 233l82 82l248 -176z" />
    <glyph glyph-name="zcaron" unicode="&#x17e;" horiz-adv-x="1064" 
d="M745 895h-639v129h867v-84l-654 -811h662v-129h-885v84zM784 1516l82 -80l-327 -236l-330 234l82 82l248 -177z" />
    <glyph glyph-name="uni018F" unicode="&#x18f;" horiz-adv-x="1644" 
d="M1335 189c-134.667 -136.667 -307.001 -205 -517.001 -205c-210.667 0 -381 68 -511 204c-130.667 134.667 -196 311 -196 529c0 23.333 0.666992 43 2 59h1235c-12 154.667 -70.667 280.667 -176 378c-105.333 96 -237.333 144 -396 144c-88.667 0 -171 -15 -247 -45
c-76 -29.333 -137.667 -70.333 -185 -123l-100 107c138 142 319.333 213 544 213c220.667 0 400.334 -68.333 539.001 -205c139.333 -137.333 209 -314 209 -530c0 -214.667 -67 -390 -201 -526zM457.999 274c94.667 -92.667 213.668 -139 357.001 -139
s263.666 46 360.999 138c96 90 152.667 209.333 170 358h-1047c11.333 -146 64.333 -265 159 -357z" />
    <glyph glyph-name="florin" unicode="&#x192;" horiz-adv-x="843" 
d="M-317 -375l102.004 96c31.333 -38 77 -57 137 -57c53.333 0 100.333 18.333 141 55c39.333 36.667 64.666 85.334 75.999 146.001l164 928h-201l23 129h201l43 243c18 100.667 62.333 181.667 133 243c71.333 62 154.666 93 249.999 93c96.667 0 173 -36 229 -108
l-102 -99c-34 44 -80 66 -138 66c-52.667 0 -98.334 -17.333 -137.001 -52c-39.333 -35.333 -64 -80 -74 -134l-45 -252h336l-22 -129h-336l-164 -934c-18 -100.667 -63 -181.334 -135 -242.001c-73.333 -61.333 -158 -92 -254 -92c-96.667 0 -172.334 33.333 -227.001 100z
" />
    <glyph glyph-name="uni01DD" unicode="&#x1dd;" horiz-adv-x="1193" 
d="M98 563l829.999 0.000976562c-4 98 -43.667 179 -119 243c-75.333 63.333 -169.666 95 -282.999 95c-122.667 0 -219.334 -34 -290.001 -102l-91 90c98.667 101.333 232.667 151.666 402 150.999c162 0 294.667 -49.667 398 -149c102 -100 153 -229.667 153 -389
c0 -151.333 -46.333 -275.333 -139 -372c-93.333 -97.333 -213.666 -146 -360.999 -146c-148.667 0 -269.667 49.667 -363 149c-94 99.333 -141 226.333 -141 381c0 10.667 1.33301 27 4 49zM925.999 438.001h-664c2.66699 -93.333 34.667 -169.333 96 -228
c61.333 -59.333 137.333 -89 228 -89c93.333 0 171.333 29.333 234 88s98 135 106 229z" />
    <glyph glyph-name="Aringacute" unicode="&#x1fa;" horiz-adv-x="1587" 
d="M401 365l-162.999 -365.001h-183l631 1397c-44.667 30 -66.334 75.667 -65.001 137c0 50.667 15.667 92 47 124s72.333 48 123 48c36 0 66.667 -8.33301 92 -25l260 263l98 -99l-295 -237c9.33301 -21.333 14.333 -46 15 -74c0 -59.333 -22.667 -105.666 -68 -138.999
l631 -1395h-183l-161 365h-779zM1114 507.999l-323 727l-326 -727h649zM850.001 1597c-14.667 15.333 -34.334 23 -59.001 23s-44.667 -7.66699 -60 -23c-16 -16 -24 -37 -24 -63c0 -24.667 7.83301 -44.834 23.5 -60.501s35.834 -23.5 60.501 -23.5
c24 0 43.5 7.83301 58.5 23.5s22.5 35.834 22.5 60.501c0 26.667 -7.33301 47.667 -22 63z" />
    <glyph glyph-name="aringacute" unicode="&#x1fb;" horiz-adv-x="1165" 
d="M473 -16c-102 0 -185.332 27.332 -249.999 81.999c-65.333 54 -98 123.333 -98 208c0 101.333 47.667 183.666 143 246.999s217.666 95 366.999 95c79.333 0 151 -8 215 -24v94c0 62.667 -26.333 114.334 -79 155.001c-52.667 40 -120 60 -202 60
c-59.333 0 -119.666 -10 -180.999 -30c-62 -21.333 -112 -49 -150 -83l-82 97c46 46 108.667 83.667 188 113c78 28 158 42 240 42c126 0 228.333 -32.333 307 -97c79.333 -65.333 119 -149.666 119 -252.999v-690h-160v201c-36.667 -67.333 -88.334 -120.333 -155.001 -159
s-140.667 -58 -222 -58zM645.001 503.999c-102.667 0 -187 -20 -253 -60c-66 -41.333 -99 -93 -99 -155c0 -50.667 21.667 -92 65 -124s98 -48 164 -48c96.667 0 175.667 34.667 237 104c60.667 68.667 91 152.667 91 252c-56 20.667 -124.333 31 -205 31zM569.001 1186
c-49.333 0 -89.667 15.666 -121 46.999s-47 72.333 -47 123s16 92 48 124c31.333 32 71.333 48 120 48c31.333 0 59.333 -6.33301 84 -19l254 258l101 -98l-287 -231c12 -25.333 18 -52.666 18 -81.999c0 -50.667 -15.667 -91.667 -47 -123s-72.333 -47 -123 -47zM630 1419
c-16.667 15.333 -37.001 23 -61.001 23s-43.667 -7.66699 -59 -23c-15.333 -16.667 -23 -37.667 -23 -63c0 -24.667 7.5 -44.834 22.5 -60.501s34.833 -23.5 59.5 -23.5s44.834 7.83301 60.501 23.5s23.5 35.834 23.5 60.501c0 25.333 -7.66699 46.333 -23 63z" />
    <glyph glyph-name="AEacute" unicode="&#x1fc;" horiz-adv-x="2039" 
d="M444 365l-202 -365h-187l795 1434h1053v-146h-783v-483h721v-146h-721v-514h799v-145h-971v365h-504zM948 508v766l-426 -766h426zM1464 1772l-331 -267l-66 66l299 299z" />
    <glyph glyph-name="aeacute" unicode="&#x1fd;" horiz-adv-x="1933" 
d="M121 274c0 101.333 47.001 183.664 141.001 246.997c94.667 63.333 217 95 367 95c80.667 0 152.334 -8 215.001 -24v94c0 62.667 -26.333 114.334 -79 155.001c-52.667 40 -120 60 -202 60c-130 0 -240.667 -37.667 -332 -113l-79 97c46 46 108.667 83.667 188 113
c78 28 158 42 240 42c85.333 0 160.166 -16.167 224.499 -48.5s112.833 -77.5 145.5 -135.5c90 122.667 218.333 184 385 184c148.667 0 270 -49.333 364 -148c93.333 -99.333 140 -226.666 140 -381.999c0 -12 -1.33301 -27.667 -4 -47h-829
c4 -100 43.667 -181.667 119 -245s169.333 -95 282 -95c120.667 0 217.667 34 291 102l90 -90c-101.333 -101.333 -235.333 -151.666 -402 -150.999c-104.667 0 -197 21.5 -277 64.5s-142.333 103.833 -187 182.5c-44 -78.667 -105.333 -139.5 -184 -182.5
s-168.334 -64.5 -269.001 -64.5c-102 0 -185.333 27.333 -250 82c-65.333 54 -98 123.333 -98 208zM641.001 503.998c-102.667 0 -187 -20 -253 -60c-66 -41.333 -99 -93 -99 -155c0 -50.667 21.667 -92 65 -124c42.667 -32 96.667 -48 162 -48
c97.333 0 176.333 33.333 237 100s91 152 91 256c-55.333 20.667 -123 31 -203 31zM1008 585.998l663.001 -0.000976562c-3.33301 93.333 -35 169.333 -95 228c-61.333 59.333 -137.333 89 -228 89c-92.667 0 -170.334 -29.333 -233.001 -88
c-63.333 -59.333 -99 -135.666 -107 -228.999zM879.002 1176l-66 65l299 301l98 -98z" />
    <glyph glyph-name="Oslashacute" unicode="&#x1fe;" horiz-adv-x="1667" 
d="M104 717c0 215.333 67.666 391.668 202.999 529.001c135.333 136 311 204 527 204c167.333 0 313.333 -43.667 438 -131l133 158l82 -68l-133 -158c139.333 -137.333 209 -315.333 209 -534c0 -216 -68 -392 -204 -528c-136 -136.667 -311 -205 -525 -205
c-167.333 0 -313.666 43.667 -438.999 131l-133 -158l-80 70l131 155c-139.333 135.333 -209 313.666 -209 534.999zM425.999 315.002l739 877c-93.333 70.667 -203.666 106 -330.999 106c-160.667 0 -291.334 -54 -392.001 -162c-102 -109.333 -153 -249 -153 -419
c0 -158.667 45.667 -292.667 137 -402zM1241 1118l-737 -876.002c92 -70 202 -105.667 330 -107c161.333 0 292.333 54.333 393 163s151 248.334 151 419.001c0 162.667 -45.667 296.334 -137 401.001zM759.999 1505l-66 66l299 299l99 -98z" />
    <glyph glyph-name="oslashacute" unicode="&#x1ff;" horiz-adv-x="1257" 
d="M94 512c0 154.667 49.998 281.666 149.998 380.999c98.667 98 227 147 385 147c112.667 0 214.334 -27.333 305.001 -82l84 101l82 -68l-84 -100c98 -95.333 147 -221.666 147 -378.999c0 -155.333 -49.667 -282 -149 -380c-99.333 -98.667 -227.666 -148 -384.999 -148
c-116.667 0 -217.667 27.333 -303 82l-84 -99l-82 68l82 98c-98.667 94.667 -148 221 -148 379zM914.998 771.999l-495 -592.001c59.333 -40.667 129 -61 209 -61c109.333 0 198 36.667 266 110c68 72.667 102 167 102 283c0 100.667 -27.333 187.334 -82 260.001z
M341.998 253.998l496 590c-59.333 40.667 -129 61 -209 61c-110 0 -198.333 -36.333 -265 -109c-68 -73.333 -102 -168 -102 -284c0 -103.333 26.667 -189.333 80 -258zM550.998 1176l-66 65l299 301l99 -98z" />
    <glyph glyph-name="uni0218" unicode="&#x218;" horiz-adv-x="1243" 
d="M1133 383c0 -115.333 -47.333 -210.334 -142 -285.001c-95.333 -76 -217.333 -114 -366 -114c-100.667 0 -197 17.667 -289 53s-169.333 84.333 -232 147l91 111c108.667 -106.667 247 -160 415 -160c103.333 0 188.333 22.667 255 68
c65.333 45.333 98 102.666 98 171.999c0 62.667 -27.667 112.667 -83 150c-53.333 36 -139.666 73.333 -258.999 112c-164.667 52.667 -287.334 111.334 -368.001 176.001c-80 64 -120 147.333 -120 250c0 112.667 44 205.667 132 279c88 72 201.667 108 341 108
c94.667 0 185 -17.333 271 -52c86.667 -35.333 157.667 -83 213 -143l-86 -110c-42 46.667 -97.333 84 -166 112c-70 27.333 -141.667 41 -215 41c-94 0 -170.333 -21 -229 -63c-59.333 -43.333 -89 -98.666 -89 -165.999c0 -64 28 -115 84 -153
c56 -38.667 144 -77.667 264 -117c163.333 -55.333 284 -113 362 -173c78.667 -60.667 118 -141.667 118 -243zM588 -406.001h-96l61 320h145z" />
    <glyph glyph-name="uni0219" unicode="&#x219;" horiz-adv-x="970" 
d="M870 283c0 -90 -35.999 -162.331 -107.999 -216.998c-72.667 -54.667 -169 -82 -289 -82c-149.333 0 -275.666 46.333 -378.999 139l86 96c75.333 -65.333 171.666 -98 288.999 -98c74 0 133.667 14 179 42c44.667 28 67 64.333 67 109c0 29.333 -12 55.666 -36 78.999
c-23.333 22 -50 39.333 -80 52c-31.333 12 -70.666 25.667 -117.999 41c-12 4 -18.667 6.33301 -20 7c-58.667 18.667 -100.334 33 -125.001 43c-30 12 -64 30 -102 54c-75.333 46.667 -113 115.334 -113 206.001c0 85.333 34 154.666 102 207.999c67.333 52 157 78 269 78
c143.333 0 259.333 -44.333 348 -133l-86 -96c-64.667 61.333 -150 92 -256 92c-66.667 0 -120.334 -13 -161.001 -39s-61 -60 -61 -102c0 -30 13.667 -57 41 -81s54.333 -41 81 -51c29.333 -12 70 -26 122 -42c60 -18.667 103.667 -33.334 131 -44.001s63 -29 107 -55
c74.667 -47.333 112 -116 112 -206zM451.001 -405.998h-97l64 320h143z" />
    <glyph glyph-name="uni021A" unicode="&#x21a;" horiz-adv-x="1380" 
d="M59 1288v146h1262v-146h-545v-1288h-172v1288h-545zM764 -86l-111 -320h-94l62 320h143z" />
    <glyph glyph-name="uni021B" unicode="&#x21b;" horiz-adv-x="884" 
d="M248 895l-198.999 0.000976562v129h199v213l162 63v-276h360v-129h-360v-586c0 -54.667 16.333 -99 49 -133s75.667 -51 129 -51c56 0 103.667 19.667 143 59l84 -80c-61.333 -81.333 -146 -121.333 -254 -120c-90.667 0 -165.334 28.333 -224.001 85
c-59.333 57.333 -89 130.666 -89 219.999v606zM590.001 -85.999l-111 -320h-96l61 320h146z" />
    <glyph glyph-name="uni0237" unicode="&#x237;" horiz-adv-x="493" 
d="M-236 -375l84.001 96c41.333 -38 90.666 -57 147.999 -57c53.333 0 96.666 18.667 129.999 56c33.333 38.667 50 87 50 145v1159h162v-1165c0 -100 -30.667 -180.667 -92 -242s-140.666 -92 -237.999 -92c-98.667 0 -180 33.333 -244 100z" />
    <glyph glyph-name="uni0259" unicode="&#x259;" horiz-adv-x="1193" 
d="M98 563l829.999 0.000976562c-4 98 -43.667 179 -119 243c-75.333 63.333 -169.666 95 -282.999 95c-122.667 0 -219.334 -34 -290.001 -102l-91 90c98.667 101.333 232.667 151.666 402 150.999c162 0 294.667 -49.667 398 -149c102 -100 153 -229.667 153 -389
c0 -151.333 -46.333 -275.333 -139 -372c-93.333 -97.333 -213.666 -146 -360.999 -146c-148.667 0 -269.667 49.667 -363 149c-94 99.333 -141 226.333 -141 381c0 10.667 1.33301 27 4 49zM925.999 438.001h-664c2.66699 -93.333 34.667 -169.333 96 -228
c61.333 -59.333 137.333 -89 228 -89c93.333 0 171.333 29.333 234 88s98 135 106 229z" />
    <glyph glyph-name="circumflex" unicode="&#x2c6;" horiz-adv-x="862" 
d="M184 1202l-82 82l330 234l328 -234l-82 -82l-246 176z" />
    <glyph glyph-name="caron" unicode="&#x2c7;" horiz-adv-x="862" 
d="M678 1516l82 -80l-328 -236l-330 234l82 82l248 -177z" />
    <glyph glyph-name="breve" unicode="&#x2d8;" horiz-adv-x="845" 
d="M102 1391l104.999 69c46.667 -86 119 -129 217 -129c97.333 0 169.666 43 216.999 129l102 -69c-71.333 -117.333 -177.666 -176.333 -318.999 -177c-143.333 0.666992 -250.666 59.667 -321.999 177z" />
    <glyph glyph-name="dotaccent" unicode="&#x2d9;" horiz-adv-x="366" 
d="M264 1241h-162v193h162v-193z" />
    <glyph glyph-name="ring" unicode="&#x2da;" horiz-adv-x="544" 
d="M149 1233c-31.333 31.333 -47.001 72.333 -47.001 123s16 92 48 124c30.667 32 70.667 48 120 48c50.667 0 92 -16 124 -48s48 -73.333 48 -124s-16 -91.667 -48 -123s-73.333 -47 -124 -47c-49.333 0 -89.666 15.667 -120.999 47zM187.999 1356
c0 -24.667 8.00098 -44.834 24.001 -60.501s36 -23.5 60 -23.5c23.333 0 42.833 7.83301 58.5 23.5s23.5 35.834 23.5 60.501c0 26 -7.66699 46.833 -23 62.5s-35 23.5 -59 23.5c-24.667 0 -44.834 -7.83301 -60.501 -23.5s-23.5 -36.5 -23.5 -62.5z" />
    <glyph glyph-name="ogonek" unicode="&#x2db;" horiz-adv-x="567" 
d="M205 -29l34.999 28.999h104c-30.667 -26 -62 -65 -94 -117c-24.667 -38.667 -37 -74.667 -37 -108c0 -30 8 -53.167 24 -69.5s38 -24.5 66 -24.5c39.333 0 74.333 13.333 105 40l57 -63c-19.333 -26 -45.833 -46.5 -79.5 -61.5s-68.5 -22.5 -104.5 -22.5
c-53.333 0 -96.5 16.667 -129.5 50s-49.5 77.333 -49.5 132c0 44.667 11.667 87.334 35 128.001c22.667 40.667 45.334 69.667 68.001 87z" />
    <glyph glyph-name="tilde" unicode="&#x2dc;" horiz-adv-x="841" 
d="M401 1281c-41.333 33.333 -73.999 50.0029 -97.999 50.0029s-43.667 -7.66699 -59 -23c-15.333 -16.667 -23 -39.667 -23 -69h-119c0 63.333 19.667 114.666 59 153.999c39.333 38 88.666 57 147.999 57c26.667 1.33301 52 -3.33398 76 -14.001s43.167 -22.5 57.5 -35.5
s30.166 -24.833 47.499 -35.5s33 -15.667 47 -15c24.667 0 44.834 8.5 60.501 25.5s23.5 39.167 23.5 66.5h118c0 -62.667 -19.333 -113.334 -58 -152.001c-39.333 -39.333 -89 -59 -149 -59c-46 0 -89.667 16.667 -131 50z" />
    <glyph glyph-name="hungarumlaut" unicode="&#x2dd;" horiz-adv-x="976" 
d="M98 1241l299 301l101 -98l-332 -268zM479 1241l299 301l99 -98l-332 -268z" />
    <glyph glyph-name="uni0400" unicode="&#x400;" horiz-adv-x="1337" 
d="M1212 0h-1042v1434h1026v-146h-854v-483h793v-146h-793v-514h870v-145zM831 1571l-65 -66l-332 267l98 98z" />
    <glyph glyph-name="uni0401" unicode="&#x401;" horiz-adv-x="1337" 
d="M1212 0h-1042v1434h1026v-146h-854v-483h793v-146h-793v-514h870v-145zM834 1575v188h155v-188h-155zM389 1575v188h156v-188h-156z" />
    <glyph glyph-name="uni0402" unicode="&#x402;" horiz-adv-x="1763" 
d="M63 1288l0.000976562 146.002h1262v-146h-545v-512c107.333 64 236.666 96 387.999 96c150.667 0 272.667 -42.667 366 -128c92.667 -84.667 139 -198.334 139 -341.001c0 -125.333 -35.333 -226.333 -106 -303c-71.333 -77.333 -164.333 -116 -279 -116
c-105.333 0 -191.333 33.333 -258 100l84 96c41.333 -38 92.666 -57 153.999 -57c70.667 0 127.334 24 170.001 72c42 47.333 63 110.666 63 189.999c0 102.667 -34.667 185 -104 247c-70 62 -161.667 93 -275 93c-129.333 0 -243.333 -32.667 -342 -98v-627h-172v1288h-545
z" />
    <glyph glyph-name="uni0403" unicode="&#x403;" horiz-adv-x="1204" 
d="M170 0v1434h971v-146h-799v-1288h-172zM510 1571l299 299l98 -98l-332 -267z" />
    <glyph glyph-name="uni0404" unicode="&#x404;" horiz-adv-x="1452" 
d="M836 -16c-216.667 0 -391.334 68.0039 -524.001 204.004c-134 135.333 -201 311.666 -201 528.999c0 215.333 67 391.666 201 528.999c133.333 136 307.333 204 522 204s391.334 -71 530.001 -213l-102 -107c-44.667 51.333 -104.334 92.666 -179.001 123.999
c-74 30.667 -153 46 -237 46c-149.333 0 -273.666 -46.333 -372.999 -139c-100.667 -92.667 -159.334 -213.334 -176.001 -362.001h838v-146h-840c14.667 -154.667 72.334 -279.667 173.001 -375s226.667 -143 378 -143c84.667 0 164 15 238 45
c74 30.667 133.333 71.667 178 123l102 -106c-138.667 -142 -314.667 -213 -528 -213z" />
    <glyph glyph-name="uni0405" unicode="&#x405;" horiz-adv-x="1253" 
d="M1139 383c0 -114.667 -47.6689 -209.668 -143.002 -285.001c-96 -76 -218.333 -114 -367 -114c-100 0 -196 17.667 -288 53c-90 34.667 -166.667 83.667 -230 147l90 111c106.667 -106.667 244.334 -160 413.001 -160c103.333 0 188.333 22.667 255 68
c65.333 45.333 98 102.666 98 171.999c0 62.667 -27.667 112.667 -83 150c-53.333 36 -139.666 73.333 -258.999 112c-163.333 52.667 -285.333 111.334 -366 176.001c-80 64 -120 147.333 -120 250c0 112.667 43.667 205.667 131 279c86.667 72 200 108 340 108
c93.333 0 184 -17.667 272 -53c86.667 -36 158 -83.333 214 -142l-88 -110c-41.333 46.667 -96.333 84 -165 112c-68.667 27.333 -140 41 -214 41c-94 0 -170.667 -21 -230 -63c-60 -43.333 -90 -98.666 -90 -165.999c0 -64 28 -115 84 -153
c56 -38.667 144.667 -77.667 266 -117c163.333 -55.333 284 -113 362 -173c78.667 -60.667 118 -141.667 118 -243z" />
    <glyph glyph-name="uni0406" unicode="&#x406;" horiz-adv-x="514" 
d="M342 1434v-1434h-172v1434h172z" />
    <glyph glyph-name="uni0407" unicode="&#x407;" horiz-adv-x="514" 
d="M342 1434v-1434h-172v1434h172zM557 1763v-188h-156v188h156zM-43 1575v188h156v-188h-156z" />
    <glyph glyph-name="uni0408" unicode="&#x408;" horiz-adv-x="1159" 
d="M827 498v936h172v-936c0 -154 -48.333 -278 -145 -372c-96.667 -94.667 -223 -142 -379 -142c-158 0 -288.333 50.333 -391 151l100 113c68 -75.333 162.333 -113 283 -113c106 0 192.333 34 259 102c67.333 67.333 101 154.333 101 261z" />
    <glyph glyph-name="uni0409" unicode="&#x409;" horiz-adv-x="2373" 
d="M188 -16c-51.333 0 -94.335 8.66699 -129.002 26l31 129c15.333 -9.33301 37.333 -14 66 -14c29.333 0 54.333 7.66699 75 23c19.333 15.333 39.333 48.666 60 99.999c21.333 52 37.333 124.333 48 217c26.667 214.667 40 537.667 40 969h989v-584h483
c128 0 232.333 -39.667 313 -119c80 -79.333 120 -181.666 120 -306.999s-40 -227.333 -120 -306c-79.333 -78.667 -183.666 -118 -312.999 -118h-655v1288h-651c0 -276 -6.66699 -503.667 -20 -683c-14 -176.667 -37.333 -309 -70 -397
c-33.333 -90 -69.666 -149.667 -108.999 -179c-40 -30 -92.667 -45 -158 -45zM1833 705h-465v-560h465c83.333 0 150.666 25.667 201.999 77c50.667 50.667 76 118 76 202s-25.333 151.667 -76 203c-51.333 52 -118.666 78 -201.999 78z" />
    <glyph glyph-name="uni040A" unicode="&#x40a;" horiz-adv-x="2385" 
d="M342 680v-680h-172v1434h172v-611h856v611h172v-611h492c128 0 232.667 -38 314 -114c80 -76.667 120 -175.667 120 -297c0 -122 -40.333 -221 -121 -297c-80.667 -76.667 -185 -115 -313 -115h-664v680h-856zM1843 680h-473.001v-535h473
c82.667 0 150.334 24.667 203.001 74c52 48.667 78 113 78 193c0 78.667 -26 143 -78 193s-119.667 75 -203 75z" />
    <glyph glyph-name="uni040B" unicode="&#x40b;" horiz-adv-x="1828" 
d="M608 1288h-545v146h1262v-146h-545v-512c106.667 64 238.667 96 396 96c150 0 270.333 -39.333 361 -118s136 -188.667 136 -330v-424h-172v381c0 110.667 -33.667 195.667 -101 255c-68.667 59.333 -160 89 -274 89c-132 0 -247.333 -32.667 -346 -98v-627h-172v1288z
" />
    <glyph glyph-name="uni040C" unicode="&#x40c;" horiz-adv-x="1374" 
d="M170 0v1434h172v-629h231l502 629h203l-555 -699l582 -735h-201l-533 659h-229v-659h-172zM614 1505l-65 66l299 299l98 -98z" />
    <glyph glyph-name="uni040D" unicode="&#x40d;" horiz-adv-x="1599" 
d="M342 0h-172v1434h172v-1176l918 1176h170v-1434h-173v1171zM944 1571l-65 -66l-334 267l98 98z" />
    <glyph glyph-name="uni040E" unicode="&#x40e;" horiz-adv-x="1447" 
d="M666 432l-606.999 1002h189l504 -834l452 834h185l-637 -1180c-97.333 -180 -218.333 -270 -363 -270c-110 0 -200.667 36.667 -272 110l96 107c48 -44 105.333 -66 172 -66c40.667 0 77.667 13.667 111 41s68.666 74.333 105.999 141zM725.001 1542
c-88 0 -159.668 25.334 -215.001 76.001c-56 51.333 -84 117 -84 197h129c0 -46.667 15.667 -84 47 -112s73 -42 125 -42c50.667 0 91.667 14.167 123 42.5s47 65.5 47 111.5h129c0 -80.667 -28 -146.334 -84 -197.001c-55.333 -50.667 -127.666 -76 -216.999 -76z" />
    <glyph glyph-name="uni040F" unicode="&#x40f;" horiz-adv-x="1585" 
d="M713 0h-543v1434h172v-1289h901v1289h172v-1434h-543v-338h-159v338z" />
    <glyph glyph-name="uni0410" unicode="&#x410;" horiz-adv-x="1587" 
d="M242 0h-183l648 1434h176l645 -1434h-182l-162 365h-778zM1118 508l-323 727l-326 -727h649z" />
    <glyph glyph-name="uni0411" unicode="&#x411;" horiz-adv-x="1370" 
d="M856 0l-686.001 -0.000976562v1434h995v-146h-823v-438h514c128 0 232.333 -39.667 313 -119c79.333 -79.333 119 -181.666 119 -306.999c0 -124.667 -39.667 -226.667 -119 -306c-79.333 -78.667 -183.666 -118 -312.999 -118zM837.999 704.999h-496v-560h496
c83.333 0 150.666 25.667 201.999 77c50.667 50.667 76 118 76 202s-25.333 151.667 -76 203c-51.333 52 -118.666 78 -201.999 78z" />
    <glyph glyph-name="uni0412" unicode="&#x412;" horiz-adv-x="1431" 
d="M928 0l-757.999 0.00195312v1434h725c107.333 0 195.666 -33 264.999 -99c68 -67.333 102 -153.333 102 -258c0 -73.333 -17.667 -138.333 -53 -195s-83.333 -99.334 -144 -128.001c78 -22 141 -65.667 189 -131c47.333 -66.667 71 -145.334 71 -236.001
c0 -113.333 -36.667 -206 -110 -278c-73.333 -72.667 -169 -109 -287 -109zM870.001 670.002h-528v-531h528c81.333 0 147.666 25 198.999 75c50.667 50 76 114.667 76 194c0 78 -25.333 141.333 -76 190c-51.333 48 -117.666 72 -198.999 72zM342.001 1294v-479h500
c72.667 0 131.334 22.333 176.001 67c44.667 44 67 101.667 67 173c0 70 -22.333 127.333 -67 172s-103.334 67 -176.001 67h-500z" />
    <glyph glyph-name="uni0413" unicode="&#x413;" horiz-adv-x="1204" 
d="M170 0v1434h971v-146h-799v-1288h-172z" />
    <glyph glyph-name="uni0414" unicode="&#x414;" horiz-adv-x="1695" 
d="M242 -338h-172v483h174c49.333 48 86.333 167.333 111 358c24 190 36 500.333 36 931h1024v-1289h211v-483h-162v338h-1222v-338zM440 145h803v1143h-686c0 -586 -39 -967 -117 -1143z" />
    <glyph glyph-name="uni0415" unicode="&#x415;" horiz-adv-x="1337" 
d="M170 0v1434h1026v-146h-854v-483h793v-146h-793v-514h870v-145h-1042z" />
    <glyph glyph-name="uni0416" unicode="&#x416;" horiz-adv-x="2054" 
d="M762 659l-490 -659h-202l546 735l-518 699h201l461 -629h180v629h172v-629h180l463 629h201l-520 -699l549 -735h-203l-490 659h-180v-659h-172v659h-178z" />
    <glyph glyph-name="uni0417" unicode="&#x417;" horiz-adv-x="1316" 
d="M618 135c118.667 0 215.998 25.9971 291.998 77.9971s114 121.667 114 209c0 71.333 -25.333 130.333 -76 177c-51.333 47.333 -117.333 71 -198 71h-314v145h291c74 0 134.667 22 182 66c46.667 42.667 70 96.334 70 161.001c0 78.667 -33.333 141.334 -100 188.001
s-152.667 70 -258 70c-83.333 0 -163 -15.667 -239 -47c-73.333 -30.667 -133.666 -73 -180.999 -127l-103 107c140.667 144.667 319.667 217 537 217c152.667 0 277.667 -34.667 375 -104c96.667 -70 145 -162.333 145 -277c0 -68.667 -18.333 -131.334 -55 -188.001
c-37.333 -57.333 -86.666 -99.666 -147.999 -126.999c76.667 -22 138.334 -65.333 185.001 -130c46 -65.333 69 -139.666 69 -222.999c0 -125.333 -53 -226 -159 -302c-106.667 -76.667 -244 -115 -412 -115c-228.667 0 -410.334 73 -545.001 219l100 106
c46 -54 106.667 -96.333 182 -127c76 -31.333 158 -47 246 -47z" />
    <glyph glyph-name="uni0418" unicode="&#x418;" horiz-adv-x="1599" 
d="M342 0h-172v1434h172v-1176l918 1176h170v-1434h-173v1171z" />
    <glyph glyph-name="uni0419" unicode="&#x419;" horiz-adv-x="1599" 
d="M170 0v1434h172v-1176l918 1176h170v-1434h-173v1171l-915 -1171h-172zM502 1815l126.999 0.000976562c0 -46.667 15.667 -84 47 -112s73 -42 125 -42s93.667 14 125 42s47 65.333 47 112h129c0 -80.667 -28 -146.334 -84 -197.001
c-55.333 -50.667 -127.666 -76 -216.999 -76s-161.333 25.333 -216 76c-55.333 51.333 -83 117 -83 197z" />
    <glyph glyph-name="uni041A" unicode="&#x41a;" horiz-adv-x="1374" 
d="M170 0v1434h172v-629h231l502 629h203l-555 -699l582 -735h-201l-533 659h-229v-659h-172z" />
    <glyph glyph-name="uni041B" unicode="&#x41b;" horiz-adv-x="1568" 
d="M379 1434l1020 0.000976562v-1434h-172v1288h-682c0 -276 -6.66699 -503.667 -20 -683c-14 -176.667 -37.333 -309 -70 -397c-33.333 -89.333 -69.333 -149 -108 -179c-40 -30 -93 -45 -159 -45c-51.333 0 -94.333 8.66699 -129 26l31 129
c15.333 -9.33301 37.333 -14 66 -14c29.333 0 54.333 7.66699 75 23c19.333 15.333 39.333 48.666 60 99.999c21.333 52 37.333 124.333 48 217c26.667 214.667 40 537.667 40 969z" />
    <glyph glyph-name="uni041C" unicode="&#x41c;" horiz-adv-x="1865" 
d="M170 0v1434h223l539 -1061l541 1061h221v-1434h-166v1184l-531 -1043h-129l-530 1043v-1184h-168z" />
    <glyph glyph-name="uni041D" unicode="&#x41d;" horiz-adv-x="1591" 
d="M342 0h-172v1434h172v-631h905v631h172v-1434h-172v659h-905v-659z" />
    <glyph glyph-name="uni041E" unicode="&#x41e;" horiz-adv-x="1677" 
d="M314 189c-135.333 136.667 -203.001 312.667 -203.001 528c0 214.667 67.667 390.667 203 528c134.667 136.667 309.334 205 524.001 205c216.667 0 392.334 -68.333 527.001 -205s202 -312.667 202 -528s-67.667 -391.333 -203 -528
c-134.667 -136.667 -310 -205 -526 -205c-214.667 0 -389.334 68.333 -524.001 205zM445.999 1136c-102 -109.333 -153 -249 -153 -419s51 -309.667 153 -419c100.667 -108.667 231.334 -163 392.001 -163c162 0 293.333 54.333 394 163c101.333 109.333 152 249 152 419
s-50.667 309.667 -152 419c-102 108 -233.333 162 -394 162s-291.334 -54 -392.001 -162z" />
    <glyph glyph-name="uni041F" unicode="&#x41f;" horiz-adv-x="1591" 
d="M342 0h-172v1434h1249v-1434h-172v1288h-905v-1288z" />
    <glyph glyph-name="uni0420" unicode="&#x420;" horiz-adv-x="1343" 
d="M342 582v-581.999h-172v1434h661c126.667 0 230.667 -39.667 312 -119c80.667 -78.667 121 -180.334 121 -305.001c0 -125.333 -40.333 -228 -121 -308s-184.667 -120 -312 -120h-489zM342 1288l0.000976562 -560.999h471c83.333 0 150.666 26 201.999 78
c51.333 52.667 77 121 77 205c0 83.333 -25.667 150.666 -77 201.999c-50.667 50.667 -118 76 -202 76h-471z" />
    <glyph glyph-name="uni0421" unicode="&#x421;" horiz-adv-x="1452" 
d="M1262 303l102.001 -105.998c-138.667 -142 -314.667 -213 -528 -213c-216.667 0 -391.334 68 -524.001 204c-134 135.333 -201 311.666 -201 528.999c0 215.333 67 391.666 201 528.999c133.333 136 307.333 204 522 204s391.334 -71 530.001 -213l-102 -107
c-44.667 51.333 -104.334 92.666 -179.001 123.999c-74 30.667 -153 46 -237 46c-162.667 0 -295.334 -54 -398.001 -162c-103.333 -109.333 -155 -249 -155 -419c0 -171.333 51.667 -311.666 155 -420.999c102.667 -108.667 235.334 -163 398.001 -163
c84.667 0 164 15 238 45c74 30.667 133.333 71.667 178 123z" />
    <glyph glyph-name="uni0422" unicode="&#x422;" horiz-adv-x="1390" 
d="M63 1288v146h1262v-146h-545v-1288h-172v1288h-545z" />
    <glyph glyph-name="uni0423" unicode="&#x423;" horiz-adv-x="1447" 
d="M602 317l64.001 115l-607 1002h189l504 -834l452 834h185l-637 -1180c-97.333 -180 -218.333 -270 -363 -270c-110 0 -200.667 36.667 -272 110l96 107c48 -44 105.333 -66 172 -66c40.667 0 77.667 13.667 111 41s68.666 74.333 105.999 141z" />
    <glyph glyph-name="uni0424" unicode="&#x424;" horiz-adv-x="1724" 
d="M296 300c-123.333 107.333 -184.999 246.333 -184.999 417s62 310 186 418c124.667 107.333 285 161 481 161v154h168v-154c197.333 0 358.666 -53.667 483.999 -161c124 -108 186 -247.333 186 -418c0 -171.333 -62 -310.333 -186 -417
c-126 -108 -287.333 -162.333 -484 -163v-153h-168v153c-197.333 0.666992 -358 55 -482 163zM946.001 1149v-864c145.333 0.666992 263.333 41.667 354 123c90.667 80 136 183 136 309c0 125.333 -45.333 228.333 -136 309c-90.667 81.333 -208.667 122.333 -354 123z
M426.001 1026c-91.333 -81.333 -137 -184.333 -137 -309c0 -126 45.667 -229 137 -309c90.667 -80.667 208 -121.667 352 -123v864c-144 -1.33301 -261.333 -42.333 -352 -123z" />
    <glyph glyph-name="uni0425" unicode="&#x425;" horiz-adv-x="1484" 
d="M739 612l-465 -612h-204l563 731l-537 703h205l438 -584l443 584h207l-541 -703l567 -731h-207z" />
    <glyph glyph-name="uni0426" unicode="&#x426;" horiz-adv-x="1683" 
d="M1452 0h-1282v1434h172v-1289h891v1289h172v-1289h209v-483h-162v338z" />
    <glyph glyph-name="uni0427" unicode="&#x427;" horiz-adv-x="1441" 
d="M125 991l0.00195312 443.001h172v-400c0 -110.667 37.333 -196.334 112 -257.001c73.333 -60.667 173.333 -91 300 -91c151.333 0 281.666 37 390.999 111v637h172v-1434h-172v637c-116 -68 -260.667 -102 -434 -102c-162.667 0 -293.334 40.333 -392.001 121
c-99.333 80 -149 191.667 -149 335z" />
    <glyph glyph-name="uni0428" unicode="&#x428;" horiz-adv-x="2258" 
d="M2087 1434v-1434h-1917v1434h172v-1289h700v1289h172v-1289h701v1289h172z" />
    <glyph glyph-name="uni0429" unicode="&#x429;" horiz-adv-x="2367" 
d="M170 0v1434h172v-1289h700v1289h172v-1289h701v1289h172v-1289h211v-483h-162v338h-1966z" />
    <glyph glyph-name="uni042A" unicode="&#x42a;" horiz-adv-x="1755" 
d="M547 1294l-484 -0.000976562v140h656v-584h514c128 0 232.333 -39.667 313 -119c79.333 -79.333 119 -181.666 119 -306.999s-40 -227.333 -120 -306c-79.333 -78.667 -183.333 -118 -312 -118h-686v1294zM1214 704.999h-494.999v-560h495
c83.333 0 150.666 25.667 201.999 77s77 118.666 77 201.999c0 82.667 -25.667 150.334 -77 203.001c-50.667 52 -118 78 -202 78z" />
    <glyph glyph-name="uni042B" unicode="&#x42b;" horiz-adv-x="1878" 
d="M856 0l-686.001 -0.000976562v1434h172v-584h514c128 0 232.333 -39.667 313 -119c79.333 -79.333 119 -181.666 119 -306.999c0 -124.667 -39.667 -226.667 -119 -306c-79.333 -78.667 -183.666 -118 -312.999 -118zM341.999 704.999v-560h496
c83.333 0 150.666 25.667 201.999 77c50.667 50.667 76 118 76 202s-25.333 151.667 -76 203c-51.333 52 -118.666 78 -201.999 78h-496zM1534 -0.000976562v1434h172v-1434h-172z" />
    <glyph glyph-name="uni042C" unicode="&#x42c;" horiz-adv-x="1378" 
d="M856 0l-686.001 -0.000976562v1434h172v-584h514c128 0 232.333 -39.667 313 -119c79.333 -79.333 119 -181.666 119 -306.999c0 -124.667 -39.667 -226.667 -119 -306c-79.333 -78.667 -183.666 -118 -312.999 -118zM341.999 704.999v-560h496
c83.333 0 150.666 25.667 201.999 77c50.667 50.667 76 118 76 202s-25.333 151.667 -76 203c-51.333 52 -118.666 78 -201.999 78h-496z" />
    <glyph glyph-name="uni042D" unicode="&#x42d;" horiz-adv-x="1452" 
d="M190 1130l-100 107c138 142 314.333 213 529 213c214 0 388.333 -68.333 523 -205c134 -136.667 201 -312.667 201 -528c0 -216 -67 -392 -201 -528c-134.667 -136.667 -309 -205 -523 -205c-214.667 0 -391 71 -529 213l100 106c46.667 -52 107 -93 181 -123
s153 -45 237 -45c150.667 0 276.667 47.667 378 143c101.333 94.667 158.333 219.667 171 375h-776v146h774c-16.667 148 -74.667 268.667 -174 362c-99.333 92.667 -223.666 139 -372.999 139c-84 0 -162.667 -15.333 -236 -46c-74.667 -30.667 -135.334 -72 -182.001 -124
z" />
    <glyph glyph-name="uni042E" unicode="&#x42e;" horiz-adv-x="2230" 
d="M342 0l-171.999 0.000976562v1434h172v-631h369c18 193.333 90.667 349.666 218 468.999c126.667 118.667 288 178 484 178c208.667 0 379 -68.333 511 -205s198 -312.667 198 -528c0 -216 -66 -392 -198 -528c-132 -136.667 -302.333 -205 -511 -205
c-200.667 0 -365.334 62.333 -494.001 187c-129.333 125.333 -199.333 288 -210 488h-367v-659zM1037 1136c-98.667 -108.667 -148.001 -248.334 -148.001 -419.001s49.333 -310.334 148 -419.001c98 -108.667 223.333 -163 376 -163c156 0 282.333 54.333 379 163
s145 248.334 145 419.001s-48.333 310.334 -145 419.001c-97.333 108 -223.666 162 -378.999 162c-152.667 0 -278 -54 -376 -162z" />
    <glyph glyph-name="uni042F" unicode="&#x42f;" horiz-adv-x="1409" 
d="M629 588l-346 -588.001h-191l352 596c-100.667 18.667 -181.667 66.334 -243 143.001c-61.333 75.333 -92 166.333 -92 273c0 124 40.333 225.333 121 304c79.333 78.667 183 118 311 118h696v-1434h-172v588h-436zM281 1014c0 -82.667 25.999 -150.668 77.999 -204.001
c50.667 -52.667 117.334 -79 200.001 -79h506v557h-506c-82 0 -148.667 -25 -200 -75c-52 -51.333 -78 -117.666 -78 -198.999z" />
    <glyph glyph-name="uni0430" unicode="&#x430;" horiz-adv-x="1165" 
d="M125 274c0 101.333 47.668 183.665 143.001 246.998s217.666 95 366.999 95c79.333 0 151 -8 215 -24v94c0 62.667 -26.333 114.334 -79 155.001c-52.667 40 -120 60 -202 60c-59.333 0 -119.666 -10 -180.999 -30c-62 -21.333 -112 -49 -150 -83l-82 97
c46 46 108.667 83.667 188 113c78 28 158 42 240 42c126 0 228.333 -32.333 307 -97c79.333 -65.333 119 -149.666 119 -252.999v-690h-160v201c-36.667 -67.333 -88.334 -120.333 -155.001 -159s-140.667 -58 -222 -58c-102 0 -185.333 27.333 -250 82
c-65.333 54 -98 123.333 -98 208zM645.001 503.999c-102.667 0 -187 -20 -253 -60c-66 -41.333 -99 -93 -99 -155c0 -50.667 21.667 -92 65 -124s98 -48 164 -48c96.667 0 175.667 34.667 237 104c60.667 68.667 91 152.667 91 252c-56 20.667 -124.333 31 -205 31z" />
    <glyph glyph-name="uni0431" unicode="&#x431;" horiz-adv-x="1275" 
d="M1178 518c0 -158 -48.668 -286.666 -146.001 -385.999c-98 -98.667 -224.333 -148 -379 -148c-163.333 0 -294.666 60 -393.999 180c-98.667 119.333 -148 303.666 -148 552.999c0 468 182.667 717 548 747l424 37l13 -162l-379 -30c-164.667 -13.333 -285 -67 -361 -161
s-110.667 -231 -104 -411c22.667 90 74.334 163 155.001 219c79.333 56 171.666 84 276.999 84c144 0 262.667 -48.667 356 -146c92 -98 138 -223.333 138 -376zM405.999 792.001c-64.667 -72.667 -97 -166 -97 -280c0 -113.333 32.333 -206.333 97 -279
c64 -73.333 147.667 -110 251 -110c102.667 0 186.667 36.667 252 110c64.667 72.667 97 165.667 97 279c0 114 -32.333 207.333 -97 280s-148 109 -250 109c-104 0 -188.333 -36.333 -253 -109z" />
    <glyph glyph-name="uni0432" unicode="&#x432;" horiz-adv-x="1167" 
d="M766 0l-605.999 -0.000976562v1024h575c83.333 0 150.666 -24 201.999 -72c51.333 -49.333 77 -112 77 -188c0 -107.333 -46.667 -184.666 -140 -231.999c58 -18 104 -49.833 138 -95.5s51 -99.167 51 -160.5c0 -82 -27.333 -148.333 -82 -199
c-55.333 -51.333 -127 -77 -215 -77zM715.001 466.999l-393.001 -0.000976562v-338h401c53.333 0 96.333 15.667 129 47s49 72.333 49 123s-16.667 91.334 -50 122.001s-78.666 46 -135.999 46zM682 894.998l-360 -0.000976562v-311h360c52 0 93.333 14 124 42
s46 65.667 46 113c0 46.667 -15.667 84.334 -47 113.001s-72.333 43 -123 43z" />
    <glyph glyph-name="uni0433" unicode="&#x433;" horiz-adv-x="923" 
d="M160 1024h708v-129h-546v-895h-162v1024z" />
    <glyph glyph-name="uni0434" unicode="&#x434;" horiz-adv-x="1411" 
d="M219 -317l-149.001 0.000976562v446h168c74.667 109.333 111.334 407.666 110.001 894.999h795v-895h198v-446h-149v317h-973v-317zM407.999 129.001h573v766h-483c0 -364.667 -30 -620 -90 -766z" />
    <glyph glyph-name="uni0435" unicode="&#x435;" horiz-adv-x="1202" 
d="M1100 463l-829.998 -0.000976562c4 -100 43.667 -181.667 119 -245s169.666 -95 282.999 -95c121.333 0 218.333 34 291 102l90 -90c-98.667 -101.333 -232.667 -151.666 -402 -150.999c-164.667 0 -297.334 50 -398.001 150c-102 98.667 -153 228.667 -153 390
c0 150.667 46.667 274.667 140 372c93.333 96 213.333 144 360 144c148.667 0 270 -49 364 -147c93.333 -99.333 140 -227 140 -383c0 -12 -1.33301 -27.667 -4 -47zM272.002 585.999l663.999 -0.000976562c-2.66699 94 -34 170.333 -94 229
c-59.333 58.667 -135.666 88 -228.999 88s-171.333 -29.333 -234 -88c-63.333 -59.333 -99 -135.666 -107 -228.999z" />
    <glyph glyph-name="uni0436" unicode="&#x436;" horiz-adv-x="1628" 
d="M602 463l-344 -463h-188l395 532l-369 492h178l322 -432h137v432h162v-432h139l320 432h180l-369 -492l396 -532h-191l-344 463h-131v-463h-162v463h-131z" />
    <glyph glyph-name="uni0437" unicode="&#x437;" horiz-adv-x="1034" 
d="M475 121c87.333 0 158.331 17.334 212.998 52.001s82 80 82 136c0 46.667 -19 85 -57 115c-39.333 30 -89.333 45 -150 45h-223v117h192c60.667 0 109.334 14 146.001 42s55 63.667 55 107c0 50 -24 90.667 -72 122c-48.667 30.667 -112 46 -190 46
c-131.333 0 -228.333 -39 -291 -117l-84 97c93.333 105.333 225.333 157.666 396 156.999c118 0 214.667 -25 290 -75c74 -51.333 111 -117 111 -197c0 -48.667 -13.667 -94.334 -41 -137.001c-26 -42 -62.333 -72.667 -109 -92c54 -17.333 98.667 -49.666 134 -96.999
c35.333 -49.333 53 -103 53 -161c0 -88 -40.333 -159.333 -121 -214c-81.333 -55.333 -185.666 -83 -312.999 -83c-178.667 0 -316 55.333 -412 166l84 96c64 -83.333 166.333 -125 307 -125z" />
    <glyph glyph-name="uni0438" unicode="&#x438;" horiz-adv-x="1271" 
d="M160 0v1024h162v-776l651 776h139v-1024h-162v772l-645 -772h-145z" />
    <glyph glyph-name="uni0439" unicode="&#x439;" horiz-adv-x="1271" 
d="M160 0v1024h162v-776l651 776h139v-1024h-162v772l-645 -772h-145zM336 1415h127c0 -46.667 15.667 -84.167 47 -112.5s73 -42.5 125 -42.5s93.667 14.333 125 43s47 66 47 112h129c0 -82 -28 -147.667 -84 -197c-56 -50 -128.333 -75 -217 -75s-160.667 25 -216 75
c-55.333 49.333 -83 115 -83 197z" />
    <glyph glyph-name="uni043A" unicode="&#x43a;" horiz-adv-x="1140" 
d="M160 0v1024h162v-432h186l338 432h184l-387 -494l430 -530h-190l-383 463h-178v-463h-162z" />
    <glyph glyph-name="uni043B" unicode="&#x43b;" horiz-adv-x="1271" 
d="M324 1024l782 -0.000976562v-1024h-162v895h-471c0 -251.333 -11 -443.666 -33 -576.999c-23.333 -134.667 -55 -223.667 -95 -267c-40.667 -44.667 -99 -67 -175 -67c-46.667 0 -85.667 8.66699 -117 26l31 119c13.333 -9.33301 32.333 -14 57 -14c42 0 75 19.333 99 58
c24 39.333 44 127 60 263c16 137.333 24 333.333 24 588z" />
    <glyph glyph-name="uni043C" unicode="&#x43c;" horiz-adv-x="1474" 
d="M160 0v1024h194l383 -707l383 707h195v-1024h-150v791l-381 -699h-94l-379 699v-791h-151z" />
    <glyph glyph-name="uni043D" unicode="&#x43d;" horiz-adv-x="1257" 
d="M322 0h-162v1024h162v-432h614v432h160v-1024h-160v463h-614v-463z" />
    <glyph glyph-name="uni043E" unicode="&#x43e;" horiz-adv-x="1267" 
d="M250 132c-100 98 -150 224.667 -150 380c0 154.667 50 281.667 150 381c98.667 98 227 147 385 147c156.667 0 284.667 -49 384 -147c98.667 -98.667 148 -225.667 148 -381s-49.333 -282 -148 -380c-98.667 -98.667 -226.667 -148 -384 -148
c-158 0 -286.333 49.333 -385 148zM272 512c0 -114 33.665 -207.332 100.998 -279.999c66.667 -72.667 154 -109 262 -109c106.667 0 193.334 36.333 260.001 109c66.667 71.333 100 164.666 100 279.999c0 116.667 -33.333 210.667 -100 282
c-67.333 71.333 -154 107 -260 107c-107.333 0 -194.666 -35.667 -261.999 -107c-67.333 -72.667 -101 -166.667 -101 -282z" />
    <glyph glyph-name="uni043F" unicode="&#x43f;" horiz-adv-x="1247" 
d="M322 0h-162v1024h925v-1024h-159v895h-604v-895z" />
    <glyph glyph-name="uni0440" unicode="&#x440;" horiz-adv-x="1243" 
d="M322 -461l-162 -0.00195312v1485h162v-225c33.333 74.667 84.666 133.334 153.999 176.001c69.333 43.333 146.333 65 231 65c130 0 235.333 -46.333 316 -139c80 -93.333 120 -214 120 -362c0 -163.333 -49.667 -296.666 -149 -399.999
c-100 -103.333 -230.667 -155 -392 -155c-109.333 0 -202.666 23.667 -279.999 71v-516zM322 507.998v-312.998c78 -48 164.667 -72 260 -72c116 0 210 38 282 114c71.333 75.333 107 173.666 107 294.999c0 111.333 -29.667 201.666 -89 270.999
c-58.667 68 -135 102 -229 102c-95.333 0 -174.333 -37 -237 -111c-62.667 -74.667 -94 -170 -94 -286z" />
    <glyph glyph-name="uni0441" unicode="&#x441;" horiz-adv-x="1112" 
d="M922 225l95.999 -94c-94.667 -98 -221.667 -147 -381 -147s-288.333 49.333 -387 148c-100 98 -150 225.333 -150 382c0 155.333 50 282 150 380c99.333 97.333 228.333 146 387 146c155.333 0 282.333 -49 381 -147l-96 -96c-69.333 69.333 -161 104 -275 104
c-111.333 0 -201.333 -36 -270 -108c-70 -72.667 -105 -165.667 -105 -279c0 -116 35 -210 105 -282c68.667 -72.667 158.667 -109 270 -109c112.667 0 204.334 34 275.001 102z" />
    <glyph glyph-name="uni0442" unicode="&#x442;" horiz-adv-x="1050" 
d="M53 895v129h944v-129h-391v-895h-162v895h-391z" />
    <glyph glyph-name="uni0443" unicode="&#x443;" horiz-adv-x="1161" 
d="M444 -145l67.999 143l-463 1026h166l373 -842l358 842h166l-532 -1227c-39.333 -91.333 -84.833 -159.833 -136.5 -205.5s-114.167 -68.5 -187.5 -68.5c-77.333 0 -146.333 27.333 -207 82l84 100c34.667 -27.333 72.334 -41 113.001 -41
c74.667 0 140.667 63.667 198 191z" />
    <glyph glyph-name="uni0444" unicode="&#x444;" horiz-adv-x="1538" 
d="M248 134c-98.667 96.667 -147.999 222.666 -147.999 377.999c0 156 49.333 282.333 148 379c97.333 96.667 225 145 383 145c22 0 41 -0.666992 57 -2v451h162v-451c16 1.33301 35 2 57 2c157.333 0 285.333 -48.333 384 -145c98 -97.333 147 -223.666 147 -378.999
c0 -154.667 -49 -280.667 -147 -378c-99.333 -97.333 -227.333 -146 -384 -146c-22 0 -41 0.666992 -57 2v-451h-162v451c-16 -1.33301 -35 -2 -57 -2c-156.667 0 -284.334 48.667 -383.001 146zM907.001 906.999c-27.333 0 -46.332 -1.33301 -56.999 -4v-782
c22 -2.66699 41 -4 57 -4c109.333 0 198.666 36.667 267.999 110c68.667 72.667 103 167.667 103 285c0 118 -34.333 213.333 -103 286s-158 109 -268 109zM631.002 906.999c-108.667 0 -197.667 -36.667 -267 -110c-69.333 -74.667 -104 -169.667 -104 -285
c0 -116 34.667 -210.667 104 -284c69.333 -74 158.333 -111 267 -111c16 0 35 1.33301 57 4v782c-10.667 2.66699 -29.667 4 -57 4z" />
    <glyph glyph-name="uni0445" unicode="&#x445;" horiz-adv-x="1161" 
d="M580 418l-318 -418h-192l409 524l-387 500h191l297 -393l297 393h192l-389 -500l412 -524h-193z" />
    <glyph glyph-name="uni0446" unicode="&#x446;" horiz-adv-x="1345" 
d="M160 0v1024h162v-895h593v895h162v-895h199v-446h-150v317h-966z" />
    <glyph glyph-name="uni0447" unicode="&#x447;" horiz-adv-x="1165" 
d="M121 688l-0.000976562 338h160v-305c0 -73.333 24.333 -131.333 73 -174s115.667 -64 201 -64c110 0 206.333 33.667 289 101v442h162v-1024h-162v438c-101.333 -61.333 -212.666 -92 -333.999 -92c-120 0 -214.667 31 -284 93c-70 62 -105 144.333 -105 247z" />
    <glyph glyph-name="uni0448" unicode="&#x448;" horiz-adv-x="1759" 
d="M1597 1024v-1024h-1437v1024h162v-895h477v895h162v-895h477v895h159z" />
    <glyph glyph-name="uni0449" unicode="&#x449;" horiz-adv-x="1865" 
d="M160 0v1024h162v-895h477v895h162v-895h477v895h159v-895h201v-446h-151v317h-1487z" />
    <glyph glyph-name="uni044A" unicode="&#x44a;" horiz-adv-x="1335" 
d="M395 895l-342 0.000976562v129h504v-387h352c98.667 0 178.334 -29.333 239.001 -88s91 -135.334 91 -230.001c0 -95.333 -30.333 -172.333 -91 -231s-140.334 -88 -239.001 -88h-514v895zM872 510.001h-315v-381h315c61.333 0 111.333 18 150 54c38 35.333 57 81 57 137
c0 55.333 -19 101 -57 137c-39.333 35.333 -89.333 53 -150 53z" />
    <glyph glyph-name="uni044B" unicode="&#x44b;" horiz-adv-x="1517" 
d="M674 0h-514v1024h162v-387h352c98.667 0 178.667 -29.333 240 -88c61.333 -59.333 92 -136 92 -230c0 -94.667 -30.667 -171.667 -92 -231c-61.333 -58.667 -141.333 -88 -240 -88zM639 510h-317v-381h317c59.333 0 108.666 18 147.999 54c38 35.333 57 81 57 137
c0 55.333 -19 101 -57 137c-39.333 35.333 -88.666 53 -147.999 53zM1356 0h-160v1024h160v-1024z" />
    <glyph glyph-name="uni044C" unicode="&#x44c;" horiz-adv-x="1099" 
d="M674 0h-514v1024h162v-387h352c98.667 0 178.667 -29.333 240 -88c61.333 -59.333 92 -136 92 -230c0 -94.667 -30.667 -171.667 -92 -231c-61.333 -58.667 -141.333 -88 -240 -88zM639 510h-317v-381h317c59.333 0 108.666 18 147.999 54c38 35.333 57 81 57 137
c0 55.333 -19 101 -57 137c-39.333 35.333 -88.666 53 -147.999 53z" />
    <glyph glyph-name="uni044D" unicode="&#x44d;" horiz-adv-x="1095" 
d="M831 469l-504.999 0.000976562v117h501c-12.667 96 -52 174 -118 234c-66.667 59.333 -148 89 -244 89c-118.667 0 -213 -36 -283 -108l-88 88c97.333 100 224.333 149.667 381 149c154 0 279.667 -49 377 -147c96.667 -98.667 145 -225 145 -379
c0 -153.333 -48.667 -279.333 -146 -378c-96.667 -98.667 -222 -148 -376 -148c-156.667 0 -283.667 49.667 -381 149l88 90c69.333 -74.667 163.666 -111.334 282.999 -110.001c102 0 186.667 32.667 254 98c66.667 64.667 104 150 112 256z" />
    <glyph glyph-name="uni044E" unicode="&#x44e;" horiz-adv-x="1697" 
d="M322 463v-462.998h-162v1024h162v-432h243c16.667 134 72 242.333 166 325c94 82 210 123 348 123c153.333 0 278.333 -49.333 375 -148s145 -225.334 145 -380.001c0 -154 -48.333 -280.333 -145 -379c-97.333 -99.333 -222.333 -149 -375 -149
c-143.333 0 -262.333 44.333 -357 133c-95.333 89.333 -148.333 204.666 -159 345.999h-241zM1330 793.002c-64.667 72 -148 108 -250 108c-102.667 0 -186 -36 -250 -108c-64.667 -72.667 -97 -166.334 -97 -281.001c0 -115.333 32.333 -208.666 97 -279.999
c64 -72.667 147.333 -109 250 -109c102 0 185.333 36.333 250 109c64.667 71.333 97 164.666 97 279.999c0 114.667 -32.333 208.334 -97 281.001z" />
    <glyph glyph-name="uni044F" unicode="&#x44f;" horiz-adv-x="1138" 
d="M268 0h-175.999l295 414c-81.333 8.66699 -147.333 41 -198 97c-50.667 54.667 -76 122.667 -76 204c0 92 31.333 166.333 94 223c63.333 57.333 144.666 86 243.999 86h526l2 -1024h-162v408h-262zM333.001 844c-39.333 -34 -59 -78.333 -59 -133
s19.667 -98.667 59 -132c39.333 -34 90 -51 152 -51h332v367h-332c-62 0 -112.667 -17 -152 -51z" />
    <glyph glyph-name="uni0450" unicode="&#x450;" horiz-adv-x="1202" 
d="M1100 463l-829.998 -0.000976562c4 -100 43.667 -181.667 119 -245s169.666 -95 282.999 -95c121.333 0 218.333 34 291 102l90 -90c-98.667 -101.333 -232.667 -151.666 -402 -150.999c-164.667 0 -297.334 50 -398.001 150c-102 98.667 -153 228.667 -153 390
c0 150.667 46.667 274.667 140 372c93.333 96 213.333 144 360 144c148.667 0 270 -49 364 -147c93.333 -99.333 140 -227 140 -383c0 -12 -1.33301 -27.667 -4 -47zM272.002 585.999l663.999 -0.000976562c-2.66699 94 -34 170.333 -94 229
c-59.333 58.667 -135.666 88 -228.999 88s-171.333 -29.333 -234 -88c-63.333 -59.333 -99 -135.666 -107 -228.999zM678.001 1176l-332 268l98 98l299 -301z" />
    <glyph glyph-name="uni0451" unicode="&#x451;" horiz-adv-x="1202" 
d="M100 524c0 150.667 46.668 274.667 140.001 372c93.333 96 213.333 144 360 144c148.667 0 270 -49 364 -147c93.333 -99.333 140 -227 140 -383c0 -12 -1.33301 -27.667 -4 -47h-830c4 -100 43.667 -181.667 119 -245s169.666 -95 282.999 -95
c121.333 0 218.333 34 291 102l90 -90c-98.667 -101.333 -232.667 -151.666 -402 -150.999c-164 0 -296.667 49.667 -398 149c-102 99.333 -153 229.666 -153 390.999zM842.001 815c-59.333 58.667 -135.667 88 -229 88s-171.333 -29.333 -234 -88
c-62 -58.667 -97.667 -135 -107 -229h664c-2.66699 94 -34 170.333 -94 229zM901 1247h-156v187h156v-187zM457 1247h-156v187h156v-187z" />
    <glyph glyph-name="uni0452" unicode="&#x452;" horiz-adv-x="1251" 
d="M322 1485l-0.000976562 -186.999h333v-106h-333v-391c36.667 75.333 88.834 134 156.501 176s143.834 63 228.501 63c118 0 213.333 -36 286 -108c72.667 -72.667 109 -167 109 -283v-790c0 -100 -30.667 -180.667 -92 -242s-140.333 -92 -237 -92
c-98 0 -180.333 33.333 -247 100l86 96c38 -38 87.333 -57 148 -57c53.333 0 96.666 18.667 129.999 56c33.333 38.667 50 87 50 145v751c0 85.333 -26 154.666 -78 207.999c-52 52.667 -118.667 79 -200 79c-101.333 0 -183.333 -38.333 -246 -115s-94 -174.667 -94 -294
v-494h-162v1192h-162v106h162v187h162z" />
    <glyph glyph-name="uni0453" unicode="&#x453;" horiz-adv-x="923" 
d="M160 1024h708v-129h-546v-895h-162v1024zM381 1241l299 301l98 -98l-332 -268z" />
    <glyph glyph-name="uni0454" unicode="&#x454;" horiz-adv-x="1095" 
d="M807 586l0.00195312 -117.001h-541c7.33301 -106 44.666 -191.333 111.999 -256c67.333 -65.333 152.333 -98 255 -98c119.333 0 212.666 36.667 279.999 110l91 -90c-100 -100 -227 -150 -381 -150c-154.667 0.666992 -280.334 50.334 -377.001 149.001
c-97.333 98.667 -146 224.667 -146 378c0 156 48.333 282.667 145 380c96 97.333 221.333 146 376 146s282.334 -49.667 383.001 -149l-91 -88c-68 72.667 -161.333 108.667 -280 108c-96 0 -177.333 -29.667 -244 -89c-66.667 -58.667 -107 -136.667 -121 -234h539z" />
    <glyph glyph-name="uni0455" unicode="&#x455;" horiz-adv-x="968" 
d="M870 283c0 -90 -36.332 -162.33 -108.999 -216.997s-169.334 -82 -290.001 -82c-148 0 -273.667 46.333 -377 139l84 96c77.333 -65.333 174.333 -98 291 -98c72.667 0 132 14 178 42c45.333 28 68 64.333 68 109c0 29.333 -12 55.666 -36 78.999
c-23.333 22 -50 39.333 -80 52c-31.333 12 -70.666 25.667 -117.999 41c-12 4 -18.667 6.33301 -20 7c-58.667 18.667 -100.334 33 -125.001 43c-30 12 -64 30 -102 54c-75.333 46.667 -113 115.334 -113 206.001c0 85.333 33.667 154.666 101 207.999
c66.667 52 155.667 78 267 78c142.667 0 259.667 -44.333 351 -133l-86 -96c-64.667 61.333 -150 92 -256 92c-66.667 0 -120.667 -13 -162 -39s-62 -60 -62 -102c0 -34.667 17 -65 51 -91c13.333 -11.333 33 -22.333 59 -33c36 -14.667 57 -23 63 -25
c12 -4.66699 36.333 -13 73 -25c60.667 -18.667 104 -33.334 130 -44.001c29.333 -12 65 -30.333 107 -55c75.333 -46.667 113 -115.334 113 -206.001z" />
    <glyph glyph-name="uni0456" unicode="&#x456;" horiz-adv-x="481" 
d="M322 0h-162v1024h162v-1024zM322 1241h-162v193h162v-193z" />
    <glyph glyph-name="uni0457" unicode="&#x457;" horiz-adv-x="481" 
d="M322 1024v-1024h-162v1024h162zM520 1434v-187h-155v187h155zM-39 1247v187h156v-187h-156z" />
    <glyph glyph-name="uni0458" unicode="&#x458;" horiz-adv-x="503" 
d="M-231 -375l86 96.001c38 -38 87 -57 147 -57c52 0 95 18.667 129 56c34 38 51 86.333 51 145v1159h160v-1165c0 -100.667 -30.333 -181.334 -91 -242.001c-61.333 -61.333 -140.333 -92 -237 -92c-99.333 0 -181 33.333 -245 100zM342 1434v-193h-160v193h160z" />
    <glyph glyph-name="uni0459" unicode="&#x459;" horiz-adv-x="1847" 
d="M53 10l31 118.999c13.333 -9.33301 32.333 -14 57 -14c42 0 75 19.333 99 58c24 39.333 44 127 60 263c16 137.333 24 333.333 24 588h761v-387h340c98.667 0 178.667 -29.333 240 -88c61.333 -59.333 92 -136 92 -230c0 -94.667 -30.667 -171.667 -92 -231
c-60.667 -58.667 -140.667 -88 -240 -88h-501v895h-451c0 -251.333 -11 -443.666 -33 -576.999c-23.333 -134.667 -55 -223.667 -95 -267c-40.667 -44.667 -99 -67 -175 -67c-46.667 -0.666992 -85.667 8 -117 26zM1391 509.999h-306.001v-381h306c62 0 111.333 18 148 54
c37.333 35.333 56 81 56 137c0 55.333 -18.667 101 -56 137c-37.333 35.333 -86.666 53 -147.999 53z" />
    <glyph glyph-name="uni045A" unicode="&#x45a;" horiz-adv-x="1798" 
d="M160 0v1024h162v-412h567v412h162v-412h338c94.667 0 171.334 -28.333 230.001 -85c59.333 -57.333 89 -130.666 89 -219.999c0 -90.667 -29.667 -164.667 -89 -222c-58.667 -56.667 -136.334 -85 -233.001 -85h-497v483h-567v-483h-162zM1350 482.999
l-299.001 0.000976562v-354h299c58.667 0 106 16.333 142 49s54 75.667 54 129c0 51.333 -18 93.666 -54 126.999c-35.333 32.667 -82.666 49 -141.999 49z" />
    <glyph glyph-name="uni045B" unicode="&#x45b;" horiz-adv-x="1251" 
d="M322 1485l-0.00195312 -186.999h333v-106h-333v-391c36.667 75.333 88.834 134 156.501 176s143.834 63 228.501 63c118 0 213.333 -36 286 -108c72.667 -72.667 109 -167 109 -283v-649h-162v616c0 85.333 -26 154.666 -78 207.999c-52 52.667 -118.667 79 -200 79
c-101.333 0 -183.333 -38.333 -246 -115s-94 -174.667 -94 -294v-494h-162v1192h-162v106h162v187h162z" />
    <glyph glyph-name="uni045C" unicode="&#x45c;" horiz-adv-x="1140" 
d="M160 0v1024h162v-432h186l338 432h184l-387 -494l430 -530h-190l-383 463h-178v-463h-162zM500 1176l-66 65l299 301l98 -98z" />
    <glyph glyph-name="uni045D" unicode="&#x45d;" horiz-adv-x="1271" 
d="M305 0h-145v1024h162v-776l651 776h139v-1024h-162v772zM780 1241l-67 -65l-332 268l98 98z" />
    <glyph glyph-name="uni045E" unicode="&#x45e;" horiz-adv-x="1161" 
d="M444 -145l67.999 143l-463 1026h166l373 -842l358 842h166l-532 -1227c-39.333 -91.333 -84.833 -159.833 -136.5 -205.5s-114.167 -68.5 -187.5 -68.5c-77.333 0 -146.333 27.333 -207 82l84 100c34.667 -27.333 72.334 -41 113.001 -41
c74.667 0 140.667 63.667 198 191zM288.999 1415h127c0 -46.667 15.667 -84.167 47 -112.5s73 -42.5 125 -42.5c51.333 0 92.5 14.167 123.5 42.5s46.5 65.833 46.5 112.5h131c0 -82 -28 -147.667 -84 -197c-56 -50 -128.333 -75 -217 -75c-89.333 0 -161.333 25 -216 75
c-55.333 49.333 -83 115 -83 197z" />
    <glyph glyph-name="uni045F" unicode="&#x45f;" horiz-adv-x="1247" 
d="M160 0v1024h162v-895h604v895h159v-1024h-387v-317h-149v317h-389z" />
    <glyph glyph-name="uni0490" unicode="&#x490;" horiz-adv-x="1189" 
d="M342 1288v-1288h-172v1434h795v256h159v-402h-782z" />
    <glyph glyph-name="uni0491" unicode="&#x491;" horiz-adv-x="923" 
d="M322 0h-162v1024h545v256h149v-385h-532v-895z" />
    <glyph glyph-name="uni04D8" unicode="&#x4d8;" horiz-adv-x="1644" 
d="M1335 189c-134.667 -136.667 -307.001 -205 -517.001 -205c-210.667 0 -381 68 -511 204c-130.667 134.667 -196 311 -196 529c0 23.333 0.666992 43 2 59h1235c-12 154.667 -70.667 280.667 -176 378c-105.333 96 -237.333 144 -396 144c-88.667 0 -171 -15 -247 -45
c-76 -29.333 -137.667 -70.333 -185 -123l-100 107c138 142 319.333 213 544 213c220.667 0 400.334 -68.333 539.001 -205c139.333 -137.333 209 -314 209 -530c0 -214.667 -67 -390 -201 -526zM457.999 274c94.667 -92.667 213.668 -139 357.001 -139
s263.666 46 360.999 138c96 90 152.667 209.333 170 358h-1047c11.333 -146 64.333 -265 159 -357z" />
    <glyph glyph-name="uni04D9" unicode="&#x4d9;" horiz-adv-x="1202" 
d="M102 563l832 0.000976562c-4.66699 97.333 -45 178.333 -121 243c-75.333 63.333 -169 95 -281 95c-125.333 0 -222 -34 -290 -102l-90 90c98.667 101.333 231.667 151.666 399 150.999c162.667 0 295.667 -49.667 399 -149c102.667 -100 154 -229.667 154 -389
c0 -150.667 -46.667 -274.667 -140 -372c-94 -97.333 -214.667 -146 -362 -146c-148 0 -268.667 49.667 -362 149s-140 226.333 -140 381c0 16.667 0.666992 33 2 49zM932 438.001h-666.001c2.66699 -93.333 34.667 -169.333 96 -228c61.333 -59.333 138 -89 230 -89
c90.667 0 168.334 29.667 233.001 89c63.333 59.333 99 135.333 107 228z" />
    <glyph glyph-name="Wgrave" unicode="&#x1e80;" horiz-adv-x="2275" 
d="M545 0l-490 1434h176l404 -1203l416 1203h174l413 -1203l406 1203h176l-491 -1434h-181l-409 1202l-414 -1202h-180zM1214 1505l-331 267l98 98l299 -299z" />
    <glyph glyph-name="wgrave" unicode="&#x1e81;" horiz-adv-x="1679" 
d="M406 0l-361 1024h160l280 -815l281 815h147l279 -815l283 815h159l-362 -1024h-152l-280 805l-283 -805h-151zM918 1176l-334 268l98 98l301 -301z" />
    <glyph glyph-name="Wacute" unicode="&#x1e82;" horiz-adv-x="2275" 
d="M545 0l-490 1434h176l404 -1203l416 1203h174l413 -1203l406 1203h176l-491 -1434h-181l-409 1202l-414 -1202h-180zM1061 1505l-68 66l299 299l99 -98z" />
    </font>
</defs>
</svg>
